<svg xmlns="http://www.w3.org/2000/svg" viewBox="0 0 477.93 376.75"><title>asset_1</title><g id="Layer_2" data-name="Layer 2"><g id="Layer_1-2" data-name="Layer 1"><g id="Layer_2-2" data-name="Layer 2"><g id="Layer_1-2-2" data-name="Layer 1-2"><path d="M454.09,338.75c5.8.08,11.44.32,16.34,4.25,7.06,5.67,9.16,12.27,6.21,21-1.93,5.73-10.2,11.3-17.06,11.71-2.55.15-5.31-1-7.64,1h-4c-1.47-1.65-3.42-1-5.16-1H32.15c-1.74,0-3.7-.68-5.17,1H23c-4.39-1.66-9.23-1.6-13.48-4.12C3.6,369.12-1,362.15.2,355.39S5,343.29,12,340.68a27.57,27.57,0,0,1,12.13-1.77c.14,7.65-2,15.19-1.11,22.88-.31,5.2,3,7.35,7.36,7.56,7.78.37,15.6.23,23.4,0,2.22-.07,5.82-.48,6.11-2.54.71-5.19,3.35-9.5,4.89-14.25.94-2.91-2.51-5.13-3.91-7.7l-.15-1.06V342l.42-3.16c2,0,4,0,5.94.05,15.64.52,31.33-1.15,46.94,1,9,11.75,20,12.62,28,2.22.92-1.09,1.85-2.17,2.77-3.25H313.3c7.11,0,14.25-.49,21.31.9,3.87,5.14,8,9.62,15.31,9.45s11.65-4.72,15.24-10.36l52.11.09c.07,1.34-.44,2.79.77,3.9a8.22,8.22,0,0,1-2.31,4.84c-6,6.3,3.68,10.76,2,16.64a3.25,3.25,0,0,0,2.09,3.62,17.27,17.27,0,0,0,3.79,1.08c8.4,1,16.85.68,25.25.25,3.86-.2,7.33-2.38,7-7.35C456.4,354.13,454.07,346.55,454.09,338.75Z" fill="#ebece6"/><path d="M27,376.75c1.47-1.64,3.43-1,5.17-1H442.77c1.74,0,3.69-.69,5.16,1Z" fill="#fff"/><path d="M282.39,42.67A79.19,79.19,0,0,1,317.62,53c9.39,5.4,18.79,10.92,26.72,18.49-2,1.82-4.82.92-7,2.15a11.56,11.56,0,0,0-1.91-2.27,249.93,249.93,0,0,0-26.27-16.74c-3.05-1.69-3.06.69-2.79,2.51,1,6.76-2.44,11.32-7.11,15.44A37.52,37.52,0,0,1,290,78.28a8.23,8.23,0,0,0-5.06,5.47c-1.39,4.23-3.45,8.88-9.4,8.71-2.2-.7-1.87,1.11-2.11,2.22a52.73,52.73,0,0,1-6.4,16.59c-6.25,10.28-12.41,21-27.43,18.08q0-38.71-.07-77.41c9.59-.64,19.16-1.35,28.23-5,5.12-2.06,5.27-2,5.45,3.7.2,6.78,0,13.6,4.7,19.26,3.53-2.79,4.5-6.43,4.3-10.85C282,53.6,282.29,48.13,282.39,42.67Z" fill="#e2c3af"/><path d="M199.67,24.75C205,11.93,215.12,5,228,1.5c21.21-5.67,44.1,5.25,51.31,24.25-4,1.36-6.67,5-11.07,6.11a110.45,110.45,0,0,1-54.69.62C208.39,31.2,202.85,30,199.67,24.75Z" fill="#3c3e3d"/><path d="M199.67,24.75c3.18,5.18,8.72,6.43,13.91,7.7a110.45,110.45,0,0,0,54.69-.62c4.4-1.12,7-4.75,11.07-6.11C282.6,31,281.4,37,282.39,42.65c-.1,5.46-.47,10.93-.21,16.37.2,4.42-.77,8.06-4.3,10.85-4.66-5.66-4.5-12.48-4.7-19.26-.18-5.72-.33-5.76-5.45-3.7-9.07,3.63-18.64,4.34-28.23,5-10.25-.53-20.49-1.29-30-5.58-3.62-1.63-4.18-.45-4.1,2.9.16,7.45-.05,14.88-4.88,21.22l-4.15-5.8-.06-22.05C196.91,36.56,196,30.23,199.67,24.75Z" fill="#332923"/><path d="M454.09,338.75c0,7.76,2.31,15.34,1.72,23.14-2.48,1.44-4.07,4.13-7.67,4-7.13-.32-14.28,0-21.42-.09-4.56-.05-7.6-4.84-5.11-8.67a35.77,35.77,0,0,1,8.88-10c1.68-1.2,3.52-2,5.35-.07,1.69,1.77,1.19,3.52.33,5.49-.71,1.62-2.8,2.44-2.66,4.54,7.15,1.36,8.41.37,8.43-6.6V348c.09-2.86.25-5.66-3-7.23a7.13,7.13,0,0,0-8.7,1.37c-3.35,3.22-6.61,3.44-10.11.41-1.16-6.7,1.84-13.07,1.84-19.72h0c2.18,0,2.1-1.51,2-3v.06l1-1.29.15-1.73c2.3.17,4.53.19,4.93-2.89,4.56-1.36,9.49-.19,14-2.08a9.7,9.7,0,0,0,6.84,6.05Q452.48,328.38,454.09,338.75Z" fill="#e2c3af"/><path d="M23,361.75c-.84-7.69,1.25-15.23,1.11-22.88,1.49-5.92,1.06-12.16,3.05-18l6.83-8H47c1.84,2.11,3.09,5,6.62,4.84l2.34,3.15c-1.63,1.74-1,2.63,1.12,2.9h0a96.75,96.75,0,0,1,.92,18c-2.66,3.93-5.5,4.05-8.9.74a8.3,8.3,0,0,0-9.61-1.73c-3.67,1.52-2.21,4.73-2.44,7.33-.18,2,0,4,0,5.95a3.12,3.12,0,0,0,2.86,3.39H40c1.54.26,3.52,1,4.61-.6s-1-2.54-1.5-3.85a4.28,4.28,0,0,0-.77-1.28c-1.63-1.75-.93-3.44.36-4.85,1.48-1.63,3.37-1.45,4.86,0a91.18,91.18,0,0,1,8.59,8.88c1.75,2.16,1.25,5.14.37,7.62-1,2.68-3.55,2.51-5.91,2.49-5.3,0-10.62-.27-15.9,0C30.07,366.16,26.18,365.13,23,361.75Z" fill="#e2c3af"/><path d="M196.31,42.6l.06,22.05c-3.91.76-5.45,3.13-4.86,7,.38,2.58.62,5.18.92,7.77-7.06-1.25-12.33-5.67-16.87-10.67a14.29,14.29,0,0,1-3.14-14.86c-10.68,3.86-18.94,10.5-27.67,16.35-1.45,1-3,2.15-3,4.31l-8-2.9c15-12.45,31-23,50.37-27.27C188.15,43.49,192.16,42.54,196.31,42.6Z" fill="#e2c3af"/><path d="M407,135.48a5.25,5.25,0,0,1,2.08,4c1.33,6.86,5.34,12.64,7.68,19.11,4.69,13,9.67,25.8,11.56,39.67.64,4.64-.49,9.53,1.73,14l-1,2H416.07a37.71,37.71,0,0,1,.64-4.37c4.44-17.52,2-33.43-10.44-47.29-1.66-1.85-4.34-2.59-5.2-5.15,0-1.68,0-3.36.08-5,2.45-.34,1.88-2.27,1.89-3.78A74.1,74.1,0,0,1,404,137C404.35,134.31,405.66,135.38,407,135.48Z" fill="#e2c3af"/><path d="M69.75,140.22c.06-.6.12-1.19.17-1.79,2.8-.6,2.84-2.82,3-5h0c3,.6,1.78,3,2,4.75.5,4.76-1.24,9.83,2,14.2,2.12,1.64-.24,3.32,0,5-.3.75-.4,1.78-1,2.19-12.47,9.25-15.52,22.44-16.18,37-.28,6,2.31,11.13,3.16,16.74-4.65,1.87-9.31,1.1-14,0a2.24,2.24,0,0,1-1.08-2c1.68-2.4,1.8-5.28,2-8,.94-14.32,5.32-27.72,10.54-40.89C63.36,155,66.62,147.62,69.75,140.22Z" fill="#e2c3af"/><path d="M430,212.2c-2.22-4.43-1.09-9.32-1.73-14-1.89-13.87-6.87-26.69-11.56-39.67-2.34-6.47-6.35-12.25-7.68-19.11,6.09,4.76,7.36,12.35,10.71,18.66a131.12,131.12,0,0,1,12.37,36c.76,3.81,2.76,7.42,4.5,11C444,220.2,447,236.35,447.94,253c1.1,20,2,40,3,60,.08,1.65,0,3.32-.07,5a9.7,9.7,0,0,1-6.84-6.05c1.77-12,.37-24.06,1.75-36.07,1.07-9.36-.11-18.82-.85-28.2a104.71,104.71,0,0,0-8.69-34.83C433.74,207.24,433.57,207.32,430,212.2Z" fill="#ead3c3"/><path d="M76.87,152.38c-3.26-4.37-1.52-9.44-2-14.2-.19-1.73,1-4.15-2-4.75,4.1-5,3.81-11.47,5.85-17.16,7.08-19.77,19.93-34,39.54-41.89,5-2,10.48-1,15.5-2.73l8,2.9c3.78,1.77,8.44,2.56,8.91,8-5.31-1.31-10.31-3.85-15.91-4-17.49,1.7-31,10.62-41.79,23.81-8.55,10.43-12.56,23-15,36A80.26,80.26,0,0,1,76.87,152.38Z" fill="#ead3c3"/><path d="M69.75,140.22c-3.13,7.4-6.39,14.75-9.35,22.23-5.22,13.17-9.6,26.57-10.54,40.89-.18,2.68-.3,5.56-2,8l-2.48-3.59c-1.43.56-1.66,1.82-2.11,2.84A112.82,112.82,0,0,0,33,255.21c-.28,19.25.22,38.49,1,57.72l-6.83,8c.94-19.12,2.12-38.24,2.71-57.38A185.91,185.91,0,0,1,35,224.39c1.47-5.94,3.15-11.91,6-17.29,5.51-10.34,7.08-21.9,10.89-32.75,3.9-11.08,9.28-21.49,14.93-31.77A4.11,4.11,0,0,1,69.75,140.22Z" fill="#ead3c3"/><path d="M407,135.48c-1.28-.1-2.59-1.17-3,1.47a73.7,73.7,0,0,0-.88,11.59c0,1.51.56,3.44-1.89,3.78l-.09-5.93c1.54-1.56.27-1.77-1-2v-5c-.76-12.34-5.4-23.32-12.13-33.44-7.1-10.66-17-18.4-28.39-23.77-4.91-2.32-10.73-3.19-16.37-3.58-6,.66-11.71,2-17,5,1.77-5.47,7.07-7,11.1-9.93,2.18-1.23,5-.33,7-2.15a11.56,11.56,0,0,0,3.25,1c15.05,0,26.15,7.79,36.17,17.94s16.45,22.18,18.38,36.44C402.61,130.4,406.18,132.15,407,135.48Z" fill="#ead3c3"/><path d="M72.88,133.43c-.12,2.18-.16,4.4-3,5C70.26,136.38,71,134.53,72.88,133.43Z" fill="#ead3c3"/><path d="M23,361.75c3.2,3.34,7.09,4.37,11.68,4.11,5.28-.31,10.6-.08,15.9,0,2.36,0,5,.19,5.91-2.49.88-2.48,1.38-5.46-.37-7.62a90.66,90.66,0,0,0-8.67-8.86c-1.49-1.41-3.38-1.59-4.86,0-1.29,1.41-2,3.1-.36,4.85A4.28,4.28,0,0,1,43,353c.5,1.31,2.59,2.26,1.5,3.85s-3.07.86-4.61.6a3.15,3.15,0,0,1-3-3.32.25.25,0,0,0,0-.08c0-2-.16-4,0-5.95.23-2.6-1.23-5.81,2.44-7.33A8.3,8.3,0,0,1,49,342.56c3.4,3.31,6.24,3.19,8.9-.74l2.74.15v1.83c-.1.12-.3.28-.28.35a6.38,6.38,0,0,0,.43.71c1.4,2.57,4.85,4.79,3.91,7.7-1.54,4.75-4.18,9.06-4.89,14.25-.29,2.06-3.89,2.47-6.11,2.54-7.8.23-15.62.37-23.4,0C26,369.14,22.67,367,23,361.75Z" fill="#c69777"/><path d="M420.14,342.59c3.5,3,6.76,2.81,10.11-.41a7.13,7.13,0,0,1,8.7-1.37c3.25,1.57,3.09,4.37,3,7.23v2.49c0,7-1.28,8-8.43,6.6-.14-2.1,2-2.92,2.66-4.54.86-2,1.36-3.72-.33-5.49-1.83-1.93-3.67-1.13-5.35.07a35.63,35.63,0,0,0-8.88,10c-2.41,3.72.55,8.62,5.11,8.67,7.14.08,14.29-.23,21.42.09,3.6.16,5.19-2.53,7.67-4,.28,5-3.19,7.15-7,7.35-8.4.43-16.85.76-25.25-.25a17.27,17.27,0,0,1-3.79-1.08,3.25,3.25,0,0,1-2.09-3.62c1.72-5.88-7.94-10.34-2-16.64a8.21,8.21,0,0,0,2.28-4.84Z" fill="#c69777"/><path d="M367.44,330.25l-2.34,8.61c-3.59,5.64-7.81,10.2-15.24,10.36-7.27.17-11.44-4.31-15.31-9.45l-.38-1.82c.35-.37.71-.73,1.06-1.09,1.06,1.43,2,2.94,3.21,4.28,2.44,2.78,5.23,4.44,8.92,2.08a16.79,16.79,0,0,1,6.7,0c3.37,1.61,5.2-.74,6.87-2.91,3.28-4.25,4.64-9.31,5.53-14.51l1.55.12-.05,2A1.9,1.9,0,0,0,367.44,330.25Z" fill="#3c3e3d"/><path d="M110.45,326.89l-.29-2c.52-.65,1-1.31,1.55-2,.76,6.16,1.84,12.23,5.86,17.25,1.81,2.27,3.7,4.87,7.29,2.86l6.27.13c4,2.56,6.82.37,9.46-2.43l1.34,1.34c-8,10.4-18.94,9.53-28-2.22-1-4-3.21-7.63-3.23-11.87,0-.14.17-.3.13-.4A4.34,4.34,0,0,0,110.45,326.89Z" fill="#3c3e3d"/><path d="M420.14,342.59l-2.16.26c-1.21-1.11-.7-2.56-.77-3.9,1.62-3.16-.06-6.77,1.3-9.95.93-2.17,1.06-4.81,3.45-6.17C422,329.48,419,335.85,420.14,342.59Z" fill="#d9b298"/><path d="M142,342.1l-1.38-1.35c3.17-5.37,6.14-10.83,7.2-17.09.18-1.05.68-1.85,1.92-1.81.18,6.21-3.29,11.34-5,17C143.78,339.93,142.85,341,142,342.1Z" fill="#6a686f"/><path d="M60.64,342l-2.74-.15a96.75,96.75,0,0,0-.92-18c4.23,4.22,3.64,9.74,4.08,15Z" fill="#d9b298"/><path d="M60.83,344.86a6.38,6.38,0,0,1-.43-.71c0-.07.18-.23.28-.35Z" fill="#d9b298"/><path d="M151.91,152.18c-3.06-3.57-7.33-4.28-11.63-4.62-4.05-.32-6.11,2.05-7.54,5.72C127.8,166,121.9,178.2,113,188.72c-7.1,8.4-16.28,13.92-26.11,18.51-3.26,2.56-8,1.75-11,5-3.39-.1-6.6,1.58-10,1,7.69-4.1,15.94-7.19,22.93-12.5,15.45-11.71,29.36-24.43,28-46.33a60.85,60.85,0,0,0,27.06-22.31c3.31-4.85,6-10.14,9.85-14.62a27.7,27.7,0,0,1-.21,5.46c-4.75,19.83,13.52,36,26.87,39a101.46,101.46,0,0,0,28.55,2.3c7.66-.46,15.11-1.66,19.62-9.35,2.54-4.33,2.8-14.66-.09-17.12a82.48,82.48,0,0,1-22.93-31.26c-.68-3.35-1.38-6.69-2-10-.35-1.82-.93-3.21-2.92-4.11-5.45-2.47-7.74-7.15-8.19-12.9-.3-2.59-.54-5.19-.92-7.77-.59-3.9,1-6.27,4.86-7,1.38,1.94,2.77,3.87,4.15,5.8.42,7.23,2.9,14.08,4,21.23,2.08,13.17,8.56,24,17.41,33.73,5.11,5.61,11.49,3.66,17.58,3.86,15,2.9,21.18-7.8,27.43-18.08a52.73,52.73,0,0,0,6.4-16.59c.24-1.11-.09-2.92,2.11-2.22q-1.06,6.54-2.14,13.06a60.22,60.22,0,0,1-11.06,19c-4.38,5.2-7.63,11.72-14.89,13.87-8.93.18-7.89-1.27-7.95,7.94v18.92c-3.21,3.79-7.95,5-12.13,7.13-14.78,1.3-29.54,1.61-44.6-1a7.88,7.88,0,0,0,.54,2c7.26,8.77,16.51,13.64,28,13.9,9.45.21,18.9.23,28.29-1.19,8,1.61,16.13,1.23,24.23,1.28,13.79.09,24.89-5.4,33.56-16,1.79.28,1.33-4.27,4.09-1.9l-7.12,8.84c-8,6.91-16.85,11.81-27.67,13.07-9.07,1-18.11.79-27.17.93-5.63,0-11.26.2-16.87-.07-12.78-.61-25.32-2.15-35.23-11.57-.58-.56-1.23-1.3-2.13-.8s-.74,1.43-.64,2.22a14.78,14.78,0,0,0,3.62,7.45c.88,1.09,2.76,2.16.73,3.87-4.95-1.85-8.14-5.9-11.53-9.57-4.3-4.65-8.2-9.68-12.27-14.54C161.63,162.9,160,155,151.91,152.18Z" fill="#c69777"/><path d="M239.57,129.32c-6.09-.2-12.47,1.75-17.58-3.86-8.85-9.71-15.33-20.56-17.41-33.71-1.13-7.13-3.58-14-4.06-21.28,4.83-6.34,5-13.77,4.88-21.22-.08-3.35.48-4.53,4.1-2.9,9.51,4.29,19.75,5,30,5.58Q239.53,90.62,239.57,129.32Z" fill="#d6ad8f"/><path d="M273.37,105.49q1.06-6.52,2.14-13.06c5.95.17,8-4.48,9.4-8.71A8.23,8.23,0,0,1,290,78.28a37.52,37.52,0,0,0,9.29-5.69c4.67-4.12,8.15-8.68,7.11-15.44-.27-1.82-.26-4.2,2.79-2.51a249.93,249.93,0,0,1,26.27,16.74,11.56,11.56,0,0,1,1.91,2.27c-4,2.94-9.33,4.46-11.1,9.93h0A5.81,5.81,0,0,0,322.16,85c-13.08,9.26-28,14.45-43,19.71A15.59,15.59,0,0,1,273.37,105.49Z" fill="#d6ad8f"/><path d="M425.12,316.87c-2.91-20.84-10.64-40.12-19.23-59.12-1.49-3.29-3.07-6.54-4.61-9.81.89-.76.6-1.35-.29-1.83l.05.07c-1.72-11.37-3.32-22.74,1.21-33.9,3.25-1.33,6.54,2.33,9.79-.07l4,2H429c3.5,10.57,3.86,21.54,2.76,32.38-1.61,15.91-3.22,31.8-3.74,47.79-.22,6.63,2.59,13,2,19.65C429.65,317.06,427.42,317,425.12,316.87Z" fill="#d6ad8f"/><path d="M430.05,314c.56-6.68-2.25-13-2-19.65.52-16,2.13-31.88,3.74-47.79,1.1-10.84.74-21.81-2.76-32.38l1-2c3.58-4.88,3.75-5,6.24.6a104.65,104.65,0,0,1,8.7,34.87c.74,9.38,1.92,18.84.85,28.2-1.38,12,0,24.11-1.75,36.07C439.54,313.75,434.61,312.62,430.05,314Z" fill="#dbb79d"/><path d="M422,322.85a3.25,3.25,0,0,1,2-3C424,321.34,424.11,322.86,422,322.85Z" fill="#d9b298"/><path d="M424,319.89l1-1.28Z" fill="#d9b298"/><path d="M65.88,213.21c3.44.55,6.65-1.13,10-1,4.44,9.36,3.56,19.2,2.6,29-1.92,2.09-1.72,4.64-1.59,7.18-4.64,10.52-9.75,20.83-13.73,31.65-4.46,12.28-8.14,24.71-9.62,37.71-3.53.19-4.78-2.73-6.62-4.84.59-1.35,1.77-2.3,2-3.92,2.45-15.52,1-31.15-.48-46.49-1.62-16.58-2.31-32.88.49-49.28,4.66,1.07,9.32,1.84,14,0Z" fill="#d6ad8f"/><path d="M49,213.26c-2.8,16.4-2.11,32.7-.49,49.28,1.51,15.34,2.93,31,.48,46.49-.26,1.62-1.44,2.57-2,3.92H34c-.76-19.23-1.26-38.47-1-57.72a112.7,112.7,0,0,1,10.31-44.6c.45-1,.68-2.28,2.11-2.84l2.5,3.51A2.24,2.24,0,0,0,49,213.26Z" fill="#dbb79d"/><path d="M55.88,320.94c.37,1,.75,1.93,1.12,2.9C54.83,323.57,54.25,322.68,55.88,320.94Z" fill="#d9b298"/><path d="M192.43,79.45c.45,5.75,2.74,10.43,8.19,12.9,2,.9,2.57,2.29,2.92,4.11.65,3.35,1.35,6.69,2,10-3.29.09-5.59-2.59-8.76-3-8.08-1-15-5.22-22.39-8.28-6.92-2.88-13.33-6.81-19.74-10.68l-4-2c-.47-5.46-5.13-6.25-8.91-8,0-2.16,1.54-3.33,3-4.31,8.73-5.85,17-12.49,27.67-16.33a14.3,14.3,0,0,0,3.15,14.89C180.1,73.75,185.37,78.17,192.43,79.45Z" fill="#d6ad8f"/><path d="M416.07,214.17l-4-2c-14.88-5.71-28.23-13.82-38.46-26.17-7.29-8.78-14-18.12-12.34-30.66,2.28.14,4.61-.41,6.84.49,10.82,4.35,21.92,2.65,33,1.49.86,2.56,3.54,3.3,5.2,5.15,12.43,13.86,14.88,29.77,10.44,47.29A38.49,38.49,0,0,0,416.07,214.17Z" fill="#dbb79d"/><path d="M401.07,157.36c-11.07,1.16-22.17,2.86-33-1.49-2.23-.9-4.56-.35-6.84-.49-.17-.46-.22-1.2-.52-1.33-7.55-3-13.31-8.62-19.5-13.6-.11-2.59-2.72-1.92-4-3,.3-3.28-2.55-4.76-4-7q-4.06-5.94-8.12-11.87c-3.32-4.18-2.78-9.35-3.28-14.12-.77-7.3-1-14.73,4.42-20.84h0c5.26-3,11-4.34,17-5a5.79,5.79,0,0,1-1.72,4c-5.66,5.34-4.95,11.92-3.5,18.45,3.61,16.25,14.05,27.3,28.12,35.14,10.24,5.72,21,8.68,32.52,3.28a4.29,4.29,0,0,1,1.47-.11v5a1.92,1.92,0,0,0,1,2l.09,5.93C401.12,154,401.09,155.68,401.07,157.36Z" fill="#d9b298"/><path d="M65.88,213.21h-3c-.85-5.61-3.44-10.74-3.16-16.74.66-14.51,3.71-27.7,16.18-37,.55-.41.65-1.44,1-2.19,4.51-.49,8.89.73,13.33,1,9.15.57,17.84-1.88,26.58-4,1.36,21.9-12.55,34.62-28,46.33C81.82,206,73.57,209.11,65.88,213.21Z" fill="#dbb79d"/><path d="M116.81,154.38c-8.74,2.1-17.43,4.55-26.58,4-4.44-.28-8.82-1.5-13.33-1-.27-1.65,2.09-3.33,0-5a80.08,80.08,0,0,0,1-13.92,6.66,6.66,0,0,1,2.43.3c8.29,4.75,16.75,3,25,.26,17.42-5.7,28.56-18.1,34.84-34.86,2.13-5.68,2.71-11.93-.11-17.92-1.36-2.86-4.39-4.5-5.3-7.63,5.6.11,10.6,2.65,15.91,4l4,2c3.6,9.07,2.15,18.3,1,27.55-.24,2-.33,3.93-2,5.35-3.86,4.48-6.54,9.77-9.85,14.62A60.83,60.83,0,0,1,116.81,154.38Z" fill="#d9b298"/><path d="M134.76,78.61c.91,3.13,3.94,4.77,5.3,7.63,2.82,6,2.24,12.24.11,17.92-6.28,16.76-17.42,29.16-34.84,34.86-8.23,2.69-16.69,4.49-25-.26a6.66,6.66,0,0,0-2.43-.3c2.49-13.07,6.5-25.61,15-36C103.78,89.23,117.27,80.31,134.76,78.61Z" fill="#e2c3af"/><path d="M400.1,139.37a4.29,4.29,0,0,0-1.47.11c-11.5,5.4-22.28,2.44-32.52-3.28C352,128.36,341.6,117.31,338,101.06c-1.45-6.53-2.16-13.11,3.5-18.45a5.79,5.79,0,0,0,1.72-4c5.64.39,11.46,1.26,16.37,3.58C371,87.53,380.87,95.27,388,105.93,394.7,116.05,399.34,127,400.1,139.37Z" fill="#e2c3af"/><path d="M401.06,146.39a1.92,1.92,0,0,1-1-2C401.33,144.62,402.6,144.83,401.06,146.39Z" fill="#e2c3af"/><path d="M165.17,169.28c4.07,4.86,8,9.89,12.27,14.54,3.39,3.67,6.58,7.72,11.54,9.57,2.33,3.13,6.35,3.74,9.18,6.12,4.05,3.93,9.21,5.48,14.51,6.75,8.89,2.14,17.94,1.75,27,1.64q-.06,10.17-.13,20.34c-11.14.45-19.54,6-27,13.84-6,6.38-12.67,12.15-18.91,18.31a9.16,9.16,0,0,1-6.18,2.66c-3,.22-5.91.58-8.87.87-4.58-.65-9.22-1-13.73-2-12.68-2.78-23.69-8.43-31.31-19.43Q149.33,205.89,165.17,169.28Z" fill="#191919"/><path d="M239.5,228.24q.06-10.17.13-20.34c4.61,0,9.24.42,13.82.07,9.84-.75,19.73-1.66,27.52-8.87l3.48-2.19,1-.63-.06.07c3-1.06,5.41-3.15,7.86-5.07,7.9-6.2,13.73-14.25,19.7-22.16l10.75,24.61q10.64,24.38,21.24,48.76c-7.74,11.3-19.09,16.79-32,19.56-4.15.89-8.4,1.3-12.61,1.93l-4.12-.7h-1.74a14.11,14.11,0,0,1-11.38-4.74c-5.8-6.1-12.3-11.52-18.12-17.6C258,233.57,249.78,228.86,239.5,228.24Z" fill="#3c3e3d"/><path d="M300.32,264c4.21-.63,8.46-1,12.61-1.93,12.93-2.77,24.28-8.26,32-19.56,3.37-2.41,4.3-6.51,6.65-9.62,3.22,9.52,5.61,19.14,3.77,29.33a43.08,43.08,0,0,0-.26,5.9,12.42,12.42,0,0,0-1.64,2.42c-3.6,9.46-11.16,12.66-20.45,12.36-4.83-.15-6.29,1.78-5.79,6.12a79,79,0,0,0-16.58-15.31C306.73,271.06,303,268.09,300.32,264Z" fill="#d9b298"/><path d="M133.53,242.49c7.62,11,18.63,16.65,31.31,19.43,4.51,1,9.15,1.35,13.73,2-4.49,5.28-9.95,9.46-15.57,13.44-1.74,1.23-3.44,2.51-5.16,3.76a13.44,13.44,0,0,0-7.23,1.95c-8.75.38-17-.24-23.31-7.78-1.64-2-1.38-5.18-4.29-6.16.56-2.58.13-5.12-.09-7.72a66.48,66.48,0,0,1,3.92-28.57C129.3,235.9,130,240.2,133.53,242.49Z" fill="#d9b298"/><path d="M327.23,289c-.5-4.34,1-6.27,5.79-6.12,9.29.3,16.85-2.9,20.45-12.36a12.42,12.42,0,0,1,1.64-2.42,50.06,50.06,0,0,1,1.11,21.81,11.86,11.86,0,0,0-3.16,4.64,18.74,18.74,0,0,1-16.88,2.31L327.34,290C327.3,289.63,327.26,289.32,327.23,289Z" fill="#c69777"/><path d="M123,269.13c2.91,1,2.65,4.18,4.29,6.16,6.26,7.54,14.56,8.16,23.31,7.78.39,1.66.77,3.33,1.16,5l-1.2,2.73-7.94,5.87c-5.6,1.77-11,1.77-16.12-1.59A21.91,21.91,0,0,1,122,288,58.36,58.36,0,0,1,123,269.13Z" fill="#c69777"/><path d="M142.63,296.67l7.94-5.87q-.57,4.31-1.13,8.61a33,33,0,0,0,.29,15.58c-1,2.29,2.11,4.59,0,6.87-1.24,0-1.74.76-1.92,1.81-1.06,6.26-4,11.72-7.2,17.09-2.64,2.8-5.44,5-9.46,2.43,7.57-3.05,10.42-7.38,10.64-15.34a91.29,91.29,0,0,0-1.1-15.67C139.88,306.75,142.64,301.91,142.63,296.67Z" fill="#c3c0da"/><path d="M327.34,290l8.84,6.91a27.29,27.29,0,0,1,1.08,8.24c-.1,8.23,0,16.47-.06,24.7,0,5.49,2.37,9.3,7.5,11.37a4.17,4.17,0,0,1,2.66,2.05c-3.69,2.36-6.48.7-8.92-2.08-1.18-1.34-2.15-2.85-3.21-4.28-4.9-9.86-6.08-20.34-5.37-31.19.09-1.4,1-3.37-1.17-4.29C329,297.48,329,293.62,327.34,290Z" fill="#c3c0da"/><path d="M328.69,301.38c2.19.92,1.26,2.89,1.17,4.29-.71,10.85.47,21.33,5.37,31.19-.35.36-.71.72-1.06,1.09-5.63-8.61-6.31-18.26-5.92-28.14C328.36,307,328.54,304.19,328.69,301.38Z" fill="#6a686f"/><path d="M151.77,288.07c-.39-1.67-.77-3.34-1.16-5a13.44,13.44,0,0,1,7.23-1.95C156.86,284.35,154.14,286.05,151.77,288.07Z" fill="#e2c3af"/><path d="M149.73,315a33,33,0,0,1-.29-15.58C148.79,304.62,151.49,309.75,149.73,315Z" fill="#6a686f"/><path d="M294.46,263.25h1.74C295.61,264,295,264,294.46,263.25Z" fill="#d9b298"/><path d="M133.53,242.49c-3.57-2.29-4.23-6.59-6.69-9.65-4-10.31-1.46-19.86,2.66-29.61,5.65-13.36,9.24-27.56,15.84-40.56,1.86-3.66,4.36-7,6.57-10.49,8.13,2.83,9.72,10.72,13.26,17.1Q149.35,205.88,133.53,242.49Z" fill="#33b0b7"/><path d="M122.06,288a21.91,21.91,0,0,0,4.45,7.08,220.85,220.85,0,0,1-7.35,21.81c-3.3,8.84-5.78,18.43,4.94,24.92.37.22.51.82.76,1.25-3.59,2-5.48-.59-7.29-2.86-4-5-5.1-11.09-5.86-17.25.75-7.73,1.87-15.37,5.36-22.45.58-1.19,1.29-2.32.71-3.72C118.05,293.29,121.86,291.52,122.06,288Z" fill="#c3c0da"/><path d="M78.52,241.23c1-9.85,1.84-19.69-2.6-29,3-3.2,7.74-2.39,11-5-1.45,11.49-3.3,22.9-7.15,33.89Z" fill="#b17655"/><path d="M117.78,296.75c.58,1.4-.13,2.53-.71,3.72-3.49,7.08-4.61,14.72-5.36,22.45-.52.66-1,1.32-1.55,2C109.72,314.75,111.09,305,117.78,296.75Z" fill="#6a686f"/><path d="M78.52,241.23l1.25-.11a14.54,14.54,0,0,1-2.8,7.29C76.8,245.87,76.6,243.32,78.52,241.23Z" fill="#c69777"/><path d="M110.45,326.89a5,5,0,0,1,.39.72,1.67,1.67,0,0,1-.13.4,5.84,5.84,0,0,1-.48-.74C110.2,327.19,110.37,327,110.45,326.89Z" fill="#6a686f"/><path d="M351.6,232.87c-2.35,3.11-3.28,7.21-6.65,9.62l-21.24-48.74q-5.35-12.3-10.75-24.61,3.46-6.34,6.91-12.69a18.61,18.61,0,0,1,6.66-4.29c8.91,10.92,12.39,24.38,17.36,37.13,2.82,7.25,4.91,14.82,8.17,21.85C355.57,218.67,353.35,225.66,351.6,232.87Z" fill="#33b0b7"/><path d="M326.53,152.14a18.61,18.61,0,0,0-6.66,4.29c-6.38,4-13.57,6.86-18.42,13-2.76-2.37-2.3,2.18-4.09,1.9-1-1.38-2-.44-3.06-.12a55.74,55.74,0,0,1-15.51,2.15c-9.2.12-18.36-.4-27.51-1.14-4.17-1.92-9.1-2.55-11.77-7,0-6.3-.08-12.61,0-18.92.06-9.21-1-7.76,8-7.94v6c.08,10.95,6.63,17.47,17.35,19.18,8.21,1.31,16.15,0,24.21-.19,8.58-.23,16.32-2.8,22.82-8.4,3.36-2.89,6.27-6.3,9.38-9.48,6.18-1,10.24-6.27,16-8.06,1.25,1.11,3.86.44,4,3-.16,2.43,1.56,4.62.91,7.1C336.39,147.26,330.84,147.59,326.53,152.14Z" fill="#d6ad8f"/><path d="M342.13,147.55c.65-2.48-1.07-4.67-.91-7.1,6.19,5,11.95,10.57,19.5,13.6.3.13.35.87.52,1.33-1.68,12.54,5.05,21.88,12.34,30.66,10.23,12.35,23.58,20.46,38.46,26.17-3.25,2.4-6.54-1.26-9.79.07a21.47,21.47,0,0,0-10.31-4c-5.05-3.11-10.17-6.11-15.13-9.36-13-8.53-20-21.63-26.61-35C347.51,158.42,346.36,152.22,342.13,147.55Z" fill="#c69777"/><path d="M353.06,294.55a11.86,11.86,0,0,1,3.16-4.64c2,1.34,3.37,3,2.94,5.58,4.91,9.5,7.74,19.51,7.3,30.29-.89,5.2-2.25,10.26-5.53,14.51-1.67,2.17-3.5,4.52-6.87,2.91,0-2.27,2-3,3.46-3.87,2.32-1.39,3.15-3.2,3.88-5.83,1.7-6.22,0-11.74-2.12-17.34C356.62,309.13,352.62,302.48,353.06,294.55Z" fill="#c3c0da"/><path d="M392,208.25a21.47,21.47,0,0,1,10.31,4c-4.53,11.16-2.93,22.53-1.21,33.9-4-4.94-4.22-11.23-5.67-17C393.65,222.35,392.06,215.4,392,208.25Z" fill="#b17655"/><path d="M366.46,325.75c.44-10.78-2.39-20.79-7.3-30.29a3.37,3.37,0,0,1,2.5,1.36c5.3,9,7.75,18.6,6.35,29Z" fill="#6a686f"/><path d="M367.44,330.25a1.88,1.88,0,0,1,.52-2.39A2.16,2.16,0,0,1,367.44,330.25Z" fill="#6a686f"/><path d="M401,246.11c.89.48,1.18,1.07.29,1.83C401.19,247.33,401.09,246.75,401,246.11Z" fill="#b17655"/><path d="M353.06,294.55c-.44,7.93,3.56,14.58,6.22,21.61,2.12,5.6,3.82,11.12,2.12,17.34-.73,2.63-1.56,4.44-3.88,5.83-1.46.87-3.42,1.6-3.46,3.87a16.79,16.79,0,0,0-6.7,0,4.17,4.17,0,0,0-2.66-2.05c-5.13-2.07-7.53-5.88-7.5-11.37,0-8.23,0-16.47.06-24.7a27.29,27.29,0,0,0-1.08-8.24A18.77,18.77,0,0,0,353.06,294.55Z" fill="#d7d5e9"/><path d="M124.86,343.06c-.25-.43-.39-1-.76-1.25-10.72-6.49-8.24-16.08-4.94-24.92a220.85,220.85,0,0,0,7.35-21.81c5.1,3.36,10.52,3.36,16.12,1.59,0,5.24-2.75,10.1-2,15.51a91.29,91.29,0,0,1,1.1,15.67c-.22,8-3.07,12.29-10.64,15.34Z" fill="#d7d5e9"/><path d="M321.21,145.48c-3.11,3.18-6,6.59-9.38,9.48-6.5,5.6-14.24,8.17-22.82,8.4-8.06.22-16,1.5-24.21.19-10.72-1.71-17.27-8.23-17.35-19.18v-6c7.26-2.15,10.51-8.67,14.89-13.87a60.22,60.22,0,0,0,11.06-19,15.64,15.64,0,0,0,5.84-.78c14.93-5.26,29.89-10.45,43-19.71a5.81,5.81,0,0,1,4.08-1.45c-5.4,6.11-5.19,13.54-4.42,20.84.5,4.77,0,9.94,3.28,14.12.05,7,.74,14-.89,20.87C323.24,141.42,322.22,143.45,321.21,145.48Z" fill="#e2c3af"/><path d="M153.72,117.45c1.67-1.42,1.76-3.34,2-5.35,1.11-9.25,2.56-18.48-1-27.55,6.41,3.87,12.82,7.8,19.74,10.68,7.35,3.06,14.31,7.25,22.39,8.28,3.17.4,5.47,3.08,8.76,3a82.49,82.49,0,0,0,22.89,31.24c2.89,2.46,2.63,12.79.09,17.12-4.51,7.69-12,8.89-19.62,9.35a101.39,101.39,0,0,1-28.59-2.33c-13.35-3-31.62-19.16-26.87-39A27.5,27.5,0,0,0,153.72,117.45Z" fill="#dbb79d"/><path d="M239.57,186.08c-9.39,1.42-18.84,1.4-28.29,1.19-11.45-.26-20.7-5.13-28-13.9-.26-.32-.25-.88-.54-2,15.06,2.6,29.82,2.29,44.6,1,4.41,1,8.76,2.12,12.12,5.44Z" fill="#d9b298"/><path d="M239.57,186.08q0-4.12-.07-8.26c2.77-4.3,7.49-4.48,11.78-5.58,9.15.74,18.31,1.26,27.51,1.14a55.74,55.74,0,0,0,15.51-2.15c1-.32,2.1-1.26,3.06.12-8.67,10.61-19.77,16.1-33.56,16C255.7,187.31,247.58,187.69,239.57,186.08Z" fill="#e2c3af"/><path d="M284.45,196.91,281,199.1l-5.64,1.72c-11.93,3.64-23.91,3.29-35.93.5l.09-9c9.06-.14,18.1.12,27.17-.93,10.82-1.26,19.65-6.16,27.67-13.07.23,3.56-1.16,6.43-2.67,9.66-1.6,3.44-6,4.34-6.26,8.4l.06-.07Z" fill="#e2c3af"/><path d="M239.49,192.29l-.09,9c-5.06.49-10,1.8-15.11,2-9,.36-17.59-1.38-26.13-3.82-2.83-2.38-6.85-3-9.18-6.12,2-1.71.14-2.78-.74-3.87a14.78,14.78,0,0,1-3.62-7.45c-.1-.79-.19-1.75.64-2.22s1.55.24,2.13.8c9.91,9.42,22.45,11,35.23,11.57C228.23,192.49,233.86,192.29,239.49,192.29Z" fill="#d9b298"/><path d="M285.4,196.35c.24-4.06,4.66-5,6.26-8.4,1.51-3.23,2.9-6.1,2.67-9.66l7.12-8.84c4.85-6.16,12-9,18.42-13q-3.45,6.3-6.9,12.67c-6,7.91-11.8,16-19.7,22.16C290.81,193.2,288.43,195.29,285.4,196.35Z" fill="#ead3c3"/><path d="M251.28,172.24c-4.29,1.1-9,1.28-11.78,5.58-3.36-3.32-7.71-4.45-12.12-5.44,4.18-2.15,8.92-3.34,12.13-7.13C242.18,169.69,247.11,170.32,251.28,172.24Z" fill="#b17655"/><path d="M321.21,145.48q1.5-3,3-6.1c2.23-.14,2.62-2.25,3.73-3.55,1.66-1.92,2.51-4.6,5.28-5.45,1.46,2.28,4.31,3.76,4,7C331.45,139.21,327.39,144.46,321.21,145.48Z" fill="#c69777"/><path d="M333.24,130.38c-2.77.85-3.62,3.53-5.28,5.45-1.11,1.3-1.5,3.41-3.73,3.55,1.63-6.9.94-13.9.89-20.87Q329.18,124.43,333.24,130.38Z" fill="#d6ad8f"/><path d="M198.16,199.51c8.54,2.44,17.14,4.18,26.13,3.82,5.13-.21,10.05-1.52,15.11-2,12,2.79,24,3.14,35.93-.5l5.64-1.72c-7.79,7.21-17.68,8.12-27.52,8.87-4.58.35-9.21,0-13.82-.07-9,.11-18.07.5-27-1.64C207.37,205,202.21,203.44,198.16,199.51Z" fill="#c69777"/><path d="M284.45,196.91l1-.63Z" fill="#ead3c3"/></g></g></g></g></svg>