<svg xmlns="http://www.w3.org/2000/svg" viewBox="0 0 480.53 448.49"><title>asset_5</title><g id="Layer_2" data-name="Layer 2"><g id="Layer_1-2" data-name="Layer 1"><path d="M451.36,409.52c7.43,0,14.95-.94,21.66,3.69,8.62,6,10.08,20.39,3.05,28.17a20.47,20.47,0,0,1-16.22,7.06q-219.26-.07-438.5.05C5.21,448.51-3,433.16,1,422.49a19.77,19.77,0,0,1,18.36-13c3.49-.11,7,0,10.49,0,.29,8.44-2.53,16.64-1.82,25.11.35,3,2.18,5.25,4.91,5.55,9.51,1.07,19.09,1.84,28.65.43,3.74-.55,5.54-2.9,5-6.64-.37-2.58-.42-4.5,2.43-6,1.85-.95,2-3.29.86-5.31s-2.25-4-3.38-6l0-1.31c.08-1.92.15-3.85.22-5.77l39.25,0a63.38,63.38,0,0,0,3.9,5.09c7.84,8.41,19.38,8.31,26.05-.15.62-.12,1.43-.14,1.42-1s-.85-.82-1.44-1l-.15,0,.53-2c7.89-1.55,15.88-.92,23.82-.93q92.13-.11,184.26-.12l.27,3.09c3.58,7.43,6.93,9.33,14.92,8.18,7.29-1.05,12.22-5.42,15.68-11.68.51.37,1.06,1.09,1.52,1.05,12.58-1.27,25.18-.19,37.76-.53l.18,5.86c0,.39-.07.77-.11,1.16a9.18,9.18,0,0,1-.62,1.35c-2.64,4.06-6,8.08.13,12.14.53.35.38,1.85.43,2.83.36,6.76,1.78,8.32,8.6,8.3,7.59,0,15.18-.3,22.76-.64,3.91-.18,6.59-2,6.73-6.35Q452,421.82,451.36,409.52Z" fill="#ebece6"/><path d="M342.58,119.7c5.77,0,10.73-.28,15.65.09,4.32.32,5.67-.91,5.63-5.45-.24-24.79.08-49.59-.24-74.38-.07-5.29,1.54-6.31,6.43-6.21,15.81.31,31.63.25,47.43,0,4.06-.06,5,1.24,5,5.11-.16,25.29,0,50.59-.16,75.88,0,3.87.95,5.36,5,5s8.32-.1,12.48,0c1.09,0,2.53-.55,3.17.7s-.71,2.08-1.36,2.94q-13.86,18.24-27.77,36.43c-5.84,7.66-11.78,15.26-17.46,23.05-2.25,3.09-3.59,3.57-6.16.15-13.46-17.9-27.15-35.63-40.73-53.44C347.25,126.7,344.62,124.11,342.58,119.7Z" fill="#f9be79"/><path d="M36.57,119.7c6.7,0,12.16-.25,17.58.09,3.78.24,4.79-1,4.76-4.7C58.75,90,59,64.84,58.69,39.71c0-5,1.5-6,6.15-6,15.14.28,30.29.1,45.44.11,6.58,0,6.56,0,6.56,6.33,0,24.62.07,49.25-.1,73.88,0,4.21.9,6.13,5.51,5.71a127.49,127.49,0,0,1,13-.06c.92,0,2.18-.44,2.63.74s-.53,1.82-1.13,2.59l-34.31,44.58c-4,5.27-8.12,10.52-12.07,15.85-1.63,2.2-2.85,2.89-4.85.26C69.53,162.75,53.48,141.82,36.57,119.7Z" fill="#f9be79"/><path d="M31.64,392.57C29.13,378,26.79,363.49,23,349.22c-3.37-12.5-7.16-25-8.47-37.86C13,296.81,12.75,282.15,16,267.69c4.08-.27,5,3.84,7.54,5.68,2,1.44,3,1.37,3.68-.62,1.67-4.73,5.32-7.84,8.74-11.1C48.1,250.08,62,245.45,78.59,250.56c2.4.74,3.37,1.76,3.2,4.1,0,.31,0,.63-.05,1a2,2,0,0,0-1.88,1.1c-.87,2.12-1.73,4.24-3.12,7.64,5.71-4.63,8.15-10.34,13.06-13.69.46.16,1.22.18,1.35.48,3.84,8.45,11.62,12.67,19.48,15,16.77,4.93,33.62,4.17,48.64-5.95,8.71-5.87,14-14.66,10.09-25.41-1.42-3.87-3.78-6.94-6.19-10.06-1.48-1.94-1.52-2.88,1.2-3a17.1,17.1,0,0,0,8-2.15c2.52-1.48,3.21-.37,3.33,2.06.11,2.26-.72,4.69,1.11,6.68,3,3.25,4,7.51,5.87,11.35.66,7.45-.69,14.72-2,22-5.37,5.61-11.2,10.79-16,16.95-3.9-.66-6.95,1.64-10.27,3-7.34,2.95-15.12,4.25-22.76,6.12l-7.07-.07h-4.86c-.08-1.09-.6-2.11-1.65-2.22-5.08-.51-9.68-2.87-14.66-3.69a3.91,3.91,0,0,0-2.77.72c-7.54,6-16.72,5.4-25.44,6.09-12.71,1-24.87-1.72-36.36-7.26-1.83-.88-2.84-.51-3.07,1.56-2.49-.61-3.58-3.67-7-3.91,3.4,6.48,8.92,10.44,13.18,15.46,4.09,13.78,6.72,27.75,5.85,42.22-2.14.23-2,1.84-2,3.33a62.07,62.07,0,0,1-1,12.76c-2,11.48-3.82,23-8.22,33.84C35.68,389,35.3,392.22,31.64,392.57Z" fill="#dab59a"/><path d="M283.59,209.74c12.86-.5,24.8,2.75,36,8.89.72,1.58,1.77,3.16,3.61,2.89,5.3-.75,10.39.53,15.57,1.13,21,2.42,37.79,12.51,51.72,27.94-2.77,3.7-5.25,7.6-9.26,10.23-9.51,6.26-19.92,8.36-31.21,7.93-13.22-.5-24.85-4-34.11-14.1a19.67,19.67,0,0,1-2.22-24.31c1.76-2.67,3.62-5.28,5.73-8.35-4.41-.18-8.14-.47-11.55-2.52-2.32-1.4-3.41-.71-2.52,2.22,1.06,3.46-.27,6.69-2.28,9.27s-3.07,5.77-4.51,8.69c-5.46,3.33-11.83,5.32-11.29,14.18.39,6.28-4.78,10.81-10.6,11.77-1.81.1-1.79,1.43-2.11,2.77a60.86,60.86,0,0,1-10.41,22.69c-6,8.1-12.64,13.74-23.45,11.47,0-23.55.09-47.1-.2-70.64-.05-4.17,1-6.37,5-7,8.1-.78,16.33-1.44,23.72-5,5-2.42,5.33-.4,5.27,3.71-.1,6.9-.1,13.84,4.63,19.56,3.9-3.2,4.3-7.39,4.16-12C283.14,224,283.48,216.86,283.59,209.74Z" fill="#e0c3af"/><path d="M182.72,239.66c-1.85-3.84-2.89-8.1-5.87-11.35-1.83-2-1-4.42-1.11-6.68-.12-2.43-.81-3.54-3.33-2.06a17.1,17.1,0,0,1-8,2.15c-2.72.11-2.68,1.05-1.2,3,2.41,3.12,4.77,6.19,6.19,10.06,3.92,10.75-1.38,19.54-10.09,25.41-15,10.12-31.87,10.88-48.64,5.95-7.86-2.32-15.64-6.54-19.48-15-.13-.3-.89-.32-1.35-.48,3.87-3.59,7.59-7.36,11.65-10.72,3.56-2.94,7.22-6,11.33-8,14.22-6.9,29.06-11.54,45.19-10.4,1.31.09,1.65-.84,1.69-2,9.16-6,19.54-8.22,30.12-9.83,2.59-.4,5.19-.7,7.79-1q0,15,0,29.94c-4.74-.62-5.15,2.42-5,5.93C188.36,244.82,186,241.36,182.72,239.66Z" fill="#e0c3af"/><path d="M374.61,228l5.89.71c.91,1.27,1.9,1.3,3,.19l2,.1c.58,2.5,3,2,4.49,2.29a220,220,0,0,1,53.83,19.05c6.95,3.46,12.91,8.41,19.49,12.41a5.39,5.39,0,0,1,1.28,3.86c-3.61,3-5.92,7.48-10.79,8.95a1.93,1.93,0,0,0-1.27,1.93l-1,.18c-4.18-.07-7.48,2.79-11,4.19-7.44,2.94-14.73,5.47-22.69,6.21-11.24,1-22.31,1.09-33-3.41-3.73-1.57-3.43-2.85-.5-4.87,3.94-2.71,8-5.33,11.63-8.39,2.79-2.34,6.59-4.17,6.63-8.71.23-.39.77-1,.66-1.17-5.33-9-10.69-18-18.79-25C381.11,233.64,376.62,232.18,374.61,228Z" fill="#e0c3af"/><path d="M452.46,277.46a1.93,1.93,0,0,1,1.27-1.93c4.87-1.47,7.18-6,10.79-8.95a119.88,119.88,0,0,1,1.33,48.85c-3.85,22.23-10.9,43.76-14.86,66a94.89,94.89,0,0,0-1.5,12.05,2.46,2.46,0,0,1-2.07-1.15,58.81,58.81,0,0,1-7.63-19.1c-1.82-9.5-4.79-18.94-4.35-28.81.06-1.45-.21-2.68-2-2.86a263.91,263.91,0,0,1,2-33c.54-4.74,3.33-9,2.95-13.95C443.84,289.48,449.78,284.8,452.46,277.46Z" fill="#dab59a"/><path d="M200.86,197.82c7.54-18.09,29.41-28.46,49.77-23.45,13.78,3.39,24.5,10.68,29.89,24.42-3.63,1.81-6.42,4.87-10.56,6a113.36,113.36,0,0,1-53,1.68C211,205.32,204.52,203.86,200.86,197.82Z" fill="#3d3e3d"/><path d="M200.86,197.82c3.66,6,10.12,7.5,16.11,8.67a113.36,113.36,0,0,0,53-1.68c4.14-1.15,6.93-4.21,10.56-6,2.15,3.33,2.14,7.27,3.07,11-.11,7.12-.45,14.25-.24,21.36.14,4.64-.26,8.83-4.16,12-4.73-5.72-4.73-12.66-4.63-19.56.06-4.11-.3-6.13-5.27-3.71-7.39,3.6-15.62,4.26-23.72,5-11.67-.06-23.4-.21-34.24-5.19-4.59-2.11-4.91-.24-4.83,3.48.15,7.19-.18,14.32-4.82,20.39-1.25-1.74-2-3.88-4.1-4.91q0-15,0-29.94C198.17,205,198.74,201.15,200.86,197.82Z" fill="#191919"/><path d="M31.64,392.57c3.66-.35,4-3.62,5-6.05,4.4-10.86,6.27-22.36,8.22-33.84a62.07,62.07,0,0,0,1-12.76c-.06-1.49-.18-3.1,2-3.33-.33,15.05.31,30,4.79,44.53.56,1.82.64,4.08,3.31,4.33l-.07,0c.36.41.73.81,1.1,1.21,3.22,3.93,6.36,7.91,7.83,12.9-2,3.6-.5,7.46-.8,11.18-.18,2.1-.37,3.85-2.49,5a5.35,5.35,0,0,1-6.06-.52c-1.09-.75-2-1.8-3-2.56-3.71-2.61-9.85-.56-10.34,3.62a56.37,56.37,0,0,0,0,9.46,3.53,3.53,0,0,0,3.51,3.54c1.57.11,3.74,1,4.62-.59s-.88-3-1.93-4.21c-1.63-1.91-2-3.8-.17-5.75,2-2.17,4.21-1.06,5.73.4a70.92,70.92,0,0,1,8.27,9.23c2.39,3.3.19,9.2-3.39,9-10.23-.57-20.84,2.61-30.63-2.76-.72-8.47,2.1-16.67,1.81-25.11Q30.74,401,31.64,392.57Z" fill="#e0c3af"/><path d="M433.45,341.56c1.78.18,2.05,1.41,2,2.86-.44,9.87,2.53,19.31,4.35,28.81a58.81,58.81,0,0,0,7.63,19.1,2.46,2.46,0,0,0,2.07,1.15c2,5.19-.12,10.85,1.87,16q.6,12.3,1.21,24.61c-2.9,1-5.08,3.55-8.63,3.4-6.64-.27-13.29,0-19.93-.06-2.16,0-4.55.09-5.45-2.45s-1.69-5.45.73-7.88c1.76-1.77,3.42-3.64,5.24-5.33,2.21-2.06,4.35-5.72,7.78-3.59,4,2.51.54,5.5-.79,8.07s-.35,3.15,2.12,3.09c4.28-.12,5.67-2.49,5.74-6.46.13-8.4-1.21-11-6.26-11.39-3.1-.25-5.44,1.13-7.45,3.28a4.53,4.53,0,0,1-5.42,1.36c-2.17-1-3.91-2.6-3.79-5.32.1-2.47-.42-5,.47-7.41.48-1.31-.28-1.79-1.44-1.95a1.69,1.69,0,0,1,.67-2c.43-.17,1.18-.2.4-.9.22-.37.44-.74.65-1.11,1.74.14,1.81-.76,1.25-2a35.71,35.71,0,0,1,6-10c2.76-.38,4.07-1.86,4.88-6.18C431.63,366.81,433.76,354.32,433.45,341.56Z" fill="#e0c3af"/><path d="M393.15.12c8.49,0,17,.08,25.46,0,2.78,0,4,.83,3.79,3.69-.32,5.12,2,11.56-.91,15s-9.41,1-14.32,1.07c-13,.18-25.95,0-38.93.13-3.38,0-4.87-.79-4.56-4.45A87.8,87.8,0,0,0,363.7,4c-.16-3,.91-4,4-4C376.18.25,384.67.13,393.15.12Z" fill="#f9be79"/><path d="M87.83.13c8,0,16,.26,23.93-.11,4.38-.21,5.47,1.39,5.14,5.38a37.05,37.05,0,0,0,.19,9.93c.74,3.89-.77,4.63-4.15,4.6-11.8-.1-23.6,0-35.41,0h-4c-16.72,0-16.65,0-14.79-17C59,.14,60.44.12,62.39.12,70.87.16,79.35.14,87.83.13Z" fill="#f9be79"/><path d="M81.79,254.66c.17-2.34-.8-3.36-3.2-4.1C62,245.45,48.1,250.08,36,261.65c-3.42,3.26-7.07,6.37-8.74,11.1-.71,2-1.68,2.06-3.68.62-2.56-1.84-3.46-5.95-7.54-5.68a5.08,5.08,0,0,1,1-4A4.23,4.23,0,0,0,20,262c5.12-5.69,11.82-9.24,18.48-12.47,16.42-8,33.43-14.46,51.43-18.11,1.44-.29,3.47-.31,4-2.42l5-.17c1.38,1.3,2.38,1,3-.73l4.81-.22a2.88,2.88,0,0,1-1.78,2.72c-4.85,2.57-8.55,6.59-12.67,10.08C87.7,244.59,85.69,250.32,81.79,254.66Z" fill="#e0c3af"/><path d="M374.61,228c2,4.21,6.5,5.67,9.74,8.49,8.1,7,13.46,16,18.79,25,.11.2-.43.78-.66,1.17-4.23-3.78-7.23-8.78-12-12.07-13.93-15.43-30.73-25.52-51.72-27.94-5.18-.6-10.27-1.88-15.57-1.13-1.84.27-2.89-1.31-3.61-2.89,3.39,1.44,6.82.27,10.21.08,13-.74,25.3,1.88,37.25,6.72C369.53,226.42,372.09,227.13,374.61,228Z" fill="#ead3c4"/><path d="M81.79,254.66c3.9-4.34,5.91-10.07,10.46-13.94,4.12-3.49,7.82-7.51,12.67-10.08a2.88,2.88,0,0,0,1.78-2.72c2.8-1,5.65-1.8,8.39-2.9,13.74-5.48,27.83-8,42.59-5.39a9.39,9.39,0,0,0,2,0c0,1.11-.38,2-1.69,2-16.13-1.14-31,3.5-45.19,10.4-4.11,2-7.77,5.05-11.33,8-4.06,3.36-7.78,7.13-11.65,10.72-4.91,3.35-7.35,9.06-13.06,13.69,1.39-3.4,2.25-5.52,3.12-7.64.8-.07,1.55-.23,1.88-1.1C81.75,255.29,81.77,255,81.79,254.66Z" fill="#ead3c4"/><path d="M463.24,262.72c-6.58-4-12.54-9-19.49-12.41a220,220,0,0,0-53.83-19.05c-1.52-.31-3.91.21-4.49-2.29,5.37-.62,10.56.71,15.67,1.85,20.21,4.54,40.3,9.5,57,22.79C461,255.91,463.34,258.67,463.24,262.72Z" fill="#ead3c4"/><path d="M93.88,229c-.52,2.11-2.55,2.13-4,2.42-18,3.65-35,10.14-51.43,18.11C31.8,252.8,25.1,256.35,20,262a4.23,4.23,0,0,1-3,1.67C18,255.26,24.8,251.49,30.86,248c18.4-10.65,38.86-15.41,59.57-19.14A14.44,14.44,0,0,1,93.88,229Z" fill="#ead3c4"/><path d="M101.89,228.14c-.67,1.73-1.67,2-3,.73C99.61,227.59,100.72,227.74,101.89,228.14Z" fill="#ead3c4"/><path d="M383.46,228.87c-1.06,1.11-2,1.08-3-.19C381.56,227.54,382.56,227.48,383.46,228.87Z" fill="#ead3c4"/><path d="M65.4,400.62c1.1,2.87,1,5.9,1.28,8.9l-.21,5.77a.76.76,0,0,0,0,1.31c1.13,2,2.25,4,3.38,6s1,4.36-.86,5.31c-2.85,1.47-2.8,3.39-2.43,6,.54,3.74-1.26,6.09-5,6.64-9.56,1.41-19.14.64-28.65-.43-2.73-.3-4.56-2.56-4.91-5.55,9.8,5.37,20.41,2.19,30.64,2.76,3.58.2,5.78-5.7,3.39-9a70.92,70.92,0,0,0-8.27-9.23c-1.52-1.46-3.68-2.57-5.73-.4-1.84,1.95-1.46,3.84.17,5.75,1.05,1.23,2.82,2.62,1.93,4.21s-3,.7-4.62.59A3.53,3.53,0,0,1,42,425.7a56.37,56.37,0,0,1,0-9.46c.49-4.18,6.63-6.23,10.34-3.62,1.08.76,2,1.81,3,2.56a5.35,5.35,0,0,0,6.06.52c2.12-1.14,2.31-2.89,2.49-5,.3-3.72-1.19-7.58.8-11.18h0Z" fill="#c69777"/><path d="M414.47,409.48l.27-4.93a1.92,1.92,0,0,0,.61-2.17,5.49,5.49,0,0,1,.14-.89c1.16.16,1.92.64,1.44,1.95-.89,2.43-.37,4.94-.47,7.41-.12,2.72,1.62,4.34,3.79,5.32a4.53,4.53,0,0,0,5.42-1.36c2-2.15,4.35-3.53,7.45-3.28,5.05.4,6.39,3,6.26,11.39-.07,4-1.46,6.34-5.74,6.46-2.47.06-3.48-.48-2.12-3.09s4.81-5.56.79-8.07c-3.43-2.13-5.57,1.53-7.78,3.59-1.82,1.69-3.48,3.56-5.24,5.33-2.42,2.43-1.68,5.22-.73,7.88s3.29,2.44,5.45,2.45c6.64,0,13.29-.21,19.93.06,3.55.15,5.73-2.36,8.63-3.4-.14,4.34-2.82,6.17-6.73,6.35-7.58.34-15.17.62-22.76.64-6.82,0-8.24-1.54-8.6-8.3-.05-1,.1-2.48-.43-2.83-6.16-4.06-2.77-8.08-.13-12.14a9.18,9.18,0,0,0,.62-1.35c.61-.33.66-.72.11-1.16Z" fill="#c69777"/><path d="M136.24,410.42c-.18.68-.35,1.36-.53,2.05a10.55,10.55,0,0,1-10.34,2.33,10.67,10.67,0,0,0-3.92.18,9.94,9.94,0,0,1-9.15-3.78,28.2,28.2,0,0,1-6.82-19.6,113.24,113.24,0,0,0,3.58-31.48c-.19-5.58-.61-11.24,1.67-16.59,3.27.64,1.6,3.31,2.1,5.09-.49,7.09-.19,14.07,3,20.62-.82,4.68-1.57,9.38-2.5,14-1.31,6.58-2.62,13.1-1.6,19.89.7,4.73,3.57,8.22,7.74,8,5.46-.29,11.07.58,16.46-1Z" fill="#c2c0da"/><path d="M344.59,412.46l-.27-3.09.16,0a13.47,13.47,0,0,0,10.31,1.83,8.94,8.94,0,0,1,4.3-.06c4.49,1,8.25-1.7,9.53-6.26s1-9.06.35-13.68A204.69,204.69,0,0,0,364.42,370c3.58-6.79,5.17-13.86,3-21.46,1.39-1.8-.69-5.05,2.53-6.1a52.32,52.32,0,0,1,1.43,5.14c.79,4.67-.36,9.46.8,14.12-.92,9.06,1,17.87,2.66,26.66s-.79,16.36-6.5,23.06A9,9,0,0,1,360.5,415C355.16,414.49,349.37,416.49,344.59,412.46Z" fill="#c2c0da"/><path d="M344.59,412.46c4.78,4,10.57,2,15.91,2.55a9,9,0,0,0,7.87-3.55c5.71-6.7,8.16-14.17,6.5-23.06s-3.58-17.6-2.66-26.66l1.18-.17a157.08,157.08,0,0,0,4.08,29.06c1.67,6.54.45,12.47-2.28,18.33-3.46,6.26-8.39,10.63-15.68,11.68C351.52,421.79,348.17,419.89,344.59,412.46Z" fill="#3d3e3d"/><path d="M105.48,391.6a28.2,28.2,0,0,0,6.82,19.6,9.94,9.94,0,0,0,9.15,3.78,10.67,10.67,0,0,1,3.92-.18,10.55,10.55,0,0,0,10.34-2.33l.15,0c0,.66,0,1.33,0,2-6.67,8.46-18.21,8.56-26,.15a63.38,63.38,0,0,1-3.9-5.09c-1.9-5.16-4.54-10.19-2.72-16C104.08,393,103.94,391.29,105.48,391.6Z" fill="#3d3e3d"/><path d="M135.88,414.42c0-.66,0-1.33,0-2,.59.19,1.43.19,1.44,1S136.5,414.3,135.88,414.42Z" fill="#fff"/><path d="M66.5,416.6a.76.76,0,0,1,0-1.31Z" fill="#e0c3af"/><path d="M414.65,415.34c.55.44.5.83-.11,1.16C414.58,416.11,414.62,415.73,414.65,415.34Z" fill="#e0c3af"/><path d="M164.73,278.61c4.79-6.16,10.62-11.34,16-16.95,6.65,5.55,14.68,7.15,23,8,.59,1,1.61,1.9,1.72,2.93,1.68,15.43,11.75,26.13,21.72,36.36,3.77,3.88,4.73,7.1,4.59,11.74a16.79,16.79,0,0,1-13.63,15.91c-9.06,1.58-18.09.7-27.2.21-11-.58-19.79-4.58-27.11-12.53-1.42-1.54-2.65-3.51-5.09-3.73-2.44-3.46-5.38-6.59-7-10.58.77-12.84,6.35-22.91,17.62-29.88A11.84,11.84,0,0,1,164.73,278.61Z" fill="#ddbba3"/><path d="M58.67,303.48C60,313.82,58.18,324,56.54,334.1c-2.78,17.14-3.31,34.2-.61,51.35-2.67-.25-2.75-2.51-3.31-4.33-4.48-14.54-5.12-29.48-4.79-44.53.87-14.47-1.76-28.44-5.85-42.22C47.57,297.37,52.6,301.37,58.67,303.48Z" fill="#d6ad8e"/><path d="M119.77,287.62c-14.6,6.35-29.72,10.06-45.8,9.12a63.43,63.43,0,0,1-11.22-1.92c-1.82-.43-3.71-.89-4.16,1.84-.75-2.52-2.32-3.85-4.94-4.73-6.37-2.12-12.79-4.32-17.83-9.11.23-2.07,1.24-2.44,3.07-1.56,11.49,5.54,23.65,8.27,36.36,7.26,8.72-.69,17.9-.08,25.44-6.09a3.91,3.91,0,0,1,2.77-.72c5,.82,9.58,3.18,14.66,3.69C119.17,285.51,119.69,286.53,119.77,287.62Z" fill="#d6ad8e"/><path d="M164.73,278.61a11.84,11.84,0,0,0,4.55,1.46c-11.27,7-16.85,17-17.62,29.88a7.83,7.83,0,0,1-3-3.85c-2.27-7.06-7-12-13.4-15.44-1.43-.76-3.26-.89-3.56-3,7.64-1.87,15.42-3.17,22.76-6.12C157.78,280.25,160.83,278,164.73,278.61Z" fill="#c69777"/><path d="M203.7,269.64c-8.3-.83-16.33-2.43-23-8,1.31-7.28,2.66-14.55,2-22,3.26,1.7,5.64,5.16,9.87,4.94,0,.32.06.65.08,1,.6,8.18.51,16.66,10.1,20.47C204.21,266.62,203.58,268.38,203.7,269.64Z" fill="#d6ad8e"/><path d="M35.82,282.82c5,4.79,11.46,7,17.83,9.11,2.62.88,4.19,2.21,4.94,4.73,0,2.27,0,4.55.08,6.82-6.07-2.11-11.1-6.11-16.69-9.11-4.26-5-9.78-9-13.18-15.46C32.24,279.15,33.33,282.21,35.82,282.82Z" fill="#b17756"/><path d="M131.7,287.7c.3,2.07,2.13,2.2,3.56,3,6.43,3.41,11.13,8.38,13.4,15.43l-1.21-.61c-5.28-6.27-12-10.73-18.86-15-1.37-.85-3.06-1.3-4-2.83Z" fill="#b17756"/><path d="M81.74,255.61c-.33.87-1.08,1-1.88,1.1A2,2,0,0,1,81.74,255.61Z" fill="#e0c3af"/><path d="M422.46,293.63c-19.87,6.37-39,2.6-57.78-4.49a21.07,21.07,0,0,0-8.69-1.47c-7.43.46-14.33-2.24-21.48-3.46-6.25-1.07-11.47-5.28-17.92-5.55-.14-.47-.13-1.14-.44-1.38-5.27-4-10.07-8.41-13.61-14.08a3.35,3.35,0,0,0-3-1.55c.42-1,1.37-2.08.76-3.22-3.22-6-1.15-12.53-1.76-18.78,1.44-2.92,2.42-6,4.51-8.69s3.34-5.81,2.28-9.27c-.89-2.93.2-3.62,2.52-2.22,3.41,2.05,7.14,2.34,11.55,2.52-2.11,3.07-4,5.68-5.73,8.35a19.67,19.67,0,0,0,2.22,24.31c9.26,10.07,20.89,13.6,34.11,14.1,11.29.43,21.7-1.67,31.21-7.93,4-2.63,6.49-6.53,9.26-10.23,4.74,3.29,7.74,8.29,12,12.07,0,4.54-3.84,6.37-6.63,8.71-3.65,3.06-7.69,5.68-11.63,8.39-2.93,2-3.23,3.3.5,4.87,10.7,4.5,21.77,4.46,33,3.41,8-.74,15.25-3.27,22.69-6.21,3.53-1.4,6.83-4.26,11-4.19-1,2-2.86,3.1-4.56,4.39C439.53,287.58,431,290.59,422.46,293.63Z" fill="#dab59a"/><path d="M203.7,269.64c-.12-1.26.51-3-.93-3.59-9.59-3.81-9.5-12.29-10.1-20.47,0-.33,0-.66-.08-1-.16-3.51.25-6.55,5-5.93,2.09,1,2.85,3.17,4.1,4.91,2.35,13.1,3.67,26.54,9.52,38.67,3.5,7.25,8.32,13.87,15.07,18.7,4.51,3.23,9.63,1.05,14.45,1.58,10.81,2.27,17.47-3.37,23.45-11.47a60.86,60.86,0,0,0,10.41-22.69c.32-1.34.3-2.67,2.11-2.77,0,1.68-.07,3.35-.1,5a62.29,62.29,0,0,1-14.15,28.95c-3.93,4.63-7.14,10.39-13.79,12a15.36,15.36,0,0,1-2.45,0c-4.71-.8-5.85,1.39-5.64,5.77.34,7,.11,14.1.12,21.15-2.58,4.2-7.14,5.54-11.44,7.47,3.89.43,7.14,1.34,9.57,4.25.61.73,1.71,1.7,2.46.55,2.72-4.17,7.53-3.52,11.32-5.19a64.39,64.39,0,0,0,14.34,1c8.29-.08,16.58.28,24.83-.81-2,4.56-5.95,7-10,9.19-10.75,5.77-22.36,4.95-34,4.15-4.06-.28-7.94-2.49-12.17-1.08-6.78,2.27-13.86,1.95-20.69,1.22-8-.86-15.83-2.9-22.15-8.86-2.71-2.56-4.67-6.71-9.4-6.58-8-3.37-13.91-9.42-19.67-15.64-1.13-2.89-4.18-4.53-5-7.62,2.44.22,3.67,2.19,5.09,3.73,7.32,7.95,16.14,11.95,27.11,12.53,9.11.49,18.14,1.37,27.2-.21a16.79,16.79,0,0,0,13.63-15.91c.14-4.64-.82-7.86-4.59-11.74-10-10.23-20-20.93-21.72-36.36C205.31,271.54,204.29,270.62,203.7,269.64Z" fill="#c69777"/><path d="M240.72,302.53c-4.82-.53-9.94,1.65-14.45-1.58-6.75-4.83-11.57-11.45-15.07-18.7-5.85-12.13-7.17-25.57-9.52-38.67,4.64-6.07,5-13.2,4.82-20.39-.08-3.72.24-5.59,4.83-3.48,10.84,5,22.57,5.13,34.24,5.19-4.06.62-5.1,2.82-5,7C240.81,255.43,240.7,279,240.72,302.53Z" fill="#d6ad8e"/><path d="M276.59,270.63c0-1.68.06-3.35.1-5,5.82-1,11-5.49,10.6-11.77-.54-8.86,5.83-10.85,11.29-14.18.61,6.25-1.46,12.75,1.76,18.78.61,1.14-.34,2.18-.76,3.22C293.06,267.56,284.5,268.27,276.59,270.63Z" fill="#d6ad8e"/><path d="M422.46,293.63c8.53-3,17.07-6.05,24.41-11.6,1.7-1.29,3.54-2.41,4.56-4.39l1-.18c-2.68,7.34-8.62,12-14,17.14a108.38,108.38,0,0,1-16,9Z" fill="#b17756"/><path d="M422.43,303.6a108.38,108.38,0,0,0,16-9c.38,4.94-2.41,9.21-2.95,13.95a263.91,263.91,0,0,0-2,33c.31,12.76-1.82,25.25-4.14,37.72-.81,4.32-2.12,5.8-4.88,6.18,3.06-15.28,2.7-30.6.67-46-1.37-10.34-3.52-20.61-3.43-31.12C421.69,306.77,421.16,305,422.43,303.6Z" fill="#d6ad8e"/><path d="M55.86,385.42c.36.41.73.81,1.1,1.21C56.59,386.23,56.22,385.83,55.86,385.42Z" fill="#d6ad8e"/><path d="M417.21,397.46l1.25-2C419,396.7,419,397.6,417.21,397.46Z" fill="#c69777"/><path d="M416.16,399.47a6,6,0,0,0,.4-.9C417.34,399.27,416.59,399.3,416.16,399.47Z" fill="#c69777"/><path d="M333.55,305.53q7.29,10.29,14.6,20.56a9.9,9.9,0,0,1,1.8,4.54c-.63,2.39.13,4.68.52,7a40.26,40.26,0,0,0-1,9.85c-1.7,3.28-1.1,7.35-3.58,10.35-1.32-1.24-2.71-2.42-4-3.73q-12.33-13-24.62-26c.36-1.69,2.41-2.48,2.35-4.4l-.05,0a2.73,2.73,0,0,0,2-3.11c3.73-2.85,5.5-7.14,7.94-10.93C331.18,308.54,331.59,306.28,333.55,305.53Z" fill="#33b0b8"/><path d="M333.55,305.53c-2,.75-2.37,3-4,4.08-1.15-12.86-8.76-21.75-19.17-29.56l6.21-1.39c6.45.27,11.67,4.48,17.92,5.55,7.15,1.22,14.05,3.92,21.48,3.46-5.19,4.39-11.48,7.25-16.49,11.91C337.45,301.5,335.09,303.1,333.55,305.53Z" fill="#c69777"/><path d="M350.47,337.62c-.39-2.31-1.15-4.6-.52-7,2.29,1.5,4.66,1.09,7,.27a4.47,4.47,0,0,1,5.56,1.69c3.06,2.86,6.77,5.23,7.44,9.89-3.22,1-1.14,4.3-2.53,6.1-.64-.68-1.29-1.36-1.93-2.05C364,341.53,357.41,337.64,350.47,337.62Z" fill="#d6d5e8"/><path d="M370,342.48c-.67-4.66-4.38-7-7.44-9.89,6.21.24,8.21,5,9.88,9.68,2.23,6.28,1,12.85,1,19.3l-1.18.17c-1.16-4.66,0-9.45-.8-14.12A52.32,52.32,0,0,0,370,342.48Z" fill="#67666c"/><path d="M415.35,402.38a1.92,1.92,0,0,1-.61,2.17A1.66,1.66,0,0,1,415.35,402.38Z" fill="#e0c3af"/><path d="M158.7,320.53c.83,3.09,3.88,4.73,5,7.62-1.19,1.14-2.42,2.23-3.55,3.41q-12.66,13.17-25.28,26.36c-2.14-3.8-2.33-8.17-3.56-12.24l-.69-7.27.18-6.78c.05-4.17,3.05-6.88,5.14-10,3.7-5.48,7.65-10.79,11.5-16.18l1.21.61a7.81,7.81,0,0,0,3,3.86C153.32,313.94,156.26,317.07,158.7,320.53Z" fill="#33b0b8"/><path d="M130.81,331.63l-.18,6.78a12.48,12.48,0,0,0-14.88,8l-2.92,2.2c-.5-1.78,1.17-4.45-2.1-5.09-.11-3.67,3.17-5.81,4-9C119.42,329.61,125.24,331.35,130.81,331.63Z" fill="#d6d5e8"/><path d="M114.78,334.51c-.88,3.21-4.16,5.35-4,9-2.28,5.35-1.86,11-1.67,16.59a113.24,113.24,0,0,1-3.58,31.48c-1.54-.31-1.4,1.4-2.27,1.9,2.61-15.41,4.6-30.85,4.48-46.56C107.65,342,109,336.69,114.78,334.51Z" fill="#67666c"/><path d="M65.4,400.62l-.61-1.1C65.35,399.69,65.65,400,65.4,400.62Z" fill="#e0c3af"/><path d="M134.88,357.92q12.65-13.19,25.28-26.36c1.13-1.18,2.36-2.27,3.55-3.41,5.76,6.22,11.65,12.27,19.67,15.64,8.05,10,17.66,17.14,30.93,18.88,8.79,1.15,17.54.55,26.3,1l0,23.81c-13,3.23-26,6.86-39.19,9.58-11.32,2.33-22.5.71-33.16-3.92-2.85-1.23-5.67-2.54-8.51-3.81-.51-1.59-2.11-2-3.25-2.82C146.58,379.06,138.57,370.13,134.88,357.92Z" fill="#191919"/><path d="M240.64,387.51l0-23.81c9.46,1.24,18.85.33,28.15-1.31,11.4-2,20.7-7.58,27.27-17.31a71,71,0,0,0,21.32-17q12.3,13,24.62,26c1.25,1.31,2.64,2.49,4,3.73-1.54,7.2-5.81,12.87-10.3,18.43-4.08,5.05-9.63,8.46-14.2,13-2.12.91-4.29,1.75-6.36,2.76a56.41,56.41,0,0,1-38.75,4.42C264.39,393.59,252.53,390.48,240.64,387.51Z" fill="#3d3e3d"/><path d="M134.88,357.92c3.69,12.21,11.7,21.14,21.65,28.62,1.14.86,2.74,1.23,3.25,2.82-7.08,3.77-14.06,2.82-21-.43-6.48-7.91-17.38-10.69-22.94-19.69-3.2-6.55-3.5-13.53-3-20.62l2.92-2.2c.29,5.11,3.16,8.95,6.44,12.47,1.64,1.77,3.16,2.39,3.7-1.19a23.34,23.34,0,0,1,5.43-12C132.55,349.75,132.74,354.12,134.88,357.92Z" fill="#c69777"/><path d="M115.84,369.24c5.56,9,16.46,11.78,22.94,19.69,0,4.72-.24,9.46.09,14.16a7.62,7.62,0,0,1-2.94,7.07c-5.38,1.59-11,.72-16.45,1-4.17.22-7-3.27-7.74-8-1-6.79.29-13.31,1.6-19.89C114.27,378.62,115,373.92,115.84,369.24Z" fill="#d6d5e8"/><path d="M364.42,370A204.69,204.69,0,0,1,369,391.17c.67,4.62.93,9.13-.35,13.68s-5,7.22-9.53,6.26a8.94,8.94,0,0,0-4.3.06,13.47,13.47,0,0,1-10.31-1.83,1.06,1.06,0,0,1,0-.56c.06-.93,0-1.82-1-2.3l0,0c0-1.11.23-2.27-.94-3-2.62-4.75.29-9.5,0-14.24a28.15,28.15,0,0,1,9.1-8.54C357,378.48,360.9,374.46,364.42,370Z" fill="#d6d5e8"/><path d="M351.68,380.72a28.15,28.15,0,0,0-9.1,8.54c-5,1.8-10.08,3.07-15.43,2.16-2-.34-4.36-.08-5.72-2.21,4.57-4.5,10.12-7.91,14.2-13,4.49-5.56,8.76-11.23,10.3-18.43,2.48-3,1.88-7.07,3.58-10.35,4.92,3.08,5,8.35,6.05,13.22a31.45,31.45,0,0,1-3.88,17.46C351.25,379,350.53,379.87,351.68,380.72Z" fill="#dab59a"/><path d="M342.57,403.5c1.17.73,1,1.89.94,3C342.17,405.82,342.57,404.6,342.57,403.5Z" fill="#c2c0da"/><path d="M343.49,406.48c1,.48,1.05,1.37,1,2.3A2.34,2.34,0,0,1,343.49,406.48Z" fill="#c2c0da"/><path d="M351.68,380.72c-1.15-.85-.43-1.76,0-2.57a31.45,31.45,0,0,0,3.88-17.46l1-.13,1.05-1c.3,0,.6-.09.9-.16l.92-.92a8.72,8.72,0,0,0,.16-.89l1-1.07a20.09,20.09,0,0,0,5-10c.64.69,1.29,1.37,1.93,2.05,2.14,7.6.55,14.67-3,21.46C360.9,374.46,357,378.48,351.68,380.72Z" fill="#c69777"/><path d="M316.59,278.66l-6.21,1.39c10.41,7.81,18,16.7,19.17,29.56-2.45,3.79-4.22,8.08-7.95,10.93a2.92,2.92,0,0,0-2,3.11l.05,0c-2.41-.24-3.35,1.84-4.82,3.07-3.28,2.74-6.34,5.66-10.6,7.09-12,4-24.34,4.3-36.68,3.33-4.29-.33-8.94-.51-12.68-4.44-5.88-6.18-6.72-13.34-6.27-21.13,6.65-1.64,9.86-7.4,13.79-12a62.29,62.29,0,0,0,14.15-28.95c7.91-2.36,16.47-3.07,23-9a3.35,3.35,0,0,1,3,1.55c3.54,5.67,8.34,10.09,13.61,14.08C316.46,277.52,316.45,278.19,316.59,278.66Z" fill="#e0c3af"/><path d="M248.65,311.61c-.45,7.79.39,14.95,6.27,21.13,3.74,3.93,8.39,4.11,12.68,4.44,12.34,1,24.69.66,36.68-3.33,4.26-1.43,7.32-4.35,10.6-7.09,1.47-1.23,2.41-3.31,4.82-3.07.06,1.92-2,2.71-2.35,4.4a70.89,70.89,0,0,1-21.33,17l-4.26.67c-8.25,1.09-16.54.73-24.83.81a64.39,64.39,0,0,1-14.34-1c-4.64-1.24-9.22-2.56-11.91-7.08,0-7.05.22-14.12-.12-21.15-.21-4.38.93-6.57,5.64-5.77A15.36,15.36,0,0,0,248.65,311.61Z" fill="#d6ad8e"/><path d="M291.76,345.75l4.26-.67c-6.56,9.73-15.86,15.29-27.26,17.31-9.3,1.64-18.69,2.55-28.15,1.31-8.76-.48-17.51.12-26.3-1-13.27-1.74-22.88-8.88-30.93-18.88,4.73-.13,6.69,4,9.4,6.58,6.32,6,14.13,8,22.15,8.86,6.83.73,13.91,1,20.69-1.22,4.23-1.41,8.11.8,12.17,1.08,11.59.8,23.2,1.62,34-4.15C285.81,352.75,289.8,350.31,291.76,345.75Z" fill="#b17756"/><path d="M240.68,338.49c2.69,4.52,7.27,5.84,11.91,7.08-3.79,1.67-8.6,1-11.32,5.19-.75,1.15-1.85.18-2.46-.55-2.43-2.91-5.68-3.82-9.57-4.25C233.54,344,238.1,342.69,240.68,338.49Z" fill="#b17756"/><path d="M359.58,357.61a8.72,8.72,0,0,1-.16.89l-.92.92c-.3.07-.6.12-.9.16l-1.05,1-1,.13c-1-4.87-1.13-10.14-6.05-13.22a40.26,40.26,0,0,1,1-9.85c6.94,0,13.52,3.91,15,8.91a20.09,20.09,0,0,1-5,10Z" fill="#e0c3af"/><path d="M319.65,323.65a2.92,2.92,0,0,1,2-3.11A2.73,2.73,0,0,1,319.65,323.65Z" fill="#d6ad8e"/><path d="M131.32,345.68a23.34,23.34,0,0,0-5.43,12c-.54,3.58-2.06,3-3.7,1.19-3.28-3.52-6.15-7.36-6.44-12.47a12.48,12.48,0,0,1,14.88-8Z" fill="#e0c3af"/><path d="M359.58,357.61l1-1.07Z" fill="#dab59a"/><path d="M358.5,359.42l.92-.92Z" fill="#dab59a"/><path d="M356.55,360.56l1.05-1Z" fill="#dab59a"/></g></g></svg>