<svg xmlns="http://www.w3.org/2000/svg" viewBox="0 0 927.39 702.15"><title>asset_12</title><g id="Layer_2" data-name="Layer 2"><g id="Layer_1-2" data-name="Layer 1"><path d="M26.36,20.05c0-5.14.13-10.3-.11-15.43C26.09,1.24,27.1,0,30.69,0Q96,.21,161.22.15c3.16,6.37,3.48,12.72-.1,19.05-6.25,1.78-12.63.32-18.94.82h-2c-3.88-.3-7.83.62-11.67-.71-1.44-.5-2.11.36-2.31,1.7-3.93,0-7.87,0-11.8,0-1.42,0-3.12-.38-3.17,1.92V75.84q0,6.61,0,13.22l0,540q.53,6.95,1,13.87c-2,2.82-.59,6-1,9L98.23,652v-2.5c0-6.47,0-6.47-6.45-6.47H48.35c-9.05,0-9.05,0-9,8.9l-13.06,0q0-306.28,0-612.56c0-2.16.05-4.33.07-6.49,4.83-3,7.35-8.69,12.78-11,.05,1.83.16,3.65.16,5.48q0,161.58,0,323.16,0,7.15.07,14.29c0,1.55,0,3.09-.08,4.63q0,7,0,13.95l.05,4.61q0,7.14,0,14.29,0,34.43,0,68.85a17.31,17.31,0,0,0,1,6.81c-1.92,4.67-.3,9.6-1,14.36,0,1.54,0,3.07.08,4.61l-.07,14.3.06,4.56q0,7.15,0,14.32c0,1.47,0,2.94,0,4.41q0,7.23,0,14.45c0,1.45,0,2.91,0,4.37a1.93,1.93,0,0,0,.33.86l-.3,13.68,0,4.43q0,7.17,0,14.33l-.06,4.55q0,7,0,14v18.9c-.68,4.54.83,6.59,5.83,6.13a87.78,87.78,0,0,1,14.86,0c4.53.35,6.09-1.29,5.18-5.6l8.17,0c-.83,4.21.56,6,5.16,5.62a77,77,0,0,1,13.83,0c4.87.46,6.61-1.38,5.9-6q0-7.11,0-14.2c0-1.58,0-3.15,0-4.72q0-7,0-14.09c0-1.5,0-3-.07-4.5q0-7.2,0-14.39l0-4.34q-.1-6.86-.2-13.72a1.83,1.83,0,0,0,.24-.92c0-1.41,0-2.82,0-4.23l0-14.53,0-4.34-.06-14.45c0-1.49,0-3,.07-4.46q0-7.05,0-14.09v-4.76q0-7.06,0-14.13,0-38,0-75.94L98.17,388c0-1.48,0-3,.08-4.44V364.64q0-7,0-14.1,0-159.27,0-318.53c5.11-2.57,8.63-6.63,12-12.09-4.68.62-8.52-1.13-12.06,1.18L77,20.94,75.31,21c-4.59-2.1-9.43-.54-14.14-1H39.29ZM35.82,636a2.28,2.28,0,0,0-2.15-2.6,2.08,2.08,0,0,0-2.46,1.9A2.14,2.14,0,0,0,32.76,638C34.28,638.42,35.33,637.73,35.82,636ZM134.18,12.14c1.61-.16,2.39-.92,2.36-2.27A2.22,2.22,0,0,0,134,7.55a2.07,2.07,0,0,0-2.08,2.29A2.08,2.08,0,0,0,134.18,12.14Zm-29.42.08a2.2,2.2,0,0,0,2.58-2.34,2.18,2.18,0,0,0-2-2.4,2.26,2.26,0,0,0-2.83,2.08C102.27,11.19,103.23,12,104.76,12.22Zm2.59,623.86a2.39,2.39,0,0,0-2.18-2.79,2.44,2.44,0,1,0-.47,4.85A2.19,2.19,0,0,0,107.35,636.08ZM35.79,9.67a2.26,2.26,0,0,0-2.8-2,2,2,0,0,0-1.81,2.46c.16,1.62,1.18,2.21,2.73,2C35.29,11.86,35.75,10.91,35.79,9.67Z" fill="#d9d9da"/><path d="M901.23,21.92c.06,1.66.18,3.31.18,5q0,312.6,0,625.2l-13,0a.61.61,0,0,1-.51-.11c1.54-8.69,1.38-8.9-6.85-8.89H838.31c-8.83,0-8.83,0-8.81,9l-13-.08q0-4.46,0-8.91c-.22-4.63.68-9.35-1-13.88,1.77-1.83,1-4.12,1-6.18q.07-92.29,0-184.59,0-171.37,0-342.75c0-2.43.62-5.07-2-6.74,3.87-3.88,1.27-8.75,2-13.11V32c2.8-.24,3.86-2.83,5.76-4.29,2.41-1.85,3.73-5.07,7.13-5.69a2.37,2.37,0,0,1,.14.91V350.54q0,7.05,0,14.1v4.78q0,7.05,0,14.1l.07,4.52-.06,14.38q0,37.95,0,75.91,0,7,0,14.07v18.92l.08,4.5-.06,14.38c0,1.45,0,2.9,0,4.34l0,14.54v4.31l0,14.55c0,1.44,0,2.88,0,4.32l.06,14.54c0,1.45-.05,2.91-.08,4.36q0,7,0,14.08V610q0,7.1,0,14.18c-.71,4.61,1,6.51,5.86,6a77.79,77.79,0,0,1,13.82,0c4.52.38,6.07-1.29,5.2-5.58l8.17,0c-.91,4.31.62,6,5.19,5.63a85.49,85.49,0,0,1,14.4,0c5,.45,7.24-1,6.27-6.2q0-6.9,0-13.8V605.1q0-6.9,0-13.81c0-1.55,0-3.11,0-4.67q0-7.11,0-14.21l0-4.59q0-7.14,0-14.28V534.68l0-4.61q0-7.08,0-14.17c0-1.57,0-3.14,0-4.71q0-6.9,0-13.81v-5.14q0-6.89,0-13.78,0-38.08,0-76.17,0-7.08,0-14.17l0-4.78q0-6.88,0-13.77c0-1.7,0-3.4,0-5.1l0-13.81q0-15.21,0-30.42L888.46,33C893.27,29.93,895.84,24.31,901.23,21.92Zm-4.65,613.54a2.31,2.31,0,1,0-1.82,2.6C896.12,637.84,896.58,636.78,896.58,635.46Zm-71.28.18a2.55,2.55,0,0,0-2.6-2.37,2.25,2.25,0,0,0-2.31,2.55,2.18,2.18,0,0,0,2.48,2.34A2.48,2.48,0,0,0,825.3,635.64Z" fill="#d9d9da"/><path d="M161.12,19.2c3.58-6.33,3.26-12.68.1-19,1.66,0,3.32-.06,5-.06H762c1.83,0,3.66,0,5.5.07-.16,2.94-2.84,4.46-3.9,6.88-9.19,3-17.69,7.51-26.45,11.44-.31.14-.34.87-.51,1.32-1.49.07-3,.18-4.48.18C541.83,19.45,351.47,21,161.12,19.2Z" fill="#cecece"/><path d="M901.69,653.29c4.82-.07,9.65-.3,14.46-.17,7.19.19,11.24,5,11.24,12.94,0,5.86-5.62,11.74-11.45,12-1.16.05-2.33,0-3.49,0H455.16c-2.46,0-5,.43-7.3-1,.16-.46.31-.92.47-1.39l.26-.06-.2-.19.13-2.78a4,4,0,0,0-.14-3.35c-.11-.43-.22-.87-.32-1.31a52.83,52.83,0,0,0-1.77-13.12l-.25-2.73a10.32,10.32,0,0,0,5.18,1.32c4.95-.17,9.91-.2,14.87-.28-.31.67-.61,1.35-.91,2-1.33,0-2.2.41-2.23,1.9a1.61,1.61,0,0,0,1.69,1.88l.38.07c-.16,5.23.74,10.13,5.77,12.87,12.33,6.73,26.48-.78,27.89-14.68l.33-5.15c3.48,0,6.81,1.09,10.35,1.09Q656.69,653,804,653.08c1.33,0,2.81.37,4-.08,3.27-1.3,5.69.19,8.13,2,.14,1.92.5,3.44,3.1,3.12a25.86,25.86,0,0,1,6.34,0c3.21.4,4.43-1,4.24-4a20.52,20.52,0,0,1,6.84-1c15,.06,30,0,45,.05a12.41,12.41,0,0,0,6.28-1.15.61.61,0,0,0,.51.11c.45,2.24-2.36,5.82,2.92,6C901.25,658.42,901.24,658.55,901.69,653.29Z" fill="#f2f3ee"/><path d="M406.92,678.89c-.14-.69-.38-1.21-1.24-1.21q-195.84.18-391.69.41c-5.35,0-9.75-2.22-12.29-6.26-2.63-4.19-2-9.24.63-13.75,2.09-3.54,5.31-4.9,9.16-5,4.82-.08,9.64,0,14.47.09-.58,7.49,5.1,4.09,8.4,4.81,4.08.89,5.75-.89,5.34-4.9l58.25.15c1,1.45-1.29,4.61,1.88,4.62,4,0,8.09,1.17,11.94-.84.39-.25,1-.43,1.11-.75.25-.87-.53-1-1.15-1.18l0-2q145.46,0,290.89,0c3.62,0,7.32.71,10.87-.68,1.71-.67,2.3.82,3.25,1.64C413.27,662.23,411.84,671.25,406.92,678.89Z" fill="#f2f3ee"/><path d="M763.62,7c1.06-2.42,3.74-3.94,3.9-6.88Q832.29.12,897.08,0c3.64,0,4.56,1.3,4.4,4.64-.23,5.13-.11,10.29-.13,15.43l-13,0-21.77,0-1.11,0c-4.64.64-9.51-1.4-14,1.24l-21.83-.14a18.12,18.12,0,0,0-13.24,0l-14.88,0c-.21-1.22-.37-2.53-2-1.05l-13.88,0-17.17-.13C765.3,16.2,762.34,12.42,763.62,7Zm32.17,3c0-1.79-1-2.58-2.48-2.54a2.06,2.06,0,0,0-2.09,2.25,2,2,0,0,0,2,2.35A2.16,2.16,0,0,0,795.79,10.08Zm29.51-.36c-.31-1.51-1.18-2.41-2.75-2.25a2.25,2.25,0,0,0-2.16,2.74,2.1,2.1,0,0,0,2.39,2A2.41,2.41,0,0,0,825.3,9.72Zm69,2.43a2,2,0,0,0,2.26-2,2.16,2.16,0,0,0-2.26-2.56A2.07,2.07,0,0,0,892,9.6C891.86,11.18,892.76,12,894.29,12.15Z" fill="#d9d9da"/><path d="M406.92,678.89c4.92-7.64,6.35-16.66,9.8-24.89,1.3-2.07,3.37-3.69,3.63-6.35A17.73,17.73,0,0,1,431.88,645c7-.12,5.16,8.93,10.82,10.9.34-4.63-1.53-8.63-.75-12.76,2.56,2.43,2.84,5.91,4.09,9,.09.91.17,1.82.25,2.72a17,17,0,0,1-5.51,11.85c-5.23,4.84-7.42,10.59-7.12,17.75.35,8.37-5.68,12-13.1,8.2-2.46-1.25-5.16-2.27-7.65-1.43-5.4,1.82-7.15-1.1-8.23-5.42Z" fill="#5196b5"/><path d="M448.33,675.65c-.16.47-.31.93-.47,1.39-4.26,2.38-6.59,5.55-6.79,10.86-.25,6.44-4.42,10.42-10.55,12.44a37.83,37.83,0,0,1-15.75,1.59c-9.53-1-12.63-3.77-10.78-13,1.41,4.48,3.93,6.94,9.11,5.85,1.83-.39,4,.22,5.87.7,12.75,3.22,19.2-1.8,18.86-14.84-.07-2.59.05-4.95,2.39-6.67,2.66-2,5.23-4,7.84-6,.1.44.21.88.32,1.31.05,1.11.1,2.23.14,3.35l-.12,2.78Z" fill="#4e4e50"/><path d="M448.06,668c-2.61,2-5.18,4.08-7.84,6-2.34,1.72-2.46,4.08-2.39,6.67.34,13-6.11,18.06-18.86,14.84-1.91-.48-4-1.09-5.87-.7-5.18,1.09-7.7-1.37-9.11-5.85-.08-1.13-.31-2.29.7-3.18,1.07,4.33,2.82,7.25,8.22,5.43,2.49-.84,5.19.18,7.65,1.43,7.42,3.78,13.45.17,13.1-8.2-.3-7.16,1.89-12.91,7.12-17.75a17,17,0,0,0,5.51-11.85A53,53,0,0,1,448.06,668Z" fill="#bbd386"/><path d="M26.36,20.05l12.93,0c0,.64-.09,1.28-.13,1.91-5.43,2.32-7.95,8-12.78,11Q26.37,26.49,26.36,20.05Z" fill="silver"/><path d="M888.33,20l13,0-.12,1.85c-5.39,2.39-8,8-12.77,11.06Q888.4,26.5,888.33,20Z" fill="silver"/><path d="M39.7,653.11c.41,4-1.26,5.79-5.34,4.9-3.3-.72-9,2.68-8.4-4.81l.33-1.21,13.06,0C39.47,652.34,39.58,652.73,39.7,653.11Z" fill="#4e4e50"/><path d="M901.69,653.29c-.45,5.26-.44,5.13-10.39,4.77-5.28-.18-2.47-3.76-2.92-6l13,0Z" fill="#4e4e50"/><path d="M111.24,629.08c4,0,8-.07,12,.11,2.91.14,4.45-.73,4.1-3.91a35.36,35.36,0,0,1,0-4q0-205,0-410.12c0-2.15-.34-4.35.8-6.35,4.61-2.41,8.52-5.49,10.14-10.72l3-.11c0,3.82-.08,7.65-.08,11.47q0,211.56,0,423.1c0,10.51-3.84,14.39-14.42,14.46-4.82,0-9.65,0-14.47-.07Q111.76,636,111.24,629.08Zm23.07-395c1.59-.08,2.6-.83,2.68-2.37a2.33,2.33,0,0,0-2.36-2.6,2.28,2.28,0,0,0-2.55,2.38A2.24,2.24,0,0,0,134.31,234.05Zm.09,18.31a2.19,2.19,0,0,0-2.24,2.19,2.36,2.36,0,0,0,4.7.32C136.94,253.26,135.89,252.54,134.4,252.36Zm-.15-46.44a2.31,2.31,0,0,0-2.17,2.67,2.17,2.17,0,0,0,2.6,2.2,2.24,2.24,0,0,0,2.24-2.61A2.4,2.4,0,0,0,134.25,205.92ZM137,277.75c-.35-1.28-1.05-2.35-2.66-2.27a2.12,2.12,0,0,0-2.25,2.17,2.29,2.29,0,0,0,2.29,2.68C135.89,280.4,136.78,279.41,137,277.75Z" fill="#cecece"/><path d="M111.26,75.84l16.44.08c9.18,0,13.43,4.15,13.45,13.33q.06,31.86,0,63.74H127.27c0-19.56-.08-39.13.1-58.69,0-4-.81-5.84-5.17-5.4-3.61.37-7.29.13-10.93.16Q111.26,82.46,111.26,75.84Z" fill="#cecece"/><path d="M98.23,402.39l-24.89.32-8.13,0-25.87-.39q0-7.14,0-14.3l28.32-.6,3.59-.08c8.94,1.12,17.93,0,26.88.6Z" fill="#4e4e50"/><path d="M39.39,586.68q0-7.17,0-14.33l25.87-.4h8.12l24.88.35q0,7.2,0,14.39l-24.91.45-8,0Z" fill="#4e4e50"/><path d="M39.34,530.15q0-7.15,0-14.32l26.9-.52a13.17,13.17,0,0,0,6,0l25.9.46.06,14.45-24.9.28-8.11,0Z" fill="#4e4e50"/><path d="M39.36,549q0-7.23,0-14.45l25.89-.33h8l24.89.34,0,14.53-24.89.32H65.23Z" fill="#4e4e50"/><path d="M39.38,567.92l.3-13.68c.21-.26.42-.51.64-.76l24.92-.39h8.07l23.93.35.75.8q.11,6.85.2,13.72l-24.9.31h-8Z" fill="#4e4e50"/><path d="M98.24,591.19q0,7,0,14.09L72.18,606a10.51,10.51,0,0,0-5.83,0l-27-.77q0-7,0-14l25.86-.45h8.18Z" fill="#4e4e50"/><path d="M73.36,478l24.88.37q0,7.07,0,14.13l-26.07.61a15.42,15.42,0,0,0-6.76,0l-26.12-.68c.75-4.76-.87-9.69,1-14.36l24.83-.06Z" fill="#4e4e50"/><path d="M98.26,497.22q0,7,0,14.09l-25.85.5a12,12,0,0,0-5.92.06l-27.15-.6q0-7.15.07-14.3l25.76-.28a15.85,15.85,0,0,0,7.28-.17C81,497.74,89.66,496.43,98.26,497.22Z" fill="#4e4e50"/><path d="M80.48,350.43l17.76.11q0,7.05,0,14.1l-25,.62a13,13,0,0,0-7.1.09c-8.9-1.05-17.83-.11-26.74-.49q0-7.14-.07-14.29l17.77-.13Z" fill="#4e4e50"/><path d="M98.26,369.38q0,7.06,0,14.14l-25,.42a12.19,12.19,0,0,0-6,.12l-28-.62q0-7,0-13.95l25.85-.67a19.64,19.64,0,0,0,8.08-.05Z" fill="#4e4e50"/><path d="M73.36,624.59l-8.17,0-25.87-.52q0-7,0-14c8.92-.93,17.91.47,26.82-.75a9.59,9.59,0,0,0,6.15,0c8.64,1.13,17.34,0,26,.62q0,7.1,0,14.2Z" fill="#4e4e50"/><path d="M142.18,20c0,1.05,0,2.09.07,3.14-.08,4.31,0,8.63-.27,12.92-.32,4.67-3.94,7.91-8.17,7.67s-7.18-3.43-7.32-8c-.07-2.3.21-4.61.33-6.92,1.52,0,1.26,4,3.48,1.9,3.5-3.37,6.62-7.14,9.9-10.73Zm-5.8,15.79A2,2,0,0,0,134,34.06a2,2,0,0,0-1.9,2.42,2,2,0,0,0,2.39,1.94C135.75,38.27,136.46,37.37,136.38,35.81Z" fill="#cecece"/><path d="M77.26,23.17c0,.56,0,1.12,0,1.68-1.89,3.73-.36,7.72-.85,11.57-.55,4.24-3.38,7.17-7.35,7.31a7.62,7.62,0,0,1-7.88-7.27A34.78,34.78,0,0,1,61.41,32c2.29.32,3.57-1.23,5-2.6,2.94-2.83,5.94-5.6,8.91-8.4L77,20.94C77.07,21.68,77.16,22.43,77.26,23.17ZM71.09,35.68C70.72,35,70.24,34,68.84,34a2.2,2.2,0,1,0,.24,4.38C70.29,38.29,71.16,37.52,71.09,35.68Z" fill="#cecece"/><path d="M75.31,21c-3,2.8-6,5.57-8.91,8.4-1.42,1.37-2.7,2.92-5,2.6l-.12-7.12L61.17,20C65.88,20.48,70.72,18.92,75.31,21Z" fill="silver"/><path d="M140.2,20c-3.28,3.59-6.4,7.36-9.9,10.73-2.22,2.13-2-1.87-3.48-1.9a3.07,3.07,0,0,1,0-2.71c1-.52.82-.85-.18-1h-.37l-.15-.35c0-.57,0-1.13.08-1.7V21c.2-1.34.87-2.2,2.31-1.7C132.37,20.65,136.32,19.73,140.2,20Z" fill="silver"/><path d="M98.25,32q0-4.51,0-9c0-.63,0-1.27,0-1.9,3.54-2.31,7.38-.56,12.06-1.18C106.88,25.38,103.36,29.44,98.25,32Z" fill="silver"/><path d="M98,653.26l.28-1.23,13.06-.08.42,1.12c0,.68,0,1.36,0,2s0,1.29,0,1.93c-3.85,2-8,.86-11.94.84C96.66,657.87,98.9,654.71,98,653.26Z" fill="#4e4e50"/><path d="M98.23,21.1c0,.63,0,1.27,0,1.9l-21,.17c-.1-.74-.19-1.49-.29-2.23Z" fill="#676666"/><path d="M126.22,21v2.06l-15-.13c0-2.3,1.75-1.91,3.17-1.92C118.35,21,122.29,21,126.22,21Z" fill="#676666"/><path d="M35.82,636c-.49,1.75-1.54,2.44-3.06,2a2.14,2.14,0,0,1-1.55-2.72,2.08,2.08,0,0,1,2.46-1.9A2.28,2.28,0,0,1,35.82,636Z" fill="#4e4e50"/><path d="M134.18,12.14a2.08,2.08,0,0,1-2.3-2.3A2.07,2.07,0,0,1,134,7.55a2.22,2.22,0,0,1,2.58,2.32C136.57,11.22,135.79,12,134.18,12.14Z" fill="#4e4e50"/><path d="M104.76,12.22c-1.53-.23-2.49-1-2.28-2.66a2.26,2.26,0,0,1,2.83-2.08,2.18,2.18,0,0,1,2,2.4A2.2,2.2,0,0,1,104.76,12.22Z" fill="#676666"/><path d="M107.35,636.08a2.19,2.19,0,0,1-2.65,2.06,2.44,2.44,0,1,1,.47-4.85A2.39,2.39,0,0,1,107.35,636.08Z" fill="#676666"/><path d="M35.79,9.67c0,1.24-.5,2.19-1.88,2.4-1.55.23-2.57-.36-2.73-2A2,2,0,0,1,33,7.63,2.26,2.26,0,0,1,35.79,9.67Z" fill="#4e4e50"/><path d="M97.24,553.44l1-.12a1.83,1.83,0,0,1-.24.92Z" fill="#676666"/><path d="M39.35,553.38a1.18,1.18,0,0,1,1,.1c-.22.25-.43.5-.64.76A1.93,1.93,0,0,1,39.35,553.38Z" fill="#676666"/><path d="M799.82,439.78c.26,12.72.47,25.52.22,38.16-.52,25.76-.11,51.52-.39,77.27-.24,22.46-.06,44.92,0,67.38,0,6.29.31,6.55,6.38,6.58l9.49,0c1.7,4.53.8,9.25,1,13.88-5.65,0-11.31.1-17-.09-8.55-.3-13-5-13-13.57q0-110.22,0-220.44,0-105,0-210c0-1.67,0-3.33-.08-5l2,.07c2,5.55,6.71,8.44,11.14,11.62,1.51,2.12.86,4.54.72,6.78-.82,13.53-.58,27-.29,40.58.17,7.89-.4,15.91-.43,23.86-.1,21.9,0,43.8,0,65.7M793.19,229c-1.53.22-2.48,1-2.44,2.6a2.29,2.29,0,0,0,2.56,2.41,2.23,2.23,0,0,0,2.42-2.52C795.69,229.92,794.64,229.23,793.19,229Zm2.39,25.88a2.28,2.28,0,0,0-2.31-2.57,2.16,2.16,0,0,0-2.38,2,2.21,2.21,0,0,0,2,2.77A2.29,2.29,0,0,0,795.58,254.9Zm.1-46.54a2.32,2.32,0,0,0-2.48-2.43,2.38,2.38,0,0,0-2.45,2.51,2.22,2.22,0,0,0,2.48,2.38C794.79,210.82,795.55,209.87,795.68,208.36Zm-2.42,67.08c-1.57.09-2.57.92-2.49,2.49a2.31,2.31,0,0,0,2.61,2.39,2.26,2.26,0,0,0,2.23-2.26C795.71,276.43,794.82,275.62,793.26,275.44Z" fill="#cecece"/><path d="M786.57,153q0-31.62,0-63.23c0-9.74,4.16-13.8,14-13.81q8,0,15.93-.07c-.72,4.36,1.88,9.23-2,13.11L813,89c-12.62,0-13,0-13.27,12.64-.22,10-.49,20.11.48,30.2.66,6.94-.41,14-.7,21.07A69.17,69.17,0,0,1,786.57,153Z" fill="#cecece"/><path d="M829.57,586.8l-.06-14.54,24.89-.33,7.13,0,26.85.5q0,7.11,0,14.21l-26.9.57a19.55,19.55,0,0,0-7,0Z" fill="#4e4e50"/><path d="M829.51,530.2l.06-14.38,24.91-.48a19.21,19.21,0,0,0,7,0l26.91.58,0,14.16-26.85.47-7.13,0Z" fill="#4e4e50"/><path d="M854.39,402.74l-24.89-.32.06-14.38,24.93-.46a19,19,0,0,0,6.94,0l26.93.55q0,7.08,0,14.17l-25.86.42Z" fill="#4e4e50"/><path d="M888.36,553.54q0,7.14,0,14.28l-26.87.47-7,0-24.89-.33,0-14.55,24.89-.31,7.09,0Z" fill="#4e4e50"/><path d="M888.35,534.68q0,7.14,0,14.26l-26.85.51-7.09,0-24.89-.34,0-14.54,24.89-.33,7,0Z" fill="#4e4e50"/><path d="M888.4,591.29q0,6.91,0,13.81c-1.79.15-3.58.4-5.37.44-7.23.16-14.47.25-21.7.37a16.9,16.9,0,0,0-7,0l-24.85-.62q0-7,0-14.08l24.88-.4,6.82-.07Z" fill="#4e4e50"/><path d="M829.5,350.54l17.77-.1h23.36l17.76.22,0,13.81c-1.79.14-3.58.35-5.38.41-7.21.26-14.45-.47-21.65.42a16.85,16.85,0,0,0-6.82,0l-25.09-.65Q829.48,357.59,829.5,350.54Z" fill="#4e4e50"/><path d="M829.49,511.32q0-7,0-14.07l24.85-.65a15.19,15.19,0,0,0,7.28,0c1.81.14,3.61.37,5.42.41,7.13.16,14.26.26,21.38.39q0,6.9,0,13.81l-26.83.62a20.79,20.79,0,0,0-7.21-.05Z" fill="#4e4e50"/><path d="M888.41,610.21q0,6.9,0,13.8l-25.86.57-8.17,0-24.88-.46q0-7.08,0-14.18l24.86-.53a15.54,15.54,0,0,0,7.27,0l1.85.23h1Z" fill="#4e4e50"/><path d="M829.49,478.33l24.88-.38,8.17,0,25.86.48q0,6.89,0,13.78c-8.91,1.24-17.9-.24-26.81.78a16.56,16.56,0,0,0-7.28,0l-24.84-.6Q829.5,485.37,829.49,478.33Z" fill="#4e4e50"/><path d="M829.49,383.52q0-7,0-14.1l24.84-.66a14.63,14.63,0,0,0,7.29,0c1.81.15,3.61.35,5.42.43,7.13.29,14.27-.52,21.38.41l0,13.77-26.83.61h-7.2Z" fill="#4e4e50"/><path d="M816.48,32q0-4.5,0-9c0-.65-.07-1.3-.1-2a18.12,18.12,0,0,1,13.24,0,4.31,4.31,0,0,1-.27.93c-3.4.62-4.72,3.84-7.13,5.69C820.34,29.2,819.28,31.79,816.48,32Z" fill="silver"/><path d="M829.5,652.08l.3,2c.19,3-1,4.4-4.24,4a25.86,25.86,0,0,0-6.34,0c-2.6.32-3-1.2-3.1-3.12l.36-3Z" fill="#4e4e50"/><path d="M829.37,22.05a4.31,4.31,0,0,0,.27-.93l21.83.14.34-.14.24,1.25.29,0-1.92.76L829.5,23A2.19,2.19,0,0,0,829.37,22.05Z" fill="#676666"/><path d="M896.58,635.46c0,1.32-.46,2.38-1.82,2.6A2.18,2.18,0,0,1,892,636a2.31,2.31,0,1,1,4.59-.5Z" fill="#4e4e50"/><path d="M825.3,635.64a2.48,2.48,0,0,1-2.43,2.52,2.18,2.18,0,0,1-2.48-2.34,2.25,2.25,0,0,1,2.31-2.55A2.55,2.55,0,0,1,825.3,635.64Z" fill="#676666"/><path d="M768.47,19.89l-31.81-.08c.17-.46.2-1.19.51-1.33C745.93,14.55,754.43,10,763.62,7,762.34,12.42,765.3,16.2,768.47,19.89Z" fill="silver"/><path d="M466.09,653.15c1-1.13.43-3,1.86-3.92-.08,2.83-.32,5.66-.18,8.47.18,3.74,1.83,6.17,6.06,5,2.77-.79,5.28.08,7.82.75,7.59,2,13.47-1.62,13.16-9.33-.43-10.56,1.7-20.83,2.28-31.25,1.47,9.69,1.74,19.45,1.92,29.23l-.33,5.15c-.35.55-.73,1.08-1,1.65-4.77,8.79-7.89,10.13-17.65,7.56a6.92,6.92,0,0,0-2.92-.46c-6.16,1.32-10-1.15-12.05-6.94l-.38-.07.54-3.78C465.48,654.5,465.78,653.82,466.09,653.15Z" fill="#bbd386"/><path d="M465,659c2,5.79,5.89,8.26,12.05,6.94a6.92,6.92,0,0,1,2.92.46c9.76,2.57,12.88,1.23,17.65-7.56.31-.57.69-1.1,1-1.65-1.41,13.9-15.56,21.41-27.89,14.68C465.76,669.15,464.86,664.25,465,659Z" fill="#4e4e50"/><path d="M465.18,655.17l-.54,3.78a1.61,1.61,0,0,1-1.69-1.88C463,655.58,463.85,655.12,465.18,655.17Z" fill="#fefefe"/><path d="M448.52,672.62c0-1.12-.09-2.24-.14-3.35A4,4,0,0,1,448.52,672.62Z" fill="#bbd386"/><path d="M448.33,675.65l.07-.25.19.19Z" fill="#bbd386"/><path d="M111.77,657l0-1.93c.62.18,1.4.31,1.15,1.18C112.79,656.61,112.16,656.79,111.77,657Z" fill="#fefefe"/><path d="M801.51,23.09v1.75c0,3-.07,6-.12,9-.09,6.27-3.14,10-8,9.93-5.09-.11-7.83-4.1-7.35-10.72,5.24-3.58,10.57-7.07,13.51-13,1.63-1.48,1.79-.17,2,1.05C801.52,21.72,801.52,22.4,801.51,23.09ZM793.63,34a2,2,0,0,0-2.23,2.05,2.12,2.12,0,1,0,4.23.31A2.08,2.08,0,0,0,793.63,34Z" fill="#cecece"/><path d="M866.56,20.05c0,1.63-.07,3.27-.11,4.91,0,3.81.24,7.63,0,11.42a7.48,7.48,0,0,1-9.27,7.11C852.72,42.42,851,39.3,851.46,33c5.92-3,9.65-8.3,14-13ZM861.2,36.33a2.24,2.24,0,0,0-2-2.28,2.11,2.11,0,0,0-2.55,2.25,2.15,2.15,0,0,0,2.24,2.17A2.27,2.27,0,0,0,861.2,36.33Z" fill="#cecece"/><path d="M799.52,20c-2.94,6-8.27,9.46-13.51,13-.19-3-.39-6-.58-8.94,0-.36.07-.73.11-1.09,0-1,.06-2,.1-3Z" fill="silver"/><path d="M865.45,20c-4.34,4.68-8.07,10-14,13q-.11-3.93-.2-7.87a2.52,2.52,0,0,0,1.08-2.74l-.29,0c.76-.59,1-1.06-.24-1.25l-.34.14C855.94,18.62,860.81,20.66,865.45,20Z" fill="silver"/><path d="M801.51,23.09c0-.69,0-1.37,0-2.06l14.88,0c0,.65.07,1.3.1,2Z" fill="#676666"/><path d="M795.79,10.08a2.16,2.16,0,0,1-2.61,2.06,2,2,0,0,1-2-2.35,2.06,2.06,0,0,1,2.09-2.25C794.83,7.5,795.76,8.29,795.79,10.08Z" fill="#4e4e50"/><path d="M825.3,9.72a2.41,2.41,0,0,1-2.52,2.47,2.1,2.1,0,0,1-2.39-2,2.25,2.25,0,0,1,2.16-2.74C824.12,7.31,825,8.21,825.3,9.72Z" fill="#676666"/><path d="M894.29,12.15c-1.53-.16-2.43-1-2.28-2.55a2.07,2.07,0,0,1,2.28-2,2.16,2.16,0,0,1,2.26,2.56A2,2,0,0,1,894.29,12.15Z" fill="#4e4e50"/><path d="M444.75,537.21q2.1,13,4.19,25.91c2.19,13.7.51,27.08-3.91,40.09-2.8,8.26-1.83,16.71-2.18,25.11-.21,4.95.5,10-.9,14.84-.78,4.13,1.09,8.13.75,12.76-5.66-2-3.78-11-10.82-10.9-2-7.42-1.45-15.15-1.65-22.62-.43-16.27-3.33-32.39-1.6-48.86,1.46-13.8,2.77-27.41,8.23-40.31.1-1.91,1.76-2.28,3-3C442.29,532,442,535.7,444.75,537.21Z" fill="#dfc3af"/><path d="M436.86,533.23c-5.46,12.9-6.77,26.51-8.23,40.31-1.73,16.47,1.17,32.59,1.6,48.86.2,7.47-.38,15.2,1.65,22.62a17.73,17.73,0,0,0-11.53,2.63c-.9-14.58-4.2-28.84-5.54-43.36.35-.72,1.08-1.49,1-2.15-1.1-8-1.17-16.2-2.34-24.19-1.68-11.42-2.21-22.8-.27-34.11.72-4.21-.47-8.65,1.69-12.62C421.92,535,429,538.78,436.86,533.23Z" fill="#dbb79c"/><path d="M361,352c.21-9.93,3.87-18.71,9.13-26.9,2.42-3.78,4.82-7.46,5.66-12,1.31-7.07,5.31-12.67,10.15-17.83,4.13-4.39,9.34-6.2,15.1-6.48a17.77,17.77,0,0,0,8.36-2.53,122.58,122.58,0,0,1,21.61-10c1.83-.62,4-.85,4.11-3.55,2.87,3.41,5.91,6.72,7.52,11,.12,1.65.23,3.3.35,5-.56,1.86,1.34,5.28-2.88,4.87-4.77-.46-10.18-5.19-11.06-10.09-.45-2.51-1.3-2.57-3.24-1.83a61.66,61.66,0,0,0-14,7.49c16.22,10.42,34.47,15.88,51.69,23.47L463,305.7c2.6-.36,5.68.81,7.75-1.15,6.14-5.82,12.13-11.84,13.13-20.93.28-.37,1.24-.57.31-1.24l-.27,1.27c-2,1.67-2.47,4.18-3.67,6.29-5,8.84-9.15,11.34-16.43,9.74q.06-23.44.11-46.88c6.68-.78,13.41-1.28,19.76-4.24.9,5.42-.27,10.81,3.68,15.28l2.62-3.2c5,1.48,3,5.47,2.42,8.24-.84,3.79-.58,5.59,3.71,6.63,7.17,1.75,12.88,6.5,18.83,10.65,1.86,1.3,3.62,2.74,6.26,2.54,14-1.05,23.15,6.77,27.37,18.64,3.47,9.76,8.91,18.31,13,27.6,2.47,5.56,3.07,11.45,4.19,17.27l-3.85,3.43c-2.12-5.83-3.56-12.1-8.27-16.51-2.16-2-3.23-3.92-2.91-6.81.27-2.57-.16-3.79-3.59-3.16-12.06,2.24-21.26-2.94-28.17-12.43-3.86-5.31-7-11.13-6-18.14.24-1.6,1.53-3.42-.55-4.36s-3.51.67-4.63,2a11.78,11.78,0,0,0-1.93,4c-3,9.57.48,17.69,5.91,25.33,0,1.33,0,2.66,0,4-1.57,1.28-.72,3.08-1,4.63-1.14,5.72-3.46,10.77-9.17,13.21-3.61,1.54-7.38,3.12-11.22,3.64-5.5.75-11,2.1-16.66,1.36-2.34-.31-5-3.62-6.35-1.72-1.62,2.24,2.88,3.45,3.36,5.91-3.1.39-4.46-1.93-6-3.89a27.76,27.76,0,0,1-1.9-11.67c.17-5.82.06-11.64,0-17.46s-2.65-8.45-8.19-10.31c-4-1.36-8.21-2-12.19-3.94-4.42-2.16-9.43-6.19-14.32-4.3-6.24,2.41-6.85-1.11-8-5.11-.19-.64-.31-1.3-.56-1.91-.67-1.61-.84-3.7-3.5-3.34-2.87.4-2.31,2.66-2.06,4.23.92,5.65-1.61,10.84-4.23,14.85-7.14,10.9-17.16,17.8-31.2,15.48-2.32-.38-2.8.53-2.55,2.25.55,3.69-1,6.12-3.74,8.48-1.8,1.55-3,4-4,6.21-3.12,6.88-2.13,8.4,5.68,9.37a8.34,8.34,0,0,0,1,0c5.39,1.69,10.36,4.72,16.16,5.16a2,2,0,0,0,.95,2.12c6,3,10.27,8,15.24,12.28,3.18,2.72,5.09,6.92,9.47,8.25,2.69,4.46,7.43,7.06,10.34,11.33-5.11.33-10.44,6.1-15.31-.77-.52-.72-2.53-.65-3.8-.5a4.59,4.59,0,0,1-4-1.31Q382.49,372,361,352Z" fill="#dfc3af"/><path d="M272,337.74c1.56,1.83,1.06,4.14,1.56,6.11,7.31,28.82,25.28,48.32,52.23,60.09,2.57,1.12,4.05.47,5.22-1.88,1.4-2.8,2.92-5.55,4.58-8.68,2.71,2.49,3.23,5.69,4.5,8.43,4.55,9.79,8.9,19.68,13.41,29.49,1,2.17,1.45,3.48-1.76,4-13.58,2.18-27.12,4.58-41,7-.34-2.61,1.09-4.45,2.23-6,2.55-3.39,1.57-5.26-1.72-7.3a88.53,88.53,0,0,1-28.73-27.83c-11.59-18.33-15.37-38.3-12-59.67a21.26,21.26,0,0,1,.74-2.9C271.25,338.34,271.56,338.16,272,337.74Z" fill="#f8bf7a"/><path d="M786.57,153a69.17,69.17,0,0,0,12.95-.07c1.47.38,2,1.25,2,2.85q-.09,18,0,36a2,2,0,0,1-1.87,2.35H788.5l-2-.07c-1.73.32-3.46-1.17-5.23,1.07-5.59,7.05-12.38,8.55-19,4.72-6.43-3.72-8.49-10.9-5.47-19,2.06-1.87,3.11-4.64,5.93-5.93,1.24-.56.84-2-.9-2.08-2.06-3.43-5.78-5.81-6.31-10.23-.66-5.41.38-10.25,4.77-13.79,4.62-3.74,9.81-4.31,15.27-1.85,1.08,1.72,3.31,1.66,4.65,3C781.26,153.11,783.52,153.86,786.57,153Zm-17.52,39c2.72-.13,4.48-1.34,4.63-4.13a4.33,4.33,0,1,0-8.65-.53C764.9,189.86,766.35,191.56,769.05,191.91ZM769.5,164a4,4,0,0,0,4.18-4.31,4.34,4.34,0,1,0-8.67-.13C765,162.19,766.52,163.85,769.5,164Zm3.78,9.34,7.13,4.41v-8.7C778.07,170.84,776.2,172.44,773.28,173.37Zm22.29-11.31c-.13-1.25-.73-2.16-2.09-2.21a2.19,2.19,0,0,0-2.52,2.33,2.11,2.11,0,0,0,2.1,2.27A2.29,2.29,0,0,0,795.57,162.06Zm-2.2,20.85c-1.55.2-2.5,1-2.39,2.57a2.2,2.2,0,0,0,2.25,2.17,2.15,2.15,0,0,0,2.29-2.54A2.23,2.23,0,0,0,793.37,182.91Z" fill="#252525"/><path d="M127.27,153h13.88c3,.8,5.33.18,6.37-3.09.56-.72,1.13-1.43,1.7-2.15.6,0,1.42.38,1.08-.81l.13.16c1.27.39,2.16-.56,3.23-.89,6.69-2.06,13.38.38,16.85,6.15a14.46,14.46,0,0,1-2.13,17.44c-.86.92-2.41,1.34-2.32,3-1.4-.11-2.33.64-3.67,2.25,5.18-.2,6.64,3.78,9,6.77,2.47,7.53.45,14.05-5.48,17.75-6.15,3.84-13,2.7-18.68-3.29a3.89,3.89,0,0,0-2.84-1.61c-.2-.56-.45-1-1.18-.72l-1.91,0-3,.11-11.1-.15c-1.4-.94-.83-2.4-.83-3.63q-.07-16.59,0-33.19C126.3,155.69,125.86,154.11,127.27,153Zm31.05,2.16c-2.43.35-4.21,1.56-4.27,4.37s1.41,4.39,4.18,4.46a4,4,0,0,0,4.49-4.2C162.84,157,161,155.69,158.32,155.15Zm4.42,32.44c-.29-2.77-1.76-4.43-4.5-4.39a3.88,3.88,0,0,0-4.13,4.05c-.11,2.8,1.35,4.44,4.11,4.56S162.35,190.16,162.74,187.59ZM147.15,168.7v9.35l6.94-4.59A25,25,0,0,1,147.15,168.7Zm-10.28-6.58c-.31-1.42-1.1-2.36-2.65-2.27a2.08,2.08,0,0,0-2.05,2.28,2.16,2.16,0,0,0,2.06,2.3C135.81,164.6,136.52,163.53,136.87,162.12ZM136.82,185c-.35-1.11-1-2.13-2.32-2.09a2.22,2.22,0,0,0-2.32,2.56,2.11,2.11,0,0,0,2.22,2.15C135.92,187.62,136.68,186.58,136.82,185Z" fill="#252525"/><path d="M463.88,252.8q-.06,23.43-.11,46.88c-7.95,1.33-13.09-2.53-16.87-9.05-1.37-2.36-1.82-5.3-4.3-7-1.61-4.28-4.65-7.59-7.52-11-.42-2.7-1-5.4-1.23-8.12-.19-1.86.22-3.61,2.57-3.95l3.05,3.25c4.18-4.29,2.59-9.75,3.56-15.15C449.81,251.77,456.85,252.25,463.88,252.8Z" fill="#d6ad8e"/><path d="M361,352q21.51,20,43,40.11a4.59,4.59,0,0,0,4,1.31c1.27-.15,3.28-.22,3.8.5,4.87,6.87,10.2,1.1,15.31.77,6.29-1.2,12.66-2.09,18.78-4.12,5.73-.33,11.13-2.8,16.95-2.56-4.14,1.61-7.69,4-10,7.93l-20,4.32L422,402.64c-3.67,1.15-4.07,3.6-2.15,6.41,2.93,4.31,6.16,8.43,9.27,12.62l2.37,3.45c2.51,6.27,7,11.24,11.16,16.34,3.13,3.85,7,2.66,9.61-2.35l5.63.28c-.71,5.82-4.48,8.91-9.81,9.6-4.71.62-8.52-1.67-11.27-5.76-4.06-6-8.31-11.93-12.55-17.84-.93-1.3-1.63-3-3.52-3.26a6.27,6.27,0,0,0-3.78-4.83c-.1-2.54-2-4.06-3.34-5.89-.85-3.28-1-6.6-6.26-6.25-3.31.23-5.27-3.38-4.28-6.56,1.2-3.81-.53-5.49-3.26-7.09-11.35-11-22.85-21.79-34.81-32.09-1.3-1.68-2.45-3.53-4.78-4-3.58-5.37-9.11-8.78-13.5-13.34l-4.06-4.2c.27-.43.53-.87.79-1.3Z" fill="#4e4e50"/><path d="M437.83,237.66c3.35-11.3,12.92-16.62,24.87-17.81,10-1,21.21,6.18,25.3,15.76-1.5.91-2.12,2.68-4.13,3.28a62.4,62.4,0,0,1-15,2.85C458.28,242.23,447.9,241.24,437.83,237.66Z" fill="#4e4e50"/><path d="M761.78,172.8c1.74.12,2.14,1.52.9,2.08-2.82,1.29-3.87,4.06-5.93,5.93-1.82.27-2.74,1.79-3.93,2.88q-89.88,82.49-179.73,165c-.73.67-1.56,1.22-2.35,1.82l-1.59-.88q31.33-29,62.67-57.89Q695.39,233.27,759,174.89C759.88,174.12,760.86,173.49,761.78,172.8Z" fill="#676666"/><path d="M437.83,237.66c10.07,3.58,20.45,4.57,31.07,4.08a62.4,62.4,0,0,0,15-2.85c2-.6,2.63-2.37,4.13-3.28,3,4.91,1.36,10.35,1.72,15.56.22,3.14.16,6.31.22,9.47l-2.62,3.2c-3.95-4.47-2.78-9.86-3.68-15.28-6.35,3-13.08,3.46-19.76,4.24-7-.55-14.07-1-20.85-4.12-1,5.4.62,10.86-3.56,15.15l-3.05-3.25q.18-8.37.35-16.72C436.81,241.74,436.51,239.56,437.83,237.66Z" fill="#252525"/><path d="M171.35,181.82c-2.32-3-3.78-7-9-6.77,1.34-1.61,2.27-2.36,3.67-2.25,11.8,10.7,23.67,21.33,35.38,32.13q67.63,62.4,135.15,124.93c1.29,1.19,3.39,2,3.21,4.91-2.21-.46-3.25-2-4.48-3.15q-78.79-72.72-157.6-145.44C175.85,184.45,174.46,181.82,171.35,181.82Z" fill="#676666"/><path d="M360.21,355.44c2.33.45,3.48,2.3,4.78,4-.41,9.58,5,15.59,12.17,20.94,6.93,5.14,14.65,8.33,22.64,11.15,2.73,1.6,4.46,3.28,3.26,7.09-1,3.18,1,6.79,4.28,6.56,5.26-.35,5.41,3,6.25,6.25a8.53,8.53,0,0,0-.95.28c-15-7.36-29.59-15.34-42.14-26.55-4.12-3.68-6.8-8.5-9.55-13.2C357.81,366.59,360.67,360.93,360.21,355.44Z" fill="#dbb79c"/><path d="M414.88,531.22c-2.16,4-1,8.41-1.69,12.62-1.94,11.31-1.41,22.69.27,34.11,1.17,8,1.24,16.15,2.34,24.19.09.66-.64,1.43-1,2.15-3.79-15.41-5.1-31.11-5.57-46.9a173.39,173.39,0,0,1,1.63-29.85c1.07-7.46,0-14.94,0-22.41.08-3.25,1.36-6.43.62-9.73l1.88-3a10.31,10.31,0,0,0,2.39-.43c13.33-5.9,25.52-2.75,37.21,4.58,2.59,1.62,3.33,3.5,1,5.93-2.5-2.65-4.91-5.46-9.08-5.16v0a2.13,2.13,0,0,0-2-1c-7.58-4.09-15.5-3.66-23.49-1.63-2.28.58-3.22,2.11-3.6,4.65-1.11,7.4-.62,14.82-1,22.22C414.65,524.79,416.33,528,414.88,531.22Z" fill="#c69777"/><path d="M413.39,492.35l-1.87,3-2.26.85a396,396,0,0,1,.2-46.86c.69-12.58,1.2-25.21,3.18-37.7a8.53,8.53,0,0,1,.95-.28c1.35,1.83,3.25,3.35,3.35,5.89l-.42,4.31a17,17,0,0,0-.72,2.85C413.9,447.05,412.65,469.67,413.39,492.35Z" fill="#bbd386"/><path d="M126.84,26.15a3.07,3.07,0,0,0,0,2.71c-.12,2.31-.4,4.62-.33,6.92.14,4.54,3.17,7.73,7.32,8s7.85-3,8.17-7.67c.28-4.29.19-8.61.27-12.92,5.57,3.86,7.47,9.31,6.84,15.85-.93,1.64-2.63,2.81-3,4.82-3.57,5.58-8.81,7.38-15,6.15A12.92,12.92,0,0,1,120.4,39.45c-1.27-6,.26-11.18,5.74-14.67l.15.35h.37Z" fill="#252525"/><path d="M785.43,24.08c.19,3,.39,6,.58,8.94-.48,6.62,2.26,10.61,7.35,10.72,4.89.11,7.94-3.66,8-9.93.05-3,.08-6,.12-9,5.6,3.4,7,8.67,5.8,14.58a12.82,12.82,0,0,1-10.16,10.46c-6.38,1.45-11.83-.24-15.53-6q-1.51-2.93-3-5.85c.1-2,.19-4,.28-5.92a1.44,1.44,0,0,0,.75-2,10.51,10.51,0,0,1,4.8-6.19Z" fill="#252525"/><path d="M778.58,38q1.53,2.92,3,5.85c-2.27,1.36-1.12,3.57-1.12,5.32q-.13,47.64-.09,95.29c0,1.82-.16,3.64-.25,5.46-1.34-1.32-3.57-1.26-4.65-3,4.09.76,2.66-2.44,2.67-4.09.1-17.07,0-34.14.08-51.21C778.32,73.75,778.47,55.87,778.58,38Z" fill="#676666"/><path d="M146.12,43.83c.34-2,2-3.18,3-4.82.11,7.45.29,14.91.3,22.37,0,26.9,0,53.8.06,80.7,0,1.66-1,3.68,1,5l-.13-.16c-1-.58-.83.39-1.08.81-.57.72-1.14,1.43-1.7,2.15-.09-16.62-.2-33.24-.24-49.86,0-17.13,0-34.25-.08-51.38C147.19,47.09,148.41,45,146.12,43.83Z" fill="#676666"/><path d="M561.91,355.64l3.85-3.43c1.52-.14,1.89-3,4-1.69-.23,2.85-3.62,3.25-4.4,5.67a8.33,8.33,0,0,0-3.63,3.32,11.47,11.47,0,0,0-4.06,3.71q-16.46,14.07-31.88,29.25c-1.73,1.21-3.54,2-2.82,5,1.58,6.61-2.11,9.76-9,8.09-2.31-1.76-3.63-4-3.09-7,1.44-3.4,3.78-5.44,7.69-4.83a3.47,3.47,0,0,0,3.18-.88c11.79-11.15,24.25-21.59,35.58-33.23Z" fill="#4e4e50"/><path d="M409.26,496.25l2.26-.85c.73,3.3-.55,6.48-.63,9.73C408.34,502.54,408.78,499.4,409.26,496.25Z" fill="#5196b5"/><path d="M779.61,30.11a1.44,1.44,0,0,1-.75,2A1.58,1.58,0,0,1,779.61,30.11Z" fill="#676666"/><path d="M785.43,24.08l-1-.16,1.13-.93C785.5,23.35,785.47,23.72,785.43,24.08Z" fill="#676666"/><path d="M143.17,194c.73-.31,1,.16,1.18.72Z" fill="#cecece"/><path d="M340.42,335.45c.19-.33.38-.66.56-1l1.29,1Z" fill="#676666"/><path d="M340.42,335.45l1.85,0a.7.7,0,0,1,.68.62l-1.39.88C341,336.65,340.23,336.38,340.42,335.45Z" fill="#4e4e50"/><path d="M343,336.11c.17.16.33.32.49.49-.26.43-.52.87-.79,1.3l-1.09-.91Z" fill="#4e4e50"/><path d="M569.15,349.61l1.59.88-1,0Z" fill="#4e4e50"/><path d="M70.16,50.65c-.06.83-.19,1.65-.19,2.48q0,135.76,0,271.53c-1.34,2.82-.63,5.71-.31,8.59-.66.63-1.22.63-1.67-.23V322.75c-.07-2.48-.21-5-.21-7.45q0-129.66-.06-259.33c0-2,.38-4-.71-5.85l3.14-.24A3.31,3.31,0,0,0,70.16,50.65Z" fill="#4e4e50"/><path d="M68,322.75q0,5.14,0,10.27c-2.65,0-2.84,1.74-2.33,3.64a3.35,3.35,0,0,0,6.43-.42c.18-1.58.12-3.42-2.43-3-.32-2.88-1-5.77.31-8.59,8.11,2.93,9.91,5.61,10,14.38.06,3.79-.55,7.63.44,11.39H57.09c1.26-3.7.62-7.52.54-11.25-.15-6.51,1.42-11.76,8.35-13.88C67.29,324.9,67.59,323.8,68,322.75Z" fill="#676666"/><path d="M70.19,49.88l-3.14.24c-7-1.21-11.48-5.6-12.4-12.18a12.63,12.63,0,0,1,6.64-13L61.41,32a34.78,34.78,0,0,0-.18,4.44,7.62,7.62,0,0,0,7.88,7.27c4-.14,6.8-3.07,7.35-7.31.49-3.85-1-7.84.85-11.57,4.76,3.88,6.82,8.75,5.24,14.83C81,45.47,77.32,49,71.37,50Z" fill="#252525"/><path d="M70.19,49.88l1.18.16-1.21.61A3.31,3.31,0,0,1,70.19,49.88Z" fill="#676666"/><path d="M127.14,194l11.1.15c-1.62,5.23-5.53,8.31-10.14,10.72Z" fill="silver"/><path d="M134.31,234.05a2.24,2.24,0,0,1-2.23-2.59,2.28,2.28,0,0,1,2.55-2.38,2.33,2.33,0,0,1,2.36,2.6C136.91,233.22,135.9,234,134.31,234.05Z" fill="#676666"/><path d="M134.4,252.36c1.49.18,2.54.9,2.46,2.51a2.36,2.36,0,1,1-2.46-2.51Z" fill="#4e4e50"/><path d="M134.25,205.92a2.4,2.4,0,0,1,2.67,2.26,2.24,2.24,0,0,1-2.24,2.61,2.17,2.17,0,0,1-2.6-2.2A2.31,2.31,0,0,1,134.25,205.92Z" fill="#676666"/><path d="M137,277.75c-.22,1.66-1.11,2.65-2.62,2.58a2.29,2.29,0,0,1-2.29-2.68,2.12,2.12,0,0,1,2.25-2.17C136,275.4,136.65,276.47,137,277.75Z" fill="#676666"/><path d="M73.36,478l-8.17,0q0-37.6,0-75.21l8.13,0Q73.35,440.33,73.36,478Z" fill="#d9d9da"/><path d="M73.29,383.94c-1,1,.14,3.11-2,3.41l-3.6.09c-1.39-1-.69-2.2-.41-3.38A12.19,12.19,0,0,1,73.29,383.94Z" fill="#d9d9da"/><path d="M73.26,587.14c0,1.21.07,2.42.11,3.64H65.19c0-1.22.07-2.44.11-3.67Z" fill="#d9d9da"/><path d="M73.29,568.27c0,1.23,0,2.45,0,3.68H65.22c0-1.22,0-2.45,0-3.67Z" fill="#d9d9da"/><path d="M73.33,530.5c0,1.24,0,2.48,0,3.72h-8c0-1.24,0-2.48,0-3.71Z" fill="#d9d9da"/><path d="M72.39,511.81l-.12,3.5a13.17,13.17,0,0,1-6,0c.06-1.14.13-2.29.19-3.44A12,12,0,0,1,72.39,511.81Z" fill="#d9d9da"/><path d="M73.32,549.41c0,1.22,0,2.45,0,3.68H65.24c0-1.23,0-2.46,0-3.68Z" fill="#d9d9da"/><path d="M72.18,606a3.28,3.28,0,0,1,.1,3.43,9.59,9.59,0,0,1-6.15,0c.07-1.14.15-2.28.22-3.42A10.51,10.51,0,0,1,72.18,606Z" fill="#d9d9da"/><path d="M65.15,496.69c.09-1.21.18-2.43.28-3.65a15.42,15.42,0,0,1,6.76,0l.24,3.45A15.85,15.85,0,0,1,65.15,496.69Z" fill="#d9d9da"/><path d="M73.23,365.26a3.27,3.27,0,0,0,0,3.51,19.64,19.64,0,0,1-8.08.05c.32-1.16,1.36-2.11,1-3.47A13,13,0,0,1,73.23,365.26Z" fill="#d9d9da"/><path d="M136.38,35.81c.08,1.56-.63,2.46-1.92,2.61a2,2,0,0,1-2.39-1.94,2,2,0,0,1,1.9-2.42A2,2,0,0,1,136.38,35.81Z" fill="#252525"/><path d="M71.09,35.68c.07,1.84-.8,2.61-2,2.72A2.2,2.2,0,1,1,68.84,34C70.24,34,70.72,35,71.09,35.68Z" fill="#252525"/><path d="M126.84,26.15l-.18-1C127.66,25.3,127.8,25.63,126.84,26.15Z" fill="#cecece"/><path d="M413.39,492.35c-.74-22.68.51-45.3,2.41-67.89a17,17,0,0,1,.72-2.85c1.32.82,2.76.63,4.2.52,1.89.3,2.59,2,3.52,3.26,4.24,5.91,8.49,11.81,12.55,17.84,2.75,4.09,6.56,6.38,11.27,5.76,5.33-.69,9.1-3.78,9.81-9.6,1.31-.64,3-.2,4.1-1.51l6.72,1.7c.67,5.35,4.13,8,9,9.22s8.37-1.23,11.08-4.83c3.87-5.14,7.29-10.63,11.28-15.67,2.38-3,3.49-7.13,7.48-8.75a197,197,0,0,1,2.27,24.72c.57,27.36-.25,54.68-2.23,82l-.81,1-6,1.15a57.79,57.79,0,0,1-21.73-3.32L473,521.42c-4.55-3-6.13-7.16-6.28-12.63a219.58,219.58,0,0,0-2.85-28.42c-1.45,3.93-1.08,8.09-1.72,12.07s-.37,7.93-.4,11.91c-.07,8.94-1.54,11.08-10,14.28-2-1.37-.41-2.9-.15-4.33.73-4,2.66-7.7,2.36-11.87,2.32-2.43,1.58-4.31-1-5.93-11.69-7.33-23.88-10.48-37.21-4.58A10.31,10.31,0,0,1,413.39,492.35Z" fill="#060705"/><path d="M591.26,393.3a13.63,13.63,0,0,1,4.28,6.32c1.74,5.22,4.64,5.26,9,3.15,27.07-12.93,44.71-33.25,50.28-63.22a6,6,0,0,1,.49-1.38c0-.1.29-.11.88-.3,2.27,7.32,2.64,14.83,2.19,22.34-1.3,21.78-9.65,40.49-25.24,55.83-5,4.9-10.2,9.61-16.33,13-3.5,1.93-4.11,3.84-2.05,7,.71,1.11,1.22,2.36,1.84,3.54,1,1.9.62,2.9-1.69,2.5-13.08-2.28-26.17-4.49-39.23-6.91-3.68-.69-1.82-3.3-1-5.08,3.63-8.19,7.43-16.3,11.14-24.47C587.6,401.71,589.3,397.75,591.26,393.3Z" fill="#f8bf7a"/><path d="M500.81,528.41l6-1.15c.64,19.5-2.24,38.56-7.23,57.37a149.83,149.83,0,0,0-4.55,29.8c-.09,1.64-.18,3.29-.25,4.93-.1,2.58-.28,4.54-3.51,2-3-2.39-6.65-2.6-10.35-2.07,1.92-2.34,4.81-.25,7.12-1.59-2.65-1.17-2.53-3.43-1.91-5.49.7-2.29.3-4.69.84-6.87,1.65-6.53,1.18-13.24,1.39-19.77.35-11.38,1.75-22.71,1-34.19-.4-5.88-.17-12.71,5.85-16.8A20.42,20.42,0,0,0,500.81,528.41Z" fill="#dbb79c"/><path d="M480.88,619.25c3.7-.53,7.36-.32,10.35,2.07,3.23,2.58,3.41.62,3.51-2,.07-1.64.16-3.29.25-4.93,2.45,2.36,1.74,5.5,2.1,8.39-.58,10.43-2.71,20.7-2.28,31.26.31,7.71-5.57,11.35-13.16,9.33-2.54-.67-5-1.54-7.82-.75-4.23,1.21-5.88-1.22-6.06-5-.14-2.81.1-5.64.18-8.47,2.31-9.4,5.63-18.56,6.32-28.34.12-1.7.3-3.64,1.61-5.08C476.17,622.24,476.17,622.24,480.88,619.25Z" fill="#5196b5"/><path d="M507.58,526.24c2-27.29,2.8-54.61,2.23-82a197,197,0,0,0-2.27-24.72,17.44,17.44,0,0,1,4.94-7.26l1.22.18c6.36,28.53,4.28,57.38,3.22,86.19-.22,6-.5,11.91-1.12,17.86C515.25,521.87,512.85,525.13,507.58,526.24Z" fill="#bbd386"/><path d="M513.7,412.47l-1.22-.18,1.47-6.74c6.93,1.67,10.62-1.48,9-8.09-.72-3,1.09-3.78,2.82-5a77.07,77.07,0,0,0,21-10.4c6.68-4.49,12.11-9.77,10.91-18.85a11.47,11.47,0,0,1,4.06-3.71c1.26.94.91,2.32,1,3.6.51,5.28-.5,10.34-2,15.35-5.84,9.54-15,15.24-24.21,20.88C529.07,403.94,521.33,408.11,513.7,412.47Z" fill="#dbb79c"/><path d="M560.76,378.46c1.53-5,2.54-10.07,2-15.35-.13-1.28.22-2.66-1-3.6a8.33,8.33,0,0,1,3.63-3.32C568.46,363.7,566.94,374,560.76,378.46Z" fill="#dfc3af"/><path d="M788.5,194.1h11.16a.76.76,0,0,1,0,.82l-.67.33.58.46.06,10C795.21,202.54,790.47,199.65,788.5,194.1Z" fill="silver"/><path d="M799.58,195.72l-.58-.46.67-.33A7.08,7.08,0,0,0,799.58,195.72Z" fill="#d9d9da"/><path d="M858.21,55.08c-.21-1.51-.42-3-.62-4.53a3.84,3.84,0,0,0,0-.68l3.11.24c-1.53,2.64-.81,5.54-.81,8.3q-.06,128.91,0,257.83c0,2.65-.12,5.31-.18,8l-.19,9.33c-.7.72-1,.18-1.31-.42.23-2.82.89-5.65-.29-8.42q0-130.68.07-261.37c0-2.48.18-5,.28-7.45l.24-.39Z" fill="#4e4e50"/><path d="M857.85,324.69c1.18,2.77.52,5.6.29,8.42-2.72-.14-2.87,1.69-2.43,3.55.38,1.61,1.78,2.3,3.42,2.22a3,3,0,0,0,3-2.74c.18-1.69-.15-3.47-2.71-2.61l.19-9.33c8.21,2.54,11.19,8.19,10.41,16.54-.3,3.17-.84,6.55.58,9.7H847.27c1-3.89.34-7.84.41-11.75C847.85,330.14,849.73,327.44,857.85,324.69Z" fill="#676666"/><path d="M860.68,50.11l-3.11-.24-1.19.17c-6-1-9.69-4.61-11.23-10.36-1.63-6.08.49-10.95,5.27-14.81a1,1,0,0,0,.84.26q.09,3.95.2,7.87c-.46,6.3,1.26,9.42,5.75,10.49a7.48,7.48,0,0,0,9.27-7.11c.21-3.79,0-7.61,0-11.42,5,2.55,7.38,7.5,6.43,13.47C871.85,44.83,867.64,48.86,860.68,50.11Z" fill="#252525"/><path d="M851.26,25.13a1,1,0,0,1-.84-.26V23.15l1.92-.76A2.52,2.52,0,0,1,851.26,25.13Z" fill="#cecece"/><path d="M856.38,50l1.19-.17a3.84,3.84,0,0,1,0,.68Z" fill="#676666"/><path d="M858.21,55.08l.23.4-.24.39A.47.47,0,0,1,858.21,55.08Z" fill="#676666"/><path d="M793.19,229c1.45.21,2.5.9,2.54,2.49a2.23,2.23,0,0,1-2.42,2.52,2.29,2.29,0,0,1-2.56-2.41C790.71,230.05,791.66,229.24,793.19,229Z" fill="#676666"/><path d="M795.58,254.9a2.29,2.29,0,0,1-2.67,2.16,2.21,2.21,0,0,1-2-2.77,2.16,2.16,0,0,1,2.38-2A2.28,2.28,0,0,1,795.58,254.9Z" fill="#4e4e50"/><path d="M795.68,208.36c-.13,1.51-.89,2.46-2.45,2.46a2.22,2.22,0,0,1-2.48-2.38,2.38,2.38,0,0,1,2.45-2.51A2.32,2.32,0,0,1,795.68,208.36Z" fill="#676666"/><path d="M793.26,275.44c1.56.18,2.45,1,2.35,2.62a2.26,2.26,0,0,1-2.23,2.26,2.31,2.31,0,0,1-2.61-2.39C790.69,276.36,791.69,275.53,793.26,275.44Z" fill="#676666"/><path d="M862.54,478l-8.17,0q0-37.6,0-75.21l8.13,0Z" fill="#d9d9da"/><path d="M854.4,571.93c0-1.22,0-2.44.05-3.66l7,0c0,1.21,0,2.41,0,3.62Z" fill="#d9d9da"/><path d="M854.37,590.76c0-1.2.07-2.4.1-3.61a19.55,19.55,0,0,1,7,0l-.27,3.5Z" fill="#d9d9da"/><path d="M854.48,515.34l-.12-3.58a20.79,20.79,0,0,1,7.21.05l-.12,3.52A19.21,19.21,0,0,1,854.48,515.34Z" fill="#d9d9da"/><path d="M854.45,534.21l-.05-3.69,7.13,0c0,1.22,0,2.43,0,3.64Z" fill="#d9d9da"/><path d="M854.49,387.58c0-1.22-.09-2.43-.13-3.64h7.2l-.13,3.62A19,19,0,0,1,854.49,387.58Z" fill="#d9d9da"/><path d="M854.42,553.08v-3.66l7.09,0v3.6Z" fill="#d9d9da"/><path d="M854.33,609.46v-3.6a16.9,16.9,0,0,1,7,0c.09,1.18.18,2.35.26,3.52A15.54,15.54,0,0,1,854.33,609.46Z" fill="#d9d9da"/><path d="M854.32,368.76c.09-1.16.17-2.31.25-3.47a16.85,16.85,0,0,1,6.82,0c.07,1.15.15,2.29.22,3.43A14.63,14.63,0,0,1,854.32,368.76Z" fill="#d9d9da"/><path d="M854.33,496.6c0-1.2,0-2.4,0-3.6a16.56,16.56,0,0,1,7.28,0c0,1.19,0,2.37,0,3.56A15.19,15.19,0,0,1,854.33,496.6Z" fill="#d9d9da"/><path d="M863.45,609.66c.34-.47.68-.48,1,0Z" fill="#d9d9da"/><path d="M851.81,21.12c1.25.19,1,.66.24,1.25Z" fill="#cecece"/><path d="M480.88,619.25c-4.71,3-4.71,3-5-3.44,1.85-7.78.33-15.66.8-23.48.37-.7,1.12-1.45,1-2.1-1.05-9-2.07-18-3.38-26.92-1.92-13.2,1.07-25.74,4.74-38.22a57.79,57.79,0,0,0,21.73,3.32,20.42,20.42,0,0,1-5.66,6.13c-6,4.09-6.25,10.92-5.85,16.8.77,11.48-.63,22.81-1,34.19-.21,6.53.26,13.24-1.39,19.77-.54,2.18-.14,4.58-.84,6.87-.62,2.06-.74,4.32,1.91,5.49C485.69,619,482.8,616.91,480.88,619.25Z" fill="#d6ad8e"/><path d="M454,502.43c.3,4.17-1.63,7.9-2.36,11.87-.26,1.43-1.88,3,.15,4.33-3.9,5.6-5.63,12-7,18.58-2.8-1.51-2.46-5.21-4.86-7,.33-1.94.35-4,1.05-5.8,3.41-8.76,2.7-18.08,4-27.13C449.09,497,451.5,499.78,454,502.43Z" fill="#dbb79c"/><path d="M479.08,525.09c-3.67,12.48-6.66,25-4.74,38.22,1.31,9,2.33,17.94,3.38,26.92.08.65-.67,1.4-1,2.1-5.21-23.43-8.2-47-3.68-70.91Z" fill="#c69777"/><path d="M793.63,34a2.08,2.08,0,0,1,2,2.36,2.12,2.12,0,1,1-4.23-.31A2,2,0,0,1,793.63,34Z" fill="#252525"/><path d="M861.2,36.33a2.27,2.27,0,0,1-2.34,2.14,2.15,2.15,0,0,1-2.24-2.17,2.11,2.11,0,0,1,2.55-2.25A2.24,2.24,0,0,1,861.2,36.33Z" fill="#252525"/><path d="M444.92,497.27c-1.28,9.05-.57,18.37-4,27.13-.7,1.8-.72,3.86-1.05,5.8-1.27.75-2.93,1.12-3,3-7.9,5.55-14.94,1.73-22-2,1.45-3.22-.23-6.43-.07-9.68.37-7.4-.12-14.82,1-22.22.38-2.54,1.32-4.07,3.6-4.65,8-2,15.91-2.46,23.49,1.63a2.06,2.06,0,0,0,2,1Z" fill="#d6ad8e"/><path d="M375,355.53a8.34,8.34,0,0,1-1,0c-7.81-1-8.8-2.49-5.68-9.37,1-2.23,2.21-4.66,4-6.21,2.75-2.36,4.29-4.79,3.74-8.48-.25-1.72.23-2.63,2.55-2.25,14,2.32,24.06-4.58,31.2-15.48,2.62-4,5.15-9.2,4.23-14.85-.25-1.57-.81-3.83,2.06-4.23,2.66-.36,2.83,1.73,3.5,3.34.25.61.37,1.27.56,1.91,1.19,4,1.8,7.52,8,5.11,4.89-1.89,9.9,2.14,14.32,4.3,4,1.95,8.16,2.58,12.19,3.94,5.54,1.86,8.17,4.58,8.19,10.31s.13,11.64,0,17.46a27.76,27.76,0,0,0,1.9,11.67c-1.17-.24-2.45-.4-3.23.65-3.26,4.34-7.86,4.2-12.61,4.22a68.44,68.44,0,0,1-14.32-1.27c-8.88-1.85-16.65-5.65-20.73-14.44-2.07-4.44-.51-9.21-.57-14.12-3.55,2.2-6.61,4.46-10,6.09a10.82,10.82,0,0,0-6.13,7c-3,8.88-9.45,13.63-19,13.75C377,354.57,375.78,354.46,375,355.53Z" fill="#dbb79c"/><path d="M375,355.53c.83-1.07,2-1,3.19-1,9.56-.12,16-4.87,19-13.75a10.82,10.82,0,0,1,6.13-7c3.37-1.63,6.43-3.89,10-6.09.06,4.91-1.5,9.68.57,14.12,4.08,8.79,11.85,12.59,20.73,14.44a68.44,68.44,0,0,0,14.32,1.27c4.75,0,9.35.12,12.61-4.22.78-1.05,2.06-.89,3.23-.65,1.59,2,2.95,4.28,6,3.89h.08c.7,1.41,2,1,3.15,1,3,0,6,.11,8.93-.11,12.29-.94,23.46-4,29.88-16,3.59-.08,3.72-4.07,6.32-6,.81,2.53,1.71,4.54,1.65,6.83-2.5,3.08-5.44,5.9-7.39,9.29-3,5.21-6.33,10.57-6.14,16.85.14,4.91,1.24,9.8,1.92,14.7-2.27,4.91-6.91,7.63-10.47,11.35a137.31,137.31,0,0,1-17.82-4c.09-2.17,1.9-2.4,3.38-3.09a15.63,15.63,0,0,0,6.91-5.36c1.5-2.24,2-4,.33-6.26s-3.72-1-5.36-.27c-7.39,3.36-15.68,3.73-23.19,4a54.86,54.86,0,0,1-23.16-4.14c-1.87-.81-3.51-1.18-4.88.62a4.39,4.39,0,0,0,0,5.92,20,20,0,0,0,7.35,5.8c1.34.58,3.56.38,3.58,2.79-6.12,2-12.49,2.92-18.78,4.12-2.91-4.27-7.65-6.87-10.34-11.33.17-2-.09-4.08.58-5.85,5-13.43-3.29-26.73-12.76-34.68-3,7.13-6.57,13.78-13.48,17.88C385.31,360.25,380.34,357.22,375,355.53Zm96,19c10.34,0,17.92-2.77,21.48-7,1.59-1.9,1.73-3.37-.9-3.92-2.06-.42-4-1.18-6.32-.86-13,1.83-26,2.66-39.09.91a28.18,28.18,0,0,0-10.9.22c-2.44.65-4.38,1.38-1.06,3.91,4.84,3.69,9.94,6.46,16.2,6.72C457.69,374.86,465.06,372.77,470.92,374.57Z" fill="#c69777"/><path d="M561.91,355.64l-4.6,4-7.57-.18c-.07-2.39-2.3-2.15-3.63-2.72-8.35-3.54-15.46-8.18-17.69-17.79a4.49,4.49,0,0,0-2.68-3.39c-5.53-2.09-9.81-5.91-13.92-10-5.43-7.64-8.86-15.76-5.91-25.33a11.78,11.78,0,0,1,1.93-4c1.12-1.38,2.7-2.92,4.63-2s.79,2.76.55,4.36c-1.08,7,2.09,12.83,6,18.14,6.91,9.49,16.11,14.67,28.17,12.43,3.43-.63,3.86.59,3.59,3.16-.32,2.89.75,4.79,2.91,6.81C558.35,343.54,559.79,349.81,561.91,355.64Z" fill="#dbb79c"/><path d="M463,305.7l.54,6.81C446.27,304.92,428,299.46,411.8,289a61.66,61.66,0,0,1,14-7.49c1.94-.74,2.79-.68,3.24,1.83.88,4.9,6.29,9.63,11.06,10.09,4.22.41,2.32-3,2.88-4.87,2.63,3.76,5.55,7.33,8.13,11.09C454.13,304.13,457.61,306.4,463,305.7Z" fill="#d6ad8e"/><path d="M511.82,325.57c4.11,4.07,8.39,7.89,13.92,10a4.49,4.49,0,0,1,2.68,3.39c2.23,9.61,9.34,14.25,17.69,17.79,1.33.57,3.56.33,3.63,2.72-5.09-.84-9.77,1.37-14.66,2-6.41-5.12-10.37-12.08-14.3-19.07.06-2.29-.84-4.3-1.65-6.83-2.6,1.92-2.73,5.91-6.32,6-.47-4,1.08-8.12-1-12C511.83,328.23,511.82,326.9,511.82,325.57Z" fill="#d6ad8e"/><path d="M511.84,329.56c2.05,3.85.5,8,1,12-6.42,11.94-17.59,15-29.88,16-3,.22-5.95.08-8.93.11-.77-1.21-1.95-1.13-3.15-1h-.08c-.48-2.46-5-3.67-3.36-5.91,1.39-1.9,4,1.41,6.35,1.72,5.67.74,11.16-.61,16.66-1.36,3.84-.52,7.61-2.1,11.22-3.64,5.71-2.44,8-7.49,9.17-13.21C511.12,332.64,510.27,330.84,511.84,329.56Z" fill="#dbb79c"/><path d="M463,305.7c-5.34.7-8.82-1.57-11.87-6-2.58-3.76-5.5-7.33-8.13-11.09-.12-1.65-.23-3.3-.35-5,2.48,1.68,2.93,4.62,4.3,7,3.78,6.52,8.92,10.38,16.87,9.05,7.28,1.6,11.43-.9,16.43-9.74,1.2-2.11,1.71-4.62,3.67-6.29l0,0c-1,9.09-7,15.11-13.13,20.93C468.63,306.51,465.55,305.34,463,305.7Z" fill="#c69777"/><path d="M483.87,283.65l.27-1.27c.93.67,0,.87-.31,1.24Z" fill="#c69777"/><path d="M769.05,191.91c-2.7-.35-4.15-2-4-4.66a4.33,4.33,0,1,1,8.65.53C773.53,190.57,771.77,191.78,769.05,191.91Z" fill="silver"/><path d="M769.5,164c-3-.18-4.52-1.84-4.49-4.44a4.34,4.34,0,1,1,8.67.13A4,4,0,0,1,769.5,164Z" fill="silver"/><path d="M773.28,173.37c2.92-.93,4.79-2.53,7.13-4.29v8.7Z" fill="#f2f3ee"/><path d="M795.57,162.06a2.29,2.29,0,0,1-2.51,2.39,2.11,2.11,0,0,1-2.1-2.27,2.19,2.19,0,0,1,2.52-2.33C794.84,159.9,795.44,160.81,795.57,162.06Z" fill="silver"/><path d="M793.37,182.91a2.23,2.23,0,0,1,2.15,2.2,2.15,2.15,0,0,1-2.29,2.54,2.2,2.2,0,0,1-2.25-2.17C790.87,183.94,791.82,183.11,793.37,182.91Z" fill="silver"/><path d="M158.32,155.15c2.67.54,4.52,1.84,4.4,4.63a4,4,0,0,1-4.49,4.2c-2.77-.07-4.23-1.69-4.18-4.46S155.89,155.5,158.32,155.15Z" fill="silver"/><path d="M162.74,187.59c-.39,2.57-1.71,4.34-4.52,4.22s-4.22-1.76-4.11-4.56a3.88,3.88,0,0,1,4.13-4.05C161,183.16,162.45,184.82,162.74,187.59Z" fill="#cecece"/><path d="M136.87,162.12c-.35,1.41-1.06,2.48-2.64,2.31a2.16,2.16,0,0,1-2.06-2.3,2.08,2.08,0,0,1,2.05-2.28C135.77,159.76,136.56,160.7,136.87,162.12Z" fill="silver"/><path d="M136.82,185c-.14,1.58-.9,2.62-2.42,2.62a2.11,2.11,0,0,1-2.22-2.15,2.22,2.22,0,0,1,2.32-2.56C135.81,182.87,136.47,183.89,136.82,185Z" fill="silver"/><path d="M149.22,147.75c.25-.42.08-1.39,1.08-.81C150.64,148.13,149.82,147.79,149.22,147.75Z" fill="#fefefe"/><path d="M480.88,390.58a137.09,137.09,0,0,0,17.83,4c3.92,1.73,8.51,1.42,12.15,4-.54,3,.78,5.22,3.09,7l-1.47,6.74a17.44,17.44,0,0,0-4.94,7.26c-4,1.62-5.1,5.76-7.48,8.75-4,5-7.41,10.53-11.28,15.67-2.71,3.6-6.21,6-11.08,4.83s-8.34-3.87-9-9.22l5.44-.61c2.28,5.38,7,6.32,10.49,1.81,3.62-4.68,6.84-9.66,10.22-14.52.47-.67.94-1.42-.14-2l2.75-2.79c2.46-3.28,5-6.5,7.36-9.87,4.72-6.76,4.12-8.19-4-10l-7.77-1.51c-6.73-1.19-13.18-4-20.2-3.59a9.49,9.49,0,0,0-7.16-1.92h.12c-.54-1.06-1.18-1.12-1.92-.2-3.79,1-6.08,2.77-4,7.05l.36,3.15-1.58,1.57c-3,2.07-4.28.42-5.22-2.36-.89-2.61-.18-5.27-.61-7.86,2.27-4,5.82-6.32,10-7.93C469.05,387.46,474.76,390.46,480.88,390.58Z" fill="#676666"/><path d="M431.47,425.12l-2.37-3.45c4.49-.58,1.65-4.48,2.79-6.67,1-1.92,4.14-4.57.9-7.15-2.27-1.82-4.56-3.82-7.59-4.35-1.11-.2-2.34.17-3.22-.86l10.89-2.4c3.53,2.62,6.56,6,11.84,2.51,2-1.36,6.32-1.51,6.07,3.63a3.34,3.34,0,0,0,2.05,3.13c-1.3,5.73,2.5,10.48,3,15.85-2.26,4-3.59,8.56-7,11.92-2.64-.35-4.08-2.59-6.13-3.88C438.8,430.91,436.22,426.54,431.47,425.12Z" fill="#dfc3af"/><path d="M480.88,390.58c-6.12-.12-11.83-3.12-18-2.59-5.82-.24-11.22,2.23-16.95,2.56,0-2.41-2.24-2.21-3.58-2.79A20,20,0,0,1,435,382a4.39,4.39,0,0,1,0-5.92c1.37-1.8,3-1.43,4.88-.62A54.86,54.86,0,0,0,463,379.56c7.51-.23,15.8-.6,23.19-4,1.64-.75,3.64-2,5.36.27s1.17,4-.33,6.26a15.63,15.63,0,0,1-6.91,5.36C482.78,388.18,481,388.41,480.88,390.58Z" fill="#dbb79c"/><path d="M399.8,391.51c-8-2.82-15.71-6-22.64-11.15C370,375,364.58,369,365,359.42,377,369.72,388.45,380.54,399.8,391.51Z" fill="#dfc3af"/><path d="M422,402.64c.88,1,2.11.66,3.22.86,3,.53,5.32,2.53,7.59,4.35,3.24,2.58.11,5.23-.9,7.15-1.14,2.19,1.7,6.09-2.79,6.67-3.11-4.19-6.34-8.31-9.27-12.62C417.91,406.24,418.31,403.79,422,402.64Z" fill="#dbb79c"/><path d="M452.82,409.51a3.35,3.35,0,0,1-2-3.13c.25-5.14-4-5-6.07-3.63-5.28,3.52-8.31.11-11.84-2.51l20-4.32c.43,2.59-.28,5.25.61,7.86.94,2.78,2.17,4.43,5.22,2.36C459.29,411.71,454.13,407.25,452.82,409.51Z" fill="#d6ad8e"/><path d="M431.47,425.12c4.75,1.42,7.33,5.79,11.3,8.28,2.05,1.29,3.49,3.53,6.13,3.88l3.34,1.83c-2.58,5-6.48,6.2-9.61,2.35C438.47,436.36,434,431.39,431.47,425.12Z" fill="#060705"/><path d="M452.24,439.11l-3.34-1.83c3.37-3.36,4.7-7.91,7-11.92,3,3.7,4.63,8.07,6.11,12.52-1.07,1.31-2.79.87-4.1,1.51Z" fill="#c69777"/><path d="M420.72,422.13c-1.44.11-2.88.3-4.2-.52l.42-4.31A6.27,6.27,0,0,1,420.72,422.13Z" fill="#5196b5"/><path d="M444.92,497.3a2.06,2.06,0,0,1-2-1A2.13,2.13,0,0,1,444.92,497.3Z" fill="#dbb79c"/><path d="M510.86,398.57c-3.64-2.59-8.23-2.28-12.15-4,3.55-3.72,8.19-6.44,10.45-11.35,9.35-6.41,16.72-15.17,25.92-21.77,4.89-.62,9.57-2.83,14.66-2l7.57.18c-11.33,11.64-23.79,22.08-35.58,33.23a3.47,3.47,0,0,1-3.18.88C514.64,393.13,512.3,395.17,510.86,398.57Z" fill="#dfc3af"/><path d="M557.69,363.22c1.2,9.08-4.23,14.36-10.91,18.85a77.07,77.07,0,0,1-21,10.4Q541.23,377.29,557.69,363.22Z" fill="#dfc3af"/><path d="M69.69,333.25c2.55-.43,2.61,1.41,2.43,3a3.35,3.35,0,0,1-6.43.42c-.51-1.9-.32-3.63,2.33-3.64C68.47,333.88,69,333.88,69.69,333.25Z" fill="#f2f3ee"/><path d="M462,437.88c-1.48-4.45-3.09-8.82-6.11-12.52-.53-5.37-4.33-10.12-3-15.85,1.3-2.26,6.46,2.2,5.88-3.37l1.58-1.57,3.53-1.17c-.24,3.56.86,6.78,2,10.12a134.81,134.81,0,0,0,11.08,24L474.13,439l-5.44.61Z" fill="#dbb79c"/><path d="M859.45,333.53c2.56-.86,2.89.92,2.71,2.61a3,3,0,0,1-3,2.74c-1.64.08-3-.61-3.42-2.22-.44-1.86-.29-3.69,2.43-3.55C858.44,333.71,858.75,334.25,859.45,333.53Z" fill="#f2f3ee"/><path d="M470.92,374.57c-5.86-1.8-13.23.29-20.59,0-6.26-.26-11.36-3-16.2-6.72-3.32-2.53-1.38-3.26,1.06-3.91a28.18,28.18,0,0,1,10.9-.22c13.1,1.75,26.11.92,39.09-.91,2.31-.32,4.26.44,6.32.86,2.63.55,2.49,2,.9,3.92C488.84,371.8,481.26,374.55,470.92,374.57Z" fill="#dbb79c"/><path d="M470.85,356.58c1.2-.09,2.38-.17,3.15,1C472.85,357.59,471.55,358,470.85,356.58Z" fill="#dfc3af"/><path d="M476.89,437.55a134.81,134.81,0,0,1-11.08-24c-1.13-3.34-2.23-6.56-2-10.12,1.72-1.6,4.2-1.28,6.11-2.4l1.94.31.94.4c6.8,0,14,4.71,20.26-1.62l7.77,1.51c0,1.39-1.18,1.85-2.09,2.52-6.73,5-6.73,5-3.8,12.6a13.44,13.44,0,0,0,.63,1.33c.61,1.15-1.28,3.65,1.86,3.41l-2.75,2.79C488.76,428.68,484,434.7,476.89,437.55Z" fill="#dfc3af"/><path d="M497.45,421.46c-3.14.24-1.25-2.26-1.86-3.41a13.44,13.44,0,0,1-.63-1.33c-2.93-7.57-2.93-7.57,3.8-12.6.91-.67,2.05-1.13,2.09-2.52,8.08,1.8,8.68,3.23,4,10C502.47,415,499.91,418.18,497.45,421.46Z" fill="#d6ad8e"/><path d="M476.89,437.55c7.12-2.85,11.87-8.87,17.81-13.3,1.08.59.61,1.34.14,2-3.38,4.86-6.6,9.84-10.22,14.52-3.48,4.51-8.21,3.57-10.49-1.81Z" fill="#060705"/><path d="M493.08,400.09c-6.29,6.33-13.46,1.63-20.26,1.62l.06-1.18v-4C479.9,396.09,486.35,398.9,493.08,400.09Z" fill="#d6ad8e"/><path d="M459.93,401.42c-2.09-4.28.2-6.09,4-7.05.61.34,1.23.67,1.92.2h-.11c0,2.05,1.85,3.64,1.46,5.79Z" fill="#d6ad8e"/><path d="M467.19,400.37c.39-2.15-1.45-3.74-1.46-5.79a9.47,9.47,0,0,1,7.15,1.92v4l-1,.78-1.94-.32Z" fill="#4e4e50"/><path d="M467.19,400.37l2.75.62c-1.91,1.13-4.39.81-6.11,2.41l-3.54,1.17-.36-3.15Z" fill="#c69777"/><path d="M465.84,394.57c-.69.47-1.31.14-1.92-.2C464.66,393.45,465.3,393.51,465.84,394.57Z" fill="#4e4e50"/><path d="M471.88,401.31l1-.78-.06,1.18Z" fill="#c69777"/></g></g></svg>