<svg xmlns="http://www.w3.org/2000/svg" viewBox="0 0 531.34 407.27"><title>ex_3_2</title><g id="Layer_2" data-name="Layer 2"><g id="Layer_1-2" data-name="Layer 1"><path d="M490.37,271.46a27.17,27.17,0,0,0-1,7.84q0,50.61-.13,101.22l-20.52.24c-.11-2.32-.3-4.64-.3-7,0-27.27-.1-54.54.09-81.81,0-4.3-1-5.68-5.51-5.63-23.45.23-46.91.11-70.36.11q-126,0-252-.11c-4.89,0-6,1.42-6,6.14.22,27.1.12,54.2.1,81.3,0,2.32-.19,4.64-.29,7l-20.52-.23q-.09-54.48-.17-109c2-.11,4-.3,6-.3q181.12,0,362.25,0C484.73,271.28,487.55,271.4,490.37,271.46Z" fill="#dadada"/><path d="M490.37,271.46c-2.82-.06-5.64-.18-8.46-.18q-181.12,0-362.25,0c-2,0-4,.19-6,.3l-2.16-.2q-1.62-9.72-3.23-19.45c2.15-.13,4.3-.37,6.45-.38q45.93,0,91.84,0l173.18-.09a16.21,16.21,0,0,0,9.36,8.86c6.33,2.29,11.92.58,17.31-2.7,5.73-.74,10.4-3.78,15-7,1.54,1.53,3.48.84,5.22.85q33.45.06,66.89,0c13.67,0,13-1.08,12.6,12.57-.16,5,1.19,7.11,6.21,6.38-4.78,2-9.74.12-14.6.65C495.33,271.41,492.84,271.36,490.37,271.46Z" fill="#504f51"/><path d="M397.23,152.31c-11.4-6.27-21.39-14.15-27.7-25.78-12.55-23.1-12.19-46.13,2.81-67.8,14.77-21.35,36.07-30.3,61.59-26.28,26.63,4.21,44.19,20.25,51.28,46.26,10.19,37.39-15.47,74.18-54.23,78.86-1.15.14-2.3.34-3.44.51a93.54,93.54,0,0,1-21.92-2.55Zm26.28-97.57c-22,.15-39.35,18.07-39.23,40.5a39.65,39.65,0,0,0,40.28,39.49c21.52-.18,39.82-18.49,39.77-39.8A40.26,40.26,0,0,0,423.51,54.74Z" fill="#333"/><path d="M489.67,389.65c7.15-.11,14.3-.43,21.43-.26,5,.12,8.88,3.64,9.22,7.46.43,4.74-2,7.54-8,8.86a25.22,25.22,0,0,1-5.42.52q-201.33,0-402.68,0c-2,0-5,1.37-5.57-2.33,7.15-3.32,7.25-3.54,6-12.42l0-2.12,8.82-.06c-.94,5.24,1.57,6.55,6.34,6a32.32,32.32,0,0,1,9,0c5,.78,6.45-1.48,5.85-6H468.35c-.68,5,1.53,6.61,6.37,6a37.11,37.11,0,0,1,9.36,0C488.64,395.81,490.41,394.12,489.67,389.65Z" fill="#ecece7"/><path d="M329.61,159.25l1.92-.41c.43.49.75.35,1-.17l2-.39a47.12,47.12,0,0,1-7.48,16.1c-1.61,2.27-1.69,4.53,1,5,3.59.57,7.32,1.11,10.64-2.21a42.56,42.56,0,0,0,10-15.69c.43-1.14.8-3,2.51-2.51,2.16.65.46,2.27.2,3.28-2,7.8-6.61,14-12.38,19.34-2.9,2.7-3.19,5-.74,8.56,5,7.26,11.58,13,17.67,19.24,3.4,3.46,7.75,6,11.67,8.93,2.65,2,4.5,2,5.06-1.89.6-4.07,1-8.25,2.18-12.13,3-9.36,3-11.23-4.93-15.23-10.54-5.33-15-20.53-11.39-30.93,2.84-1,5.51-2.61,8.65-2.67l1.29-.66,2-.13c2.21,1.13,3.48,2.68,3,5.4-.81,4.55,1,8.38,3.78,11.79,3,3.66,6,7.37,10.21,9.8-1.18,4.63-2.25,9.29-3.56,13.89-4,14.15-10.09,27.93-7.46,43.24.51,2.91-.58,3.62-3.61,2.89a150.65,150.65,0,0,1-23.4-8.13c-14.86-6.25-30.2-10.29-46.45-11.12-8.51-.44-15.69,3.53-23.54,5.17a127.44,127.44,0,0,0-2.22-31.79c1.25-.64,1.77-1.83,4.07-.91,3.65,1.46,5.87,4.13,8.56,6.48,1.07.94,2,2.73,3.69,1.84s1.17-3.05.79-4.5a15,15,0,0,0-3.26-6.09c-2.56-2.94-5-6-7.52-9-4.3-7-7.63-14.33-7-22.86,4.32-1.35,8.75-1.94,12.89.18,2.05,1.06,3.42-.8,5.14-.31-4.24,4.11-4.53,8.9-3.22,14.44.88,3.75,3.28,5.17,6.24,5.08,3.12-.1,6.4-.63,7.19-5.2a35.4,35.4,0,0,1,4.76-13.34,1.58,1.58,0,0,1,.8-.16c1.64,1.31,1.16,2.72.48,4.4a60.77,60.77,0,0,0-3.13,9.29c-.88,3.94,1.95,7.82,5.41,7,2.67-.67,5.62-1.84,7.59-4.45A49.12,49.12,0,0,0,329.61,159.25Z" fill="#d6ad8e"/><path d="M325.59,56.12c0,8.82.13,17.64-.06,26.45-.07,3.53,1.16,4.81,4.64,4.46,2.48-.24,5,0,7.49-.07,3.34-.09,3.38,1.46,1.75,3.61-11,14.4-22,28.74-32.93,43.16-1.65,2.18-2.85,1.77-4.25,0q-16.68-21.75-33.37-43.49c-1.76-2.29-1.16-3.26,1.62-3.22a56,56,0,0,1,7,.07c4.61.63,5.55-1.45,5.5-5.66-.2-17.31,0-34.61-.16-51.92,0-3.76,1-4.83,4.78-4.74,11,.25,22,.22,33,0,3.77-.07,5.31.76,5.15,4.93C325.36,38.47,325.59,47.3,325.59,56.12Z" fill="#f9be79"/><path d="M125.81,179.63l.69-1.37c3,.86,5.91.06,8.85-.17,44.06-3.48,87.72-2.72,130.09,12q1.55,5.63,3.08,11.25l-3,.82-1.3.19c-16.32-.15-32.58,1.11-48.84,2.09-29.39,1.77-58.79,3.54-88,7-.31-2-.61-3.94-.92-5.91Q126.11,192.59,125.81,179.63Z" fill="#2eafb7"/><path d="M126.39,205.55c.31,2,.61,3.94.92,5.91.41,8.42,2.84,16.43,5,24.5-7.75-.42-15.49-.93-23.24-1.2-2.19-.07-5.25-1.35-6.44.77-1.11,2,1.28,4.18,2.15,6.28,1,3.43,1.76,7,3.54,10.13l3.24,19.45c-1.84,23-9.45,45.06-11.7,68-1.42.89-1.35,1.88-.2,3-.27,3-.55,6-.82,9-2.46-.32-2.07-2.22-2-3.82.18-16.26-1.84-32.47-1-48.73.74-14.16-2.3-27.63-7-40.8a45.62,45.62,0,0,0-11.1-17.86c-3.54-3.38-5.15-2.75-6.85,2-1.23,3.44-2.1,7-3.25,10.88-1.25-1.7-.15-3.6-1.79-4.52-1.5-8.49-3.23-17-4.44-25.49s.26-16.46,5.28-23.6c2.24,2,1.08,5,2,7.46,2.5,6.65,5,8,11.62,5.41,2.3-.89,4.37-2.22,6.86-2.81C100,206.41,113.29,206.74,126.39,205.55Z" fill="#d6ad8e"/><path d="M65.76,248.5c1.64.92.54,2.82,1.79,4.52,1.15-3.88,2-7.44,3.25-10.88,1.7-4.73,3.31-5.36,6.85-2A45.62,45.62,0,0,1,88.75,258c4.74,13.17,7.78,26.64,7,40.8-.85,16.26,1.17,32.47,1,48.73,0,1.6-.41,3.5,2,3.82-.15,6,.32,12-.93,17.91-1.79,1.78-.38,4.77-2.81,6.54-4.3,3.14-16.65,2-20.09-2.17-1.76-2.13-3.53-4.25-5.29-6.37,1.78-25.4-.34-50.71-1.74-76C67.18,277,66.49,262.75,65.76,248.5Z" fill="#ddbba2"/><path d="M427.24,160.6c.94,8.25-2,16.41-.6,24.67-1.49,1.13-1.18,2.74-1.15,4.27,0,2,0,4,0,6-2,7.71-1.41,15.63-2.05,23.45a2.73,2.73,0,0,0,.06.49c-2.37,3.46-1.56,7.56-2.32,11.35-1.83,9.12-7.32,16.35-12.68,23.61-10-.06-16.48-4.23-19-11.23-6.46-18.2-1.61-35.38,4.17-52.54,2.43-.47,4-2.37,5.55-3.93,7.78-7.71,15.38-15.6,23.05-23.43C423.65,161.92,424.94,160.34,427.24,160.6Z" fill="#ddbba2"/><path d="M512,175.53c7.34-4.08,12.69-3.34,17.85,2.3,1.42,1.56,2.41,2.8,0,4.19-1.82,1-1.43,2.82-1.43,4.44,0,7.8.13,15.6,0,23.39-.27,12.6-4,23.57-15.75,30.15-2.39,1.34-.66,1.79.16,2.6-2.28-.27-4.9-1.41-6.77-.66-7,2.8-13.75-.66-20.6-.24-.84-1.72-2.68-1.68-4.14-2.31-6-2.61-11.89-5.44-16.66-10.09-.18-4.77,2.07-6.66,6.73-5.71,4,1.61,8.16.33,12.19.36,4.68,0,7.26-5.09,5.12-9.5-1.21-2.51-1.61-4.55,0-6.84,1.86-2.64-.08-2.76-2-3.31-2.53-.73-5.78.33-7.44-2.76.09-4.74,2.47-5.46,6.8-4.66,4.66.85,9.75,3.05,14-1.53.95-1,2.58-.4,3.87-.24,2.8.35,5.61.7,8.36,1.32,2.91.67,3.73-.42,4-3.22C516.8,186.8,514.34,181.21,512,175.53Z" fill="#2a2523"/><path d="M265.44,190.11c-42.37-14.74-86-15.5-130.09-12-2.94.23-5.89,1-8.85.17-.86-4.82,1.14-6.33,6-7,30.49-4.23,60.81-9.69,91.66-10.85,12.14-.46,24.27-.69,36.38.49.13,2.8.28,5.58.59,8.39C261.92,176.39,265.62,182.85,265.44,190.11Z" fill="#1b1b1c"/><path d="M393.66,190.69c-5.78,17.16-10.63,34.34-4.17,52.54,2.49,7,8.95,11.17,19,11.23l-2,3.16c-5.39,3.28-11,5-17.31,2.7a16.21,16.21,0,0,1-9.36-8.86c-.47-2.27-.66-4.54-3.9-4.86a127.34,127.34,0,0,1-24.33-5.19c-5.09-3.42-11-4.44-16.8-5.92-18.42-4.72-37.21-4.38-56-4l.7-3.93c7.85-1.64,15-5.61,23.54-5.17,16.25.83,31.59,4.87,46.45,11.12a150.65,150.65,0,0,0,23.4,8.13c3,.73,4.12,0,3.61-2.89-2.63-15.31,3.44-29.09,7.46-43.24,1.31-4.6,2.38-9.26,3.56-13.89q3.06-9.4,6.11-18.79,1.83-5.26,3.64-10.54l8.39,3.23c-2.22.38-2.65,2.14-3.12,3.95-.65,2.53-1.49,5-2.17,7.56C398.21,175,395,182.55,393.66,190.69Z" fill="#c69677"/><path d="M69.71,367.28c1.76,2.12,3.53,4.24,5.29,6.37,3.44,4.17,15.79,5.31,20.09,2.17,2.43-1.77,1-4.76,2.81-6.54,3.74.61,4.68,2.87,5,6.54.44,4.49.1,9.16,1.79,13.51,0,.71,0,1.41,0,2.12-6.41,4.36-13.59,4.79-21,4a22.28,22.28,0,0,0-11.22,1.71c-11.83,5-24,4.65-36.3,2.41-7.14-1.3-12.68-4.66-16.5-10.83,1.15-4.21,4.93-3.89,8-4.32A78.52,78.52,0,0,0,59.39,373C62.72,370.83,64.61,366.16,69.71,367.28Z" fill="#d9d6e9"/><path d="M512,175.53c2.3,5.68,4.76,11.27,4.21,17.68-.25,2.8-1.07,3.89-4,3.22-2.75-.62-5.56-1-8.36-1.32-1.29-.16-2.92-.77-3.87.24-4.27,4.58-9.36,2.38-14,1.53-4.33-.8-6.71-.08-6.8,4.66-4.07-2.37-8-5-12.3-7-7-3.18-11-8.15-10.82-16.55.09-3.7,0-7.91-1.76-11.57,7.28-2,14.5.11,21.7.55A105,105,0,0,1,512,175.53Z" fill="#e1c4b0"/><path d="M358.57,158.1c-3.64,10.4.85,25.6,11.39,30.93,7.89,4,7.89,5.87,4.93,15.23-1.23,3.88-1.58,8.06-2.18,12.13-.56,3.87-2.41,3.87-5.06,1.89-3.92-2.94-8.27-5.47-11.67-8.93-6.09-6.2-12.63-12-17.67-19.24-2.45-3.53-2.16-5.86.74-8.56,5.77-5.38,10.41-11.54,12.38-19.34.26-1,2-2.63-.2-3.28-1.71-.51-2.08,1.37-2.51,2.51a42.56,42.56,0,0,1-10,15.69c-3.32,3.32-7.05,2.78-10.64,2.21-2.72-.43-2.64-2.69-1-5a47.12,47.12,0,0,0,7.48-16.1C342.51,155.29,350.54,156.78,358.57,158.1Z" fill="#ddbba2"/><path d="M454.34,166.42c1.8,3.66,1.85,7.87,1.76,11.57-.19,8.4,3.83,13.37,10.82,16.55,4.33,2,8.23,4.63,12.3,7,1.66,3.09,4.91,2,7.44,2.76,1.92.55,3.86.67,2,3.31-1.61,2.29-1.21,4.33,0,6.84,2.14,4.41-.44,9.53-5.12,9.5-4,0-8.19,1.25-12.19-.36.95-1.78,3.17-.31,4.66-2.05-3.71-2.64-5.65-6.55-7.15-10.52-1.49.12-2,1.16-1.92,1.72.93,4.32-1.88,4-4.58,3.82-5.62-.33-11.17.42-16.74,1-3.63.38-5.92,1.69-5.27,5.91.21,1.38.46,3-1,4.1a3.14,3.14,0,0,1-.9-2.69c.14-11.75-6.62-20.44-13-29.32,0-2,0-4,0-6,11.51,4.18,22.08,10.35,33,15.73.8.39,1.43,1.58,2.67.24-.34-.48-.59-1.2-1.08-1.45-5.5-2.87-8.64-7.2-9.29-13.51-.34-3.23-1.49-6.39-2.28-9.58q1.1-4.16,2.17-8.31c.2-.37.4-.75.61-1.12h0c.76-.2.83-.5.13-.9C451.49,168.6,451.77,166.71,454.34,166.42Z" fill="#d6ad8e"/><path d="M126.39,205.55c-13.1,1.19-26.36.86-39.3,3.92-2.49.59-4.56,1.92-6.86,2.81-6.67,2.58-9.12,1.24-11.62-5.41-.93-2.47.23-5.42-2-7.46A27.08,27.08,0,0,1,84.77,186c13.51-3,27.31-4.51,41-6.32Q126.11,192.59,126.39,205.55Z" fill="#ddbba2"/><path d="M485.42,241.7c6.85-.42,13.58,3,20.6.24,1.87-.75,4.49.39,6.77.66h.35l.16.32.77.65c2.13,1.35,2.28,3.5,2.28,5.69,0,4.82,0,9.65,0,14.47,0,3.09-1,5.52-4,6.77-5,.73-6.37-1.4-6.21-6.38.44-13.65,1.07-12.57-12.6-12.57q-33.43,0-66.89,0c-1.74,0-3.68.68-5.22-.85,2.09-2.8,5.71-3.61,8-6.15l3.47-2.17a2.48,2.48,0,0,0,2.45-.48h4.09c.3.43.61.43.92,0Z" fill="#1b1b1c"/><path d="M279.46,227.57c-.23,1.31-.47,2.62-.7,3.93-1.86,3.85-5.92,4.13-9.2,5.68,2.06-12,1.22-23.94-1-35.82q-1.54-5.62-3.08-11.25c.18-7.26-3.52-13.72-4.28-20.83-.31-2.81-.46-5.59-.59-8.39,3.3-.08,6.71-1.35,9.79.93a46.1,46.1,0,0,0,2.58,14.85q2.16,9.56,4.3,19.11A127.44,127.44,0,0,1,279.46,227.57Z" fill="#333"/><path d="M19.7,388.71c3.82,6.17,9.36,9.53,16.5,10.83,12.34,2.24,24.47,2.56,36.3-2.41a22.28,22.28,0,0,1,11.22-1.71c7.37.82,14.55.39,21-4,1.25,8.88,1.15,9.1-6,12.42a52.26,52.26,0,0,1-13.4-.19,32.55,32.55,0,0,0-14.3,1c-10.25,3.41-20.55,3.17-30.95,1-1.62-.33-3.29-.38-4.94-.57-3.83-1.43-7.79-2.45-11.49-4.32-4.87-2.47-7.24-6-6-11.54A1.69,1.69,0,0,1,19.7,388.71Z" fill="#504f51"/><path d="M304.48,14.79c-6,0-11.94-.09-17.91,0-2.76.06-3.81-.86-3.74-3.72.29-13.2-1.59-10.89,10.51-11C302.79,0,312.25.17,321.7,0c3.09,0,3.92,1,4,4,.19,10.76.29,10.76-10.74,10.76Z" fill="#f9be79"/><path d="M393.66,190.69c1.32-8.14,4.55-15.74,6.67-23.65.68-2.54,1.52-5,2.17-7.56.47-1.81.9-3.57,3.12-3.95a93.54,93.54,0,0,0,21.92,2.55c-.1.84-.2,1.68-.29,2.52-2.31-.26-3.6,1.32-5,2.73-7.67,7.83-15.27,15.72-23.05,23.43C397.63,188.32,396.09,190.22,393.66,190.69Z" fill="#d6ad8e"/><path d="M329.61,159.25a49.12,49.12,0,0,1-8.91,18.38c-2,2.61-4.92,3.78-7.59,4.45-3.46.87-6.29-3-5.41-7a60.77,60.77,0,0,1,3.13-9.29c.68-1.68,1.16-3.09-.48-4.4C316.47,158.13,323,158,329.61,159.25Z" fill="#ddbba2"/><path d="M17.65,389.27c-1.29,5.53,1.08,9.07,6,11.54,3.7,1.87,7.66,2.89,11.49,4.32-9.18,2.3-18.52.95-27.78.91-4.21,0-7.5-5-7.3-9.32.15-3.41,4.7-7.33,8.66-7.41C11.67,389.25,14.66,389.28,17.65,389.27Z" fill="#ecece7"/><path d="M393.59,162.84q-3,9.39-6.11,18.79c-4.2-2.43-7.19-6.14-10.21-9.8-2.8-3.41-4.59-7.24-3.78-11.79.48-2.72-.79-4.27-3-5.4,6.75-.62,12.29,2.62,17.87,5.65C390.07,161.22,391.61,162.46,393.59,162.84Z" fill="#e1c4b0"/><path d="M448.53,181c.79,3.19,1.94,6.35,2.28,9.58.65,6.31,3.79,10.64,9.29,13.51.49.25.74,1,1.08,1.45-1.24,1.34-1.87.15-2.67-.24-10.94-5.38-21.51-11.55-33-15.73,0-1.53-.34-3.14,1.15-4.27l1.63.15,1.3.05c3.53.6,6.62.13,9.53-2.43C441.68,180.78,445.39,181.73,448.53,181Z" fill="#c69677"/><path d="M489.67,389.65c.74,4.47-1,6.16-5.59,5.59a37.11,37.11,0,0,0-9.36,0c-4.84.65-7.05-1-6.37-6q.18-4.28.37-8.53l20.52-.24Z" fill="#504f51"/><path d="M309.55,161.6a35.4,35.4,0,0,0-4.76,13.34c-.79,4.57-4.07,5.1-7.19,5.2-3,.09-5.36-1.33-6.24-5.08-1.31-5.54-1-10.33,3.22-14.44C299.73,158.45,304.61,160.4,309.55,161.6Z" fill="#ddbba2"/><path d="M272.94,176.67a46.1,46.1,0,0,1-2.58-14.85l2-.29,1.15-.33,3-.45c-.61,8.53,2.72,15.84,7,22.86C279.1,182.73,277.2,177.89,272.94,176.67Z" fill="#c69677"/><path d="M451.31,171.54c-.21.37-.41.75-.61,1.12C450.9,172.29,451.1,171.91,451.31,171.54Z" fill="#e1c4b0"/><path d="M451.41,170.63c.7.4.63.7-.13.9A1.64,1.64,0,0,1,451.41,170.63Z" fill="#e1c4b0"/><path d="M514.07,243.56l-.77-.65Z" fill="#2a2523"/><path d="M273.54,161.2l-1.15.33Z" fill="#d6ad8e"/><path d="M429.57,185.47l-1.3-.05C428.72,184.91,429.15,184.94,429.57,185.47Z" fill="#ddbba2"/><path d="M332.53,158.67c-.25.52-.57.66-1,.17Z" fill="#ddbba2"/><path d="M368.51,154.77l-1.29.66Z" fill="#e1c4b0"/><path d="M113.43,386.32l.45-5.78,20.52.23q.15,4.26.29,8.53c.6,4.48-.8,6.74-5.85,6a32.32,32.32,0,0,0-9,0c-4.77.59-7.28-.72-6.34-6,0-.33,0-.65,0-1C113.52,387.63,113.48,387,113.43,386.32Z" fill="#504f51"/><path d="M268.52,201.36c2.26,11.88,3.1,23.81,1,35.82L261.45,241a48.85,48.85,0,0,0,9.73.66l80.38-.21a127.34,127.34,0,0,0,24.33,5.19c3.24.32,3.43,2.59,3.9,4.86l-173.18.09q-45.92,0-91.84,0c-2.15,0-4.3.25-6.45.38-1.79-3.17-2.51-6.7-3.55-10.13h30.85c-.88-1.92-1.29-3-1.83-3.92A17.13,17.13,0,0,0,132.3,236c-2.15-8.07-4.58-16.08-5-24.5,29.25-3.46,58.65-5.23,88-7,16.26-1,32.52-2.24,48.84-2.09l1.3-.19Z" fill="#1b1b1c"/><path d="M429.45,244.52c-2.28,2.54-5.9,3.35-8,6.15-4.6,3.17-9.27,6.21-15,7l2-3.16c5.36-7.26,10.85-14.49,12.68-23.61.76-3.79-.05-7.89,2.32-11.35A18.43,18.43,0,0,1,429.53,232C429.9,236.2,428.09,240.35,429.45,244.52Z" fill="#d6ad8e"/><path d="M423.51,54.74a40.26,40.26,0,0,1,40.82,40.19c.05,21.31-18.25,39.62-39.77,39.8a39.65,39.65,0,0,1-40.28-39.49C384.16,72.81,401.51,54.89,423.51,54.74Zm.64,29.95a10.23,10.23,0,0,0-10.31,9.88c-.07,5.56,4.81,10.25,10.61,10.19a10,10,0,0,0,9.88-10.22A9.74,9.74,0,0,0,424.15,84.69Z" fill="#777778"/><path d="M272.94,176.67c4.26,1.22,6.16,6.06,10.63,6.94,2.5,3,5,6,7.52,9a15,15,0,0,1,3.26,6.09c.38,1.45,1,3.53-.79,4.5s-2.62-.9-3.69-1.84c-2.69-2.35-4.91-5-8.56-6.48-2.3-.92-2.82.27-4.07.91Q275.1,186.23,272.94,176.67Z" fill="#ddbba2"/><path d="M265.49,202.18l-1.3.19Z" fill="#333"/><path d="M99.85,339.4c-.06,1-.13,2-.2,3C98.5,341.28,98.43,340.29,99.85,339.4Z" fill="#ddbba2"/><path d="M429.45,244.52c-1.36-4.17.45-8.32.08-12.53a18.43,18.43,0,0,0-6.07-12.49,2.73,2.73,0,0,1-.06-.49c.64-7.82.09-15.74,2.05-23.45,6.35,8.88,13.11,17.57,13,29.32a3.14,3.14,0,0,0,.9,2.69c-.27,1.72-.55,3.44-.82,5.17l0-.13c-3.23.73-3.32,3.54-4,6l0,0-1,1.46c.3.47.61.93.91,1.39l-1.48.93Z" fill="#e1c4b0"/><path d="M438.5,232.74c.27-1.73.55-3.45.82-5.17,1.49-1.07,1.24-2.72,1-4.1-.65-4.22,1.64-5.53,5.27-5.91,5.57-.58,11.12-1.33,16.74-1,2.7.17,5.51.5,4.58-3.82-.12-.56.43-1.6,1.92-1.72,1.5,4,3.44,7.88,7.15,10.52-1.49,1.74-3.71.27-4.66,2.05-4.66-1-6.91.94-6.73,5.71l-23.07,3.4-1.37.19Z" fill="#c69677"/><path d="M434.4,241.42l1,.45a2.48,2.48,0,0,1-2.45.48Z" fill="#2a2523"/><path d="M439.46,241.87a.66.66,0,0,1,.92,0C440.07,242.3,439.76,242.3,439.46,241.87Z" fill="#2a2523"/><path d="M113.43,386.32c0,.65.09,1.31.13,2C112.75,387.68,112.53,387,113.43,386.32Z" fill="#ecece7"/><path d="M424.15,84.69a9.74,9.74,0,0,1,10.18,9.85,10,10,0,0,1-9.88,10.22c-5.8.06-10.68-4.63-10.61-10.19A10.23,10.23,0,0,1,424.15,84.69Z" fill="#333"/><path d="M438.47,232.61c-.17,2.76-1.16,5-4,6C435.15,236.15,435.24,233.34,438.47,232.61Z" fill="#ddbba2"/><path d="M434.47,238.57c-.33.49-.66,1-1,1.46Z" fill="#ddbba2"/><path d="M441.55,232.7a.87.87,0,0,1-1.37.19Z" fill="#ddbba2"/></g></g></svg>