<svg xmlns="http://www.w3.org/2000/svg" viewBox="0 0 530.12 472.21"><title>ex_3_1</title><g id="Layer_2" data-name="Layer 2"><g id="Layer_1-2" data-name="Layer 1"><path d="M488.61,336.28q-.09,54.54-.16,109.06L468,445.6c-.11-2.15-.33-4.3-.33-6.45q0-40.66,0-81.32c0-6.57,0-6.57-6.35-6.57H407.39q-133.77,0-267.53-.1c-4.86,0-6.07,1.37-6,6.11.22,26.93.12,53.87.1,80.81,0,2.49-.19,5-.29,7.47l-20.44-.11c-.08-2.32-.22-4.64-.22-7q0-51.08,0-102.14c1.32-.1,2.64-.27,4-.27H484.14C485.63,336.07,487.12,336.21,488.61,336.28Z" fill="#dadada"/><path d="M488.61,336.28c-1.49-.07-3-.21-4.47-.21H116.9c-1.31,0-2.63.17-4,.27l-2-.3c-1.4-7.31-2.25-14.73-4.51-21.86,1.89,1.21,3.61,2.27,6.17,2.26,32.76-.15,65.52-.12,98.27-.14h25c2.5,0,5,.05,7.49.05H498c6.57,0,7.44.88,7.52,7.45q.06,6,.14,12Z" fill="#504f51"/><path d="M393.91,123.61c-21.51-8.27-35.88-23.1-41.31-45.75C344.43,43.8,366.16,10.2,400.08,1.58,428.49-5.63,467,12.14,475.51,48.3c8.25,34.9-12.34,68.34-47.06,76.73a33.35,33.35,0,0,0-3.26,1.16C414.61,127.18,404.12,127.07,393.91,123.61Zm59.94-60c.76-21.25-16.91-39.65-39-40.08C395,23.18,374.31,38,374,63.12c-.26,22.54,17.42,40.16,40,40.47C436,103.88,453.8,85.89,453.85,63.64Z" fill="#333"/><path d="M489,455.24c7.51-2.19,15.21-1.18,22.79-.93,3.94.12,7,2.92,7.73,7.22.77,4.71-2.16,7-6,8.44a20.39,20.39,0,0,1-7.33,1.09Q304.8,471,103.46,471c-2,0-5,1.35-5.56-2.35,7.22-3.23,7.44-3.68,6-12.44l0-2.08,8.91-.05c-.93,5.2,1.52,6.59,6.31,5.95a32.23,32.23,0,0,1,8.44,0c4.8.66,7.14-.88,6.4-6l333.62,0c-.65,5,1.62,6.56,6.43,6a42.49,42.49,0,0,1,9.89,0C487.81,460.44,489.46,459.1,489,455.24Z" fill="#ecece7"/><path d="M505.67,335.78q-.07-6-.14-12c-.08-6.57-.95-7.45-7.52-7.45H243.34c-2.5,0-5,0-7.49-.05,1.27-4,4.86-1.4,7.25-2.5,5.57-2.56,11.9-3.4,16.8-7.52l90.9-.07,4.79,1.25a204.9,204.9,0,0,0,52.24,6.27c9.86,1.72,18.31-1.35,25.84-7.58H483.8a113.39,113.39,0,0,1-20.24-11.64c.21-5.23,2.77-7.35,7.95-6,3.67,1.49,7.48.27,11.17.29,4.7,0,7.37-5,5.31-9.45-1.15-2.46-1.8-4.47-.09-6.8s.39-2.92-1.84-3.44c-2.59-.6-5.76.14-7.56-2.73-.5-4.51,1.58-5.46,5.76-4.84,5.16.77,10.66,3.39,15.4-1.56.56-.57,2.24-.2,3.38-.06a78.28,78.28,0,0,1,8.37,1.29c2.86.68,3.88-.26,4.07-3.11.43-6.37-1.51-12.1-4.32-17.64,6.95-4.07,13.78-3.4,17.43,1.75.75,1.06,2.16,2.57,1.21,3.52-4.09,4.14-1.82,9.11-2.09,13.68-.32,5.46.2,11,0,16.44-.56,12.9-5.15,23.61-17.64,30.11,4.84,2,5.86,5.59,5.54,10.13-.29,4.13-.11,8.3,0,12.46.05,3.07-.79,5.55-3.9,6.77a1.84,1.84,0,0,0-2.08.52Z" fill="#2a2523"/><path d="M351.93,113.72c-4.32,0-7.49.24-10.6-.07-4.24-.42-5.72.81-5.64,5.42.3,17.3,0,34.61.23,51.91.07,4.39-1.07,5.71-5.52,5.58-11-.32-22-.17-33-.05-3.21,0-4.08-.76-4-4.28.31-17.64.08-35.28.23-52.91,0-4.65-1.86-6.08-6.32-5.73-2.89.22-7.47,1.45-8.42-.6-1.22-2.68,2.85-5,4.66-7.4,9.28-12.34,18.84-24.46,28.08-36.82,2.43-3.24,3.59-3.27,6.05,0C328.7,83.55,340,98.1,351.93,113.72Z" fill="#f9be79"/><path d="M275.78,225.55a19,19,0,0,1,15,.86,24,24,0,0,1-.71,4.84c-.62,3.91-.71,7.72,2.05,11.25,2.42,3.09,5.41,1.84,8.15,1.71,2.44-.12,3.15-2.21,3.59-4.57a44.56,44.56,0,0,1,4.89-13.25,1.39,1.39,0,0,1,.78-.1c2.31.31,2.28,1.69,1.17,3.1-1.93,2.44-2.13,5.47-3.12,8.22s-1.84,5.62.82,7.75,5.91,1.37,8.27-.52c6.61-5.31,10.81-12.1,11.17-20.84l2.9-.38c.43.49.74.35,1-.18l2-.37C332.07,229,330,234.7,326.1,239.6c-2.45,3.09-1.14,4.4,2.27,4.81,5.63.67,9.94-1.11,13-6.1,2.5-4.07,5.33-7.93,6.79-12.58.32-1,.81-2.43,2.36-2s1.47,2,.93,2.86c-3.88,6.43-5.86,14-12.22,18.93-4.49,3.46-4.5,5.32-.95,9.95a152.06,152.06,0,0,0,29.57,29.1c4.85,3.63,9.11,8.73,15.71,9.71-.11,3.65,1.71,6.74,3.15,9.85,1.7,3.7.22,4.53-3.06,4.19-8.42-.89-16.72-2.52-24.5-5.86-14-6-28.2-11.38-43.29-13.84-8.41-1.36-17-3.15-25.37,0-3.88,1.48-7.86,2.51-11.81,3.71.78-10.73-.44-21.33-2-31.92,1.11-.6,1.51-1.64,3.62-.88,4.22,1.52,6.61,4.78,9.66,7.46.88.78,1.79,1.69,3,.91,1-.61.69-1.75.77-2.72a8.06,8.06,0,0,0-1.7-5.1c-2.89-4.36-5.9-8.65-10.28-11.72.71-.36.63-.69,0-1l0,0C279.12,240.32,274.77,233.67,275.78,225.55Z" fill="#d6ad8e"/><path d="M425.52,129.53a216.56,216.56,0,0,1,.34,44.09c-.76,9,1.12,17.79,2.24,26.62,1.25,9.79,4.35,19.32,4.24,29.32-3.17,2.44-3.91,6.33-5.39,9.66a39.66,39.66,0,0,1-15.66,18,13.94,13.94,0,0,1-21-8.69c-2.6-10.36-1.65-20.78.05-31s4.46-20.65,6.86-30.94a10.63,10.63,0,0,0-.11-6.34c-1.76-4.84-2.47-9.95-3.72-14.91-1.17-4.64-.27-8,3.17-11.16,8.24-7.45,16.39-15,24.6-22.5A8,8,0,0,1,425.52,129.53Z" fill="#e1c4b0"/><path d="M106.43,314.18c2.26,7.13,3.11,14.55,4.51,21.86a281,281,0,0,1-7,39c-3.3,13.55-4.19,27.4-5.89,41.16C96,416,96,414.44,96,412.88c.22-11.44-.56-22.85-.89-34.27-.47-16.8.44-33.67-5.16-49.95-3.19-9.27-6.5-18.34-14.65-24.69-2.05-1.6-2.81-1.43-4.05.73-2,3.47-2.68,7.45-4.18,11.39-2-2.26.14-5.15-2.16-6.8-4-14.16-7.46-28.34-.77-42.69a17,17,0,0,1,1.68-2.4c1.78,2.15,1.78,4.84,2.25,7.4,1.17,6.32,5.87,8.61,11.3,5.22a20.17,20.17,0,0,1,6.32-2.52c10-2.38,20.23-2.81,30.48-3,3.27-.07,7,.33,9.47-2.89.32,2.61.65,5.23,1,7.84.25,8.23,2.84,16,4.66,23.92-7.55.82-15.06-.05-22.58-.58-2.31-.16-5.51-1.42-6.85.81-1.13,1.86,1.26,4.13,2.16,6.2C105.43,308.9,105.67,311.62,106.43,314.18Z" fill="#d6ad8e"/><path d="M64.9,309.29c2.3,1.65.13,4.54,2.16,6.8,1.5-3.94,2.18-7.92,4.18-11.39,1.24-2.16,2-2.33,4.05-.73,8.15,6.35,11.46,15.42,14.65,24.69,5.6,16.28,4.69,33.15,5.16,49.95.33,11.42,1.11,22.83.89,34.27,0,1.56,0,3.07,2.1,3.29-.09,6.32.13,12.65-1,18.91-1.28,5.42-4.55,7.94-10.21,7.13a20.85,20.85,0,0,0-4-.07c-4.13.22-7.31-1.07-9.49-4.87-1.1-1.94-2.94-3.47-4.44-5.18,1.93-30.74-.68-61.33-2.74-91.95C65.54,329.88,65.33,319.58,64.9,309.29Z" fill="#ddbba2"/><path d="M425.52,129.53a8,8,0,0,0-4.41,2.16c-8.21,7.49-16.36,15.05-24.6,22.5-3.44,3.12-4.34,6.52-3.17,11.16,1.25,5,2,10.07,3.72,14.91a10.63,10.63,0,0,1,.11,6.34c-2.4,10.29-5.15,20.53-6.86,30.94s-2.65,20.68-.05,31a13.94,13.94,0,0,0,21,8.69,39.66,39.66,0,0,0,15.66-18c1.48-3.33,2.22-7.22,5.39-9.66q0,7.41-.08,14.82l-.45,1.22c.23,1.74-.66,3.66.82,5.2-1.12,1.2.2,2.44-.05,3.66-1-.05-2.12-.24-2.71.78-6.06,10.46-16,17-24.56,25.08-2.4,2.26-3.64,1.81-5.48-.54-5-6.41-8.62-13.64-12.77-21.51-.3,1.66-.44,2.45-.59,3.24l-3.75-1.12c-5.26.37-8.75-3.59-12.84-5.71-6.59-3.42-11.68-9.28-12.78-16.7-.75-5.09-1.65-10.2-2.32-15.32,3.46.4,6.47-1.16,9.57-2.26a18.17,18.17,0,0,1,8.33-.89c-1.36,9.74,2.57,17.23,9.9,23.28.71.58,1.39,1.76,2.44.92a3.27,3.27,0,0,0,.63-2.21c.09-5.93.12-11.87.17-17.81,1.29-12.65,3.68-25.12,5.68-37.67.59-3.72-.92-7.84-1.7-11.73-3.06-15.09.66-29.64,3.35-44.29.39-2.11.51-4.26.76-6.39,10.21,3.46,20.7,3.57,31.28,2.58Z" fill="#d6ad8e"/><path d="M125.19,243.4c-1.26-6.05,2.47-6.72,7.21-7.42,36.67-5.39,73.24-11.67,110.49-11.18,5.64.07,11.27.57,16.91.88.13,2.8.28,5.58.58,8.38.76,7.11,4.47,13.56,4.28,20.82-25.14-9-51.24-12.45-77.78-13.48-20.48-.8-40.87.48-61.27,2.07Z" fill="#1b1b1c"/><path d="M354.78,222.66c.67,5.12,1.57,10.23,2.32,15.32,1.1,7.42,6.19,13.28,12.78,16.7,4.09,2.12,7.58,6.08,12.84,5.71,0,2.48,0,5-.05,7.44-.38,8.84-2.47,17.73.9,26.43-6.6-1-10.86-6.08-15.71-9.71a152.06,152.06,0,0,1-29.57-29.1c-3.55-4.63-3.54-6.49.95-9.95,6.36-4.89,8.34-12.5,12.22-18.93.54-.88.65-2.45-.93-2.86s-2,1-2.36,2c-1.46,4.65-4.29,8.51-6.79,12.58-3.07,5-7.38,6.77-13,6.1-3.41-.41-4.72-1.72-2.27-4.81,3.87-4.9,6-10.62,7.64-16.53C340.71,220.64,347.73,220.9,354.78,222.66Z" fill="#ddbba2"/><path d="M69,432.09c1.5,1.71,3.34,3.24,4.44,5.18,2.18,3.8,5.36,5.09,9.49,4.87a20.85,20.85,0,0,1,4,.07c5.66.81,8.93-1.71,10.21-7.13,3.54-.38,4.7,1.16,5.05,4.74.46,4.77.15,9.68,1.84,14.3l0,2.08c-6.07,4.19-12.88,4.86-20,4.09a22.73,22.73,0,0,0-11.74,1.43c-12.28,5.3-24.9,4.93-37.7,2.38a22.06,22.06,0,0,1-14.93-9.78c.29-4.23,3.58-4.64,6.7-5.17,9.11-1.56,18.08-3.56,26.4-7.86A35.28,35.28,0,0,0,61.52,435C63.7,432.85,65.94,431.67,69,432.09Z" fill="#d9d6e9"/><path d="M511.16,240.44c2.81,5.54,4.75,11.27,4.32,17.64-.19,2.85-1.21,3.79-4.07,3.11A78.28,78.28,0,0,0,503,259.9c-1.14-.14-2.82-.51-3.38.06-4.74,5-10.24,2.33-15.4,1.56-4.18-.62-6.26.33-5.76,4.84-4.09-2.36-7.93-5.14-12.34-7-6.8-2.87-10.39-8.07-11.3-15.48-.52-4.22.84-8.64-1.29-12.68,8.25-2,16.48,0,24.62.67A98.26,98.26,0,0,1,511.16,240.44Z" fill="#e1c4b0"/><path d="M125.19,243.4l.43.07c-1.05,8.3.12,16.6,0,24.9-2.45,3.22-6.19,2.82-9.46,2.89-10.25.23-20.45.66-30.48,3a20.17,20.17,0,0,0-6.32,2.52c-5.43,3.39-10.13,1.1-11.3-5.22-.47-2.56-.47-5.25-2.25-7.4,4.52-7.5,11.23-11.88,19.66-13.81,10.78-2.48,21.83-3.3,32.73-5C120.6,245,123.13,245,125.19,243.4Z" fill="#ddbba2"/><path d="M453.57,231.2c2.13,4,.77,8.46,1.29,12.68.91,7.41,4.5,12.61,11.3,15.48,4.41,1.86,8.25,4.64,12.34,7,1.8,2.87,5,2.13,7.56,2.73,2.23.52,3.55,1.09,1.84,3.44s-1.06,4.34.09,6.8c2.06,4.4-.61,9.47-5.31,9.45-3.69,0-7.5,1.2-11.17-.29.47-1.7,2.9-.37,3.53-2.46-4-2.2-4.74-6.95-7.62-10.6-1.45,5.93-1.45,6.08-7.57,5.89-6.82-.22-13.47.88-20.13,2.08a221.05,221.05,0,0,0-5.06-24c8.56,2.41,15.88,7.73,24.65,10.89-.31-2.1-1.74-2.56-2.65-3.29a18.22,18.22,0,0,1-7.1-13c-.28-2.68-.31-5.62-2.22-7.92a.9.9,0,0,1,.34-.62l1-.91,1.47-8c1.08-.44,1.85-1,.61-2.11C450.85,232.64,451.58,231.37,453.57,231.2Z" fill="#d6ad8e"/><path d="M264.66,254.88c.19-7.26-3.52-13.71-4.28-20.82-.3-2.8-.45-5.58-.58-8.38,3.27.43,6.86-2.38,9.86.92a43.76,43.76,0,0,0,2.54,14.86,148.93,148.93,0,0,0,4.49,19c1.56,10.59,2.78,21.19,2,31.92l-.72,3.92c-1.82,3.9-5.86,4.22-9.18,5.71a107,107,0,0,0,1.12-14.2c.31-7.31-1.26-14.36-2.13-21.5Z" fill="#333"/><path d="M19.61,454.32a22.06,22.06,0,0,0,14.93,9.78c12.8,2.55,25.42,2.92,37.7-2.38A22.73,22.73,0,0,1,84,460.29c7.07.77,13.88.1,20-4.09,1.41,8.76,1.19,9.21-6,12.44a38.68,38.68,0,0,1-10.42.1c-7.87-1.2-15.45-.1-23,2.19-6.62,2-13.48,1.27-20.25.43-3.28-.4-6.55-1-9.82-1.46-3.53-1.3-7.08-2.54-10.57-3.92-5.41-2.14-8.17-5.88-6.91-11.92C17.92,452.84,18.76,453.65,19.61,454.32Z" fill="#504f51"/><path d="M315,186.55c5.81,0,11.63.09,17.44,0,2.61-.06,3.57.92,3.44,3.49-.6,11.72,3.08,10.62-10.61,11.08-8.63.29-17.28-.12-25.91.13-4.51.13-6.61-.82-6.34-6,.51-9.65-1-8.6,9-8.65,4.31,0,8.63,0,12.95,0Z" fill="#f9be79"/><path d="M16.89,454.06c-1.26,6,1.5,9.78,6.91,11.92,3.49,1.38,7,2.62,10.57,3.92-9.31,2.3-18.76,1.1-28.12.86-4.52-.12-6.89-4.62-6.1-10.12.62-4.3,3.31-6.61,7.81-6.56C10.94,454.11,13.91,454.07,16.89,454.06Z" fill="#ecece7"/><path d="M327.86,224c-.36,8.74-4.56,15.53-11.17,20.84-2.36,1.89-5.55,2.7-8.27.52s-1.8-5-.82-7.75,1.19-5.78,3.12-8.22c1.11-1.41,1.14-2.79-1.17-3.1C315.35,223,321.51,222.75,327.86,224Z" fill="#ddbba2"/><path d="M489,455.24c.46,3.86-1.19,5.2-5,4.79a42.49,42.49,0,0,0-9.89,0c-4.81.61-7.08-1-6.43-6,.12-2.83.23-5.66.35-8.49l20.46-.26C488.63,448.64,488.82,451.94,489,455.24Z" fill="#504f51"/><path d="M308.77,226.39a44.56,44.56,0,0,0-4.89,13.25c-.44,2.36-1.15,4.45-3.59,4.57-2.74.13-5.73,1.38-8.15-1.71-2.76-3.53-2.67-7.34-2.05-11.25a24,24,0,0,0,.71-4.84C296.79,223,302.78,224.75,308.77,226.39Z" fill="#ddbba2"/><path d="M447.34,246c1.91,2.3,1.94,5.24,2.22,7.92a18.22,18.22,0,0,0,7.1,13c.91.73,2.34,1.19,2.65,3.29-8.77-3.16-16.09-8.48-24.65-10.89-1.34-1.36-1.55-3.21-2.08-4.91.25-1.22-1.07-2.46.05-3.66C437.44,248.92,441.64,245.18,447.34,246Z" fill="#c69677"/><path d="M385.82,223.69c-.05,5.94-.08,11.88-.17,17.81a3.27,3.27,0,0,1-.63,2.21c-1,.84-1.73-.34-2.44-.92-7.33-6-11.26-13.54-9.9-23.28C377.52,219.47,381.45,222.27,385.82,223.69Z" fill="#e1c4b0"/><path d="M272.2,241.46a43.76,43.76,0,0,1-2.54-14.86l1.95-.29,1.15-.32,3-.44c-1,8.12,3.34,14.77,6,21.88C278.26,246,276,242.53,272.2,241.46Z" fill="#c69677"/><path d="M450.76,234.44c1.24,1.13.47,1.67-.61,2.11A1.49,1.49,0,0,1,450.76,234.44Z" fill="#e1c4b0"/><path d="M509.56,335.82a1.84,1.84,0,0,1,2.08-.52C511.13,336.18,510.38,336.15,509.56,335.82Z" fill="#504f51"/><path d="M431.81,245.6l.45-1.22Z" fill="#e1c4b0"/><path d="M448.68,244.51l-1,.91Z" fill="#e1c4b0"/><path d="M272.76,226l-1.15.32Z" fill="#d6ad8e"/><path d="M331.75,223.44c-.25.53-.56.67-1,.18Z" fill="#ddbba2"/><path d="M112.87,454.07l.33-8.63,20.44.11c.13,2.84.25,5.68.38,8.52.74,5.08-1.6,6.62-6.4,6a32.23,32.23,0,0,0-8.44,0C114.39,460.66,111.94,459.27,112.87,454.07Z" fill="#504f51"/><path d="M267.78,266.28c.87,7.14,2.44,14.19,2.13,21.5a107,107,0,0,1-1.12,14.2l-8.89,4.3c-4.9,4.12-11.23,5-16.8,7.52-2.39,1.1-6-1.46-7.25,2.5h-25c-.29-.56-.49-1.51-.9-1.62-7.49-1.95-15.07-4.2-22.77-4.22-15.24,0-30.44-2-45.69-1.1a7.12,7.12,0,0,1-6.74-3.12,18.8,18.8,0,0,0-3.5-6.11c-1.82-7.92-4.41-15.69-4.66-23.92,27.57-3.24,55.28-4.92,83-6.7C229,268.27,248.38,267.34,267.78,266.28Z" fill="#1b1b1c"/><path d="M134.77,306.24a7.12,7.12,0,0,0,6.74,3.12c15.25-.87,30.45,1.06,45.69,1.1,7.7,0,15.28,2.27,22.77,4.22.41.11.61,1.06.9,1.62-32.75,0-65.51,0-98.27.14-2.56,0-4.28-1.05-6.17-2.26-.76-2.56-1-5.28-2.43-7.62Z" fill="#2a2523"/><path d="M453.85,63.64c-.05,22.25-17.84,40.24-39.76,40-22.63-.31-40.31-17.93-40-40.47C374.31,38,395,23.18,414.84,23.56,436.94,24,454.61,42.39,453.85,63.64ZM414.22,53.57c-6,0-10.35,4-10.42,9.64a10.63,10.63,0,0,0,10.44,10.46c5.36,0,10.33-5,10.24-10.16A10.09,10.09,0,0,0,414.22,53.57Z" fill="#777778"/><path d="M432.58,254.46c.53,1.7.74,3.55,2.08,4.91a221.05,221.05,0,0,1,5.06,24c.35,5-.73,9.8-1.59,14.64-.62,3.18-3.55,5.09-4.46,8.11-7.53,6.23-16,9.3-25.84,7.58-.45-.44-.82-1.09-1.36-1.3-13.3-5-19.16-14.66-19-28.69.11-7.4-.67-14.82-1-22.23.15-.79.29-1.58.59-3.24,4.15,7.87,7.77,15.1,12.77,21.51,1.84,2.35,3.08,2.8,5.48.54,8.52-8,18.5-14.62,24.56-25.08C430.46,254.22,431.58,254.41,432.58,254.46Z" fill="#e1c4b0"/><path d="M386.47,261.51c.38,7.41,1.16,14.83,1,22.23-.21,14,5.65,23.72,19,28.69.54.21.91.86,1.36,1.3a204.9,204.9,0,0,1-52.24-6.27l-4.79-1.25c-5.05-3.53-11-4.45-16.81-5.92-18.42-4.73-37.22-4.36-56-4l.72-3.92c3.95-1.2,7.93-2.23,11.81-3.71,8.38-3.19,17-1.4,25.37,0,15.09,2.46,29.29,7.84,43.29,13.84,7.78,3.34,16.08,5,24.5,5.86,3.28.34,4.76-.49,3.06-4.19-1.44-3.11-3.26-6.2-3.15-9.85-3.37-8.7-1.28-17.59-.9-26.43.1-2.48,0-5,.05-7.44Z" fill="#c69677"/><path d="M438.13,298c.86-4.84,1.94-9.66,1.59-14.64,6.66-1.2,13.31-2.3,20.13-2.08,6.12.19,6.12,0,7.57-5.89,2.88,3.65,3.61,8.4,7.62,10.6-.63,2.09-3.06.76-3.53,2.46-5.18-1.33-7.74.79-7.95,6C455.12,296,446.45,295.72,438.13,298Z" fill="#c69677"/><path d="M272.2,241.46c3.77,1.07,6.06,4.52,9.6,6l0,0c0,.33,0,.66,0,1,4.38,3.07,7.39,7.36,10.28,11.72a8.06,8.06,0,0,1,1.7,5.1c-.08,1,.22,2.11-.77,2.72-1.26.78-2.17-.13-3-.91-3.05-2.68-5.44-5.94-9.66-7.46-2.11-.76-2.51.28-3.62.88A148.93,148.93,0,0,1,272.2,241.46Z" fill="#ddbba2"/><path d="M281.81,248.38c0-.33,0-.66,0-1C282.44,247.69,282.52,248,281.81,248.38Z" fill="#c69677"/><path d="M267.78,266.28c-19.4,1.06-38.81,2-58.2,3.23-27.69,1.78-55.4,3.46-83,6.7-.33-2.61-.66-5.23-1-7.84.11-8.3-1.06-16.6,0-24.9,20.39-1.59,40.78-2.87,61.26-2.07,26.54,1,52.64,4.48,77.78,13.48Z" fill="#2eafb7"/><path d="M414.22,53.57a10.09,10.09,0,0,1,10.26,9.94c.09,5.19-4.88,10.11-10.24,10.16A10.63,10.63,0,0,1,403.8,63.21C403.87,57.57,408.21,53.55,414.22,53.57Z" fill="#333"/></g></g></svg>