<svg xmlns="http://www.w3.org/2000/svg" viewBox="0 0 687.46 623.06"><title>ex_4_2</title><g id="Layer_2" data-name="Layer 2"><g id="Layer_1-2" data-name="Layer 1"><path d="M646.25,330.33l-1.61-.29c.19-2.32-.93-4.78.77-6.93,13.38.5,26.76.47,40.14,0l1.91.4v6l-3.26.81h-1.47A328.84,328.84,0,0,0,646.25,330.33Z" fill="#383838"/><path d="M685.55,323.12c-13.38.46-26.76.49-40.14,0,0-1.84.07-3.68.1-5.52l42-.06v4A1.75,1.75,0,0,0,685.55,323.12Z" fill="#acacac"/><path d="M685.55,323.12a1.75,1.75,0,0,1,1.91-1.6v2Z" fill="#cbcacb"/><path d="M684.2,330.32l3.26-.81v1Z" fill="#cbcacb"/><path d="M420.7,568.22a39.88,39.88,0,0,1,18,11.07c6.57,6.92,5.34,15.75-2.16,22-11.68,9.71-25.85,13.45-40.05,16.51a236.16,236.16,0,0,1-57.18,5.16c-25.17-.8-50.2-3.33-73.89-12.88a46.56,46.56,0,0,1-18.64-13.74c-3.33-4.05-2.86-12.19,1.51-16.53,5.15-5.13,10.82-9.84,18.58-10.67a15.91,15.91,0,0,1-3.25,4.88c-4.17,4.73-7,10-5.38,16.6.21,4.84,3.54,6.83,7.55,8,7.41,2.19,14.79,1.55,22-.82,4.52-1.49,7-4.82,7.13-9.71l-.1.07a5.51,5.51,0,0,1,.76-.59c2.38-3.89,2.57-8.17,2.24-12.54.61-5.78,1.41-11.52,3.79-16.9,4.19.73,8.27-.54,12.31-1.09,6.44-.86,12.94-.23,19.29-1.23s12.92-.78,19.34-.41c11.19.64,22.35,1.8,33.52,2.74a53.86,53.86,0,0,1,3.85,19.75c-.55,3.7.69,7,2.32,10.21.51,4.41,2.64,7.81,6.85,9.35,7.95,2.9,16.09,3.57,24.23.75,3.49-1.21,6-3.42,6.1-7.53,1.64-6.62-1.15-11.86-5.3-16.6C422.55,572.31,421,570.64,420.7,568.22Z" fill="#ebece6"/><path d="M533,229.26c-8.68,11.15-16.72,21.48-24.74,31.82-2.14,2.76-4.34,5.47-6.33,8.33-1.76,2.53-3.14,2.21-4.88,0q-14.51-18.69-29.13-37.3c-1.82-2.33-1-3.18,1.66-3.16,3,0,6-.17,9,0,3.36.24,4.83-1,5-4.45,2.2-37-9-68.37-38.55-92.08l-3.76-3a83.81,83.81,0,0,1,29.11,12.1c27.85,17.76,43,43.58,47.08,76.07,1.38,11,1.14,11,12,11.35C530.28,228.93,531.07,229.06,533,229.26Z" fill="#f7b46e"/><path d="M154.77,228.91c4.17,0,7.3-.15,10.4,0s3.88-1,4.14-4c1.92-22.27,8.18-43,22.44-60.75A101.37,101.37,0,0,1,243.1,129.9a12.85,12.85,0,0,1,2.68,0c-11.85,9.14-21.49,19.29-28.57,31.74C206,181.37,202.62,202.7,204.1,225.06c.19,2.95,1.65,4,4.52,3.88s6-.07,9,0c1.08,0,2.64-.46,3,1,.16.73-.67,1.8-1.25,2.56-8.56,11-17.06,22.08-25.75,33-5.52,6.92-5.61,6.79-10.92-.08-8.23-10.63-16.52-21.22-24.76-31.84C157,232.4,156.24,231.12,154.77,228.91Z" fill="#f7b46e"/><path d="M405.77,380.52c-1.73,13.55.44,27.1.11,40.68-.2,8.53,2.3,17,3.17,25.59a145.16,145.16,0,0,1,.39,24.83c-1.62,23.51-1.95,47-1.7,70.59-2.48,1.88-5.28.76-7.95.86q0-14.69,0-29.37c0-7.63-.62-15.34.29-22.87.89-7.38-.25-14.43-1.19-21.55-1.87-14.15-7.94-26.81-15.74-38.48-2.58-3.86-5.16-8.57-10.16-10.46a1.46,1.46,0,0,1-.31-.72l-.86-1.23c-5.18-7.44-6.81-16.06-8.23-24.74a129.26,129.26,0,0,0,29.57-9.28Z" fill="#d6ad8e"/><path d="M321.78,61.91c-.24-1-.49-2-.73-3.08.21-.43.72-1,.59-1.26-3.05-4.87-2.84-10.31-2.85-15.72l.25-1a1.71,1.71,0,0,0,0-2.83c-.47-4.78,3.58-8.54,3-13.37-.8-6.81,3.44-9.75,9.07-11.53,4.13-1.29,8.3-2.34,12.68-1.93l0,62.51c-7,1.82-11.59-3.13-17-5.89l-2.14-1.2-1.17-.35.94.56,2.13,1.27c0,2.49,3.05,3.33,3.18,5.77,3.19,9,7.75,17.29,11.87,25.83a3.56,3.56,0,0,0,4,2.13c5.07-5,11.89-4.56,18-4.72,9.36-.24,18.76,1.06,28.15,1.7,6.08,1.3,12.22,2.43,17.87,5.2,1.45,9.11,2.32,18.17-2.05,26.83-2.22-2.66-.49-7-4-9.13-1.86-1.4-2.05-3.66-3-5.56C397.23,109,390.43,99,379,100.72c-4.87.74-10,.31-14.92.08-7-.32-12.36,3-17.34,7.29-.89.76-1.55,1.7-2.83,1.78-1-1.37-1.28-3.35-3.17-4l.05,0c-.56-1-1.52-1.06-2.51-1-4.56-.21-7.75-4.33-12.63-4.09-7,.36-14,.09-21,.09a14,14,0,0,0-9,3.46c-5,3.93-7.79,9.25-10.82,14.51a2.33,2.33,0,0,0-1,2.06l0-.08c-2.07,3-2.71,6.54-3.28,10.07-1.46-.23-1.46-1.41-1.86-2.52-2.81-7.69-1.63-15.67-1.9-23.54a18.67,18.67,0,0,1,3.87-2C289,100.62,297.1,98.38,304,93c1.64,1.18,2.21-.14,2.88-1.23l-.06,0c4-.36,7.31-3,11.17-3.41,4.41-.41,5.33-2.74,4.87-6.45l-.63-2q-.14-8.55-.25-17.09c.11-.11.34-.28.32-.32A5.15,5.15,0,0,0,321.78,61.91Z" fill="#d6ad8e"/><path d="M279.81,542.18c.57-25.07-.34-50.11-1.82-75.13-.81-13.86,1.26-27.47,3.34-41.07a55.37,55.37,0,0,0,.56-7.91c0-7.95-.91-15.95,1.24-23.79,9.82-2.14,19.57-4.51,28.76-8.72l13.71-1.19c-1.56,11.82-3,23.68-9.75,34-.29.4-.59.8-.88,1.21a1.57,1.57,0,0,1-.32.72c-1.89.12-2.9,1.54-4,2.78-7,8.17-13,17-16.67,27.19-3.47,9.5-6.3,19.1-6.22,29.42.16,21.11,0,42.23,0,63.34C285.13,542.94,282.3,544.15,279.81,542.18Z" fill="#d6ad8e"/><path d="M403.63,121.71c3.53,2.08,1.8,6.47,4,9.13q-.37,3.47-.74,6.93l-.11,2c-1.85,4.44.82,6.11,4.45,6.87,7.43,1.57,11.76-3.05,14.41-9.29,1.16-2.73.49-5.9,2-8.55,2.46,8.65,1.39,17.29-.16,25.91-2.9,1.95-3.47,5.64-5.92,7.93-3,.14-5.38-1.48-7.6-3.21-4-3.18-4.59-3.07-7,1.72-3.14,6.24-2.68,13-2.14,19.51.85,10.41,3.07,20.53,10.63,28.58,3.81,4.06,8.48,4.55,10.82.53,1.29-2.21,3.27-4.25,3.42-7.07l1.83-2.89a26.07,26.07,0,0,1,4.47,9.8l-1.34.06c-10.49,1.88-9.73,11.18-12.22,18.67-2.53-6.55-6.29-12.16-10.29-17.6-.93-1.25-1.9-3.11-3.84-2.67-1.78.41-1.6,2.33-1.85,3.75-2.47,13.84,1.08,27,5.42,39.82,4.7,13.91,11.93,26.91,14.34,41.68.77,4.68.14,7.43-4.74,8.36-5-16.48-10.11-32.92-14.88-49.46-4.26-14.78-6.53-29.8-3.65-45.19a4.2,4.2,0,0,0,0-2.41c-4.16-8.25-5.26-17.37-7.57-27.06l-6.7,20.09a7.91,7.91,0,0,1-.93-2.18c-.75-7.55-1-15.17-2.26-22.63-.76-4.5-.48-9.73-4.8-13.07-10.58-1.07-21.26-1.72-30.84-7.13-1.9-2.81-2.58-6.87-7.14-7,1.76-2.49.68-5.44,1.31-8.11a21.87,21.87,0,0,1,3.47,3.54c4.3,6.83,10.68,8.85,18.32,8.63,7.13-.2,14.27-.07,21.41,0,2.19,0,4.31-.13,6.19-1.41,9.92-6.76,13.19-11.72,10.49-22.68A22.6,22.6,0,0,1,403.63,121.71Z" fill="#c69676"/><path d="M421.52,301.72c4.88-.93,5.51-3.68,4.74-8.36-2.41-14.77-9.64-27.77-14.34-41.68-4.34-12.81-7.89-26-5.42-39.82.25-1.42.07-3.34,1.85-3.75,1.94-.44,2.91,1.42,3.84,2.67,4,5.44,7.76,11.05,10.29,17.6,2.49-7.49,1.73-16.79,12.22-18.67.38,1.77.62,3.65,3,4l.18,1.91c-1.47,1-.85,2.21-.49,3.53,1.94,7.14,1.94,14.51,1.19,21.7-1.4,13.3-3.6,26.5-2.84,39.94a51.17,51.17,0,0,0,3,14.84c-1.78,4.64-.94,9.29,0,13.94a15.74,15.74,0,0,1-3.46,7.53c-2.11,2.53-2.79,7.15-5.78,7.57-3.26.46-3.27,2.17-4,4.1-1.49-1.66-2-3.79-2.6-5.83C421,316,422,308.78,421.52,301.72Z" fill="#dcbaa1"/><path d="M343.85,73.71l0-62.51c2,1,4.13.76,6.28.68,5.62-.18,14.87,3.93,14.79,7.16-.18,7.15,3.6,13.39,3.84,20.35.15,4.25,1.75.63,2.71.52,1.32,0,2.59-.06,3.2,1.6,1.39,3.83-1.37,13.93-5,15.62a5.62,5.62,0,0,0-3.51,5.29c-.36,5.41-.3,10.85-.46,16.27-.05,1.56,1.47,2.11,1.9,3.33-2-.33-2.67.63-2.57,2.49.07,1.38.28,2.66,1.82,3.12,4.67,1.42,9.35,2.81,14,4.21l-.06,0c.43,1,1,1.1,1.78.31,3.47,1.72,6.77,3.66,9.28,6.7-9.39-.64-18.79-1.94-28.15-1.7-6.1.16-12.92-.3-18,4.72.84-3.75,2.88-7,4.3-10.5,2.33-5.75,6.23-10.88,7-17.28.8-2.09,3.38-3,4-6.41C355.21,71.06,350.48,75.46,343.85,73.71Zm18.59-6.27-.25-.16,0,.24Z" fill="#dcbaa1"/><path d="M595.51,394.44c-1.55-6.11-3-12.22-2.93-18.61.12-13.81-.09-27.62.13-41.42.06-3.58-1-4.65-4.45-4.28-2.8.3-5.64.13-8.47.17-.07-2.26-.15-4.52-.22-6.78h0a49.3,49.3,0,0,1,7.39,0c4.93.66,6.62-1.3,5.52-6,0-12.78.42-25.58,0-38.34-.3-9.9,1.39-19.45,3.27-29,1.4,7.58.27,15.23.66,22.84.19,3.78-1.51,8.43.74,11.09,2,2.31,6.58.59,10,.7,2,.06,3,.57,3,2.81q-.18,37.4-.28,74.8c-3.14.06-6.3.29-9.43.12s-4.08,1-4,4c.17,6.79.15,13.59,0,20.38C596.44,389.37,597.52,392.13,595.51,394.44Z" fill="#383838"/><path d="M251.6,209.66c.5-3.47,2.44-6.32,4-9.32l2.23,2.38c.2,2.09,1.47,3.63,2.59,5.28,4.24,6.26,7.27,6.4,12.22.48a38.47,38.47,0,0,0,6.4-10.45c2.32-5.8,3.09-11.86,3.61-17.85.58-6.82,1.28-13.94-2.75-20.31-1.57-2.49-2.79-3.76-5.69-1.2-2.25,2-4.7,4.35-8.25,4q-2.94-4.45-5.89-8.9c-1.57-8.3-3-16.6-.18-24.93,1.08.83.84,2,.93,3.16.95,12.27,9.23,17.48,20.34,12.84,1.82,1.06,2.4,3.05,3.56,4.62,6.25,8.52,6,18.81,8,28.5-1.6,1.5-1.46,3.61-1.83,5.51-1.15,5.86-2.16,11.81-4.69,17.24a16.35,16.35,0,0,0-1.11,10.16c1.57,9,.86,17.91-.78,26.74-4.08,21.91-12.6,42.59-18.27,64.06-2.76-.81-5.95-1.55-5-5.41,1.77-7.54,3-15.23,5.77-22.54,4.23-10.94,9.87-21.35,12.23-33,1.93-9.57,4.08-19.09,2.08-28.93-.29-1.41-.07-3.34-1.89-3.7s-2.91,1.45-3.82,2.72c-3.19,4.43-6.4,8.87-8.43,14-.41,1.05-.55,2.54-2.07,2.29-1.29-.21-.89-1.59-.95-2.5a21.15,21.15,0,0,0-2.78-8.44c-1.78-3.38-3.29-7.14-8.26-6.47Z" fill="#c69676"/><path d="M77.13,396.39c-2.89-9.09-3.35-18.45-3.22-27.88,0-5.3.1-10.6.1-15.89q0-38.53-.05-77.06c-.49-8.5,1.26-16.71,3.11-24.92,1.74,8,.5,16.08.71,24.11.25,9.7.06,9.79,9.68,10,2.57,0,3.88.43,3.86,3.5-.17,24.75-.19,49.49-.25,74.24a52,52,0,0,1-6.95,0c-4.67-.61-6.48.91-6.17,5.88.43,6.77.21,13.59.06,20.38C78,391.27,78.92,394,77.13,396.39Z" fill="#383838"/><path d="M609.94,362.34q.13-37.39.28-74.8c0-2.24-1-2.75-3-2.81-3.44-.11-8.06,1.61-10-.7-2.25-2.66-.55-7.31-.74-11.09-.39-7.61.74-15.26-.66-22.84-.19-.87-.17-1.72.74-2.12a6.85,6.85,0,0,1,1.94-.32c10.95-1.17,11.14-1.07,13.42,9.64a77.29,77.29,0,0,1,1.61,9.28c.28,3,.06,6,.06,9.25,1.69-1.19,3-2.26,5-2.26,3,0,4.49.31,5.28,4,2,9.08,1.64,18.18,1.46,27.28-.09,4.41.94,6.65,5.75,5.89a30.55,30.55,0,0,1,4.49,0c5-.05,9.29.78,10,6.89,0,1.84-.06,3.68-.1,5.52-1.7,2.15-.58,4.61-.77,6.93-.39,1.6.61,3.74-1.78,4.56-.17-1.38-.34-2.75-.5-4.13a59.14,59.14,0,0,1,.26-6.93c.73-4.86-.81-6.49-6-6.32-12.72.43-12.73.13-11.77,13.22-.15,2.07-.76,4.18.71,6.05-.55,10.05.65,20.16-1.09,30.16-.24,1.37.49,3.09-1.41,3.86l-.3-20.95c.11-16.12.17-32.25.36-48.38,0-2.62-1.29-3.22-3.4-2.9-3.75.56-4.39-1.3-4.23-4.56.25-4.93.07-9.89.07-14.83-1.91,4.67-2.1,9.43-2.08,14.26q.1,30.94,0,61.9a45.77,45.77,0,0,0,1.19,12.35c0,1,0,2,0,3-2.27,3.27-.47,7-1.05,10.4s.24,7.1-2.94,9.64Q610.28,376.41,609.94,362.34Z" fill="#cbcacb"/><path d="M279.81,542.18c2.49,2,5.32.76,8,.89,3.33.47,6.88-.91,10,1.15.22,1.93-.78,3.49-1.56,5.13-3.17,6.73-5.92,13.7-6.27,21.15-.37,8,.87,16.11-5.14,22.73-4.79-.14-9.61-.63-14.36-.3-4.42.31-8.56.29-12.31-2.34-1.63-6.63,1.21-11.86,5.38-16.59a15.91,15.91,0,0,0,3.25-4.88c7-6,7.08-14.53,8-22.62C275.17,542.89,276.76,542,279.81,542.18Z" fill="#d8d8d8"/><path d="M399.79,543.07c2.67-.1,5.47,1,7.95-.86,3.5-.34,4.62,1.12,5.15,4.72.81,5.4.26,11.12,3.48,16.17,1.26,2,2.36,3.84,4.33,5.12.32,2.42,1.85,4.09,3.39,5.84,4.15,4.74,6.94,10,5.3,16.6-2.22.56-3.84,2.78-6.34,2.46-6.79-.88-13.55.24-20.32.11-3.66-5-5.83-10.3-5.1-16.81.86-7.69-1.34-15-4.19-22.11-1.31-3.31-3.37-6.4-3.67-10.09C392.91,542.14,396.46,543.54,399.79,543.07Z" fill="#d8d8d8"/><path d="M423.77,346c-2.58,3.26-6.47,3.55-10.09,4.44-7.35.83-14.05-1.82-20.87-3.88-2.09-.89-5.57-.82-3.68-4.67,1.67-3.4-.23-4.18-3-5q-14-4.35-27.89-9a44,44,0,0,0-28.78,0c-8.63,2.88-17.28,5.75-26,8.5-7.66,2.43-6.21,1.7-4.05,8.29l-4.67,2c-6.83,2-13.54,4.7-20.9,3.88-3.62-.89-7.48-1.21-10.08-4.42.12-2.53,5.45-4.09,1.84-7.05-2.86-2.35-5.85-4.94-9.79-5.63.06-2,.21-4.08-1-5.9,3-.64,4.21,3,7,3,2.2,2.31,5.86,2.76,7.47,5.82-1.33,4,1,6.7,6,7.27,6.05.68,11.25-2.4,16.87-3.62,4-.86,5.5-2.64,3.58-6.53,5.14-1.8,10.21-3.81,15.42-5.35,10.76-3.18,21.07-8.09,32.54-8.62A40,40,0,0,1,354.57,321c12.78,4.09,25.52,8.29,38.28,12.45-1.32,1.6-3.76,4-.66,5.08,9,3,18,8.8,27.78,1.95Z" fill="#acacac"/><path d="M42.92,317.42c.19-1.67.07-3.41,1.19-4.85.68,4.68,3.8,5.33,7.77,4.83a21.92,21.92,0,0,1,5.43,0c4.85.64,6.83-1.1,5.34-6l-.06-1.85q.12-12.51.25-25L64.25,277c1.09,5.58.42,11.21.41,16.81,0,3.27.6,5.09,4.29,4.5,2.23-.35,3.26.44,3.24,3-.17,16.07-.19,32.15-.26,48.22-7,.33-6.74-1.42-6.92,6.91-.09,4.68.93,9.44-.76,14-.41-2.61-.81-5.22-1.22-7.83.07-6.77.18-13.53.19-20.3,0-11.75,0-11.68-11.67-11.79-3.35,0-6.56-.29-7.44,4-.73-4-3.32-4.49-6.93-4.4-10.13.25-20.27.08-30.41.08-6.65,0-6.65,0-6.51-6.53,12.37-.08,24.75-.4,37.12-.12C42.32,323.65,44,322.11,42.92,317.42Z" fill="#383838"/><path d="M91.07,362.47c.06-24.75.08-49.49.25-74.24,0-3.07-1.29-3.45-3.86-3.5-9.62-.19-9.43-.28-9.68-10-.21-8,1-16.12-.71-24.11-.2-1.19-.31-2.72,1.17-2.8,4-.22,8-.18,12-.06,1.85.06,1.59,1.75,1.85,3,1.73,8.45,3.28,16.86,3,25.59C94.76,288.2,95,300,95,311.82c0,2-.21,4,1,5.79-1.24,1.8-1,3.86-1,5.87-1.18,5,.4,7.4,5.85,6.5a11.71,11.71,0,0,1,3.33.4c-9.21,1-9.2,1-9.2,10.31,0,12.92.14,25.85-.07,38.76-.09,5.16-.78,10.34-3.37,15Q91.33,378.47,91.07,362.47Z" fill="#cbcacb"/><path d="M579.57,323.52c.07,2.26.15,4.52.22,6.78-22.51,2.75-43.36-4.17-64.23-11-6.63-2.18-13.35-4.08-19.93-6.39-5.56-1.95-11-2.28-16.54-.13-2.19-4.48-5.18-6.5-9.9-3.21-1.6-1.27-1.69-3-1.49-4.84,2.11-.34,3.62-2.41,6-2.09.12,2.44.43,4.33,3.81,3.2,7.2-2.41,14.37-1.64,21.48.68q13,4.25,26.1,8.26c8.55,2.64,17.05,5.48,25.72,7.68C560.22,324.84,570,323.07,579.57,323.52Z" fill="#acacac"/><path d="M214.92,302.4c2.13.28,3.28,2.18,5,3.08,0,1.17.13,2.38-1.12,3.08-4.73-1.78-8,0-10.26,4.2-5.51-2.12-10.91-1.72-16.49.08-15.89,5.13-31.87,10-47.81,15-12,3.73-24.27,2.51-36.49,2.42q.12-3.36.22-6.7c3.83,0,7.66,0,11.49,0,7.47.07,14.88.07,22.17-2.29,15.63-5.07,31.37-9.78,47-14.78,6.64-2.11,13.37-3.13,20-1C212.38,306.67,214,305.66,214.92,302.4Z" fill="#acacac"/><path d="M371.44,39.91c-1,.11-2.56,3.73-2.71-.52-.24-7-4-13.2-3.84-20.35.08-3.23-9.17-7.34-14.79-7.16-2.15.08-4.27.35-6.28-.68-4.38-.41-8.55.64-12.68,1.93-5.63,1.78-9.87,4.72-9.07,11.53.57,4.83-3.48,8.59-3,13.37,0,.94,0,1.89,0,2.83-.08.33-.16.66-.25,1-3.45-1.31-1.65-4.67-2.7-6.92,0-2.65.05-5.31,0-8,0-15.58,11.65-27,27.71-27s27.64,11.25,27.57,27C371.4,31.28,371.43,35.6,371.44,39.91Z" fill="#383838"/><path d="M392.82,346.59c6.81,2.06,13.51,4.71,20.86,3.88.49,5.76.55,11.59,1.6,17.25s-.5,9.18-6,11a22.91,22.91,0,0,0-3.5,1.83l-12.65,3.85-2.2-.1Q391.87,365.43,392.82,346.59Z" fill="#31b0b8"/><path d="M273.92,350.48c7.36.82,14.07-1.87,20.9-3.89q.89,18.57,1.78,37.12c-5.19.21-9.8-2.2-14.71-3.24-8.16-2.51-11.56-7.41-9.2-16.21C273.87,359.87,273.56,355.09,273.92,350.48Z" fill="#31b0b8"/><path d="M467.7,304.71c-.2,1.83-.11,3.57,1.5,4.84l2.52,7.74c.2,3.49-2.76,5.42-4,8.19-.74,1.63-1.33,3.32-2,5-4,.06-4.67-2.76-5.11-5.8l1-3.31c1.16-5.58-.68-7.63-5.9-6.65-2.27.43-4.57.69-6.85,1-4.13-.88-7.12-3.6-10.18-6.21-.93-4.65-1.77-9.3,0-13.95l5.9-5Z" fill="#e0c4b0"/><path d="M218.83,308.56c1.25-.7,1.14-1.91,1.12-3.08,6.73-6.43,15.75-9.32,23-14.9a16.12,16.12,0,0,1,5,4.94c3.08,4.48,1.87,9.26,1,14a24.48,24.48,0,0,1-10.18,6.18c-2.28-.32-4.57-.6-6.84-1-5.3-.89-7,1.06-5.9,6.6.33,1.1.66,2.19,1,3.29-.17,3.28-1.69,5.38-5.1,5.85-.43-3.36-2.61-5.86-4.29-8.59-.93-1.52-2.14-2.87-1.68-4.85Q217.37,312.8,218.83,308.56Z" fill="#e0c4b0"/><path d="M579.57,323.52c-9.6-.45-19.35,1.32-28.8-1.08-8.67-2.2-17.17-5-25.72-7.68q-13.08-4-26.1-8.26c-7.11-2.32-14.28-3.09-21.48-.68-3.38,1.13-3.69-.76-3.81-3.2,5.83-6,13.32-5,20-3.32,14.22,3.66,28.27,8.12,42.15,13,10.93,3.81,21.88,6.21,33.5,5.34,3.46-.26,7,0,10.43.08,0,1.95-.09,3.89-.13,5.84Z" fill="#d8d8d8"/><path d="M214.92,302.4c-.95,3.26-2.54,4.27-6.2,3.09-6.67-2.14-13.4-1.12-20,1-15.65,5-31.39,9.71-47,14.78-7.29,2.36-14.7,2.36-22.17,2.29-3.83,0-7.66,0-11.49,0h0c0-2-.07-3.93-.1-5.89a2.7,2.7,0,0,1,.49,0c22.15,2.67,42.33-5.06,62.85-11.5,10.16-3.18,20-8,31.13-7.64C207,298.63,211.19,299.64,214.92,302.4Z" fill="#d8d8d8"/><path d="M406.91,137.77q.36-3.47.74-6.93c4.37-8.66,3.5-17.72,2.05-26.83,9.91,3,17.13,12.94,18,24.83-1.54,2.65-.87,5.82-2,8.55-2.65,6.24-7,10.86-14.41,9.29-3.63-.76-6.3-2.43-4.45-6.87C407.72,139.17,407.77,138.5,406.91,137.77Z" fill="#dcbaa1"/><path d="M281.2,144.85c-11.11,4.64-19.39-.57-20.34-12.84-.09-1.13.15-2.33-.93-3.16.82-11.26,9.07-23.18,16.93-24,.27,7.87-.91,15.85,1.9,23.54.4,1.11.4,2.29,1.86,2.52l.12,7.94c-.91.71-.85,1.38.1,2Z" fill="#dcbaa1"/><path d="M609.94,362.34q.34,14.06.68,28.12c-.67,9.79-.67,9.52-9.74,9.83-4.72.17-5.69-2-5.37-5.85,2-2.31.93-5.07,1-7.6.16-6.79.18-13.59,0-20.38-.08-3,1-4.16,4-4S606.8,362.4,609.94,362.34Z" fill="#585757"/><path d="M247.93,295.52a16.12,16.12,0,0,0-5-4.94c1.27-17.5.51-35,1.26-52.55.42-9.8,2.41-19.57,7.37-28.37l1.3,0a75.73,75.73,0,0,0-2.8,41.11c2.63,13.42,1.82,26.7.65,40.06C250.59,292.59,250.65,295.06,247.93,295.52Z" fill="#d6ad8e"/><path d="M91.07,362.47q.25,16,.5,32c-.85,1.78,1.08,5.84-2.72,5s-9.51,3.91-11.72-3.11c1.79-2.38.83-5.12.88-7.67.15-6.79.37-13.61-.06-20.38-.31-5,1.5-6.49,6.17-5.88A52,52,0,0,0,91.07,362.47Z" fill="#585757"/><path d="M444.62,290.59l-5.9,5a51,51,0,0,1-3-14.83c-.76-13.44,1.44-26.64,2.84-39.94.75-7.19.75-14.56-1.19-21.7-.36-1.32-1-2.53.49-3.53,4,6.91,5.36,14.63,5.58,22.3C443.93,255.45,443.56,273,444.62,290.59Z" fill="#d6ad8e"/><path d="M71.93,349.44c.07-16.07.09-32.15.26-48.22,0-2.52-1-3.31-3.24-3-3.69.59-4.3-1.23-4.29-4.5,0-5.6.68-11.23-.41-16.81.51-3.21,3.88-4.54,7.32-2.75.8.42,1.26,1.47,2.39,1.36q0,38.52.05,77.06c0,5.29-.06,10.59-.1,15.89l-1.53,0Z" fill="#cbcacb"/><path d="M460.62,324.67c.44,3,1.15,5.86,5.11,5.8,1.87,5.38,1.32,6.28-3.78,7.42-2.95.67-4.44,4.88-8.3,3.62-1.22,4.7-6.8,2.65-9.26,6.08-1.61,2.24-4.87,1.1-7.19-.52a23,23,0,0,1-5-5.47c1.48-.4,2.51-1.2,2.53-2.89,2.92,4.9,3.61,5,7.89,1.07a4.68,4.68,0,0,1,1.52-1.13c4.76-1.59,8.83-4.61,13.34-6.58,2.62-1.15,2.42-2.28,2.24-4.23C459.63,326.73,459.47,325.49,460.62,324.67Z" fill="#c69676"/><path d="M221.88,330.47c3.41-.47,4.93-2.57,5.09-5.86.29.4.85.83.81,1.18-.8,6.29,3.23,7.42,8.14,9.13,3.1,1.08,6.77,2.83,9.2,5.35,2.85,3,5,2.47,7.62.23l2.16,1.13a12.1,12.1,0,0,1-5.16,5.88c-2.07,1.3-4.5,1.79-6.57.26-4-3-8.4-4.85-12.95-6.77-2.58-1.09-5-2.8-7.73-4S220.44,332.82,221.88,330.47Z" fill="#c69676"/><path d="M257.87,202.72l-2.23-2.38c-3.65-14.14-1.11-28,2.33-41.69.43-1.72.48-3.67,2.14-4.87q3,4.44,5.89,8.9c-5.59,12.2-9.29,24.74-7.25,38.39C258.83,201.57,258.18,202.17,257.87,202.72Z" fill="#e0c4b0"/><path d="M431.57,199.85l-1.83,2.89c-2.09-3.78.63-7.54,0-11.43-1.63-9.87-3.34-19.67-8.11-28.63,2.45-2.29,3-6,5.92-7.93,1.29.47,1.6,1.7,1.84,2.76,2.07,9,4.39,17.92,4.39,27.26C433.76,190,433.43,195,431.57,199.85Z" fill="#e0c4b0"/><path d="M42.92,317.42c1.07,4.69-.6,6.23-5.54,6.11-12.37-.28-24.75,0-37.12.12-1-5,1-6.38,6-6.24C18.5,317.76,30.71,317.46,42.92,317.42Z" fill="#acacac"/><path d="M281.89,380.47c4.91,1,9.52,3.45,14.71,3.24,4.9,2.23,10.18,1.3,15.29,1.85-9.19,4.21-18.94,6.58-28.76,8.72Q282.52,387.38,281.89,380.47Z" fill="#b37e58"/><path d="M71.93,349.44l.45,19.1c-.83,2,1.41,5.86-3.41,5.5-2.48-.19-5.33.41-4.72-3.65,1.69-4.6.67-9.36.76-14C65.19,348,64.89,349.77,71.93,349.44Z" fill="#585757"/><path d="M622.73,349.56l.3,20.95c.09,2-.11,3.43-2.77,3.48-2.86.06-5.23-.05-5.65-3.57,0-1,0-2,0-3,2-3.42.68-7.13.85-10.68C615.85,349.3,614.12,349.38,622.73,349.56Z" fill="#585757"/><path d="M44.11,334.5c.88-4.32,4.09-4.06,7.44-4,11.68.11,11.71,0,11.67,11.79,0,6.77-.12,13.53-.19,20.3-1.1-7.52-.38-15.09-.44-22.63,0-2.82-.84-3.76-3.63-3.6-3.62.2-7.25.07-10.88,0C46.49,336.35,44.64,336.79,44.11,334.5Z" fill="#585757"/><path d="M62.65,311.41c1.49,4.9-.49,6.64-5.34,6a21.92,21.92,0,0,0-5.43,0c-4,.5-7.09-.15-7.77-4.83,3.56-2.19,7.48-.68,11.22-1C57.75,311.3,60.21,311.44,62.65,311.41Z" fill="#cbcacb"/><path d="M625.53,336.49c-1.47-1.87-.86-4-.71-6.05l17.54,0c.16,1.38.33,2.75.5,4.13-.53,2.36-2.43,1.75-4,1.78C634.43,336.45,630,336.46,625.53,336.49Z" fill="#585757"/><path d="M316.09,34.93c1.05,2.25-.75,5.61,2.7,6.92,0,5.41-.2,10.85,2.85,15.72.13.22-.38.83-.59,1.26-6.39-3.06-10-10-8-16.65C313.71,39.72,316.4,38,316.09,34.93Z" fill="#dcbaa1"/><path d="M434.75,338.71c0,1.69-1.05,2.49-2.53,2.89-2.71,1.67-5.19,3.8-8.45,4.43l-3.8-5.57c0-.62-.07-1.24-.11-1.87,4.84.27,7.36-4.76,11.88-5.22Z" fill="#7b7a79"/><path d="M254.9,341.63l-2.15-1.13a21,21,0,0,1,3.14-7.12c3.94.69,6.93,3.28,9.79,5.63,3.61,3-1.72,4.52-1.84,7.05C260.41,345.48,258.08,342.69,254.9,341.63Z" fill="#7b7a79"/><path d="M108,323.55q-.1,3.34-.22,6.7l-3.57.13a11.71,11.71,0,0,0-3.33-.4c-5.45.9-7-1.52-5.85-6.5l13,.08Z" fill="#383838"/><path d="M579.57,323.52c0-1.95.09-3.89.13-5.84l12.78-.2c1.1,4.7-.59,6.66-5.52,6A49.3,49.3,0,0,0,579.57,323.52Z" fill="#acacac"/><path d="M108,323.56l-13-.08c0-2-.24-4.07,1-5.87l11.88.06C107.94,319.63,108,321.6,108,323.56Z" fill="#acacac"/><path d="M322.81,82c.46,3.71-.46,6-4.87,6.45-3.86.36-7.19,3-11.17,3.41,3.5-4.51,9-6.35,13.25-9.82Z" fill="#b37e58"/><path d="M380.83,91.84c-4.67-1.4-9.35-2.79-14-4.21-1.54-.46-1.75-1.74-1.82-3.12-.1-1.86.58-2.82,2.57-2.49C371.93,85.36,377.26,87.41,380.83,91.84Z" fill="#b37e58"/><path d="M218.83,308.56q-1.47,4.24-2.92,8.47a19.59,19.59,0,0,1-7.34-4.27C210.85,308.58,214.1,306.78,218.83,308.56Z" fill="#7b7a79"/><path d="M471.72,317.29l-2.52-7.74c4.71-3.29,7.7-1.27,9.89,3.21A24.35,24.35,0,0,1,471.72,317.29Z" fill="#7b7a79"/><path d="M646.25,330.33a328.84,328.84,0,0,1,36.48,0A358,358,0,0,1,646.25,330.33Z" fill="#cbcacb"/><path d="M62.84,284.54q-.14,12.51-.25,25C61.71,301.21,61.24,292.86,62.84,284.54Z" fill="#cbcacb"/><path d="M437.66,213.67c-2.34-.31-2.58-2.19-3-4l1.34-.06C437.52,210.61,437.28,212.27,437.66,213.67Z" fill="#d6ad8e"/><path d="M322.81,82,320,82a2.82,2.82,0,0,1,2.16-2Z" fill="#dcbaa1"/><path d="M306.83,91.79c-.67,1.09-1.24,2.41-2.88,1.23C304.73,92.19,305.56,91.48,306.83,91.79Z" fill="#b37e58"/><path d="M382.55,92.11c-.76.79-1.35.71-1.78-.31Z" fill="#b37e58"/><path d="M321.78,61.91a5.15,5.15,0,0,1,.47.68s-.21.21-.32.32Z" fill="#dcbaa1"/><path d="M300.7,538.21c.29,3.42,3,6.31,2.14,10-6.58,8-7.95,17-5,26.82.33,4.37.14,8.65-2.24,12.54l-.76.59.1-.07c-2.82,2.72-5.43,5.85-10,5.15,6-6.62,4.77-14.77,5.14-22.73.35-7.45,3.1-14.42,6.27-21.15.78-1.64,1.78-3.2,1.56-5.13C301.53,543.51,298.6,539.67,300.7,538.21Z" fill="#cbcacb"/><path d="M384.75,548.18c-.85-3.66,1.86-6.56,2.12-10,2.16,1.44-.8,5.33,2.9,6,.3,3.69,2.36,6.78,3.67,10.09,2.85,7.15,5.05,14.42,4.19,22.11-.73,6.51,1.44,11.81,5.1,16.81-4.79.91-7.18-3.09-10.52-5.14-1.63-3.21-2.87-6.51-2.32-10.21,1.5-3.93,1.41-8.07,1.32-12.13C391.08,559.23,389.51,553.08,384.75,548.18Z" fill="#cbcacb"/><path d="M392.21,588.09c3.34,2,5.73,6,10.52,5.14,6.77.13,13.53-1,20.32-.11,2.5.32,4.12-1.9,6.34-2.46-.06,4.11-2.61,6.32-6.1,7.53-8.14,2.82-16.28,2.15-24.23-.75C394.85,595.9,392.72,592.5,392.21,588.09Z" fill="#383838"/><path d="M284.88,593.23c4.58.7,7.19-2.43,10-5.15-.12,4.89-2.61,8.22-7.13,9.71-7.21,2.37-14.59,3-22,.82-4-1.18-7.34-3.17-7.55-8,3.75,2.62,7.89,2.64,12.31,2.33C275.27,592.6,280.09,593.09,284.88,593.23Z" fill="#383838"/><path d="M384.75,548.18c4.76,4.9,6.33,11.05,6.46,17.57.09,4.06.18,8.2-1.32,12.13A53.86,53.86,0,0,0,386,558.13C385.22,554.86,383.94,551.65,384.75,548.18Z" fill="#585757"/><path d="M297.79,575c-2.9-9.8-1.53-18.8,5-26.82.65,3.44-.29,6.68-1.26,9.92C299.2,563.5,298.4,569.24,297.79,575Z" fill="#585757"/><path d="M294.79,588.15l.76-.59A5.51,5.51,0,0,0,294.79,588.15Z" fill="#383838"/><path d="M389.77,544.22c-3.7-.7-.74-4.59-2.9-6-1.75-16.26-3.13-32.61-6.39-48.64-1.53-7.54-5.83-14.38-7.26-22.13-2.05-11.2-1.78-22.4-.84-33.66.37-4.46.39-8.94.57-13.42,5,1.89,7.58,6.6,10.16,10.46,7.8,11.67,13.87,24.33,15.74,38.48.94,7.12,2.08,14.17,1.19,21.55-.91,7.53-.28,15.24-.29,22.87q0,14.68,0,29.37C396.46,543.54,392.91,542.14,389.77,544.22Z" fill="#dcbaa1"/><path d="M363.55,393.65c-.79-3-2.08-6-1.59-9.25,9.66.52,19.32,2,29-.13l2.2.1A129.26,129.26,0,0,1,363.55,393.65Z" fill="#b37e58"/><path d="M372.64,419.62l-.86-1.23Z" fill="#dcbaa1"/><path d="M403.63,121.71a22.6,22.6,0,0,0,.31,4c2.7,11-.57,15.92-10.49,22.68-1.88,1.28-4,1.42-6.19,1.41-7.14,0-14.28-.17-21.41,0-7.64.22-14-1.8-18.32-8.63a21.87,21.87,0,0,0-3.47-3.54q-.06-13.87-.11-27.75c1.28-.08,1.94-1,2.83-1.78,5-4.26,10.34-7.61,17.34-7.29,5,.23,10.05.66,14.92-.08,11.39-1.76,18.19,8.29,21.63,15.43C401.58,118.05,401.77,120.31,403.63,121.71Z" fill="#dcbaa1"/><path d="M284.9,118.81c3-5.26,5.84-10.58,10.82-14.51a14,14,0,0,1,9-3.46c7,0,14,.27,21-.09,4.88-.24,8.07,3.88,12.63,4.09a2.62,2.62,0,0,0,2.51,1l-.05,0c1.72,9,1,18.13,1,27.2.05,9.53-6.55,16.45-16,16.68-8.78.22-17.58.18-26.37,0-7.59-.16-16.57-9.51-16.46-17.09.06-4,.64-7.89,1-11.83l0,.08C284.74,120.46,284.78,119.62,284.9,118.81Z" fill="#dcbaa1"/><path d="M283.9,120.79c-.35,3.94-.93,7.88-1,11.83-.11,7.58,8.87,16.93,16.46,17.09,8.79.18,17.59.22,26.37,0,9.48-.23,16.08-7.15,16-16.68,0-9.07.73-18.19-1-27.2,1.89.69,2.14,2.67,3.17,4q.06,13.88.11,27.75c-.63,2.67.45,5.62-1.3,8.11-5.56,7.75-13.12,11.59-22.6,12.6-4.49.48-9.32-.32-13.48,2.31-1.76.35-2.3,1.8-2.68,3.22a114.65,114.65,0,0,0-3.17,19.85c-.42,4.67-.49,9.4-1.88,13.94L292.74,178c-2-9.69-1.73-20-8-28.5-1.16-1.57-1.74-3.56-3.56-4.62l-.36-4.06c0-.66-.07-1.33-.1-2l-.12-7.94C281.19,127.33,281.83,123.83,283.9,120.79Z" fill="#b37e58"/><path d="M357,74.05c-.73,6.4-4.63,11.53-7,17.28-1.42,3.51-3.46,6.75-4.3,10.5a3.56,3.56,0,0,1-4-2.13c-4.12-8.54-8.68-16.87-11.87-25.83a4.47,4.47,0,0,1,3.29,2c2.73,3.39,6.35,3.84,10.48,4.27C349.58,80.75,352.94,77,357,74.05Z" fill="#c69676"/><path d="M357,74.05c-4,2.94-7.37,6.7-13.35,6.07-4.13-.43-7.75-.88-10.48-4.27a4.47,4.47,0,0,0-3.29-2c-.13-2.44-3.15-3.28-3.18-5.77l.24-.29c5.37,2.77,10,7.72,17,5.9,6.63,1.75,11.36-2.65,17.08-6.07C360.33,71,357.75,72,357,74.05Z" fill="#b37e58"/><path d="M319,40.86c0-.94,0-1.89,0-2.83A1.71,1.71,0,0,1,319,40.86Z" fill="#dcbaa1"/><path d="M284.9,118.81c-.12.81-.16,1.65-1,2.06A2.33,2.33,0,0,1,284.9,118.81Z" fill="#b37e58"/><path d="M324.52,66.83l-.94-.56,1.17.36Z" fill="#dcbaa1"/><path d="M340.83,105.87a2.62,2.62,0,0,1-2.51-1C339.31,104.81,340.27,104.84,340.83,105.87Z" fill="#b37e58"/><path d="M326.65,68.1l-2.13-1.27.23-.2,2.14,1.19Z" fill="#b37e58"/><path d="M300.7,538.21c-2.1,1.46.83,5.3-2.85,6-3.15-2.06-6.7-.68-10-1.15,0-21.11.14-42.23,0-63.34-.08-10.32,2.75-19.92,6.22-29.42,3.71-10.17,9.66-19,16.67-27.19,1.06-1.24,2.07-2.66,4-2.78,0,10.45,1.42,20.83,1.34,31.3-.07,8.89-.91,17.71-4.45,25.77-4.28,9.74-6,19.92-7.39,30.24C302.79,517.81,301.84,528,300.7,538.21Z" fill="#dcbaa1"/><path d="M342,332.58c0,14.79-3.38,29.23-4.52,43.89-.33,4.27-2.1,6-6.2,6.48-1.87.22-4,.05-5.69,1.41l-13.71,1.2c-5.11-.55-10.39.38-15.29-1.85q-.9-18.56-1.78-37.12l4.67-2c6.38-1.05,12.15-4.15,18.39-5.56C326,337.21,333.3,332.23,342,332.58Z" fill="#181819"/><path d="M315.85,418.41l-.89,1.2Z" fill="#dcbaa1"/><path d="M421.61,162.68c4.77,9,6.48,18.76,8.11,28.63.65,3.89-2.07,7.65,0,11.43-.15,2.82-2.13,4.86-3.42,7.07-2.34,4-7,3.53-10.82-.53-7.56-8.05-9.78-18.17-10.63-28.58-.54-6.52-1-13.27,2.14-19.51,2.41-4.79,3-4.9,7-1.72C416.23,161.2,418.57,162.82,421.61,162.68Z" fill="#d6ad8e"/><path d="M388.72,197.69c-2.17,7,.13,13.87.54,20.8.07,1.13.17,2.25.25,3.38l-11.77,21.67a54,54,0,0,1-13,2.63q2-6.33,4-12.65l5.07-17.78a14.27,14.27,0,0,0-1-13.16c.25-2.43,2.47-4.27,2-6.9l0,0,1-1.07c.1-4.65,1.33-9.37-1-13.84.62-3,4.42-4.52,4-8.08v0a2,2,0,0,0,1-2,40.41,40.41,0,0,1,1-10.91c4.32,3.34,4,8.57,4.8,13.07,1.27,7.46,1.51,15.08,2.26,22.63A7.91,7.91,0,0,0,388.72,197.69Z" fill="#d6ad8e"/><path d="M306.68,160.64c4.16-2.63,9-1.83,13.48-2.31,9.48-1,17-4.85,22.6-12.6,4.55.08,5.23,4.14,7.13,7-6.09-.68-6.09-.68-6.09,5.64,0,1.81,0,3.61,0,5.42-2.52,1.76-4.55,4.15-7.84,4.9-5,1.13-9.83,2.63-14.7,4.14-9.52,2.95-14-.16-14.44-10.17C306.8,162,306.73,161.29,306.68,160.64Z" fill="#d6ad8e"/><path d="M343.81,163.74c0-1.81,0-3.61,0-5.42,0-6.32,0-6.32,6.09-5.64,9.58,5.41,20.26,6.06,30.84,7.13a40.41,40.41,0,0,0-1,10.91,2,2,0,0,0-1,2v0C365.83,174.69,354.53,170.36,343.81,163.74Z" fill="#dcbaa1"/><path d="M406.91,137.77c.86.73.81,1.4-.11,2C406.84,139.13,406.87,138.45,406.91,137.77Z" fill="#d6ad8e"/><path d="M425.83,330.43l-.33-1.7c.7-1.93.71-3.64,4-4.1,3-.42,3.67-5,5.78-7.57a15.74,15.74,0,0,0,3.46-7.53c3.06,2.61,6.05,5.33,10.17,6.21l-.8,1.45c-3.44,1.54-5.79,5-9.91,5.46-.53.05-.94,1.26-1.4,1.93-2.14.16-3.51,1.57-4.88,3l-.13.15C429.16,327.25,428.35,330.71,425.83,330.43Z" fill="#c69676"/><polygon points="362.44 67.44 362.15 67.52 362.19 67.28 362.44 67.44" fill="#b37e58"/><path d="M247.93,295.52c2.72-.46,2.66-2.93,2.82-4.65,1.17-13.36,2-26.64-.65-40.06a75.73,75.73,0,0,1,2.8-41.11c5-.67,6.48,3.09,8.26,6.47a21.15,21.15,0,0,1,2.78,8.44c.06.91-.34,2.29.95,2.5,1.52.25,1.66-1.24,2.07-2.29,2-5.13,5.24-9.57,8.43-14,.91-1.27,1.89-3.1,3.82-2.72s1.6,2.29,1.89,3.7c2,9.84-.15,19.36-2.08,28.93-2.36,11.65-8,22.06-12.23,33-2.82,7.31-4,15-5.77,22.54-.91,3.86,2.28,4.6,5,5.41,0,2.81-.07,5.62-.14,8.44-.14,6.43,0,12.92-3.8,18.61-.87-3.51-4-4.78-6.33-7a26.55,26.55,0,0,1-6.89-12.21C249.8,304.78,251,300,247.93,295.52Z" fill="#dcbaa1"/><path d="M257.87,202.72c.31-.55,1-1.15.88-1.65-2-13.65,1.66-26.19,7.25-38.39,3.55.34,6-2,8.25-4,2.9-2.56,4.12-1.29,5.69,1.2,4,6.37,3.33,13.49,2.75,20.31-.52,6-1.29,12-3.61,17.85a38.47,38.47,0,0,1-6.4,10.45c-4.95,5.92-8,5.78-12.22-.48C259.34,206.35,258.07,204.81,257.87,202.72Z" fill="#d6ad8e"/><path d="M622.73,349.56c-8.61-.18-6.88-.26-7.23,7.16-.17,3.55,1.13,7.26-.85,10.68a45.77,45.77,0,0,1-1.19-12.35q.07-31,0-61.9c0-4.83.17-9.59,2.08-14.26,0,4.94.18,9.9-.07,14.83-.16,3.26.48,5.12,4.23,4.56,2.11-.32,3.43.28,3.4,2.9C622.9,317.31,622.84,333.44,622.73,349.56Z" fill="#383838"/><path d="M642.36,330.47l-17.54,0c-1-13.09-1-12.79,11.77-13.22,5.22-.17,6.76,1.46,6,6.32A59.14,59.14,0,0,0,642.36,330.47Z" fill="#383838"/><path d="M280.24,279.94c2.52-14.28,8.71-27.29,14.1-40.58a9.64,9.64,0,0,1,1.42-1.89,30.55,30.55,0,0,0,13.16,5.73c11.31,3.75,23.18,4,34.84,5.6q0,35.31,0,70.61c-11.47.53-21.78,5.44-32.54,8.62-5.21,1.54-10.28,3.55-15.42,5.35l-1.93.07c-.22-1.48-.52-2.95-.64-4.43-1.33-16.33-3.41-32.44-12.54-46.69A6.65,6.65,0,0,1,280.24,279.94Z" fill="#181819"/><path d="M343.78,319.41q0-35.31,0-70.61c6.95-1.17,14.09-.86,21-2.63a54,54,0,0,0,13-2.63,30.58,30.58,0,0,0,14.05-6.06c6.57,12.72,11.92,25.91,15,40,.18.8.37,1.6.55,2.4-.59,4.6-3.83,8-5.56,12.11-5.6,13.27-6.41,27.41-8,41.43a3.53,3.53,0,0,0-.92.05c-12.76-4.16-25.5-8.36-38.28-12.45A40,40,0,0,0,343.78,319.41Z" fill="#383838"/><path d="M342,332.58c-8.71-.35-16,4.63-24.13,6.46-6.24,1.41-12,4.51-18.39,5.56-2.16-6.59-3.61-5.86,4.05-8.29,8.68-2.75,17.33-5.62,26-8.5a44,44,0,0,1,28.78,0q13.89,4.69,27.89,9c2.73.85,4.63,1.63,3,5-1.89,3.85,1.59,3.78,3.68,4.67l-1.89,37.68c-9.64,2.1-19.3.65-29,.13-.13-.1-.25-.3-.38-.3-9.37-.2-11.84-5.48-12.24-14.18-.54-11.55-2.75-23-4.15-34.53C344.94,333.32,344.65,331.74,342,332.58Z" fill="#383838"/><path d="M255.89,333.38a21,21,0,0,0-3.14,7.12c-2.61,2.24-4.78,2.72-7.63-.23-2.43-2.52-6.1-4.27-9.2-5.35-4.91-1.71-8.94-2.84-8.14-9.13,0-.35-.52-.78-.81-1.18l-1-3.27c.29-.15.7-.22.85-.45,2.13-3.45,4.14-6.72,8.48-2.17,1.46,1.53,2.57-.25,3.51-1.36a7.38,7.38,0,0,1,3.65,1.19c4.08,3.05,8.27,6,12.41,8.93C256.1,329.3,256,331.35,255.89,333.38Z" fill="#dcbaa1"/><path d="M254.88,327.48c-4.14-3-8.33-5.88-12.41-8.93a7.38,7.38,0,0,0-3.65-1.19c0-.55-.07-1.1-.1-1.65a24.48,24.48,0,0,0,10.18-6.18,26.55,26.55,0,0,0,6.89,12.21c2.32,2.21,5.46,3.48,6.33,7-.08.57-.17,1.14-.25,1.71C259.09,330.52,257.9,326.84,254.88,327.48Z" fill="#c69676"/><path d="M392.85,333.43a3.53,3.53,0,0,1,.92-.05c2.12,1.26,4.52,1.69,6.85,2.36,4,1.15,7.71,3.72,12.12,1.75l5.62-1.11,1.5,2.21c0,.63.07,1.25.11,1.87-9.75,6.85-18.79,1.08-27.78-1.95C389.09,337.46,391.53,335,392.85,333.43Z" fill="#d8d8d8"/><path d="M293.89,333.45l1.93-.07c1.92,3.89.38,5.67-3.58,6.53-5.62,1.22-10.82,4.3-16.87,3.62-5.07-.57-7.36-3.26-6-7.27l5.55,1.24C281.87,339.16,287.66,335.3,293.89,333.45Z" fill="#d8d8d8"/><path d="M436.77,324.58c.46-.67.87-1.88,1.4-1.93,4.12-.42,6.47-3.92,9.91-5.46,1.88,1.32,3.46,2.63,5.77.14,1.72-1.85,3.92-1,5.34,1.14.7,1.06,1,2.49,2.45,2.89l-1,3.31c-1.15.82-1,2.06-.88,3.17.18,2,.38,3.08-2.24,4.23-4.51,2-8.58,5-13.34,6.58a4.68,4.68,0,0,0-1.52,1.13c-4.28,3.92-5,3.83-7.89-1.07l-3-5.34c0-1.89,0-3.77,0-5.66l.13-.15C433.26,326.15,438,330.33,436.77,324.58Z" fill="#dcbaa1"/><path d="M461.64,321.36c-1.48-.4-1.75-1.83-2.45-2.89-1.42-2.17-3.62-3-5.34-1.14-2.31,2.49-3.89,1.18-5.77-.14l.8-1.45c2.29-.34,4.59-.6,6.86-1C461,313.73,462.8,315.78,461.64,321.36Z" fill="#7b7a79"/><path d="M238.72,315.71c0,.55.06,1.1.1,1.65-.94,1.11-2,2.89-3.51,1.36-4.34-4.55-6.35-1.28-8.48,2.17-.15.23-.56.3-.85.45-1.15-5.55.6-7.5,5.9-6.61C234.15,315.11,236.44,315.39,238.72,315.71Z" fill="#7b7a79"/><path d="M280.74,138.8c0,.66.07,1.33.1,2C279.89,140.18,279.83,139.51,280.74,138.8Z" fill="#d6ad8e"/><path d="M431.76,327.71c0,1.89,0,3.77,0,5.66-4.52.46-7,5.49-11.88,5.22l-1.5-2.21c1.47-3.26,5.3-3.56,7.47-5.95C428.35,330.71,429.16,327.25,431.76,327.71Z" fill="#acacac"/><path d="M364.72,246.17c-6.87,1.77-14,1.46-21,2.63-11.66-1.59-23.53-1.85-34.84-5.6-2.51-7-6.42-13.33-9.61-20-.15-.31-.88-.34-1.34-.5.54-4.91,1.14-9.82,1.63-14.74.34-3.46.48-6.93-.65-10.31,1.39-4.54,1.46-9.27,1.88-13.94A114.65,114.65,0,0,1,304,163.86c.38-1.42.92-2.87,2.68-3.22.05.65.12,1.31.15,2,.45,10,4.92,13.12,14.44,10.17,4.87-1.51,9.75-3,14.7-4.14,3.29-.75,5.32-3.14,7.84-4.9,10.72,6.62,22,10.95,34.94,9,.46,3.56-3.34,5-4,8.08a11.49,11.49,0,0,1-6.22-1.12c-4-2.29-8.5-3.42-13-4.5s-8.46-1-11.78,2.6a11.65,11.65,0,0,0-10.62-2.9c-5.37,1.11-10.73,2.63-15.3,5.63-2,1.29-4.72.11-6,2.68-1.81,3.52-.81,6.95.51,10.08a6.12,6.12,0,0,0,7.16,3.36c8.37-1.81,16.84-3.42,24.31-8,5.38,4.3,12.27,4.48,18.38,6.77a17.74,17.74,0,0,0,12.55.25c.45,2.63-1.77,4.47-2,6.9-3.06.78-6,1-9.07-.36-5-2.22-10.36-3-15.68-4a2.56,2.56,0,0,0-3.2,1.48c-5.66-2.16-11-.38-16.39,1.25-3.13.94-6.29,3.45-9.41,2.44-5.6-1.81-5.56,1.64-6.18,5.21-.53,3,1,5.38,2.1,7.92,0,6.12,3.52,11.26,4.54,17.18a28.86,28.86,0,0,1,3.26-14.88c7.29,1.3,14.53,2.14,21.19-2.33,3.62,3,7.82,3.6,12.35,3.23,2.78-.23,5.58-.13,8.37-.17,3.27,4.1,2.66,9.34,4.07,14Q366.71,239.85,364.72,246.17Z" fill="#c69676"/><path d="M412.74,337.49c-4.41,2-8.15-.6-12.12-1.75-2.33-.67-4.73-1.1-6.85-2.36,1.57-14,2.38-28.16,8-41.43,1.73-4.11,5-7.51,5.56-12.11C410.53,298.92,410.81,318.28,412.74,337.49Z" fill="#31b0b8"/><path d="M391.79,237.48a30.58,30.58,0,0,1-14.05,6.06l11.77-21.67Z" fill="#b37e58"/><path d="M364.62,219.54c-2.79,0-5.59-.06-8.37.17-4.53.37-8.73-.25-12.35-3.23.26-5.6-1.1-11.28.89-16.79a2.56,2.56,0,0,1,3.2-1.48c5.32,1,10.72,1.79,15.68,4,3.1,1.4,6,1.14,9.07.36a14.27,14.27,0,0,1,1,13.16Z" fill="#dcbaa1"/><path d="M343.82,177.78c3.32-3.63,7.46-3.64,11.78-2.6s8.94,2.21,13,4.5a11.49,11.49,0,0,0,6.22,1.12c2.32,4.47,1.09,9.19,1,13.84l-1,1.07,0,0a17.74,17.74,0,0,1-12.55-.25c-6.11-2.29-13-2.47-18.38-6.77Q343.83,183.22,343.82,177.78Z" fill="#dcbaa1"/><path d="M364.62,219.54l9.14-3.8-5.07,17.78C367.28,228.88,367.89,223.64,364.62,219.54Z" fill="#b37e58"/><path d="M378.74,172.74a2,2,0,0,1,1-2A2,2,0,0,1,378.74,172.74Z" fill="#c69676"/><path d="M374.74,195.71l1-1.07Z" fill="#c69676"/><path d="M436.77,324.58c1.27,5.75-3.51,1.57-4.88,3C433.26,326.15,434.63,324.74,436.77,324.58Z" fill="#acacac"/><path d="M293.89,333.45c-6.23,1.85-12,5.71-19,4.05,1.87-19.18,2.32-38.5,5.35-57.56a6.65,6.65,0,0,0,.47,2.39c9.13,14.25,11.21,30.36,12.54,46.69C293.37,330.5,293.67,332,293.89,333.45Z" fill="#31b0b8"/><path d="M298,222.7c.46.16,1.19.19,1.34.5,3.19,6.67,7.1,13,9.61,20a30.55,30.55,0,0,1-13.16-5.73Q296.87,230.09,298,222.7Z" fill="#b37e58"/><path d="M344.79,199.69c-2,5.51-.63,11.19-.89,16.79-6.66,4.47-13.9,3.63-21.19,2.32-2.93.35-5.22-1.45-7.8-2.29-1.06-2.54-2.63-4.89-2.1-7.92.62-3.57.58-7,6.18-5.21,3.12,1,6.28-1.5,9.41-2.44C333.78,199.31,339.13,197.53,344.79,199.69Z" fill="#d6ad8e"/><path d="M343.82,177.78q0,5.43,0,10.88c-7.47,4.55-15.94,6.16-24.31,8a6.12,6.12,0,0,1-7.16-3.36c-1.32-3.13-2.32-6.56-.51-10.08,1.33-2.57,4.09-1.39,6-2.68,4.57-3,9.93-4.52,15.3-5.63A11.65,11.65,0,0,1,343.82,177.78Z" fill="#d6ad8e"/><path d="M314.91,216.51c2.58.84,4.87,2.64,7.8,2.29a28.92,28.92,0,0,0-3.26,14.89C318.43,227.77,314.89,222.63,314.91,216.51Z" fill="#b37e58"/></g></g></svg>