<svg xmlns="http://www.w3.org/2000/svg" viewBox="0 0 685.68 621.71"><title>asset_2</title><g id="Layer_2" data-name="Layer 2"><g id="Layer_1-2" data-name="Layer 1"><path d="M427.26,589.85c3.16-6.44-1.62-10.83-4.11-15.79-.63-1.24-2.51-1.73-2.21-4.26,7.58,3.83,14.88,7.37,18.46,15.53,2,4.62.12,8.43-2.9,11.75-6.19,6.83-14.26,10.66-22.77,13.68a169.69,169.69,0,0,1-43.51,9c-10.38.83-20.74,2.3-31.16,1.86-19.3-.82-38.66-1.94-57.33-7.22-10.21-2.89-20.67-5.94-29.2-12.76-11.64-9.33-10.77-15.7-1.72-24.29A31.68,31.68,0,0,1,263.93,570c-3.74,5-7.27,9.91-8,16.25-.15,1.36-.49,2.64.87,3.58-.61,4,1.89,6.1,5,7.58,7,3.26,14.2,2.33,21.37,1,5.31-1,9-4,10.18-9.53,1.66-1.18,1.7-3.11,2.13-4.81,1.2-4.66.74-9.35.1-14,2.75-3.22,1.69-7.81,4-11.19,5.49.29,10.81-1.29,16.22-1.51,11.06-.43,22.08-2.11,33.16-1.34,11.83.81,23.64,1.89,35.46,2.86,2.46,3.6,1.66,8.28,3.94,11.94-1,5.62-1.4,11.15,2.2,16.13.18.7-.28,1.68.87,2l-.1-.11a7.48,7.48,0,0,0,4.49,7.62c8.94,4,18.17,4.81,27.3.57C426,595.64,428.28,593.56,427.26,589.85Z" fill="#ebece6"/><path d="M278.73,282.22c.1-6.2,1.91-12.07,4-17.79,3.17-8.65,6.72-17.17,10.1-25.74a2.55,2.55,0,0,1,1.74-1.62c3.89,3.86,9,5,14,6.27a48.18,48.18,0,0,0,12.12,2.47c7.16,1.68,14.55,1.62,21.79,2.7-.45,26.32,1.09,52.66-.84,78.95-2,16.35-4.19,32.68-6,49.05-.38,3.44-1,5.4-4.92,5.84-2.31.25-5,.23-7,1.87l-13.05,1c-5.22-.51-10.64.55-15.6-2-1-21.57-2-43.13-4.46-64.6C289.12,305.73,286.56,293.11,278.73,282.22Z" fill="#181818"/><path d="M341.67,327.47c1.93-26.3.39-52.64.84-79l20.66-2.59a53.48,53.48,0,0,0,13.23-2.77c4.87-1,9.61-2.3,13.23-6.05,2.44.91,2.34,3.38,3.1,5.24,4.56,11.17,9.75,22.1,12.08,34.08a38.68,38.68,0,0,1,.66,5.84,23.25,23.25,0,0,0-1.48,1.95c-7.09,11.86-9.58,25-10.78,38.51-1.81,20.36-3.57,40.71-3.7,61.16-9.65,2.08-19.32,1-29,.32-2.27-1.52-5-1.51-7.54-2-2.71-.53-4-1.75-4.26-4.5-1.31-11.81-2.51-23.64-4.26-35.38C343.71,337.35,344.49,332.05,341.67,327.47Z" fill="#3c3d3c"/><path d="M451.41,270.91c21.14-16.18,34.28-36.52,39.42-61.91,2.26-11.14,2-22.36,1.58-33.63-.12-3.17-2.25-3.5-4.3-3.62-3.94-.25-7.9-.07-12.72-.07,6-7.86,11.52-15.27,17.17-22.6,4.36-5.64,8.95-11.11,13.21-16.82,1.67-2.23,2.41-3,4.55-.25,9.95,13,20.14,25.8,31,39.61-4,0-7,.15-10,0-2.86-.19-3.92.57-4.23,3.75-1.66,16.9-5.35,33.27-13.8,48.27-12.52,22.2-31.15,37.06-54.93,45.66C456.37,270,454.53,271.41,451.41,270.91Z" fill="#f8b46c"/><path d="M208.6,171.67c-4.5,0-8.18.28-11.79-.08s-4.78,1.58-4.91,4.57c-.74,17,.29,33.76,6.59,49.92,6.82,17.47,17.86,31.62,32.28,43.35.38.31.9.5.43,1.65-5.45-1.12-10.59-3.55-15.58-6-32.6-16.13-51.05-42.63-56.8-78.29-.22-1.31-.51-2.6-.75-3.91-.65-3.54,1.31-8.15-1.54-10.46-2.68-2.17-7.07-.46-10.69-.77a18.12,18.12,0,0,1-2.06-.49c2.5-3.27,4.74-6.27,7-9.23,7.61-9.82,15.27-19.61,22.82-29.48,1.78-2.34,3-3,5.13-.23,9.37,12.28,18.9,24.42,28.35,36.62A22.19,22.19,0,0,1,208.6,171.67Z" fill="#f8b46c"/><path d="M421.38,108.89c3-3-1.37-6.61.93-9.85.77-1.1.79-2.66,2.33-3.44,5.29-2.69,10.46-5.6,15.77-8.25s10.57-3.61,16-.46a15.67,15.67,0,0,0,6,10.1c4.27,9,1.18,18.13.41,27.09-1.07,12.48-2.3,25-3.62,37.41-1.49,14-.44,28.46-5.91,41.91-2.76,6.78-6.56,12.87-12.81,17.08-6,.14-8.37-3.87-10.51-8.7-5-11.24-5.18-22.82-1.77-34.2,4-13.24,9.21-26.1,13.66-39.21,1.05-3.07.45-5.8-1.7-9C435.35,122,426.74,116.48,428,106c.05-.44-.35-.92-.48-1.4-.22-.84-.56-1.65-1.54-1.67s-1.18.86-1.63,1.57c-1.27,2,0,4.74-2.16,6.38A2,2,0,0,1,421.38,108.89Z" fill="#ddbaa1"/><path d="M228.78,86.84C236,81.68,242,87,248.23,89.2a54.66,54.66,0,0,1,10.42,5.55c3.3,2.06,5.46,4.79,2.93,8.91-3.75-2.21-5.07-1.62-5,3.18.1,7.89-4.51,13.89-9.75,19.28-2.72,2.8-5.85,5.77-4.71,9.77,2.48,8.72,5.84,17.18,8.64,25.82,4.19,12.94,10.41,25.6,6.93,39.84-2,8-4.36,15.89-12.85,19.73-10.62-7.39-15.77-17.95-17-30.47-2.21-22.2-4.07-44.44-6.15-66.66-.43-4.6-1.07-9.18-1.82-13.74-.78-4.75.72-9.11,1.9-13.55a13.24,13.24,0,0,0,4.54-6.17C228.15,90.07,228.44,88.44,228.78,86.84Z" fill="#ddbaa1"/><path d="M403.72,380.68c-.87,8.71-1.08,17.39.56,26.05a10,10,0,0,1,.06,4c-2.67,11.54,1.48,22.59,2.48,33.85,1,10.94.6,21.83.3,32.75,0,1.47-.59,2.94-.58,4.41,0,17.9-1.66,35.76-1.12,53.68.23,7.75,0,7.76-7.9,7.27,0-6.64-.42-13.32.09-19.92,1.36-17.54,2-35.12-.32-52.54-2.25-16.9-7.84-32.67-20.8-44.79-1.57-1.47-1.49-4.73-4.75-4.37-5.46-8.57-8.16-18.13-9.93-28a84,84,0,0,0,22.33-5.89c2.48-1,5.79-.43,7.37-3.4Z" fill="#d6ac8e"/><path d="M310.65,385.22l13.05-1c-1.62,12.93-4.09,25.61-11.33,36.81-2.86.62-4.33,3-6,5a77.88,77.88,0,0,0-11.86,18.58,99.26,99.26,0,0,0-8.9,37.74c-.49,14.43,1.37,28.78,1,43.18-.14,5.73-1.4,11.45,0,17.17-7.95.45-8.11.44-7.92-7.43.48-19.26-.07-38.54-1.35-57.71-1.19-18,.19-35.6,3-53.32,1.18-7.45.32-15.24.28-22.88a20.37,20.37,0,0,1,1.21-7.31C291.6,391.59,301.46,389.5,310.65,385.22Z" fill="#d6ac8e"/><path d="M371.75,421c3.25-.36,3.17,2.9,4.74,4.37,13,12.12,18.55,27.89,20.8,44.79,2.32,17.42,1.68,35,.32,52.54-.51,6.6-.09,13.28-.09,19.92-3.37,0-7-2.46-9.94,1.28l-2.08-2.14c.25-12.47-2.33-24.67-3.7-37-.83-7.53-1.49-15.13-4.65-22.2a76.15,76.15,0,0,1-6.7-28.78C370.09,442.85,371.34,432,371.75,421Z" fill="#ddbaa1"/><path d="M286.62,542.67c-1.39-5.72-.13-11.44,0-17.17.35-14.4-1.51-28.75-1-43.18a99.26,99.26,0,0,1,8.9-37.74A77.88,77.88,0,0,1,306.37,426c1.67-2,3.14-4.35,6-5,.66,3.93.57,7.94.82,11.89a174.92,174.92,0,0,1-.28,30.27c-1.4,12.79-9.09,23.67-9.91,36.69-.89,14-4.19,27.78-4.3,41.89a3.76,3.76,0,0,1-2.16,2.19C293.62,540.61,290.05,542.19,286.62,542.67Z" fill="#ddbaa1"/><path d="M297.82,198.41c-3.53-9.68-7.16-19.33-8.28-29.69,0-.37-.55-.7-.84-1-2.39-4.12-4.46-8.48-7.27-12.29-2.05-2.79-3.42-5-1.12-8.26a2.46,2.46,0,0,0-.67-3.53q-.93-8.91-1.87-17.81l3.85-.16c-.05,1.16,0,2.33-.14,3.48-1.31,10.28,7.41,20.35,17.83,20.45q12,.1,23.93,0c8.69-.08,15.29-5,16.53-13.5a95.08,95.08,0,0,0-.23-28.23,9,9,0,0,1,5-.06,19.89,19.89,0,0,0-2.21,11c.17,4,0,8,0,12A18.83,18.83,0,0,0,361,149.57c7.15.09,14.3,0,21.45,0,14.36,0,22.83-10,20.21-23.93l3.73.06c.21,1.09.89,2.37.54,3.23-1.94,4.71-1.15,9.81-2.29,14.61-2.12,1.88-1.05,3.54.41,5.08,1.29,1.36,2.14,3,.42,4.27-4.34,3.25-6.22,8-8.07,12.82-1.59-.68-.19-3.44-2.72-3.34.28,2.54.54,4.93.79,7.32q-4.11,13.78-8.23,27.55a5.17,5.17,0,0,1-1.62-4,78.11,78.11,0,0,0-1.15-15.2c-.83-5.28-.61-10.85-3.74-15.58-1-1.49-1.71-2.92-4-3-9.8-.26-19.19-2.32-27.85-7.12-.29-1.38-1.32-2.25-2.22-3.22-4.58-5-4.54-4.95-9,.38-3.91,4.65-9.35,6.44-15,8-4.84,1.36-9.86.59-14.72,1.67-2,.44-3.51.88-3.34,3.29a2.06,2.06,0,0,0-2,1.85c-1,4.82-2.17,9.61-3,14.48C298.4,185.36,299.48,192,297.82,198.41Z" fill="#b37e58"/><path d="M369.6,39.78c5.11,1.29,2.67,5.42,2.74,8.25A9.13,9.13,0,0,1,367,56.69a3.92,3.92,0,0,0-2.58,3.22c-1.19,7.21-1.69,14.4.3,21.55-1.51,2.37-2.53,5,1,6.14,3.18,1,6.41,2.38,9.92,2.1,4.64,3,10.14,4.66,14,8.92-10-1.53-20.08-.86-30.12-1-4.29.12-7.8-2.86-12-3A11.42,11.42,0,0,1,349,89.56a87.26,87.26,0,0,0,6.49-14.9h0a1.78,1.78,0,0,0,1.09-1.9c-.07-1.43,2.27-2,1.17-4.28-4.74,2.73-9.06,6.83-15.12,5.09a92.63,92.63,0,0,1-1-9.35q-.17-21,0-41.91c0-3.74,1.86-7.47,0-11.21a31.29,31.29,0,0,1,18.51,4.36c1.54.87,3.6,1.77,3.34,3.92-.94,7.79,4.37,14.44,3.53,22.75Z" fill="#ddbaa1"/><path d="M297.82,198.41c1.66-6.42.58-13,1.7-19.55.84-4.87,2-9.66,3-14.48a2.06,2.06,0,0,1,2-1.85c.34.54.9,1,1,1.6,1.43,8.71,4.14,10.56,12.76,8.45,5.59-1.36,11.14-2.87,16.71-4.32,2.8-.73,5.23-2,6.58-4.74,5.52,5.69,13.46,5.35,20.19,8,5.7,2.28,11.38,2.82,16.75-1-.9,3.71-3.27,6.69-5,10-4.63.91-8.09-2.22-12.12-3.4-6.21-1.82-12.71-5.58-18.82.45-3.57-3.67-7.78-3.37-12.4-2.45-5.92,1.17-11,4.4-16.56,6.19-2.84.91-3.75,2.16-4,4.68-.82,8.64,3.8,12.58,12.15,9.85,7-2.29,14.56-3.05,20.83-7.38,10,5.2,20,10.56,31.91,6a30,30,0,0,1-4.05,7.92c-3.63,1.37-6.87.11-10.36-1-5.65-1.71-11.31-4.75-17.51-1.91-5.64-2.3-11-.23-16.33,1.2-3.15.84-6.27,3.37-9.37,2.44-4.45-1.33-4.85,1.33-5.15,4.08s-.67,5.61.89,8.2c-1.42,1-.27,2,0,3,2.22,9.26,7.05,17.74,8.11,27.33a48.18,48.18,0,0,1-12.12-2.47c-4-7.26-8.51-14.21-11.82-21.82.34-4.61.35-9.28,1.15-13.81A24,24,0,0,0,297.82,198.41Z" fill="#c69675"/><path d="M341.6,11.09c1.88,3.74,0,7.47,0,11.21q-.15,21,0,41.91a92.63,92.63,0,0,0,1,9.35,16.13,16.13,0,0,1-12.84-3.16c-1.47-1.14-3-2.59-5-2.8l-.66-.35.37.64c.33,2.44,3.16,3.4,3.42,5.87l.76.81.14.1c2.23,6.68,5.84,12.72,8.79,19.06,0,.32,0,.63,0,1l-12,3a21,21,0,0,0-7.83-1l-23.19,1.88a20.1,20.1,0,0,1,7-4.9l1.07-.93.09-.05c4.07-1.33,8-3.18,12.23-3.85,5.19-.83,6.45-3.57,5.65-8.14-.44-8,1.5-16.13-2.07-23.81-1.28-4.84-.78-9.8-1-14.71-1.59-6.21,2.64-11.42,3-17.3.45-8.12,1.27-9.29,9-11.92C333.38,11.65,337.39,10.63,341.6,11.09Z" fill="#d6ac8e"/><path d="M403.72,380.68l-12.21,3.05-2,.15c.13-20.45,1.89-40.8,3.7-61.16,1.2-13.52,3.69-26.65,10.78-38.51a23.25,23.25,0,0,1,1.48-1.95c2.49,6.26,2.09,13,2.69,19.46,1.76,19.15,2.89,38.35,4.31,57.53a57.65,57.65,0,0,0,.94,7.88c1.38,6.4-1.46,10.08-7.35,11.84A5.93,5.93,0,0,0,403.72,380.68Z" fill="#31b0b8"/><path d="M594,170.66c-1.43-5.68-2.85-11.36-2.83-17.3.06-14.42-.14-28.84.13-43.25.07-4-1.13-5.25-5-4.8-2.62.31-5.3.15-7.95.21a19.54,19.54,0,0,1-.33-6.9l.07-.05c2.81,0,5.65-.21,8.43.08,4.38.44,5.25-1.5,4-5.22,1.21-3.06.52-6.24.54-9.36.1-12.47.2-24.94,0-37.4-.12-7.36,1.67-14.32,3.24-21.37.11,8.26.29,16.53.34,24.8.06,9.63,0,9.72,9.73,9.86,2.62,0,3.84.48,3.82,3.5-.16,24.71-.17,49.41-.22,74.11-2.63,0-5.29.25-7.91,0-4-.32-5.16,1.48-5.06,5.25.21,7.57.11,15.16,0,22.74C595.05,167.33,595.73,169.29,594,170.66Z" fill="#303030"/><path d="M278.73,282.22c7.83,10.89,10.39,23.51,11.86,36.43,2.43,21.47,3.45,43,4.46,64.59-5.23.9-9.64-2.41-14.61-2.86-.84-.52-1.64-1.1-2.51-1.55-8.05-4.11-8-4.54-7-13.41,1.2-10.5,1.88-21.06,2.77-31.59q2.08-24.94,4.19-49.89A5.58,5.58,0,0,1,278.73,282.22Z" fill="#31b0b8"/><path d="M404.6,143.57c1.14-4.8.35-9.9,2.29-14.61.35-.86-.33-2.14-.54-3.23,5.88.28,11.49-.47,16.34-4.19,2.47-.52,3.29-1.71,2.07-4.2-1-2.08-2.47-4-2.58-6.49,2.12-1.64.89-4.41,2.16-6.38.45-.71.66-1.6,1.63-1.57s1.32.83,1.54,1.67c.13.48.53,1,.48,1.4-1.25,10.51,7.36,16.07,12.2,23.36,2.15,3.24,2.75,6,1.7,9-4.45,13.11-9.68,26-13.66,39.21-3.41,11.38-3.22,23,1.77,34.2,2.14,4.83,4.48,8.84,10.51,8.7-5.81,2.66-10.28.55-14.08-4-9.76-17.14-6-34.27,1.13-51.75-2.45.67-2.57,2-3.14,2.93-4.52,7.33-6.67,15.45-7.92,23.87-3.22-1-6.28-2.7-7.75-5.72-4.43-9.14-4.48-18.7-1.79-28.36,1-3.4,2.68-3.66,5.39-1.58s5.71,3.88,8.54,5.87,4.63,1.55,6.85-1.44c2.05-2.78,1.91-6.2,3.83-8.84,1.92-2.93,2.67-6.34,3.76-9.59,3-8.83,2.19-11-5.56-16.53-.66,1.18.51,2.17.38,3.29-1.38,1.59-1.42,3.54-1.81,5.49-1.7,8.7-7.3,16.65-19,11.59C407.77,145.05,406.72,143.09,404.6,143.57Z" fill="#d6ac8e"/><path d="M277.78,125.79l1.86,17.81c-1.22.45-2.49.8-3.67,1.36-9.93,4.73-16,1.9-19.6-8.65-1.09-3.22.36-6.63-1.39-9.63-2.89-.56-8.83,5.31-7.92,8.49,1.52,5.27,1.9,11.05,5.82,15.44,1.38,1.06.9,2.76,1.33,4.13,2.62,8.24,5,9.24,12.39,4.89a38.47,38.47,0,0,0,3.79-2.33c1.53-1.16,2.74-3.5,5-2.47,2.44,1.12,3.17,3.75,3.25,6.26.15,5,.7,10-.11,14.88-1.12,6.63-2.73,13.52-10.83,15.55-2.21-14-5.51-22.47-10.05-25.14.87,2.76,1.63,5.26,2.45,7.73,4,12,5.76,24,.63,36.23-.82,1.94-2.28,3.72-2,6-3.82,3.94-8.21,6.25-13.9,4.9,8.49-3.84,10.89-11.71,12.85-19.73,3.48-14.24-2.74-26.9-6.93-39.84-2.8-8.64-6.16-17.1-8.64-25.82-1.14-4,2-7,4.71-9.77,5.24-5.39,9.85-11.39,9.75-19.28-.06-4.8,1.26-5.39,5-3.18.07,1.32.15,2.65.22,4,0,.35-.07.7-.11,1-1,.62-1.09,1.26,0,1.92.05.74.1,1.48.14,2.22,0,1.74-1.07,3-1.93,4.32-1.69,2.54-.3,3.4,1.88,4C266.23,125.6,272.19,125.08,277.78,125.79Z" fill="#d6ac8e"/><path d="M75.14,168.51a64.3,64.3,0,0,1-2.42-22.75q.07-29.14.13-58.29c0-11.29-.09-22.57-.14-33.86q-.06-5.85-.14-11.69c.09-.4.17-.81.26-1.21Q74,33.87,75.12,27c1.58,1.28.93,3.07,1,4.63.08,5.82,0,11.63,0,17.44,0,10.49,0,10.57,10.26,10.89,2.46.08,3.56.58,3.55,3.32-.14,24.74-.16,49.49-.22,74.24-4.37.71-10.13-1.93-12.85,1.26s-.49,8.62-.82,13.07C75.61,157.4,77.07,163.05,75.14,168.51Z" fill="#303030"/><path d="M42.89,109.77c-1-4-3.69-4.62-7.54-4.48-9.6.34-19.21.11-28.81.11C0,105.4,0,105.4.22,98.76c11.88-.07,23.77-.37,35.65-.09,4.61.1,6.38-1.21,5.45-5.75.12-.65.23-1.29.35-1.94l.21-1.36c.38-1.05.54-2.34,2.2-1.92-.85,3.46,0,5.34,4.07,4.91a47.57,47.57,0,0,1,8.93,0c4,.33,5.18-1.19,4-4.88.53-11.24-.7-22.54,1.14-33.73,1.92,5.12.68,10.43.8,15.65.07,3,.8,4.36,3.91,4,2.46-.32,4,.15,3.93,3.32-.2,15.88-.19,31.75-.26,47.63-7.49.35-7.38.35-7.55,8.07-.06,2.65,1,5.52-.91,8-1.95-7.45-.51-15-.93-22.56-.12-2.13-.09-4.26-.13-6.4.82-4.7-1-6.7-5.84-6a18.09,18.09,0,0,1-4.93,0C46.75,105.2,44,106,42.89,109.77Z" fill="#3c3d3c"/><path d="M373.51,180.52c1.73-3.29,4.1-6.27,5-10,.13-2.85-.71-6,2.18-8.06,3.13,4.74,2.91,10.31,3.74,15.59a78.11,78.11,0,0,1,1.15,15.2,5.17,5.17,0,0,0,1.62,4c-3.32,5.72-.5,11.62-.3,17.4.09,2.57.61,5.19.55,7.83L376.4,243.15a53,53,0,0,1-13.23,2.76l9.33-30.35c-.29-4.45,1.12-9.16-2.05-13.16a29.69,29.69,0,0,0,4.06-7.92l0,0c.73-.34.65-.69,0-1C374.64,189.11,375.56,184.71,373.51,180.52Z" fill="#d6ac8e"/><path d="M267.68,191.52c8.1-2,9.71-8.92,10.83-15.55.81-4.83.26-9.92.11-14.88-.08-2.51-.81-5.14-3.25-6.26-2.24-1-3.45,1.31-5,2.47a38.47,38.47,0,0,1-3.79,2.33c-7.35,4.35-9.77,3.35-12.39-4.89-.43-1.37,0-3.07-1.33-4.13-.73-8.1-.76-16.14,2.1-23.93,1.75,3,.3,6.41,1.39,9.63C260,146.86,266,149.69,276,145c1.18-.56,2.45-.91,3.67-1.36a2.46,2.46,0,0,1,.67,3.53c-2.3,3.24-.93,5.47,1.12,8.26,2.81,3.81,4.88,8.17,7.27,12.29-1.5,11-2.5,22.21-9,31.83-.5-.7-.8-.64-.89.23l.12-.07c-4.6,1.69-7.52,6.24-13.36,7.54C268.16,202,267.68,196.72,267.68,191.52Z" fill="#c69675"/><path d="M431.57,151.5c-1.92,2.64-1.78,6.06-3.83,8.84-2.22,3-4,3.43-6.85,1.44s-5.81-3.77-8.54-5.87-4.44-1.82-5.39,1.58c-2.69,9.66-2.64,19.22,1.79,28.36,1.47,3,4.53,4.67,7.75,5.72a44.23,44.23,0,0,0,1.79,15.68c-2.73-.57-4.12-2.45-6-3.17-2.44-.93-3.48-4.56-6.86-3.53-5.87-7.17-6.69-16.14-8.79-24.65-.5-2-.79-4.12-1.19-6.18-.25-2.39-.51-4.78-.79-7.32,2.53-.1,1.13,2.66,2.72,3.34,1.85-4.84,3.73-9.57,8.07-12.82,1.72-1.28.87-2.91-.42-4.27-1.46-1.54-2.53-3.2-.41-5.08,2.12-.48,3.17,1.48,4.77,2.18,11.67,5.06,17.27-2.89,19-11.59.39-1.95.43-3.9,1.81-5.49C432.48,136.17,431,143.9,431.57,151.5Z" fill="#c69675"/><path d="M228.78,86.84c-.34,1.6-.63,3.23-2.49,3.85-4.09-2.7-5.41,2.12-8.18,3-3.54-.65-6.15-3.07-9-4.91a18.06,18.06,0,0,0-16.13-2.06c-16.52,5.32-33.1,10.46-49.66,15.69-7,2.21-14.3,2.62-21.58,2.88-5.3.2-10.6.15-15.9.21,1.07-6.91,1.07-7-5.65-6.9-2.29,0-4.63-.39-6.86.47L93,93.59c4.6.08,9.21-.51,13.79.31.39,1.87-.91,4.81,2.7,4.74,11.07-.22,22.16,1,33.05-2.85,13-4.61,26.34-8.05,39.31-12.64,13.51-4.78,26.23-5.48,38,4.19,3.35,2.76,3.69-.65,4.92-2.29Z" fill="#adadad"/><path d="M93,93.59c.1,1.83.19,3.66.29,5.49s.4,3.92.59,5.87a3,3,0,0,0,.07.78c-1.7,1.46-.92,3.43-.93,5.16C93,125,93,139.17,93,153.3c0,3,.15,6.21-2.73,8.35l-.54-24.12c.06-24.75.08-49.5.22-74.24,0-2.74-1.09-3.24-3.55-3.32-10.26-.32-10.26-.4-10.26-10.89,0-5.81.06-11.62,0-17.44,0-1.56.62-3.35-1-4.63-.19-2.42,1.18-3,3.33-3.22,10.27-1,10.5-.5,12.63,9.45C94.53,49.32,92.3,65.53,93,81.67,93.12,85.64,93,89.62,93,93.59Z" fill="#cacac9"/><path d="M608,137.57c0-24.7.06-49.4.22-74.11,0-3-1.2-3.46-3.82-3.5-9.72-.14-9.67-.23-9.73-9.86,0-8.27-.23-16.54-.34-24.8,1.87-1.3,11.65-2.16,12.93-1A3,3,0,0,1,608,26c1.11,7.81,3.72,15.42,3.13,23.48-.12,1.55-1.06,3.9,1.87,4.31-1.71,6.31-1.58,12.76-1.57,19.22q.07,27.94,0,55.88a59.35,59.35,0,0,0,1.45,14.81c-2.55.36-1.76,2.37-1.79,3.84-.08,4.88.14,9.77-1,14.59-.27,1.14-.16,2.32-1.66,2.57Q608.22,151.12,608,137.57Z" fill="#cacac9"/><path d="M578,98.62a19.54,19.54,0,0,0,.33,6.9c-4.35-1.49-8.87-.92-13.28-.71-10.74.52-21-1.46-31.13-4.79-14-4.59-28-8.83-42-13.25-6-1.89-11.63-1.56-17,2.15-2.7,1.88-5.69,3.35-8.55,5-1.78-1.08-3.39-2.28-3.28-4.68,6.11-7.57,20-11.71,29.72-8.75,11.24,3.4,22.64,6.38,33.6,10.52A117.53,117.53,0,0,0,578,98.62Z" fill="#adadad"/><path d="M341.6,11.09c-4.21-.46-8.22.56-12.12,1.89-7.74,2.63-8.56,3.8-9,11.92-.32,5.88-4.55,11.09-3,17.3l-2.93-2.41c0-4,.33-8,0-11.94C312.91,7.71,333.87-4.08,351,1.3,362.83,5,370.59,15.44,369.61,26.84c-.38,4.28,0,8.62,0,12.94L367,42.12c.84-8.31-4.47-15-3.53-22.75.26-2.15-1.8-3.05-3.34-3.92A31.29,31.29,0,0,0,341.6,11.09Z" fill="#303030"/><path d="M612.92,143.66a59.35,59.35,0,0,1-1.45-14.81q.1-27.93,0-55.88c0-6.46-.14-12.91,1.57-19.22l.24-2.58c1.36,5.4.41,10.89.57,16.33.19,6.42,0,6.42,6.83,5.4,1.42,4.5.15,9.15.74,13.7a215.67,215.67,0,0,0,0,25.17q-.17,6.42-.32,12.86c-7,.11-6.81.12-7,7.26-.13,4.23,1,8.56-.82,12.67A4.79,4.79,0,0,0,612.92,143.66Z" fill="#3c3d3c"/><path d="M578,98.62A117.53,117.53,0,0,1,526.46,91c-11-4.14-22.36-7.12-33.6-10.52-9.75-3-23.61,1.18-29.72,8.75-1.33-.4-3-.43-2.94-2.46,7.35-10.13,22.18-14.37,35.5-10.4,18,5.36,35.59,11.94,53.79,16.57,5.26,1.34,10.54.49,15.8.71,4.3.18,8.61.06,12.92.08l-.12,4.82Z" fill="#d6d6d6"/><path d="M224.73,85.05c-1.23,1.64-1.57,5-4.92,2.29-11.73-9.67-24.45-9-38-4.19-13,4.59-26.35,8-39.31,12.64-10.89,3.87-22,2.63-33,2.85-3.61.07-2.31-2.87-2.7-4.74,2.33-.07,4.66-.31,7-.17a94,94,0,0,0,37.52-5.54c13.4-4.74,27.13-8.59,40.78-12.59,8.29-2.43,16.07-.78,23.17,4.09A43.38,43.38,0,0,0,224.73,85.05Z" fill="#d6d6d6"/><path d="M89.69,137.53l.54,24.12a62.89,62.89,0,0,1-.36,6.88c-.32,2.12,1.44,5.39-1.24,6.17A19.62,19.62,0,0,1,77,174.61c-1.78-.61-2.22-3.72-1.86-6.1,1.93-5.46.47-11.11.88-16.65.33-4.45-1.76-10,.82-13.07S85.32,138.24,89.69,137.53Z" fill="#585858"/><path d="M608,137.57q.24,13.55.49,27.09c0,.49-.07,1-.09,1.48-.48,9.18-.48,9-9.84,9.09-3.51,0-4.85-1.24-4.6-4.57,1.78-1.37,1.1-3.33,1.11-5.06.07-7.58.17-15.17,0-22.74-.1-3.77,1.07-5.57,5.06-5.25C602.7,137.82,605.36,137.6,608,137.57Z" fill="#585858"/><path d="M70.58,124.53c.07-15.88.06-31.75.26-47.63,0-3.17-1.47-3.64-3.93-3.32-3.11.41-3.84-1-3.91-4-.12-5.22,1.12-10.53-.8-15.65.26-2,.41-4,3.14-4,2.28,0,4.64-.5,4.89,3,.08,1.23,1.54.78,2.48.67.05,11.29.14,22.57.14,33.86q0,29.15-.13,58.29l-1.8-.17Q70.76,135.06,70.58,124.53Z" fill="#adadad"/><path d="M685,98.63c1.31,6.54,1.15,6.76-5.25,6.76q-16.37,0-32.73,0c-1.6,0-3.34.47-4.69-.9l.63-6Z" fill="#3c3d3c"/><path d="M261.79,112.81c0-.74-.09-1.48-.14-2.22s0-1.28,0-1.92c0-.34.07-.69.11-1l3.58.87a3.44,3.44,0,0,1,2.36,2.94c-1.43,4.42.56,6.69,5.93,7.26,7.93.83,14.63-3.38,21.94-5.06,1.68,1.84.38,5.61,4,6.2-5.82,2.47-12.32,2.84-18,5.79l-3.85.16c-5.58-.71-11.54-.19-16-4.65C263.56,118.38,268.21,115.63,261.79,112.81Z" fill="#adadad"/><path d="M385.5,541.79l2.08,2.14c-.14,4,2.58,7,3.77,10.58,2.78,8.35,4.69,16.77,4.07,25.61a13.48,13.48,0,0,0,6,12.69c-4.33,1.07-6.88-2.25-10-4.09l.1.11-.87-2c-3.6-5-3.21-10.51-2.2-16.13,2.81-8.56-.28-15.85-4.92-22.8C383.38,545.64,383.65,543.46,385.5,541.79Z" fill="#cacac9"/><path d="M296.54,544a3.76,3.76,0,0,0,2.16-2.19c2.66,1.41,1.81,3.93,1.93,6.13a41.7,41.7,0,0,0-2.74,4.68c-2.34,5.58-4.87,11.18-2.21,17.41.64,4.69,1.1,9.38-.1,14-.43,1.7-.47,3.63-2.13,4.81-3.54.62-5.56,5-9.78,3.91,4.44-4,5.19-9.06,5.1-14.84a58.22,58.22,0,0,1,6.43-28.25A8.92,8.92,0,0,0,296.54,544Z" fill="#d6d6d6"/><path d="M294.52,98.59l23.19-1.88a21,21,0,0,1,7.84,1c-3.36.8-6.31,3-9.9,3-5,0-10,0-14.94,0-5.72,0-10,3.17-12.21,8.86-4.05,2.07-8.22,3.7-12.91,3.26-.58-4.37,1.11-7.89,4.12-10.91Z" fill="#c69675"/><path d="M41.32,92.92c.93,4.54-.84,5.85-5.45,5.75-11.88-.28-23.77,0-35.65.09-.8-4.35.52-6.08,5.4-5.93C17.51,93.2,29.42,92.93,41.32,92.92Z" fill="#adadad"/><path d="M359.46,97.67c10,.09,20.11-.58,30.12,1l14.88,3.28c3.9,2.54,5,6.37,5,10.74-4.84,1.26-8.86-1.21-13.05-2.88-2.39-6-6.65-9.09-12.52-9.12-5.44,0-10.88,0-16.32,0C364.57,100.4,362.09,98.84,359.46,97.67Z" fill="#c69675"/><path d="M641.15,104.72a3.35,3.35,0,0,1-.41.88l-17.59.05c-.07-.82-.19-1.64-.21-2.47-.22-10.59-.22-10.59,10.46-10.59,7.41,0,7.4,0,7.42,7.69C640.83,101.76,641,103.24,641.15,104.72Z" fill="#303030"/><path d="M267.68,191.52c0,5.2.48,10.43-2.12,15.69,5.84-1.3,8.76-5.85,13.36-7.54-.24,2.57-2.12,4-3.95,5.33-5.36,3.87-10.82,7.6-16.24,11.38-.3-2.32,1.16-4.1,2-6,5.13-12.18,3.38-24.21-.63-36.23-.82-2.47-1.58-5-2.45-7.73C262.17,169.05,265.47,177.51,267.68,191.52Z" fill="#b37e58"/><path d="M405.41,200.55c3.38-1,4.42,2.6,6.86,3.53,1.9.72,3.29,2.6,6,3.17a44.23,44.23,0,0,1-1.79-15.68c1.25-8.42,3.4-16.54,7.92-23.87.57-.93.69-2.26,3.14-2.93-7.12,17.48-10.89,34.61-1.13,51.75C418.75,212.08,411.14,207.55,405.41,200.55Z" fill="#b37e58"/><path d="M283.67,592.75c4.22,1.09,6.24-3.29,9.78-3.91-1.19,5.53-4.87,8.52-10.18,9.53-7.17,1.37-14.4,2.3-21.37-1-3.16-1.48-5.66-3.53-5-7.58,1.84,1.35,3.54,2.95,6.06,2.95C269.83,592.75,276.75,592.76,283.67,592.75Z" fill="#3c3d3c"/><path d="M391.42,588.72c3.14,1.84,5.69,5.16,10,4.09,6.59.18,13.18-.77,19.78,0,2.58.28,4.22-1.53,6-2.92,1,3.71-1.31,5.79-4.05,7.06-9.13,4.24-18.36,3.41-27.3-.57A7.48,7.48,0,0,1,391.42,588.72Z" fill="#3c3d3c"/><path d="M685,98.63l-42-.1c0-1.6,0-3.21.08-4.81,12.72,0,25.46.09,38.18-.21C685.66,93.4,684.93,96.08,685,98.63Z" fill="#adadad"/><path d="M280.44,380.38c5,.45,9.38,3.76,14.61,2.86,5,2.53,10.38,1.47,15.6,2-9.19,4.28-19,6.37-28.8,8.8C280.34,389.58,280.84,384.94,280.44,380.38Z" fill="#b37e58"/><path d="M70.58,124.53q.18,10.53.34,21.06c0,.63,0,1.25-.07,1.88L70,148.6c-7.73.28-7.73.28-7.91-8,2-2.47.85-5.34.91-8C63.2,124.88,63.09,124.88,70.58,124.53Z" fill="#585858"/><path d="M643.07,93.72c0,1.6-.05,3.21-.08,4.81l-.63,6-1.21.23c-.12-1.48-.32-3-.33-4.44,0-7.69,0-7.69-7.42-7.69-10.68,0-10.68,0-10.46,10.59,0,.83.14,1.65.21,2.47a14.14,14.14,0,0,0,.16,5.83l-1.91.29a215.67,215.67,0,0,1,0-25.17c3.48,0,7,.43,10.42,0C637.66,86,641.77,87.48,643.07,93.72Z" fill="#cacac9"/><path d="M620.68,72.9c-6.78,1-6.64,1-6.83-5.4-.16-5.44.79-10.93-.57-16.33,4.77-3,6.94-1.85,7.93,3.21a71.85,71.85,0,0,1,.84,14.18C622.05,70.09,622.7,72,620.68,72.9Z" fill="#cacac9"/><path d="M613.23,144.56c1.86-4.11.69-8.44.82-12.67.22-7.14.07-7.15,7-7.26.62,6.77,0,13.53,0,20.3,0,2.52-.27,4-3.38,3.81S612.28,148.64,613.23,144.56Z" fill="#585858"/><path d="M296.78,221.52c3.31,7.61,7.85,14.56,11.82,21.82-5.06-1.25-10.15-2.41-14-6.27C295.17,231.87,295.23,226.59,296.78,221.52Z" fill="#b37e58"/><path d="M376.4,243.15l11.05-20.65a84.64,84.64,0,0,1,2.18,14.6C386,240.85,381.27,242.14,376.4,243.15Z" fill="#b37e58"/><path d="M623.31,111.48a14.14,14.14,0,0,1-.16-5.83l17.59-.05c1.25,4.45-.12,6.45-5,6C631.6,111.26,627.45,111.5,623.31,111.48Z" fill="#585858"/><path d="M42.89,109.77c1.13-3.77,3.86-4.57,7.4-4.12a18.09,18.09,0,0,0,4.93,0c4.81-.72,6.66,1.28,5.84,6-4.75,0-9.5,0-14.25-.09C45.32,111.51,43.35,112.21,42.89,109.77Z" fill="#585858"/><path d="M61.06,87.71c1.2,3.69,0,5.21-4,4.88a47.57,47.57,0,0,0-8.93,0C44,93,43.23,91.16,44.08,87.7,49.74,86.42,55.4,87.32,61.06,87.71Z" fill="#cacac9"/><path d="M314.58,39.79l2.93,2.41c.24,4.91-.26,9.87,1,14.71-5.38-.64-6.24-5-6.65-9C311.6,45.17,309.51,41.05,314.58,39.79Z" fill="#ddbaa1"/><path d="M93.88,105q-.28-2.92-.59-5.87c2.23-.86,4.57-.45,6.86-.47,6.72,0,6.72,0,5.65,6.9l-3.64-.05a1.7,1.7,0,0,0-2.41,0H96.2Z" fill="#303030"/><path d="M279.71,101.84c-3,3-4.7,6.54-4.12,10.91-2.76.44-5.21-1-7.85-1.31a3.44,3.44,0,0,0-2.36-2.94C269.28,104.41,274.29,102.68,279.71,101.84Z" fill="#d6ac8e"/><path d="M409.43,112.64c.07-4.37-1.07-8.2-5-10.74,5.25,1,10.39,2.25,14,6.69l-1.07,1.93C414.72,111.19,412.44,113.27,409.43,112.64Z" fill="#d6ac8e"/><path d="M320.6,80.72c.8,4.57-.46,7.31-5.65,8.14-4.18.67-8.16,2.52-12.23,3.85Z" fill="#bb835e"/><path d="M578.09,98.57l.12-4.82,12.35-.32c1.21,3.72.34,5.66-4,5.22C583.74,98.36,580.9,98.58,578.09,98.57Z" fill="#adadad"/><path d="M417.38,110.52l1.07-1.93,2.93.3a2,2,0,0,0,.8,2c.11,2.46,1.57,4.41,2.58,6.49,1.22,2.49.4,3.68-2.07,4.2-1.53-1.59-2.11-4-4.26-5.05Z" fill="#b37e58"/><path d="M460.2,86.79c0,2,1.61,2.06,2.94,2.46-.11,2.4,1.5,3.6,3.28,4.68a6,6,0,0,1-4,3.06,15.67,15.67,0,0,1-6-10.1C457.65,86,458.9,85.48,460.2,86.79Z" fill="#b37e58"/><path d="M375.6,89.7c-3.51.28-6.74-1.06-9.92-2.1-3.54-1.15-2.52-3.77-1-6.14C368.35,84.16,373.09,85.46,375.6,89.7Z" fill="#bb835e"/><path d="M218.11,93.7c2.77-.89,4.09-5.71,8.18-3a13.24,13.24,0,0,1-4.54,6.17C220.52,95.83,218.54,95.65,218.11,93.7Z" fill="#585858"/><path d="M93.88,105l2.32.47-2.25.31A3,3,0,0,1,93.88,105Z" fill="#adadad"/><path d="M99.75,105.41a1.7,1.7,0,0,1,2.41,0Z" fill="#adadad"/><path d="M41.88,89.62,41.67,91C41.14,90.43,41.31,90,41.88,89.62Z" fill="#adadad"/><path d="M278.8,199.74c.09-.87.39-.93.89-.23Z" fill="#b37e58"/><path d="M72.83,40.71c-.09.4-.17.81-.26,1.21C71.84,41.34,72.2,41,72.83,40.71Z" fill="#adadad"/><path d="M70,148.6l.82-1.13C71.05,148.19,70.76,148.55,70,148.6Z" fill="#adadad"/><path d="M302.63,92.76l-1.07.93Z" fill="#bb835e"/><path d="M300.63,547.9c2.33,3.87-1,7.24-1,10.9-2.3,3.38-1.24,8-4,11.19-2.66-6.23-.13-11.83,2.21-17.41A41.7,41.7,0,0,1,300.63,547.9Z" fill="#585858"/><path d="M384.51,558.81c.22-3.67-3.09-7-1-10.86,4.64,6.95,7.73,14.24,4.92,22.8C386.17,567.09,387,562.41,384.51,558.81Z" fill="#585858"/><path d="M390.65,586.88l.87,2C390.37,588.56,390.83,587.58,390.65,586.88Z" fill="#3c3d3c"/><path d="M372.5,215.56l-9.33,30.35-20.66,2.6c-7.24-1.08-14.63-1-21.79-2.7-1.06-9.59-5.89-18.07-8.11-27.33-.25-1-1.4-2,0-3,8.26,5.54,22.52,5.63,29.82.19,2.32,2.94,5.31,3.88,9.08,3.93C358.84,219.65,366,219.22,372.5,215.56Z" fill="#bb835e"/><path d="M361.81,393c-.18-3-1.67-5.76-1.3-8.82,9.68.65,19.35,1.76,29-.32l2-.15c-1.58,3-4.89,2.41-7.37,3.4A84,84,0,0,1,361.81,393Z" fill="#b37e58"/><path d="M402.62,125.67c2.62,13.92-5.85,23.94-20.21,23.93-7.15,0-14.3.06-21.45,0a18.83,18.83,0,0,1-18.55-18.82c0-4,.13-8,0-12a19.89,19.89,0,0,1,2.21-11c3.81-.45,7.13,1.33,10.61,2.35,10.5,3.09,20.66,7.29,31.37,9.7A90.74,90.74,0,0,0,402.62,125.67Z" fill="#ddbaa1"/><path d="M281.62,125.63c5.67-2.95,12.17-3.32,18-5.79,10.25-3.37,20.49-6.79,30.76-10.09,3-1,5.88-2.4,9.17-1.92a95.08,95.08,0,0,1,.23,28.23c-1.24,8.46-7.84,13.42-16.53,13.5q-12,.12-23.93,0c-10.42-.1-19.14-10.17-17.83-20.45C281.62,128,281.57,126.79,281.62,125.63Z" fill="#ddbaa1"/><path d="M339.54,107.83c-3.29-.48-6.2,1-9.17,1.92-10.27,3.3-20.51,6.72-30.76,10.09-3.62-.59-2.32-4.36-4-6.2a2,2,0,0,0,.19-.79c10.9-2.32,21.24-6.45,31.8-9.83a46,46,0,0,1,29.32.07c10.38,3.44,20.87,6.58,31.31,9.85a.91.91,0,0,0,.33.69q-1,3.11-2,6.19c-10.71-2.41-20.87-6.61-31.37-9.7-3.48-1-6.8-2.8-10.61-2.35A9,9,0,0,0,339.54,107.83Z" fill="#303030"/><path d="M341.57,163.52c-1.35,2.76-3.78,4-6.58,4.74-5.57,1.45-11.12,3-16.71,4.32-8.62,2.11-11.33.26-12.76-8.45-.1-.57-.66-1.06-1-1.6-.17-2.41,1.33-2.85,3.34-3.29,4.86-1.08,9.88-.31,14.72-1.67,5.62-1.58,11.06-3.37,15-8,4.49-5.33,4.45-5.36,9-.38.9,1,1.93,1.84,2.22,3.22-7.22-.47-7.22-.47-7.22,7.19C341.58,160.9,341.57,162.21,341.57,163.52Z" fill="#d6ac8e"/><path d="M341.57,163.52c0-1.31,0-2.62,0-3.94,0-7.66,0-7.66,7.22-7.19,8.66,4.8,18.05,6.86,27.85,7.12,2.33.06,3.07,1.49,4,3-2.89,2.09-2.05,5.2-2.18,8-5.37,3.84-11.05,3.3-16.75,1C355,168.87,347.09,169.21,341.57,163.52Z" fill="#ddbaa1"/><path d="M386.56,119.82q1-3.09,2-6.19c9.77,2.94,19.33,8,29.87,2.86,2.15,1.06,2.73,3.46,4.26,5.05-4.85,3.72-10.46,4.47-16.34,4.19l-3.73-.06A90.74,90.74,0,0,1,386.56,119.82Z" fill="#adadad"/><path d="M388.23,112.94c-10.44-3.27-20.93-6.41-31.31-9.85A46,46,0,0,0,327.6,103c-10.56,3.38-20.9,7.51-31.8,9.83l-1.26-4.16a4,4,0,0,1,3.14-2c6.31-1,12-3.86,18-6,3.59,0,6.54-2.18,9.9-3l12-3,1.05-.05,3.93-.07,4.92.11c4.23.14,7.74,3.12,12,3,2.63,1.17,5.11,2.73,8.08,3,.62,1,1.68.77,2.59,1.06,6.61,2.06,13.3,3.94,19.54,7A7.47,7.47,0,0,1,388.23,112.94Z" fill="#adadad"/><path d="M324.73,67.6c2.07.21,3.57,1.66,5,2.8a16.13,16.13,0,0,0,12.84,3.16c6.06,1.74,10.38-2.36,15.12-5.09,1.1,2.28-1.24,2.85-1.17,4.28a2,2,0,0,0-1.09,1.9h0c-1.15.06-2.47.06-3.07,1.14-2.21,4-5.86,4.17-9.72,4-4,.27-7.81,0-10.38-3.78-.8-1.17-2.18-1.32-3.51-1.34l-.15-.1-.76-.81c-.26-2.47-3.09-3.43-3.42-5.87Z" fill="#b37e58"/><path d="M342.65,79.79c3.86.18,7.51,0,9.72-4,.6-1.08,1.92-1.08,3.07-1.14A87.26,87.26,0,0,1,349,89.56a11.42,11.42,0,0,0-1.52,5.11l-4.92-.11Q342.59,87.18,342.65,79.79Z" fill="#c69675"/><path d="M355.47,74.65a2,2,0,0,1,1.09-1.9A1.78,1.78,0,0,1,355.47,74.65Z" fill="#c69675"/><path d="M373.51,180.52c2.05,4.19,1.13,8.59,1,12.94,0,.35,0,.7,0,1l0,0c-11.88,4.54-21.88-.82-31.91-6-.41-3.63-2.2-7.26,0-10.89,6.11-6,12.61-2.27,18.82-.45C365.42,178.3,368.88,181.43,373.51,180.52Z" fill="#ddbaa1"/><path d="M342.45,215.64c-7.3,5.44-21.56,5.35-29.82-.19-1.56-2.59-1.19-5.47-.89-8.2s.7-5.41,5.15-4.08c3.1.93,6.22-1.6,9.37-2.44,5.36-1.43,10.69-3.5,16.33-1.2Q342.52,207.59,342.45,215.64Z" fill="#d6ac8e"/><path d="M342.57,177.57c-2.17,3.63-.38,7.26,0,10.89-6.27,4.33-13.83,5.09-20.83,7.38-8.35,2.73-13-1.21-12.15-9.85.24-2.52,1.15-3.77,4-4.68,5.59-1.79,10.64-5,16.56-6.19C334.79,174.2,339,173.9,342.57,177.57Z" fill="#d6ac8e"/><path d="M342.45,215.64q.07-8.05.14-16.11c6.2-2.84,11.86.2,17.51,1.91,3.49,1.07,6.73,2.33,10.36,1,3.16,4,1.75,8.71,2,13.16-6.55,3.66-13.66,4.09-21,4C347.76,219.52,344.77,218.58,342.45,215.64Z" fill="#ddbaa1"/><path d="M342.65,79.79q-.07,7.38-.14,14.77l-3.93.07-1-.9c-3-6.34-6.56-12.38-8.79-19.06,1.34,0,2.72.17,3.52,1.34C334.84,79.81,338.64,80.06,342.65,79.79Z" fill="#bb835e"/><path d="M327.85,73.76l.76.81Z" fill="#bb835e"/><path d="M324.43,67.89l-.37-.64.66.35Z" fill="#b37e58"/><path d="M337.54,93.73l1,.9-1.05.05C337.54,94.36,337.54,94.05,337.54,93.73Z" fill="#c69675"/><path d="M261.79,112.81c6.42,2.82,1.77,5.57-.05,8.33-2.18-.61-3.57-1.47-1.88-4C260.72,115.83,261.84,114.55,261.79,112.81Z" fill="#585858"/><path d="M261.69,108.67c0,.64,0,1.28,0,1.92C260.6,109.93,260.71,109.29,261.69,108.67Z" fill="#ddbaa1"/><path d="M374.48,194.51c0-.35,0-.7,0-1C375.13,193.82,375.21,194.17,374.48,194.51Z" fill="#c69675"/><path d="M294.54,108.69l1.26,4.16a2,2,0,0,1-.19.79c-7.31,1.68-14,5.89-21.94,5.06-5.37-.57-7.36-2.84-5.93-7.26,2.64.33,5.09,1.75,7.85,1.31,4.69.44,8.86-1.19,12.91-3.25Z" fill="#d6d6d6"/><path d="M294.54,108.69l-6,.81c2.2-5.7,6.49-8.84,12.21-8.87,5,0,10,0,14.94,0-5.94,2.14-11.66,5-18,6A4,4,0,0,0,294.54,108.69Z" fill="#ddbaa1"/><path d="M388.23,112.94a7.39,7.39,0,0,0,1.43-4.18c2.37-.5,4.53.36,6.72,1,4.19,1.67,8.21,4.14,13.05,2.88,3,.63,5.29-1.45,7.95-2.12l1.05,6c-10.54,5.12-20.1.08-29.87-2.86A.91.91,0,0,1,388.23,112.94Z" fill="#d6d6d6"/><path d="M396.38,109.76c-2.19-.64-4.35-1.5-6.72-1-6.23-3.1-12.92-5-19.53-7-.91-.29-2-.1-2.59-1.06,5.44,0,10.88,0,16.32,0C389.73,100.67,394,103.8,396.38,109.76Z" fill="#ddbaa1"/></g></g></svg>