<svg xmlns="http://www.w3.org/2000/svg" viewBox="0 0 580.55 724.48"><title>ex_5_1</title><g id="Layer_2" data-name="Layer 2"><g id="Layer_1-2" data-name="Layer 1"><path d="M105.94,336.63c0-.5-.21-1.12,0-1.48,10.53-16.83,13.21-36.2,17.91-54.93,8.37-33.4,19.48-65.7,38-95.06C180,156.44,205.57,136.6,236,122.39c8.3-1.94,16.67-2.71,25.1-.94,15.24,3.21,25.62,12.31,31.69,26.51.69,9.13,5.23,17,8.29,25.33.62,1.68,1.82,3.21,1.42,5.17L299.8,180a260.92,260.92,0,0,1-27.67,12.44c-13.22,5-26.9,8.41-40.4,12.47-7.27-8.51-12.91-17.87-15.26-29,.3-2.47-.51-4.74-1.35-7,.14,3-.92,6.1.37,9.08.58,11.54,7.54,20.26,13.18,29.53,1.2,2,3.16,1.33,4.94.72l1.14.63c2.14,2.75,4.16,5.6,6.43,8.24,6.71,7.78,13.52,15.48,20.29,23.21-8.41.74-13.93,5.2-17.48,12.8-9.12,19.53-18.48,38.94-27.72,58.4-5.82,12.25-4,20,6.63,28.12-3,4.3-3.42,10-7.11,13.93-2.29-.76-4.61-.31-6.92-.23-21.79.79-43.5.54-65-3.69A156.05,156.05,0,0,1,105.94,336.63Z" fill="#040404"/><path d="M105.94,336.63a156.05,156.05,0,0,0,37.91,13c21.52,4.23,43.23,4.48,65,3.69,2.31-.08,4.63-.53,6.92.23-.08,3-1.77,5.33-2.9,7.87-1.07,2.37-.86,3.43,1.8,4.28,14.15,4.52,27.5,10.95,40.53,18,25.2,13.59,50.22,27.53,71.16,47.49,3.8,3.62,8,7,10.13,12.07C314,447.67,293,455.15,277,472.78c-11.22-.79-22.45-1.44-33.65-2.4-12.18-1.05-24.34-2.4-36.5-3.62l-30.06-3c-11.5-1.65-23-3.2-34.49-5-27.68-4.26-44.08-22-51.82-47.19-8.23-26.84-.77-51.74,14.62-74.54C105.23,336.81,105.65,336.76,105.94,336.63Z" fill="#86878a"/><path d="M243.83,538.38q-100.4,0-200.8-.13c-2.93,0-4,.59-4,3.8q.15,68.66,0,137.31c0,3.77,1.71,4.21,4.5,3.77,4.5-.71,6,.93,5.71,5.56-.41,7.8-.22,15.64-.06,23.46.06,3-.38,4.43-4,4.31-8.48-.3-17-.24-25.47,0-3.16.09-3.93-.92-3.86-3.94.2-8.32.23-16.65,0-25-.1-3.42.74-5.08,4.35-4.39,4.8.92,6-1,6-5.8q-.3-66.92,0-133.82c0-4.61-1.33-5.58-5.55-5.32-5.81.37-11.65,0-17.48.14-2.4,0-3.16-.78-3.14-3.15.1-10.49.13-21,0-31.46,0-2.62.77-3.44,3.4-3.38,7.49.16,15,.07,22.48.07,1.06,3.05,3.66,1.75,5.56,1.75q108.41.1,216.8.06c2.83,0,5.65.09,8.48.14A63.91,63.91,0,0,0,246,526.74C245.24,530.61,245.31,534.64,243.83,538.38Z" fill="#575859"/><path d="M243.83,538.38c1.48-3.74,1.41-7.77,2.2-11.64a63.91,63.91,0,0,1,10.69-24.35c7.26-9.52,14.69-18.93,20.26-29.61,16-17.63,37-25.11,59.53-29.5,6.24,5.7,8.64,13.27,10.38,21.17.5,6.57-2.19,12.09-5.16,17.76-3.59,6.87-9.72,12.06-12.31,19.51-2.13,1.5-3,3.93-4.19,6-5.56,9.61-9,20.18-13.33,30.34q-14.34,29.65-28.67,59.34c-5.51,11.45-11,22.95-13.85,35.43a28.08,28.08,0,0,0,1.28,16.51,9.42,9.42,0,0,1-6.43,4.24c-13.36,2.84-26.48,2.18-39.19-3.19,3.16-1.81,3.06-5.4,4.06-8.19,6.13-17,11.26-34.26,14.36-52,.79-4.53.29-9.28.3-13.93C243.81,563.64,243.81,551,243.83,538.38Z" fill="#fbd1a5"/><path d="M222.9,339.66c-10.6-8.13-12.45-15.87-6.63-28.12,9.24-19.46,18.6-38.87,27.72-58.4,3.55-7.6,9.07-12.06,17.47-12.8,3.78,3.49,7.5,7,11.33,10.45q19.68,17.5,39.43,34.94c.31.81.38,1.81,1.5,2l0,0c-.33,2.91,1.71,5,2.92,7.2q22,40.4,44.26,80.63c7.15,13,4.92,24.22-7.32,37.05-2.66.82-5.05,2.25-8,2.31-11.37.21-20-4.37-25.49-14.32-11.16-20.2-22.2-40.48-33.28-60.73-8.11-14.83-16.2-29.66-24.66-45.15-1,2-1.84,3.38-2.53,4.83-4.68,9.73-9.27,19.51-14,29.21-3.44,7-9.14,10.73-17,10.95-1.27,0-2.69-.5-3.73.74Z" fill="#7bc3d2"/><path d="M312.22,285.73q-19.73-17.46-39.43-34.94c-3.83-3.42-7.55-7-11.33-10.45-6.76-7.73-13.57-15.43-20.28-23.21-2.27-2.64-4.29-5.49-6.43-8.24,12.46-4.17,25.31-7.12,37.56-12,8.28-3.32,16.37-7,24.3-11.09,2-1,5.54-2,3.19-5.75l2.66-1.56c3.22,5.13,4,11.15,6.15,16.7,3.43,9,7.78,17.2,14.7,24.27,9.26,9.48,16.72,20.62,23.18,32.08,7.35,13.05,19.47,19.85,31.06,27.66,4.38,3,8.84,5.79,13.26,8.67-1.61,5.08-4.57,9.53-6.41,14.55-3,8.18-4.29,16.66-5.79,25.14-15.77-5.1-31-11.36-45.07-20.24-5.5-3.47-8.82-8.83-13-13.45-2.07-2.27-4-4.73-6.83-6.12l0,0A1.77,1.77,0,0,0,312.22,285.73Z" fill="#fbd1a5"/><path d="M277,472.78c-5.57,10.68-13,20.09-20.26,29.61-2.83-.05-5.65-.14-8.48-.14q-108.41,0-216.8-.06c-1.9,0-4.5,1.3-5.56-1.75,1.59-21.17,17.2-35.95,38.31-36,35.25-.09,70.5,0,105.75-.05,2.27,0,4.66.61,6.83-.67l30.06,3c12.16,1.22,24.32,2.57,36.5,3.62C254.53,471.34,265.76,472,277,472.78Z" fill="#7bc3d2"/><path d="M311.9,538.11c4.35-10.16,7.77-20.73,13.33-30.34,1.23-2.12,2.06-4.55,4.19-6,1.56.88,3.25.49,4.9.5l50.4,0c10.91,0,10.91,0,11-10.73q15,27,30,54c2.91,5.24,5.85,10.46,10,14.84C442,567,447.59,565.78,450.3,557c1.26-4.11,1.76-8.45,2.7-12.67.19-.88.26-2.16,1.54-2.26s1.53,1.09,2,1.91c4.19,7,2.63,20.95-3,26.76-4.28,4.41-9.57,4.85-15.16,3.52-.84,1.3.16,2,.55,2.78,17.2,33.2,34.55,66.33,51.58,99.63,2.49,4.87,5.1,7.21,10.85,6.67,6.54-.62,6.58-.13,6.58,6.43,0,7.65-.1,15.31.06,23,.05,2.73-.61,3.81-3.58,3.75-8.82-.18-17.64-.14-26.46,0-2.55,0-3.46-.65-3.42-3.35.16-9,.06-18,.05-27,0-.5-.18-1.28.06-1.45,5.28-3.81.42-6.9-1-9.69-23.23-45.07-46.7-90-69.91-135.07-2.05-4-3.61-4.09-7.25-2.13-14.48,7.82-29.18,15.22-43.69,23-3,1.59-4.42,1.61-5.94-1.69-2.64-5.73-5.88-11.17-8.6-16.87-1.37-2.89-3-4.16-6.41-4C325.21,538.49,318.55,538.17,311.9,538.11Z" fill="#575859"/><path d="M471.77,35.84c8.84,5.14,15,13,20.91,21,19.48,26.18,29.79,55.43,28.61,88.29-.13,3.78,1.82,4,4.37,4.39L574.94,157c1.75.27,3.59.23,5.61,1.66-8.06,6.36-15.78,12.55-23.59,18.62-18.23,14.15-36.55,28.2-54.7,42.45-2.37,1.86-3.53,2-5.49-.4q-30.13-37.78-60.45-75.44a7.77,7.77,0,0,1-.69-1.63c2.19-1,4.33-.34,6.32-.1,11.87,1.41,23.76,2.76,35.58,4.56,5,.77,7.26-.43,8.81-5.55,10.13-33.49,6.2-65.32-10.51-95.8l-4.75-8.72Z" fill="#f7b24e"/><path d="M265.69,101.16l-5.81-.7c7.74-3.82,5.84-9.14,4.14-14.54-3.77-11.93-7.17-24-4.26-36.65C264,31,272.93,16.07,290.91,8c2.55-1.14,4.88-2.78,7.4-4,2.06-1,4.61-4.81,5.05-3.83,1.83,4,5.26.2,6.18,1.49C313.07,6.58,317.3,3.37,321,3c9.12-1,17.16,1.09,24.24,6.8,6.21,5,13.68,8.2,19.51,13.74a58.15,58.15,0,0,1,8,9.55c2.26,3.31,4.77,5.78,9.78,2.22-1.93,4.55-5.67,4.45-8.28,6.21.91,1.64,4.51-.65,4.07,2.47-.34,2.44-2.09,4-4.58,4.76-2,.57-4.41-.62-6.1,1.35C360.47,51.45,353.54,53.86,346,53c-8.46-1-11.5.92-15.48,8.57a95.48,95.48,0,0,1-5,9.19c-1.8,2.69-4.53,3.6-7.88,2.77-3.53-.87-2.23-3.48-2.33-5.6-.29-6.73-2.65-10.45-7.07-11.1-5.74-.85-10.55,2.1-12.9,8-.37.92-.58,1.9-.86,2.85A31.13,31.13,0,0,0,294,80.46c.78,6-1.64,10.37-6.32,13.7A37.34,37.34,0,0,1,265.69,101.16Z" fill="#3a281a"/><path d="M265.69,101.16a37.34,37.34,0,0,0,21.95-7c4.68-3.33,7.1-7.69,6.32-13.7a31.13,31.13,0,0,1,.57-12.88c.28-1,.49-1.93.86-2.85,2.35-5.85,7.16-8.8,12.9-8,4.42.65,6.78,4.37,7.07,11.1.1,2.12-1.2,4.73,2.33,5.6,3.35.83,6.08-.08,7.88-2.77a95.48,95.48,0,0,0,5-9.19c4-7.65,7-9.6,15.48-8.57,7.52.91,14.45-1.5,21.58-2.88.15,2.32.51,4.61.76,6.91.8,7.35,3.05,14.54-4.32,21-5.06,4.43-4.07,11.9-2.5,18.38.43,1.76,1.3,3.42,1.83,5.17,1.12,3.74.16,6-4.2,6.47-3.26.33-5.3,1.46-7.11,5.31-1.45,3.12-3.9,8.46-9.33,8.53-3.13,0-3.73,2.37-4.66,4.44-2.54,5.69-5.33,6.81-10.93,3.67a111.58,111.58,0,0,1-12.95-8.4c-3.14-2.39-4.67-1-6.35,1.5a206.58,206.58,0,0,0-13.65,23.6c-.27.55-.95.89-1.44,1.32-6.07-14.2-16.45-23.3-31.69-26.51-8.43-1.77-16.8-1-25.1.94,2.82-4,7.41-5.35,11.36-7.58a127.32,127.32,0,0,0,16.56-10.87A3.67,3.67,0,0,0,265.69,101.16Z" fill="#fbd1a5"/><path d="M225,650.44c12.71,5.37,25.83,6,39.19,3.19a9.42,9.42,0,0,0,6.43-4.24c2.23-.75,1.9-5.33,4.7-4.17,2.63,1.1,1.13,4.49,1.25,6.87.27,5.69-1.16,11.8,4.29,16.11l.94.85.08.11c-1.5,2.92-3,5.85-4.5,8.75-.41.78-.78,1.61.15,2.13s1.47-.31,1.87-1c1.45-2.59,2.87-5.2,4.3-7.8,4.17.65,5.55,2.22,2.24,5.88a12,12,0,0,0-3,6.65c3.32-1.79,3.69-4.87,5.47-6.82,1.18-1.28,1.93-2.46,4-1.32,2.42,1.3,1.19,2.58.48,4a20.13,20.13,0,0,0-4.21,7c3.62-1.3,4-4.08,5.44-6,1.58-2.54,3.23-2.43,5.54-.64,2.57,2,.23,3.09-.41,4.49-.77,1.72-2.78,2.83-2.69,5,.45.16.83.41,1,.32,2.5-1.67,2.95-5.12,5.69-6.6,1.37,2.64,3.92,4,6.29,5.44,8.08,5,16.13,10.07,26.33,8.64a6.16,6.16,0,0,1,4.15,1.41c-1.15,9.49-7.79,15.38-17.46,15.62-18.53.47-36.54-3.59-54.63-6.59-16.34-2.72-32.12-8-47.83-13.14-3.88-1.28-9.31-1-10.74-6.67-2.08-8.67-.18-16.61,4.24-24.17a99.44,99.44,0,0,1,7.88-11.39C222.38,651.22,223.11,649.66,225,650.44Z" fill="#383b44"/><path d="M378.61,327.53c1.5-8.48,2.78-17,5.79-25.14,1.84-5,4.8-9.47,6.41-14.55,8.4-13,18.42-24.31,31.5-32.82a96.42,96.42,0,0,1,113.56,6.52c39.68,32.89,46.66,89.78,16.11,131.37-33,45-98.37,52-140.36,15.12-22-19.33-32.88-43.76-33-73C378.65,332.52,378.62,330,378.61,327.53ZM562.53,336c1.45-48.42-40.24-88.41-87.42-88.39-48.75,0-87.64,39.35-88.55,86.19-1,50.38,40.44,89.56,87.26,90C522,424.28,564,383.28,562.53,336Z" fill="#70b1bd"/><path d="M224.77,340.44c1-1.24,2.47-.7,3.74-.74,7.9-.22,13.6-3.91,17-10.95,4.74-9.7,9.33-19.48,14-29.21.69-1.45,1.48-2.84,2.53-4.83,8.46,15.49,16.55,30.32,24.66,45.15,11.08,20.25,22.12,40.53,33.28,60.73,5.5,10,14.12,14.53,25.49,14.32,3-.06,5.38-1.49,8-2.31,8.93,17.2,17.9,34.38,26.75,51.62,1,2,2.91,3.7,2.4,6.28a38.87,38.87,0,0,0-18.59-6.24c-7.6-14.76-15.23-29.51-22.77-44.3a4.27,4.27,0,0,0-4.21-2.64c-11.28-.45-19.28-5.93-24.65-15.86-13.17-24.4-26.54-48.69-39.84-73-3.77-6.88-7.57-13.75-11.76-21.35-3.73,7.84-7,14.87-10.4,21.87C245.05,340.29,236.84,343.94,224.77,340.44Z" fill="#585a5b"/><path d="M364.12,464.26a38.87,38.87,0,0,1,18.59,6.24l-.08-.09.94.86c6.86,5.07,10.4,12.12,12.15,20.25-.09,10.73-.09,10.73-11,10.73l-50.4,0c-1.65,0-3.34.38-4.9-.5,2.59-7.45,8.72-12.64,12.31-19.51,3-5.67,5.66-11.19,5.16-17.76Z" fill="#7bc3d2"/><path d="M209.38,687.89c1.43,5.62,6.86,5.39,10.74,6.67C235.83,699.73,251.61,705,268,707.7c18.09,3,36.1,7.06,54.63,6.59,9.67-.24,16.31-6.13,17.46-15.62,3.71,2.52,3.68,10.25-.05,13.15s-8.57,4.59-12,8.16a2.72,2.72,0,0,1-3.17.72c-2.13-.93-4,0-4.92,2-.66,1.35-1.93,1.91-2.76,1.4-3.29-2-6.28.21-9.38.36-7.39.34-14.57-1.11-21.78-2.24-19.7-3.08-39.39-6.21-58.75-11a80.92,80.92,0,0,1-19.88-7.8c-2-1.13-2.85-2.24-1.75-4.71C207.12,695.19,208.14,691.49,209.38,687.89Z" fill="#973241"/><path d="M283.74,671.21c-1.43,2.6-2.85,5.21-4.3,7.8-.4.72-.9,1.57-1.87,1s-.56-1.35-.15-2.13c1.52-2.9,3-5.83,4.5-8.75Z" fill="#d3d5d7"/><path d="M471.08,36.6c-.85-.46-2.25-1.49-1.89-1.84,1.17-1.13,1.85.32,2.58,1.08Z" fill="#f7b24e"/><path d="M383.57,471.27l-.94-.86C383.47,470.13,383.42,470.81,383.57,471.27Z" fill="#585a5b"/><path d="M281.84,669.05l-.94-.85Z" fill="#d3d5d7"/><path d="M299.8,180c2.35,3.78-1.15,4.71-3.19,5.75-7.93,4-16,7.77-24.3,11.09-12.25,4.91-25.1,7.86-37.56,12l-1.14-.62-1.88-3.34c13.5-4.06,27.18-7.51,40.4-12.47A260.92,260.92,0,0,0,299.8,180Z" fill="#e0b88f"/><path d="M231.73,204.93l1.88,3.34c-1.78.6-3.74,1.24-4.94-.73-5.64-9.27-12.6-18-13.18-29.53.33-.68.65-1.37,1-2C218.82,187.06,224.46,196.42,231.73,204.93Z" fill="#bc242a"/><path d="M216.47,176c-.33.68-.65,1.37-1,2-1.29-3-.23-6-.37-9.08C216,171.22,216.77,173.49,216.47,176Z" fill="#973241"/><path d="M312.22,285.73a1.77,1.77,0,0,1,1.5,2C312.6,287.54,312.53,286.54,312.22,285.73Z" fill="#fff"/><path d="M294.17,680.6c-1.41,1.92-1.82,4.7-5.44,6a20.13,20.13,0,0,1,4.21-7Z" fill="#fff"/><path d="M562.53,336c1.49,47.32-40.52,88.32-88.71,87.83-46.82-.47-88.25-39.65-87.26-90,.91-46.84,39.8-86.16,88.55-86.19C522.29,247.55,564,287.54,562.53,336ZM475,346.84a11.19,11.19,0,0,0,11-11.16,11.25,11.25,0,1,0-11,11.16Z" fill="#7bc3d2"/><path d="M475,346.84a11.18,11.18,0,1,1,11-11.16A11.19,11.19,0,0,1,475,346.84Z" fill="#575859"/></g></g></svg>