<svg xmlns="http://www.w3.org/2000/svg" viewBox="0 0 571.22 711.78"><title>ex_5_2</title><g id="Layer_2" data-name="Layer 2"><g id="Layer_1-2" data-name="Layer 1"><path d="M286.06,139.65c2.89,9,9.05,16.54,11.79,25.64.92,3,1.84,6,1.45,9.23l-2,1.29c-2.85,1.3-5.68,2.63-8.54,3.89-17.21,7.56-35.41,11.78-53.63,15.94-3.47-3-4.17-7.41-5.76-11.32-3.81-9.38-5.34-19.32-6.51-29.32-1.44,10.76,3.95,34.43,9.33,42.8a3.11,3.11,0,0,0,4.14,1.49l.93.37.22.29h-.05c1.73,3,3.41,6.05,5.19,9,5.05,8.44,12,15.38,18.12,23-7.63.72-13,4.71-16.22,11.52-9.65,20.19-19.21,40.41-28.9,60.58-3.24,6.75-3.5,13.37,0,20a.88.88,0,0,0,.84,1.06l0,.05a1.48,1.48,0,0,0,1.53,1.35l.13.1a.82.82,0,0,0,1,.82l1,.65.82.46.16.06,1.17,2.75c-2.56,6-4.9,12.19-7.78,18.08-1.83,3.76-1.34,6.47,2,8.83a17.91,17.91,0,0,1-2.44-.34q-49.49-14-99-28a26.14,26.14,0,0,1-7.93-3.65c-.15-3,1.84-5.15,3-7.63,5.5-11.62,8.31-24.06,11.15-36.51,8-34.86,18.69-68.68,36.89-99.79,14.07-24,33.28-42.9,56.7-57.65,2.63-1.66,5.66-2.68,8.5-4,.82-.1,1.65-.14,2.45-.32C249.72,115.11,270.18,120.22,286.06,139.65Z" fill="#040404"/><path d="M107.22,326.35a26.14,26.14,0,0,0,7.93,3.65q49.5,13.9,99,28a17.91,17.91,0,0,0,2.44.34c2-.46,3.55.69,5.2,1.35,27.24,11,52.73,25.22,77.16,41.39,14.42,9.54,28.23,19.94,38.46,34.27-1.45.35-2.87.77-4.33,1-14.1,2.59-28.13,5.39-39.35,15.28-4.59,4.06-8.86,8.47-13.28,12.71-13.41-.07-26.83,0-40.2-1.21-11.84-1.08-23.64-2.67-35.49-3.52-11.56-.83-22.87-3.3-34.39-4.27-9.64-1.68-19.28-3.4-28.93-5-24.34-4.08-39.83-19.26-48.8-41C81.72,383,88,357.88,101.36,334,102.91,331.26,104.18,328.07,107.22,326.35Z" fill="#86878a"/><path d="M243.54,529.94c-11.32,0-22.64-.12-34-.12q-82.65,0-165.32-.1c-4,0-5.32.86-5.3,5.13q.24,67.65,0,135.3c0,3.77,1,5.29,4.76,4.58,4.77-.91,5.8,1.29,5.61,5.7-.35,7.81-.2,15.64-.05,23.46.05,2.83-.41,4.2-3.75,4.11-8.65-.24-17.32-.17-26,0-2.73,0-3.81-.63-3.76-3.58.18-8.65.22-17.31,0-25.95-.09-3.32,1.26-4.25,4.09-3.69,5.42,1.07,6.09-1.58,6.07-6.29q-.25-66.65,0-133.3c0-4.35-1-5.83-5.45-5.48-5.46.43-11,0-16.47.18C1.11,530-.06,529.22,0,526c.19-10.15.18-20.3,0-30.45,0-2.87.82-3.7,3.66-3.63,7,.17,14,0,21,0,2.27,1.81,5,1.53,7.62,1.53l213.19,0c3.82,0,7.65-.08,11.47-.12-5.39,8-9.66,16.42-11.31,26C245,522.9,245.05,526.58,243.54,529.94Z" fill="#585a5b"/><path d="M243.54,529.94c1.51-3.36,1.49-7,2.09-10.58,1.65-9.62,5.92-18.06,11.31-26l23.47-29c4.42-4.24,8.69-8.65,13.28-12.71,11.22-9.89,25.25-12.69,39.35-15.28,1.46-.27,2.88-.69,4.33-1a39,39,0,0,1,9.32,20.85c.48,7.49-2.55,13.79-6.39,20-3.57,5.74-8.41,10.65-11,17-8,11.16-12.77,23.77-16.82,36.73-3.8,5.11-5.67,11.2-8.45,16.82-8.61,17.37-17.35,34.69-25.51,52.28-3.95,8.51-7.54,17.26-9.4,26.62a23.7,23.7,0,0,0,1.12,12.54,9.34,9.34,0,0,1-5.85,3.36,65.38,65.38,0,0,1-37-2.59c5.5-15.93,10.83-31.91,14.32-48.44a72.27,72.27,0,0,0,1.78-15.24C243.41,560.13,243.51,545,243.54,529.94Z" fill="#fbd1a5"/><path d="M215.7,324.09c-3.54-6.68-3.28-13.3,0-20,9.69-20.17,19.25-40.39,28.9-60.58,3.26-6.81,8.59-10.8,16.21-11.51a362.49,362.49,0,0,1,29.12,26.42c9,8.85,17.35,18.32,27.24,26.21.12.79.3,1.55,1.16,1.88l0,0c6.17,13.4,13.79,26,20.74,39,8.07,15,16.49,29.9,24.55,44.94,5.45,10.18,2.47,23.84-6.42,31.05l-.94.92.1-.08c-.75.26-1.83-.1-2.07,1.11l.09-.06a14.33,14.33,0,0,0-2.46.17c-15.12,3.63-26-.76-33.6-14.41-12.25-21.9-24.15-44-36.18-66-6.59-12-13.14-24.1-20.07-36.83-3.36,7-6.46,13.33-9.53,19.71-1.94,4.05-3.75,8.16-5.77,12.16-5.09,10.11-11.3,12.65-25.51,10.54l-.16-.06c0-.6-.28-.77-.82-.46l-1-.65-1-.82-.13-.1a1.8,1.8,0,0,0-1.53-1.35l0-.05Z" fill="#7bc3d2"/><path d="M280.41,464.34l-23.47,29c-3.82,0-7.65.12-11.47.12l-213.19,0c-2.65,0-5.35.28-7.62-1.53a4.4,4.4,0,0,0,1.8-3.33C28.07,470,45.55,455.78,63.67,456c33.61.35,67.24.12,100.86.08,1.94,0,4,.64,5.8-.71,11.52,1,22.83,3.44,34.39,4.27,11.85.85,23.65,2.44,35.49,3.52C253.58,464.35,267,464.27,280.41,464.34Z" fill="#7bc3d2"/><path d="M312.46,529.87c4.05-13,8.85-25.57,16.82-36.73q28.19.17,56.38.31c9.93.05,9.93,0,9.51-9.87a2.09,2.09,0,0,1,.08-.49c2.18.48,2.26,2.63,3.07,4.09,10.41,18.74,20.68,37.56,31.08,56.31,2.66,4.81,5.63,9.47,10,13,4.68,3.79,8.58,2.93,11.29-2.44,2.28-4.54,2.59-9.59,3.56-14.47.25-1.25.22-3.08,1.64-3.33,1.93-.35,2.24,1.75,2.71,3,3,8.07,2.77,16.08-1.82,23.47-3.71,5.95-9.6,7.21-16.2,6l-1.14-.25.18,1.14q26.5,51.15,52.91,102.34c1.81,3.53,4.41,2.81,7.1,2.83,8.34,0,8.34,0,8.34,8.39,0,7-.15,14,.06,21,.09,3.1-.92,4-4,3.9-8.66-.19-17.32-.14-26,0-2.46,0-3.58-.49-3.53-3.26.15-9,.06-18,.06-27,0-.5-.18-1.29.06-1.46,5.15-3.63.58-6.76-.83-9.5-23.23-45.07-46.72-90-69.92-135.09-2.18-4.22-3.93-4.28-7.71-2.24-14.49,7.81-29.18,15.25-43.71,23-2.79,1.49-4.11,1.36-5.53-1.71-2.8-6-6.19-11.78-9.12-17.75a5,5,0,0,0-5.41-3.25C325.78,530,319.12,529.85,312.46,529.87Z" fill="#575859"/><path d="M317.13,284.58c-9.89-7.89-18.27-17.36-27.24-26.21A362.49,362.49,0,0,0,260.77,232c-6.12-7.59-13.06-14.53-18.11-23-1.78-3-3.46-6-5.19-9,6.08-1.48,12.22-2.75,18.22-4.5,13.24-3.87,26.6-7.49,38.72-14.42,2.12-1.21,4.17-2.23,2.93-5.22l2-1.29c1.21,11.6,8.67,19.84,15.8,27.94a70.68,70.68,0,0,1,15.07,25.95c1.13,3.62,3.16,4.47,6.57,4.12,14.13-1.44,28.27-2.76,42.41-4.12.61,3.92,1.2,7.84,1.81,11.76,1.64,10.43,6.15,19.84,10.38,29.34-3.75,2.82-8.37,3.59-12.58,5.32A194.26,194.26,0,0,1,334,287.19a42.2,42.2,0,0,1-15.74-.78l0,0A1.62,1.62,0,0,0,317.13,284.58Z" fill="#fbd1a5"/><path d="M507.14,511.87a48.91,48.91,0,0,1-12.46-10.07C469.43,474.1,454.94,442,455.34,404c0-3.71-1.09-4.63-4.63-5.05-17.31-2.06-34.59-4.47-51.87-6.76-1-.13-2,0-3-1.36,7.58-6.28,15.14-12.68,22.84-18.89,17.56-14.18,35.32-28.13,52.72-42.51,3.92-3.24,5.45-2.45,8.38,1.1,19.41,23.59,39.09,46.95,58.67,70.39.92,1.09,2.8,2.07,2.06,3.59s-2.72.62-4.1.49c-13.4-1.29-26.81-2.51-40.17-4.11-3-.36-4.19.45-5.08,3.06a100.32,100.32,0,0,0-5.09,23.82c-2.55,28.43,3.67,54.78,19.05,78.91.63,1,1.21,2,1.76,3A11,11,0,0,1,507.14,511.87Z" fill="#f7b24e"/><path d="M260.55,97.57c5.36-4.15,4.93-9.16,3-15-3.7-11.07-6.77-22.41-4.28-34.22,3.94-18.65,12.93-33.68,31.2-41.7,1.82-.8,3.91-1.48,5.22-2.84,4.74-4.94,9.36-4.84,14.81-1,1.37,1,4.23.09,6.31-.35,9.73-2,18.5-.12,26.23,6.12,6.72,5.42,15,8.68,20.86,15.27a79.91,79.91,0,0,1,5.63,7c2.35,3.34,4.75,6.17,9.93,3.24-1.79,3.7-5.07,3.86-7.4,5.31.14,2.13,4.22-.09,3.25,3.12a5.72,5.72,0,0,1-4.45,4.21c-1.9.44-4.05-.45-5.74,1.09-7.35,2.13-14.72,4.08-22.5,2.85-6.13-1-10.25,1.83-13,7-1.66,3.07-3.06,6.28-4.8,9.3s-4.42,4.73-8.32,4c-4.34-.8-2.42-4.05-2.69-6.33-.52-4.47-1.15-8.79-6.48-10C302.32,53.5,297.5,56.09,295,61a23.28,23.28,0,0,0-2.17,15.07C294.23,83.7,291,88.63,285,92.37A36.56,36.56,0,0,1,260.55,97.57Z" fill="#3a281a"/><path d="M260.55,97.57a36.56,36.56,0,0,0,24.4-5.2c6-3.74,9.28-8.67,7.84-16.26A23.28,23.28,0,0,1,295,61c2.54-4.95,7.36-7.54,12.3-6.43,5.33,1.2,6,5.52,6.48,10,.27,2.28-1.65,5.53,2.69,6.33,3.9.72,6.51-.87,8.32-4s3.14-6.23,4.8-9.3c2.79-5.18,6.91-8,13-7,7.78,1.23,15.15-.72,22.5-2.85-.06,6.32,1.64,12.51,1.28,18.87-.11,2.06-.31,3.92-2,5.38-8,6.89-7.22,15.44-4.28,24.21,2.18,6.54,2.1,6.89-4.73,8.62-2.72.69-4.24,1.88-5.61,5.07s-4.33,7.38-8.53,8.42c-2.86.7-4.33,1.87-5.19,4.5-1.48,4.59-4.51,5.72-9,3.91-5-2-9.12-5.39-13.49-8.36-3.68-2.51-6.36-2.8-9.39,1.28-4.73,6.38-10.12,12.27-15.18,18.41a3.69,3.69,0,0,1-2.94,1.58c-15.88-19.43-36.34-24.54-60.14-19.19-.8.18-1.63.22-2.45.32,9.12-7.09,19.78-11.64,29.46-17.8A53,53,0,0,0,260.55,97.57Z" fill="#fbd1a5"/><path d="M227.38,638.9a65.38,65.38,0,0,0,37,2.59,9.34,9.34,0,0,0,5.85-3.36c.79-.82,1.6-1.62,2.37-2.46,1-1.11,1.11-3.73,3.38-2.77,1.81.77,1.17,2.9,1.21,4.51.09,3.64,0,7.3.2,10.94.07,1.29.25,3,1.08,3.74,5.76,4.71,2.47,9-.29,13.44-.42.68-.94,1.42.26,2.4,2.23-1.26,2.39-4.06,3.94-5.79,1.08-1.21.83-4.26,4.13-2.62,3.46,1.72,1.12,3.3.37,5-1.54,1.86-3.14,3.69-3,7.21,2.46-2,3-4.19,4.1-6,.65-.74,1.29-1.5,2-2.24,1.5-1.71,2.72-.24,3.88.46,1.58,1,.39,1.93-.22,2.85l-4.81,7.34c4.19-1,4.87-4,6.2-6.06,1.54-2.4,2.74-2,4.73-.76,2.33,1.41,1.62,2.61.51,4.37s-3.32,3.22-2.87,6.24c3-1.72,3.73-4.89,5.62-6.64,10.17,7.07,19.79,15,33.31,13.7a7.2,7.2,0,0,1,5,1.82c-4.77,12.37-8.93,15.19-22.43,15.21-19.18,0-37.78-4.51-56.48-7.83-16.32-2.9-31.92-8.87-47.69-14-1.91-.62-3.82-1.16-4.83-3.14-3.44-15.21,4-26.73,12.75-37.87C224.35,636.92,225.8,639.06,227.38,638.9Z" fill="#383b44"/><path d="M391.34,269.51c-4.23-9.5-8.74-18.91-10.38-29.34-.61-3.92-1.2-7.84-1.81-11.76-.78-18.13,2.48-35.37,10.91-51.59,24.82-47.77,86.15-66.07,132.55-38.74,35.51,20.92,51.65,53,48.14,93.75-4.15,48.31-45.89,85.54-94.41,85.64-35.18.07-62.32-15.1-82.06-44C393.35,272.14,392.32,270.84,391.34,269.51Zm171.73-48.38c1-46.71-39-86.51-85.1-87.56-51.2-1.16-90.52,39.9-90.81,87-.31,49.62,38.87,87.55,85.85,89C522.75,311.07,564.39,269.38,563.07,221.13Z" fill="#70b1bd"/><path d="M221.2,328.64c14.21,2.11,20.42-.43,25.51-10.54,2-4,3.83-8.11,5.77-12.16,3.07-6.38,6.17-12.75,9.53-19.71,6.93,12.73,13.48,24.79,20.07,36.83,12,22,23.93,44.1,36.18,66,7.63,13.65,18.48,18,33.6,14.41a14.33,14.33,0,0,1,2.46-.17c-.71,2.2.73,3.79,1.62,5.51q13.29,25.67,26.61,51.32c.67,1.3,1.17,2.7,1.75,4.06-1.13.52-1.85-.3-2.59-.87-5.19-4-11.15-6.13-17.51-7.31Q352.58,433.45,341,410.87a3.62,3.62,0,0,0-3.35-2.39c-12.05-.59-19.67-7.33-25.2-17.58-16.17-29.95-32.59-59.76-49-89.61-.56-1-.59-2.66-2.54-2.78-3.78,7.91-7.48,15.87-11.38,23.72s-11.87,12.24-20,11c-2.42-.39-4.79-1.19-7.18-1.8Z" fill="#585a5b"/><path d="M364.2,456c6.36,1.18,12.32,3.31,17.51,7.31.74.57,1.46,1.39,2.59.87l-.07-.06a1.57,1.57,0,0,0,1.16,2c3.56,4.25,7.07,8.53,8.83,13.92.49,1-.55,2.55,1.08,3.18l-.05-.11a2.09,2.09,0,0,0-.08.49c.42,9.88.42,9.92-9.51,9.87q-28.2-.12-56.38-.31c2.61-6.35,7.45-11.26,11-17,3.84-6.19,6.87-12.49,6.38-20Z" fill="#7bc3d2"/><path d="M209.83,677c1,2,2.92,2.52,4.83,3.14,15.77,5.15,31.37,11.12,47.69,14,18.7,3.32,37.3,7.85,56.48,7.83,13.5,0,17.66-2.84,22.43-15.21,3,2.93,2.76,10-.65,12.56-4,3-8.35,7.24-12.46,7.89-4.84.76-8.39,7-14,3.43-32.08,2.13-62.52-6.85-93.23-13.9-4.5-1-8.63-3.3-12.75-5.49-2.69-1.44-3.07-2.92-1.86-5.51C207.65,683,208.67,680,209.83,677Z" fill="#973241"/><path d="M395.3,483.2c-1.63-.63-.59-2.17-1.08-3.18C394.94,481,396,481.79,395.3,483.2Z" fill="#575859"/><path d="M354.23,403.36c.24-1.21,1.32-.85,2.07-1.11C355.76,402.9,355.2,403.52,354.23,403.36Z" fill="#585a5b"/><path d="M385.39,466.1a1.57,1.57,0,0,1-1.16-2C385.15,464.48,385.13,465.37,385.39,466.1Z" fill="#585a5b"/><path d="M356.2,402.33l.94-.92Z" fill="#585a5b"/><path d="M297.34,175.81c1.24,3-.81,4-2.93,5.22-12.12,6.93-25.48,10.55-38.72,14.42-6,1.75-12.14,3-18.22,4.5h.06l.45-.68-.68.39-.93-.37-1.2-3.65c18.22-4.16,36.42-8.38,53.63-15.94C291.66,178.44,294.49,177.11,297.34,175.81Z" fill="#e0b88f"/><path d="M235.17,195.64l1.2,3.65a3.11,3.11,0,0,1-4.14-1.49c-5.38-8.37-10.77-32-9.33-42.8,1.17,10,2.7,19.94,6.51,29.32C231,188.23,231.7,192.66,235.17,195.64Z" fill="#bc242a"/><path d="M216.58,325.2a1.8,1.8,0,0,1,1.53,1.35A1.48,1.48,0,0,1,216.58,325.2Z" fill="#585a5b"/><path d="M220.22,328.12c.54-.31.8-.14.82.46Z" fill="#585a5b"/><path d="M218.24,326.65l1,.82A.82.82,0,0,1,218.24,326.65Z" fill="#585a5b"/><path d="M215.7,324.09l.84,1.06A.88.88,0,0,1,215.7,324.09Z" fill="#585a5b"/><path d="M237.3,199.66l.68-.39-.45.68S237.3,199.66,237.3,199.66Z" fill="#fbd1a5"/><path d="M317.13,284.58a1.62,1.62,0,0,1,1.16,1.88C317.43,286.13,317.25,285.37,317.13,284.58Z" fill="#fff"/><path d="M439.6,569.56l-.18-1.14,1.14.25Z" fill="#fff"/><path d="M288,665.74c-1.13,1.82-1.64,4.06-4.1,6-.13-3.52,1.47-5.35,3-7.21Z" fill="#fff"/><path d="M563.07,221.13c1.32,48.25-40.32,89.94-90.06,88.4-47-1.45-86.16-39.38-85.85-89,.29-47.06,39.61-88.12,90.81-87C524.09,134.62,564.1,174.42,563.07,221.13Zm-99,0c-.19,6.47,4.17,11.32,10.44,11.6,6.83.3,11.57-4,11.8-10.68s-4.2-11.48-10.87-11.63A10.81,10.81,0,0,0,464.09,221.11Z" fill="#7bc3d2"/><path d="M464.09,221.11a10.81,10.81,0,0,1,11.37-10.71c6.67.15,11.11,4.89,10.87,11.63s-5,11-11.8,10.68C468.26,232.43,463.9,227.58,464.09,221.11Z" fill="#575859"/></g></g></svg>