<svg xmlns="http://www.w3.org/2000/svg" viewBox="0 0 591.87 625.16"><title>asset_4</title><g id="Layer_2" data-name="Layer 2"><g id="Layer_1-2" data-name="Layer 1"><path d="M372.52,569.25c6,1.92,11.8,4.45,16.41,8.91,9.69,9.38,8.78,19.22-2.39,27-10.83,7.53-23.29,10.92-35.87,14-11.76,2.86-23.81,3.58-35.76,5.12-8.48,1.1-16.92,1-25.35.77a236.24,236.24,0,0,1-33.5-3.41c-11.11-1.86-22.15-3.83-32.81-7.46-8.79-3-17.24-6.7-23.32-14.19-4.73-5.83-4.79-13.19.24-18.75,5.29-5.85,11.6-10.29,19.51-12-1.5,2.34-2.67,5-4.57,6.95-4.21,4.35-5.13,9.64-5.29,15.28-.46,5.15,2.82,7.48,7,8.81,6.11,1.93,12.43,1.53,18.61.5,8.25-1.37,10.62-4,12.25-12.54,1.53-2.44,1.44-5.29,2-8,.32-7.11,1.33-14.09,4.19-20.69,6.08-.65,12.15-1.54,18.25-1.91,10-.6,20-1.43,30.06-1.13,11.87.35,23.71,1.79,35.57,2.76a46.34,46.34,0,0,1,4,19.73c.73,4.13.73,8.49,3.81,11.87-1.65,4.15,1.57,6.22,4.15,7.48,8.74,4.27,18,4.31,27.08,1.13,3.55-1.23,5.74-4,4.74-8.19a17.86,17.86,0,0,0-3.92-13.71C375.56,575.08,373.35,572.53,372.52,569.25Z" fill="#ebece6"/><path d="M345.42,239.45c5.3,13.7,11.95,26.93,14.26,41.65-2.16,5.89-6,11-7.65,17.18-7.65,28.53-7.24,57.85-8.61,87-9.79,2.09-19.59.74-29.38.13-1.67-1.3-3.78-1.41-5.66-1.56-4.32-.35-5.56-2.47-6-6.64-1.66-15.14-3.8-30.23-5.76-45.34-.12-.93.06-2.17-1.58-1.64-.94-3,.68-5.81.66-8.8-.17-24.07-.1-48.14-.11-72.22,7-.62,14.09-.52,20.94-2.41a44.85,44.85,0,0,0,14.11-3c4-.23,7.46-2.08,10.88-3.89C342.82,239.24,343.94,238.22,345.42,239.45Z" fill="#333"/><path d="M295.58,249.21c0,24.08-.06,48.15.11,72.22,0,3-1.6,5.79-.66,8.8-1.64,13.79-3.77,27.55-4.74,41.38-.58,8.18-2.69,13.54-11.91,13.36-.27,0-.55.33-.83.51l-12.89,1.07c-5.42-.14-10.84-.12-16.17-1.3-.72-22.08-2.14-44.12-4.47-66.09-1.3-12.34-4.18-24.22-10.82-34.88-1-1.62-.56-3.18-.81-4.76,2.47-14.48,9-27.55,14.44-41,4.79,1.2,8.64,5,13.85,5.07,1.87.6,3.7,1.36,5.61,1.78C275.93,247.56,285.76,248.36,295.58,249.21Z" fill="#181818"/><path d="M295.58,249.21c-9.82-.85-19.65-1.65-29.29-3.81-1.91-.42-3.74-1.18-5.61-1.78-.24-4.77-3.56-8.14-5.82-11.89-1.62-2.67-1.24-6.76-5.12-8a58.2,58.2,0,0,1,.75-7.38c2.41-10.55.26-20.22-4.83-29.58-1.77-3.24-4.21-6.37-4.06-10.42,0-3.78.07-7.56.09-11.34,0-5.58-1.2-11.57,4.95-15.16,10.29,0,20.59,0,30.88,0,9.27,0,16-6.7,16.07-15.85,0-6.8-.18-13.61.09-20.4.17-4.21-1.68-6.9-5-9l-4.13-2.67c3.2-.41,5.73,1.21,8.23,2.8,1.63,1,3.13,1.89,4.84.25l2.93-.33,0,1.26a8,8,0,0,0-2.77,6.18c-.27,8-.67,16,.13,23.85a15.1,15.1,0,0,0,14.57,13.89c10.94.21,21.89-.09,32.84-.17,4.09,3.42,4.43,7.92,4.3,12.88-.12,4.69-1,9.49.61,14.14-3.16,7.39-7.28,14.35-9.85,22-1.38-3-1.14-6.39-1.91-9.52-1.83-7.42-.55-15.52-5-22.34a2.75,2.75,0,0,0-2.27-2.87c-10.48-2.13-20.15-6.38-29.64-11.13l-6.29-8.11c-3.11,6.72-8.62,10.25-14.92,12.67-5.56,2.13-11.07,4.43-16.94,5.71-2.08.45-4.08,1-3.92,4.12.14,2.71.53,4.49,3.49,5.69,6.23,2.51,12,0,17.39-1.82,5.23-1.73,11.71-1.64,15.18-7.3a13.36,13.36,0,0,0,7.61,5c4.26,1.19,8.58,2.24,12.75,3.68,5.38,1.86,10.54,2.06,15.6-.82-.16,4.11-3.29,6.77-5,10.13a9.48,9.48,0,0,1-5.23-1.11c-4.57-2.34-9.54-3.52-14.39-5.11s-8.32-.45-11.34,3.27c-2.58-3.17-5.37-4.38-9.86-3.46-6.4,1.31-12.1,4.33-18.22,6.06-5.18,1.46-4.73,5.24-4.65,8.41.09,3.75,2.06,7.07,6.8,6.9a51.84,51.84,0,0,0,26-8.07c6.07,5.53,14.34,5.2,21.44,8,3.22,1.25,6.43.6,9.46-1,2,2.65-1.94,4.48-1,7-3,.92-6,1.78-9.09.46a76,76,0,0,0-14.6-4.08c-1.85-.38-4.36-1.51-5.29,1.65-4-2.61-8-1.16-12.23-.46-4.42.74-8.18,3.69-12.82,3.5-5.71-.23-6.69.75-6.88,6.64-.08,2.58.93,4.84,2,7.08,0,5.53,2.93,10.21,4.37,15.39a46.4,46.4,0,0,1,3.62-13.17c7.09,0,14.36,1.76,21.05-2.16a18,18,0,0,0,5.85,2.34c5.1,1.18,10.07.54,15.1-.08,3,4.47,2.55,9.85,3.86,14.77l-4,12.21C309.67,248.69,302.58,248.59,295.58,249.21Z" fill="#c79677"/><path d="M358.23,381.54c-2.23,13.56.87,27.08.34,40.68-.34,8.82,1.74,17.76,3.09,26.6,2,13.29-.06,26.52-.56,39.74-.68,18.26-.79,36.5-.56,54.75a11.31,11.31,0,0,1-10,.89c1.68-6.63,1.46-13.48,1.81-20.2.6-11.61-.21-23.29.26-34.91.77-19.17-4.53-36.59-14.41-52.69-3.27-5.34-6.61-11-12.68-13.95-5.72-8.48-8.72-17.92-9.89-28,11.11-1.51,21.53-5.3,31.79-9.63Z" fill="#d6ad8f"/><path d="M264.66,386.55l12.89-1.07c-1.67,12.94-3.64,25.79-11.3,36.9-4.58,2.8-7.46,7-10.65,11.28-11.64,15.5-15.79,33.1-15.91,52-.12,16.91,0,33.82-.05,50.74a26,26,0,0,0,1,7.81c-3.24,1.48-6.32,1.37-9.18-.92.84-24.44-.47-48.82-1.75-73.2-.77-14.7.93-29.18,3.37-43.59,1.35-7.94-1.26-15.87.47-23.79.53-2.4.49-4.95,1.34-7.32A151.43,151.43,0,0,0,264.66,386.55Z" fill="#d6ad8f"/><path d="M136.66,93.07c-2.88-3.21-3-7.13-2.87-11.12,6.1-.2,12.17-.18,18,1.94v0l1,1c2,2.84,3.41,1.54,4.74-.61A15.72,15.72,0,0,1,167.76,77c1.62-.37,4.08,1.09,4.73-1.42s.56-5.25-1.92-7.24a7.73,7.73,0,0,1-2.88-6.58c0-1.16,1.88-2.73,0-3.42s-2.11,1.57-2.91,2.69a38,38,0,0,0-17.43-1.31c-3.45.53-8.13,2.08-10.62-2.73,1.16-4.38,3.47-6.4,7.86-3.63,1.37.86,2.11,0,3.07-.56,1.52-1,3.34-1.24,4.63-.07,1.67,1.52,2.72,1,4.21-.14a3,3,0,0,1,2.79-.34c2.5,1.69,4.67.77,7.19,0,3-.92,5,1.31,5,4,.06,4.45,2.87,5.94,6.27,7.16.64,2,2.61,2.46,4,3.6,0,1.33,0,2.66.07,4l.07,3.23c-.16,5.77.76,11.89-5,15.89a1.34,1.34,0,0,0-2.42-.21c-2.33,2.7-5.77,3.24-8.78,4.5-4,1.66-5.68,4.07-4.85,8.1A156,156,0,0,0,166.33,123c3.77,10.63,6.41,21.45,9.08,32.32,1.55,6.3,1.44,12.35-1.7,18.25-2.22,4.18-10.55,7.78-13.38,5.14-3.39-3.17-6.42-7-7.44-11.55-4-18.11-4.93-36.6-6.18-55a102.77,102.77,0,0,0-2-14.18C143.74,93.41,140.4,91.63,136.66,93.07Z" fill="#e1c3af"/><path d="M413.52,63.42c3.91-1,7.18-2.33,7.06-7.38-.06-2.7,2.12-4.81,4.56-3.7,2.73,1.24,5-.25,7.13,0,3.63.46,7.07-.06,10.55,0,2.4.07,4.51.72,7.13-.11,2.88-.91,4.44,1.38,4.6,4.32-.17,1.85-.08,3-3,3.11-8.34.28-16.79-1.1-25,1.26-.75-1-1.08-2.44-3.22-2.09,2.3,4,.58,6.89-2.49,9.49a6.19,6.19,0,0,0-2.07,6.31c.61,2.75,3,1.87,4.87,2.3,4.34,1,8.1,3.17,10.34,7.11,2.15,3.78,3.77,2.84,5.53-.14,4.29-.86,8.41-2.81,13-2,2,.35,3.88-.48,5.75-1.08A11.25,11.25,0,0,1,456.69,89c-5.09,3.16-10.82,6.23-11.09,13-.66,16.84-2.58,33.55-4.13,50.31-.82,8.77-2.23,17.32-8.24,24.38-1.49,1.75-2.87,3.24-5.31,3-4.13-.39-10.38-6.56-11.51-10.58-1.94-6.87-.13-13.4,1.12-20,2.1-11.17,6.33-21.73,9.51-32.58,1.95-6.65,1.73-14.22,7.73-20.14-5.38-.36-9.28-2.31-13.29-4.17-2.34-1.08-4.2-3.44-7.15-3.13l.1-.07a1.85,1.85,0,0,0-1-2l0,0-1-1,0,0-1.25-1c-2.07-3.4.48-7.55-1.78-10.91,1.18-.79,1.07-2,1-3.16s.05-2.62.07-3.92C410.9,65.33,413.23,65.24,413.52,63.42Z" fill="#e1c3af"/><path d="M297.67,105c-1.72,1.64-3.22.78-4.85-.25-2.5-1.59-5-3.21-8.23-2.8l0,0c-.31-.69-.64-.75-1,0-8-2-16.14-.28-24.15-1.07-9.5-1-14,5.36-19,11.69-3.62,4.62-3.74,10.31-5.87,15.35l-1.92,4c-2.23-3.33-1.71-7.17-2.16-10.87-2.17-17.76-1.94-16.48,13-20.84,4.55-.52,6.95-4.91,11.09-6.19.42.55.71.33,1-.16l-.09.06c4.47-1.63,8.85-3.57,13.42-4.82,6.16-1.68,6.33-1.63,4.88-7.91l.36-6.86.21-3.32a5.76,5.76,0,0,0-.78-4c-.23-1.94.62-4-.64-5.83l-.45-3c-1.38-5.2-2.46-10.44-1.89-15.87.12-.79.25-1.57.38-2.36a1.07,1.07,0,0,0,0-1.75l.08-2.18c1.84-.56,1.39-2.09,1.44-3.41.16-2.65,2-5,1.55-7.71-1.12-6.73,2.95-9.54,8.42-11.4,4.26-1.46,8.57-2.54,13.13-2.07V73.87c-7,1.91-11.71-3.61-18.51-6.31,7.66,11.48,11.66,23.34,17.51,34.29-.05,1.32.55,2,1.9,2Z" fill="#d6ad8f"/><path d="M295.66,73.87V11.38l2-.05c1.36,1.16,2.88.68,4.38.47a26.72,26.72,0,0,1,12.53,4.35c1.2.76,3.09,1.4,2.84,3.12-1.07,7.19,3.32,13.38,3.5,20.36.1,4,1.78.7,2.79.33a2.93,2.93,0,0,1,3.38,2.16c1.52,3.85-1.3,13.63-5.05,15.38-2.77,1.29-3.56,3.06-3.57,5.7a5.61,5.61,0,0,0-.8,3.79c0,1.32,0,2.65,0,4l.06,3.29c-1,4.67.87,7.54,5,9.93,5.82,3.35,11.22,7.43,16.81,11.17,1.35.91,3,1.54,3.21,3.47-7.53-.92-15.05-2.44-22.59-2.59-6.4-.13-13.67-3-19,3.57a1.78,1.78,0,0,1-2.65,0c.18-3.8,2.88-6.57,4.09-9.94,1.8-5.05,5.56-9.29,6.11-14.85.38-.53.79-1,1.12-1.6.6-1,2.49-1.87,1.18-3.17-1.16-1.16-2.47.22-3.37,1C304.11,74.42,299.93,74.27,295.66,73.87Z" fill="#e1c3af"/><path d="M232.39,279.52c.25,1.58-.2,3.14.81,4.76,6.64,10.66,9.52,22.54,10.82,34.88,2.33,22,3.75,44,4.47,66.1l-14.76-3.73c-9.87-5-10-5-9.1-16.34q2.91-37.53,6.05-75C231,286.59,231.81,283.07,232.39,279.52Z" fill="#32b0b7"/><path d="M358.23,381.54l-10.78,3.28-4,.46c1.37-29.15,1-58.47,8.61-87,1.66-6.17,5.49-11.29,7.65-17.18,2.55,10.68,2.53,21.66,3.53,32.5,1.75,19,2.69,38,4.54,57,.46,4.64-.94,6.74-4.76,8.31A43.41,43.41,0,0,0,358.23,381.54Z" fill="#32b0b7"/><path d="M231.47,543.27c2.86,2.29,5.94,2.4,9.18.93,2.32.06,5.18-.71,6.86.37,3.6,2.32,4-.38,5.2-2.35,2.93,1.55,1.75,4.35,2,6.7-7.63,9.47-7.7,20.17-5.08,31.3-.54,2.7-.45,5.55-2,8-4.45,5.87-10.09,8-17.43,6.28a28.09,28.09,0,0,0-9.38-.13c-4.16.48-7.84-.16-11.05-2.92.16-5.64,1.08-10.93,5.29-15.28,1.9-2,3.07-4.61,4.57-6.95,5.95-6,6.14-13.94,6.87-21.56C226.89,544.15,228.2,542.91,231.47,543.27Z" fill="#dad8eb"/><path d="M350.57,544.2a11.31,11.31,0,0,0,10-.89c2.56-.41,4,.38,4.3,3.24a97.35,97.35,0,0,0,1.77,11.66c.93,4.17,2,8.43,5.91,11,.83,3.28,3,5.83,5.06,8.31a17.86,17.86,0,0,1,3.92,13.71c-2.33,2.83-5.4,3.44-8.89,3.21-3.28-.21-6.72-.75-9.86-.09-6.39,1.34-12.07.53-17.22-3.54-3.08-3.38-3.08-7.74-3.81-11.87,3.2-4.52,2-9.7,1.65-14.51-.46-5.64-1.77-11.35-6.78-15.17.09-2.68-.7-5.71,2.72-7.13l2,5.1C343.73,543.07,347.39,544.61,350.57,544.2Z" fill="#dad8eb"/><path d="M414.33,89.09c2.95-.31,4.81,2,7.15,3.13,4,1.86,7.91,3.81,13.29,4.17-6,5.92-5.78,13.49-7.73,20.14-3.18,10.85-7.41,21.41-9.51,32.58-1.25,6.63-3.06,13.16-1.12,20,1.13,4,7.38,10.19,11.51,10.58,2.44.24,3.82-1.25,5.31-3,6-7.06,7.42-15.61,8.24-24.38,1.55-16.76,3.47-33.47,4.13-50.31.27-6.78,6-9.85,11.09-13-7.29,16-4.72,33.07-5.33,49.77-.67,18.13-3.8,35.54-12.76,51.56-.77,1.39-1,3.32-3.18,3.37-6.64-2.67-12.72-6.16-17.53-11.6-.25-.29-.92-.22-1.4-.31a9.09,9.09,0,0,0-1.34-5.08,25.21,25.21,0,0,1-3.7-13.56c.11-2.42.5-5-.95-7.2q7.41-26,14.8-52c.6-2.14-.12-3.61-1.92-5.13C420,96,416.3,93.29,414.33,89.09Z" fill="#dcbaa1"/><path d="M136.66,93.07c3.74-1.44,7.08.34,8,4.86a102.77,102.77,0,0,1,2,14.18c1.25,18.45,2.15,36.94,6.18,55.05,1,4.57,4.05,8.38,7.44,11.55,2.83,2.64,11.16-1,13.38-5.14,3.14-5.9,3.25-11.95,1.7-18.25-2.67-10.87-5.31-21.69-9.08-32.32a156,156,0,0,1-5.57-20.51c-.83-4,.88-6.44,4.85-8.1,3-1.26,6.45-1.8,8.78-4.5a1.35,1.35,0,0,1,2.42.2c-1.68,3.13-4.42,5.36-7.12,7.42-3.26,2.49-3.88,5.25-2.8,9,4.77,16.46,10.11,32.77,13.87,49.53-.21,2.9-.62,5.9-.6,8.7,0,5.45-3.48,9.85-3.42,15.13h0c-2.67.12-3.11,1.89-3,4.06l-.94.92L156.58,194c-3.34-.9-3.45-4.2-4.73-6.56-7.21-13.19-10.4-27.48-11-42.36q-.84-20.84-1.09-41.7C139.72,99.51,137.41,96.58,136.66,93.07Z" fill="#dcbaa1"/><path d="M77.79,108.86l-.47.1-.49-.07c-.67-1-1.34-1-2,0l-1.69-.48c1.13-1.83.85-3.88.74-5.83-.93-16-.75-32.12-.75-48.18,0-3-.91-6.69,4.24-6.42.9,0,1.3-.9,1.36-1.8.27-4.67.13-9.22,1.84-13.91,1.33-3.64.21-8.18.17-12.32q.66-3.86,1.31-7.73c1.8,5.31.67,10.78.78,16.16.21,10.19.06,10.19,10.5,9.2.56,20.77.45,41.53.06,62.3-1.59.33-3.36,1.27-4.74.88-6.25-1.78-5.84,1.88-5.91,6.17-.1,5.64,1.25,11.38-.85,16.92L80.76,118v-16.5C78.52,104,78.74,106.66,77.79,108.86Z" fill="#333"/><path d="M511.45,109c0,.59,0,1.17,0,1.75l-.09,5.11q-.6,3.48-1.19,7c-2.18-.38-1.74-2.09-1.75-3.52,0-3.15,0-6.3,0-9.45,0-9.8,0-9.8-9.94-10l-.06-61.86c1-.06,2-.16,3-.16,8.09,0,6.92.7,7.19-7.16.21-6.52-.94-13.11.7-19.58q1.14,5.87,2.27,11.74c0,.45,0,.9,0,1.34,0,1.55,0,3.1,0,4.65-1.62,4.91,2.91,8.94,1.89,13.91-.55,2.68-1.16,6.24,3.75,6.28,1.48,0,1.26,1.74,1.26,2.85q-.09,18.94-.22,37.91c-1.59.47-4.84-.62-4.49,1.55C514.71,97.61,510.5,103,511.45,109Z" fill="#333"/><path d="M325.57,202.72c-1-2.51,3-4.34,1-7,2.19-4.63,3.6-9.26,0-13.9,1.7-3.36,4.83-6,5-10.13,0-1.88-.27-3.87,2-4.86,4.45,6.82,3.17,14.92,5,22.34.77,3.13.53,6.49,1.91,9.52-1.47,7.78,1.17,15.39,1,23.11l-10.83,22a44.85,44.85,0,0,1-14.11,3l4-12.2c1.75-6,4.15-11.9,5.09-18.17C327.45,211.86,326.39,207.29,325.57,202.72Z" fill="#d6ad8f"/><path d="M297.68,11.33l-2,.05c-4.56-.47-8.87.61-13.13,2.07-5.47,1.86-9.54,4.67-8.42,11.4.46,2.73-1.39,5.06-1.56,7.71A6,6,0,0,0,271.11,36c0,.72-.06,1.45-.08,2.18l0,1.75c-.13.79-.26,1.57-.38,2.36-4.19-2.56-1.24-7-2.73-10.29,0-2.62,0-5.23,0-7.85.1-.09.29-.19.28-.27a3.91,3.91,0,0,0-.21-.72C271,9.45,279.3,1.89,293.05.18c10.84-1.34,22.87,4.9,27.94,14.43a22.4,22.4,0,0,1,2.64,11.44c-.13,4.63.05,9.27.09,13.91-1,.37-2.69,3.68-2.79-.33-.18-7-4.57-13.17-3.5-20.36.25-1.72-1.64-2.36-2.84-3.12a26.72,26.72,0,0,0-12.53-4.35C300.68,10.91,299.18,11.15,297.68,11.33Z" fill="#333"/><path d="M156.58,194l16.22-9.21c.09,1.11.36,1.95,1.81,1.52,21-6.19,37.66-18,48.14-37.65,1.46-2.74,3.41-5.38,2.93-8.79a4.92,4.92,0,0,1,3.06,3.93,8.66,8.66,0,0,0-.66,1.33c-5.61,19.28-16.64,34.09-35.25,42.63a3.27,3.27,0,0,0-2.13,3.06l-.24.16-.28-.11c-1,.09-1.92-1.61-3-.26-.12.15.33.76.52,1.16C177.53,195.37,167.26,197.48,156.58,194Z" fill="#d6ad8f"/><path d="M498.43,38.05l.06,61.86L498,124c-2.41-3-2.5-6.61-2.52-10.15-.1-11.28-.23-22.58.05-33.86.11-4.26-1.34-5.33-5.39-5.24-10.62.23-21.26,0-31.89,0-.89-1.28-1.83,0-2.74,0a4.37,4.37,0,0,1-.94-3.74c12.08,0,24.16,0,36.25,0,1.59,0,4.24,1,4.32-1.81.1-3.27-2.82-2.08-4.5-2.09-11.76-.13-23.51-.1-35.26-.12.46-1.43.91-2.87,1.37-4.3,11.93,1.11,23.89.2,35.83.48,3.08.07,2.86-2,2.86-4.07,0-11.46,0-22.92,0-34.38,0-3.75-.11-7.57,2.52-10.72C498.91,22,498.05,30,498.43,38.05Z" fill="#c2c2c2"/><path d="M416.49,181.81c.48.09,1.15,0,1.4.31,4.81,5.44,10.89,8.93,17.53,11.6-9.86,4-19.42,1.66-28.95-1.36-.23-1.19-1.24-1.35-2.17-1.76-21-9.19-35.16-24.32-40.87-46.83.11-1.06.49-1.89,1.72-2,.43.46,1,.85,1.27,1.4A74.42,74.42,0,0,0,395,176.84,66.6,66.6,0,0,0,417.94,186c-.61-1.77-1-3-1.46-4.19Z" fill="#d6ad8f"/><path d="M136.71,57c2.49,4.81,7.17,3.26,10.62,2.73A38,38,0,0,1,164.76,61a9.28,9.28,0,0,0,3.92,8.53c2.58,1.87,2.8,5.42-.13,5.6-3.84.24-6.89,2.56-10.29,2.7-7.36.28-14.52-1.54-21.5-3.88,0-1,0-2,0-3V67c.44-1.89-.93-2.87-2-4l-.16-1C135.1,60.21,135.36,58.36,136.71,57Z" fill="#dcbaa1"/><path d="M456.76,62.62c-.46,1.43-.91,2.87-1.37,4.3-1.32,1.14-.82,2.65-.81,4a4.37,4.37,0,0,0,.94,3.74c-3.24,1.52-7-.37-10.15,1.6-1.72,1.08-13.11,2.06-14.74,1.07a2.1,2.1,0,0,1-.71-.68,2.57,2.57,0,0,0-3.73-1.17,3.34,3.34,0,0,1-4.34-1.37c-1.05-1.64-.11-3.19,1.24-4.33A9.87,9.87,0,0,0,426.51,61c8.23-2.36,16.68-1,25-1.26,2.94-.1,2.85-1.26,3-3.11C456.76,58.07,456.63,60.39,456.76,62.62Z" fill="#dcbaa1"/><path d="M80.74,20c0,4.14,1.16,8.68-.17,12.32C78.86,37,79,41.52,78.73,46.19c-.06.9-.46,1.84-1.36,1.8-5.15-.27-4.24,3.38-4.24,6.42,0,16.06-.18,32.13.75,48.18.11,2,.39,4-.74,5.83-1.58-8.1-1.24-16.31-1.3-24.5,0-1.91.49-4.07-2-5,1.08-1.39,1.1-3.05,1.13-4.7,1.13-2.55.35-5.24.55-7.87.12-1.67-.79-2.18-2.38-2.44-10.15-1.64-11.5-.53-11.29,9.57,0,.16,0,.33,0,.5l-.17,4.28a3.33,3.33,0,0,1-2-3.17c0-1.36.09-2.72.13-4.08s0-2.64,0-4-.07-2.72-.11-4.07c.41-3.84,3-4,6.11-4,10,.16,10.05.08,9.94-9.89-.06-5.84.49-11.62,1-17.42.14-1.67.39-3.2,2.48-2.74,4.69,1,5.06-1.56,4.65-5.1A5.67,5.67,0,0,1,80.74,20Z" fill="#787878"/><path d="M273,61.15c1.26,1.83.41,3.89.64,5.83h-92c-1.38-1.14-3.35-1.63-4-3.6,13-.09,25.93-.23,38.89-.26,17.13-.05,34.26,0,51.38-.05C269.85,63.08,272.16,63.87,273,61.15Z" fill="#c2c2c2"/><path d="M363.43,143.77c5.71,22.51,19.9,37.64,40.87,46.83.93.41,1.94.57,2.17,1.76-20.61-4.76-35.9-16.67-46.69-34.66-.89-1.49-1.06-3.63-3.31-4C357.79,149.66,358.53,145.26,363.43,143.77Z" fill="#c79677"/><path d="M93.33,37.59c-10.44,1-10.29,1-10.5-9.2-.11-5.38,1-10.85-.78-16.16C81.76,5.38,87,8.34,90.12,7.81c4-.68,3.47,2.37,3.63,4.78.1,1.48.26,2.95.39,4.43Z" fill="#787878"/><path d="M190.7,190.83a3.27,3.27,0,0,1,2.13-3.06c18.61-8.54,29.64-23.35,35.25-42.63a8.66,8.66,0,0,1,.66-1.33c4.7,1.64,5.55,5.61,6,9.84-4.2,5.52-7.22,11.85-12.1,16.93-8.41,8.76-17.89,15.8-29.66,19.39l-1.27.64Z" fill="#c79677"/><path d="M317.68,67a5.61,5.61,0,0,1,.8-3.79c15.18.55,30.36-.08,45.55.47,16.47.6,33-.11,49.49-.25-.29,1.82-2.62,1.91-3.07,3.6Z" fill="#c2c2c2"/><path d="M363.43,143.77c-4.9,1.49-5.64,5.89-7,9.89-1.38,7.86-2.88,15.68-6.18,23-1.63-4.65-.73-9.45-.61-14.14.13-5-.21-9.46-4.3-12.88,7.32-4.85,12.63-10.82,11.33-20.44l1.65.75c.54,6.47.52,6.38,7.15,5.23,2.38-.42,4.91-1,7.59.29-2.76,2.49-6.56,2.86-8,6.27C363.92,141.88,363.54,142.71,363.43,143.77Z" fill="#b47f5a"/><path d="M81.89,123.86c2.1-5.54.75-11.28.85-16.92.07-4.29-.34-8,5.91-6.17,1.38.39,3.15-.55,4.74-.88q.28,11,.59,22c-.09.82-.15,1.64-.29,2.44-.31,1.85.84,4.7-1.36,5.28a16.64,16.64,0,0,1-8.72-.08C81.69,129,81.82,126,81.89,123.86Z" fill="#545454"/><path d="M518.21,89.83q.1-19,.22-37.91c0-1.11.22-2.84-1.26-2.85-4.91,0-4.3-3.6-3.75-6.28,1-5-3.51-9-1.89-13.91,7.49.25,7.62.24,7.94,8.23.26,6.15.25,12.32.12,18.47-.06,2.65.9,3.56,3.44,3.43s5.34.09,8-.06c2.93-.16,4.39,1.06,4.44,4-.21.39-.41.78-.62,1.16-3.63-.28-7.25-.52-10.88-.85-2.53-.22-3.59.74-3.5,3.38.13,4,0,7.93-.07,11.89-1.62,5.62-.35,11.38-.79,17-.18,2.42.51,4.91-.55,7.27C517.5,98.58,518.86,94.14,518.21,89.83Z" fill="#787878"/><path d="M234.74,153.65c-.45-4.23-1.3-8.2-6-9.84a4.92,4.92,0,0,0-3.06-3.93l-7.46-4.94c4.67-2,9,1,13.48,1,.89-.42,1-1.2.89-2l.15-2,1.92-4c-.95,10,3.7,17,12,22-6.15,3.59-4.91,9.58-4.95,15.16,0,3.78-.06,7.56-.09,11.34-3.75-5.39-4.14-11.88-5.81-17.95C235.36,156.86,235.08,155.24,234.74,153.65Z" fill="#b47f5a"/><path d="M498,124l.48-24.09c9.94.18,9.94.18,9.94,10,0,3.15,0,6.3,0,9.45,0,1.43-.43,3.14,1.75,3.52-.73,3.38.31,7.45-5.87,7.35C499.32,130.13,497.47,128.79,498,124Z" fill="#545454"/><path d="M498.43,38.05c-.38-8,.48-16.1-.45-24.12.51-2-.82-5.06,1.48-5.72,2.72-.78,5.87-.31,8.79,0,1.29.15,1.24,1.72,1,2.91-1.64,6.47-.49,13.06-.7,19.58-.27,7.86.9,7.13-7.19,7.16C500.4,37.89,499.41,38,498.43,38.05Z" fill="#787878"/><path d="M94,121.92q-.3-11-.59-22c.39-20.77.5-41.53-.06-62.3L94.14,17c2.78,2.19,2.63,5.37,2.64,8.39.07,12.72,0,25.44,0,38.16-.35,1.13-.7,2.26-1.06,3.39,0,1.35,0,2.7,0,4.05.36,1.11.71,2.23,1.07,3.34,0,12.42.16,24.85-.13,37.26C96.61,115.1,97.36,119.16,94,121.92Z" fill="#ebece6"/><path d="M520.39,78.51c0-4,.2-7.93.07-11.89-.09-2.64,1-3.6,3.5-3.38,3.63.33,7.25.57,10.88.85v3a2,2,0,0,0-.11,2.85l.47,1a3.42,3.42,0,0,0,.21,3.08c-.25,3.87-2.13,5.49-6.13,4.93C526.36,78.52,523.36,78.64,520.39,78.51Z" fill="#333"/><path d="M534.83,67.08c0-1,0-2,0-3,.21-.38.41-.77.62-1.16,17.22.06,34.44.07,51.66.24,2.18,0,6.25-1.22,4.17,3.81L536,67.3Z" fill="#c2c2c2"/><path d="M55.76,62.93c0,1.35.07,2.71.11,4.07L.32,67.1c-1.16-3.86,1.18-4,4-4,15.14.06,30.28,0,45.42,0C51.77,63.1,53.76,63,55.76,62.93Z" fill="#c2c2c2"/><path d="M.32,67.1,55.87,67c0,1.32,0,2.64,0,4L.29,70.86Z" fill="#adadad"/><path d="M.29,70.86l55.59.1c0,1.36-.08,2.72-.13,4.08q-25.7-.12-51.38-.19C1.54,74.84-.85,74.75.29,70.86Z" fill="#c2c2c2"/><path d="M536,67.3,591.29,67c0,1.33,0,2.67,0,4l-56.11,0c-.16-.33-.31-.67-.47-1C536.19,69.55,536.11,68.43,536,67.3Z" fill="#adadad"/><path d="M233.73,381.53l14.76,3.73c5.33,1.17,10.75,1.15,16.17,1.29a151.43,151.43,0,0,1-29.76,8.82C234.28,390.78,233.51,386.2,233.73,381.53Z" fill="#b47f5a"/><path d="M426.51,61a9.87,9.87,0,0,1-3.42,8.84c-1.35,1.14-2.29,2.69-1.24,4.33a3.34,3.34,0,0,0,4.34,1.37,2.57,2.57,0,0,1,3.73,1.17,2.1,2.1,0,0,0,.71.68c1.63,1,13,0,14.74-1.07,3.12-2,6.91-.08,10.15-1.6.91,0,1.85-1.24,2.74,0-1,.9-.77,2.06-.61,3.2-6.52.61-13.62-.52-18.18,6-1.76,3-3.38,3.92-5.53.14-2.24-3.94-6-6.08-10.34-7.11-1.83-.43-4.26.45-4.87-2.3a6.19,6.19,0,0,1,2.07-6.31c3.07-2.6,4.79-5.45,2.49-9.49C425.43,58.55,425.76,60,426.51,61Z" fill="#c79677"/><path d="M136.76,74c7,2.34,14.14,4.16,21.5,3.88,3.4-.14,6.45-2.46,10.29-2.7,2.93-.18,2.71-3.73.13-5.6A9.28,9.28,0,0,1,164.76,61c.8-1.12,1-3.4,2.91-2.69s0,2.26,0,3.42a7.73,7.73,0,0,0,2.88,6.58c2.48,2,2.59,4.65,1.92,7.24s-3.11,1-4.73,1.42a15.72,15.72,0,0,0-10.22,7.31c-1.33,2.15-2.77,3.45-4.74.61l-1-1v0c-.09-1.46-1.07-2.18-2.14-3C144.84,77,139.17,78.18,133.72,78c-.07-.68-.15-1.35-.22-2C133.94,74.25,135.21,73.86,136.76,74Z" fill="#c79677"/><path d="M535.2,70.93l56.11,0c1.78,4-1.42,3.06-3.24,3.07-10.26.08-20.53,0-30.8,0-7.29,0-14.57,0-21.86-.08A3.42,3.42,0,0,1,535.2,70.93Z" fill="#c2c2c2"/><path d="M330.63,243.83l10.83-22c1.4,3.28,1.26,6.84,1.68,10.26a20.82,20.82,0,0,0,2.28,7.39c-1.48-1.24-2.6-.22-3.91.48C338.09,241.75,334.64,243.6,330.63,243.83Z" fill="#c79677"/><path d="M249.74,223.76c3.88,1.21,3.5,5.3,5.12,8,2.26,3.75,5.58,7.12,5.82,11.89-5.21-.09-9.06-3.87-13.85-5.07C249.43,233.94,248.17,228.57,249.74,223.76Z" fill="#b47f5a"/><path d="M136.76,74c-1.55-.09-2.82.3-3.26,2a7.85,7.85,0,0,0-5-1.85q-15.84.11-31.67.24c-.36-1.11-.71-2.23-1.07-3.34l41,0Z" fill="#c2c2c2"/><path d="M95.77,67c.36-1.13.71-2.26,1.06-3.39,12.33.25,24.66.94,37-.51a3.38,3.38,0,0,0,.95-.1c1.06,1.15,2.43,2.13,2,4Z" fill="#c2c2c2"/><path d="M518.21,89.83c.65,4.31-.71,8.75.84,13,0,6.18,0,6.18-7.6,6.19-.95-6.06,3.26-11.41,2.27-17.64C513.37,89.21,516.62,90.3,518.21,89.83Z" fill="#545454"/><path d="M268,32c1.49,3.27-1.46,7.73,2.73,10.29-.57,5.43.51,10.67,1.89,15.87-4.07.08-6.08-2.4-6.77-6-.92-4.71-2.89-9.46,1.35-14C268.31,37,267.73,34.09,268,32Z" fill="#dcbaa1"/><path d="M133.72,78c5.45.19,11.12-1,15.94,2.87,1.07.85,2.05,1.57,2.14,3-5.84-2.12-11.91-2.14-18-1.94C133.77,80.63,133.74,79.31,133.72,78Z" fill="#d6ad8f"/><path d="M71,74.17c0,1.65,0,3.31-1.13,4.7h-4c-.65-.89-1.31-.89-2,0-2.06-.08-4.22.85-6.12-.67.06-1.43.12-2.86.17-4.28Z" fill="#545454"/><path d="M439.47,84c4.56-6.54,11.66-5.41,18.18-6,1.21.79.57,1.91.53,2.93-1.87.6-3.72,1.43-5.75,1.08C447.88,81.16,443.76,83.11,439.47,84Z" fill="#d6ad8f"/><path d="M77.79,108.86c.95-2.2.73-4.84,3-7.38V118c-1.37-2.11-.88-4.5-.88-6.79C79.87,109.65,79.62,108.64,77.79,108.86Z" fill="#787878"/><path d="M187.7,191.78c-.19-.4-.64-1-.52-1.16,1.08-1.35,2,.35,3,.26Z" fill="#c79677"/><path d="M511.38,115.88l.09-5.11A8.12,8.12,0,0,1,511.38,115.88Z" fill="#545454"/><path d="M63.86,78.88c.65-.89,1.31-.89,2,0A1.65,1.65,0,0,1,63.86,78.88Z" fill="#787878"/><path d="M74.83,108.9c.66-1,1.33-1,2,0A1.38,1.38,0,0,1,74.83,108.9Z" fill="#787878"/><path d="M134.75,63a3.38,3.38,0,0,1-.95.1l.79-1.09C134.64,62.3,134.69,62.63,134.75,63Z" fill="#ebece6"/><path d="M511.57,24.23c0-.44,0-.89,0-1.34A.81.81,0,0,1,511.57,24.23Z" fill="#787878"/><path d="M191.71,190.61,193,190Z" fill="#d6ad8f"/><path d="M268,23.13a3.91,3.91,0,0,1,.21.72c0,.08-.18.18-.28.27a4,4,0,0,1-.22-.72C267.68,23.32,267.88,23.22,268,23.13Z" fill="#dcbaa1"/><path d="M209.82,591.44c3.21,2.76,6.89,3.4,11.05,2.92a28.09,28.09,0,0,1,9.38.13c7.34,1.71,13-.41,17.43-6.28-1.63,8.49-4,11.17-12.25,12.54-6.18,1-12.5,1.43-18.61-.5C212.64,598.92,209.36,596.59,209.82,591.44Z" fill="#333"/><path d="M345.53,590.85c5.15,4.07,10.83,4.88,17.22,3.54,3.14-.66,6.58-.12,9.86.09,3.49.23,6.56-.38,8.89-3.21,1,4.22-1.19,7-4.74,8.19-9.11,3.18-18.34,3.14-27.08-1.13C347.1,597.07,343.88,595,345.53,590.85Z" fill="#333"/><path d="M337.73,559.25c-.63-3.29-1.71-6.53-1.14-10,5,3.82,6.32,9.53,6.78,15.17.39,4.81,1.55,10-1.65,14.51A46.34,46.34,0,0,0,337.73,559.25Z" fill="#545454"/><path d="M254.74,548.92l.51,4.36c0,.31-.07.62-.11.93l-1.29,5.32c-2.86,6.6-3.87,13.58-4.19,20.69C247,569.09,247.11,558.39,254.74,548.92Z" fill="#545454"/><path d="M315.66,394.45a34.36,34.36,0,0,1-1.62-9c9.79.61,19.59,2,29.38-.13l4-.46C337.19,389.15,326.77,392.94,315.66,394.45Z" fill="#b47f5a"/><path d="M356.71,129.23c1.3,9.62-4,15.59-11.33,20.44-10.95.08-21.9.38-32.84.17A15.1,15.1,0,0,1,298,136c-.8-7.88-.4-15.9-.13-23.85a8,8,0,0,1,2.77-6.18c4.12-.64,6.77-4.53,11-5,9.23-1.37,18.45.75,27.68.14.56,0,1.2.51,1.73.89C350.43,108.62,356.13,117.45,356.71,129.23Z" fill="#e1c3af"/><path d="M246.64,149.88c-8.28-5-12.93-12-12-22,2.13-5,2.25-10.73,5.87-15.35,4.95-6.33,9.45-12.64,19-11.69,8,.79,16.17-1,24.15,1.07l1,0,0,0,4.13,2.67c3.28,2.11,5.13,4.8,5,9-.27,6.79-.05,13.6-.09,20.4,0,9.15-6.8,15.82-16.07,15.85C267.23,149.91,256.93,149.88,246.64,149.88Z" fill="#dcbaa1"/><path d="M325.57,202.72c.82,4.57,1.88,9.14,0,13.71-2.91,1.34-5.75,2.83-9,3.4-5,.62-10,1.26-15.1.08a18.25,18.25,0,0,1-5.85-2.33c.1-5.62-.79-11.29.89-16.83.93-3.16,3.44-2,5.29-1.65a76,76,0,0,1,14.6,4.08C319.58,204.5,322.58,203.64,325.57,202.72Z" fill="#dcbaa1"/><path d="M296.59,200.75c-1.68,5.54-.79,11.21-.89,16.83-6.69,3.91-14,2.18-21.05,2.15-2.94.23-5.16-2.07-8-2.22-1.07-2.24-2.08-4.5-2-7.08.19-5.89,1.17-6.87,6.88-6.64,4.64.19,8.4-2.76,12.82-3.5C288.54,199.59,292.59,198.14,296.59,200.75Z" fill="#d6ad8f"/><path d="M326.58,181.83c3.57,4.64,2.16,9.27,0,13.9-3,1.57-6.24,2.22-9.46,1-7.1-2.78-15.37-2.45-21.44-8l0-9.85c3-3.72,6.58-4.84,11.34-3.27s9.82,2.77,14.39,5.11A9.48,9.48,0,0,0,326.58,181.83Z" fill="#dcbaa1"/><path d="M295.62,178.88l0,9.85a51.93,51.93,0,0,1-26,8.06c-4.74.17-6.71-3.15-6.8-6.9-.08-3.17-.53-6.95,4.65-8.41,6.12-1.73,11.82-4.75,18.22-6.06C290.25,174.5,293,175.71,295.62,178.88Z" fill="#d6ad8f"/><path d="M295.61,163.8c-3.47,5.66-9.95,5.57-15.18,7.3-5.43,1.79-11.16,4.33-17.39,1.82-3-1.2-3.35-3-3.49-5.69-.16-3.07,1.84-3.67,3.92-4.12,5.87-1.28,11.38-3.58,16.94-5.71,6.3-2.42,11.81-6,14.92-12.67l6.29,8.11c-5-.9-6.8,1.25-6,6.12A32.56,32.56,0,0,1,295.61,163.8Z" fill="#d6ad8f"/><path d="M295.61,163.8a32.56,32.56,0,0,0,0-4.84c-.76-4.87,1.05-7,6-6.12,9.49,4.75,19.16,9,29.64,11.13a2.75,2.75,0,0,1,2.27,2.87c-2.23,1-2,3-2,4.86-5.06,2.88-10.22,2.68-15.6.82-4.17-1.44-8.49-2.49-12.75-3.68A13.36,13.36,0,0,1,295.61,163.8Z" fill="#dcbaa1"/><path d="M356.71,129.23c-.58-11.78-6.28-20.61-15.72-27.28-.53-.38-1.17-.92-1.73-.89-9.23.61-18.45-1.51-27.68-.13-4.68-1.75-8.06.33-11,3.73l-2.93.33-1.1-1.12c0-1.68.32-3.17,2-4a1.77,1.77,0,0,0,2.65,0c5.32-6.58,12.59-3.7,19-3.57,7.54.15,15.06,1.67,22.59,2.59q2.88.75,5.77,1.47c.84,2.53,3,1.4,4.63,1.63,3.68.5,7.88,1.23,8.15,5.53A56.18,56.18,0,0,1,358.36,130Z" fill="#dcbaa1"/><path d="M316.65,219.83c3.2-.57,6-2.06,9-3.4-.94,6.27-3.34,12.13-5.09,18.17C319.2,229.68,319.67,224.3,316.65,219.83Z" fill="#b47f5a"/><path d="M266.66,217.51c2.83.15,5,2.45,8,2.22A46.4,46.4,0,0,0,271,232.9C269.59,227.72,266.69,223,266.66,217.51Z" fill="#b47f5a"/><path d="M300.59,104.66c2.93-3.4,6.31-5.48,11-3.73-4.2.46-6.85,4.35-11,5C300.6,105.5,300.59,105.08,300.59,104.66Z" fill="#d6ad8f"/><path d="M339.31,542.17c-2-16.57-3.48-33.23-6.19-49.68-1.38-8.4-6.36-15.95-7.84-24.54a91.13,91.13,0,0,1-1.08-27.18c.78-6.08-.13-12.29,1.35-18.32,6.07,3,9.41,8.61,12.68,13.95,9.88,16.1,15.18,33.52,14.41,52.69-.47,11.62.34,23.3-.26,34.91-.35,6.72-.13,13.57-1.81,20.2-3.18.41-6.84-1.13-9.3,3.07Z" fill="#dcbaa1"/><path d="M266.25,422.38c1.38,17.66,3.66,35.37-1.59,52.8-2.61,8.67-6.73,16.85-7.51,26.11-1.14,13.68-3.94,27.18-4.44,40.93-1.16,2-1.6,4.67-5.2,2.35-1.68-1.08-4.54-.31-6.86-.37a26.13,26.13,0,0,1-1-7.82c.06-16.92-.07-33.83.05-50.74.12-18.88,4.27-36.48,15.91-52C258.79,429.41,261.67,425.18,266.25,422.38Z" fill="#dcbaa1"/><path d="M181.71,67h92a5.76,5.76,0,0,1,.78,4l-92.66,0C181.76,69.65,181.73,68.32,181.71,67Z" fill="#adadad"/><path d="M181.78,71l92.66,0-.21,3.32c-20.31-.07-40.62-.18-60.92-.22-10.49,0-21,.06-31.46.09C181.83,73.13,181.8,72.06,181.78,71Z" fill="#c2c2c2"/><path d="M151.81,83.92l1,1Z" fill="#d6ad8f"/><path d="M317.68,67l92.77,0c0,1.3-.05,2.61-.07,3.92l-92.71,0C317.67,69.64,317.67,68.31,317.68,67Z" fill="#adadad"/><path d="M317.67,71l92.71,0c.11,1.18.22,2.37-1,3.16l-91.69.15Z" fill="#c2c2c2"/><path d="M414.43,89a1.57,1.57,0,0,1-1-2A1.85,1.85,0,0,1,414.43,89Z" fill="#dcbaa1"/><path d="M412.45,86l-1.25-1Z" fill="#dcbaa1"/><path d="M413.44,87c-.68,0-1-.37-1-1Z" fill="#dcbaa1"/><path d="M207.68,112.9c6-8.81,14.87-12.19,25-12.87,3.61-.25,7.27.1,10.91.18-15,4.36-15.2,3.08-13,20.84.45,3.7-.07,7.54,2.16,10.87l-.15,2a2.13,2.13,0,0,0-.89,2c-4.52,0-8.81-3-13.48-1l-10.5,0c-2.7-6.22-3.49-12.4.22-18.55C208.64,115.19,209.13,113.94,207.68,112.9Z" fill="#dcbaa1"/><path d="M295.66,73.87c4.27.4,8.45.55,12-2.58.9-.79,2.21-2.17,3.37-1,1.31,1.3-.58,2.16-1.18,3.17-.33.56-.74,1.07-1.12,1.6-3.08,1.07-4.19,5.43-8.19,5s-5,1.53-5.06,5.26c-.1,5.53,1.13,11.15-.82,16.59C288.81,90.9,284.81,79,277.15,67.56,284,70.26,288.67,75.78,295.66,73.87Z" fill="#b47f5a"/><path d="M294.66,101.85c1.95-5.44.72-11.06.82-16.59.07-3.73,1-5.74,5.06-5.26s5.11-3.88,8.19-5c-.55,5.56-4.31,9.8-6.11,14.85-1.21,3.37-3.91,6.14-4.09,9.94-1.65.86-2,2.35-2,4C295.21,103.87,294.61,103.17,294.66,101.85Z" fill="#c79677"/><path d="M255.57,93.92c5.43-5.21,12.08-8.67,18.3-12.73,1.45,6.28,1.28,6.23-4.88,7.91C264.42,90.35,260,92.29,255.57,93.92Z" fill="#b47f5a"/><path d="M271.11,36a6,6,0,0,1,1.43-3.41C272.5,33.88,273,35.41,271.11,36Z" fill="#dcbaa1"/><path d="M271.06,39.9l0-1.75A1.07,1.07,0,0,1,271.06,39.9Z" fill="#dcbaa1"/><path d="M284.63,102l-1,0C284,101.21,284.32,101.27,284.63,102Z" fill="#c79677"/><path d="M254.7,94a1,1,0,0,1,1-.16C255.41,94.35,255.12,94.57,254.7,94Z" fill="#b47f5a"/><path d="M297.68,11.33c1.5-.18,3-.42,4.38.47C300.56,12,299,12.49,297.68,11.33Z" fill="#d6ad8f"/><path d="M385.6,115.78c4.57,4.83,5.28,11.2,6.74,17.23.43,1.79.6,3.37,2.17,4.72a98.15,98.15,0,0,1,16,18.23c1.45,2.25,1.06,4.79.95,7.21a25.21,25.21,0,0,0,3.7,13.56,9.09,9.09,0,0,1,1.34,5.08h0c-2.13-.14-2.44-2-3.14-3.42-2.7-5.44-5.31-10.9-7.51-16.6-3.71-9.6-10.52-17-18.46-23.39-1.25-1-3.47-1.69-2.57-3.66C387.68,128.48,386.21,122.13,385.6,115.78Z" fill="#d6ad8f"/><path d="M207.72,134.9l10.5,0,7.46,4.94c.48,3.41-1.47,6.05-2.93,8.79-10.48,19.64-27.11,31.46-48.14,37.65-1.45.43-1.72-.41-1.81-1.52l.94-.92c2.46-.28,3.11-1.89,3-4.06h0a2.55,2.55,0,0,0,2.26-1.67c1.91-4.34,4.18-8.56,5.69-13a54.38,54.38,0,0,1,15.07-22.87C202.42,139.8,205.91,138.25,207.72,134.9Z" fill="#e1c3af"/><path d="M207.72,134.9c-1.81,3.35-5.3,4.9-8,7.35a54.38,54.38,0,0,0-15.07,22.87c-1.51,4.48-3.78,8.7-5.69,13a2.55,2.55,0,0,1-2.26,1.67c-.06-5.28,3.45-9.68,3.42-15.13,0-2.8.39-5.8.6-8.7,5.5-6.55,10.81-13.27,17.24-19,1.28-1.14,1.37-2.92,1.69-4.55,1.15-5.82,2.38-11.63,6-16.57l.92-1.24c.37-.58.73-1.17,1.1-1.76,1.45,1,1,2.29.26,3.45C204.23,122.5,205,128.68,207.72,134.9Z" fill="#d6ad8f"/><path d="M176.75,179.82c.1,2.17-.55,3.78-3,4.06C173.64,181.71,174.08,179.94,176.75,179.82Z" fill="#d6ad8f"/><path d="M454.58,71c0-1.4-.51-2.91.81-4,11.75,0,23.5,0,35.26.12,1.68,0,4.6-1.18,4.5,2.09-.08,2.8-2.73,1.8-4.32,1.81C478.74,71,466.66,71,454.58,71Z" fill="#adadad"/><path d="M385.6,115.78c.61,6.35,2.08,12.7-.8,19-.9,2,1.32,2.64,2.57,3.66,7.94,6.39,14.75,13.79,18.46,23.39,2.2,5.7,4.81,11.16,7.51,16.6.7,1.42,1,3.28,3.14,3.42.42,1.21.85,2.42,1.46,4.19A66.6,66.6,0,0,1,395,176.84a74.42,74.42,0,0,1-28.59-33.67c-.24-.55-.84-.94-1.27-1.4,1.39-3.41,5.19-3.78,8-6.27-2.68-1.32-5.21-.71-7.59-.29-6.63,1.15-6.61,1.24-7.15-5.23a56.18,56.18,0,0,0,2.95-22.53c-.27-4.3-4.47-5-8.15-5.53-1.64-.23-3.79.9-4.63-1.63,10.87-1.16,21.24-.06,30.29,6.81,2.78,2.11,5.49,4.33,6.68,7.83-.73.41-.59.72.11,1Z" fill="#e1c3af"/><path d="M95.77,67l41,0v4l-41,0C95.77,69.66,95.77,68.31,95.77,67Z" fill="#adadad"/><path d="M71,74.17l-13.08-.24c0-.17,0-.34,0-.5-.21-10.1,1.14-11.21,11.29-9.57,1.59.26,2.5.77,2.38,2.44C71.34,68.93,72.12,71.62,71,74.17Z" fill="#333"/><path d="M231.7,135.93a2.13,2.13,0,0,1,.89-2C232.66,134.73,232.59,135.51,231.7,135.93Z" fill="#d6ad8f"/><path d="M536,67.3c.11,1.13.19,2.25-1.27,2.63a2,2,0,0,1,.11-2.85Z" fill="#787878"/><path d="M255.14,554.21c0-.31.07-.62.11-.93a4.43,4.43,0,0,1,.19.69C255.44,554,255.25,554.13,255.14,554.21Z" fill="#dad8eb"/><path d="M206.58,114.66l-.92,1.24Z" fill="#dcbaa1"/><path d="M385.61,115.89c-.7-.24-.84-.55-.11-1A2.81,2.81,0,0,1,385.61,115.89Z" fill="#d6ad8f"/></g></g></svg>