<svg xmlns="http://www.w3.org/2000/svg" viewBox="0 0 591.37 460.09"><title>asset_3</title><g id="Layer_2" data-name="Layer 2"><g id="Layer_1-2" data-name="Layer 1"><path d="M371.68,404.05c9.89,2.7,18.34,7.32,23,17.09,2.24,4.7-.95,13-6.12,17-12.61,9.7-27.43,13.73-42.6,16.78-18.71,3.75-37.65,5.83-56.74,5-25.55-1.09-50.79-4.25-74.66-14.19a47.57,47.57,0,0,1-12.85-8.44c-8.6-7.55-7.79-17.78,1.92-25.36,4.55-3.54,9.41-6.66,15.23-7.81a84,84,0,0,1-6.16,10.39c-2.21,3.19-4.84,7.1-2.68,11.66-1.32,5.48,2.38,7.69,6.47,8.87a38.08,38.08,0,0,0,23.41-.75c4.67-1.64,7-5.27,7-10.3l-.12.12.93-1c2.08-2.15.7-5.17,1.89-7.54.24-7.39,1-14.68,4.24-21.48,6.3.11,12.48-1.13,18.72-1.7,9.57-.87,19.21-.78,28.78-.92,11.82-.17,23.68,1.65,35.52,2.61a15.21,15.21,0,0,1,3,7.12c1.41,7.23,1.08,14.71,3.35,21.79,1.34,4.59,2.29,9.51,7.65,11.33a39.2,39.2,0,0,0,24.32.64c4.05-1.22,7-3.83,6.42-8.72.51-4.1.14-8.08-2.7-11.25A51.73,51.73,0,0,1,371.68,404.05Z" fill="#ebece6"/><path d="M139.67,278.41c-10.31,13.56-19.67,26-29.16,38.32-6.25,8.13-6.17,8-12.26-.16C89.8,305.29,81.11,294.18,72.5,283c-.9-1.17-2.45-2.41-1.9-3.8.65-1.66,2.64-.74,4-.76,9.53-.11,9.53-.07,9.53-9.41,0-14.62.11-29.25-.1-43.87-.06-4.18.88-5.92,5.52-5.75,9.8.37,19.63.39,29.42,0,4.86-.2,5.82,1.56,5.75,6-.23,15.79.11,31.58-.2,47.36-.1,4.77,1.5,6.16,5.91,5.69C133,278.19,135.65,278.41,139.67,278.41Z" fill="#f9bf7a"/><path d="M452.86,278.39c3.46,0,6.61-.17,9.72.05,3.3.24,4.26-1.05,4.23-4.28-.14-16.46.06-32.93-.15-49.39-.05-4,.89-5.5,5.2-5.35,9.81.33,19.64.3,29.44,0,4.09-.12,5.45,1,5.39,5.22-.23,16,.13,31.94-.22,47.89-.12,5,1.52,6.46,6.17,5.89a77.36,77.36,0,0,1,8.72-.06c-3.63,6.75-8.37,11.84-12.45,17.34-6.53,8.79-13.39,17.33-20.09,26-1,1.3-1.67,3.35-3.56.85q-16.06-21.22-32.12-42.45C453,279.89,453,279.49,452.86,278.39Z" fill="#f9bf7a"/><path d="M241.77,244.48l1-1.17a3.23,3.23,0,0,0,1.72,2.8,128.86,128.86,0,0,1,15.42,9.66c17.6,12.61,29.47,28.27,27.84,51.28l-53,7.86c.64-2.26,2.81-4.09,2-6.78l0,.09,1-.69A32.71,32.71,0,0,0,232,285.06c-4.58-8.88-11.78-15.31-19.62-21.17,1.63-.77,3.21-1.66,4.9-2.29a104.83,104.83,0,0,0,17.12-7.6C238,251.87,242.13,249.83,241.77,244.48Z" fill="#333"/><path d="M413.61,63.11c3.79-.88,6.14-2.88,6.24-7.12.06-2.17,1.72-4.39,3.67-4,3.56.78,6.94-.13,10.27.06,5.18.3,10.22.88,15.4-.12,4.24-.81,5,2.89,6.34,5.66-1.32.26-.6,3.26-2.49,2.26-3.89-2.06-8-.19-11.9-.56-4.93-.46-10.35-1.12-15.47.24-.94-.2-1-1.84-2.71-1.29,1.52,4.39.57,7.86-3.24,11.09-3,2.51-1.15,6.45,2.65,7.23,4.48.91,8.42,2.94,10.89,7,2.24,3.64,4.22,3.71,6.34,0a50.33,50.33,0,0,1,18.06-1.94,17.51,17.51,0,0,1-2.06,9.93c-7.29.58-10,3.39-10,10.36,0,2.49.06,5-.17,7.46-1.23,12.63-2.86,25.22-3.72,37.87-.72,10.51-1.68,20.67-8.9,29.18-2.23,2.62-4.23,3.42-7.55,2.19-7.64-2.83-9.39-8.9-9.65-16.08-.4-11.34,3.83-21.72,7-32.24,1.16-3.8,1.07-7.86,2.72-11.39a65.35,65.35,0,0,0,5.27-19.35c.31-1.39,4.22-3.12,1.62-3.49-5.62-.8-10.39-4-15.95-4.45l-.72-.75c-.23-.51.63-2-1.09-1.16-5.79-3.75-4.64-9.69-4.83-15.21,0-1.29,0-2.57,0-3.86l.09-4A4.3,4.3,0,0,0,413.61,63.11Z" fill="#e1c3af"/><path d="M136.83,56.34c.6-4.05,2.8-5.55,6.54-3.66,1.53.77,2.6,1.09,4,0a3.63,3.63,0,0,1,5,0,2.28,2.28,0,0,0,3.11.14,4.63,4.63,0,0,1,5.56-.11c.52.34,1.42.81,1.79.6,6.62-3.81,7.74,0,8.55,5.56.34,2.33,3.71,3,5.52,4.65q2,1.54,4,3.07c.28,1.34.57,2.67.85,4-1.37,1.18-.81,2.72-.79,4.15-.59,4.37,1.8,9.42-2.9,12.86l-1.2,1,.05,0c-.35.35-.69.7-1,1l0,0-1,1.33-.64.75c-5.93.4-10.74,4.79-17.11,4.41,4.29,3.61,4.77,8.46,5.63,13a175.75,175.75,0,0,0,7.87,27.44c3.54,9.62,4.81,19.49,5.06,29.53.13,5.26-5.89,12.5-10.65,13.1-5.59.69-8.22-3.55-10.25-7.83-4.07-8.56-5.18-17.83-5.94-27.13-1.08-13.31-2-26.65-3.13-40-.4-4.57-1.25-9.07-6.14-11.53-1.85-.93-3.25-2.77-4.85-4.19a7.68,7.68,0,0,1-1.54-7c5.95.22,12-.41,17.69,2.05,3,2.82,5.25,3.17,7.65-1,1.95-3.41,5.67-4.92,9.49-5.87,1.59-.4,4,.88,4.58-1.76s.1-5.12-2.15-6.75c-2.7-2-3-4.55-2.59-7.5.13-1,1.52-2.31-.36-2.84-1.29-.37-2.06.77-2.64,1.83-2.64.61-5.14-1.91-7.71-.57-2.23,1.17-4.22,1.54-6.43.06-1.28-.87-2.38.07-3.63.58C143.43,61.19,137.71,59.2,136.83,56.34Z" fill="#e1c3af"/><path d="M212.36,263.89c7.84,5.86,15,12.29,19.62,21.17-.53.31-1.11.94-1.59.87-7-1-14-.42-21.06-.81-2.18-.13-4.36-1.92-6.49.13a5,5,0,0,0-4.33,3.39c-4.48,10.09-.8,19.35,3.53,27.94,5.43,10.76,12.73,20.49,19.64,30.4,5.31,7.61,10.49,15.31,15.43,23.16,2.86,4.52,6,8.93,7.74,14.09a1.44,1.44,0,0,1-.82.06c-1.16-.17-2.35-.41-3.22.72-5.6,1.46-10.68,1.57-13.2-5.05,0-.12-.27-.16-.41-.24-2.74-8.27-9.1-14.15-14.07-20.92-10.69-14.56-22.84-28.05-32.44-43.43-6.1-9.77-9.7-20.3-7.8-32.09,2.1,2.92,2.1,6.5,3.11,9.76.52,1.7.94,3.8,3.16,4a4.74,4.74,0,0,0,4.62-2.42c1.74-3.68,4.56-6.81,5.14-11.11.81-5.94,6.39-11.18,12.47-12.22,1.24-.21,2.84.32,3.27-1.47s-1.13-2.46-1.83-3.67c-2.31-4-7.73-2.78-10.09-6.42l8-1.77A61.72,61.72,0,0,1,212.36,263.89Z" fill="#d6ad8f"/><path d="M249.07,220.48c1.05-7.64,3.17-15.2,1.63-23,1.77-6.49,1.9-13.25,3.2-19.8,1-5.3.79-11.83,7.35-14,11.72-4,24.27-6.16,32.61-16.7,1.13-1.44,2.61-1.76,3.55.12s3.27,3,3.38,5.39c-4-.56-5.6,1.1-5.09,5.14a58.9,58.9,0,0,1,.1,6.78c-11.51,5.36-22.86,11.42-36.29,7.59,3.27,9.56,4.66,10.06,13.91,6.8,7.26-2.55,14.61-6.82,22.38-1.19l-.09,8.92c-9.92,6.38-20.6,9.06-32.16,7.07,3.56,10,4.17,10,14.19,6.55,6-2.1,12.31-4.79,18.94-1.76-1.55,5-.7,10.07-1,15.11-6.73,5.44-14.35,4.4-22,3-2.81.32-4.89-2.22-8.36-2.51,2,5,3.72,9.19,5.43,13.44,1.5,4,3.9,7.76,4.1,12.23-5.15-.55-10.3-1.13-15.13-3.2C256.74,230.72,253.88,225,249.07,220.48Z" fill="#d6ad8f"/><path d="M417.68,289.23c.31,15.5-6.87,28-15.74,39.94-12.4,16.61-26.32,32-38.23,49-4.68.33-9.22,2.62-14,1,2.54-8.12,7.72-14.82,12.39-21.65,8.47-12.36,17.42-24.42,24.91-37.39,5.29-9.16,10-18.8,6.49-30.06-.79-2.51-1.76-4.7-4.86-4.81-.84-1.13-2-.93-3.15-.76a118.54,118.54,0,0,1-26,.52c.09-2.15,1.69-3.51,2.78-5.1,4.45-6.46,10.54-11.28,16.44-16.3l11.75-5.71,8.72,2.09c-4.35,2.53-9.31,4.1-12.73,8.08-.61.71-1.67,1.31-1.15,2.47.41.92,1.4.76,2.18.74,8-.26,11.66,4.72,14.23,11.35,1.77,4.58,3.38,9.28,6.84,13,2.6,2.82,4.33,3.36,5.6-1.09C414.66,292.54,414.55,289.68,417.68,289.23Z" fill="#d6ad8f"/><path d="M273.06,62.67l-.39-3.89c-1.28-5.69-2.34-11.4-2-17.27-.85-7.9,4.25-14.84,3.65-22.75-.13-1.68,1.95-2.53,3.36-3.36a34.22,34.22,0,0,1,18-4.41q0,31.55.05,63.11a14,14,0,0,1-11.66-2.83c-2.19-1.62-4.19-3.92-7.37-3.69a1.09,1.09,0,0,0-.14-.37c-.05-.06-.19-.06-.28-.08l.4.47c1.61,2.46,3.88,4.42,5.11,7.18,3.89,8.68,7.89,17.32,11.85,26,.4.87.13,2.52,2,1.73h1a2.29,2.29,0,0,0,1.1,2.13c-3.42,3-5.93-1.7-9.07-1.06l0,0a2,2,0,0,0-2-1l0,0c-.43-.93-1.27-1-2.14-1-8.18-1.56-16.51-.34-24.69-1.13-9.83-1-14.36,5.31-19.33,11.9-3.28,4.36-3.76,9.63-6,14.28-.62,1.31-1.24,2.61-1.85,3.92-.86-.16-1.7-.47-1.81-1.42-.74-6.73-1.42-13.45-2.13-20.18-.31-3,1.54-4.29,3.71-5.85,2.59-1.88,6-.56,8.32-2.65l3.55-.08,1.4-.77c2.07-1.37,3.74-3.36,6.26-4l1.75-1.07-.09.06c.81-.13,1.65-.21,2.09-1.07l-.1.06c4-1.4,7.92-3.33,12.05-4.07,5.19-.93,7-3.45,6-8.4l0-6.47c0-1.31,0-2.63,0-4l0-4.13C273.62,65.21,274.18,63.81,273.06,62.67Z" fill="#d6ad8f"/><path d="M295.8,74.1q0-31.56-.05-63.11a34.31,34.31,0,0,1,18.41,4.8c1.25.76,3,1.46,2.83,3.16-.63,7.12,3.35,13.34,3.8,20.24.26,3.93,1.73,1.07,2.79.46,1.36,0,2.53,0,3.08,1.71,1.71,5.25-1,13.77-5.87,16.5-2.1,1.19-2.16,3.11-3.05,4.77-.56,1.31-1.77,2.62-.06,4l0,4a2.56,2.56,0,0,0-.13,3.88c-.72,4.56,1.47,7.23,5.22,9.66,6.9,4.48,14.21,8.42,20.21,14.2a4.66,4.66,0,0,1-4.19.42c-7.17-2-14.66-2-22-3.21-6.88-1.17-12.88,1.67-19,4,3.68-8.3,8.48-16.11,11-24.93L313,68.86c.17-.24.54-.61.49-.7-.38-.59-.74-.2-1.08.11C307,70.62,302.53,75.56,295.8,74.1Z" fill="#e1c3af"/><path d="M288.72,103.55c3.14-.64,5.65,4.11,9.07,1.06,2.45-.28,4.32-2.48,7-2.08-6.57,3.89-7.84,9.85-7.15,17,.47,4.93,0,10,.1,14.94.11,7,5.88,14,12.82,15a133.54,133.54,0,0,0,34.19.06c4.71,3.82,5.58,8.91,5,14.58-.3,3-.15,5.94-.4,8.89a2.09,2.09,0,0,0,1.24,2.37l-10.17,21.92c-1.89-.28-1.66-1.75-1.65-3.05a85.81,85.81,0,0,0-2.19-18c-.71-3.36-.39-7.38-3.8-9.79a2.54,2.54,0,0,0-2.11-2.45,153.22,153.22,0,0,1-29.83-11.55c-.11-2.42-2.42-3.47-3.38-5.39s-2.42-1.56-3.55-.12c-8.34,10.54-20.89,12.73-32.61,16.7-6.56,2.22-6.3,8.75-7.35,14-1.3,6.55-1.43,13.31-3.2,19.8-3-7.44-7.68-14.16-10-21.92,2.38-3.46,1.37-7.44.95-11-.71-6.07,0-11.17,5.13-15.05a143.06,143.06,0,0,0,32.11.05,15.79,15.79,0,0,0,13.22-9.64c2.87-7.07,1-14.42,1.64-21.61C294.28,112.57,293.33,107.47,288.72,103.55Z" fill="#c79677"/><path d="M259.71,236.42c4.83,2.07,10,2.65,15.13,3.2,6.93,1.14,13.77,2.95,20.88,2.75v63.71l-2.74.25a1.91,1.91,0,0,0-2.21.51l-3,.21c1.63-23-10.24-38.67-27.84-51.28a128.86,128.86,0,0,0-15.42-9.66,3.23,3.23,0,0,1-1.72-2.8c2-3.8,3.06-7.93,4.11-12.05C251.16,233,254.93,236,259.71,236.42Z" fill="#181818"/><path d="M349.67,379.15c4.82,1.65,9.36-.64,14-1,.65,4.21,1.47,8.4,1.9,12.63a23.69,23.69,0,0,0,6.07,13.24A51.73,51.73,0,0,0,378.85,415c2.84,3.17,3.21,7.15,2.7,11.25-3.73,2.93-8,3.39-12.54,2.77a31.84,31.84,0,0,0-10.34.54,13.27,13.27,0,0,1-10.8-2.33c-1.71-1.26-2.44-3.6-4.71-4.23-2.27-7.08-1.94-14.56-3.35-21.79a15.21,15.21,0,0,0-3-7.12q-.07-6.24-.16-12.47c0-2.08.06-4.1,2.72-4.59.61,1.33-.07,4.42,2.72,3C344.68,378.72,347.16,379.43,349.67,379.15Z" fill="#dad8eb"/><path d="M295.72,306.08V242.37c6.58-1.09,13.33-.82,19.83-2.54,5.17-.65,10.44-.91,15.14-3.57,5,0,9-2.68,13.1-5.17,1.74,4.48,2.32,9.4,5.22,13.43a2.88,2.88,0,0,0-.33.81c-7.22,2.25-13.22,6.72-19.12,11.14-16.78,12.6-28.17,28.21-26.8,50.5Z" fill="#333"/><path d="M134.78,88.47c1.6,1.42,3,3.26,4.85,4.19,4.89,2.46,5.74,7,6.14,11.53,1.17,13.31,2,26.65,3.13,40,.76,9.3,1.87,18.57,5.94,27.13,2,4.28,4.66,8.52,10.25,7.83,4.76-.6,10.78-7.84,10.65-13.1-.25-10-1.52-19.91-5.06-29.53A175.75,175.75,0,0,1,162.81,109c-.86-4.5-1.34-9.35-5.63-13,6.37.38,11.18-4,17.11-4.41-.49.86-.76,2-1.49,2.51-7.54,4.73-7.54,11.09-4.19,18.27a6,6,0,0,1,.21,1q6,21.18,12.07,42.36a22,22,0,0,0-1.08,6.26c-.34,8.25-2.77,15.5-8.63,21.86-4.2,4.55-9.82,6.29-14.49,9.73-1.71,0-2.66-1-3.41-2.44-7-13.54-11.87-27.65-12.41-43.06-.56-15.72-1.39-31.44-1.82-47.16C138.92,96.22,134.49,93.2,134.78,88.47Z" fill="#dcbaa1"/><path d="M227.2,379.72c.14.08.37.12.41.24,2.52,6.62,7.6,6.51,13.2,5.05,1.15.11,2.3.21,3.22-.72a1.44,1.44,0,0,0,.82-.06c8.42-.1,8.42-.1,7.81-7,2.61,1.67,2.07,4.34,2.15,6.81-2,.63-2.51,2.52-3.31,4.07-4.57,8.86-4.69,18.07-2,27.47-1.19,2.37.19,5.39-1.89,7.54l-.93,1,.12-.12c-3.64,3.91-7.85,6.81-13.47,5.82a54.28,54.28,0,0,0-14.89-.46c-3.35.33-6.27-.45-8.47-3.18-2.16-4.56.47-8.47,2.68-11.66a84,84,0,0,0,6.16-10.39c5.1-4.23,6.47-10.07,7-16.27C226,385.09,225.28,382.18,227.2,379.72Z" fill="#dad8eb"/><path d="M430.62,99.55a65.35,65.35,0,0,1-5.27,19.35c-1.65,3.53-1.56,7.59-2.72,11.39-3.2,10.52-7.43,20.9-7,32.24.26,7.18,2,13.25,9.65,16.08,3.32,1.23,5.32.43,7.55-2.19,7.22-8.51,8.18-18.67,8.9-29.18.86-12.65,2.49-25.24,3.72-37.87.23-2.47.16-5,.17-7.46,0-7,2.72-9.78,10-10.36-3.28,5.26-3.83,11.11-4,17.13-.35,15.37-.56,30.76-2,46.08-1.15,12.55-5.75,24.05-11,35.31-1,2.11-2.29,4.09-5.05,4.18-.79-2.58-3.46-2.73-5.27-3.89-10.29-6.62-17.27-15.15-16.6-28.1.14-2.69-1.2-4.63-2.05-6.85,3.49-1,2-4.2,2.47-6.25,4.06-16.28,10.24-32,13.29-48.52A10.13,10.13,0,0,0,430.62,99.55Z" fill="#dcbaa1"/><path d="M509.44,12.74c1.43,5.89,2.52,11.82,2.07,17.92-.69,4,2,7.6,1.15,11.63-.95,4.62,1.11,6.77,5.81,6.38l-.16,40.84c-2,.67-5.65-1.59-5.63,2.54,0,4.57-.76,9-1.15,13.51.18,6.07,0,12.11-2,18-2.23-4.23-.84-8.77-.94-13.14-.24-10.34-.07-10.34-10.46-11-.08-12.74-.27-25.48-.2-38.21.05-7.92-.59-15.86.4-23.76,10.23.39,10.08.38,10.29-10C508.73,22.54,507.54,17.54,509.44,12.74Z" fill="#333"/><path d="M82.14,126.43c-1.23-5.55-2.82-11.05-2.23-16.84.25-2.41,1.11-4.89-1-7a50.36,50.36,0,0,1,0-7c.65-4.65-.91-6.91-5.81-6.24Q73.09,71.59,73,53.75c0-2.83-.56-5.86,3.94-5.51a1.77,1.77,0,0,0,1.76-2c-.81-6,1.95-11.65,1.26-17.59-.75-6.12,1-11.92,2.2-17.8,1.57,5.5.55,11.12.65,16.68.19,10,0,10,10.21,10.09.21,21,.49,42-.14,62.92-.82,0-1.65,0-2.47,0-7.46-.31-7.29-.31-7.51,7.41C82.69,114.08,83.86,120.32,82.14,126.43Z" fill="#333"/><path d="M409.65,155.41c.85,2.22,2.19,4.16,2.05,6.85-.67,13,6.31,21.48,16.6,28.1,1.81,1.16,4.48,1.31,5.27,3.89-11.17,2.69-21.82.6-32.24-3.5,1.29-2.25-1.06-1.95-1.86-2.36-13.2-6.73-23.81-16.25-30.67-29.44-2.8-5.39-5.08-11.17-5.13-17.48l.43-.05h.43c2.59,2.28,3.15,5.7,4.79,8.47,7.59,12.77,17.79,23.09,31.15,29.83a81.33,81.33,0,0,0,19.67,6.91A34.22,34.22,0,0,1,410.6,173c-5.54-13.48-11.31-26.85-24.21-35.34-1.54-1-2.66-2.36-1.75-4.61a21.78,21.78,0,0,0-.4-17.3c-.37-.85-.46-1.57.37-2.17a40.69,40.69,0,0,1,7,17.73,12.6,12.6,0,0,0,4.3,8A63.11,63.11,0,0,1,409.65,155.41Z" fill="#d6ad8f"/><path d="M156.69,193.63c4.67-3.44,10.29-5.18,14.49-9.73,5.86-6.36,8.29-13.61,8.63-21.86a22.11,22.11,0,0,1,1.08-6.27A94.58,94.58,0,0,1,195.66,139a10.93,10.93,0,0,0,3.52-6.25c1.62-7.24,3.12-14.65,8.44-20.41,2.09,1.51-.05,2.43-.47,3.62-2.2,6.25-3.2,12.48.7,18.51a30.35,30.35,0,0,1-3.39,3.58,57.34,57.34,0,0,0-15.79,17.56c-5.61,10-7.37,22-17.15,30.65,5.2-.19,8.57-2.44,12.29-3.61,9.9-3.12,17.95-9.17,25.19-16.16a78.62,78.62,0,0,0,17.2-25.26,2.11,2.11,0,0,1,1.81,2.09,59.74,59.74,0,0,1-10.25,23.37C209.31,177.9,198.67,186.62,185,191c-.61.19-2.6.67-.17,1.42C175.52,195,166.24,197.29,156.69,193.63Z" fill="#d6ad8f"/><path d="M330.69,236.26c-4.7,2.66-10,2.92-15.14,3.57,0-4.88,4-8.16,5.1-12.58a73.42,73.42,0,0,0,2.78-7.77c.4-1.66,2.54-3.43.25-5.27,3.61-5.93,3.6-9.71,0-12.88,0-1.62,1.52-2.41,2.12-3.66,1-2,3.48-3.53,1.93-6.27.76-3.45,1.47-6.89-1-10,1.26-3,3.47-5.63,4-9v0l1-1.15a7.65,7.65,0,0,1,1-4.86c3.41,2.41,3.09,6.43,3.8,9.79a85.81,85.81,0,0,1,2.19,18c0,1.3-.24,2.77,1.65,3.05-1.64,5.64.14,11.15.63,16.71.18,2.13.4,4.26.61,6.39C337,225,334.29,230.94,330.69,236.26Z" fill="#d6ad8f"/><path d="M323.58,39.65c-1.06.61-2.53,3.47-2.79-.46-.45-6.9-4.43-13.12-3.8-20.24.14-1.7-1.58-2.4-2.83-3.16a38.36,38.36,0,0,0-36.44-.39c-1.41.83-3.49,1.68-3.36,3.36.6,7.91-4.5,14.85-3.65,22.75-1.38,0-2.08-1.1-3-1.86,0-4.64.33-9.3.11-13.93C267.2,12.16,279.32-1.34,297.54.11c19.32,1.53,27.29,15.73,26,29.09A101.21,101.21,0,0,0,323.58,39.65Z" fill="#333"/><path d="M92.86,100.51c.63-21,.35-41.95.14-62.92.34-8.33-.51-16.68.46-25,2.19,3.27,2.42,7,2.44,10.76C96,35,96,46.59,95.87,58.21c-.05,3.41.9,4.69,4.48,4.61,10-.21,19.93-.11,29.9,0,2,0,3.61-.27,4.52-2.24-.53,2.44,2.74,3.57,2.09,6.05-11.92,0-23.84,0-35.76,0-1.63,0-4.17-.76-4,2.21.17,2.47,2.45,1.74,3.94,1.74,11.92.06,23.84,0,35.76,0,0,1.22,0,2.44,0,3.66l-3.75.32c-10.8,0-21.6.06-32.39-.15-3.81-.07-4.84,1.47-4.79,5,.15,11.45.08,22.91,0,34.37,0,3.74-.28,7.46-2.45,10.72Q93.16,112.53,92.86,100.51Z" fill="#c2c2c2"/><path d="M498.35,37.44c-1,7.9-.35,15.84-.4,23.76-.07,12.73.12,25.47.2,38.21l-.63,21.12c-3.4-3.18-2.53-7.51-2.65-11.34-.33-10.08-.19-20.19-.07-30.28,0-3-.58-4.55-4.07-4.47-10.92.24-21.85.2-32.77.27-1.2-1.29-4.1-1.21-3.34-4.09,11.92,0,23.85,0,35.77,0,1.63,0,4.17.74,3.95-2.22-.17-2.47-2.45-1.73-3.94-1.74-11.93-.06-23.85-.05-35.78-.06a5.11,5.11,0,0,1,2.08-4c11.46.07,22.91.07,34.36.27,3.33,0,3.75-1.64,3.73-4.34-.08-10.29-.12-20.58,0-30.87a52.19,52.19,0,0,1,2.88-15.91C499.21,20.24,497.85,28.86,498.35,37.44Z" fill="#c2c2c2"/><path d="M417.68,289.23c-3.13.45-3,3.31-3.59,5.32-1.27,4.45-3,3.91-5.6,1.09-3.46-3.75-5.07-8.45-6.84-13-2.57-6.63-6.24-11.61-14.23-11.35-.78,0-1.77.18-2.18-.74-.52-1.16.54-1.76,1.15-2.47,3.42-4,8.38-5.55,12.73-8.08l3.52.35C415.39,265.94,418.85,276.38,417.68,289.23Z" fill="#dcbaa1"/><path d="M192.74,259.73c2.36,3.64,7.78,2.41,10.09,6.42.7,1.21,2.24,2,1.83,3.67s-2,1.26-3.27,1.47c-6.08,1-11.66,6.28-12.47,12.22-.58,4.3-3.4,7.43-5.14,11.11a4.74,4.74,0,0,1-4.62,2.42c-2.22-.2-2.64-2.3-3.16-4-1-3.26-1-6.84-3.11-9.76,0-10.86,6-19.28,15.72-22.35A6.47,6.47,0,0,1,192.74,259.73Z" fill="#dcbaa1"/><path d="M104.32,210.38c-5.49,0-11-.11-16.46.05-2.83.08-3.68-1-3.78-3.76-.37-10-.46-10,9.31-10,9,0,18,.09,26.93-.07,3.26-.06,4.45,1.09,4.37,4.33-.28,11.44,1.57,9.26-9.4,9.48C111.64,210.45,108,210.38,104.32,210.38Z" fill="#f9bf7a"/><path d="M486.61,196.63c5.31,0,10.62.12,15.93,0,2.89-.1,4.08.66,4.14,3.85.17,9.94.31,9.94-9.48,9.95-8.63,0-17.27-.13-25.89.05-3.32.07-4.69-.69-4.65-4.37.1-9.43-.09-9.43,9.49-9.43Z" fill="#f9bf7a"/><path d="M454.62,70.62c-.76,2.88,2.14,2.8,3.34,4.09l-.3-.09c-4.93.59-10.33-1.12-14.5,3.12a2.18,2.18,0,0,1-2.78.19,5.33,5.33,0,0,0-6.44,0c-1.4.94-2.54.16-3.46-.89-1.39-1.57-2.72-2.52-5.11-1.69A4.15,4.15,0,0,1,421,73.65a2.49,2.49,0,0,1,.84-3.52c3.88-2.6,4.11-6.47,3.84-10.55,5.12-1.36,10.54-.7,15.47-.24,3.94.37,8-1.5,11.9.56,1.89,1,1.17-2,2.49-2.26a8.5,8.5,0,0,1,1.17,4.9,5.11,5.11,0,0,0-2.08,4Z" fill="#dcbaa1"/><path d="M136.86,66.59c.65-2.48-2.62-3.61-2.09-6.05a7.31,7.31,0,0,1,2.06-4.2c.88,2.86,6.6,4.85,10.31,3.35,1.25-.51,2.35-1.45,3.63-.58,2.21,1.48,4.2,1.11,6.43-.06,2.57-1.34,5.07,1.18,7.71.57-.54,4.26.44,8,4.19,10.47,2.45,1.61,1.1,4.24.08,4.3-4.23.27-7.74,2.41-11.59,3.57-.13,0-.31-.1-.47-.17-4.05-1.76-9.53,2.51-12.73-3-.08-.14-1,.06-1.38.28-2.26,1.13-4.19-.11-6.2-.79,0-1.22,0-2.44,0-3.66Z" fill="#dcbaa1"/><path d="M317.68,66.6c-1.71-1.35-.5-2.66.06-4q43.72.06,87.46.13c2.81,0,5.61.23,8.41.35a4.3,4.3,0,0,1-3.9,3.49Z" fill="#c2c2c2"/><path d="M348.68,245.33a2.88,2.88,0,0,1,.33-.81L396,255.84c-1.91.53-4.06.38-5.55,2l-11.75,5.71c-7.26-3.18-14.86-5.54-21.81-9.42C353.15,252.11,350,249.6,348.68,245.33Z" fill="#32b0b7"/><path d="M212.36,263.89A61.72,61.72,0,0,0,200.78,258c-1.33-1.59-3.46-1.39-5.09-2.29l46.08-11.19c.36,5.35-3.77,7.39-7.39,9.52a104.83,104.83,0,0,1-17.12,7.6C215.57,262.23,214,263.12,212.36,263.89Z" fill="#32b0b7"/><path d="M184.79,192.37c-2.43-.75-.44-1.23.17-1.42,13.71-4.33,24.35-13,32.8-24.24A59.58,59.58,0,0,0,228,143.34c5.07,1.92,6,6.43,6.86,11-2.36-.25-2.42,1.92-3.19,3.2C220.86,175.62,205.32,187.34,184.79,192.37Z" fill="#c79677"/><path d="M363.67,141.47c.05,6.31,2.33,12.09,5.13,17.48,6.86,13.19,17.47,22.71,30.67,29.44.8.41,3.15.11,1.86,2.36-19-5.64-32.88-17.65-42.61-34.7-.64-1.13-1.44-2.16-2.16-3.23C357.92,148.41,359.48,144.12,363.67,141.47Z" fill="#c79677"/><path d="M79.94,28.62c.69,5.94-2.07,11.63-1.26,17.59a1.77,1.77,0,0,1-1.76,2c-4.5-.35-4,2.68-3.94,5.51q.12,17.84.18,35.68c-.57,3.63.63,7.4-.76,11-1.37-5.34-.27-10.79-.66-16.17-.14-1.94.47-4-.76-5.77,0-1.66-.11-3.32-.16-5,.26-10,.26-10.06-9.74-9.91-1.49,0-3,.21-4.46.32-.22-.43-.43-.87-.65-1.31.17-3.15,1.92-4,4.93-4,10.68-.13,10.66-.23,10.89-10.95.09-4.63.63-9.27.37-13.87s1.69-5.87,5.83-5.06A8.53,8.53,0,0,0,79.94,28.62Z" fill="#787878"/><path d="M234.86,154.32c-.86-4.55-1.79-9.06-6.86-11a2.09,2.09,0,0,0-1.8-2.09c-1.89-3.8-6.46-4-9.12-6.7,3.27-.06,6.58-.59,9.77.49,4.3,1.46,6.29.05,5.9-4.53.61-1.31,1.23-2.61,1.85-3.92-.87,10.25,2.42,18.29,12.16,22.92-5.09,3.88-5.84,9-5.13,15.05.42,3.54,1.43,7.52-.95,11C237.5,168.8,236.18,161.56,234.86,154.32Z" fill="#b47f5a"/><path d="M497.52,120.53l.63-21.12c10.39.62,10.22.62,10.46,11,.1,4.37-1.29,8.91.94,13.14a7.13,7.13,0,0,1-10.52,6c-1.33-.72-1.11-2-1.2-3C497.65,124.51,497.62,122.52,497.52,120.53Z" fill="#545454"/><path d="M363.67,141.47c-4.19,2.65-5.75,6.94-7.11,11.35-1.9,7.54-2.85,15.34-6,22.54A2.09,2.09,0,0,1,349.3,173c.25-3,.1-5.94.4-8.89.6-5.67-.27-10.76-5-14.58,8-4.7,12.84-11.2,12.18-20.91.47.68,1,1.36,1.42,2-.19,4.85,1.62,6.58,6.46,4.5,2.51-1.09,5.3-.82,8.54-.46-2.73,3.25-7.29,3-8.79,6.73h-.43Z" fill="#b47f5a"/><path d="M498.35,37.44c-.5-8.58.86-17.2-.68-25.75,0-6.49,4.89-3.5,7.84-4,4-.63,4,2.23,3.93,5-1.9,4.8-.71,9.8-.8,14.69C508.43,37.82,508.58,37.83,498.35,37.44Z" fill="#787878"/><path d="M93.46,12.59c-1,8.32-.12,16.67-.46,25-10.16-.08-10-.08-10.21-10.09-.1-5.56.92-11.18-.65-16.68-.15-5.08,3.74-2.66,6-3.14C92.07,6.84,94,8.49,93.46,12.59Z" fill="#787878"/><path d="M92.86,100.51q.3,12,.61,24c-.73,1.82,1.31,5.68-2.72,5-2.9-.5-7.76,3.25-8.61-3.11,1.72-6.11.55-12.35.74-18.53.22-7.72.05-7.72,7.51-7.41C91.21,100.52,92,100.51,92.86,100.51Z" fill="#545454"/><path d="M273.06,62.67c1.12,1.14.56,2.54.61,3.84l-92.74.08q-2-1.53-4-3.07,45.17,0,90.35-.07C269.19,63.45,271.26,63.94,273.06,62.67Z" fill="#c2c2c2"/><path d="M534.58,62.55c17.46.07,34.92.17,52.38.18,2.82,0,5.22.07,4.12,4H535.33l-1-.09-.09-2.85C534.35,63.37,534.47,63,534.58,62.55Z" fill="#c2c2c2"/><path d="M591.11,70.49c1,3.7-1.07,4.06-4,4.05-17.52,0-35,0-52.54.07l-.18-1c.39-1,.77-2,1.15-3Z" fill="#c2c2c2"/><path d="M56,74.6c-17.19,0-34.39-.11-51.58-.06-2.93,0-5-.35-4.19-4h56c.18,1,.36,2,.53,3Z" fill="#c2c2c2"/><path d="M56.2,70.54H.18l.06-3.87h56C56.23,68,56.22,69.24,56.2,70.54Z" fill="#adadad"/><path d="M591.11,70.49l-55.59.1c-.06-1.29-.13-2.58-.19-3.87l55.75,0Z" fill="#adadad"/><path d="M56.25,66.66H.24c-.95-3.82,1.38-4,4.19-4,17.18,0,34.36-.08,51.54-.13.22.44.43.88.65,1.31C56.49,64.82,56.37,65.74,56.25,66.66Z" fill="#c2c2c2"/><path d="M136.81,74.27c2,.68,3.94,1.92,6.2.79.42-.22,1.3-.42,1.38-.28,3.2,5.52,8.68,1.25,12.73,3,.16.07.34.2.47.17,3.85-1.16,7.36-3.3,11.59-3.57,1-.06,2.37-2.69-.08-4.3-3.75-2.47-4.73-6.21-4.19-10.47.58-1.06,1.35-2.2,2.64-1.83,1.88.53.49,1.86.36,2.84-.4,2.95-.11,5.53,2.59,7.5,2.25,1.63,2.68,4.21,2.15,6.75s-3,1.36-4.58,1.76c-3.82,1-7.54,2.46-9.49,5.87-2.4,4.17-4.68,3.82-7.65,1-.85-4.24-4.43-4.51-7.63-4.86a99,99,0,0,0-9.9-.18c-.12-1.3-.23-2.59-.34-3.88Z" fill="#c79677"/><path d="M425.67,59.58c.27,4.08,0,8-3.84,10.55a2.49,2.49,0,0,0-.84,3.52,4.15,4.15,0,0,0,4.38,1.66c2.39-.83,3.72.12,5.11,1.69.92,1,2.06,1.83,3.46.89a5.33,5.33,0,0,1,6.44,0,2.18,2.18,0,0,0,2.78-.19c4.17-4.24,9.57-2.53,14.5-3.12,0,1,.07,2,.1,3-3,1.52-6.18.8-9.29,1-3.81.18-7,1.39-8.87,5-2.12,3.71-4.1,3.64-6.34,0-2.47-4-6.41-6-10.89-7-3.8-.78-5.61-4.72-2.65-7.23,3.81-3.23,4.76-6.7,3.24-11.09C424.64,57.74,424.73,59.38,425.67,59.58Z" fill="#c79677"/><path d="M518.47,48.67c-4.7.39-6.76-1.76-5.81-6.38.84-4-1.84-7.65-1.15-11.63a4.76,4.76,0,0,1,5.86-1.9c2.16.68,1,2.8,1.28,4.26a35.89,35.89,0,0,1,.29,4.41C518,41.14,518.8,44.93,518.47,48.67Z" fill="#787878"/><path d="M511.53,105.56c.39-4.5,1.18-8.94,1.15-13.51,0-4.13,3.64-1.87,5.63-2.54.2,3.39.39,6.79.58,10.18a19.91,19.91,0,0,1-.26,4.39c-.45,1.63,1.34,4.16-1.83,4.78C514,109.42,512.39,108.09,511.53,105.56Z" fill="#545454"/><path d="M72.4,100.41c1.39-3.58.19-7.35.76-11,4.9-.68,6.46,1.58,5.81,6.23a50.22,50.22,0,0,0,0,6.94c-.33,2-.66,3.91-1,5.86C72.09,109.15,72.09,109.15,72.4,100.41Z" fill="#545454"/><path d="M267.72,39.65c.91.76,1.61,1.85,3,1.86-.38,5.87.68,11.58,2,17.27a15.12,15.12,0,0,1-8.56-16C264.45,40.78,265.4,39.4,267.72,39.65Z" fill="#dcbaa1"/><path d="M518.89,99.69c-.19-3.39-.38-6.79-.58-10.18l.16-40.84c.33-3.74-.49-7.53.47-11.24,2,.92,1.39,2.79,1.42,4.33.11,5.6.13,11.19.19,16.78-1.52,1.57-.92,3.43-.75,5.24v9.73c-.14,1.86-.78,3.8.81,5.4-.07,5.53-.11,11.06-.25,16.59C520.32,97,521,98.88,518.89,99.69Z" fill="#c2c2c2"/><path d="M330.69,236.26c3.6-5.32,6.35-11.22,10.92-15.88q1.08,5.35,2.18,10.71C339.72,233.58,335.73,236.25,330.69,236.26Z" fill="#c79677"/><path d="M259.71,236.42c-4.78-.45-8.55-3.42-12.81-5.16,1.52-3.44,1.48-7.18,2.17-10.78C253.88,225,256.74,230.72,259.71,236.42Z" fill="#b47f5a"/><path d="M519.8,63.78c-.17-1.81-.77-3.67.75-5.24,3.32,0,6.65.2,10,0,3-.14,4.43.9,4.07,4-.11.41-.23.82-.34,1.22Z" fill="#787878"/><path d="M520.61,78.91c-1.59-1.6-1-3.54-.81-5.4l13.69.07h.88l.18,1c-.06.33-.13.67-.19,1a1.93,1.93,0,0,0-.54,2.42C529.51,79.67,525,78.33,520.61,78.91Z" fill="#545454"/><path d="M70.82,73.49c.05,1.66.11,3.32.16,5-4.68.06-9.46,1.6-14-.9,1.37-1,.77-2.53.88-3.87Z" fill="#545454"/><path d="M439.6,83.56c1.86-3.61,5.06-4.82,8.87-5,3.11-.16,6.32.56,9.29-1,0,1.34-.07,2.68-.1,4A50.33,50.33,0,0,0,439.6,83.56Z" fill="#d6ad8f"/><path d="M133.4,78.47a99,99,0,0,1,9.9.18c3.2.35,6.78.62,7.63,4.86-5.69-2.46-11.74-1.83-17.69-2.05C133.29,80.46,133.34,79.46,133.4,78.47Z" fill="#d6ad8f"/><path d="M195.69,255.67c1.63.9,3.76.7,5.09,2.29l-8,1.77a6.47,6.47,0,0,0-4.13,1.2C189.32,257,193,256.92,195.69,255.67Z" fill="#333"/><path d="M390.4,257.88c1.49-1.66,3.64-1.51,5.55-2,2.59,1,5.28,1.77,6.69,4.48l-3.52-.35Z" fill="#333"/><path d="M78,108.46c.34-1.95.67-3.91,1-5.86,2.06,2.1,1.2,4.58,1,7Z" fill="#787878"/><path d="M57.87,73.7c-.11,1.34.49,2.83-.88,3.87-.93-.78-.94-1.89-1-3l.79-1Z" fill="#787878"/><path d="M533.82,78a1.93,1.93,0,0,1,.54-2.42A1.52,1.52,0,0,1,533.82,78Z" fill="#787878"/><path d="M343.16,423c2.27.63,3,3,4.71,4.23a13.27,13.27,0,0,0,10.8,2.33A31.84,31.84,0,0,1,369,429c4.55.62,8.81.16,12.54-2.77.57,4.89-2.37,7.5-6.42,8.72a39.2,39.2,0,0,1-24.32-.64C345.45,432.5,344.5,427.58,343.16,423Z" fill="#545454"/><path d="M210,426.16c2.2,2.73,5.12,3.51,8.47,3.18a54.28,54.28,0,0,1,14.89.46c5.62,1,9.83-1.91,13.47-5.82,0,5-2.28,8.66-7,10.3a38.08,38.08,0,0,1-23.41.75C212.39,433.85,208.69,431.64,210,426.16Z" fill="#333"/><path d="M254.81,384c.52,3.44-.23,6.75-1,10.06-3.22,6.8-4,14.09-4.24,21.48-2.73-9.4-2.61-18.61,2-27.47C252.3,386.55,252.82,384.66,254.81,384Z" fill="#545454"/><path d="M246.72,424.1l.93-1Z" fill="#333"/><path d="M202.84,285.25c2.13-2.05,4.31-.26,6.49-.13,7,.39,14.06-.21,21.06.81.48.07,1.06-.56,1.59-.87a32.71,32.71,0,0,1,5.77,22.47l-1,.69,0-.09-8.08-.15a10.17,10.17,0,0,1-2-2.12C221.67,295.57,213.24,289.28,202.84,285.25Z" fill="#c79677"/><path d="M228.67,308l8.08.15c.83,2.69-1.34,4.52-2,6.78L231.65,316A22.71,22.71,0,0,1,228.67,308Z" fill="#181818"/><path d="M236.72,308.22l1-.69Z" fill="#181818"/><path d="M409.65,74.49l-92.12,0a2.55,2.55,0,0,1,.12-3.88l92,0C409.64,71.92,409.65,73.2,409.65,74.49Z" fill="#c2c2c2"/><path d="M409.63,70.63l-92,0,0-4h92C409.69,67.94,409.66,69.29,409.63,70.63Z" fill="#adadad"/><path d="M425.41,100.64l-9.12-9c5.56.48,10.33,3.65,15.95,4.45,2.6.37-1.31,2.1-1.62,3.49A10.13,10.13,0,0,1,425.41,100.64Z" fill="#d6ad8f"/><path d="M415.57,90.86c-.36-.39-.72-.78-1.09-1.16C416.2,88.82,415.34,90.35,415.57,90.86Z" fill="#d6ad8f"/><path d="M273.69,74.59l-92.7.15c0-1.43-.58-3,.79-4.15l91.9,0C273.69,72,273.69,73.28,273.69,74.59Z" fill="#c2c2c2"/><path d="M273.68,70.64l-91.9,0c-.28-1.33-.57-2.66-.85-4l92.74-.08C273.67,67.89,273.68,69.26,273.68,70.64Z" fill="#adadad"/><path d="M175.94,89.59l-1,1.33Z" fill="#dcbaa1"/><path d="M176.94,88.59c-.35.35-.69.7-1,1C176.25,89.29,176.59,88.94,176.94,88.59Z" fill="#dcbaa1"/><path d="M178.09,87.6l-1.2,1Z" fill="#dcbaa1"/><path d="M228.67,308a22.71,22.71,0,0,0,3,8,468.52,468.52,0,0,0,19,58.51,5,5,0,0,0,2,2.73c.61,6.91.61,6.91-7.81,7-1.74-5.16-4.88-9.57-7.74-14.09-4.94-7.85-10.12-15.55-15.43-23.16-6.91-9.91-14.21-19.64-19.64-30.4-4.33-8.59-8-17.85-3.53-27.94a5,5,0,0,1,4.33-3.39c10.4,4,18.83,10.32,23.84,20.61A10.17,10.17,0,0,0,228.67,308Z" fill="#dcbaa1"/><path d="M244,384.29c-.92.93-2.07.83-3.22.72C241.68,383.88,242.87,384.12,244,384.29Z" fill="#dcbaa1"/><path d="M320.65,227.25c-1.12,4.42-5.08,7.7-5.1,12.58-6.5,1.72-13.25,1.45-19.83,2.54-7.11.2-14-1.61-20.88-2.75-.2-4.47-2.6-8.2-4.1-12.23q1.47-5.46,2.93-10.93c7.67,1.37,15.29,2.41,22-3,3.1,3.61,7.13,4.33,11.63,4,2.81-.22,5.65,0,8.47,0C320.07,219.38,319,224,320.65,227.25Z" fill="#c79677"/><path d="M315.79,217.42c-2.82,0-5.66-.23-8.47,0-4.5.35-8.53-.37-11.63-4,.29-5-.56-10.15,1-15.1.55-2.47,2.25-2,3.91-1.51,4.81,1.25,9.69,2.28,14.39,3.85,2.93,1,5.7,1.54,8.67.66,3.63,3.17,3.64,6.95,0,12.88C321.33,216,318.52,216.59,315.79,217.42Z" fill="#dcbaa1"/><path d="M326.71,181.38c2.47,3.13,1.76,6.57,1,10-3.82,3.58-7.94,4.79-13.09,2.58-3.45-1.49-7.25-2.2-10.94-3.07-3.12-.74-6-1.76-8-4.45l.09-8.92c2.12-1.51,4.06-3.61,7-2.89,5.09,1.23,10.28,2,15.12,4.26C320.66,180.19,323.3,182.3,326.71,181.38Z" fill="#dcbaa1"/><path d="M326.71,181.38c-3.41.92-6-1.19-8.77-2.47-4.84-2.28-10-3-15.12-4.26-3-.72-4.9,1.38-7,2.89-7.77-5.63-15.12-1.36-22.38,1.19-9.25,3.26-10.64,2.76-13.91-6.8,13.43,3.83,24.78-2.23,36.29-7.59,5.55,4.91,12.85,5.44,19.42,7.8a24.18,24.18,0,0,0,15.47.26C330.18,175.75,328,178.36,326.71,181.38Z" fill="#c79677"/><path d="M330.69,172.4a24.18,24.18,0,0,1-15.47-.26c-6.57-2.36-13.87-2.89-19.42-7.8a58.9,58.9,0,0,0-.1-6.78c-.51-4,1.08-5.7,5.09-5.14A153.22,153.22,0,0,0,330.62,164a2.54,2.54,0,0,1,2.11,2.45,7.65,7.65,0,0,0-1,4.86c-.34.39-.69.77-1,1.15Z" fill="#dcbaa1"/><path d="M295.71,186.46c2,2.69,4.85,3.71,8,4.45,3.69.87,7.49,1.58,10.94,3.07,5.15,2.21,9.27,1,13.09-2.58,1.55,2.74-1,4.31-1.93,6.27-.6,1.25-2.07,2-2.12,3.66-3,.88-5.75.31-8.68-.66-4.7-1.57-9.58-2.6-14.39-3.85-1.66-.44-3.36-1-3.91,1.51-6.63-3-12.93-.35-18.94,1.75-10,3.49-10.63,3.49-14.19-6.55C275.11,195.52,285.79,192.84,295.71,186.46Z" fill="#c79677"/><path d="M273.67,216.46q-1.46,5.46-2.93,10.93c-1.71-4.25-3.43-8.49-5.43-13.44C268.78,214.24,270.86,216.78,273.67,216.46Z" fill="#b47f5a"/><path d="M359.51,316c-16.5-3.5-33.31-5-49.93-7.78-2.28-.38-4.55-.83-6.82-1.25-1.37-22.29,10-37.9,26.8-50.5,5.9-4.42,11.9-8.89,19.12-11.14,1.29,4.27,4.47,6.78,8.16,8.84,7,3.88,14.55,6.24,21.81,9.42-5.9,5-12,9.84-16.44,16.3-1.09,1.59-2.69,2.95-2.78,5.1l.15.08c-.84-.07-1,.53-1.09,1.14a28.91,28.91,0,0,0-5,12.66c-1.45,8.6-1.2,8.9,7.19,9.1a14.53,14.53,0,0,1,1.94.32Z" fill="#181818"/><path d="M359.51,316l3.09-7.71a13.26,13.26,0,0,0,2.23-2.61C369.65,295.24,378,289,388.6,285.23c3.1.11,4.07,2.3,4.86,4.81,3.53,11.26-1.2,20.9-6.49,30.06-7.49,13-16.44,25-24.91,37.39-4.67,6.83-9.85,13.53-12.39,21.65-2.51.29-5-.42-7.59.89-2.79,1.41-2.11-1.68-2.72-3C347.54,357.17,353.9,336.71,359.51,316Z" fill="#dcbaa1"/><path d="M388.6,285.23c-10.59,3.72-19,10-23.77,20.45a13.26,13.26,0,0,1-2.23,2.61,14.53,14.53,0,0,0-1.94-.32c-8.39-.2-8.64-.5-7.19-9.1a28.91,28.91,0,0,1,5-12.66l1.09-1.14-.15-.08a118.54,118.54,0,0,0,26-.52C386.63,284.3,387.76,284.1,388.6,285.23Z" fill="#c79677"/><path d="M246.76,149.51c-9.74-4.63-13-12.67-12.16-22.92,2.24-4.65,2.72-9.92,6-14.28,5-6.59,9.5-12.86,19.33-11.9,8.18.79,16.51-.43,24.7,1.13a2.17,2.17,0,0,0,2.13,1l0,0a2,2,0,0,0,2,1l0,0c4.61,3.92,5.56,9,5,14.76-.69,7.19,1.23,14.54-1.64,21.61a15.79,15.79,0,0,1-13.22,9.64A143.06,143.06,0,0,1,246.76,149.51Z" fill="#dcbaa1"/><path d="M207.62,112.36c5.79-8.8,14.69-11.7,24.49-12.61,2.86-.27,5.92-.82,8.73.66-2.36,2.09-5.73.77-8.32,2.65-2.17,1.56-4,2.89-3.71,5.85.71,6.73,1.39,13.45,2.13,20.18.11.95.95,1.26,1.81,1.42.39,4.58-1.6,6-5.9,4.53-3.19-1.08-6.5-.55-9.77-.49l-9.23-.06c-3.9-6-2.9-12.26-.7-18.51C207.57,114.79,209.71,113.87,207.62,112.36Z" fill="#dcbaa1"/><path d="M343,98.33c2.18,2.12,4.87,2.39,7.71,2.14,9.54,1.44,11.28,7.75,10,16-.22,1.45.15,3-.07,4.45-.5,3.31-.24,6.82-2.32,9.76-.47-.69-.95-1.37-1.42-2-2.48-8.51-4.53-17-11.54-23.57-2.47-2.31-4.94-4.32-7.7-4.3-10.36.08-20.87-1.71-31,1.74-.69-1.08-1.32-.9-1.91.09l.05,0c-2.65-.4-4.52,1.8-7,2.08a2.29,2.29,0,0,1-1.1-2.13c.37-1,.73-2,1.1-3,6.13-2.32,12.13-5.16,19-4,7.3,1.24,14.79,1.24,22,3.21A4.66,4.66,0,0,0,343,98.33Z" fill="#dcbaa1"/><path d="M295.8,74.1c6.73,1.46,11.22-3.48,16.62-5.83.19.2.39.4.59.59l-4.24,5.74c-3.7,2.07-6.53,5.65-11.2,6-2.46.2-1.83,2.39-1.85,3.93-.06,6,0,12,0,17.92-1.85.79-1.58-.86-2-1.73-4-8.65-8-17.29-11.85-26-1.23-2.76-3.5-4.72-5.11-7.18l0,0c3.18-.23,5.18,2.07,7.37,3.69A14,14,0,0,0,295.8,74.1Z" fill="#b47f5a"/><path d="M295.69,102.48c0-6,0-12,0-17.92,0-1.54-.61-3.73,1.85-3.93,4.67-.38,7.5-4,11.2-6-2.5,8.82-7.3,16.63-11,24.93-.37,1-.73,2-1.1,3Z" fill="#c79677"/><path d="M255.7,93.53c5.28-5.21,11.74-8.71,18-12.47,1,5-.79,7.47-6,8.4C263.62,90.2,259.71,92.13,255.7,93.53Z" fill="#b47f5a"/><path d="M252.05,95.55l1.75-1.07Z" fill="#b47f5a"/><path d="M253.71,94.54a2,2,0,0,1,2.09-1.07C255.36,94.33,254.52,94.41,253.71,94.54Z" fill="#b47f5a"/><path d="M286.76,102.57a2.17,2.17,0,0,1-2.13-1C285.49,101.56,286.33,101.64,286.76,102.57Z" fill="#c79677"/><path d="M288.75,103.57a2,2,0,0,1-2-1A2,2,0,0,1,288.75,103.57Z" fill="#c79677"/><path d="M244.39,100.33l1.4-.77Z" fill="#dcbaa1"/><path d="M276.75,67.6l-.4-.47c.09,0,.23,0,.28.08a1.09,1.09,0,0,1,.14.37Z" fill="#b47f5a"/><path d="M312.42,68.27c.34-.31.7-.7,1.08-.11.05.09-.32.46-.49.7C312.81,68.67,312.61,68.47,312.42,68.27Z" fill="#b47f5a"/><path d="M306.62,102.48c10.17-3.45,20.68-1.66,31-1.74,2.76,0,5.23,2,7.7,4.3,7,6.56,9.06,15.06,11.54,23.57.66,9.71-4.21,16.21-12.18,20.91a133.54,133.54,0,0,1-34.19-.06c-6.94-1-12.71-8-12.82-15-.07-5,.37-10-.1-14.94-.69-7.11.58-13.07,7.15-17l-.05,0Z" fill="#e1c3af"/><path d="M293,306.33a2.24,2.24,0,0,1-2.21.51A1.91,1.91,0,0,1,293,306.33Z" fill="#333"/><path d="M358.32,130.66c2.08-2.94,1.82-6.45,2.32-9.76.22-1.46-.15-3,.07-4.45,1.23-8.23-.51-14.54-10-16,9.54-2.7,26.92,1.45,33.95,13.1-.83.6-.74,1.32-.37,2.17a21.78,21.78,0,0,1,.4,17.3c-.91,2.25.21,3.6,1.75,4.61,12.9,8.49,18.67,21.86,24.21,35.34a34.22,34.22,0,0,0,9.54,13.65,81.33,81.33,0,0,1-19.67-6.91c-13.36-6.74-23.56-17.06-31.15-29.83-1.64-2.77-2.2-6.19-4.79-8.47,1.5-3.72,6.06-3.48,8.79-6.73-3.24-.36-6-.63-8.54.46C359.94,137.24,358.13,135.51,358.32,130.66Z" fill="#e1c3af"/><path d="M207.85,134.49l9.23.06c2.66,2.74,7.23,2.9,9.12,6.7A78.62,78.62,0,0,1,209,166.51c-7.24,7-15.29,13-25.19,16.16-3.72,1.17-7.09,3.42-12.29,3.61,9.78-8.65,11.54-20.67,17.15-30.65a57.34,57.34,0,0,1,15.79-17.56A30.35,30.35,0,0,0,207.85,134.49Z" fill="#e1c3af"/><path d="M315.79,217.42c2.73-.83,5.54-1.45,7.89-3.21,2.29,1.84.15,3.61-.25,5.27a73.42,73.42,0,0,1-2.78,7.77C319,224,320.07,219.38,315.79,217.42Z" fill="#b47f5a"/><path d="M330.68,172.43c.34-.38.69-.76,1-1.15Z" fill="#c79677"/><path d="M136.86,66.59l0,4c-11.92,0-23.84,0-35.76,0-1.49,0-3.77.73-3.94-1.74-.2-3,2.34-2.2,4-2.21C113,66.56,124.94,66.59,136.86,66.59Z" fill="#adadad"/><path d="M454.62,70.62V66.56c11.93,0,23.85,0,35.78.06,1.49,0,3.77-.73,3.94,1.74.22,3-2.32,2.21-3.95,2.22C478.47,70.64,466.54,70.61,454.62,70.62Z" fill="#adadad"/><path d="M57.87,73.7l-1.13-.13-.54-3c0-1.3,0-2.59,0-3.88.12-.92.24-1.84.37-2.76,1.49-.11,3-.29,4.46-.32,10-.15,10-.14,9.74,9.91Z" fill="#333"/><path d="M533.49,73.58l-13.69-.07V63.78h14.44l.09,2.85C532.8,68.79,534,71.29,533.49,73.58Z" fill="#333"/><path d="M533.49,73.58c.52-2.29-.69-4.79.84-7l1,.09c.06,1.3.13,2.59.19,3.88-.38,1-.76,2-1.15,3h-.88Z" fill="#787878"/><path d="M359.58,285.07l-1.09,1.14C358.61,285.6,358.74,285,359.58,285.07Z" fill="#d6ad8f"/><path d="M306.62,102.48l-1.91.09C305.3,101.58,305.93,101.4,306.62,102.48Z" fill="#c79677"/></g></g></svg>