<svg xmlns="http://www.w3.org/2000/svg" viewBox="0 0 870.21 731.8"><title>ex_7_1</title><g id="Layer_2" data-name="Layer 2"><g id="Layer_1-2" data-name="Layer 1"><path d="M832.33,699.75c7,0,14,0,21,0,10,0,17.32,8.12,16.89,16.93-.41,8.44-6.82,15-15.25,15q-403.71,0-807.41.1a15.66,15.66,0,0,1-1.07-31.29c6.31-.46,12.58-.7,18.87-.71q66.41-.09,132.82-.06a21.22,21.22,0,0,1,7.35,1c.05,3.75,0,7.51.2,11.25.07,1.4-1,3.92,1.49,3.85,2.33-.07,5.73,2.17,6.92-2.06q40.69,0,81.39,0l528.33,0c1,4.13,4.32,2,6.57,2.13,2.73.18,1.69-2.3,1.75-3.71C832.32,708.05,832.29,703.89,832.33,699.75Z" fill="#f2f3ee"/><path d="M823.83,713.77l-528.33,0q-40.69,0-81.39,0,0-12.53-.1-25l171.52,0,22,0,213.62,0c7.28,0,7.28,0,7.13-7.22.06-4.45.05-8.91.2-13.37.21-6.12,4.21-10.2,9.83-10.2s9.46,4,9.68,10.27c.15,4.45.21,8.9.31,13.35.07,7.93-.89,7.15,7.17,7.16,16.23,0,32.45,0,48.67,0H720.4c8.74,0,17.49-.21,26.21.17,4.64.2,6.41-1.28,5.57-5.8l9.13,0c-.91,4.62,1,6,5.61,5.77,9.1-.35,18.22-.12,27.33-.13h16.92l12.77,0ZM803,698.38c-2,.06-3.17,1.13-3.18,3a2.9,2.9,0,0,0,3.17,3.07,2.83,2.83,0,0,0,2.92-2.81C806,699.76,805,698.62,803,698.38Zm-410.83,0c-1.89.36-2.93,1.46-2.72,3.44a2.82,2.82,0,0,0,3,2.7,2.85,2.85,0,0,0,3-3.18C395.41,699.32,394.09,698.46,392.18,698.34Zm246.37,6.22c1.69-.49,3-1.43,2.74-3.43a2.77,2.77,0,0,0-3.41-2.67,2.72,2.72,0,0,0-2.6,3C635.39,703.41,636.6,704.36,638.55,704.56Zm72.51-6.22c-1.57.27-2.88,1.09-2.89,3.08a3,3,0,0,0,6,.26C714.37,699.77,713.2,698.67,711.06,698.34Zm-69.79-31.06c-.32-1.59-1.18-2.67-2.92-2.69a2.62,2.62,0,0,0-2.93,2.63,2.72,2.72,0,0,0,3.08,3C640.15,670.15,641,669,641.27,667.28Z" fill="#dadada"/><path d="M407.56,688.78l-22,0,1.26-7.22c1.44-.26,1.76-1.3,1.79-2.56.07-.83.15-1.67.22-2.5,1.59-.71,1.78-2.34,2.28-3.68,2.87-7.57,5.66-15.18,8.47-22.78,7-18.61,13.84-37.26,21-55.8,1.3-3.35-.37-4.08-2.65-5q-66.74-27.91-133.45-55.89c-4.35-1.83-9.19-2.76-12.74-6.25C278.27,523.88,283,519.1,285,512a39,39,0,0,1,5.2,1.39c10.32,4.28,20.59,8.66,30.88,13-1.19,4.16-.59,7.73,3.78,9.56,15.18,6.36,30.39,12.61,45.59,18.91,8.43,7.84,18.87,10.74,29.91,12.21,2,1.05,4.06,2.14,6.13,3.14,6.71,3.24,9.79,2.19,13-4.38.84,3.4,4.22,3.34,6.52,4.68,2,1.15,3.49.25,4.22-1.86,3.1-8.85,7.35-17.29,9.32-26.53,5.29.68,8.09-1.72,10-6.7q29.26-78.06,58.81-156c6.78-18,13.41-36,20.1-54.06,2.92-4.47,3.23-8.73-1-12.64-.56-5.11,3.46-9.23,3.07-14.3,6,1.44,8.31.56,10.25-4.58,6.32-16.73,12.52-33.52,18.76-50.28,3.16-7.17,2.34-9.59-4.34-12.79,1.85-.19,2.23-1.65,2.76-3.07q15.65-41.91,31.34-83.79,15.18-40.47,30.42-80.9c.75-2,1.22-4.12,1.82-6.18,7.45-1.82,14.1,1.65,21,3.19a20.12,20.12,0,0,1-.63,3.41q-15.09,40.3-30.23,80.58Q583.86,218,556.06,292,533,353.53,510,415,481.72,490.5,453.3,565.9c-1.67,4.41-2.28,9.38-5.74,13a14.63,14.63,0,0,1-1,4.73c-1.61,4.61-4.39,8.93-4.05,14.11-2.51,1.73-3.1,4.56-4.08,7.17q-9.93,26.38-19.85,52.78l-9.21,26.15ZM438,583.92a2.85,2.85,0,0,0-3-2.84,2.72,2.72,0,0,0-3,2.6,2.78,2.78,0,0,0,2.73,3.33C436.58,587.18,437.69,586.14,438,583.92Zm-33.75,80c-1.76.26-3,1.21-3,3.13a2.75,2.75,0,0,0,3.17,2.9,2.79,2.79,0,0,0,2.84-2.8C407.31,665.23,406.18,664.16,404.2,663.9Z" fill="#cdcdcd"/><path d="M811.17,688.78H794.25c0-2,0-4,0-6q0-9.19,0-18.39c0-1.8,0-3.59,0-5.39q0-9.1,0-18.2l-.05-5.26,0-18.56v-5.2l0-18.31.06-5.45V570l-.06-5.3q0-9.25,0-18.52v-5.21q0-9.09.05-18.18c0-1.84,0-3.69,0-5.54q0-9.14,0-18.26,0-47.51-.08-95,0-9.21,0-18.42c0-1.75,0-3.5.05-5.25q0-9.19-.05-18.39c0-1.8.05-3.6.07-5.41q0-9.07,0-18.15,0-124.78,0-249.59c5.82.18,11.33,2.16,17,3,0,1.49-.1,3-.1,4.49Q811.16,392.5,811.17,688.78Z" fill="#cdcdcd"/><path d="M811.26,91.73c-5.71-.85-11.22-2.83-17-3-8.46-2.78-17.34-3.41-26-5-6.42-2.47-13.37-2.27-20-4-9-3.15-18.61-3.93-27.9-6-5.71-.32-11.24-2.25-17-2-.56-.57-1.08-1.58-1.7-1.65-6.83-.79-13.3-3.83-20.34-3.35l-2.18-.1c-3.35-.84-6.67-1.84-10.05-2.45-3.16-.58-6.35-2.1-9.62-.42-5.08-3.75-11.18-3-16.9-3.83-6.95-1.54-13.6-5-21-3.19-1.57-3.68-5.25-2.27-7.82-2.79-21.54-4.41-43.16-8.42-64.77-12.54q-30.69-5.84-61.4-11.67c-6.5-1.24-13-2.67-19.45-3.95-1.19-.23-2.31-.37-2.79-1.68.51-7.84,2.93-15.35,3.95-23.1,14.46,2.66,28.93,5.27,43.38,8q36.07,6.83,72.11,13.78c23.21,4.47,46.41,9,69.63,13.46,31,5.91,62.06,11.66,93.08,17.57,21.28,4.06,42.54,8.26,63.79,12.43,4.55.89,9.06,2,13.59,2.94Q822.48,81,820.18,92.71C817.12,93.19,814.24,92,811.26,91.73Zm-4.69-15.4a3,3,0,0,0-3.05-3.22,2.78,2.78,0,0,0-3.06,2.62,2.88,2.88,0,0,0,2.75,3.43C805.14,79.36,806.24,78.18,806.57,76.33ZM712.88,55.71c-2,.21-3.25,1.26-3.15,3.19A2.79,2.79,0,0,0,713,61.73a2.69,2.69,0,0,0,2.75-2.85A2.91,2.91,0,0,0,712.88,55.71Zm-75.11-8.33c1.62-.31,2.94-1.05,3-3.12a2.83,2.83,0,0,0-2.6-3.08,2.87,2.87,0,0,0-3.4,2.77C634.5,45.87,635.77,46.93,637.77,47.38Z" fill="#dadada"/><path d="M206.91,483.08c-15.06-3.84-30-8.19-45.23-11.35-12.42-2.58-25.14-3.76-37.73-5.5a4.33,4.33,0,0,0-2.87.46c-6.36,4.65-13.7,4.42-21,4.43a50,50,0,0,0-5.48,0c-10.69,1.26-12.76-4.8-13.44-13-.61-7.26-.65-14.93,4-21.49a4.39,4.39,0,0,0,.63-4.3C80,420,83.09,407.78,86,395.58A36.76,36.76,0,0,1,93,381c3.22-4,8-5.08,13.44-2.2,3.89,2,5.77,4.93,4.9,10.14-1.62,9.74-.35,19.33,5.24,28.37,2.27-2.84,3.43-5.71,5.79-7.87,11.68-10.72,29.93-4,32.51,9.33.88,4.54,3.9,6.74,7.11,8.93,5.19,3.55,10.65,6.69,15.83,10.24,2,1.38,4,1.27,6.18,1.28l67.85.18-.18,1.77a12,12,0,0,0-2.25.88c-7.62,5-13,12.16-18.52,19.16-1.76,2.25-5.22,3.28-5.3,6.81-2.27.7-3.92,2.3-5.71,3.76C215.47,475.39,212.24,480.44,206.91,483.08Z" fill="#dadada"/><path d="M389.47,347.2c-1.46-4.3-.35-8.52.37-12.76,4.5,3.83,8.94,7.77,15.56,6.94a11.91,11.91,0,0,1,3.92.38c10.6,2.35,17.49-5.23,25.59-9.55.33-.18.41-.86.58-1.32,4.46-12.15,12.51-20.62,25-24.53.79.11,1.69.51,2.36.28,6.62-2.26,12.89-.85,19.17,1.43,3.72,1.34,6.49,4.47,10.45,5.29a34.61,34.61,0,0,0,8.94,11l1.28,8.92c-.09,4.31.55,8.71-.8,12.89-3.95,12.15-7.1,24.51-10.32,36.87-4.39,16.84-14.2,31-24,45.07-6.08,7.69-10.23,16.54-13.79,25.48-4.58,11.51-7.59,23.64-14.16,34.36A379.3,379.3,0,0,0,419.51,525c-6.08-.5-8.11-2.36-6.27-5.92,3.49-6.73,7.25-13.32,10.71-20.06,4.24-8.24,9.51-16.2,12.21-24.94a209.08,209.08,0,0,1,31.49-62.93,95.41,95.41,0,0,0,16.47-38c.69-3.46-.06-4.38-3.46-3.07-3.89,1.49-7.87,2.69-12.13,2.21,0-1.68,1.47-2,2.47-2.8,4.93-4.05,10.39-7.66,12.54-14.16,7.23-6.31,11.5-22.55,8.27-31.43-4.57-12.55-15.28-18.07-26.28-13.54l-3,0c-.15-1.9-1.25-2.24-2.74-1.51-2.67,1.31-5.39,2.45-7.71,4.47-8.57,7.42-11.64,17.22-11.37,28,.3,12.34-6.72,21.87-11.12,32.43-.27.67-1.23,1.05-1.87,1.57-1.6-1.42-1.59-3.55-2.33-5.35-1.32-3.2-2.1-6.65-4.2-9.48-3.9-5.3-10-5.14-15.61-6.13C399.61,353.25,393.1,353.46,389.47,347.2Z" fill="#d5ac8e"/><path d="M225.64,468c.08-3.53,3.54-4.56,5.3-6.81,5.48-7,10.9-14.18,18.52-19.16a12,12,0,0,1,2.25-.88c1.54,3.27-1.87,4.75-2.83,7.05-3,7.27.09,13.26,7.73,12.87,10.38-.51,20.35,1.71,29.83,5.14,7.07,2.56,14.24,5,21.2,7.93.07.7.15,1.39.23,2.09-.63,2-1.27,4-1.9,6q-1.22,6.94-2.42,13.89c-11.7-5.06-23.29-10.43-35.16-15.06-8-3.12-14-.29-18.62,6.82A103.17,103.17,0,0,1,240,500.3c-10.58,11.71-23.75,20.54-35.14,31.35-4.55,4.31-10.47,7.05-14.05,12.43l.06,0c-.46.24-2-.56-1,1.07a333.44,333.44,0,0,0-29.58,19.16c-1.42,1-3.42,1.58-3.71,3.75-1.51-.16-2.87-.11-2.9,1.94-2.17.25-3.61,1.68-5.05,3.11l-7.92-1.62a5,5,0,0,1,2.17-2.61c10.47-8.26,21.05-16.38,31.31-24.87q12.72-10.54,25-21.61c10.52-9.5,21-18.6,27.22-31.92C230.77,481.19,231.32,475.18,225.64,468Z" fill="#dcbaa1"/><path d="M307.87,476.21c-.08-.7-.16-1.39-.23-2.1l10.27-24.88c1.4-2,2.24-3.12,5.68-2.39,10.68,2.26,21.2,5.51,32.15,6.4,1.42,1.64,3.44,1.64,5.35,2a258.32,258.32,0,0,1,29.8,7.65c8.23,2.79,8.21,2.88,5.34,10.72-.74,2-1.43,4.08-2.32,6-6,13-17.51,18.14-31.14,13.89-7.59-2.37-15.25-4.52-22.8-7C329.29,483.05,318.3,480.52,307.87,476.21Z" fill="#050905"/><path d="M225.64,468c5.68,7.2,5.13,13.21.83,22.46-6.2,13.32-16.7,22.42-27.22,31.92q-12.28,11.1-25,21.61c-10.26,8.49-20.84,16.61-31.31,24.87a5,5,0,0,0-2.17,2.61c-8.61-2.14-11.54-6.52-10.14-15a45.24,45.24,0,0,0,.25-5.47c9.86-1.72,16.3-7.26,19-17,2.15-1.75,4.35-3.45,6.46-5.26,6.31-5.4,13.3-10.06,18.54-16.67a335,335,0,0,0,32.07-29c5.33-2.64,8.56-7.69,13-11.34C221.72,470.28,223.37,468.68,225.64,468Z" fill="#e1c3af"/><path d="M465.77,208.3c-.38-5.79,1.41-10.41,6.93-13.09a8.92,8.92,0,0,1,8.88.12c8,4.27,16.38,7.93,24.49,12,12.16,6.19,21.11,14.85,21.71,29.58,0,.24.42.46.64.69-3.28,7.15-4.93,15-9,21.81a178.65,178.65,0,0,1-20.84,17.09c-4.57-1.34-6.14-4.55-4.76-10.09.75-3,1.73-6,2.6-9a37.57,37.57,0,0,1,2.72-2.91c2.95-2.57,3.15-5.75,1.89-9.09-1.33-3.51-4.36-4.4-7.75-4.09-5.29.49-10,2.47-13.5,6.58-1.28,1.52-2.2,2.87-4.34,1.67-3.2-1.5-3-3.43-1.29-6.22,3.2-5.14,8.18-9.79,5.29-17-.63-1.57.57-3.2,1.64-4.49a42.6,42.6,0,0,1,3.66-4c3-2.86,3.11-4.68-1.12-6.67A34,34,0,0,0,465.77,208.3Z" fill="#855637"/><path d="M460.53,306.36c-12.53,3.91-20.58,12.38-25,24.53-.17.46-.25,1.14-.58,1.32-8.1,4.32-15,11.9-25.59,9.55a11.91,11.91,0,0,0-3.92-.38c-6.62.83-11.06-3.11-15.56-6.94,3-7.13,8.71-12.08,14.32-16.87,7.16-6.11,14.88-11.57,22.51-17.11a30.59,30.59,0,0,1,9.55-4.12l10.41,1c6.31.59,12.22,0,16.73-5.25a37.27,37.27,0,0,1,5.3-5.21c4.92-3.85,9.75-8.26,16.85-5.41-.37,2.59-.65,5.19-1.13,7.75-1.32,7.07-4.46,9.61-11.66,11.36C468.39,301.59,463,301.13,460.53,306.36Z" fill="#e1c3af"/><path d="M376.54,399.21c0-1,0-2,.07-3,3.69,1.62,6.19,4.87,9.52,7,2.18,1.37,4.19,3.29,7.15,2.68,4.55-.94,6.13-7.36,2.67-12.5-4-5.87-8.76-11-15.34-14.1.17-2.36-.14-4.79.93-7,3.88,4.24,8.82,7.44,12.17,12.22,1,1.48,2,3.59,4,3.37,2.25-.26,3.41-2.44,4.31-4.44a8.69,8.69,0,0,0,0-6.31c-2.69-9-9.17-14.76-16.56-19.8.14-.61.28-1.22.43-1.83,3,.35,5.06,2.34,7.21,4.11,8.71,7.19,14,16.58,17.44,27.17a19.11,19.11,0,0,0,6.38,9.3c2.31,1.84,3.86,2,4.87-1.6,1.37-4.89,2.73-9.88,5.72-14.17,2.14,4.07.78,9,3.05,13l-1.08,6a43.05,43.05,0,0,1-5.91-.62c-1.9-.44-2.82-.11-3,1.95-.68,7.39-3.31,14.48-3.15,22.06a14.92,14.92,0,0,1-3.68,10c-2.95,3.52-5.83,7.22-7.35,11.7l-10.71-1.52a20.39,20.39,0,0,1,8.44-8c2.47-1.31,4.9-2.7,7.26-4.2.89-.57,2.16-1.3,1.59-2.69-.47-1.12-1.7-.74-2.64-.78-4.47-.2-8.77,0-12.87,2.45-3.06,1.84-6.22,3.74-9.81,4.56-.55-.32-1.2-1-1.63-.89-7.24,2-14.29.52-21.33-1.13-.14-5.58,2.26-10.32,4.93-15a6,6,0,0,1,4.64,1.43c2.87,2.55,6.25,2.54,9.78,2.64,3.75.11,6.2-1.73,7.21-4.88a6.62,6.62,0,0,0-3.48-8.37C383.38,405.83,380.22,402.21,376.54,399.21Z" fill="#d5ac8e"/><path d="M465.77,208.3a34,34,0,0,1,17.88,2.9c4.23,2,4.16,3.81,1.12,6.67a42.6,42.6,0,0,0-3.66,4c-1.07,1.29-2.27,2.92-1.64,4.49,2.89,7.18-2.09,11.83-5.29,17-1.73,2.79-1.91,4.72,1.29,6.22-3.26,4.7-8.52,7.06-12.62,10.76-5.85,5.3-12.18,5-19,2.34-4-1.54-8.11-2.8-12.18-4.19a149,149,0,0,1,26.54-43C460.52,212.92,463.25,210.7,465.77,208.3Z" fill="#e1c3af"/><path d="M395.68,442.88l10.72,1.51c2.75,1.94,6.29,1.34,9.19,2.83-1.71,3.17-1.41,7.17-4.13,9.92-2.26-1.31-3.32-.75-4.22,1.87-2.51,7.33-5.35,14.56-8.17,21.78-6.13,15.67-21.71,22.95-37.62,17.82-9.27-3-18.6-5.78-27.95-8.52-9.16-2.69-18.05-6.35-27.53-7.92.63-2,1.27-4,1.9-6,10.43,4.31,21.42,6.84,32.1,10.36,7.55,2.49,15.21,4.64,22.8,7,13.63,4.25,25.19-.87,31.14-13.89.89-2,1.58-4,2.32-6,2.87-7.84,2.89-7.93-5.34-10.72a258.32,258.32,0,0,0-29.8-7.65c-1.91-.4-3.93-.4-5.35-2,1.95-4.8,3.94-9.59,5.82-14.42a2.42,2.42,0,0,1,2-1.8c4.66,1.49,9.32,3,14.26,3.27l.78.55,1.82,0Z" fill="#b9d183"/><path d="M317.91,449.23l-10.27,24.88c-7-2.93-14.13-5.36-21.2-7.92-9.48-3.43-19.45-5.65-29.83-5.14-7.64.39-10.75-5.6-7.73-12.87,1-2.3,4.37-3.78,2.83-7.05l.18-1.77c5.1-.46,9.93-2.28,15.18-2.33,13.7-.14,26.24,5.05,39.25,8C310.27,445.93,315,445.26,317.91,449.23Z" fill="#e1c3af"/><path d="M130.85,551a45.24,45.24,0,0,1-.25,5.47c-1.4,8.45,1.53,12.83,10.14,15l7.92,1.62c.57,2.86-.14,5.22-2.72,6.82-.19-.26-.33-.71-.55-.75-16.12-2.87-30-10.53-42.46-20.67C90.06,548,79.45,535.87,78.76,518a6.52,6.52,0,0,1,9.86,1.34c3.72,5.37,7.71,10.44,13.22,14.17,2.79,1.89,5.56,3.74,8.93,4.43C116,544.48,122.24,549.59,130.85,551Z" fill="#050905"/><path d="M431.71,258.51c4.07,1.39,8.18,2.65,12.18,4.19,6.78,2.62,13.11,3,19-2.34,4.1-3.7,9.36-6.06,12.62-10.76,2.14,1.2,3.06-.15,4.34-1.67,3.49-4.11,8.21-6.09,13.5-6.58,3.39-.31,6.42.58,7.75,4.09,1.26,3.34,1.06,6.52-1.89,9.09a37.57,37.57,0,0,0-2.72,2.91c-2.27.34-4.59,1.15-6.81.92-4.27-.44-7.09,1.37-9.92,4.3-8.29,8.59-17,16.78-25.18,25.44-2.76,2.91-6.7,4.92-7.91,9.19l-10.41-1c1.26-2.32,2.47-4.67,3.8-6.95.93-1.59,2-3.12,1.63-5.07-.81-4.26-1.1-8.45.66-12.62.73-1.73-.65-2.63-1.94-3.54-2.3-1.61-4.43-3.46-6.76-5C431.86,262,431.16,260.54,431.71,258.51Z" fill="#d5ac8e"/><path d="M130.85,551c-8.61-1.42-14.81-6.53-20.08-13.08-1-6.47-1.38-12.78,2.73-18.54,7.34-10.3,19.65-11.24,31.25-2.28A23.3,23.3,0,0,1,149.84,534C147.15,543.75,140.71,549.29,130.85,551Zm5-20.23c0-3.66-2.65-6.62-6.11-6.33s-5.92,2.17-5.92,6c0,3.69,1.88,6,5.6,6.3A5.86,5.86,0,0,0,135.86,530.78Z" fill="#4f4f50"/><path d="M519.45,259.46c4-6.84,5.69-14.66,9-21.81,1-2.75,1.93-5.57,3.16-8.24,1.85-4,4.95-5.55,9.27-4,4.77,1.74,9.53,3.52,14.3,5.28,6.68,3.2,7.5,5.62,4.34,12.79-4.8-.07-8.82-2.65-13.17-4.15-4.88-1.69-6.43-1.09-8.24,3.77-4.11,11-8.5,21.92-12.3,33-2.07,6-6.55,11.93-3,18.94-13.6-4.76-13.83-5.44-9-18.79C515.87,270.76,519,265.53,519.45,259.46Z" fill="#282828"/><path d="M133.08,593.38c-8.28,7.13-14.42,6.67-21.54-2-4.16-5.07-9-9.8-9.78-16.94a3.78,3.78,0,0,0-3.43-3.73c-3.9-.32-6.06-3.08-8.39-5.69-7.33-8.23-14-16.88-17.53-27.51a32.53,32.53,0,0,1-1.74-10.25c0-3.91,1.31-6.75,5.21-8,.2,2.14.29,4.29.61,6.41,2.49,16.41,12.38,27.83,25.35,37a71.86,71.86,0,0,1,14,13.28C121,582.29,125.29,589.59,133.08,593.38Z" fill="#4f4f50"/><path d="M153.71,570c0-2.05,1.39-2.1,2.9-1.94,1.17.62,2.32,1.28,3.52,1.85q58.44,28,116.9,55.9Q332.79,652.4,388.58,679c0,1.26-.35,2.3-1.79,2.56L233.2,608Q193.47,589,153.71,570Z" fill="#6c6b6c"/><path d="M427.52,380.24c-3,4.29-4.35,9.28-5.72,14.17-1,3.6-2.56,3.44-4.87,1.6a19.11,19.11,0,0,1-6.38-9.3c-3.41-10.59-8.73-20-17.44-27.17-2.15-1.77-4.23-3.76-7.21-4.11l3.57-8.23c3.63,6.26,10.14,6.05,16.07,7.09,5.63,1,11.71.83,15.61,6.13,2.1,2.83,2.88,6.28,4.2,9.48.74,1.8.73,3.93,2.33,5.35C427.63,376.92,427.57,378.58,427.52,380.24Z" fill="#e1c3af"/><path d="M6.84,416.16c11.39-4.89,21.88-9.37,32.35-13.91,1.88-.82,3-.59,2.69,1.66q-1.92,16.24-4,32.49c-.26,2.07-1.59,1.82-2.86.91-2-1.44-3.89-3.1-6-4.46-1.54-1-2.8-2.22-5.21-2.14-2.09.07-5.24-.79-5.09-4.55.07-1.83-1.87-2.61-3.13-3.59C13.06,420.56,10.34,418.69,6.84,416.16Z" fill="#f8c383"/><path d="M133.08,593.38c-7.79-3.79-12.07-11.09-17.26-17.43a71.86,71.86,0,0,0-14-13.28c-13-9.2-22.86-20.62-25.35-37-.32-2.12-.41-4.27-.61-6.41A3.25,3.25,0,0,1,78.76,518c.69,17.88,11.3,30,24.17,40.48,12.47,10.14,26.34,17.8,42.46,20.67.22,0,.36.49.55.75A56.07,56.07,0,0,1,133.08,593.38Z" fill="#b9d183"/><path d="M380.61,379.26c6.58,3.1,11.38,8.23,15.34,14.1,3.46,5.14,1.88,11.56-2.67,12.5-3,.61-5-1.31-7.15-2.68-3.33-2.09-5.83-5.34-9.52-7C376.29,390.18,376.41,384.24,380.61,379.26Z" fill="#dcbaa1"/><path d="M385.47,357.26c7.39,5,13.87,10.82,16.56,19.8a8.69,8.69,0,0,1,0,6.31c-.9,2-2.06,4.18-4.31,4.44-1.93.22-2.94-1.89-4-3.37-3.35-4.78-8.29-8-12.17-12.22C381.41,366.85,382.2,361.73,385.47,357.26Z" fill="#dcbaa1"/><path d="M376.54,399.21c3.68,3,6.84,6.62,11.23,8.81a6.62,6.62,0,0,1,3.48,8.37c-1,3.15-3.46,5-7.21,4.88-3.53-.1-6.91-.09-9.78-2.64a6,6,0,0,0-4.64-1.43A33.34,33.34,0,0,1,376.54,399.21Z" fill="#dcbaa1"/><path d="M149.84,534a23.3,23.3,0,0,0-5.09-16.91c10-2,20-3.84,30.09-5-5.24,6.61-12.23,11.27-18.54,16.67C154.19,530.57,152,532.27,149.84,534Z" fill="#cdcdcd"/><path d="M823.83,713.77l.11-25c1.59-3.52,4.67-1.69,6.93-1.54s1.13,2.67,1.24,4.14c.22,2.79.16,5.61.22,8.42,0,4.14,0,8.3-.18,12.44-.06,1.41,1,3.89-1.75,3.71C828.15,715.76,824.87,717.9,823.83,713.77Z" fill="#4f4f50"/><path d="M214,688.73q.06,12.53.1,25c-1.19,4.23-4.59,2-6.92,2.06-2.52.07-1.42-2.45-1.49-3.85-.2-3.74-.15-7.5-.2-11.25.06-3.16,0-6.32.24-9.46.1-1.47-1-4,1.33-4.1S212.43,685.17,214,688.73Z" fill="#4f4f50"/><path d="M820.18,92.71q2.3-11.74,4.61-23.49c7.55,1,7.55,1,6.1,8.42-.69,3.54-1.36,7.09-2,10.64C827.47,95.51,827.47,95.51,820.18,92.71Z" fill="#4f4f50"/><path d="M469.21,1c-1,7.75-3.44,15.26-3.95,23.1-6.64,1.52-8.05.28-6.86-6,.74-3.89,1.45-7.78,2.17-11.68C461.91-.82,461.91-.82,469.21,1Z" fill="#4f4f50"/><path d="M13.27,441.72c2.55-.11,4.79,3,3.58,6-.9,2.29-2.17,4.51-2.64,6.89-.68,3.37-2.1,3.44-5.17,2.8-4.16-.87-2.42-3.19-1.84-5.1.89-3,2.15-5.83,3.31-8.72A2.47,2.47,0,0,1,13.27,441.72Z" fill="#f8c383"/><path d="M8.92,531.28c2.44,0,2.74,2.14,2.79,3.81.12,3.86,5.09,7.49,1.37,11.19-1.85,1.84-5.57,2.63-6.41-2.23a47.07,47.07,0,0,0-2.2-7.57C3,532.22,6,531.9,8.92,531.28Z" fill="#f8c383"/><path d="M94.54,628.86c0,3.69-2.25,5.21-5.84,3.86-2.48-.93-4.87-2.08-7.3-3.13-2.1-.9-4.07-1.8-2.53-4.72,1.28-2.42,2.46-4.15,5.62-2.15,2.34,1.49,5.11,2.31,7.66,3.49C93.28,626.74,94.81,627,94.54,628.86Z" fill="#f8c383"/><path d="M27.52,571.52c-.71,1.89-2.55,2.48-4,3.46-1.27.85-2.16.28-2.82-.93-1.9-3.5-3.85-7-5.73-10.49-.64-1.18-.58-2.29.94-2.77s3.45-2.89,4.86-.92C23.36,563.48,25.28,567.57,27.52,571.52Z" fill="#f8c383"/><path d="M171.46,641.63c-4,.91-3.42-1.73-4-3.18-.67-1.72-.55-3.24,1.76-3.73,3.55-.76,7.08-1.6,10.6-2.44,2.89-.69,2.65,1.6,3.2,3.22s.83,3.42-1.4,4C178,640.37,174.22,641.06,171.46,641.63Z" fill="#f8c383"/><path d="M64.26,619.59a20.73,20.73,0,0,1-2-1.2c-2.42-1.74-4.88-3.43-7.18-5.32-1.51-1.25-4-2.23-1.5-5,2.13-2.42,3.72-3.34,6.35-.64,1.83,1.87,4.23,3.18,6.38,4.73,1.33,1,2.36,2.34,1.23,3.75C66.56,617.09,66.25,619,64.26,619.59Z" fill="#f8c383"/><path d="M.17,484c.58-3.41,1.28-6.81,1.71-10.24.28-2.29,1.61-2.69,3.45-2.34s3.81.64,3.56,3.2c-.34,3.61-.76,7.21-1.23,10.8-.37,2.9-2.46,1.84-4.18,1.76C1.38,487.08-.21,486.63.17,484Z" fill="#f8c383"/><path d="M41.11,599.51a3.57,3.57,0,0,1-2.5-1.69c-2-2.24-3.86-4.55-5.87-6.75-1.52-1.67-2.5-3.13,0-4.86,2-1.41,3.73-2.8,5.76.13a83,83,0,0,0,5.47,6.43c.82,1,2.35,1.75,1.14,3.29A10.18,10.18,0,0,1,41.11,599.51Z" fill="#f8c383"/><path d="M377.84,440.29c-4.94-.28-9.6-1.78-14.26-3.27l1.11-4.84c7,1.65,14.09,3.09,21.33,1.13.43-.12,1.08.57,1.63.89-2.43,2.19-6.23,2.92-7.21,6.68l-1.82,0A1.33,1.33,0,0,0,377.84,440.29Z" fill="#c69676"/><path d="M3.28,501.88c2.15-.45,3.45-.15,3.63,1.89.31,3.44.58,6.89.91,10.34.27,2.73-1.51,3.3-3.64,3.63s-3.59-.63-3.74-2.81c-.25-3.62-.25-7.25-.43-10.87C-.15,500.89,2.15,502,3.28,501.88Z" fill="#f8c383"/><path d="M118.55,641.59c-2.34-.51-5.38-1.25-8.46-1.82-2.39-.44-3.56-1.49-2.76-4.07.7-2.26,1.48-3.93,4.48-3a66.86,66.86,0,0,0,8.68,1.94c2.16.39,3.3,1.2,2.62,3.65C122.53,640.37,122,642.25,118.55,641.59Z" fill="#f8c383"/><path d="M145.38,643.83c-1.49,0-3-.1-4.47,0-2.84.23-3.24-1.37-3.22-3.69s.57-3.46,3.09-3.31,5,.09,7.46,0c2.65-.09,4.83-.21,4.77,3.68s-2.33,3.32-4.64,3.33h-3Z" fill="#f8c383"/><path d="M205.64,629.11c-.58,3.13-3.39,3.27-5.61,3.9-3.45,1-3.39-2.26-3.67-4-.61-3.75,3-3.35,5.08-3.95C204.49,624.18,204.46,627.35,205.64,629.11Z" fill="#f8c383"/><path d="M704.17,688.75c0-6.81.05-13.63.05-20.45q0-286.33,0-572.67c0-6.65,0-13.3,0-19.95-.12-1.12.07-2.34-1-3.13a3,3,0,0,1,.08-.79c5.78-.26,11.31,1.67,17,2,0,1-.06,1.93-.08,2.89l.18,2.41c0,3.33-.11,6.65-.11,10l0,249.44c1,6-.92,12.25,1.08,18.22a11.2,11.2,0,0,0-1.07,5.22q0,9.12,0,18.24c0,1.84,0,3.67,0,5.5v18.1q0,43.85,0,87.69c0,2.5,0,5,1.06,7.3-2,6-.07,12.22-1.09,18.26a9.94,9.94,0,0,0,1.11,5.38c-1.55,6.21-1.24,12.43-.13,18.66-1,1.63-1,3.46-.94,5.28v18.17c0,1.9,0,3.8,0,5.7q0,8.84,0,17.66c0,1.87,0,3.73,1.1,5.38-2.06,6-.11,12.31-1.07,18.42,0,1.82,0,3.64,0,5.46v18.22l1,5.34a42,42,0,0,0,0,18.53,4.61,4.61,0,0,0,0,5c-2.08,6-.11,12.28-1.1,18.37l.09,6.16Z" fill="#cdcdcd"/><path d="M720.31,682.59c1-6.09-1-12.35,1.1-18.37,10.29.12,20.59.62,30.87-.28a29.25,29.25,0,0,0,8.91,0c11,1,22,.13,33,.45q0,9.2,0,18.39l-32.89.34-9.13,0Z" fill="#4f4f50"/><path d="M623.25,677.88a1.28,1.28,0,0,1-.73-.39c-.39-2.64-.22-5.42-1.89-7.75-.72-8.71,2.84-15.52,9.85-18.84,7.32-3.47,14.67-2.06,20.84,4,3.82,2.27,3.08,6.7,4.73,10l-.07,4.85a1.71,1.71,0,0,0-.57,2.16,15.48,15.48,0,0,1-7.08,9.74c-.1-4.45-.16-8.9-.31-13.35C647.8,662,644,658,638.34,658s-9.62,4.08-9.83,10.2c-.15,4.46-.14,8.92-.2,13.37l-3.9-2.86A1,1,0,0,0,623.25,677.88Z" fill="#282828"/><path d="M803,698.38c1.94.24,3,1.38,2.91,3.3a2.83,2.83,0,0,1-2.92,2.81,2.9,2.9,0,0,1-3.17-3.07C799.84,699.51,801,698.44,803,698.38Z" fill="#4f4f50"/><path d="M392.18,698.34c1.91.12,3.23,1,3.32,3a2.85,2.85,0,0,1-3,3.18,2.82,2.82,0,0,1-3-2.7C389.25,699.8,390.29,698.7,392.18,698.34Z" fill="#4f4f50"/><path d="M638.55,704.56c-1.95-.2-3.16-1.15-3.27-3.07a2.72,2.72,0,0,1,2.6-3,2.77,2.77,0,0,1,3.41,2.67C641.51,703.13,640.24,704.07,638.55,704.56Z" fill="#4f4f50"/><path d="M711.06,698.34c2.14.33,3.31,1.43,3.11,3.34a3,3,0,0,1-6-.26C708.18,699.43,709.49,698.61,711.06,698.34Z" fill="#4f4f50"/><path d="M641.27,667.28c-.23,1.67-1.12,2.87-2.77,2.94a2.72,2.72,0,0,1-3.08-3,2.62,2.62,0,0,1,2.93-2.63C640.09,664.61,641,665.69,641.27,667.28Z" fill="#282828"/><path d="M467.6,428.1c9.81-14.07,19.62-28.23,24-45.07,3.22-12.36,6.37-24.72,10.32-36.87,1.35-4.18.71-8.58.8-12.89,3.45-2.13,3.35-6.15,4.55-9.32,1.71-4.49,4.06-5.54,8.29-3.74s8.54,3.4,12.82,5.09c-6.69,18-13.32,36.07-20.1,54.06q-29.4,78-58.81,156c-1.86,5-4.66,7.38-10,6.7-3.3-2.56-7.68-2.73-11.12-5,1.3-.24,2.16-.65,1.57-2.31a8.2,8.2,0,0,1,.14-5.83Q443.07,494.6,456,460.2C459.93,449.54,463.72,438.8,467.6,428.1Z" fill="#4f4f50"/><path d="M522.82,295.1c-3.59-7,.89-12.89,3-18.94,3.8-11.12,8.19-22,12.3-33,1.81-4.86,3.36-5.46,8.24-3.77,4.35,1.5,8.37,4.08,13.17,4.15-6.24,16.76-12.44,33.55-18.76,50.28-1.94,5.14-4.22,6-10.25,4.58Z" fill="#4f4f50"/><path d="M271.72,527.05c-7.63,1.17-14.76.31-20.74-5.17a24.42,24.42,0,0,1-5.52-10.74c-.17-6.81.73-13.25,6.29-18.05,9.65-8.32,21.27-6.79,30.79,4.05,1.85,4.77,3,9.65,2.45,14.82C283,519.1,278.27,523.88,271.72,527.05ZM259,507.62a6.21,6.21,0,0,0,6.24,6.29c3.89-.15,6.16-2.33,6.2-6.22s-2.48-5.63-5.89-6.09C262.31,501.17,259,504.37,259,507.62Z" fill="#4f4f50"/><path d="M370.44,554.82c-15.2-6.3-30.41-12.55-45.59-18.91-4.37-1.83-5-5.4-3.78-9.56l1.79-3.38c15.06,5.92,29.62,13.4,46,15.2-.66,2.92.65,5.35,2,7.77l-1,4C369.3,551.67,370.24,553.2,370.44,554.82Z" fill="#4f4f50"/><path d="M447.56,578.94l5.62,2c3.95,1.65,7.89,3.33,11.85,5,6.17,2.51,8.82,7.42,6.87,12.83-2,5.58-7.4,7.64-13.94,5.27-3.11-1.13-6.16-2.41-9.28-3.52-1.09-.39-2.45-1.64-3.25.46a2.53,2.53,0,0,0-.75.24,3.7,3.7,0,0,0-2.18-3.35c-.34-5.18,2.44-9.5,4.05-14.11A14.63,14.63,0,0,0,447.56,578.94Zm18.33,16.32a2.6,2.6,0,0,0-2.83-2.53,2.51,2.51,0,0,0-2.77,2.77,2.55,2.55,0,0,0,2.79,2.78C464.84,598.29,465.78,597.26,465.89,595.26Z" fill="#dadada"/><path d="M414.61,540c2.15.78,4.37,1.41,6.43,2.37,4.35,2,5.68,5.22,4,9.7s-3.7,9.14-5.56,13.7c-3.2,6.57-6.28,7.62-13,4.38-2.07-1-4.09-2.09-6.13-3.14a14.47,14.47,0,0,0,4.63-3.74A58.68,58.68,0,0,0,414.61,540Z" fill="#282828"/><path d="M499.55,312.53c4.38-7.52,5.77-7.94,14.38-4.69,4.47,1.68,9,3.22,13.48,4.82,4.21,3.91,3.9,8.17,1,12.64-4.28-1.69-8.59-3.29-12.82-5.09s-6.58-.75-8.29,3.74c-1.2,3.17-1.1,7.19-4.55,9.32-.43-3-.85-5.94-1.28-8.92C501.82,320.25,500.27,316.46,499.55,312.53Z" fill="#282828"/><path d="M442.5,597.78a3.7,3.7,0,0,1,2.18,3.35c-4.67,12.6-9.25,25.23-14,37.79-2.94,7.7-5.16,15.69-9.13,23-1.15-1.27-.71-3.67-2.95-4.18q9.93-26.4,19.85-52.78C439.4,602.34,440,599.51,442.5,597.78Z" fill="#f2f3ee"/><path d="M405,563.29a14.47,14.47,0,0,1-4.63,3.74c-11-1.47-21.48-4.37-29.91-12.21-.2-1.62-1.14-3.15-.55-4.86,4-.94,6.81,2,10.11,3.16C388.45,556.19,397,559.18,405,563.29Z" fill="#d5ac8e"/><path d="M388.8,676.48c-4.89-10.89-2.11-20.35,7.46-25.66a6.61,6.61,0,0,1,3.29-.8c-2.81,7.6-5.6,15.21-8.47,22.78C390.58,674.14,390.39,675.77,388.8,676.48Z" fill="#282828"/><path d="M418.57,657.73c2.24.51,1.8,2.91,2.95,4.18q.62,2.55,1.21,5.09c-1.8,1.8-.79,4.34-1.78,6.44-2.43,5.17-5.83,9-11.59,10.44Z" fill="#282828"/><path d="M438,583.92c-.26,2.22-1.37,3.26-3.29,3.09a2.78,2.78,0,0,1-2.73-3.33,2.72,2.72,0,0,1,3-2.6A2.85,2.85,0,0,1,438,583.92Z" fill="#4f4f50"/><path d="M404.2,663.9c2,.26,3.11,1.33,3,3.23a2.79,2.79,0,0,1-2.84,2.8,2.75,2.75,0,0,1-3.17-2.9C401.16,665.11,402.44,664.16,404.2,663.9Z" fill="#4f4f50"/><path d="M720.34,564.49q0-9.09,0-18.17l31.88-.44h9.06l32.91.26q0,9.25,0,18.52l-30.91.35Z" fill="#4f4f50"/><path d="M720.32,635.33V617.11l31.89-.38h9.07l32.9.26,0,18.56-32.9.35a32.52,32.52,0,0,0-9,0Z" fill="#4f4f50"/><path d="M794.13,403.93l-32.89.31h-9l-31.9-.49V385.65l31.89-.43h9l32.9.3Q794.15,394.72,794.13,403.93Z" fill="#4f4f50"/><path d="M720.33,611.65c1-6.11-1-12.38,1.07-18.42a297.06,297.06,0,0,0,30.87-.22h9c11,1,21.95.13,32.92.49l0,18.31-32.91.24h-9.06Z" fill="#4f4f50"/><path d="M720.3,380.15q0-9.12,0-18.24l1.62-.31a.88.88,0,0,0,1.34.07h28.08c3.32.1,6.65.43,9.95-.23,10.93,1,21.89.11,32.84.44q0,9.19.05,18.39l-32.91.24-9.1,0Z" fill="#4f4f50"/><path d="M720.3,587.85q0-8.82,0-17.66l41.92-.57,32,.33q0,9,0,18.09l-32.93.39-9.08,0Z" fill="#4f4f50"/><path d="M721.39,659.2a42,42,0,0,1,0-18.53l30.83-.17a33.78,33.78,0,0,0,9.15,0l32.88.32q0,9.1,0,18.2l-32.87.32a34.3,34.3,0,0,0-9.22,0Z" fill="#4f4f50"/><path d="M772.24,338.32h22q0,9.07,0,18.15l-32.93.49-10.08-.15-29.82-.11c-2-6-.11-12.18-1.08-18.22l22.84-.2Z" fill="#4f4f50"/><path d="M761.35,498.59l32.86.35q0,9.13,0,18.26l-32.93.45a34.65,34.65,0,0,0-9.1,0l-31.9-.61c1-6-.94-12.27,1.09-18.26l30.76-.14Z" fill="#4f4f50"/><path d="M721.27,541c-1.11-6.23-1.42-12.45.13-18.66,10.26.22,20.52.6,30.78-.21a27.17,27.17,0,0,0,9.13,0l32.92.56q0,9.09-.05,18.18l-32.9.25H752.2Z" fill="#4f4f50"/><path d="M651.68,83.65c-.88-7.39,1.1-13.56,7.62-17.77.09,4.45.15,8.9.26,13.35.17,6.45,3.69,10.41,9.35,10.58,6,.18,9.92-3.68,10.19-10.28.17-4.28,0-8.58,0-12.87l2.18.1c.65,1.93,2.59,2.1,4,2.94.24,1.36-1,2.9.51,4.1,2.66,8.48.76,15.89-5.3,20.67-6.39,5-14,5.21-21.81.52-.62-.37-1.14-1.33-2.07-.52l-.17.14c.56-.51.54-1-.09-1.44l-3.65-5.53-.42-1.89A1.67,1.67,0,0,0,651.68,83.65Z" fill="#282828"/><path d="M768.2,83.69v1.12c-2.05,4.54-.61,9.33-.93,14-.41,5.86-4.22,9.92-9.7,10s-9.44-3.93-9.59-9.88c-.11-4.65-.15-9.3-.23-14,.16-1,.31-2.06.46-3.09l0-2.12C754.83,81.42,761.78,81.22,768.2,83.69Zm-10.61,18.59c1.57-.31,2.75-1.12,2.74-2.92a2.54,2.54,0,0,0-2.83-2.74,2.58,2.58,0,0,0-2.84,2.76C754.65,101.08,755.87,102,757.59,102.28Z" fill="#cdcdcd"/><path d="M679.11,66.66c0,4.29.16,8.59,0,12.87-.27,6.6-4.21,10.46-10.19,10.28-5.66-.17-9.18-4.13-9.35-10.58-.11-4.45-.17-8.9-.26-13.35.05-.7.09-1.4.13-2.09,3.28-1.68,6.47-.16,9.63.42C672.44,64.82,675.76,65.82,679.11,66.66Zm-6.87,13.66c-.36-1.66-1.32-2.73-3.08-2.62a2.6,2.6,0,0,0-2.67,3,2.67,2.67,0,0,0,3,2.67A2.9,2.9,0,0,0,672.24,80.32Z" fill="#cdcdcd"/><path d="M806.57,76.33c-.33,1.85-1.43,3-3.36,2.83a2.88,2.88,0,0,1-2.75-3.43,2.78,2.78,0,0,1,3.06-2.62A3,3,0,0,1,806.57,76.33Z" fill="#4f4f50"/><path d="M712.88,55.71a2.91,2.91,0,0,1,2.89,3.17A2.69,2.69,0,0,1,713,61.73a2.79,2.79,0,0,1-3.29-2.83C709.63,57,710.83,55.92,712.88,55.71Z" fill="#4f4f50"/><path d="M637.77,47.38c-2-.45-3.27-1.51-3-3.43a2.87,2.87,0,0,1,3.4-2.77,2.83,2.83,0,0,1,2.6,3.08C640.71,46.33,639.39,47.07,637.77,47.38Z" fill="#4f4f50"/><path d="M405,563.29c-8-4.11-16.53-7.1-25-10.17-3.3-1.2-6.14-4.1-10.11-3.16l1-4a72.41,72.41,0,0,1,4.25-8.26c2.28-3.44,3.85-7.27,3.46-11.59,3.21-2.49,7.12-3.4,10.79-4.87,2.11-.84,4.22-1.63,5.12-4.21,6.83-19.63,11.48-39.86,17-59.87,2.72-2.75,2.42-6.75,4.13-9.92l11.18-18c14.84-.25,26.2-7.24,30.21-19a77.64,77.64,0,0,1-10.3,5c-9.38,3.38-12.88,2.39-18.07-6,.29-3.31.59-6.62.88-9.94l1.08-6c3.44-8.91,6.79-17.86,10.36-26.72,2.07-5.13,3-10.78,6.45-15.32a82,82,0,0,0,8.32,16.42c2.83,4.53,6.86,6.06,12.83,4.67,4.26.48,8.24-.72,12.13-2.21,3.4-1.31,4.15-.39,3.46,3.07a95.41,95.41,0,0,1-16.47,38,209.08,209.08,0,0,0-31.49,62.93c-2.7,8.74-8,16.7-12.21,24.94-3.46,6.74-7.22,13.33-10.71,20.06-1.84,3.56.19,5.42,6.27,5.92-.33,1-.65,2-1,3-3.5,3.28-2.71,8-3.92,12A58.68,58.68,0,0,1,405,563.29Z" fill="#e1c3af"/><path d="M465.53,310.36c11-4.53,21.71,1,26.28,13.54,3.23,8.88-1,25.12-8.27,31.43-2.67.82-5.34,1.68-8,2.45-4.88,1.39-14.82-2.21-17.95-5.8-6.82-7.83-6.06-16.6-3.49-25.52A30.28,30.28,0,0,1,465.53,310.36Z" fill="#e1c3af"/><path d="M418.53,528c.33-1,.65-2,1-3a379.3,379.3,0,0,1,20.14-37.09c6.57-10.72,9.58-22.85,14.16-34.36,3.56-8.94,7.71-17.79,13.79-25.48-3.88,10.7-7.67,21.44-11.65,32.1Q443.11,494.61,430.12,529a8.2,8.2,0,0,0-.14,5.83c.59,1.66-.27,2.07-1.57,2.31C423.45,535.88,418.94,534.18,418.53,528Z" fill="#282828"/><path d="M465.53,310.36a30.28,30.28,0,0,0-11.46,16.1c-2.57,8.92-3.33,17.69,3.49,25.52,3.13,3.59,13.07,7.19,17.95,5.8,2.69-.77,5.36-1.63,8-2.45-2.15,6.5-7.61,10.11-12.54,14.16-1,.82-2.48,1.12-2.47,2.8-6,1.39-10-.14-12.83-4.67a82,82,0,0,1-8.32-16.42c.06-6.35-1.57-12.64.11-19.07,2.39-9.17,5.85-17.38,15-21.8Z" fill="#dcbaa1"/><path d="M462.49,310.33c-9.15,4.42-12.61,12.63-15,21.8-1.68,6.43-.05,12.72-.11,19.07-3.49,4.54-4.38,10.19-6.45,15.32-3.57,8.86-6.92,17.81-10.36,26.72-2.27-4-.91-8.93-3.05-13,.05-1.66.11-3.32.16-5,.64-.52,1.6-.9,1.87-1.57,4.4-10.56,11.42-20.09,11.12-32.43-.27-10.74,2.8-20.54,11.37-28,2.32-2,5-3.16,7.71-4.47C461.24,308.09,462.34,308.43,462.49,310.33Z" fill="#c69676"/><path d="M492.71,289.68c.44,4.69,3.64,8.59,3.82,13.35-.46,3.79,1.57,8.55-4,10.33-4-.82-6.73-3.95-10.45-5.29-6.28-2.28-12.55-3.69-19.17-1.43-.67.23-1.57-.17-2.36-.28,2.46-5.23,7.86-4.77,12.19-5.83,7.2-1.75,10.34-4.29,11.66-11.36.48-2.56.76-5.16,1.13-7.75C490.4,282,489.75,287.42,492.71,289.68Z" fill="#dcbaa1"/><path d="M492.51,313.36c5.59-1.78,3.56-6.54,4-10.33,2,2.86,2.42,6.2,3,9.5.73,3.93,2.28,7.72,1.91,11.82A34.61,34.61,0,0,1,492.51,313.36Z" fill="#c69676"/><path d="M411.46,457.14c-5.48,20-10.13,40.24-17,59.87-.9,2.58-3,3.37-5.12,4.21-3.67,1.47-7.58,2.38-10.79,4.87-3.43,3.86-7.18,7.48-9.69,12.08-16.42-1.8-31-9.28-46-15.2a137.56,137.56,0,0,0-14.4-6c-3.92-1.25-7-3.43-5.8-8.46a16.65,16.65,0,0,0,.13-3.47c.26-3,.51-6,.76-9q1.21-6.94,2.42-13.89c9.48,1.57,18.37,5.23,27.53,7.92,9.35,2.74,18.68,5.54,27.95,8.52,15.91,5.13,31.49-2.15,37.62-17.82,2.82-7.22,5.66-14.45,8.17-21.78C408.14,456.39,409.2,455.83,411.46,457.14Z" fill="#050905"/><path d="M303.55,496.06c-.25,3-.5,6-.76,9-7.31-1.17-13.37-5.57-20.25-7.88-9.52-10.84-21.14-12.37-30.79-4.05-5.56,4.8-6.46,11.24-6.29,18.05l-15,13.57q-18,9-36,18.11c-1.18.6-2.24,1.44-3.68,1.26,3.58-5.38,9.5-8.12,14.05-12.43C216.26,520.84,229.43,512,240,500.3a103.17,103.17,0,0,0,9.76-12.48c4.64-7.11,10.62-9.94,18.62-6.82C280.26,485.63,291.85,491,303.55,496.06Z" fill="#c69676"/><path d="M190.88,544l-1,1.07C188.84,543.48,190.42,544.28,190.88,544Z" fill="#c69676"/><path d="M492.71,289.68c-3-2.26-2.31-7.67-7.2-8.26-7.1-2.85-11.93,1.56-16.85,5.41a37.27,37.27,0,0,0-5.3,5.21c-4.51,5.28-10.42,5.84-16.73,5.25,1.21-4.27,5.15-6.28,7.91-9.19,8.2-8.66,16.89-16.85,25.18-25.44,2.83-2.93,5.65-4.74,9.92-4.3,2.22.23,4.54-.58,6.81-.92-.87,3-1.85,6-2.6,9-1.38,5.54.19,8.75,4.76,10.09C495.35,280.34,494.94,285.42,492.71,289.68Z" fill="#c69676"/><path d="M429.49,399.28c-.29,3.32-.59,6.63-.88,9.94-2,6.55-2.18,13.26-1.84,20l-11.18,18c-2.9-1.49-6.44-.89-9.19-2.83,1.51-4.47,4.39-8.17,7.34-11.69a14.92,14.92,0,0,0,3.68-10c-.16-7.58,2.47-14.67,3.15-22.06.19-2.06,1.11-2.39,3-1.95A43.05,43.05,0,0,0,429.49,399.28Z" fill="#c69676"/><path d="M380.44,440.88c1-3.76,4.78-4.49,7.21-6.68,3.59-.82,6.75-2.72,9.81-4.56,4.1-2.46,8.4-2.65,12.87-2.45.94,0,2.17-.34,2.64.78.57,1.39-.7,2.12-1.59,2.69-2.36,1.5-4.79,2.89-7.26,4.2a20.39,20.39,0,0,0-8.44,8Z" fill="#dcbaa1"/><path d="M377.84,440.29a1.33,1.33,0,0,1,.78.55Z" fill="#dcbaa1"/><path d="M135.86,530.78a5.86,5.86,0,0,1-6.43,6c-3.72-.33-5.6-2.61-5.6-6.3,0-3.86,2.34-5.74,5.92-6S135.91,527.12,135.86,530.78Z" fill="#d5ac8e"/><path d="M652.75,87.64l3.65,5.53c-.28.32-.76.62-.8,1-.07.56.37.71.89.46l.17-.14c-2.23,1.85-1.06,4.36-1.06,6.5q-.11,267.27,0,534.54c0,9.79-.53,19.6.48,29.38-1.65-3.3-.91-7.73-4.73-10,2.52-1.48,1.19-3.9,1.19-5.81q.12-199.62.08-399.26,0-78.85,0-157.71C652.57,90.62,652.69,89.13,652.75,87.64Z" fill="#6c6b6c"/><path d="M685.33,69.7c6.14-.12,11.84,2.58,17.92,2.85,1.1.79.91,2,1,3.13-4.56-.89-9.1-1.89-13.69-2.59-1.53-.23-3.53-1.78-4.75.71C684.35,72.6,685.57,71.06,685.33,69.7Z" fill="#6c6b6c"/><path d="M655.41,671.9a1.71,1.71,0,0,1,.57-2.16A2.06,2.06,0,0,1,655.41,671.9Z" fill="#6c6b6c"/><path d="M479.46,587q27.48,16.71,54.94,33.43,41.28,25.26,82.51,50.61c1.65,1,4.15,3.73,3.72-1.34,1.67,2.33,1.5,5.11,1.89,7.75-15.32-9.26-30.68-18.45-45.94-27.8q-45.84-28.08-91.61-56.3c-1.41-.86-2.9-1.56-4.36-2.34C480.23,589.71,479.84,588.37,479.46,587Z" fill="#6c6b6c"/><path d="M479.46,587c.38,1.33.77,2.67,1.15,4,0,3.45.62,6.92-.68,10.3-2.51,6.55-7.05,10.71-14.08,11.73-7.83,1.13-13.89-1.8-18.17-8.43-.22-1.57-1.37-2.58-2.25-3.76.8-2.1,2.16-.85,3.25-.46,3.12,1.11,6.17,2.39,9.28,3.52,6.54,2.37,11.93.31,13.94-5.27,2-5.41-.7-10.32-6.87-12.83-4-1.62-7.9-3.3-11.85-5,7.55-5.06,16.95-4.09,23,2.4C477.32,584.51,478.37,585.79,479.46,587Z" fill="#282828"/><path d="M445.43,600.89c.88,1.18,2,2.19,2.25,3.76-2.47.64-2.25,3.07-2.88,4.74-6.8,17.85-13.44,35.76-20.16,53.64-.52,1.37-1.27,2.65-1.91,4q-.6-2.54-1.21-5.09c4-7.3,6.19-15.29,9.13-23,4.78-12.56,9.36-25.19,14-37.79A2.53,2.53,0,0,1,445.43,600.89Z" fill="#6c6b6c"/><path d="M623.25,677.88a1,1,0,0,1,1.16.85Z" fill="#6c6b6c"/><path d="M745.2,83.92l-24.75-4.87-.18-2.41c9.46,1,18.69,3.17,28,5.21-.15,1-.3,2.06-.46,3.09l-.27.13-.2-.21-.93-.23C746.35,83.79,745.79,83.83,745.2,83.92Z" fill="#6c6b6c"/><path d="M752.28,663.94l-.15-4.6a34.3,34.3,0,0,1,9.22,0c-.05,1.54-.1,3.08-.16,4.62A29.25,29.25,0,0,1,752.28,663.94Z" fill="#dadada"/><path d="M651.68,83.65a1.67,1.67,0,0,1,.65,2.1A2.11,2.11,0,0,1,651.68,83.65Z" fill="#6c6b6c"/><path d="M230.48,524.71l15-13.57A24.42,24.42,0,0,0,251,521.88Z" fill="#cdcdcd"/><path d="M259,507.62c.07-3.25,3.34-6.45,6.55-6,3.41.46,5.94,2.32,5.89,6.09s-2.31,6.07-6.2,6.22A6.21,6.21,0,0,1,259,507.62Z" fill="#d5ac8e"/><path d="M368.9,538.17c2.51-4.6,6.26-8.22,9.69-12.08.39,4.32-1.18,8.15-3.46,11.59a72.41,72.41,0,0,0-4.25,8.26C369.55,543.52,368.24,541.09,368.9,538.17Z" fill="#d5ac8e"/><path d="M465.89,595.26c-.11,2-1.05,3-2.81,3a2.55,2.55,0,0,1-2.79-2.78,2.51,2.51,0,0,1,2.77-2.77A2.6,2.6,0,0,1,465.89,595.26Z" fill="#282828"/><path d="M743.15,338.27c.12-5.63.27-11.26.35-16.9.1-7.44,2.9-12.17,9.82-14.47,3.67-1.22,2.77-3.6,2.77-5.86q.06-88,0-175.91c0-2.49.08-5,.12-7.47l2.73-.11q0,91.28,0,182.53c0,3.82.37,6.15,4.72,7.71,5.17,1.85,7.53,6.56,7.76,12.28.24,6.08-1.07,12.24.77,18.25Zm18.4-18.7c.17-5.42-4.26-1-6.12-2.86-.85-.83-2.14,1.56-2.07,3,.13,2.73,1.89,4.32,4.51,4.12A3.8,3.8,0,0,0,761.55,319.57Z" fill="#6c6b6c"/><path d="M759,117.55l-2.73.11h0c-.3-1.23-1.16-1.17-2.11-.91-7.68-1.47-12.39-6.13-14-13.67s.82-13.7,7.15-18.22l.2.21.27-.13c.08,4.65.12,9.3.23,14,.15,6,4,9.91,9.59,9.88s9.29-4.1,9.7-10c.32-4.67-1.12-9.46.93-14,6,5,8.53,11.39,6.61,19-1.76,7-6.35,11.42-13.56,12.89-.87-.25-1.68-.33-2.14.68Z" fill="#282828"/><path d="M759.12,117.37c.46-1,1.27-.93,2.14-.68Z" fill="#6c6b6c"/><path d="M752.14,498.6q.06-47.18.1-94.37h9q.06,47.17.11,94.35Z" fill="#dadada"/><path d="M752.21,545.88c0-1.57,0-3.14,0-4.71h9.08c0,1.57,0,3.13,0,4.7Z" fill="#dadada"/><path d="M752.21,616.73V612h9.06c0,1.57,0,3.13,0,4.7Z" fill="#dadada"/><path d="M752.17,640.5c0-1.52,0-3,.05-4.58a32.52,32.52,0,0,1,9,0c0,1.53,0,3.06.07,4.59A33.78,33.78,0,0,1,752.17,640.5Z" fill="#dadada"/><path d="M752.23,385.22l0-4.74,9.1,0,0,4.71Z" fill="#dadada"/><path d="M752.27,593c-1.2-1.52-.56-3.06-.07-4.6l9.08,0c0,1.52,0,3.05,0,4.57Z" fill="#f2f3ee"/><path d="M751.23,361c0-1.41,0-2.82,0-4.22l10.08.15c0,1.49,0,3,0,4.48-3.3.66-6.63.33-9.95.23A1.11,1.11,0,0,0,751.23,361Z" fill="#f2f3ee"/><path d="M751.23,361a1.11,1.11,0,0,1,.13.64h-1.14Z" fill="#cdcdcd"/><path d="M721.94,361.6l1.34.07A.88.88,0,0,1,721.94,361.6Z" fill="#cdcdcd"/><path d="M752.18,522.17c0-1.52,0-3,0-4.56a34.65,34.65,0,0,1,9.1,0c0,1.51,0,3,0,4.53A27.17,27.17,0,0,1,752.18,522.17Z" fill="#f2f3ee"/><path d="M757.59,102.28c-1.72-.27-2.94-1.2-2.93-2.9a2.58,2.58,0,0,1,2.84-2.76,2.54,2.54,0,0,1,2.83,2.74C760.34,101.16,759.16,102,757.59,102.28Z" fill="#282828"/><path d="M672.24,80.32a2.9,2.9,0,0,1-2.75,3,2.67,2.67,0,0,1-3-2.67,2.6,2.6,0,0,1,2.67-3C670.92,77.59,671.88,78.66,672.24,80.32Z" fill="#282828"/><path d="M426.77,429.24c-.34-6.76-.17-13.47,1.84-20,5.19,8.43,8.69,9.42,18.07,6a77.64,77.64,0,0,0,10.3-5C453,422,441.61,429,426.77,429.24Z" fill="#dcbaa1"/><path d="M754.14,116.75c1-.26,1.81-.32,2.11.91Z" fill="#6c6b6c"/><path d="M745.2,83.92c.59-.09,1.15-.13,1.16.71Z" fill="#cdcdcd"/><path d="M752.27,569.61c-1.2-1.52-.56-3.06-.07-4.61l9.08,0c0,1.52,0,3,0,4.57Z" fill="#f2f3ee"/></g></g></svg>