<svg xmlns="http://www.w3.org/2000/svg" viewBox="0 0 174.83 668.99"><title>ex_8_1</title><g id="Layer_2" data-name="Layer 2"><g id="Layer_1-2" data-name="Layer 1"><path d="M46.15,621q-.46-10.44-.94-20.9l1.3,2.1A11.49,11.49,0,0,0,48,596.64c.05-15.23,1.83-30.45.93-45.68a119.17,119.17,0,0,1,7.15-49.65c3.1-8.24,7-16.19,13.92-22.27,2.8-2.46,3.67-1.41,5,1.16a38.67,38.67,0,0,1,3.82,10.18c.29,1.56.42,3,2.57,2.79-.86,16.21-1.44,32.45-2.66,48.63A751.32,751.32,0,0,0,77.06,618c-1.61,1.86-3.68,3.49-4.75,5.63-3,6.06-8.8,5.71-14,6.18C52,630.38,47.79,627.29,46.15,621Z" fill="#dcbba1"/><path d="M49.44,432c-8.18-2.28-11-7.29-10.69-16,.5-15.6-.56-31.23-.85-46.86a18,18,0,0,0-1.49-6.19c-7.13-18.69-10.74-37.67-4.24-57.38a9.41,9.41,0,0,1,2,1.33c8.1,9,16.14,18,24.25,27a35.12,35.12,0,0,1,7.69,12.63c2.1,8.08,3.13,16.49,7.47,23.86l1.63,4.5q-2.73,30.38-5.44,60.76l-11.92-1.06Z" fill="#1a1a1a"/><path d="M11.12,250.69c0-6.24,2.37-12.12,2.17-18.51-.25-8.25-1.2-16.37-2.16-24.52,4.57-8.41,7.09-17.56,10-26.61.86-2.69.24-6.91,4.86-7.3,2.23,4.81,3.08,10,4.12,15.13.39,1.94-.1,4.84,2.3,5.54,2.19.65,2.44-2.3,3.8-3.37a13.45,13.45,0,0,1,2-1.42c8.86-4.55,18-8.37,27.9-10a14.46,14.46,0,0,1,.73,6.12c-1.76,3.25-.65,6.76-.87,10.14-.71,10.85-2.06,21.55-6.12,31.74-4.33.94-6.64,4.57-9.64,7.27-4.61,4.13-8.33,3.67-12-1.29a66.21,66.21,0,0,1-9.52-19.41c-.51,6-1.58,12-.06,17.88.61,2.37,0,5.48,3.25,6.58a2.12,2.12,0,0,0,1,2l0,0c3.19,6.08,7.54,11.3,13.54,14.52,5.23,2.81,8,7.17,10.25,12.16.54,1.19.63,2.58,2,3.22.29,4,2.39,7.41,3.65,11.1A154.06,154.06,0,0,0,78,316.8l6.15,11.72a4.3,4.3,0,0,1-3.06-1.38C67.93,316.35,60.32,301.73,52.9,287c-3.15-6.27-5.3-13.17-10.38-18.27C33.73,259.84,22.44,255.2,11.12,250.69Z" fill="#e1c3af"/><path d="M49.44,432l8.41,2.57a2.45,2.45,0,0,0,1.43,1.88,158.47,158.47,0,0,0,34.16,12.7c1.74,16.26-6.43,29.8-12.1,44-2.15.25-2.28-1.23-2.57-2.79A38.67,38.67,0,0,0,75,480.2c-1.31-2.57-2.18-3.62-5-1.16-6.92,6.08-10.82,14-13.92,22.27A119.17,119.17,0,0,0,48.9,551c.9,15.23-.88,30.45-.93,45.68a11.49,11.49,0,0,1-1.46,5.59l-1.3-2.1a267.43,267.43,0,0,0-9.43-58.37c-7.49-26.91-1.76-51.6,10.14-75.57,5-10.12,3.78-20.67,3.73-31.22C49.65,434,49.52,433,49.44,432Z" fill="#d6ad8e"/><path d="M124.78,263.65c-.13,3.33.93,6.77-.91,9.94A31.16,31.16,0,0,1,106,270.24c-1.61-.8-3.16-1.92-5.13-1.65l0,0c-.38-.87-1.11-1-1.93-.91-4.5-6.18-10.58-10.26-17.48-13.29-1.46-.64-2.89-1.25-4,.38s.47,2.46,1.38,3.27c3.52,3.14,5.61,7.33,8.34,11.05,2.14,2.91,1.2,3.7-1.92,3.52l-17.42-2c-1.47-4.7-2.79-9.54-6.57-13a6.68,6.68,0,0,1-2.2-7.14c1.44-5.42,3-10.71,5.82-15.72,2.32-4.07,4.81-8.17,6-12.95a152.29,152.29,0,0,0,4.88-41.08c1.93-5,6.62-7.55,10-11.26,1.25-1.37,2.68-.59,3.74.78S92,173,93.06,174.41c2.72,3.72,7.64,5.06,9.92,9.25-4.45.05-8.61,0-12.35,3.64C81.87,196,78,207,74.27,218.16c-.5,1.48-.64,3,1.49,3.46,6.14,1.45,12.15,1.29,16.29-4.73a65,65,0,0,1,13.87-14.65c5.48-4.23,11.24-8,18.1-9.78,2.52-.67,3,.16,2.85,2.25a6.36,6.36,0,0,0-5,2c-1.42.41-2.9.7-4.27,1.24-9.47,3.7-14.12,10-13.7,18.41.22,4.37,1.33,5,5,2.91,4-2.23,8-4.41,12-6.61,1.79-.14,3.39-1.41,5.29-1-.15,1.63-.31,3.25-.46,4.87-2.07.36-4.14.72-5.85,2.11-7.21,1.64-12.86,5.8-17.51,11.31-1.78,2.11-2.53,5.18-.75,7.42,1.93,2.43,4.61,4.15,8.29,2.45,2.52-1.16,5.39-1.57,8.1-2.32,1.51.26,3.61-2.06,4.3-.18.88,2.4-2.18,2-3.49,2.9-.65.44-1.26.94-1.89,1.42a53.24,53.24,0,0,0-6.33,1.06c-3.58,1-7,2.47-7.65,6.81s2.42,6.61,5.72,8.37c2.62,1.4,5.55.54,8.34.61,2.39.39,4.61-.48,6.89-.92.15,1.29.3,2.57.44,3.86A1.67,1.67,0,0,0,124.78,263.65Z" fill="#d6ad8e"/><path d="M55.55,66.4a78.37,78.37,0,0,1-9-24.57C41.48,15.64,59-3,85.62.4c6.58.84,13.11,2,19.67,3,2.08.31,4.12,1.19,6.11-.61,1.57-1.42,2.75.21,3.81,1.09,5.09,4.17,5.33,11.74.68,18.38-1.91.51-3.07-1-4.47-1.74a38.77,38.77,0,0,0-16.65-4.58c-2.55-.17-3.64.48-3.16,3.28.61,3.59.63,7.3,1.39,10.85.66,3-.14,5.26-2.61,6.79-4.57,2.84-5,6.92-4,11.64a26.1,26.1,0,0,1,.45,3.95c.11,1.64.47,3.53-2.24,3.29-1.87-.17-4.18.65-4.57-2.41-.22-1.81-.64-3.59-1-5.38-.8-4-4.41-7.3-7.85-6.68C67,42,64.36,44.5,64,49c-.11,1.64-.39,3.27-.59,4.9a12.42,12.42,0,0,0-.51,7.29c.81,4.78-1.35,5.81-5.42,5.21A13,13,0,0,0,55.55,66.4Z" fill="#312823"/><path d="M63.45,53.88c.2-1.63.48-3.26.59-4.9.32-4.48,2.94-7,7.1-7.76,3.44-.62,7,2.69,7.85,6.68.37,1.79.79,3.57,1,5.38.39,3.06,2.7,2.24,4.57,2.41,2.71.24,2.35-1.65,2.24-3.29a26.1,26.1,0,0,0-.45-3.95c-1-4.72-.54-8.8,4-11.64C92.86,35.28,93.66,33.06,93,30c-.76-3.55-.78-7.26-1.39-10.85-.48-2.8.61-3.45,3.16-3.28a38.77,38.77,0,0,1,16.65,4.58c1.4.78,2.56,2.25,4.47,1.74,1,7.7,2.78,15.23,3.47,23,1.07,12.18-.06,24.17-.89,36.24-.34,4.87-2.75,7.56-7.72,7.89-1.81.13-3.61.46-5.42.7a10.27,10.27,0,0,0-5.56-3C94.36,85.77,89,84.39,83.93,82a46.43,46.43,0,0,1-3.11-12c-.37-3.08-.87-6-5.38-6.39-2.83-.26-5.56-2.18-7.59-5C66.64,57,66.6,53.85,63.45,53.88Z" fill="#e1c3af"/><path d="M124.52,291.63a389.64,389.64,0,0,1-1.92,71.63c-2.67,22.59-6.23,45.06-9.41,67.58-.81,5.79-3.36,6.68-8,6.19.41-5.45.9-10.89,1.22-16.34.84-14.55,2.06-29.1.89-43.69,1.93-2.55,2-5.41,1.49-8.41-.82-4.67-1.56-9.35-2.33-14-1.65-22.68-5.46-44.95-13-66.48,1.5-2.28,3.36-1.16,5.3-.73C107.26,289.22,115.61,292.11,124.52,291.63Z" fill="#1a1a1a"/><path d="M128.73,653.7c2.92,1.77,6.32,1.19,9.24.89a55.05,55.05,0,0,1,14.28.17,32.57,32.57,0,0,0,11.86-.5c3.9-.84,7.51.19,9.71,4.19,1.68,3.06,1.18,5.62-.86,8.24-1.51,1.95-3.49,2.3-5.74,2.3Q86.9,669,6.57,669C2,669,0,666.74,0,662.12s1.9-6.6,6.28-7.18c11-1.46,22.06-.33,33.07-.87,4.69,4.5,10.54,4.36,16.37,3.91,7.12-.56,14.1-.9,21.22.89A74.28,74.28,0,0,0,128.73,653.7Z" fill="#ebece6"/><path d="M11.12,250.69c11.32,4.51,22.61,9.15,31.4,18,5.08,5.1,7.23,12,10.38,18.27,7.42,14.78,15,29.4,28.15,40.19a4.3,4.3,0,0,0,3.06,1.38c.62.93,1.25,1.86,1.87,2.8a15.62,15.62,0,0,1-6,9.17c-3.48-1.26-4.85-4.83-7.68-6.89-13.56-9.91-26.91-20.07-38.77-32.08-2.15-2.18-3.6-5.88-7.63-5.81-7.86-8.43-11.11-18.89-12.74-29.92C12.37,260.78,10.62,255.87,11.12,250.69Z" fill="#d6ad8e"/><path d="M46.15,621c1.64,6.26,5.84,9.35,12.14,8.8,5.22-.47,11-.12,14-6.18,1.07-2.14,3.14-3.77,4.75-5.63,3.58-.7,5.73,1.61,8.2,3.61,11.21,9.11,24.53,13,38.47,15.43,3.1.53,6.8.12,8.19,4.14-3.94,5.26-8.36,9.88-15.14,11.41-14.38,3.24-28.63,3.9-42.62-1.84-2.46-1-5-2.08-7.68-1.93-9.4.55-18.8,1.23-27.45-3.72.4-6.69,2.07-13.23,2.06-20C41.09,622.1,43.29,621,46.15,621Z" fill="#d8d6e9"/><path d="M107.3,377c1.17,14.6,0,29.15-.89,43.7-.32,5.45-.81,10.89-1.22,16.34l-6.87.44c-9.54-.31-19.11-.1-28.55-1.84q2.72-30.37,5.44-60.76c1.43,1.56,2.94,3.05,4.28,4.68,2.33,2.83,5,4.76,8.92,3.89,4.3-1,8.67-1.72,12.54-4Z" fill="#2dafb7"/><path d="M66.13,179.61c-9.91,1.65-19,5.47-27.9,10a13.45,13.45,0,0,0-2,1.42c-1.36,1.07-1.61,4-3.8,3.37-2.4-.7-1.91-3.6-2.3-5.54-1-5.15-1.89-10.32-4.12-15.13-1.28-7-1.15-14.16-1-21.27.29-13.69,7-30.22,24.86-35.5-8.59.73-16.3,3.34-21.75,10.64-6.17,8.25-7.86,17.65-7.17,27.71.28,4.08-.15,8.1-3.45,11.15-1.95-15.31-.27-30,7.67-43.55L38.9,114.8l18.14,0c3.71.18,7,2.71,10.82,2.14,0,1.49,1.51,1.88,2,3a1.77,1.77,0,0,0-.9,1.87c-7.56-2.73-15.69-3.82-22.81-.53-9.56,4.41-15,12.93-15.13,23.73s5.88,18.19,15.29,22.95c6.41,3.24,18.89,2.47,22.62-2,7.21-8.67,14.68-17.47,11.06-30.19,4,4.18,3.37,9.3,2.28,14.16C79.74,161.26,72.44,170.19,66.13,179.61Z" fill="#d9b398"/><path d="M63.45,53.88c3.15,0,3.19,3.13,4.4,4.78,2,2.78,4.76,4.7,7.59,5,4.51.42,5,3.31,5.38,6.39a46.43,46.43,0,0,0,3.11,12c1.83,7.62,3.43,15.31,5.61,22.84.7,2.38.1,5.73,3.34,7a2.21,2.21,0,0,1,0,1c-1,2.87-3.19,3.33-5.86,3-7.46-1-11.79-5.7-15.07-12.09-4.29-8.36-8.22-17.43-20.07-17.06-.38,0-.78-.55-1.17-.85q2.41-9.69,4.85-19.39a13,13,0,0,1,2,0c4.07.6,6.23-.43,5.42-5.21A12.42,12.42,0,0,1,63.45,53.88Z" fill="#d9b398"/><path d="M50.7,85.79c.39.3.79.86,1.17.85,11.85-.37,15.78,8.7,20.07,17.06,3.28,6.39,7.61,11.08,15.07,12.09,2.67.37,4.86-.09,5.86-3,.24,1.38-.55,3.28,1.37,3.89,6.81,2.15,10.83,7.51,14.78,12.84,7.71,10.38,15.08,21,20.16,33,1,2.27,2,4.58,1.7,7.18-2.56,0-3.45,3.18-6,3.2a32.09,32.09,0,0,0-2.82-9.91c-5.64-13.14-14.17-24.5-22.57-35.85C95,121.05,89,116.4,80.11,117.68c-4,.58-8.26.93-12.25-.76-3.86.57-7.11-2-10.82-2.14a2.53,2.53,0,0,0-1.39-1.88c-5.32-2.79-5.58-3.89-3.15-9.22,1.54-3.37,4.27-5.9,5.92-9.12.56-1.09,3.26-2.18.87-3.94-1.91-1.41-3.42-.36-4.72,1.14-2,2.36-4.56,4.49-6,7.19-3,5.46-8.65,9.24-9.65,15.85l-13.76,8.13c4.4-10.63,11.16-19.72,18.63-28.32C46.23,91.78,49.48,89.59,50.7,85.79Z" fill="#ead3c3"/><path d="M124.88,172.94c2.55,0,3.44-3.18,6-3.2-1,5.09-1.12,10.41-4.24,14.89-8,2.74-15.82.31-23.66-1-2.28-4.19-7.2-5.53-9.92-9.25-1.06-1.44-2.33-2.74-3.42-4.16s-2.49-2.15-3.74-.78c-3.38,3.71-8.07,6.27-10,11.26-3.57.65-5.29,4.65-9,5a14.46,14.46,0,0,0-.73-6.12c6.31-9.42,13.61-18.35,16.18-29.74,1.09-4.86,1.74-10-2.28-14.16-.85-4-3.75-7.07-5.17-10.82l.13-.13c2.48.15,3.64,2.17,5,3.74a35.54,35.54,0,0,1,8.43,16.6c1.66,9,6.71,15.79,13.12,21.55S116.09,174.57,124.88,172.94Z" fill="#c79778"/><path d="M103,183.66c7.84,1.28,15.65,3.71,23.66,1l1.26,7.06c-.14,1.08.18,2.31-1,3,.11-2.09-.33-2.92-2.85-2.25-6.86,1.82-12.62,5.55-18.1,9.78a65,65,0,0,0-13.87,14.65c-4.14,6-10.15,6.18-16.29,4.73-2.13-.5-2-2-1.49-3.46C78,207,81.87,196,90.63,187.3,94.37,183.61,98.53,183.71,103,183.66Z" fill="#dcbba1"/><path d="M39,645.12c8.65,5,18,4.27,27.45,3.72,2.72-.15,5.22.92,7.68,1.93,14,5.74,28.24,5.08,42.62,1.84,6.78-1.53,11.2-6.15,15.14-11.41,3.62,4,2.54,8.25-3.19,12.5a74.28,74.28,0,0,1-51.79,5.17c-7.12-1.79-14.1-1.45-21.22-.89-5.83.45-11.68.59-16.37-3.91C37.52,651.14,39.2,648.1,39,645.12Z" fill="#464549"/><path d="M124.52,291.63c-8.91.48-17.26-2.41-25.77-4.27-1.94-.43-3.8-1.55-5.3.73-1.53-1.95-10.57-5.34-12.25-4.18-2.59,1.77-.75,4.79-1.34,7.19a21.64,21.64,0,0,0-.32,2.42c-1.25-2-.65-4.22-.53-6.3.18-3.25-.78-4.43-4.31-4.9a84.8,84.8,0,0,0-12.32-.66c-1.26-3.69-3.36-7.1-3.65-11.1l9.2.07,17.42,2a137.65,137.65,0,0,0,21.56,5.21c5.17,1.75,10.41,3.1,16,2.78,2.73.86,2.48,2.91,2.15,5.12C124.71,287.69,124.67,289.67,124.52,291.63Z" fill="#3c3f3e"/><path d="M17.47,166.48c3.3-3,3.73-7.07,3.45-11.15-.69-10.06,1-19.46,7.17-27.71,5.45-7.3,13.16-9.91,21.75-10.64C32,122.26,25.27,138.79,25,152.48c-.15,7.11-.28,14.23,1,21.27-4.62.39-4,4.61-4.86,7.3-2.9,9-5.42,18.2-10,26.61-3.25-7.22-2.19-14.27.61-21.36C14.28,179.89,16.88,173.46,17.47,166.48Z" fill="#ead3c3"/><path d="M25.86,295.71c4-.07,5.48,3.63,7.63,5.81,11.86,12,25.21,22.17,38.77,32.08,2.83,2.06,4.2,5.63,7.68,6.89l-.06,2c-4.16,2.81-8.64,4.53-13.77,4a35.12,35.12,0,0,0-7.69-12.63c-8.11-9-16.15-18-24.25-27a9.41,9.41,0,0,0-2-1.33C31,301.65,27.29,299.42,25.86,295.71Z" fill="#ca9e81"/><path d="M92.88,111.84c-3.24-1.3-2.64-4.65-3.34-7C87.36,97.28,85.76,89.59,83.93,82c5,2.42,10.43,3.8,15.84,5.14a10.27,10.27,0,0,1,5.56,3C102.31,98,95.91,103.94,92.88,111.84Z" fill="#c79778"/><path d="M69.77,435.63c9.44,1.74,19,1.53,28.55,1.84-1.33,4-4.88,7.11-4.88,11.68a158.47,158.47,0,0,1-34.16-12.7,2.45,2.45,0,0,1-1.43-1.88Z" fill="#b17d59"/><path d="M119.88,218.68c1.71-1.39,3.78-1.75,5.85-2.11,1.26,4.52,1.85,9.13.08,13.56-2.88,7.23-.72,14.56-1,21.83-.06,1.9.65,4-.95,5.65-2.28.44-4.5,1.31-6.89.93,1.88-5.63.84-11.25-.08-16.86.63-.48,1.24-1,1.89-1.42,1.31-.88,4.37-.5,3.49-2.9-.69-1.88-2.79.44-4.3.18C119.05,231.29,120.53,225.09,119.88,218.68Z" fill="#ead3c3"/><path d="M122.86,280.64c-5.54.32-10.78-1-16-2.78l-6-9.27c2-.27,3.52.85,5.13,1.65a31.16,31.16,0,0,0,17.86,3.35C123.27,275.9,122.58,278.2,122.86,280.64Z" fill="#b17d59"/><path d="M126.87,194.71c1.21-.71.89-1.94,1-3,1.36,6.84,2.26,13.64-1.71,20-1.9-.46-3.5.81-5.29,1,.39-5.31,1.52-10.58,1-16A6.36,6.36,0,0,1,126.87,194.71Z" fill="#ead3c3"/><path d="M124.78,263.65a1.67,1.67,0,0,1-.44-2.18C124.49,262.2,124.64,262.93,124.78,263.65Z" fill="#ead3c3"/><path d="M66.11,346.51c5.13.5,9.61-1.22,13.77-4,5.89,4.54,9.51,11.1,14.55,16.41.63.66.36,2.18.5,3.3-5,4.3-11.31,4.75-17.29,6.17-1.57.37-3.4-.08-4.06,2C69.24,363,68.21,354.59,66.11,346.51Z" fill="#dcbba1"/><path d="M73.58,370.37c.66-2.09,2.49-1.64,4.06-2,6-1.42,12.33-1.87,17.29-6.17l2.93,0c1.14,5.73,2.87,11.35,3.09,17.25-3.87,2.31-8.24,3.07-12.54,4-3.93.87-6.59-1.06-8.92-3.89-1.34-1.63-2.85-3.12-4.28-4.68Z" fill="#ca9e81"/><path d="M79.54,293.52a21.64,21.64,0,0,1,.32-2.42c.59-2.4-1.25-5.42,1.34-7.19,1.68-1.16,10.72,2.23,12.25,4.18,7.55,21.53,11.36,43.8,13,66.48a1.38,1.38,0,0,0-.69.14c-6.38-8-12.58-16.11-19.79-23.39-.62-.94-1.25-1.87-1.87-2.8L78,316.8C79.82,309.13,78.68,301.26,79.54,293.52Z" fill="#2dafb7"/><path d="M67.93,270.63l-9.2-.07c-1.38-.64-1.47-2-2-3.22-2.28-5-5-9.35-10.25-12.16-6-3.22-10.35-8.44-13.54-14.52,5.3,1.18,9.16,5.26,14.16,7,1.33.47,3.18,1.85,3.68-.41,1.63-7.25,6.72-12.83,9.1-19.68,4.06-10.19,5.41-20.89,6.12-31.74.22-3.38-.89-6.89.87-10.14,3.75-.35,5.47-4.35,9-5A152.29,152.29,0,0,1,71,221.81c-1.23,4.78-3.72,8.88-6,12.95-2.86,5-4.38,10.3-5.82,15.72a6.68,6.68,0,0,0,2.2,7.14C65.14,261.09,66.46,265.93,67.93,270.63Z" fill="#ca9e81"/><path d="M79.54,293.52c-.86,7.74.28,15.61-1.58,23.28a154.06,154.06,0,0,1-15.58-35.14,84.8,84.8,0,0,1,12.32.66c3.53.47,4.49,1.65,4.31,4.9C78.89,289.3,78.29,291.52,79.54,293.52Z" fill="#1a1a1a"/><path d="M59.87,227.61c-2.38,6.85-7.47,12.43-9.1,19.68-.5,2.26-2.35.88-3.68.41-5-1.78-8.86-5.86-14.16-7l0,0a2,2,0,0,0-1-2c-3.27-1.1-2.64-4.21-3.25-6.58-1.52-5.92-.45-11.85.06-17.88a66.21,66.21,0,0,0,9.52,19.41c3.63,5,7.35,5.42,12,1.29C53.23,232.18,55.54,228.55,59.87,227.61Z" fill="#d9b398"/><path d="M31.94,238.64a2,2,0,0,1,1,2A2.12,2.12,0,0,1,31.94,238.64Z" fill="#ca9e81"/><path d="M119.88,218.68c.65,6.41-.83,12.61-1.87,18.86-2.71.75-5.58,1.16-8.1,2.32-3.68,1.7-6.36,0-8.29-2.45-1.78-2.24-1-5.31.75-7.42C107,224.48,112.67,220.32,119.88,218.68Z" fill="#dcbba1"/><path d="M121.86,196.7c.56,5.37-.57,10.64-1,16-4,2.2-8,4.38-12,6.61-3.72,2.09-4.83,1.46-5-2.91-.42-8.41,4.23-14.71,13.7-18.41C119,197.4,120.44,197.11,121.86,196.7Z" fill="#dcbba1"/><path d="M100.88,268.59l6,9.27a137.65,137.65,0,0,1-21.56-5.21c3.12.18,4.06-.61,1.92-3.52-2.73-3.72-4.82-7.91-8.34-11.05-.91-.81-2.4-1.7-1.38-3.27s2.5-1,4-.38c6.9,3,13,7.11,17.48,13.28l1.93.92Z" fill="#dcbba1"/><path d="M116.93,241.68c.92,5.61,2,11.23.08,16.86-2.79-.08-5.72.78-8.34-.62-3.3-1.76-6.38-3.9-5.72-8.37s4.07-5.78,7.65-6.81A53.24,53.24,0,0,1,116.93,241.68Z" fill="#dcbba1"/><path d="M100.92,268.63,99,267.71C99.81,267.66,100.54,267.76,100.92,268.63Z" fill="#b17d59"/><path d="M105.77,354.71a1.38,1.38,0,0,1,.69-.14c.77,4.67,1.51,9.35,2.33,14,.52,3,.44,5.86-1.49,8.41L101,379.41c-.22-5.9-2-11.52-3.09-17.25.27-2.41,2.49-2.69,4-3.7S105.79,357.3,105.77,354.71Z" fill="#d9b398"/><path d="M105.77,354.71c0,2.59-2.34,2.75-3.86,3.75s-3.78,1.29-4,3.7l-2.93,0c-.14-1.12.13-2.64-.5-3.3-5-5.31-8.66-11.87-14.55-16.41l.06-2a15.62,15.62,0,0,0,6-9.17C93.19,338.6,99.39,346.73,105.77,354.71Z" fill="#ead3c3"/><path d="M74.86,124.89c1.42,3.75,4.32,6.79,5.17,10.82,3.62,12.72-3.85,21.52-11.06,30.19-3.73,4.49-16.21,5.26-22.62,2-9.41-4.76-15.45-12-15.29-22.95s5.57-19.32,15.13-23.73c7.12-3.29,15.25-2.2,22.81.53,1.42-.08,2.45-.36.9-1.87-.53-1.1-2.08-1.49-2-3,4,1.69,8.29,1.34,12.25.76,8.88-1.28,14.85,3.37,19.38,9.5,8.4,11.35,16.93,22.71,22.57,35.85a32.09,32.09,0,0,1,2.82,9.91c-8.79,1.63-16.82-.42-23.35-6.29S90.07,154.07,88.41,145.1A35.54,35.54,0,0,0,80,128.5c-1.35-1.57-2.51-3.59-5-3.74l-1-1-1-1-.6-.37.4.58c.35.32.7.64,1.06.95Z" fill="#e1c3af"/><path d="M38.9,114.8c1-6.61,6.69-10.39,9.65-15.85,1.46-2.7,4-4.83,6-7.19,1.3-1.5,2.81-2.55,4.72-1.14,2.39,1.76-.31,2.85-.87,3.94-1.65,3.22-4.38,5.75-5.92,9.12-2.43,5.33-2.17,6.43,3.15,9.22A2.53,2.53,0,0,1,57,114.78Z" fill="#dcbba1"/><path d="M69.9,119.9c1.55,1.51.52,1.79-.9,1.87A1.77,1.77,0,0,1,69.9,119.9Z" fill="#c79778"/><path d="M73.88,123.89l-1.06-1,.2-.21,1,1Z" fill="#c79778"/><path d="M72.82,122.93l-.4-.58.6.37Z" fill="#c79778"/><path d="M74.86,124.89l-1-1,.11-.11,1,1Z" fill="#c79778"/></g></g></svg>