<svg xmlns="http://www.w3.org/2000/svg" viewBox="0 0 560.72 456.79"><title>ex_8_2</title><g id="Layer_2" data-name="Layer 2"><g id="Layer_1-2" data-name="Layer 1"><path d="M522.58,441.28c1.17,2,3.17,1.46,4.92,1.47,8.16.05,16.31,0,24.46,0,4.84,0,8.78,2.8,8.76,6.17,0,4.46-3.83,7.81-9,7.81H99q-44.68,0-89.37,0c-3.45,0-7,0-8.69-3.48-1.17-2.47-1.42-5.64.6-8,2.56-3,5.88-3.89,9.87-3,5.9,1.26,11.93.26,17.9.54,2,2.32,3.19,5.49,6.83,5.87a6.87,6.87,0,0,0,5.11-1.12c2.89-2.09,6-3.87,9-5.78,1.14,1.39,2.72,1,4.18,1q79.33,0,158.69,0c1.51,0,3.53.72,4-1.81l5.9,1a105.39,105.39,0,0,0,19.1,5.86,1.57,1.57,0,0,0,2,.61l5.07.16a35,35,0,0,0,20-7.68c.91,3.22,3.58,1.8,5.43,1.81q78.24.12,156.47,0c2,0,4-.27,5.94-.42,4.6,3.67,9.91,4.23,15.52,3.64a77.31,77.31,0,0,1,23.21,1.51C491.8,450.68,507.76,449.49,522.58,441.28Z" fill="#ebece6"/><path d="M243.46,376.92c-3.52-4.09-2.61-8.08-.63-12.72,5.71-13.45,10.69-27.21,16.4-40.66,3.11-7.32,2.27-15,3.38-22.55,3-20.52,12.45-36.94,29.54-48.87,1.9-1.32,3.71-2.78,5.57-4.17,11.4,2.33,21.52,7.7,31.57,13.27-20.69,43.9-42.87,87-66.21,129.59-6.77-2.84-11.93-8.09-17.95-12.05A2.19,2.19,0,0,0,243.46,376.92Z" fill="#3c3f3e"/><path d="M245.13,378.76c6,4,11.18,9.21,17.95,12.05l5,3.32a5.33,5.33,0,0,1-.38,4.22c-5.63,9.61-11.77,19-16.36,29.1-2.42,5.31-5.83,11.82-.3,17.93,2.34,2.59-1.48,2-1.95,3.2l-5.07-.15-2-.62A105.39,105.39,0,0,1,223,442c5.84-2.95,6.72-6.32,3.11-12.18a15.36,15.36,0,0,0-2.55-3c-14.22-13.33-31.84-18.76-50.59-19.69-24.21-1.2-48.5-.87-72.75-1.21-1.47,0-3,.29-4.12-1.15a9.81,9.81,0,0,1,6.21-5.27c3.26-1.12,6.65-1.88,10-2.8,12.25,1.46,24.14-1.38,36.14-3,13-1.74,25.91-4.22,39-5.22,10.37-.8,20.27,2.84,30,6.46,4.95,1.85,9.5,4.7,14.73,5.87,1.2,3.62,4.84,4.2,7.5,4.41,2.16.17,1.31-3.64,2.37-5.45.23-.39,0-1,.19-1.47C244.27,391.92,243.37,385.14,245.13,378.76Z" fill="#d6ad8e"/><path d="M398.24,208.13c5.5-.13,9.85,2.67,13.88,5.84,16.94,13.31,34.38,25.81,54,35l-.38.14c-6-1.31-12.13-1.63-17.95-3.61-15-5.13-28.28-13.6-41.72-21.75A22.94,22.94,0,0,0,392.9,220c-9.11.32-18.26-.31-27.24,1.76-1.71.4-2.45-.13-2.68-1.86a30.35,30.35,0,0,0-1-3.79c.21-1.93-.69-3.53-1.56-5.12A102.4,102.4,0,0,0,344,189c-.09-2,.18-3.92-.5-5.87-3-8.53-4.56-17.44-6.74-26.18-.39-1.58-1.56-3.26,1.24-3.7,6.43,4,11,10.07,17.06,15.44a18.19,18.19,0,0,1,2.56-12.26,49.72,49.72,0,0,1,7.81-10.6c2.79-2.7,3.53-7.12,7.57-8.6,7.29,9.8,12.2,20.86,17,32,0,3.48,2.5,6.43,2,10-2.52,2.16-2.21,5.39-3,8.17-2.21,7.95-5.23,9.43-12.91,6.42-5.83-2.28-10.28-6.64-15.63-9.82,3.53,7.49,5.93,15.85,15.49,18.19C382.66,206.83,390.25,208.22,398.24,208.13Z" fill="#e1c3af"/><path d="M480,290.11c-1.65,20.82-3.54,41.63-4.88,62.48a551.23,551.23,0,0,0-1.23,55.29,26.82,26.82,0,0,0-5.49,5.66c-1.94,3-4.72,5.07-8.58,5-.25-1.88-1.71-1.87-3-1.71-3.65.43-4.34-1.69-3.86-4.54,1.71-10-.38-20.06-.23-30.1.15-9.36-1.08-18.75-2-28.1-1.73-17.87-1.33-35.55,3.2-53.07,1.83-7.09,5.86-13.2,8-20.11,1.82.07,2.79,1.59,4.18,2.41,3.76,2.23,6.88,5.76,11.72,5.82Z" fill="#dcbba1"/><path d="M345.2,62.28c-3.7-8.85-7.66-17.57-8.43-27.36C335.08,13.62,347.93-1.47,372.61.11,379.54.56,386.4,2,393.29,3a13.74,13.74,0,0,0,3.44.43c6.38-.8,9.22,1.7,9.37,8.24a13.92,13.92,0,0,1-3.31,9.64c-4.2-1.94-8.09-4.48-12.73-5.52-9.86-2.2-10.22-2-9.21,8a15.1,15.1,0,0,0,.36,3.46c1.15,3.33.18,5.86-2.64,7.73-3.51,2.32-4.45,5.49-3.58,9.46a40.87,40.87,0,0,1,.53,5c.15,1.52.45,3.19-1.93,3.08-1.85-.08-4.19.78-4.56-2.35-.21-1.81-.77-3.58-1-5.39-.56-4.45-3.86-5.84-7.46-5.7s-6,2.55-6.55,6.38c-.26,2-.43,3.93-.64,5.9-1,2.2-.65,4.54-.45,6.77.3,3.39-.79,4.92-4.31,4.4C347.5,62.3,346.34,62.34,345.2,62.28Z" fill="#312823"/><path d="M353.38,51.3c.21-2,.38-3.94.64-5.9.51-3.83,2.94-6.25,6.55-6.38s6.9,1.25,7.46,5.7c.23,1.81.79,3.58,1,5.39.37,3.13,2.71,2.27,4.56,2.35,2.38.11,2.08-1.56,1.93-3.08a40.87,40.87,0,0,0-.53-5c-.87-4,.07-7.14,3.58-9.46,2.82-1.87,3.79-4.4,2.64-7.73a15.1,15.1,0,0,1-.36-3.46c-1-10-.65-10.19,9.21-8,4.64,1,8.53,3.58,12.73,5.52a132.78,132.78,0,0,1,4,39.4c-.28,5.77-1.28,11.51-1.53,17.28-.2,4.8-2.77,6.35-7,6.32a9.62,9.62,0,0,0-5.3,1c-.05-1.49-1.14-1.81-2.31-2.13-5.89-1.61-11.76-3.27-17.64-4.91-2.57-8.53-3-18.37-13.57-22-.29-.1-.47-.46-.72-.67C356.93,54.14,355.81,51.91,353.38,51.3Z" fill="#e1c3af"/><path d="M112.26,396.62c-3.33.92-6.72,1.68-10,2.8a9.81,9.81,0,0,0-6.21,5.27c-3.23,2.9-6.63,5.88-5.59,10.78a51.45,51.45,0,0,1,.79,9.32c-.78,2.08-2.11,3-4.5,3.06-13.74.46-25.66,5.85-36.53,13.9-3,1.91-6.14,3.69-9,5.78a6.87,6.87,0,0,1-5.11,1.12c.47-5.25-1.44-10.75,1.1-15.76,6.51-12.87,15.22-24,28.3-30.63,7-3.54,13-7.69,18-13.78,3.88-4.75,8.69-8.85,15.57-8.74C103.59,385.25,109.45,389.74,112.26,396.62Z" fill="#d8d6e9"/><path d="M459.8,418.58c3.87,0,6.65-2,8.59-5a26.82,26.82,0,0,1,5.49-5.66,4.2,4.2,0,0,1,3.28.84c12.21,11.39,27.5,15.4,43.33,18.1,2,.35,4,.64,4.4,3.2-3.43,4.05-6.6,8.47-12.07,10-13.74,3.82-27.48,4.9-41.12-.45a29.27,29.27,0,0,0-14.61-2.15c-7.09.88-13.92,0-20-4.27.6-5.57,1.47-11.12,1.72-16.7.18-4,1.89-5.78,5.78-5.67.64,3.12.22,7,5,7.24l1.28.75Z" fill="#d8d6e9"/><path d="M303.05,240c1.71-8.76,3.26-17.56,5.22-26.26A27.73,27.73,0,0,0,308.2,203c-3-18.61-6.36-37.21-7.71-56-.92-12.77,2.57-25,9.46-36A47.76,47.76,0,0,1,320.9,98.24c1.15.56,2.26-1.35,3.64,0-6.64,6.32-8.93,14.17-8.45,23-1.74,4.49-1.77,9.28-2,13.95-.89,20,2.29,39.83,3.74,59.73.42,5.72.86,11.55-.65,17.3-2.51,9.56-4.82,19.17-7.21,28.76Z" fill="#e1c3af"/><path d="M316.09,121.28c-.48-8.85,1.81-16.7,8.45-23-1.38-1.37-2.49.54-3.64,0,5.78-8.89,12.69-16.63,22.07-21.89,5.62-.43,10.11,1.58,14.19,5.54,7.19,7,12.1,15.54,17.4,23.83,1.58,2.47,3.29,4.08,6.37,3.59,16.15,16,21.07,36.49,22.8,58.18l-.78,1.78.06-.06c-2,.12-3.8,1.58-5.92.92a11.45,11.45,0,0,0,.71-7.32,162.29,162.29,0,0,0-14.51-43.61c-2-4.12-4.42-8.8-10.3-8.92-2.07-2.78-1.65-6.93-5-9l0,0a3.25,3.25,0,0,0-2-3c-.31-.32-.63-.63-1-1a2.12,2.12,0,0,0-2-1l0,0v-1c-2.74-3.76-7.14-4.39-11.08-5.88-2.82,0-5.66-.22-8.47,0-6.09.44-12.58,1.89-16,6.77-9.67,13.78-8.12,28-.13,42.35,3,5.41,8,9.19,10.65,14.75-2.8.44-1.63,2.12-1.24,3.7,2.18,8.74,3.76,17.65,6.74,26.18.68,1.95.41,3.91.5,5.87l-3-2.77c-2.53-3.55-5.46-6.67-6.65-11.23-3.6-13.79-4.47-28.56-13.87-40.4-.87-1.1-1.07-2.76-1.58-4.16l-.78-1.16a7.19,7.19,0,0,0-.15-.91Z" fill="#ead3c3"/><path d="M380.93,109.31c-3.08.49-4.79-1.12-6.37-3.59-5.3-8.29-10.21-16.84-17.4-23.83-4.08-4-8.57-6-14.19-5.54v-2a2.73,2.73,0,0,0,.14-.9l0-.07c.23-.4.45-.8.67-1.2q.7-5,1.39-9.94c1.15.06,2.31,0,3.43.19,3.52.52,4.61-1,4.31-4.4-.2-2.23-.52-4.57.45-6.77,2.43.61,3.55,2.84,5.3,4.29.25.21.43.57.72.67,10.55,3.62,11,13.46,13.57,22,1,4.28,1.82,8.6,3,12.82,1.46,5.1,1.51,10.68,4.88,15.18Z" fill="#d9b398"/><path d="M303.05,240l6.95,1a257,257,0,0,1,26.59,12.16L357,266.43l11.93,9.5c.07,4-2.22,7.32-3.07,11.05-2.85-.25-4-2.81-5.79-4.4-6.46-5.63-13.24-10.77-21-14.51-2.41-3.5-6.38-4.77-9.78-6.85-10.05-5.57-20.17-10.94-31.57-13.27Q300.38,244,303.05,240Z" fill="#464549"/><path d="M99,379.74c-6.88-.11-11.69,4-15.57,8.74-5,6.09-11,10.24-18,13.78C52.42,408.92,43.71,420,37.2,432.89c-2.54,5-.63,10.51-1.1,15.76-3.64-.38-4.87-3.55-6.83-5.87A35,35,0,0,1,34.86,425c7.6-12.23,16.45-23.24,29.54-30.17,4.93-2.61,8.31-7,11.8-11.26a58.85,58.85,0,0,1,5.62-6.27C89.39,370.47,93.75,371.15,99,379.74Z" fill="#464549"/><path d="M437.12,433.14c6.05,4.25,12.88,5.15,20,4.27a29.27,29.27,0,0,1,14.61,2.15c13.64,5.35,27.38,4.27,41.12.45,5.47-1.52,8.64-5.94,12.07-10,3.06,4.1,2.37,7.44-2.31,11.26-14.82,8.21-30.78,9.4-46.9,6.2A77.31,77.31,0,0,0,452.47,446c-5.61.59-10.92,0-15.53-3.64C435.58,439.24,436.94,436.2,437.12,433.14Z" fill="#464549"/><path d="M480,290.11l-2.19-.94c1.28-2.24-1.81-1.71-1.94-3.07a3.7,3.7,0,0,1,1.44-3c4.86-4.45,8.54-9.88,12.58-15a4.86,4.86,0,0,1,4.18,2.23c2.28,3.6,7.49,5.41,6.85,10.82-1.7,4.07-4.92,6.83-8.22,9.53-2.08,1.71-4.23,1-6.53.58C484.11,290.87,482.24,289.39,480,290.11Z" fill="#ca9e81"/><path d="M376,202.16c-9.56-2.34-12-10.7-15.49-18.19,5.35,3.18,9.8,7.54,15.63,9.82,7.68,3,10.7,1.53,12.91-6.42.77-2.78.46-6,3-8.17.67,2.33,2.69,3.74,3.94,5.68.53,5.48-2.42,10.89-.31,16.39C389.12,203,382.5,201.85,376,202.16Z" fill="#d9b398"/><path d="M466.09,249c9.92,2.43,19.74,5.16,28.92,9.78-3.15,1.88-2.81,5.92-5.14,8.31-2.05.22-3.88-.66-5.82-1.08-6.12-1.34-11.56-5.08-18.05-5.06l-.06-2.82.81-1.08c.5-2.75-.6-5.28-1-7.91Z" fill="#ead3c3"/><path d="M380.88,106.25c-3.37-4.5-3.42-10.08-4.88-15.18-1.21-4.22-2-8.54-3-12.82,5.88,1.64,11.75,3.3,17.64,4.91,1.17.32,2.26.64,2.31,2.13C389.89,92.85,383.89,98.69,380.88,106.25Z" fill="#c79778"/><path d="M245.13,378.76c-1.76,6.38-.86,13.16-3,19.48-.16.46,0,1.08-.19,1.47-1.06,1.81-.21,5.62-2.37,5.45-2.66-.21-6.3-.79-7.5-4.41,3.82-7.93,6.82-16.26,11.4-23.83A2.19,2.19,0,0,1,245.13,378.76Z" fill="#c79778"/><path d="M489.87,267.09c2.33-2.39,2-6.43,5.14-8.31a52.26,52.26,0,0,1,9.71,10.5c2.62,3.49,1,7.66-3.81,11.86.64-5.41-4.57-7.22-6.85-10.82a4.86,4.86,0,0,0-4.18-2.23C489.88,267.76,489.88,267.43,489.87,267.09Z" fill="#d9b398"/><path d="M395.92,184.88c-1.25-1.94-3.27-3.35-3.94-5.68.48-3.56-2.07-6.51-2-10l7.13.92c2.12.66,3.92-.8,5.92-.92.26,3.55-1.68,6.22-3.65,8.82A16.75,16.75,0,0,0,395.92,184.88Z" fill="#c79778"/><path d="M376,202.16c6.55-.31,13.17.85,19.66-.89l2.63,6.86C390.25,208.22,382.66,206.83,376,202.16Z" fill="#c79778"/><path d="M403,169.27l.78-1.78C403.84,168.25,403.77,168.93,403,169.27Z" fill="#c79778"/><path d="M343.8,72.22c-.22.4-.44.8-.67,1.2C343.36,73,343.58,72.62,343.8,72.22Z" fill="#ead3c3"/><path d="M343.11,73.49a2.73,2.73,0,0,1-.14.9,5.2,5.2,0,0,1-.26-.72S343,73.55,343.11,73.49Z" fill="#ead3c3"/><path d="M91.27,424.79a51.45,51.45,0,0,0-.79-9.32c-1-4.9,2.36-7.88,5.59-10.78,1.07,1.44,2.65,1.13,4.12,1.15,24.25.34,48.54,0,72.75,1.21,18.75.93,36.37,6.36,50.59,19.69a15.36,15.36,0,0,1,2.55,3c3.61,5.86,2.73,9.23-3.11,12.18l-5.9-1c-6.36-1-12.7-2.16-19.07-3.1-17.16-2.52-34.34-4.95-51.51-7.42C128.16,427.78,109.82,425.25,91.27,424.79Z" fill="#dcbba1"/><path d="M297.05,406.65c-2.69-.17-3.5,2-4.69,3.74-6,8.46-11.86,17-17.94,25.36-1.43,2-3.52,3.44-5.31,5.15a35,35,0,0,1-20,7.68c.47-1.2,4.29-.61,1.95-3.2-5.53-6.11-2.12-12.62.3-17.93,4.59-10.09,10.73-19.49,16.36-29.1a5.33,5.33,0,0,0,.38-4.22c8.45,3.66,16.51,8.24,25.43,10.78Z" fill="#dcbba1"/><path d="M242.07,447.81l2,.62A1.59,1.59,0,0,1,242.07,447.81Z" fill="#dcbba1"/><path d="M293.54,404.91c-8.92-2.54-17-7.12-25.43-10.78l-5-3.32c23.34-42.55,45.52-85.69,66.21-129.59,3.4,2.08,7.37,3.35,9.78,6.85-1.26,26.83-8.34,52.34-17.69,77.32C313.68,366,303.91,385.58,293.54,404.91Z" fill="#2dafb7"/><path d="M465.71,249.14c.44,2.63,1.54,5.16,1,7.91l-.81,1.08L466,261c-.83,4.95-4.08,7.95-8.23,10.24l-2.9-2.1c.06-9.37-.7-11-6.2-11.86-3.56-.57-7.18-.75-10.78-1.11-7,.17-13.74-1.62-20.57-2.77-8.32-1.39-16.26-4.24-24.43-6.19l0,0c-2.93-2.68-5.39-6.13-10-6h0c-.08-2.56-1.56-3.75-4-4h0l-1-1v0c-.32-.79-.66-.7-1,0l-2-2c-2.47-3.12-5.89-3.28-9.44-3a6.74,6.74,0,0,0-6.09,4.34c-.93,2.39-.51,4.6,1.17,6.92,2.94,4.06,7.11,4.29,11.37,4.71l4.85,0-1.68,9.2a20.12,20.12,0,0,1-2.23,6.71c-8-1.69-14.22-6.48-20-12l.07.07c-.39-.71-.77-.59-1.15,0-1.33-.65-1.49-2-2.11-3.17-2.73-5.06-5.64-10-11-12.92-1.18-.64-2.58-1.43-3.73-.61-1.78,1.27.26,2.23.68,3.28q2.64,6.6,5.47,13.12c.34.77.92,1.52.47,2.29-.72,1.21-1.72.28-2.63.16a22.48,22.48,0,0,0-2.47-.09A257,257,0,0,0,310,241c2.39-9.59,4.7-19.2,7.21-28.76,1.51-5.75,1.07-11.58.65-17.3-1.45-19.9-4.63-39.69-3.74-59.73.2-4.67.23-9.46,2-13.95l1.83,7.08a3.74,3.74,0,0,0-.33.28,6.14,6.14,0,0,0,.48.63l.78,1.16c-2,3.58.1,6.59,1.45,9.65,1.76,4,4.59,7.26,5,12.14.62,7.83,2,15.62,3,23.44.63,4.88.63,10.41,5.74,13.56a4.72,4.72,0,0,0,1.25,3.65c5.06,5.13,8.34,11.52,12.24,17.46,5.41,8.22,5.28,8.3,14.5,5.8a30.35,30.35,0,0,1,1,3.79c.23,1.73,1,2.26,2.68,1.86,9-2.07,18.13-1.44,27.24-1.76A22.94,22.94,0,0,1,406,223.78c13.44,8.15,26.71,16.62,41.72,21.75C453.58,247.51,459.75,247.83,465.71,249.14Z" fill="#d6ad8e"/><path d="M368,101.29c3.35,2.06,2.93,6.21,5,9-.28,1-1.61,2,0,3q0,10,0,19.94v4c-4,1.48-4.78,5.9-7.57,8.6a49.72,49.72,0,0,0-7.81,10.6,18.19,18.19,0,0,0-2.56,12.26c-6-5.37-10.63-11.43-17.06-15.44-2.64-5.56-7.63-9.34-10.65-14.75-8-14.32-9.54-28.57.13-42.35,3.42-4.88,9.91-6.33,16-6.77,2.81-.2,5.65,0,8.47,0-.13,1.17-.56,1.69-1.93,1.48-17.79-2.71-30.42,15.47-25,31.91,3.78,11.43,17.22,18.28,29,14.94,9.7-2.75,14.94-9.63,14.94-19.6C369,112.49,369.22,106.85,368,101.29Z" fill="#d9b398"/><path d="M373,113.3c-1.6-1-.27-2,0-3,5.88.12,8.26,4.8,10.3,8.92a162.29,162.29,0,0,1,14.51,43.61,11.45,11.45,0,0,1-.71,7.32l-7.13-.92c-4.77-11.13-9.68-22.19-17-32v-4A23.46,23.46,0,0,0,373,113.3Z" fill="#d6ad8e"/><path d="M362,216.13c-9.22,2.5-9.09,2.42-14.5-5.8-3.9-5.94-7.18-12.33-12.24-17.46a4.72,4.72,0,0,1-1.25-3.65c2.43-.76,5.22-.68,7-3l3,2.77a102.4,102.4,0,0,1,16.41,22C361.27,212.6,362.17,214.2,362,216.13Z" fill="#ca9e81"/><path d="M444.62,410.77a188.59,188.59,0,0,0-6-57.48c-3.16-12-5.9-24.06-8-36.29a36,36,0,0,1,.24-11.82c.9-10.58,5.27-20.08,9.89-29.6a2.62,2.62,0,0,0-2.79.94c-7.39,7.83-12.72,16.82-15,27.41-.44,2-2.39,4.38.26,6.38A74.54,74.54,0,0,1,407.07,321l-5.43-44.74a11,11,0,0,1,6.88-3.39c4.06-.47,8-1.82,12-2.78.76-.18,1.84,0,1.86-1.14s-1-1.61-2-1.74-2.34-.07-3.47-.29c-6.72-1.29-7.76-3.91-3.94-9.84,4.72-.74,8.36,3.07,12.91,3.06.24,2.66-1.25,5.33,0,8l-.22.4.22-.4c2,.26,4,1.42,6.11.91,11.15,1,21.74,3.46,29.89,12-2.12,6.91-6.15,13-8,20.11-4.53,17.52-4.93,35.2-3.2,53.07.9,9.35,2.13,18.74,2,28.1-.15,10,1.94,20.06.23,30.1-.48,2.85.21,5,3.86,4.54,1.31-.16,2.77-.17,3,1.71l-8.92.18-1.28-.75C444.84,417.73,445.26,413.89,444.62,410.77Z" fill="#d6ad8e"/><path d="M461.9,281c-8.15-8.5-18.74-10.94-29.89-12,.62-2.83,3-2.45,5.05-2.92a21.82,21.82,0,0,1,17.81,3l2.9,2.09c3,3.86,6.7,6.88,10.43,9.9,2.38,1.93,4,5.11,7.66,5,.13,1.36,3.22.83,1.94,3.07-4.84-.05-8-3.58-11.72-5.81C464.69,282.54,463.72,281,461.9,281Z" fill="#b17d59"/><path d="M449.61,418l1.28.75Z" fill="#dcbba1"/><path d="M368,101.29c1.23,5.56,1,11.2,1,16.83,0,10-5.24,16.85-14.94,19.6-11.78,3.34-25.22-3.51-29-14.94-5.45-16.44,7.18-34.62,25-31.91,1.37.21,1.8-.31,1.93-1.48,3.94,1.49,8.34,2.12,11.08,5.88-.66.35-.8.7,0,1l0,0a2,2,0,0,0,2,1c.32.32.64.63,1,1,0,1.47-.05,3,2,3Z" fill="#e1c3af"/><path d="M341,186.22c-1.76,2.32-4.55,2.24-7,3-5.11-3.15-5.11-8.68-5.74-13.56-1-7.82-2.34-15.61-3-23.44-.38-4.88-3.21-8.15-5-12.14-1.35-3.06-3.4-6.07-1.45-9.65.51,1.4.71,3.06,1.58,4.16,9.4,11.84,10.27,26.61,13.87,40.4C335.49,179.55,338.42,182.67,341,186.22Z" fill="#c79778"/><path d="M368,101.31c-2.08-.07-2-1.57-2-3A3.25,3.25,0,0,1,368,101.31Z" fill="#d9b398"/><path d="M365,97.32a2,2,0,0,1-2-1A2.12,2.12,0,0,1,365,97.32Z" fill="#d9b398"/><path d="M363,96.32c-.8-.35-.66-.7,0-1Z" fill="#d9b398"/><path d="M318.07,129.27a6.14,6.14,0,0,1-.48-.63,3.74,3.74,0,0,1,.33-.28A7.19,7.19,0,0,1,318.07,129.27Z" fill="#c79778"/><path d="M401.64,276.22,407.07,321c1,5.19-1.75,6.8-6.45,8.1C380,334.78,359.55,341,339,347a7.29,7.29,0,0,1,1.34-4.69c5.48-9.66,10.28-19.65,14.78-29.82,3.73-8.45,6.89-17.12,10.71-25.52.85-3.73,3.14-7.06,3.07-11.05a75.26,75.26,0,0,0,4-12.88,20.12,20.12,0,0,0,2.23-6.71c6.37-.94,12.81-1.61,19.1-2.94,3-.63,3.74.73,4.5,2.83Q400.19,266.22,401.64,276.22Z" fill="#1a1a1a"/><path d="M365.86,287c-3.82,8.4-7,17.07-10.71,25.52-4.5,10.17-9.3,20.16-14.78,29.82A7.29,7.29,0,0,0,339,347c-1.7.88-2.55,2.47-3.48,4-10.74,17.91-22.13,35.4-33.61,52.83-1.13,1.72-2,4.1-4.89,2.78l-3.51-1.74c10.37-19.33,20.14-38.94,27.84-59.52,9.35-25,16.43-50.49,17.69-77.32,7.76,3.74,14.54,8.88,21,14.51C361.89,284.17,363,286.73,365.86,287Z" fill="#3c3f3e"/><path d="M336.59,253.18a22.48,22.48,0,0,1,2.47.09c.91.12,1.91,1,2.63-.16.45-.77-.13-1.52-.47-2.29q-2.82-6.52-5.47-13.12c-.42-1-2.46-2-.68-3.28,1.15-.82,2.55,0,3.73.61,5.33,2.88,8.24,7.86,11,12.92.62,1.15.78,2.52,2.11,3.17H353l-.07-.07c.37,5.38,4.24,9.84,4,15.38Z" fill="#dcbba1"/><path d="M357,266.43c.2-5.54-3.67-10-4-15.38,5.73,5.52,11.91,10.31,20,12a75.26,75.26,0,0,1-4,12.88Z" fill="#b17d59"/><path d="M475.86,286.1c-3.7.09-5.28-3.09-7.66-5-3.73-3-7.48-6-10.43-9.9,4.15-2.28,7.4-5.28,8.23-10.23,6.49,0,11.93,3.72,18.05,5.06,1.94.42,3.77,1.3,5.82,1.08,0,.34,0,.67,0,1-4,5.14-7.72,10.57-12.58,15A3.7,3.7,0,0,0,475.86,286.1Z" fill="#dcbba1"/><path d="M465.94,258.13l.81-1.08Z" fill="#dcbba1"/><path d="M423.22,310.31c-2.65-2-.7-4.35-.26-6.38,2.29-10.59,7.62-19.58,15-27.41a2.62,2.62,0,0,1,2.79-.94c-4.62,9.52-9,19-9.89,29.6C427.5,305.67,426.23,309.28,423.22,310.31Z" fill="#c79778"/><path d="M454.87,269.09a21.82,21.82,0,0,0-17.81-3c-2.06.47-4.43.09-5.05,2.92-2.16.51-4.07-.65-6.11-.91h0c-1.26-2.65.23-5.32,0-8,2.26.33,4.52.69,6.78,1,3.71.45,5.76-.89,5.22-4.94,3.6.36,7.22.54,10.78,1.11C454.17,258.11,454.93,259.72,454.87,269.09Z" fill="#ca9e81"/><path d="M372,247.1c-4.26-.42-8.43-.65-11.37-4.71-1.68-2.32-2.1-4.53-1.17-6.92a6.74,6.74,0,0,1,6.09-4.34c3.55-.28,7-.12,9.44,3C373.9,238.44,371.81,242.51,372,247.1Z" fill="#dcbba1"/><path d="M437.89,256.12c.54,4.05-1.51,5.39-5.22,4.94-2.26-.27-4.52-.63-6.78-1-4.55,0-8.19-3.8-12.91-3.06-1.48-2.69-4.63-1.72-6.72-3.06-4.17-2.82-10-2.47-13.37-6.82,8.17,2,16.11,4.8,24.43,6.19C424.15,254.5,430.89,256.29,437.89,256.12Z" fill="#c79778"/><path d="M372,247.1c-.16-4.59,1.93-8.66,3-13l2,2,1,0v0l1,1h0l1.14,2.7c-2.35,1.87-1.29,5.26-3.25,7.3Z" fill="#e1c3af"/><path d="M392.91,247.18c-4.39-.24-7.61-2.44-10-6C387.52,241.05,390,244.5,392.91,247.18Z" fill="#c79778"/><path d="M380.07,239.84l-1.14-2.7c2.4.29,3.88,1.48,4,4C381.62,241.41,381,240.35,380.07,239.84Z" fill="#c79778"/><path d="M353,251.12h-1.15C352.26,250.53,352.64,250.41,353,251.12Z" fill="#b17d59"/><path d="M378.94,237.13l-1-1Z" fill="#c79778"/><path d="M378,236.15l-1,0C377.29,235.45,377.63,235.36,378,236.15Z" fill="#c79778"/><path d="M373,113.3a23.46,23.46,0,0,1,0,19.94Q373,123.27,373,113.3Z" fill="#c79778"/><path d="M406.26,254c2.09,1.34,5.24.37,6.72,3.06-3.82,5.93-2.78,8.55,3.94,9.84,1.13.22,2.32.13,3.47.29s2,.52,2,1.74-1.1,1-1.86,1.14c-4,1-8,2.31-12,2.78a11,11,0,0,0-6.88,3.39q-1.44-10-2.9-20C401.08,254.91,404,255.62,406.26,254Z" fill="#dcbba1"/><path d="M425.9,268.08l-.22.4.22-.4Z" fill="#dcbba1"/></g></g></svg>