<svg xmlns="http://www.w3.org/2000/svg" viewBox="0 0 630.09 656.36"><title>ex_d2_7_1</title><g id="Layer_2" data-name="Layer 2"><g id="Layer_1-2" data-name="Layer 1"><path d="M395.75,598.34c10.73,2.1,24.1,11.93,24.08,22.23,0,5.62-2.83,9.55-6.72,12.7-8,6.47-17.22,10.28-27.13,13.48a185.14,185.14,0,0,1-42.68,8.15c-15.95,1.27-32,2.17-48.13.68-14.52-1.34-28.93-2.89-43.06-6.35-10.48-2.57-20.65-6.2-29.9-11.89A34,34,0,0,1,212,627.26c-3.32-4.92-2.54-11.06,1.23-15.71C219,604.48,226.6,600.4,235,597.43c.28,2.5-1.61,3.77-3,5.41-4.33,5.25-8.73,10.53-6.81,18.14-1.4,4.72,1.29,7.39,5.08,8.83a35.84,35.84,0,0,0,28-.9c4.11-1.81,5.84-5.6,5.7-10.13l-.11.11.86-1.18c.45-2.68,2.22-5,1.91-7.89.4-8.22,1.61-16.26,5-23.84,1.95,2.41,4.68,1.61,6.93,1.18,11.07-2.11,22.34-2.38,33.47-2.54,15.8-.23,31.61,1.31,47.36,2.9,3,6.9,3.69,14.29,4.49,21.65-.08,3.6-.47,7.29,2.86,9.91-1.11,4,1.27,6.79,3.92,9,6.18,5.07,24.85,5.36,31.42.71,2.67-1.88,4.75-4.09,2.73-7.69.56-6.28-.33-12.08-5.37-16.56C397.57,602.86,396,601,395.75,598.34Z" fill="#ebece6"/><path d="M382,294.38l.27,2.23a65.85,65.85,0,0,0-5.55,10c-5.7,13-7.17,26.87-8.3,40.8-1.55,19-3,38.07-3.39,57.18-10.34,2.17-20.69,1-31,.07a27,27,0,0,0-5.25-1.35c-4.91-.3-6.45-2.95-6.92-7.6-1.16-11.74-2.68-23.45-4.4-35.11-.73-5-.29-10.19-2.7-14.86-1.29-2.24.24-4.41.23-6.64-.17-25.74-.12-51.48-.13-77.22,7.35-.88,14.81-.87,22-2.74,5.12-.45,10.19-1.11,14.93-3.26,5.61,0,9.81-4,14.95-5.32,5.83,14.32,12.81,28.24,15.26,43.74Z" fill="#3d3f3e"/><path d="M314.83,261.88c0,25.74,0,51.48.13,77.22,0,2.23-1.52,4.4-.23,6.64-.2.7-.39,1.4-.59,2.1L314,349c-1.65,13.81-3.32,27.6-4.92,41.41-1.28,11.07-1.23,11.07-11.74,13.84a14.86,14.86,0,0,0-1.39.55l-12.06,1-1,.12-3.81.44-13.89-1.79c-.43-23.56-2-47.05-4.62-70.46C259.09,320.85,256,308,248,296.86c2-16.35,9.43-30.88,15.42-45.9.2-.5,1-.78,1.47-1.17,3.62,3.58,8.15,5.19,13.05,6A149.1,149.1,0,0,0,314.83,261.88Z" fill="#181818"/><path d="M344.13,39.27c6,7.47,4.56,15.77-3.56,21.95-2.93,2.23-2.42,5.94-2.67,9.08-.35,4.26-.08,8.57-.08,12.86q0,7.23,0,14.45c0,1.72,0,3.65,2.4,3.45,8.05-.64,15.89-2.06,22.62-7,2.08.37,3.83-.56,5.71-1.25,14.33-5.33,28.84-8.61,44.06-3.7,2.21.72,4.43,1.31,6.1,3.07l-2.94,4.69c-9.33,5.65-15.75,14-21.32,23.08-6,9.75-11.83,19.59-19,28.54-4.86,6.09-10.84,10.12-19.21,9.44-3.79-.31-7.64.06-11.45.12-3.33,0-6.66.07-10-.07-8.25-.36-15.47-4.75-16.64-11.8-1.94-11.68-3.56-23.6,1.65-35.06l0,0,1-1,0,0q1.13-.51,0-1c-1.46,0-2.91,0-3,2h0c-2.52-.39-2.27-2.13-1.57-3.73,1.83-4.18,4-8.21,5.72-12.46,2.22-5.62,6.62-10.35,6.83-16.78,1.17-2.68,4.62-3.74,5-7,.38-.19,1.31.43,1.05-.71l-1.05.72c-4.12,1.13-6.85,4.74-10.83,6.11a2.22,2.22,0,0,0-2.13.65l-6-.18q0-30.51-.06-61c0-2.22-.1-4.4,2.73-5.05a32.74,32.74,0,0,1,16.92,4.87c1.54.95,3.46,1.9,3.18,4-1.09,8.09,4.5,15,3.58,23.06C344.09,43,343.58,40.85,344.13,39.27Zm-19.69,69.12-.32-.82c-.28.11-.69.15-.8.35s.17.53.28.81Z" fill="#dcbaa0"/><path d="M319.87,111.12c-5.21,11.46-3.59,23.38-1.65,35.06,1.17,7,8.39,11.44,16.64,11.8,3.32.14,6.65.05,10,.07.24.22.46.57.74.64,13.58,3.05,22.7,10.41,24.22,25.08a2.16,2.16,0,0,0,2.1,2.28c-2.16,7.36-6.22,13.88-9.16,20.9-.22.47-.44,1-.67,1.42a.73.73,0,0,1-.14.71c-2-4.6-1-9.65-2.11-14.39-1.56-6.58,0-14-5-19.67-.12-2.38-1.85-2.58-3.7-3.18-10-3.23-20.27-6-29.3-11.78a47.22,47.22,0,0,1-4.73-5.72c-1.73-2.89-2.83-2-4.16.17a23.45,23.45,0,0,1-12.18,9.73c-6.82,2.5-13.57,5.18-20.46,7.44-2.84.93-3.57,2.47-3.4,5.13.24,3.95,5.46,7.58,10.63,5.91,9.58-3.09,20.1-3.86,28.3-10.64a10.83,10.83,0,0,0,6.53,4.93c3.78,1.1,7.59,2.15,11.32,3.42,6.47,2.21,12.87,4,19.16-.44.49,4.65-4.64,6.7-5.05,10.92-2.08.31-3.86-.46-5.73-1.25-4.43-1.86-8.84-4-13.47-5.07-4.89-1.15-10.31-2.31-13.71,3.42-3.55-4.37-7.24-5.39-13.61-3.2-5.3,1.82-10.3,4.85-15.72,5.87-6.45,1.21-4.62,5.62-4.48,9.11s1.13,7.1,6.28,7.27c7.41.24,13.65-3.81,20.63-4.88a10,10,0,0,0,6.92-4.25c5.11,5.43,12.47,5.51,18.88,7.76,4.51,1.57,9.33,2.33,14.05.25.56,3.25-2.47,5.11-3.08,7.91a21.41,21.41,0,0,1-10.19-1.34,51.19,51.19,0,0,0-11.87-3.26c-2.23-.34-5.37-2-6.84,1.67-3.23-2.19-6.52-2-10.28-1.21-6,1.29-11.53,5.35-17.59,4.74-4.24-.43-4.58,1.52-4.91,4-.43,3.24-.86,6.69,1.88,9.38-1.15,6.68,3.07,11.91,4.4,17.92.56-2.56.46-5.08,1-7.46a62.06,62.06,0,0,1,2.62-7.44c7.39-.65,15.29,2.26,22-3.15,4.1,3.51,9,3.52,14,3.28,2.65-.12,5.32,0,8,0,2.14,3.92,3.67,8,3,12.57-.16,1.1-.23,2.33.83,3.18q-1.94,6.18-3.88,12.35c-7.22,1.87-14.68,1.86-22,2.74a149.1,149.1,0,0,1-36.92-6.11c-2.13-8-6.7-14.85-11-21.82.44-5.28.58-10.61,1.42-15.83.72-4.5-.2-8.47-1.8-12.58-2.58-6.65-6.51-12.7-8.53-19.58,2.8-.71,2.43-3.23,2.83-5.18,1.57-7.64,5.09-13.62,12.27-17.54,3.79-2.07,8.28-2.72,11.53-5.79,3.47-.12,6.95-.31,10.43-.33,11.54-.07,17.73-6.25,17.76-17.8,0-5.31-.27-10.64.08-15.92.33-5.07-.76-9.46-4.12-13.27,3.58-.67,4.41,2.66,6.44,4.62l2.59-3.62h2Z" fill="#c69575"/><path d="M17.15,35.23C24.56,30,32.59,29.75,41,32.31c.38,1.39,3.63.51,2.46,3.12-2.36-.73-4.71-1.48-7.08-2.16A17.46,17.46,0,0,0,21.29,35.8c-1.22.81-3.2,1.9-.7,3.7C26.43,43.71,32.23,48,38.05,52.24L37.93,60c-5.22,1.34-5.46,5.21-4.47,9.37,1.06,4.41,4.61,6.71,9,6.29a3.83,3.83,0,0,0,2.51,2c1.72,3.66,5.16,4.47,8.58,4.49,2.19,0,5.38,2,6.57-1.92,2-1.11,7.88-.54,4.37-4.53-8.69-9.87-12.93-21.23-14.77-33.85.65-9.26,2.18-18.2,8.93-25.31C67.8,9.61,77.34,9.66,87.2,14.81a15.65,15.65,0,0,0,2.68,1.28c18,5.37,28.43,22.16,25.36,40.1-.68,4-4.2,6.72-4,10.9A27.61,27.61,0,0,1,97.36,85.88a22.67,22.67,0,0,0-8.31,4c-10.92,1.19-10.92,1.19-20.37-2.17-5.86,21-35.12,30.49-50.53,13.44a3.19,3.19,0,0,1,2.49-2.2c3.85-1,3.38-2.52.9-4.77-3.35-3-5.65-6.85-7.83-10.78C9.85,76.44,8.64,68.77,7.14,61.16,7.42,51.34,9.87,42.35,17.15,35.23ZM90,45.4c3,5.49,5.59,6.63,10,4.32,4.11-2.13,5.14-6.18,2.78-10.95S96.7,32.69,92.07,35C87.4,37.64,87.9,41.36,90,45.4ZM70.13,38.6c1.11-6.84,2.12-13.72,6.84-19.29,1.08-2.26-.76-4.47-3.94-3.93-3.81.65-7.58,1.7-10.62,4.56a20.79,20.79,0,0,0-5.85,11.85A44.93,44.93,0,0,0,59,54.89C63.28,66,69.87,74.7,80.57,79.8c6.53,3.11,16.85,3.92,21.7-4.33.48-.81,1.78-1.37,1.24-2.46-.68-1.35-2-.77-3.08-.47-1.28.37-2.49.93-3.77,1.26-7,1.8-14.75-1.54-17.56-7.53.9-1.1,4.34-1,1.87-3.69C74.63,55.8,72.25,47.27,70.13,38.6Z" fill="#333"/><path d="M611.75,101.37c-17.3,15.24-40.42,9.93-49.14-11.35-.89-2.17-1.45-3.19-4-1.62-5.26,3.23-11.18,2.12-16.94,1.87a19.74,19.74,0,0,0-9-4.16c-7.67-4.06-11.48-11-14-18.87-.12-1,.09-2.17-.4-2.88C507.15,48.54,521.11,17.92,540.17,16c2.65-.27,5.07-2.36,7.71-3.31,8.46-3,16.27-1.55,23.45,3.71,6.76,7.11,8.47,16,9,25.34A7.19,7.19,0,0,0,579,45.21a49.94,49.94,0,0,1-14,30.23c-.7.74-2,1.3-1.49,2.92,2.07.89,4.14,1.87,6.51,1.87.21.58.28,1.53.67,1.69,4.61,1.9,11.55-.27,15.08-4.62l1.7-1.37C592.9,76,596,73.7,597,68.2c.78-4.07-.57-7.13-4.89-8.34,0-.84,0-1.67,0-2.51.43-.49.41-.92-.16-1.29V52.27c5-3.09,9.2-7.39,14.31-10.46,1.68-1,5-1.66,4.67-3.76-.39-2.72-4.09-2.86-6.11-4.49-.44-.36-1.31-.13-1.91-.36-5.79-2.17-10.89,1.13-16.29,2,0-.61,0-1.23,0-1.85,9.74-3.76,19.11-4.13,27.67,3,6.29,7,8.39,15.51,8.38,24.69a54.56,54.56,0,0,1-11.62,30.61c-2.74,3.45-6,6.15.47,8.79C611.7,100.51,611.68,101.05,611.75,101.37Zm-72-55.86c3.14-4.92,2.54-7.91-2.12-10.59-4.86-2.67-9.69.21-11.19,6.66-.95,4.12,1,7.62,5.2,8.7S538.71,50,539.73,45.51Zm20.41-6.78c-.27.41-.72.8-.79,1.24C558,48.33,555,55.89,549.24,62.23c-1.88,2.07.44,2.76,1.4,3.87a4.62,4.62,0,0,1-2.76,4.83c-5.74,2.88-11.57,4.79-17.92,1.89-1.05-.47-2.26-1-3,.38a2.28,2.28,0,0,0,.31,2.8c2.86,2.35,5.49,5.53,9.23,6,4.88.62,9.79.46,14.4-2.38a45.78,45.78,0,0,0,13.69-13.05c6.42-9.12,9.57-18.82,9.1-30-.33-7.94-1.87-14.6-9.81-18.64-5.58-2.85-9.4-3.63-13.46-.85.61,1.55,3.42.91,3.24,3.23,3.45,4.49,5.87,9.31,5,15.23C558.41,36.91,558.59,38.18,560.14,38.73Z" fill="#333"/><path d="M406.21,170.73A109.69,109.69,0,0,0,459,179.05c20.36-1.7,38.63-9.16,55.29-20.81,2.53-1.76,3.19-3.37,1.27-6.11a102.32,102.32,0,0,1-5.23-9c-1-1.84-.6-3,1.69-2.62,17.07,2.51,34.13,5.09,51.2,7.57,3.78.54,2,2.74,1.34,4.33-4.53,11-9.06,22.09-13.83,33-2.23,5.09-3.63,10.58-7.06,15.88-2-3.45-3.89-6.34-5.51-9.36-1.35-2.53-2.63-2.95-5.45-1.6a125.93,125.93,0,0,1-40.46,11.8c-23.34,2.66-44.9-2.49-65-14.26C419.36,183.26,412,178,406.21,170.73Z" fill="#f8bf7a"/><path d="M120.93,140.91c-2.3,4.18-4.32,8.32-6.79,12.17-1.49,2.32-.92,3.38,1.1,4.78,17.4,12,36.36,19.67,57.63,21.39,16.61,1.34,32.38-1.64,47.68-7.81.93-.37,1.87-.71,2.82-1a5.92,5.92,0,0,1,1.49.16,96.86,96.86,0,0,1-25.2,19.24,103.59,103.59,0,0,1-55.58,12.9c-16.48-.83-32-5.6-46.87-12.48-2.84-1.31-4-.93-5.35,1.76-1.47,3-3.39,5.9-5.62,9.71-4.59-10.9-8.76-20.77-12.9-30.66-2.44-5.82-4.73-11.7-7.29-17.46-1.54-3.45-1.5-5.4,3-6,16.76-2.29,33.48-4.84,50.22-7.25C119.67,140.29,120.13,140.63,120.93,140.91Z" fill="#f8bf7a"/><path d="M308.82,110.13c3.36,3.81,4.45,8.2,4.12,13.27-.35,5.28-.07,10.61-.08,15.92,0,11.55-6.22,17.73-17.76,17.8-3.48,0-7,.21-10.43.32-1.48.08-3,.07-4.43.26-10.83,1.34-20-1.32-26.75-10.52-6.58-9-12.26-18.52-18.19-27.92-5.58-8.85-11.78-17.29-21.39-22.37-.14-3.15-3.19-3.23-4.95-4.66a11.7,11.7,0,0,0,2.89-.63c13.48-6.84,27.21-5.37,41.17-1.7,4.91,1.29,9.31,4.46,14.68,4,.68.68,1.24,1.69,2.05,2,11.66,4.23,23.73,7.26,35.13,12.23,1.36.59,2.26,2.1,4,2Z" fill="#dcbaa0"/><path d="M380.58,400.74c-1.95,13.73.75,27.42.34,41.17-.26,8.83,1.71,17.76,3,26.6,1.53,10.42,1.14,20.89.54,31.29-1.21,20.87-1.85,41.75-1.77,62.65,0,1,0,2-.07,3a1.74,1.74,0,0,0,0,3c.06,1,.13,2,.19,3-2.87,1.74-5.95.89-9,.76.23-10.77.17-21.53.67-32.32.64-14,1.11-28.19-.68-42.27a90,90,0,0,0-10.63-33.18c-.86-1.55-1.78-3.17-2.69-4.58-4.1-6.35-8.46-12.61-14.67-17.22l0,0-.77-1c-5.25-8.27-7.88-17.41-9.05-27.05,11-2.17,21.82-5.12,32-10Z" fill="#d6ad8f"/><path d="M279.08,406.35l3.81-.44c.38.46.69.34,1-.12l12.06-1c.41,3-.53,5.91-1.16,8.77-2.14,9.76-3.42,19.83-9.74,28.15-3.18-.17-3.2,2.95-4.69,4.53-14.57,15.41-23.07,33.87-24.16,54.86s-.64,41.89.06,62.8c.17,5.11.42,8-5.28,8.42-1.56.23-2.76-.2-3.29-1.82.65-27.1-.85-54.13-2.33-81.17-.65-11.81,1.11-23.51,3-35.16.93-5.89,1.81-11.66,1-17.77-.9-7.25.37-14.56,1.69-21.77A69.19,69.19,0,0,0,279.08,406.35Z" fill="#d6ad8f"/><path d="M518.66,67.24c2.52,7.88,6.33,14.81,14,18.87-7,2.83-12.55,8.17-19.53,11-4.41,1.81-8.53,4.6-13.08,5.75-8.49,2.15-17,4.09-25.37,6.72-1.47.46-2.89.92-4.06-.58l.06-1.94c.08-.14.16-.28.23-.42l-.21.44c-3.14.23-4.52,3.15-6.92,4.58-10.33,6.11-21.69,7.88-33.33,8.36a142,142,0,0,1-25.82-.93c1.47-7.91,6.75-13.71,11.12-20A7.75,7.75,0,0,0,420,98c11.23-5.62,22.71-8.07,35-3.35,5.4,2.08,8.61.38,9.69-4.44C480.15,76.63,499.4,71.93,518.66,67.24Z" fill="#dcbaa0"/><path d="M97.36,85.88a27.61,27.61,0,0,0,13.92-18.79c17.87,4.52,35.9,8.64,50.81,20.48,1,.83,2,1.78,2.93,2.67,1.27,5.23,5.46,5.82,9.32,4.64a41.6,41.6,0,0,1,13.24-2c8.48.12,16.63.42,23.39,6.34,1.23,1.08,2.11.23,3.13-.16,4.89,6.12,9.51,12.39,11.73,20.06a162.56,162.56,0,0,1-26.19,1c-9.1-.28-18.06-1.48-26.53-5.07-5.34-2.25-9.88-5.84-15.54-10.35l2.48,5.4c-3.17,1.44-5.37-1.4-8.14-1.87a126.19,126.19,0,0,1-46.56-17.55C102.71,89,100.61,86.49,97.36,85.88Z" fill="#dcbaa0"/><path d="M304.88,108.11c-11.4-5-23.47-8-35.13-12.23-.81-.3-1.37-1.31-2.05-2,5.87-4.91,13-7.1,20.09-9.41,3.23-1,4.44-2.59,4.34-6-.15-5.79-.09-11.57-1.25-17.28C289,55.59,288.66,49.8,288.79,44c-1.29-6.06,2.86-11.07,3.22-16.81.6-9.45,1.83-11.14,10.87-13.82a36.8,36.8,0,0,1,14.68-1.63c-2.83.65-2.73,2.83-2.73,5.05q.06,30.51.06,61c-4.7.93-8.76-.39-12.52-3.29-1.52-1.16-3-2.67-5.24-2.58l-.79-.29.33.75,4.12,5.91c3.12,10,9,18.72,12.69,28.5l1.53-.53V84.39c5.84.66,9.94-2.54,13.82-6.23-.21,6.43-4.61,11.16-6.83,16.78-1.68,4.25-3.89,8.28-5.72,12.46-.7,1.6-.95,3.34,1.57,3.73l-2.59,3.62c-2-2-2.86-5.29-6.44-4.62l0,0C308.4,107.76,307.61,106.05,304.88,108.11Z" fill="#d6ad8f"/><path d="M380.58,400.74,368,404.6h-3c.38-19.11,1.84-38.15,3.39-57.18,1.13-13.93,2.6-27.78,8.3-40.8a65.85,65.85,0,0,1,5.55-10c3,12.48,2.89,25.29,4.07,38,1.64,17.65,2.59,35.37,4.41,53,.65,6.29-1.46,9.68-7.11,11.55A20,20,0,0,0,380.58,400.74Z" fill="#32b0b8"/><path d="M248,296.86c8,11.12,11.12,24,12.6,37.24,2.6,23.41,4.19,46.9,4.62,70.46l-15.33-3.74c-8.92-2.67-11-8.36-10-17.5,2.91-27.15,4.76-54.41,7.06-81.62A39,39,0,0,1,248,296.86Z" fill="#32b0b8"/><path d="M247.65,570.46c.53,1.62,1.73,2,3.29,1.82a25.71,25.71,0,0,0,8.86-.58c2.18-.52,4.7-1,6.16,1.67-.54,2.07-.75,4.29-1.69,6.16a61.52,61.52,0,0,0-6.17,23.71c-.46,7.56,0,15.08-5.13,21.43-7.18,0-14.33-.88-21.53-.27-2.61.23-4.62-1.43-6.24-3.42-1.92-7.61,2.48-12.89,6.81-18.14,1.35-1.64,3.24-2.91,3-5.41,6.19-5.07,6.09-12.41,6.93-19.37C242.35,574.31,242.12,570.28,247.65,570.46Z" fill="#dad8eb"/><path d="M373.85,572.16c3,.13,6.1,1,9-.76,3.13-1.2,4.64-.67,5.1,3.21,1,8.38.82,17.29,7.83,23.73.27,2.63,1.82,4.52,3.69,6.17,5,4.48,5.93,10.28,5.37,16.56a5.79,5.79,0,0,1-5.26,3.27c-7.62-.5-15.2.35-22.8.26-.07-4.1-4.32-6.48-4.06-10.93.82-14.15-3.4-27.28-8.91-40.07C366.64,569.62,370.58,573.28,373.85,572.16Z" fill="#dad8eb"/><path d="M225.83,119.07C223.61,111.4,219,105.13,214.1,99c-.06-.7-.12-1.41-.19-2.12,9.61,5.08,15.81,13.52,21.39,22.37,5.93,9.4,11.61,18.94,18.19,27.92,6.75,9.2,15.92,11.86,26.75,10.52,1.46-.19,2.95-.18,4.43-.26-3.25,3.08-7.74,3.73-11.53,5.8-7.18,3.92-10.7,9.9-12.27,17.54-.4,1.95,0,4.47-2.83,5.18l-17.22-39.58c-1.52-3.5-3.06-7-5.7-9.82-3.72-3.94-8.24-6-13.81-5.23-2.89-.81-2.19-1.75-.14-2.85C224.92,126.45,226.77,123.44,225.83,119.07Z" fill="#b47e58"/><path d="M415.75,99.13c-4.37,6.3-9.65,12.1-11.12,20-1.76,4.81,1.72,7.14,4.65,9.67,1.19,1,3.26,1,3.47,3.15-14.78-.55-17.76,1.36-23.82,15.43-5.58,12.93-10.65,26.08-17,38.66a2.16,2.16,0,0,1-2.1-2.28c-1.52-14.67-10.64-22-24.22-25.08-.28-.07-.5-.42-.74-.64,3.81-.06,7.66-.43,11.45-.12,8.37.68,14.35-3.35,19.21-9.44,7.14-9,13-18.79,19-28.54,5.57-9.09,12-17.43,21.32-23.08C415.77,97.63,415.76,98.38,415.75,99.13Z" fill="#b47e58"/><path d="M354.8,175c5,5.71,3.46,13.09,5,19.67,1.12,4.74.1,9.79,2.11,14.39-1.08,8.41,1.19,16.63,1.4,25a136.83,136.83,0,0,0-11.54,21.84c-4.74,2.15-9.81,2.81-14.93,3.26q2-6.18,3.88-12.35l6.09-19c-.05-1.82.43-3.62.54-5.38.18-3,.71-6.52-2.65-8.6.61-2.8,3.64-4.66,3.08-7.91v0c.8-.34.65-.69,0-1,1.47-4.67,3.38-9.35,0-14,.41-4.22,5.54-6.27,5.05-10.92l0,0c.14-.08.39-.19.38-.24a6.71,6.71,0,0,0-.3-.68C352.7,177.35,352.94,175.8,354.8,175Z" fill="#d6ad8f"/><path d="M470.62,109.05c1.17,1.5,2.59,1,4.06.58,8.35-2.63,16.88-4.57,25.37-6.72,4.55-1.15,8.67-3.94,13.08-5.75,7-2.88,12.54-8.22,19.53-11a19.74,19.74,0,0,1,9,4.16c-15.25,14.29-32.41,25-53.37,28.86-7.18,1.34-14.48,1.42-21.61,2.94-.6-1.91-5.79-1.75-3.09-4.5S467.58,111.29,470.62,109.05Z" fill="#d6ad8f"/><path d="M97.36,85.88c3.25.61,5.35,3.12,8,4.77a126.19,126.19,0,0,0,46.56,17.55c2.77.47,5,3.31,8.14,1.87a25.07,25.07,0,0,0,3.13,3.65c3.54,2.85,5.28,5.52-.1,8.2-13.85-1.28-27.52-3.44-40.55-8.58C110,108.41,100,99.73,89.48,91.7c-.39-.29-.3-1.21-.43-1.84A22.67,22.67,0,0,1,97.36,85.88Z" fill="#d6ad8f"/><path d="M317.56,11.7a36.8,36.8,0,0,0-14.68,1.63c-9,2.68-10.27,4.37-10.87,13.82-.36,5.74-4.51,10.75-3.22,16.81l-3-2.71c0-3.66.37-7.34,0-11-2.09-23.07,22-36.06,41.58-27.78,9.25,3.91,14.93,10.8,16.65,20.79a.61.61,0,0,0,.06.88V39.27c-.55,1.58,0,3.77-2.89,4.4.92-8.09-4.67-15-3.58-23.06.28-2.14-1.64-3.09-3.18-4A32.74,32.74,0,0,0,317.56,11.7Z" fill="#333"/><path d="M163.08,121.92c5.38-2.68,3.64-5.35.1-8.2a25.07,25.07,0,0,1-3.13-3.65l-2.48-5.4c5.66,4.51,10.2,8.1,15.54,10.35,8.47,3.59,17.43,4.79,26.53,5.07a162.56,162.56,0,0,0,26.19-1c.94,4.37-.91,7.38-4.66,9.41-2,1.1-2.75,2,.14,2.85-10.52,3.22-21,1.59-31.46-.36A97.6,97.6,0,0,1,163.08,121.92Z" fill="#c69575"/><path d="M470.62,109.05c-3,2.24-4.4,5.84-7,8.52s2.49,2.59,3.09,4.5a103.44,103.44,0,0,1-49.14,10.86c-1.62-.05-3.36.2-4.79-1-.21-2.11-2.28-2.13-3.47-3.15-2.93-2.53-6.41-4.86-4.65-9.67a142,142,0,0,0,25.82.93c11.64-.48,23-2.25,33.33-8.36,2.4-1.43,3.78-4.35,6.92-4.58l0,0Z" fill="#c69575"/><path d="M7.14,61.16c1.5,7.61,2.71,15.28,6.57,22.22,2.18,3.93,4.48,7.75,7.83,10.78,2.48,2.25,2.95,3.79-.9,4.77a3.19,3.19,0,0,0-2.49,2.2c-8-6.91-12.76-15.79-15.76-25.73C1.22,71.53-.79,67.78.33,63.51,2.89,63.56,4.78,61.68,7.14,61.16Z" fill="#777"/><path d="M611.75,101.37c-.07-.32,0-.86-.23-.93-6.43-2.64-3.21-5.34-.47-8.79A54.56,54.56,0,0,0,622.67,61l6.38,2.36c.78,12.3-4.58,22.43-11.51,31.94C615.91,97.57,613.69,99.37,611.75,101.37Z" fill="#777"/><path d="M362.86,94.06c-6.73,4.94-14.57,6.36-22.62,7-2.43.2-2.4-1.73-2.4-3.45q0-7.23,0-14.45C346.77,85.42,355.32,88.56,362.86,94.06Z" fill="#d6ad8f"/><path d="M415.75,99.13c0-.75,0-1.5,0-2.26l2.94-4.69c6.39-.6,12.49-2.67,18.92-3.34,9.15-1,18.08-.15,27,1.38-1.08,4.82-4.29,6.52-9.69,4.44-12.29-4.72-23.77-2.27-35,3.35A7.75,7.75,0,0,1,415.75,99.13Z" fill="#d6ad8f"/><path d="M249.86,400.82l15.33,3.74,13.89,1.79A69.19,69.19,0,0,1,251,414.59Q250.44,407.71,249.86,400.82Z" fill="#b47e58"/><path d="M213.91,96.89c.07.71.13,1.42.19,2.12-1,.39-1.9,1.24-3.13.16-6.76-5.92-14.91-6.22-23.39-6.34a41.6,41.6,0,0,0-13.24,2c-3.86,1.18-8.05.59-9.32-4.64,14.78-2.28,29.49-3.06,43.94,2C210.72,93.66,213.77,93.74,213.91,96.89Z" fill="#d6ad8f"/><path d="M58.68,16.54c-6.75,7.11-8.28,16.05-8.93,25.31l-6.67,2.38c.11-2.94.23-5.87.34-8.8,1.17-2.61-2.08-1.73-2.46-3.12,2.27.25,3-1.18,3.74-3a24.29,24.29,0,0,1,9.39-11.68A5.54,5.54,0,0,1,58.68,16.54Z" fill="#e7e7e7"/><path d="M586.62,33.36c0,.62,0,1.24,0,1.85-.13,3,.84,6,0,9l-6.25-2.53c-.57-9.32-2.28-18.23-9-25.34,5.83.14,9.22,3.46,11.38,8.53C583.92,27.76,585.31,30.55,586.62,33.36Z" fill="#e7e7e7"/><path d="M7.14,61.16c-2.36.52-4.25,2.4-6.81,2.35-.4-10.83,2.23-20.26,11.76-26.8a7.79,7.79,0,0,1,5.06-1.48C9.87,42.35,7.42,51.34,7.14,61.16Z" fill="#e7e7e7"/><path d="M629.05,63.4,622.67,61c0-9.18-2.09-17.64-8.38-24.69,6-.8,8.66,4.2,11.13,7.75,3.65,5.24,4.49,11.86,4.67,18.32C630.1,62.74,629.41,63.07,629.05,63.4Z" fill="#e7e7e7"/><path d="M267,234c4.26,7,8.83,13.78,11,21.82-4.9-.79-9.43-2.4-13.05-6A83.75,83.75,0,0,1,267,234Z" fill="#b47e58"/><path d="M351.79,255.88A136.83,136.83,0,0,1,363.33,234c1.65,5.41.36,11.42,3.41,16.53C361.6,251.9,357.4,255.87,351.79,255.88Z" fill="#c69575"/><path d="M285.8,41.25l3,2.71c-.13,5.84.16,11.63,2.09,17.22-7.9-1.27-7.67-7.88-8.68-13.49C281.69,44.87,282.14,42,285.8,41.25Z" fill="#dcbaa0"/><path d="M382.63,568.39a1.74,1.74,0,0,1,0-3Z" fill="#dcbaa0"/><path d="M362.07,208.37c.23-.47.45-1,.67-1.42C362.52,207.42,362.3,207.9,362.07,208.37Z" fill="#d6ad8f"/><path d="M344.13,24.18a.61.61,0,0,1-.06-.88,6.34,6.34,0,0,1,.39.66A3.49,3.49,0,0,1,344.13,24.18Z" fill="#dcbaa0"/><polygon points="382.01 294.38 382 294.3 382.26 294.35 382.01 294.38" fill="#32b0b8"/><path d="M357.87,577.47c.58-2.56-.14-5.64,2.84-7.25a3.43,3.43,0,0,0,3.07,3.38c5.51,12.79,9.73,25.92,8.91,40.07-.26,4.45,4,6.83,4.06,10.93-4.62.49-7.13-2.86-10-5.52-3.33-2.62-2.94-6.31-2.86-9.91,1.78-7.54,2.16-15.12-.23-22.55C362.55,583.19,362.1,579.05,357.87,577.47Z" fill="#c5c2dc"/><path d="M269.71,569.5c3.45,1.64,1.79,4.82,2.24,7.37-8,10-8.25,21.21-5.34,33,.31,2.86-1.46,5.21-1.91,7.89l-.86,1.18.11-.11c-3.14,2.93-5.92,6.53-11,5.89,5.1-6.35,4.67-13.87,5.13-21.43a61.52,61.52,0,0,1,6.17-23.71c.94-1.87,1.15-4.09,1.69-6.16C268.82,573.64,268.5,570.83,269.71,569.5Z" fill="#c5c2dc"/><path d="M366.74,619.08c2.88,2.66,5.39,6,10,5.52,7.6.09,15.18-.76,22.8-.26a5.79,5.79,0,0,0,5.26-3.27c2,3.6-.06,5.81-2.73,7.69-6.57,4.65-25.24,4.36-31.42-.71C368,625.87,365.63,623.12,366.74,619.08Z" fill="#3d3f3e"/><path d="M253,624.67c5.06.64,7.84-3,11-5.89.14,4.53-1.59,8.32-5.7,10.13a35.84,35.84,0,0,1-28,.9c-3.79-1.44-6.48-4.11-5.08-8.83,1.62,2,3.63,3.65,6.24,3.42C238.64,623.79,245.79,624.62,253,624.67Z" fill="#3d3f3e"/><path d="M266.61,609.82c-2.91-11.74-2.68-23,5.34-33,1.56,3.09,0,6.08-.32,9.11C268.22,593.56,267,601.6,266.61,609.82Z" fill="#575656"/><path d="M357.87,577.47c4.23,1.58,4.68,5.72,5.78,9.15,2.39,7.43,2,15,.23,22.55-.8-7.36-1.48-14.75-4.49-21.65A23.94,23.94,0,0,1,357.87,577.47Z" fill="#575656"/><path d="M263.84,618.89l.86-1.18Z" fill="#3d3f3e"/><path d="M336,414.56l-2-9.9c10.35,1,20.7,2.1,31-.07h3C357.83,409.44,347,412.39,336,414.56Z" fill="#b47e58"/><path d="M283.85,405.79c-.27.46-.58.58-1,.12Z" fill="#b47e58"/><path d="M314.14,347.84a5.52,5.52,0,0,1,.12.8c0,.11-.2.21-.3.31Z" fill="#3d3f3e"/><path d="M297.13,71.89c2.21-.09,3.72,1.42,5.24,2.58,3.76,2.9,7.82,4.22,12.52,3.29l6,.18a2,2,0,0,0,2.13-.65c4-1.37,6.71-5,10.83-6.11h0c-.38,3.25-3.83,4.31-5,7-3.88,3.69-8,6.89-13.83,6.23-4.5.26-8.4-.9-11.25-4.67a3.3,3.3,0,0,0-3-1.46l-4.12-5.91C296.83,72.2,297,72.05,297.13,71.89Z" fill="#b47e58"/><path d="M319.87,111.12h-2c.08-2,1.53-2,3-2v1l0,0-1,1Z" fill="#d6ad8f"/><path d="M324.44,108.4l-.84.33c-.11-.28-.37-.64-.28-.81s.52-.24.8-.35C324.23,107.84,324.34,108.12,324.44,108.4Z" fill="#c69575"/><path d="M323,77.29a2,2,0,0,1-2.13.65A2.22,2.22,0,0,1,323,77.29Z" fill="#d6ad8f"/><path d="M333.83,71.18l1.05-.72c.26,1.14-.67.52-1.05.71Z" fill="#b47e58"/><path d="M319.84,111.14l1-1Z" fill="#c69575"/><path d="M320.85,110.15v-1Q322,109.64,320.85,110.15Z" fill="#c69575"/><path d="M347.76,190.91c3.41,4.66,1.5,9.34,0,14v1c-4.72,2.08-9.54,1.32-14.05-.25-6.41-2.25-13.77-2.33-18.88-7.76,0-3.3,0-6.61,0-9.92,3.4-5.73,8.82-4.57,13.71-3.42,4.63,1.09,9,3.21,13.47,5.07C343.9,190.45,345.68,191.22,347.76,190.91Z" fill="#dcbaa0"/><path d="M344.72,213.85c3.36,2.08,2.83,5.56,2.65,8.6-.11,1.76-.59,3.56-.54,5.38-3.67-.05-6.24,3.32-9.93,3.21-2.66,0-5.33-.15-8,0-5,.24-9.89.23-14-3.28a75.12,75.12,0,0,1,.89-16.81c1.47-3.69,4.61-2,6.84-1.67a51.19,51.19,0,0,1,11.87,3.26A21.41,21.41,0,0,0,344.72,213.85Z" fill="#dcbaa0"/><path d="M314.85,188c0,3.31,0,6.62,0,9.92a10,10,0,0,1-6.92,4.25c-7,1.07-13.22,5.12-20.63,4.88-5.15-.17-6.12-3.66-6.28-7.27s-2-7.9,4.48-9.11c5.42-1,10.42-4.05,15.72-5.87C307.61,182.62,311.3,183.64,314.85,188Z" fill="#d6ad8f"/><path d="M315.82,210.92a75.12,75.12,0,0,0-.89,16.81c-6.71,5.41-14.61,2.5-22,3.16a22.36,22.36,0,0,1-8-3c-2.74-2.69-2.31-6.14-1.88-9.38.33-2.51.67-4.46,4.91-4,6.06.61,11.57-3.45,17.59-4.74C309.3,208.91,312.59,208.73,315.82,210.92Z" fill="#d6ad8f"/><path d="M315.8,172.08c-8.2,6.78-18.72,7.55-28.3,10.64-5.17,1.67-10.39-2-10.63-5.91-.17-2.66.56-4.2,3.4-5.13,6.89-2.26,13.64-4.94,20.46-7.44a23.45,23.45,0,0,0,12.18-9.73c1.33-2.12,2.43-3.06,4.16-.17a47.22,47.22,0,0,0,4.73,5.72c-7.18,0-7.95,1-6.41,8.12A36,36,0,0,1,315.8,172.08Z" fill="#d6ad8f"/><path d="M315.8,172.08a36,36,0,0,0-.41-3.9c-1.54-7.12-.77-8.12,6.41-8.12,9,5.75,19.26,8.55,29.3,11.78,1.85.6,3.58.8,3.7,3.18-1.86.78-2.1,2.33-1.93,4.07,0,.31,0,.62-.08.92l0,0c-6.29,4.44-12.69,2.65-19.16.44-3.73-1.27-7.54-2.32-11.32-3.42A10.83,10.83,0,0,1,315.8,172.08Z" fill="#dcbaa0"/><path d="M336.9,231c3.69.11,6.26-3.26,9.93-3.21l-6.09,19c-1.06-.85-1-2.08-.83-3.18C340.57,239,339,235,336.9,231Z" fill="#b47e58"/><path d="M284.92,227.86a22.36,22.36,0,0,0,8,3,63,63,0,0,0-2.61,7.43c-.53,2.38-.43,4.9-1,7.46C288,239.77,283.77,234.54,284.92,227.86Z" fill="#b47e58"/><path d="M79.1,66.27c2.81,6,10.57,9.33,17.56,7.53,1.28-.33,2.49-.89,3.77-1.26,1.08-.3,2.4-.88,3.08.47.54,1.09-.76,1.65-1.24,2.46-4.85,8.25-15.17,7.44-21.7,4.33C69.87,74.7,63.28,66,59,54.89a44.93,44.93,0,0,1-2.46-23.1,20.79,20.79,0,0,1,5.85-11.85c3-2.86,6.81-3.91,10.62-4.56,3.18-.54,5,1.67,3.94,3.93-8.43,4.27-12,11.23-10.83,20.82-.33,6.33,1.66,12.07,4.76,17.41C72.93,61,74.64,65,79.1,66.27Z" fill="#3d3f3e"/><path d="M43.08,44.23l6.67-2.38c1.84,12.62,6.08,24,14.77,33.85,3.51,4-2.36,3.42-4.37,4.53-3.63-1.24-4.66-5.35-7.84-7.08-2.36-6.09-6-11.6-7.68-18-.88-3.42-.49-7.16-2.57-10.27Z" fill="#777"/><path d="M43.08,44.23l-1,.64c-3.09,1.5-2.71,4.89-4,7.37C32.23,48,26.43,43.71,20.59,39.5c-2.5-1.8-.52-2.89.7-3.7a17.46,17.46,0,0,1,15.05-2.53c2.37.68,4.72,1.43,7.08,2.16C43.31,38.36,43.19,41.29,43.08,44.23Z" fill="#575656"/><path d="M38.05,52.24c1.3-2.48.92-5.87,4-7.37,2.08,3.11,1.69,6.85,2.57,10.27,1.67,6.41,5.32,11.92,7.67,18-2.49,1.4-6,1.08-7.3,4.51a3.83,3.83,0,0,1-2.51-2A88.27,88.27,0,0,1,37.93,60Z" fill="#dcbaa0"/><path d="M79.1,66.27C74.64,65,72.93,61,70.9,57.54c-3.1-5.34-5.09-11.08-4.76-17.41l4-1.53c2.12,8.67,4.5,17.2,10.84,24C83.44,65.22,80,65.17,79.1,66.27Z" fill="#777"/><path d="M92.07,35c4.63-2.27,8.39-.94,10.74,3.81s1.33,8.82-2.78,10.95C95.58,52,92.94,50.89,90,45.4,92.73,42.33,89.93,38.15,92.07,35Zm10.09,7.67c-.43-3.11-1.48-6.06-5.29-6.5-3.18-.37-3.94,2.09-3.8,4.51.19,3.43,2,6.06,5.57,6.5C101.54,47.5,101.91,45.06,102.16,42.63Z" fill="#777"/><path d="M70.13,38.6l-4,1.53C64.92,30.54,68.54,23.58,77,19.31,72.25,24.88,71.24,31.76,70.13,38.6Z" fill="#e7e7e7"/><path d="M37.93,60a88.27,88.27,0,0,0,4.56,15.66c-4.42.42-8-1.88-9-6.29C32.47,65.23,32.71,61.36,37.93,60Z" fill="#777"/><path d="M45,77.66c1.25-3.43,4.81-3.11,7.3-4.51,3.19,1.73,4.22,5.84,7.85,7.08-1.19,3.89-4.38,1.93-6.57,1.92C50.16,82.13,46.72,81.32,45,77.66Z" fill="#c69575"/><path d="M92.07,35c-2.14,3.19.66,7.37-2.08,10.44C87.9,41.36,87.4,37.64,92.07,35Z" fill="#e7e7e7"/><path d="M553.64,20.33c.18-2.32-2.63-1.68-3.24-3.23,4.06-2.78,7.88-2,13.46.85,7.94,4,9.48,10.7,9.81,18.64.47,11.16-2.68,20.86-9.1,30a45.78,45.78,0,0,1-13.69,13.05c-4.61,2.84-9.52,3-14.4,2.38-3.74-.47-6.37-3.65-9.23-6a2.28,2.28,0,0,1-.31-2.8c.76-1.43,2-.85,3-.38,6.35,2.9,12.18,1,17.92-1.89a4.62,4.62,0,0,0,2.76-4.83c1.17.08,2.32.1,3.18-.89,6.26-7.28,10.34-15.46,10.52-25.26A22.4,22.4,0,0,0,562.28,28C560.56,24.32,558.4,20.76,553.64,20.33Z" fill="#3d3f3e"/><path d="M580.37,41.72l6.25,2.53,0-.08c.55,10.42-3.74,19.33-8.76,28-2.54,2.77-3.85,6.73-7.88,8-2.37,0-4.44-1-6.51-1.87-.54-1.62.79-2.18,1.49-2.92a49.94,49.94,0,0,0,14-30.23A7.19,7.19,0,0,1,580.37,41.72Z" fill="#777"/><path d="M586.62,44.25c.85-3-.12-6,0-9,5.4-.88,10.5-4.18,16.29-2,.6.23,1.47,0,1.91.36,2,1.63,5.72,1.77,6.11,4.49.31,2.1-3,2.75-4.67,3.76C601.16,44.88,597,49.18,592,52.27c-1-3.21-1.24-7-5.38-8.1Z" fill="#575656"/><path d="M586.58,44.17c4.14,1.14,4.36,4.89,5.38,8.1,0,1.27,0,2.53,0,3.79,0,.43.11.86.16,1.29,0,.84,0,1.67,0,2.51a56.09,56.09,0,0,1-4.73,16.07l-1.7,1.37-7.87-5.12C582.84,63.5,587.13,54.59,586.58,44.17Z" fill="#dcbaa0"/><path d="M564.34,40c-.18,9.8-4.26,18-10.52,25.26-.86,1-2,1-3.18.89-1-1.11-3.28-1.8-1.4-3.87C555,55.89,558,48.33,559.35,40c.07-.44.52-.83.79-1.24Z" fill="#777"/><path d="M564.34,40l-4.2-1.22c-1.55-.55-1.73-1.82-1.52-3.17.89-5.92-1.53-10.74-5-15.23,4.76.43,6.92,4,8.64,7.68A22.4,22.4,0,0,1,564.34,40Z" fill="#e7e7e7"/><path d="M587.39,75.93a56.09,56.09,0,0,0,4.73-16.07c4.32,1.21,5.67,4.27,4.89,8.34C596,73.7,592.9,76,587.39,75.93Z" fill="#777"/><path d="M539.73,45.51c-1,4.45-4,5.82-8.11,4.77s-6.15-4.58-5.2-8.7c1.5-6.45,6.33-9.33,11.19-6.66,0,1.47,1.82,2.73.54,4.36-.29-.15-.71-.23-.85-.47-1.77-3.18-4.34-3.82-6.86-1.35-2.25,2.2-4.23,5.21-1.64,8.35s4.93.78,7.08-1.12a4.33,4.33,0,0,1,1.36-.52C538.48,43.87,539,44.94,539.73,45.51Z" fill="#777"/><path d="M577.82,72.18l7.87,5.12c-3.53,4.35-10.47,6.52-15.08,4.62-.39-.16-.46-1.11-.67-1.69C574,78.91,575.28,75,577.82,72.18Z" fill="#c69575"/><path d="M538.15,39.28c1.28-1.63-.5-2.89-.54-4.36,4.66,2.68,5.26,5.67,2.12,10.59-.76-.57-1.25-1.64-2.49-1.34C537.63,42.56,538.57,41.05,538.15,39.28Z" fill="#e7e7e7"/><path d="M592.13,57.35c0-.43-.11-.86-.16-1.29C592.54,56.43,592.56,56.86,592.13,57.35Z" fill="#777"/><path d="M304.88,108.11c2.73-2.06,3.52-.35,4,2C307.14,110.21,306.24,108.7,304.88,108.11Z" fill="#c69575"/><path d="M363.78,573.6a3.43,3.43,0,0,1-3.07-3.38c-1.11-10.52-2.18-21-3.36-31.54-.58-5.08-1.81-10.13-2-15.22-.36-9.59-5.71-17.55-8.07-26.49-3.68-13.93-2.65-28-2-42,.2-4.13.39-8.26.53-12.39,6.21,4.61,10.57,10.87,14.67,17.22.91,1.41,1.83,3,2.69,4.58a90,90,0,0,1,10.63,33.18c1.79,14.08,1.32,28.23.68,42.27-.5,10.79-.44,21.55-.67,32.32C370.58,573.28,366.64,569.62,363.78,573.6Z" fill="#dcbaa0"/><path d="M345.83,442.57l-.77-1Z" fill="#dcbaa0"/><path d="M269.71,569.5c-1.21,1.33-.89,4.14-3.75,3.87-1.46-2.69-4-2.19-6.16-1.67a25.71,25.71,0,0,1-8.86.58c5.7-.41,5.45-3.31,5.28-8.42-.7-20.91-1.14-41.91-.06-62.8s9.59-39.45,24.16-54.86c1.49-1.58,1.51-4.7,4.69-4.53-1.42,5.76-.35,11.59.23,17.24,1.89,18.39.07,36-7.55,53.07-3.29,7.35-3.15,15.57-4.35,23.39C271.61,546.67,270.87,558.12,269.71,569.5Z" fill="#dcbaa0"/><path d="M470.7,107.13l.21-.44c-.07.14-.15.28-.23.42Z" fill="#c69575"/><path d="M300.79,78.26a3.3,3.3,0,0,1,3,1.46c2.85,3.77,6.75,4.93,11.25,4.67q0,10.92,0,21.84l-1.53.53C309.82,97,303.91,88.31,300.79,78.26Z" fill="#c69575"/><path d="M296.67,72.35l-.33-.75.79.29C297,72.05,296.83,72.2,296.67,72.35Z" fill="#b47e58"/><path d="M347.79,206v-1C348.44,205.27,348.59,205.62,347.79,206Z" fill="#c69575"/><path d="M352.79,180c0-.3.06-.61.08-.92a6.71,6.71,0,0,1,.3.68S352.93,179.93,352.79,180Z" fill="#c69575"/><path d="M102.16,42.63c-.25,2.43-.62,4.87-3.52,4.51-3.56-.44-5.38-3.07-5.57-6.5-.14-2.42.62-4.88,3.8-4.51C100.68,36.57,101.73,39.52,102.16,42.63Z" fill="#333"/><path d="M538.15,39.28c.42,1.77-.52,3.28-.91,4.89a4.33,4.33,0,0,0-1.36.52c-2.15,1.9-4.42,4.35-7.08,1.12s-.61-6.15,1.64-8.35c2.52-2.47,5.09-1.83,6.86,1.35C537.44,39.05,537.86,39.13,538.15,39.28Z" fill="#333"/></g></g></svg>