<svg xmlns="http://www.w3.org/2000/svg" viewBox="0 0 450.32 587.7"><title>ex_d2_6_2</title><g id="Layer_2" data-name="Layer 2"><g id="Layer_1-2" data-name="Layer 1"><path d="M274.7,93.42q.53,6,1.06,12c-3.3-.55-4.48,2.11-5.44,4.2-3.88,8.38-10.74,13.81-18.23,18.44-3.87,2.39-8.26,2.6-11.66-1.49-1.77-2.11-3.44-4.31-5.16-6.46l-1.56,1.29c1,11.35,2.72,22.57,7.36,33.55a83.3,83.3,0,0,1,15.2-14.26c7.07-5.26,14.85-9.6,20.69-16.39,2.55,2.11,3.28,5.31,4.76,8.06,4.85,9,8.22,18.75,12.75,28,8.36,17.09,6.18,34.78-.07,52.11s-11.49,35.23-16.52,53.07c-.71,2.49.85,5.39-1.47,7.53-.83-.76-.74-1.78-.76-2.77-.31-17.68,1.82-34.89,8.63-51.43,3.08-7.51,4.84-15.51,6.64-24.59-1.45,1.61-2.12,2.32-2.75,3.06-10.11,11.87-21.88,11.56-33.75,5.84-10.9-5.24-15.63-16.2-16.67-28.27-.28-3.15-.05-6.34-.05-9.51-5.6,10.23-10.59,20.56-18.17,29.07-7.86,8.81-15,19.83-29.9,15.71.87-7.8,4.86-14.33,8.84-20.74,4.52-7.27,9.7-14.13,14.43-21.28,2.4-3.64,7.18-4.75,9-8.89a11.39,11.39,0,0,0,6.87-4.85c5.88-2.11,6.54-4.35,3-10q-1.56-9.45-3.13-18.89c-1-9.28-2.5-18.53-2.22-28a31.13,31.13,0,0,0-2.73,6.79C220,118,211.2,125.09,197,125.45a5.48,5.48,0,0,0-4.33,2.1c-2.47-6.12-2.24-12.67-2.61-19-.88-15.12,0-30.17,3.79-44.94,6.11-3.19,12-6.91,19.28-7,3-.06,3.57.69,3.62,3.52.12,6-2.29,12.7,3.93,17.46.53.41.33,1.88.34,2.86,0,3-.2,6,.09,9,.22,2.18-1.83,5.69,3,5.81s3.14-3.32,3.22-5.58c.36-10.44.42-20.89.86-31.32.34-8.37,4.19-14.5,12.36-17.44,16.14,1.68,32,3.77,45.13,15,6.48,5.54,13.92,10,20.93,14.87l1.1.9a6.2,6.2,0,0,0,.87.24c2.13,3,5.42,4.79,8.18,7.14,4.24,3.89,9.05,5,14.88,4.53a64.36,64.36,0,0,1,18.2.77c-2,2.91,1.35,6.44-1.09,9.29-9,1.24-18,1.76-27.05,0A48.36,48.36,0,0,1,316,91.56Q285.92,77,255.91,62.24c-.95-.46-2-1.06-2.63,0s.4,1.89,1.2,2.43C264.88,71.67,270.09,82.33,274.7,93.42Z" fill="#e1c4af"/><path d="M189.63,210.16c14.86,4.12,22-6.9,29.9-15.71,7.58-8.51,12.57-18.84,18.17-29.07,0,3.17-.23,6.36.05,9.51,1,12.07,5.77,23,16.67,28.27,11.87,5.72,23.64,6,33.75-5.84.63-.74,1.3-1.45,2.75-3.06-1.8,9.08-3.56,17.08-6.64,24.59-6.81,16.54-8.94,33.75-8.63,51.43,0,1-.07,2,.76,2.77a11,11,0,0,1-.36,5.17c-.11.31-.23.63-.35.94a315.89,315.89,0,0,0-1.09,36.92c-12.36-2-24.64-1-36.9.93-1.11-1.18-2.1-1.21-2.92.31l.08-.12c-1.51-.36-3.3.57-4.69-1.05,2.91-4.48,4.17-9.92,9-13.17,1.56-1.05,4-3.76,2.68-5.11-1.66-1.65-4.94-1.28-7.4.16a9.36,9.36,0,0,0-1.12,1l-11.63,9.12c-7.94,4.47-15.82,9.13-25.51,8-2.83-6.28.08-12.7-.47-19,2.33.43,4.12,1.95,6.11,3.05,4.66,2.57,12.36.52,14.87-4,2.16-3.86.85-8.45-3.24-9.92-5.42-2-11-3.46-16.51-5.16l-.42-2.72c1.35-1.5,2.46-.11,3.46.43,3.72,2,7.86,2.47,11.88,3.22,2.23.42,5.17.66,6.28-1.7a7.83,7.83,0,0,0-.35-8,31.32,31.32,0,0,0-23.14-13.17l-.09-1.69a1.92,1.92,0,0,0-.81-2.29c-.11-.73-.22-1.45-.32-2.17a52.34,52.34,0,0,1,18.9,9.14c2.6,1.91,3.95-.46,4.18-2.24.57-4.43.67-8.94-3-12.48a45.37,45.37,0,0,0-21.47-11.28c-.17-1.08-.41-2.16.56-3,10.64,1.45,19.15,6.63,26,14.73,3.32,3.91,5.23,3.59,7.13-1.22a24,24,0,0,0,1-3.33c2.59-11.58,5.56-23.09,7.55-34.77.82-4.78,2.18-9.67,1.74-14.76-3.38,6.91-8.27,12.65-12.53,18.77-8,11.55-19.14,15.92-30.55,12.65C189.64,220.68,189.2,215.51,189.63,210.16Z" fill="#d6ad8e"/><path d="M376,112.37c5.27,0,10.07-.13,14.86,0,2.69.1,3.75-.76,4.06-3.54a121.8,121.8,0,0,0-5.4-52.53c-7.69-23-21.75-41.49-41-56.35a59.11,59.11,0,0,1,17.64,5.54C402.7,22.47,424.51,51,432.46,90.26c1.22,6,2.32,12.08,2.16,18.25-.08,3.08,1.24,4.15,4.18,4,2.65-.15,5.32-.07,8,0,1.11,0,2.55-.52,3.24.57.93,1.46-.54,2.41-1.31,3.41q-11.18,14.32-22.39,28.62c-3.68,4.7-7.45,9.34-11,14.11-1.32,1.76-2.26,2.18-3.75.25q-17.32-22.45-34.7-44.89A11.85,11.85,0,0,1,376,112.37Z" fill="#f8be7a"/><path d="M283.55,385c-.64,2-1.29,4-1.93,6.05-2.52,7.43-8,11.92-14.87,15.08a66.27,66.27,0,0,1-26.06,5.81c-22.74.59-45.5.66-68.1-2.74-5-.78-10-1.71-15-2.29-4.32-.5-7.36-2.15-7.91-6.85-1.68-8.11-3.67-16.16-4.44-24.43,18.77,1,37.31,4.1,56,5.93,9.9,1,19.72,3.36,29.77,2.33,9.1-.93,13.27-5.48,13.9-14.47.76-10.83-.36-21.57-1.08-32.33,3.93-.08,7.38,1.7,10.95,2.92,16.06,5.52,29.72,20.11,28,39.27C282.61,381.12,282,383.23,283.55,385Z" fill="#3d3f3e"/><path d="M145.22,375.59c.77,8.27,2.76,16.32,4.44,24.43-11.25-2.85-22.5-5.75-34.56-7.07.81,2.48,1.28,4.25,2,5.93,7.57,18.46,9.55,37.23,4.67,56.85-3.51,14.12-6.7,28.37-8.36,42.87-.91,8-1.69,16.12-2.52,24.19a8.68,8.68,0,0,1-1.93-5.5c-.39-9.52-.83-19-1-28.58-.36-19.59,1-39.27-4-58.56-2.65-10.24-6.18-20.07-12.39-28.72-1.9-2.65-4.16-6.26-7.52-5.88s-3.3,4.82-4.67,7.54-.57,6.47-4.27,7.84c-.08-10-3.69-19.49-4.72-29.38-1.24-12,.22-23.14,8.36-32.66,2.16,1.68,2.16,3.64,1.45,6.18C79,359.14,82,362,84.24,364.72s4.46.72,6.6-.5a4.26,4.26,0,0,1,1-.18c16.78-4.46,33.55-.75,50.32.06,1.83.09,1.49,2,2.32,2.9C144.71,369.86,145,372.73,145.22,375.59Z" fill="#d6ad8e"/><path d="M346.82,569.69c3.66,0,7.32-.1,11,.07,5.12.23,7.81,3.42,7.8,9,0,5.32-2.93,8.66-7.91,8.95-1.16.07-2.32,0-3.49,0H6.84c-6.83,0-6.83,0-6.84-6.6,0-11.35,0-11.34,11.55-11.37,4,0,8-.09,12-.14a38,38,0,0,0,17.9,8.12C55,580.26,68.6,581.5,82.17,577c7.79-2.6,15.81.1,23.73-.1,5.22-.13,9.87-1.27,12.68-6.22,3.16-1.46,6.53-.78,9.81-1a10.28,10.28,0,0,1,.07,2c-.65,4,.58,5.64,5,5.28,5.45-.46,11-.17,16.46-.2h28l146.84-.11c4.82.06,9.64.16,14.45.18C346.31,576.87,346.31,576.85,346.82,569.69Z" fill="#ebebe6"/><path d="M75.05,410.93c3.7-1.37,2.93-5.19,4.27-7.84S80.61,396,84,395.55s5.62,3.23,7.52,5.88c6.21,8.65,9.74,18.48,12.39,28.72,5,19.29,3.65,39,4,58.56.18,9.53.62,19.06,1,28.58a8.68,8.68,0,0,0,1.93,5.5q-.16,7.92-.31,15.85c-2,2.75-1.65,6.91-5.17,8.7-4.77,2.42-16.83,0-20.39-4.06-2.07-2.36-4-4.88-5.92-7.33,1.1-3.22.73-6.58.82-9.88.72-23.89-1.12-47.72-2.14-71.57C77.12,440,76,425.45,75.05,410.93Z" fill="#ddbba1"/><path d="M324.71,576.66l-146.84.11h-28a216.15,216.15,0,0,0-.17-22.91l72-.11,31.12-.08,65.51.12c2.15,0,4.29.1,6.44.16Q324.78,565.29,324.71,576.66Z" fill="#a6a6a8"/><path d="M301.9,429c.14,4.8.51,9.61.36,14.4-.21,6.68-3.66,9.8-10.47,9.87q-19.41.17-38.81.27c-10.47-.5-20.94-.41-31.42-.06-12.94-.07-25.89-.08-38.84-.24-6.48-.08-9.87-3.42-9.94-9.8-.07-5.13.18-10.27.3-15.41,4.67-4.22,10.31-4.23,16.2-4.2q49.56.21,99.14,0C293.81,423.76,298.57,424.2,301.9,429Z" fill="#515152"/><path d="M221.56,453.46c10.48-.35,20.95-.44,31.42.06-.08,16.93-.2,33.87-.22,50.81,0,16.44.07,32.89.11,49.33l-31.12.08q.06-43.17.12-86.33C221.87,462.76,221.67,458.11,221.56,453.46Z" fill="#bdbcbd"/><path d="M237.71,317c12.26-1.89,24.54-2.9,36.9-.93,3.22,3,2.72,7.32,3.86,11.05-10.58-2.43-21.16-1.67-31.81-.34-3.33.42-4.12,1.95-4.25,4.67-1-.79-.22-3.32-1.85-3-3.82.7-8.25-.14-11.09,3.62-7.07-1.49-13.21,1.91-19.69,3.61,6.58-.23,13.19,1.63,19.65-.57,0,7.15.23,14.31.06,21.45-.18,7.58-4.62,11.24-12.15,10.07Q181.1,361,144.91,355.16c-.35-6.45,1.9-12.41,3.48-18.5,3.89-1.34,7.9-.53,11.85-.58,10-.14,20-.05,30-.05,6.48,0,6.44,0,5.85-6.29-.14-1.55-1-3.32.82-4.56a43,43,0,0,0,15.94-2.47,158,158,0,0,0,22.05-5.51l-.08.12Z" fill="#3d3f3e"/><path d="M301.9,429c-3.33-4.78-8.09-5.22-13.48-5.19q-49.58.25-99.14,0c-5.89,0-11.53,0-16.2,4.2l-.49-18.85c22.6,3.4,45.36,3.33,68.1,2.74a66.27,66.27,0,0,0,26.06-5.81c6.91-3.16,12.35-7.65,14.87-15.08,3.56,1.2,7.22.37,10.84.57,6,.33,9.56,3.22,9.71,9.12C302.4,410.12,302.82,419.56,301.9,429Z" fill="#79787a"/><path d="M79.06,536c2,2.45,3.85,5,5.92,7.33,3.56,4.09,15.62,6.48,20.39,4.06,3.52-1.79,3.19-6,5.17-8.7,3.91,1.24,4.84,4.48,5.25,8,.64,5.53,1.16,11.08,1.74,16.62-6.79,4.75-14.48,5.18-22.33,4.48a29.09,29.09,0,0,0-14.08,2.13c-10.76,4.49-21.91,4.44-33.28,3.18-9.93-1.1-18.15-4.81-23.92-13.2,1.07-2.74,3.64-3.43,6-3.84,9.8-1.69,19.45-3.66,28.52-8,4.8-2.33,9.49-4.65,13.28-8.47C73.78,537.44,75.83,535.49,79.06,536Z" fill="#d9d6e9"/><path d="M148.39,336.66c-1.58,6.09-3.83,12-3.48,18.5L144.46,367c-.83-.92-.49-2.81-2.32-2.9-16.77-.81-33.54-4.52-50.32-.06a4.26,4.26,0,0,0-1,.18c-2.14,1.22-4.42,3.2-6.6.5s-5.23-5.58-4.1-9.65c.71-2.54.71-4.5-1.45-6.18a27.45,27.45,0,0,1,19-11.58C114.5,334.82,131.47,335.87,148.39,336.66Z" fill="#ddbba1"/><path d="M321.62,93.5c9,1.75,18,1.23,27.05,0l-.06,30c-.28.44-.56.88-.83,1.32a2.75,2.75,0,0,1-.87-.44c-5.13.43-10.26.88-15.09,2.9-4.71-1-9.38-2.22-14.14-2.79a7.2,7.2,0,0,1-6.53-5.12c-2.33-6-6.66-11.14-7.62-17.74,1.53-.4,2.86.4,4.28.66C313.08,103.26,320.63,98.4,321.62,93.5Z" fill="#ddbba1"/><path d="M240.47,40.78c-8.17,2.94-12,9.07-12.36,17.44-.44,10.43-.5,20.88-.86,31.32-.08,2.26,1.54,5.7-3.22,5.58s-2.74-3.63-3-5.81c-.29-3,0-6-.09-9,0-1,.19-2.45-.34-2.86-6.22-4.76-3.81-11.44-3.93-17.46-.05-2.83-.66-3.58-3.62-3.52-7.32.14-13.17,3.86-19.28,7-4.86-7.46-5.14-14-.65-18.6,1.69-1.74,3-3.07,6.21-1.23,4,2.27,8.65-.37,13-.78C221.74,42.1,231,39.42,240.47,40.78Z" fill="#333232"/><path d="M367.9,171.78c-3.21,3.77-7.11,5.2-12.21,5-10.28-.39-20.59-.37-30.87,0-5.26.19-9.8-.61-13.57-4.41-.2-1.46.82-1.59,1.85-1.62,2.32,0,4.66-.21,7,0,3.08.24,4.51-.57,4.27-4.07-.33-4.8,0-9.64-.12-14.46-.05-2.23.49-3.32,3-3.26,9.13.21,18.26.25,27.39.35,0,5.65.16,11.31-.06,16.95-.14,3.35,1.17,4.21,4.34,4.25C361.91,170.52,365.25,169.1,367.9,171.78Z" fill="#333232"/><path d="M321.62,93.5c-1,4.9-8.54,9.76-13.81,8.78-1.42-.26-2.75-1.06-4.28-.66l.06-.06-1-1,0,0c-1-1.74-2.62-1-4.06-1.07-8.23-.89-15.82-4.3-23.82-6.12-4.61-11.09-9.82-21.75-20.22-28.79-.8-.54-1.82-1.42-1.2-2.43s1.68-.42,2.63,0q30,14.7,60.09,29.32A48.36,48.36,0,0,0,321.62,93.5Z" fill="#d6ad8e"/><path d="M349.76,84.2a64.36,64.36,0,0,0-18.2-.77c-5.83.49-10.64-.64-14.88-4.53.78-.23,1.61-.77,2.33-.64,4.64.81,5.69-1.32,5.34-5.55-.36-4.46-.11-9-.05-13.45,0-1.18-.46-2.71,1.81-2.68,9.49.1,19,.07,28.48.09,0,5.77.19,11.54,0,17.3-.13,3.38.89,4.68,4.43,4.59,2.84-.08,5.91-1.13,8.58.87-3.92,6-10.15,4.75-15.88,5Z" fill="#333232"/><path d="M242.41,331.46c.13-2.72.92-4.25,4.25-4.67,10.65-1.33,21.23-2.09,31.81.34,5.72,17.26,9.18,34.78,6.26,53.05-.26,1.61-.78,3.19-1.18,4.78-1.51-1.73-.94-3.84-.77-5.72,1.7-19.16-12-33.75-28-39.27-3.57-1.22-7-3-10.95-2.92l0,0-.81-.94C242.78,334.53,242.59,333,242.41,331.46Z" fill="#1b1b1c"/><path d="M193,225.22c11.41,3.27,22.52-1.1,30.55-12.65,4.26-6.12,9.15-11.86,12.53-18.77.44,5.09-.92,10-1.74,14.76-2,11.68-5,23.19-7.55,34.77a24,24,0,0,1-1,3.33c-1.9,4.81-3.81,5.13-7.13,1.22-6.86-8.1-15.37-13.28-26-14.73Z" fill="#ddbba1"/><path d="M277,124.3c-5.84,6.79-13.62,11.13-20.69,16.39A83.3,83.3,0,0,0,241.07,155c-4.64-11-6.32-22.2-7.36-33.55l1.56-1.29c1.72,2.15,3.39,4.35,5.16,6.46,3.4,4.09,7.79,3.88,11.66,1.49,7.49-4.63,14.35-10.06,18.23-18.44,1-2.09,2.14-4.75,5.44-4.2C277.23,111.64,276.91,118,277,124.3Z" fill="#ddbba1"/><path d="M23.92,559.83c5.77,8.39,14,12.1,23.92,13.2,11.37,1.26,22.52,1.31,33.28-3.18a29.09,29.09,0,0,1,14.08-2.13c7.85.7,15.54.27,22.33-4.48.23,1.5.47,3,.7,4.51.06.54.12,1.08.19,1.62s.11.85.16,1.28c-2.81,5-7.46,6.09-12.68,6.22-7.92.2-15.94-2.5-23.73.1-13.57,4.53-27.15,3.29-40.75.72a38,38,0,0,1-17.9-8.12C22.45,566.27,20.4,562.94,23.92,559.83Z" fill="#3d3f3e"/><path d="M354.64,149.28c-9.13-.1-18.26-.14-27.39-.35-2.53-.06-3.07,1-3,3.26.12,4.82-.21,9.66.12,14.46.24,3.5-1.19,4.31-4.27,4.07-2.32-.18-4.66,0-7,0-1,0-2.05.16-1.85,1.62-2.25-3-2.4-22.48,0-24.94,3-3.13,6.21-5.76,11.14-5.1,3.08.41,6.27,0,9.4,0,4.48,1.89,9.15.57,13.73.78,1.83.09,1.67-1.69,1.71-3,.12-3.64.22-7.28.34-10.92.08,1.81.23,3.62.24,5.43,0,8.73,0,8.9,9,8.67,4.81-.13,8.84.54,10.87,5.53Z" fill="#ebebe6"/><path d="M354.59,56.67c-9.5,0-19,0-28.48-.09-2.27,0-1.79,1.5-1.81,2.68-.06,4.48-.31,9,.05,13.45.35,4.23-.7,6.36-5.34,5.55-.72-.13-1.55.41-2.33.64-2.76-2.35-6.05-4.09-8.18-7.14,2.37-3.65.89-7.7,1.12-11.55.29-4.67,4.5-9.61,9.12-9.64,13.74-.12,27.48-.16,41.22,0,3.53,0,6.63,1.65,7.69,5.58Z" fill="#ebebe6"/><path d="M324.71,576.66q.06-11.37.11-22.72c6.16-.06,12.32,0,18.47-.21,2.78-.11,3.35,1,3.3,3.51-.09,4.15.13,8.3.23,12.45-.51,7.16-.51,7.18-7.66,7.15C334.35,576.82,329.53,576.72,324.71,576.66Z" fill="#515152"/><path d="M194.69,259.19a31.32,31.32,0,0,1,23.14,13.17,7.83,7.83,0,0,1,.35,8c-1.11,2.36-4.05,2.12-6.28,1.7-4-.75-8.16-1.2-11.88-3.22-1-.54-2.11-1.93-3.46-.43C193.59,272.23,192.6,265.86,194.69,259.19Z" fill="#ddbba1"/><path d="M192.63,127.55a5.48,5.48,0,0,1,4.33-2.1c14.24-.36,23-7.49,26.73-21.18a31.13,31.13,0,0,1,2.73-6.79c-.28,9.48,1.23,18.73,2.22,28-4.88,1.55-10,2.39-14.39,5.32-4.8-.11-9.28,2.16-14.17,1.71-2.64-.25-4.91-.61-6.3-3.1l-.91-1A4.13,4.13,0,0,1,192.63,127.55Z" fill="#d6ad8e"/><path d="M192.06,236.18a45.37,45.37,0,0,1,21.47,11.28c3.69,3.54,3.59,8,3,12.48-.23,1.78-1.58,4.15-4.18,2.24a52.34,52.34,0,0,0-18.9-9.14C191.2,247.57,191.45,241.89,192.06,236.18Z" fill="#ddbba1"/><path d="M214.25,130.81c4.37-2.93,9.51-3.77,14.39-5.32q1.58,9.45,3.13,18.89a32.47,32.47,0,0,0-3,10,11.39,11.39,0,0,1-6.87,4.85c0-2.13-.22-4.28,0-6.4.37-4.43-.34-8.2-3.82-11.55C215.28,138.63,215.22,134.43,214.25,130.81Z" fill="#c69676"/><path d="M197,281.13c5.51,1.7,11.09,3.21,16.51,5.16,4.09,1.47,5.4,6.06,3.24,9.92-2.51,4.49-10.21,6.54-14.87,4-2-1.1-3.78-2.62-6.11-3.05A32.44,32.44,0,0,1,197,281.13Z" fill="#ddbba1"/><path d="M354.59,56.67l13.06-.48c2.14.81,1.47,2.68,1.52,4.22.14,4.93.2,9.87.3,14.8-.68.52-.71,1.06,0,1.61-.37,1.05-.46,2.29-1.86,2.61-2.67-2-5.74-1-8.58-.87-3.54.09-4.56-1.21-4.43-4.59C354.78,68.21,354.6,62.44,354.59,56.67Z" fill="#515152"/><path d="M354.64,149.28l13-.44a2.29,2.29,0,0,1,1.53,2.28c0,6.41,0,12.83-.1,19.24,0,.48-.76.95-1.17,1.42-2.65-2.68-6-1.26-9-1.3-3.17,0-4.48-.9-4.34-4.25C354.8,160.59,354.64,154.93,354.64,149.28Z" fill="#515152"/><path d="M349.76,84.2l1.94.28c3.95,2.44,5.17,6,5,10.56-.22,6.47-.2,13,0,19.43.11,3.53-1.07,6.09-4.13,7.8-.81.1-1.62.19-1.93,1.12l-2,.1.06-30C351.11,90.64,347.77,87.11,349.76,84.2Z" fill="#d6ad8e"/><path d="M347.53,129.21c-.12,3.64-.22,7.28-.34,10.92,0,1.32.12,3.1-1.71,3-4.58-.21-9.25,1.11-13.73-.78l.07-15.09c4.83-2,10-2.47,15.09-2.9.21.74.42,1.49.62,2.24Z" fill="#333232"/><path d="M212.82,322.71a43,43,0,0,1-15.94,2.47l-.66-9c9.69,1.09,17.57-3.57,25.51-8C219,313.15,213.83,316.65,212.82,322.71Z" fill="#c69676"/><path d="M298.52,99.54c1.44,0,3.07-.67,4.06,1.07C301.15,100.56,299.64,100.78,298.52,99.54Z" fill="#ddbba1"/><path d="M350.64,123.39c.31-.93,1.12-1,1.93-1.12C352.24,123.2,351.49,123.38,350.64,123.39Z" fill="#ebebe6"/><path d="M193.79,255.21a1.92,1.92,0,0,1,.81,2.29A2.32,2.32,0,0,1,193.79,255.21Z" fill="#ddbba1"/><path d="M347.53,126.61c-.2-.75-.41-1.5-.62-2.24a2.75,2.75,0,0,0,.87.44C347.7,125.41,347.61,126,347.53,126.61Z" fill="#ebebe6"/><path d="M302.55,100.58l1,1Z" fill="#ddbba1"/><path d="M192.87,128.38l.91,1Z" fill="#e1c4af"/><path d="M369.44,76.82c-.68-.55-.65-1.09,0-1.61Z" fill="#ebebe6"/><path d="M307.63,71.52l-1.1-.9Z" fill="#ebebe6"/><path d="M275.7,279.16c.12-.31.24-.63.35-.94C275.93,278.53,275.82,278.85,275.7,279.16Z" fill="#e1c4af"/><path d="M228.79,154.4a32.47,32.47,0,0,1,3-10C235.33,150.05,234.67,152.29,228.79,154.4Z" fill="#d6ad8e"/><path d="M212.82,322.71c1-6.06,6.21-9.56,8.91-14.58L233.36,299a9.36,9.36,0,0,1,1.12-1c2.46-1.44,5.74-1.81,7.4-.16,1.35,1.35-1.12,4.06-2.68,5.11-4.85,3.25-6.11,8.69-9,13.17,1.39,1.62,3.18.69,4.69,1.05A158,158,0,0,1,212.82,322.71Z" fill="#ddbba1"/><path d="M237.71,317l-2.92.31C235.61,315.8,236.6,315.83,237.71,317Z" fill="#ddbba1"/><path d="M242.41,331.46c.18,1.54.37,3.07.55,4.61-.07.6.25.88.81.94l0,0c.72,10.76,1.84,21.5,1.08,32.33-.63,9-4.8,13.54-13.9,14.47-10.05,1-19.87-1.37-29.77-2.33-18.69-1.83-37.23-4.93-56-5.93-.26-2.86-.51-5.73-.76-8.59l.45-11.84q36.21,5.74,72.43,11.46c7.53,1.17,12-2.49,12.15-10.07.17-7.14,0-14.3-.06-21.45,0-1,0-2,0-3,2.84-3.76,7.27-2.92,11.09-3.62C242.19,328.14,241.37,330.67,242.41,331.46Z" fill="#2dafb6"/><path d="M128.39,569.69c0-4,.25-8,.06-12-.14-2.92.6-4.19,3.83-4,5.81.27,11.63.13,17.45.15a216.15,216.15,0,0,1,.17,22.91c-5.49,0-11-.26-16.46.2-4.4.36-5.63-1.31-5-5.28A10.28,10.28,0,0,0,128.39,569.69Z" fill="#515152"/><path d="M229.47,332.06c0,1,0,2,0,3-6.46,2.2-13.07.34-19.65.57C216.26,334,222.4,330.57,229.47,332.06Z" fill="#1b1b1c"/><path d="M243.77,337c-.56-.06-.88-.34-.81-.94Z" fill="#3d3f3e"/><path d="M118.23,567.75a1.2,1.2,0,0,1,.19,1.62C118.35,568.83,118.29,568.29,118.23,567.75Z" fill="#ebebe6"/></g></g></svg>