<svg xmlns="http://www.w3.org/2000/svg" viewBox="0 0 283.88 635.21"><title>ex_d2_3_1</title><g id="Layer_2" data-name="Layer 2"><g id="Layer_1-2" data-name="Layer 1"><path d="M181.28,258.74c-2.44-5.32-.42-10.66-.07-16,4.07.39,8.12,1.5,12.24.9,3.5-.51,6.87-1.66,7.44-5.8.64-4.58-1.1-7.45-6.07-8.41-4.32-.84-8.49-2.46-12.73-3.74-.11-.91-.23-1.83-.34-2.74.9-1.38,1.75-.75,2.88-.16,3.51,1.82,7.09,3.41,11.26,3,2.41-.26,5.46.59,6.65-2.07,1.32-2.93-.14-5.64-2.18-8.11-5.42-6.57-13.25-8.76-20.69-11.72-1.14-1.2-.65-2.72-.78-4.12a37.18,37.18,0,0,1,15.53,6.19c1.35.9,2.27,3.57,4.46,2.05,1.69-1.17,2-3.28,2.1-5.36a9.83,9.83,0,0,0-2.75-7.77c-5.9-5.59-12.24-10.68-20.94-11.14.2-1,.4-2,.59-3,14.16,2.77,24.45,11.39,32.61,22.55,4.88,6.67,11.26,6.79,18.14,6.28,2.26-.17,3.43-1.4,2.39-4.13-4.15-10.94-9.81-20.91-18.19-29.18-2.55-2.51-5.55-4-9.41-3.4-8.08,1.24-16.1,3.43-24.41,1.93-2-4-4-8.1-4-12.66,0-2.89-1.25-3.92-3.74-4.88-15.49-6-31.23-10.22-48-10.73-17.65-.54-34.44-6.3-51.52-10.24-6.76-1.56-13.31-4.11-20.34-4.46q.07-4.47.14-9c10.93,2.52,21.83,5.2,32.8,7.54,13,2.77,26.09,6.6,39.48,6.23,11.88-.33,22.7,3.84,34,5.93,7.33,1.35,14.2,5.28,21.49,7.52a119.84,119.84,0,0,0,39.5,5.72c.94,0,2.16.36,2.64-.81s-.82-1.64-1.2-2.48c-2-4.26-6.37-7.34-6.2-12.64,3,.71,4.85,3.29,7.36,4.81,4,2.43,7.52,5.9,12.6,6.15,1.24.47,2.46,1,3.72,1.4,16,5,28.2,3.39,37.21-12.36.72-1.26,1-2.9,2.87-3.13a25,25,0,0,1-6.9,18.52c-8.85,9.1-19.76,12.28-32.19,9.26a22.22,22.22,0,0,0-7.37-.56c-13.72,1.23-27.42,2.17-41-1.48-3.2-.87-6.45-1.51-9.68-2.25,5.51,5.6,12.67,6.78,19.63,8.62,9.23,2.43,18.73,1.89,28.08,2.71,6.63.59,12.78,3.1,19.44,3.33s13-1,20.13-3.52c-8.79,20.61-15.3,41-28.72,59.47,7.76-2.14,6.89,2.26,6.73,6.14a49.35,49.35,0,0,1-.63,6.4c-.67,3.9-.89,7.92.6,11.78l-16,.28c-.38-.46-.69-.37-.95.11L214,258c1.57-4.74,4.66-8.54,7.57-12.47,1-1.34,3.78-2.22,2.5-4.19-.93-1.44-3.42-.47-5.21-.55-1.47-.06-2.35,1-3.38,1.86-3.82,3.06-7.69,6.06-11.53,9.08C196.89,255.58,189.68,259.08,181.28,258.74Z" fill="#d6ad8f"/><path d="M257.08,266.57c12.51,18.64,17.15,38.78,11.72,60.87L264,342.26c-.38,1.25-1.1,2.5-1.07,3.74.16,8.55-1.79,17-1,25.57l0,13c-.25,3.78-1.1,7.64-.61,11.32.75,5.63-2,8.18-6.62,9.92-1.07.41-2.07,1-3.1,1.47l-7.6,2.36c-4-.2-7.77,1.61-11.78,1-.43-5-.9-9.9-1.29-14.86-1.61-20.17-3.46-40.33-4.7-60.53-1.28-20.85-2.89-41.71-3.1-62.62.86-.69.87-1.35-.07-2l-.27-3a31.59,31.59,0,0,1,3.25-1.06c10.18-2.23,20.46-1.3,30.73-.91l0,.15A.45.45,0,0,0,257.08,266.57Z" fill="#1c1c1c"/><path d="M214,139.88c-.17,5.3,4.23,8.38,6.2,12.64.38.84,1.69,1.34,1.2,2.48s-1.7.78-2.64.81a119.84,119.84,0,0,1-39.5-5.72c-7.29-2.24-14.16-6.17-21.49-7.52-11.26-2.09-22.08-6.26-34-5.93-13.39.37-26.43-3.46-39.48-6.23-11-2.34-21.87-5-32.8-7.54,0-.69,0-1.38,0-2.06a4.25,4.25,0,0,0,0-4.81c0-1.07,0-2.13,0-3.19.77-.6.77-1.2,0-1.81.05-2.23-1.75-2.87-3.22-3.85-2.68-1.77-5.88-2.71-8.13-5.16,3.37-2.17,6.6.22,9.31,1.14,20.57,7,41.76,4.6,62.76,4.76,13.16.1,25.55,3.5,37.89,7.43-.23,9.56,13.84,23.94,23.46,22.89-2.7-5.44-7.95-9.31-8-16.37,0-3.76,2-6.37,2.42-9.64a111.36,111.36,0,0,1,33.9-.49c3.82.56,7.62-.33,9.15-4.81,3.34,2.74,7.81,2.53,12.05-.58,8.09-5.93,9.75-16.58,17-23.14,6.66-1.08,7.92-.44,11.37,5.84,1,1.75,1.87,3.51,2.74,5.3,2.47,5.08,1.9,6.75-3.29,8.5-6.88,2.33-13.91,4.28-20.13,8.22-1.95,1.24-4.16.91-6.29.91-5.38,0-10.76,0-16.14,0v.84L229.88,115a86.82,86.82,0,0,0-9.76,8.22C215.16,127.85,211.19,132.53,214,139.88Z" fill="#e0c3af"/><path d="M153.93,291c-30.37-.49-56.58-10.73-77.52-33-12.15-12.88-20.36-28.19-26.08-44.84-.91-2.63-1.7-3.4-4.52-2.62-3.28.9-7.85,3.83-9.74,1.56-2.18-2.61,1.67-6.49,3-9.71,5.3-12.9,11.06-25.6,16.38-38.49,1.42-3.43,2.61-3.41,5.28-1.35,13,10.06,26.08,20,39.12,30,.88.67,2.31,1.21,1.91,2.61-.35,1.25-1.76,1.31-2.87,1.61-1.76.47-3.51,1-5.27,1.5-8,2.13-8,2.12-6.26,10.35,6.16,29.51,20.82,53.55,45.9,70.78A160.05,160.05,0,0,0,153.93,291Z" fill="#f9bf7a"/><path d="M223.11,272.65c.21,20.91,1.82,41.77,3.1,62.62,1.24,20.2,3.09,40.36,4.7,60.53.39,5,.86,9.91,1.29,14.86-1.51.88-3.19.71-4.83.8l-21.72,1.26c-4-1.16-8.28.51-12.28-1,5.37.76,5.95-1.92,5.35-6.53a277.29,277.29,0,0,1-1.95-29.81c-.72-35.89,1.65-71.38,13.88-105.57,4-.91,7.91-2.37,12.12-2.13l.27,3C223.07,271.34,223.09,272,223.11,272.65Z" fill="#31afb6"/><path d="M255.06,568.33q-.17,7.92-.32,15.84c-1.77,3.27-1.4,8-6.48,9-10.65,2.1-17.44-1.16-22.64-11a559.4,559.4,0,0,0-1.48-66.65c-.55-6.44-.6-12.92-.94-19.38-.58-11.25-1.14-22.5-2.34-33.71,1.08.35,2.19,3.6,3.18-.31a60.05,60.05,0,0,1,3.65-9.14c.69-1.59,1.62-3.29,3.65-1.53,2.23,1.94,4.81,3.76,6.35,6.2a89.23,89.23,0,0,1,14.07,47.15c.26,18.72.4,37.45,1.16,56.16C253,563.5,253.33,566.14,255.06,568.33Z" fill="#ddbba1"/><path d="M255.06,568.33c-1.73-2.19-2-4.83-2.14-7.43-.76-18.71-.9-37.44-1.16-56.16a89.23,89.23,0,0,0-14.07-47.15c-1.54-2.44-4.12-4.26-6.35-6.2-2-1.76-3-.06-3.65,1.53a60.05,60.05,0,0,0-3.65,9.14c-1,3.91-2.1.66-3.18.31-3.74-8.43-8.5-16.45-10.3-25.66-.87-4.44-.34-8.91-.47-13.37,9-1.1,17-5.23,25.18-8.7,3-1.29,6.95-1.4,8.71-5l7.6-2.36c.24,5.48-.82,10.9-.52,16.42.41,7.64,3,14.41,6.29,21.22,10.8,22.21,13.11,45.23,6.41,69.25a244.64,244.64,0,0,0-7.9,46.06c-1,.62-1,1.28-.09,2C255.66,564.25,256.21,566.39,255.06,568.33Z" fill="#d6ad8f"/><path d="M229.88,115l-21.59-2.19V112c5.38,0,10.76,0,16.14,0,2.13,0,4.34.33,6.29-.91,6.22-3.94,13.25-5.89,20.13-8.22,5.19-1.75,5.76-3.42,3.29-8.5-.87-1.79-1.78-3.55-2.74-5.3C248,82.74,246.69,82.1,240,83.18c-2.43-5.69-2.71-11.79-3.5-17.79-.43-3.24-.5-6.89-5.44-2.88-1.91,1.55-5.26,1.84-8.15,1.46.18-1.51-.55-3.6,1.84-3.91,6.94-.9,10.18-5.76,12.66-11.51A12,12,0,0,1,239,55.21c0,7.19.05,7.19,7,7,.69,3.07,1.26,6.17,2.1,9.2,1.75,6.34,3.76,12.21,8.5,17.52C267.87,101.6,277,115.82,281,132.79a60.61,60.61,0,0,1-2.49,35.67q-9.21,24.73-20.32,48.68c-3.29,7.12-2.23,14.65-3.08,22-.64,5.58-.39,11.26-.54,16.89l-8.67-.85c-1.49-3.86-1.27-7.88-.6-11.78a49.35,49.35,0,0,0,.63-6.4c.16-3.88,1-8.28-6.73-6.14,13.42-18.49,19.93-38.86,28.72-59.47-7.12,2.48-13.47,3.75-20.13,3.52s-12.81-2.74-19.44-3.33c-9.35-.82-18.85-.28-28.08-2.71-7-1.84-14.12-3-19.63-8.62,3.23.74,6.48,1.38,9.68,2.25,13.54,3.65,27.24,2.71,41,1.48a22.22,22.22,0,0,1,7.37.56c12.43,3,23.34-.16,32.19-9.26a25,25,0,0,0,6.9-18.52c-1.21-3.17-.1-6.79-1.91-9.85,0-1.76-.95-3.11-1.91-4.45-7.67-10.79-18.74-12.51-30.71-11C238.67,112,234.31,113.76,229.88,115Z" fill="#c69778"/><path d="M245.93,62.2c-6.93.2-7,.2-7-7a12,12,0,0,0-1.52-6.66c.8-3.82-.12-7-3.7-8.93-3-1.59-5.83-.72-8.31,1.38-2.12,1.82-1.93,4.53-2.27,6.91-.43,2.93-.85,5.22-4.73,4.62-4.29-.66-1.61-3.47-1.82-5.36-.39-3.45,2.35-7.51-1.33-10.25-4.38-3.27-6.05-7-4.37-12.37.63-2,.58-4.27.93-6.4.41-2.53-.26-3.35-3.13-3.33-7.28.06-13.38,3.43-19.71,6.25-3.64-4.77-4.72-9.94-1.53-15.25,1.43-2.37,2.89-4.29,7.09-2.92,3.71,1.2,8.42-.64,12.68-1.18C212.34,1.07,217.37,0,222.56,0c22.95.11,36.21,16.29,31.87,39A74.56,74.56,0,0,1,245.93,62.2Z" fill="#312823"/><path d="M189,21.07c6.33-2.82,12.43-6.19,19.71-6.25,2.87,0,3.54.8,3.13,3.33-.35,2.13-.3,4.37-.93,6.4-1.68,5.32,0,9.1,4.37,12.37,3.68,2.74.94,6.8,1.33,10.25.21,1.89-2.47,4.7,1.82,5.36,3.88.6,4.3-1.69,4.73-4.62.34-2.38.15-5.09,2.27-6.91,2.48-2.1,5.31-3,8.31-1.38,3.58,1.9,4.5,5.11,3.7,8.93-2.48,5.75-5.72,10.61-12.66,11.51-2.39.31-1.66,2.4-1.84,3.91q-2,6.94-4,13.88L198.51,84c-10.82-.11-11.57.74-12.56-12.34-.83-11.05-1.26-22-.13-33.11C186.43,32.6,188.23,26.94,189,21.07Z" fill="#e0c3af"/><path d="M210.65,269.83c-12.23,34.19-14.6,69.68-13.88,105.57a277.29,277.29,0,0,0,1.95,29.81c.6,4.61,0,7.29-5.35,6.53C191,409.27,191.6,406,191,403c-1.19-6.13-2.09-12.32-3.11-18.48.27-4.5-1.52-8.69-2-13.08.09-3.29-.92-6.44-1.17-9.71-.5-6.43-1.81-12.79-2.78-19.18.33-4.73-.69-9.35-1.12-14-.53-13.82-1.36-27.63-.91-41.47.06-1.8.21-3.61.32-5.41.73-.35.71-.71,0-1.08,0-.65,0-1.3.07-1.94,1-1,.76-2.17.35-3.33a.49.49,0,0,1,.11-.7,44.26,44.26,0,0,0,10.87-.86C198,272.23,204.34,271.12,210.65,269.83Z" fill="#1c1c1c"/><path d="M225.62,582.11c5.2,9.88,12,13.14,22.64,11,5.08-1,4.71-5.71,6.48-9C261,588,259.63,594.33,260,600.1c.46,2.42,1.3,4.78.87,7.3-6.24,5.48-13.82,5-21.29,4.53a24.41,24.41,0,0,0-11.21,1.56c-10.07,4.27-20.55,4.77-31.27,3.52-9.39-1.1-17.84-3.84-23.26-12.36.08-.83.15-1.66.22-2.49l.92,0a1.83,1.83,0,0,0,2.1-1.85c13.16-1.58,26.21-3.59,37.44-11.42C218.05,586.35,220.49,582,225.62,582.11Z" fill="#d8d6e9"/><path d="M174,602.16c-.07.83-.14,1.66-.22,2.49-1.18.08-1.64.73-1.83,1.9-.81,5,1.47,8.3,5.84,10.36,14.5,6.85,29.74,8.21,45.22,5,6.42-1.32,12.64-2.47,19.17-1.84a52.56,52.56,0,0,0,8.94.38c7.43-.6,13.37-2.69,9.69-13.07.43-2.52-.41-4.88-.87-7.3a38.21,38.21,0,0,1,17.73,8.15c5.66,4.62,3.39,12.75-2.56,15.92-10.67,5.69-22.19,8.58-34.08,9.85a180.27,180.27,0,0,1-52.4-1.56c-9-1.67-17.37-4-25-8.72-2.81-1.71-5.68-3.89-5.7-8.14,0-3.65.78-6.15,4.11-8.26C165.79,604.93,169.37,602.44,174,602.16Z" fill="#eaebe5"/><path d="M179,174.8c8.31,1.5,16.33-.69,24.41-1.93,3.86-.6,6.86.89,9.41,3.4,8.38,8.27,14,18.24,18.19,29.18,1,2.73-.13,4-2.39,4.13-6.88.51-13.26.39-18.14-6.28-8.16-11.16-18.45-19.78-32.61-22.55C178.2,178.76,177.29,176.53,179,174.8Z" fill="#e0c3af"/><path d="M51.44,120.81c0,.68,0,1.37,0,2.06q-.06,4.48-.14,9c1,5.67-2,8.59-6.79,10.89A170.8,170.8,0,0,0,29,151.62c-2.21,1.35-4,1.6-6.36.17-6.51-4-13.11-7.79-19.8-11.43C.62,139.13,0,137.64.05,135.22c.14-7.46.22-14.93,0-22.39-.11-3,1.07-4.48,3.46-5.81,6.38-3.53,12.74-7.12,18.94-10.94,2.51-1.54,4.42-1.33,6.81.13C32.71,98.35,36,100.9,40.09,102c2.25,2.45,5.45,3.39,8.13,5.16,1.47,1,3.27,1.62,3.22,3.85,0,.6,0,1.2,0,1.81,0,1.06,0,2.12,0,3.19ZM25.34,144.9c11.94,0,21.72-9.15,21.76-20.41,0-12.1-9.25-21.08-21.14-21.75C12,102,4.23,114.91,4.28,123.83,4.35,136.11,14.67,145.87,25.34,144.9Z" fill="#343434"/><path d="M210.65,269.83c-6.31,1.29-12.67,2.4-18.92,3.94a44.26,44.26,0,0,1-10.87.86c-.3-2.43-.54-4.86-.92-7.28-.27-1.68.51-2.43,2-2.73a51.48,51.48,0,0,0,16-2.88L214,258l14.91-2.39.49.07.46-.18,16-.28,8.67.85c.74,3.24,1.47,6.48,2.21,9.71-10.27-.39-20.55-1.32-30.73.91a31.59,31.59,0,0,0-3.25,1.06C218.56,267.46,214.65,268.92,210.65,269.83Z" fill="#444448"/><path d="M218.92,77.85q2-6.93,4-13.88c2.89.38,6.24.09,8.15-1.46,4.94-4,5-.36,5.44,2.88.79,6,1.07,12.1,3.5,17.79-7.24,6.56-8.9,17.21-17,23.14-4.24,3.11-8.71,3.32-12.05.58,0-.33,0-.66,0-1,.57-.57,1.48-1.06,1.65-1.72C214.77,95.42,216.83,86.63,218.92,77.85Z" fill="#d6ad8f"/><path d="M261.94,371.57c-.77-8.56,1.18-17,1-25.57,0-1.24.69-2.49,1.07-3.74.49,0,1,.08,1.49.09,12.75.23,12.75.23,12.4-12.66,4.06,2.51,6.09,5.85,5.94,10.92q-.48,15.6,0,31.22c.16,4.9-1.27,8.6-5,11.54-1.53-2.59-.94-5.45-.89-8.19s-.9-3.87-3.71-3.74C270.15,371.61,266,371.54,261.94,371.57Z" fill="#343434"/><path d="M180.91,328.56c.43,4.66,1.45,9.28,1.12,14-2.66,0-5.33.11-8,0-2.28-.12-3.27.53-3.21,3,.22,8.63.24,17.26.34,25.89-.18,3.69-.35,7.38-.53,11.07-3.58-1.26-5.64-3.66-5.64-7.58,0-11.62-.09-23.24,0-34.86.07-7.11,4.74-11.48,11.88-11.49Z" fill="#e5e4e4"/><path d="M179.67,203.87c7.44,3,15.27,5.15,20.69,11.72,2,2.47,3.5,5.18,2.18,8.11-1.19,2.66-4.24,1.81-6.65,2.07-4.17.44-7.75-1.15-11.26-3-1.13-.59-2-1.22-2.88.16C178.32,216.89,178.52,210.44,179.67,203.87Z" fill="#ddbba1"/><path d="M177.29,183.72c8.7.46,15,5.55,20.94,11.14a9.83,9.83,0,0,1,2.75,7.77c-.13,2.08-.41,4.19-2.1,5.36-2.19,1.52-3.11-1.15-4.46-2.05a37.18,37.18,0,0,0-15.53-6.19C176.74,194.57,176.59,189.19,177.29,183.72Z" fill="#ddbba1"/><path d="M167.93,112.2c-.42,3.27-2.45,5.88-2.42,9.64.05,7.06,5.3,10.93,8,16.37-9.62,1-23.69-13.33-23.46-22.89Z" fill="#ddbba1"/><path d="M182.09,225.7c4.24,1.28,8.41,2.9,12.73,3.74,5,1,6.71,3.83,6.07,8.41-.57,4.14-3.94,5.29-7.44,5.8-4.12.6-8.17-.51-12.24-.9C180.7,237,180.08,231.3,182.09,225.7Z" fill="#ddbba1"/><path d="M218.92,77.85c-2.09,8.78-4.15,17.57-6.31,26.34-.17.66-1.08,1.15-1.65,1.72-3.17-7.86-9.38-14-12.45-21.92Z" fill="#c69778"/><path d="M244,409.62c-1.76,3.62-5.67,3.73-8.71,5-8.18,3.47-16.17,7.6-25.18,8.7-.21-4.07-3.33-6.93-4.44-10.62l21.72-1.26c1.64-.09,3.32.08,4.83-.8C236.21,411.23,240,409.42,244,409.62Z" fill="#b27f59"/><path d="M261.94,371.57c4.1,0,8.21,0,12.3-.13,2.81-.13,3.75,1,3.71,3.74s-.64,5.6.89,8.19c-5.49,2.53-11.3.56-16.93,1.18Z" fill="#545353"/><path d="M170.65,382.52c.18-3.69.35-7.38.53-11.07H186c.43,4.39,2.22,8.58,2,13.08H174.29C172.71,384.54,170.91,384.91,170.65,382.52Z" fill="#545353"/><path d="M277.92,329.69c.35,12.89.35,12.89-12.4,12.66-.5,0-1-.06-1.49-.09l4.77-14.82C271.33,330.25,275.38,326.92,277.92,329.69Z" fill="#e5e4e4"/><path d="M198,261.74a51.48,51.48,0,0,1-16,2.88c-.22-2-.45-3.92-.66-5.88,8.4.34,15.61-3.16,22.7-7.06C203,255.67,198.47,257.5,198,261.74Z" fill="#c69778"/><path d="M177,600.26a1.83,1.83,0,0,1-2.1,1.85C175,600.82,175.68,600.14,177,600.26Z" fill="#eaebe5"/><path d="M180.75,275.33c.41,1.16.64,2.31-.35,3.33A3.58,3.58,0,0,1,180.75,275.33Z" fill="#545353"/><path d="M255.77,562.2c-.92-.71-.87-1.37.09-2Z" fill="#ddbba1"/><path d="M180.33,280.6c.7.37.72.73,0,1.08C180.32,281.32,180.32,281,180.33,280.6Z" fill="#545353"/><path d="M257.08,266.57a.45.45,0,0,1-.29-.69l.35.26Z" fill="#444448"/><path d="M275.8,126.9c1.81,3.06.7,6.68,1.91,9.85-1.84.23-2.15,1.87-2.87,3.13-9,15.75-21.24,17.41-37.21,12.36-1.26-.4-2.48-.93-3.72-1.4-1-2-2-4.11-3.09-6.09-3.39-6-2.26-16,2-21.35,6.5-8.26,15.4-8.23,24.36-7.13,6.54.8,13.15,2.37,16,9.69C273.58,127.05,274.83,126.82,275.8,126.9Z" fill="#e0c3af"/><path d="M275.8,126.9c-1-.08-2.22.15-2.64-.94-2.88-7.32-9.49-8.89-16-9.69-9-1.1-17.86-1.13-24.36,7.13-4.21,5.37-5.34,15.35-2,21.35,1.12,2,2.07,4.06,3.09,6.09-5.08-.25-8.59-3.72-12.6-6.15-2.51-1.52-4.33-4.1-7.36-4.81-2.76-7.35,1.21-12,6.17-16.67a86.82,86.82,0,0,1,9.76-8.22c4.43-1.23,8.79-3,13.3-3.57,12-1.48,23,.24,30.71,11C274.85,123.79,275.8,125.14,275.8,126.9Z" fill="#ddbba1"/><path d="M198,261.74c.51-4.24,5.06-6.07,6-10.06,3.84-3,7.71-6,11.53-9.08,1-.83,1.91-1.92,3.38-1.86,1.79.08,4.28-.89,5.21.55,1.28,2-1.51,2.85-2.5,4.19-2.91,3.93-6,7.73-7.57,12.47Z" fill="#ddbba1"/><path d="M229.89,255.45l-.46.18-.49-.07C229.2,255.08,229.51,255,229.89,255.45Z" fill="#c69778"/><path d="M223.11,272.65c0-.66,0-1.31-.07-2C224,271.3,224,272,223.11,272.65Z" fill="#444448"/><path d="M51.44,120.81V116A4.25,4.25,0,0,1,51.44,120.81Z" fill="#d6ad8f"/><path d="M51.42,112.81c0-.61,0-1.21,0-1.81C52.19,111.61,52.19,112.21,51.42,112.81Z" fill="#d6ad8f"/><path d="M186,371.46h-14.8c-.1-8.63-.12-17.26-.34-25.89-.06-2.5.93-3.15,3.21-3,2.65.15,5.32,0,8,0,1,6.39,2.28,12.75,2.78,19.18C185.06,365,186.07,368.17,186,371.46Z" fill="#343434"/><path d="M260.82,607.4c3.68,10.38-2.26,12.47-9.69,13.07a52.56,52.56,0,0,1-8.94-.38c-6.53-.63-12.75.52-19.17,1.84-15.48,3.19-30.72,1.83-45.22-5-4.37-2.06-6.65-5.32-5.84-10.36.19-1.17.65-1.82,1.83-1.9,5.42,8.52,13.87,11.26,23.26,12.36,10.72,1.25,21.2.75,31.27-3.52a24.41,24.41,0,0,1,11.21-1.56C247,612.36,254.58,612.88,260.82,607.4Z" fill="#444448"/><path d="M25.34,144.9c-10.67,1-21-8.79-21.06-21.07C4.23,114.91,12,102,26,102.74c11.89.67,21.19,9.65,21.14,21.75C47.06,135.75,37.28,144.92,25.34,144.9Z" fill="#545353"/></g></g></svg>