<svg xmlns="http://www.w3.org/2000/svg" viewBox="0 0 384.7 602.61"><title>ex_d2_4_2</title><g id="Layer_2" data-name="Layer 2"><g id="Layer_1-2" data-name="Layer 1"><path d="M340.48,550.26c13.43,1.18,26.4,4.48,37,12.91,10,8,9.64,18.06-1.29,27-7.72,6.35-17.23,9.32-26.85,10.74-14.3,2.1-28.76,2.37-43-.8-8.14-1.81-15.9-4.68-22.73-9.56a8.06,8.06,0,0,0-5.11-1.43q-85.88,0-171.77,0c-2.06,0-4.14.1-5.66,1.48-7.25,6.6-16.53,8.71-25.54,10.17-14.91,2.43-30.09,2.66-45-.75-8.37-1.92-16.37-4.69-23.17-10.63C-4.9,578.69-.22,568.19,9.62,561.57c10.14-6.81,21.65-10.68,34.2-10.34-1,8.36-5.33,15.11-10.76,21.22A19.3,19.3,0,0,0,28,587.4c.25,5.54,3,8.42,9.25,9.76a44.88,44.88,0,0,0,15.38.18c9.2-1.2,12.24-3.93,14.29-13.16,2.47-3.38,1.87-7.27,1.87-11.07.4-2.27,0-5.7,1.34-6.6,5.52-3.73,4.15-9.2,4.61-14.26,6.8.84,13.35,2.49,19.27,6.1-1,6.25-.18,12.53-.43,18.8-.07,1.66.52,2.4,2.27,2.35,6-.17,11.89-.25,17.84-.37l157.87.11,16.93.25c1.37,0,2.89,0,2.79-1.92-.31-6.41,1-12.89-.71-19.25,5.72-4.65,12.79-5,19.6-6.12.83,3.61-1.57,8.18,1.5,10.82,4,3.42,4.11,7.47,4.05,11.9q1.23,5.61,2.47,11.22c1.23,3.43,2.25,7.15,6,8.67,8.91,3.58,18,4.06,27.11.77,3.76-1.36,6-4.07,5.22-8.44.85-6.86-2.64-11.92-6.52-17.1C345.56,564.14,340.54,558.33,340.48,550.26Z" fill="#e8e8e8"/><path d="M321.79,377.44c5,4.42,6.57,10.74,8.26,16.68,5.86,20.63,10.15,41.63,8.22,63.22-2.13,23.94-2.95,47.92-3.69,71.93-.1,3,.08,6,.13,9-4.29,2.06-8.75.9-13.17.74,1.39-1.52,2.42-3.21,1.85-5.37-2.08-7.94-1-16.12-1.58-24.15-1-14.63-1.18-29.34-2.22-44A110.56,110.56,0,0,0,305.85,419c-1.5-2.69-3.27-6.59-7.26-7.58l-3.18-9.82c.38-1.73-.41-3.26-.94-4.81-3.62-10.75,2.17-21.63,15.36-21.51C314.12,375.33,317.62,377.92,321.79,377.44Z" fill="#dcbaa1"/><path d="M49.88,537.25c.42-17.45-.66-34.87-1.29-52.29-.42-11.58-2.22-23.12-2.56-34.7-.48-15.83,2.26-31.37,6.19-46.68,2-8,3.61-16.15,8.43-23.12,1.63,0,3,0,4.46-1.44,5-5.16,11.19-4.43,17-2.2,5.59,2.12,9,6.17,8.69,12.83-.22,4.11-.06,8.2-1.9,12-.21,3.84-3.13,6.89-3.15,10.79-.75.29-1.73.38-2.22.91-5.26,5.84-8.84,12.72-11.76,19.93-5.4,13.36-7,27.7-7.66,41.72-1,21.34-2.53,42.69-2.34,64.09C57.8,538.73,53.33,541.24,49.88,537.25Z" fill="#dcbaa1"/><path d="M69.82,119.17A4.93,4.93,0,0,1,74.73,114c6.37-.3,12.78,0,19.17.08.78,0,1.8.78,2.3.5,5.52-3.23,7.2.38,8.55,4.66l0,.69c-2,2.27.17,3.38,1.49,4.15,4.65,2.7,6.42,6.57,5.56,11.78l.09,1.26c1.24,9.56-3.69,15.82-11.11,20.74-3.61-.66-6.77,1.32-10.22,1.72-1.36.15-1.32,1.36-1.16,2.72a38.09,38.09,0,0,1,.22,8.92c-2,15.74-1.08,31.5.51,47.12.93,9-.35,16.64-6.32,23.4-11,.65-14.42-1.35-15.92-9.57a81.23,81.23,0,0,1,.44-30.53c2.22-11.3,4.46-22.61,6.37-34,.55-3.29,1.16-5.5,4.5-7.41,3.94-2.25,9.3-4.78,6.59-11.35a41.29,41.29,0,0,1,6.48-8c1,.05,1.89.07,2.5-.86,3-1.14,6.48-.66,9-3.16-.1-2.58.69-5.3-1.8-7.38-2.75-2.29-3.76-5.24-2.12-8.82-1.93,0-3,1.12-4.59,1-7.68-.47-15.37-.57-23.06-.81C71.87,119.64,70.53,119.83,69.82,119.17Z" fill="#e1c3af"/><path d="M280.53,118.86c.61-5.21,1.79-5.68,6.47-5,3.79.57,7.87-.78,11.63-.15,4.34.72,8.73-1.12,12.92.65,2.13.91,3.59,2.37,3,5-1.56.14-1.85,1.32-2.09,2.54-4.61-2.35-9.52-.85-14.28-1-.94,0-1.91.63-3.17.26-4.85-1.46-8,.29-9.85,5a17.5,17.5,0,0,1-2.78,4.09c-2.84,3.58-1.85,7.17,2.44,8.58,2.21.72,4.43,1.36,6.65,2,2.73,2.06,5.31,4.27,7,7.33-.54,4.17.52,7.2,4.38,9.83,2.46,1.67,6.26,2.87,6.63,6.87.94,10.13,4.16,19.82,5.48,29.94,1.47,11.17,2.92,22.24,2.52,33.5-.27,7.66-4.5,12.72-11.15,14-2.15.42-3.82-1.09-5.82-.67-4.14-5.83-6.59-12.08-6.11-19.47.26-4,1-7.91,1-11.84.12-16.52-.05-33.05-.15-49.58a2.79,2.79,0,0,0-.73-1.6c-4.36.93-7.71-3.35-12.06-2.31-6.64-5-11.06-11.16-9.94-20q0-.5,0-1c-.54-5.39,1.49-9.43,6.26-12.12A3.16,3.16,0,0,0,280.5,120Z" fill="#e1c3af"/><path d="M312.21,39.26c0,5.49.27,11-.08,16.45-.28,4.38,1.13,6.13,5.59,5.58,1.46-.18,3.67-1.06,4.44.92.57,1.49-1.23,2.56-2.12,3.71-7.06,9.21-14.26,18.32-21.18,27.64-1.69,2.27-2.57,2-4,.09Q283.73,79,272.55,64.4c-1.75-2.3-.92-3.27,1.74-3.23a31.23,31.23,0,0,1,3.49,0c3.16.39,3.94-1.11,3.9-4.05-.12-11.79.1-23.6-.12-35.39-.08-3.79,1.13-4.89,4.83-4.75,7.14.25,14.3.18,21.44,0,3.23-.08,4.51,1,4.42,4.3C312.1,27.29,312.21,33.28,312.21,39.26Z" fill="#f9bf7a"/><path d="M61.59,62A12,12,0,0,1,63,61.32c9.78-.7,9.78-.7,9.78-10.65s.12-19.61-.06-29.41C72.66,18,73.8,17,77,17c7.14.18,14.3.23,21.44,0,3.71-.15,4.43,1.36,4.39,4.66-.16,11.3.19,22.61-.18,33.89-.16,4.76,1.39,6.24,5.88,5.72,1.49-.17,3.69-1.05,4.53.77.63,1.4-1.17,2.58-2,3.71Q100.52,79.61,89.78,93.34c-.68.87-1.33,3.51-3.13,1.2C78.32,83.86,70.1,73.08,61.59,62Z" fill="#f9bf7a"/><path d="M132.67,321.68c1-2.46,2.91-4.53,3.3-7.27,1.12-.6.6-1.78.95-2.66,3.54-2,3.75-5.78,4.69-9.1.39-1.4.18-3,2.22-3.13a27.43,27.43,0,0,0,9.72,4.32c5.2,2,10.47,3.7,16.13,3.75a135.43,135.43,0,0,0,22.95,3q0,32.7,0,65.42l-10.91,1.41c.06-6.64-.35-13.18-2.82-19.48-4.24-10.77-12.15-18.24-21.47-24.56-7.44-5-15.18-9.27-24.22-10.59C133,322.42,132.83,322.05,132.67,321.68Z" fill="#181818"/><path d="M192.59,376q0-32.72,0-65.42,0-.34.09-.69A117.11,117.11,0,0,0,219,306.83c4.07-.4,8.11-.92,11.59-3.34,4,.32,6.91-2.07,10.08-3.85,2.2-1,1.79.72,2.1,1.91,1,3.85,1.25,8.13,5.63,10.09-.35,3.87,2.14,6.73,3.53,10a.75.75,0,0,0-.51.06c-1.7.62-3.39,1.28-5.11,1.86a79.42,79.42,0,0,0-31.23,19.38c-9.34,9.45-12.78,21.35-11.42,34.58Z" fill="#3b3a39"/><path d="M282.5,156.91c4.35-1,7.7,3.24,12.06,2.31a2.79,2.79,0,0,1,.73,1.6c.1,16.53.27,33.06.15,49.58,0,3.93-.76,7.87-1,11.84-.48,7.39,2,13.64,6.11,19.47.38,5.68,5.09,8.54,8.16,12.45.67.85,2.31,1.33,1.46,2.65s-2.1.09-3-.33c-3.4-1.55-7.09-2.58-9.78-5.42-.61-.65-1.49-1.72-2.32-.46-.3.44.32,1.5.53,2.28-16.06-1.91-30-8.08-40.72-20.53-1-1.09-1.53-2.64-3.3-2.77-.42-2.51-1.82-4.51-3.19-6.58-3.81-5.75-9-10.21-13.86-15,1.56-.52,3.35-.72,4.65-1.62A80.28,80.28,0,0,0,257.88,188c4.34-5.95,3.84-8.64-1-14.41-.58-.68-1.67-1.36-.17-2.57,4.14,2.8,7.13,6.74,10.09,10.68,2.38,3.17,2.53,5.59-1.64,8-8.09,4.56-11.25,12.35-12.76,22.06,3.1-3.13,2.27-7.37,5.77-10,.71,4,.41,7.32,2.2,10.56,4.77,8.61,12.39,13.11,21.14,16.34,5.81,2.14,6.43,1.66,6.15-4.44a17.39,17.39,0,0,1,.38-2.44q1.2-12.08,2.37-24.14c.32-4.77,1-9.55.88-14.3C291,173.68,293.56,163,282.5,156.91Z" fill="#d6ac8e"/><path d="M295.55,252.88c-.21-.78-.83-1.84-.53-2.28.83-1.26,1.71-.19,2.32.46,2.69,2.84,6.38,3.87,9.78,5.42.93.42,2.15,1.7,3,.33s-.79-1.8-1.46-2.65c-3.07-3.91-7.78-6.77-8.16-12.45,2-.42,3.67,1.09,5.82.67,6.65-1.31,10.88-6.37,11.15-14,.4-11.26-1.05-22.33-2.52-33.5-1.32-10.12-4.54-19.81-5.48-29.94-.37-4-4.17-5.2-6.63-6.87-3.86-2.63-4.92-5.66-4.38-9.83l3-2.38c3.88-1.16,7.89-1.76,11.83-2.6,2.48-.53,4.9,1.44,7.15-.36,0,1.49.43,3.18-.13,4.44-4.86,11-1.06,21.87.76,32.69,2.4,14.22,6.76,28,8.77,42.35,1.52,10.78.57,21.2-3.92,31.17-3,6.57-7.91,8.74-15,7.28C305,259.59,300.35,256.12,295.55,252.88Z" fill="#dcbaa1"/><path d="M49.88,537.25c3.45,4,7.92,1.48,11.93,1.85h5a2.44,2.44,0,0,0,.91.3c3.93,4.24,2.38-2.28,4.22-2.14C74.59,539,74,542,74.54,544.52c-6.55,3-9.26,21-5.8,28.59,0,3.8.6,7.69-1.87,11.07-4.31,4.69-9.14,8.14-16,6.58a31.74,31.74,0,0,0-11.36-.45A14.53,14.53,0,0,1,28,587.4a19.3,19.3,0,0,1,5.11-14.95c5.43-6.11,9.71-12.86,10.76-21.22,1.69-1.79.92-4,.92-6C44.74,541.35,45.74,538.34,49.88,537.25Z" fill="#dad8eb"/><path d="M85.76,148.92c2.71,6.57-2.65,9.1-6.59,11.35-3.34,1.91-4,4.12-4.5,7.41-1.91,11.35-4.15,22.66-6.37,34a81.23,81.23,0,0,0-.44,30.53c1.5,8.22,5,10.22,15.92,9.57-.31,4.7-3.49,7.69-6.41,10.86-1.38,1.5-3.56,2.76-2,5.48,2.91-.73,5.47-2.62,8.6-2.29-3.86,3.82-8.74,5.33-13.93,5.67-5.36.35-9.43-3.44-12.18-10-5.23-12.53-4.4-25.29-1.62-38.09,3.45-15.84,7.1-31.63,10.05-47.6,1.3-7-1.3-13-1.92-19.53-.07-.81-.15-1.62-.23-2.42a58.22,58.22,0,0,1,19.52,2.11Z" fill="#dcbaa1"/><path d="M321.55,539c4.41.16,8.87,1.32,13.16-.74,3.17-.28,4.89.8,4.86,4.35a57.57,57.57,0,0,0,.91,7.69c.06,8.07,5.08,13.88,9.49,19.78,3.88,5.18,7.37,10.24,6.52,17.1a10.7,10.7,0,0,1-9.47,3.24,53.84,53.84,0,0,0-14.39.44,12.81,12.81,0,0,1-12.21-4.14c-.44-.5-1-2.84-2.28-.54q-1.25-5.61-2.47-11.22c4-10,1.63-24.19-5.21-30.85.46-2.44-1.28-5.71,2.6-6.86.87,2.21,1.36,4.94,4.78,2.36C318.72,538.9,320.29,539.14,321.55,539Z" fill="#dad8eb"/><path d="M83.94,255.79c-3.13-.33-5.69,1.56-8.6,2.29-1.53-2.72.65-4,2-5.48,2.92-3.17,6.1-6.16,6.41-10.86,6-6.76,7.25-14.37,6.32-23.4-1.59-15.62-2.5-31.38-.51-47.12a38.09,38.09,0,0,0-.22-8.92c-.16-1.36-.2-2.57,1.16-2.72,3.45-.4,6.61-2.38,10.22-1.72-2.52,2.11-6.34,3.78-6.55,7.11-.69,10.73-1.45,21.52.39,32.25-.25,8.28,1.5,16.4,2,24.62.53,8,1.83,9,9.35,5.66,1-.48,2-1.23,3-1.67a28.22,28.22,0,0,0,14.8-13.29c3.36-6.43,3.24-12.75-1-18.8,2.62.36,3.85,2.35,5.07,4.34,5.74,9.44,4.94,19.14,1.19,29-1.12,2.91-2.18,5.85-3.27,8.77l0-.08c-.14.05-.4.09-.41.16a3.3,3.3,0,0,0,0,.7C121.89,241.13,117,244,112,246.4A62.85,62.85,0,0,1,88.73,253c.08-.91,1.27-1.86.38-2.66s-1.71.3-2.37.89c-1.11,1-2.17,2-1.84,3.73Z" fill="#d6ac8e"/><path d="M136,250.42c-.22-7.07-.27-14.17-3.27-20.8A50.77,50.77,0,0,1,147.36,211c1-.86,2.22-1.42,2.38-2.92a5.94,5.94,0,0,0,1.48-.21c11.39-4.54,22.9-8.64,35.11-10.53,3.14-.49,4.28-3.39,4.26-6.54,0-4-.26-8,0-12,.9-11.54-5.44-15.72-15.1-18-6.9-1.63-13.89-.8-20.84-.93-1.35-1.06-.82.38-1.07.8l-2.95.14c0-1.18-.09-2.35-.14-3.53,6.41-4.24,13.94-5.8,20.92-8.7l.24,6.44c0,1.18.06,2.48,1.56,2.7,6.88,1,12.5,4.75,18.25,8.22a2.08,2.08,0,0,0,1.11,1.95c-.23,1-.8,2-.65,2.87,1.8,10.95-.25,22,.65,32.95-2.72,5.59-7.39,8.29-13.25,10.09-9.18,2.82-17.78,7.2-26.25,11.73-3.29,1.77-4.88,4.44-5.56,8.24-1.23,6.92-.64,13.85-.89,20.78-.07,1.75.64,3.69-1,5.16L137,242.37C136,245.24,137.28,248,136,250.42Z" fill="#be8b6b"/><path d="M192.62,203.73c-.9-11,1.15-22-.65-32.95-.15-.9.42-1.91.65-2.87,5.42-5.78,11.83-9.62,19.93-10.14,1.49.37,3.76-.77,4,2-4.74-.34-9.19,1.17-13.57,2.53-5.07,1.58-8.4,6.76-8.44,12.19s.08,10.93,0,16.4c-.08,4.17,1.6,6.38,5.92,7a98.53,98.53,0,0,1,25.23,7c2.86,1.23,5.47,3.21,8.8,3.15,4.86,4.76,10.05,9.22,13.86,15,1.37,2.07,2.77,4.07,3.19,6.58q-1.53,5.65-3.05,11.31l-9.55,18.92c-1.49-.75-1.31-2.15-1.31-3.46,0-6.58.08-13.16-.07-19.73-.1-4.82-1.59-8.54-6.37-11.33a162,162,0,0,0-29.33-13C196.92,210.6,194.56,207.8,192.62,203.73Z" fill="#c69676"/><path d="M89,401.67c1.83-3.82,1.67-7.91,1.89-12,.36-6.66-3.1-10.71-8.69-12.83-5.85-2.23-12.06-3-17,2.2-1.43,1.47-2.83,1.42-4.46,1.44a33.28,33.28,0,0,1,16.09-16c4.86-2.83,10-5.23,14.38-8.81L103.7,358c1.9,1,3.82,1.89,5.69,2.91,7.31,4,13.84,8.79,17.52,16.6-8.87,3.39-18,6.4-25.33,12.72C97.27,393.9,93.15,397.84,89,401.67Z" fill="#d6ac8e"/><path d="M321.79,377.44c-4.17.48-7.67-2.11-12-2.15-13.19-.12-19,10.76-15.36,21.51.53,1.55,1.32,3.08.94,4.81-1.34-.15-1.81-1.3-2.54-2.18-9.33-11.17-21.51-17.77-35.22-21.91,5-9.77,13.56-15.16,23.19-19.33,4.23-.67,8.14-2.85,12.56-2.58a120.36,120.36,0,0,0,14.81,8.84C313.93,367.53,319.06,371.23,321.79,377.44Z" fill="#d6ac8e"/><path d="M222.7,93.74c5.29-.06,10.59-.4,15.86-.1,5.82.32,9.42,4.39,8.82,9.22-3.29-.89-4.86.17-4.62,3.75.18,2.74,0,5.49,0,8.23-2.06,1.29-.85,3.42-1.31,5.12-4.8-1-6.64,1-5.95,5.73a15.51,15.51,0,0,1,0,4.41c-.7,4.77,1.17,6.72,5.95,5.73l-.29,9.22c-1.62,0-2.68-1.1-4-1.78-7.13-3.67-14-8.08-22.43-8.33q.33-4.44.65-8.87v-2.28a1.76,1.76,0,0,0,.26-.83l.75-1.12.1-.1c7.46-2.35,10.4-12.89,5-18.08Z" fill="#4f4f51"/><path d="M145.81,93.92a61.18,61.18,0,0,1,15.65-.07c2.45,3.05.66,6.62,1.23,9.91-4.71,6-1.58,15.91,5.81,18.33l.57,1.7c-.16,1.07-.56,2.17.44,3.08q.13,4,.25,7.95c-2.4-.3-4.5.8-6.71,1.4-6.88,1.88-12.64,6.18-19.18,8.78l-.22-8.09c4.92.72,6.66-1.57,6.06-6.26a35.38,35.38,0,0,1,0-4.49c0-6.43,0-6.43-6.61-6.12-1-1.56,2.33-4.13-1.19-5.11,0-2.42-.12-4.86.11-7.27.37-4-1-5.8-5.15-4.79.21-5.06,2.49-7.52,8.23-8.89l.35-.18Z" fill="#4f4f51"/><path d="M320.46,142.87c-2.25,1.8-4.67-.17-7.15.36-3.94.84-7.95,1.44-11.83,2.6.67-3.21,3.39-4.76,5.58-6.68,1.27-1.12,1.29-1.76-.11-2.55-.95-.53-1.93-2.36-2.67.36-.59,2.13-2.72,3.79-4.53,2.61-3.48-2.28-5.69-.25-8.25,1.31-2.22-.68-4.44-1.32-6.65-2-4.29-1.41-5.28-5-2.44-8.58a17.5,17.5,0,0,0,2.78-4.09c1.89-4.69,5-6.44,9.85-5,1.26.37,2.23-.29,3.17-.26,4.76.14,9.67-1.36,14.28,1,.06,2.12.17,4.24.18,6.36,0,7.81,0,7.81,7.78,7.94l.12,2.5Z" fill="#d6ac8e"/><path d="M83.63,145.92a58.22,58.22,0,0,0-19.52-2.11l-.48-6.76a6.7,6.7,0,0,1,.6-.45,26.32,26.32,0,0,1,4,0c3.54.52,4.41-.66,3.88-4.27s0-7.6,0-11.42c7.69.24,15.38.34,23.06.81,1.64.11,2.66-1,4.59-1-1.64,3.58-.63,6.53,2.12,8.82,2.49,2.08,1.7,4.8,1.8,7.38-1.45,0-3.2.48-4.31-.15-4.29-2.44-4.16.75-4.64,3.31-.61.93-1.55.91-2.5.86-1.68-.83-3.25-3.55-5-2.33-4.56,3.24-6.11.11-7.82-3.11-2.23,1.53-3.55,2.84-.36,4.68C81.29,141.42,82.42,143.75,83.63,145.92Z" fill="#d6ac8e"/><path d="M162.69,103.76c-.57-3.29,1.22-6.86-1.23-9.91,2.1-1.25,1.5-3.56,1.93-5.37,3.18-13.56,15.52-22.94,30-22.62A29.19,29.19,0,0,1,221.61,90c.21,1.3,0,2.68,1.09,3.72q-.55,5-1.13,9.92l-4,1.39c.59-7.66-4.35-14.45-3.55-22.17.05-.52-.56-1.18-1-1.65-5.73-6.26-12.5-10.12-21.34-9.09a26.1,26.1,0,0,0-4.94.26c-6.65,1.57-13.82,4.16-15.66,10.81-1.66,6-2.55,12.51-4.17,18.72l.09,1,.24,2.24Z" fill="#3b3a39"/><path d="M293.4,355.61c-4.42-.27-8.33,1.91-12.56,2.58-6.23-5.7-12.55-11.31-18.66-17.13-5.58-5.31-10.68-11-10.79-19.38a.75.75,0,0,1,.51-.06c17.52,10.28,34,22,50.45,34C299.37,355.45,296.39,354.72,293.4,355.61Z" fill="#36b0b7"/><path d="M103.7,358l-12.58-2.3c-2.73-1-5.51-.05-8.26-.17a585.35,585.35,0,0,1,49.81-33.84c.16.37.33.74.5,1.11-.07,6-3.22,10.67-7.16,14.79A239.57,239.57,0,0,1,103.7,358Z" fill="#36b0b7"/><path d="M149.74,208.07c-.16,1.5-1.34,2.06-2.38,2.92a50.77,50.77,0,0,0-14.64,18.63c-3,1.34-3.48,5.44-7,6.21,1.09-2.92,2.15-5.86,3.27-8.77,3.75-9.84,4.55-19.54-1.19-29-1.22-2-2.45-4-5.07-4.34h0c0-3.64-3.06-4.54-5.47-5.47s-2.6-2.12-1.29-3.91c2.31-3.18,4.09-6.73,7.07-9.43s5.72-5.48,8.56-8.24l-.07.07c5.6-2.24,11.2-4.46,16.77-6.77.25-.1.2-.92.29-1.41l1.92-1.27c.05,1.18.1,2.35.14,3.53-8.6,3.71-17.44,7-23.9,14.31-3.09,3.49-4.06,7.17-1.28,11.2a60.48,60.48,0,0,0,5.51,6.95C136.5,199.14,141.7,205.42,149.74,208.07Z" fill="#c69676"/><path d="M136,250.42c1.29-2.43,0-5.18,1-8l8.73,17.36a30.14,30.14,0,0,1,1.15,13.62c-.76,4.7-.9,9.5-1.32,14.26a41.68,41.68,0,0,0-1.71,11.91c-2,.13-1.83,1.73-2.22,3.13-.94,3.32-1.15,7.09-4.69,9.09a1.42,1.42,0,0,0-.91.05Z" fill="#4f4f51"/><path d="M238.93,259.81l9.55-18.92q-.06,35.37-.11,70.75c-4.38-2-4.65-6.24-5.63-10.09-.31-1.19.1-2.91-2.1-1.91a41.28,41.28,0,0,0-1.33-12.07c-.43-7.07-2.09-14.05-1.72-21.18C237.71,264.17,237,261.7,238.93,259.81Z" fill="#4f4f51"/><path d="M338.33,91.38c.17,4,2.8,7.45,2.13,11.55v46.93A58.54,58.54,0,0,1,338.7,163c-1.76,6.27-6.38,3-9.73,3.52-3.7.58-2.05-2.84-2.7-4.53l.72-14.78a27.94,27.94,0,0,1,4.48,0c4.77.69,6.24-1.16,6.07-6-.38-11.12-.16-22.26-.18-33.39C338,102.32,336.4,96.75,338.33,91.38Z" fill="#3b3a39"/><path d="M249.61,101.88a35.12,35.12,0,0,1,3.76-11.49q.09,8.79.17,17.58c0,9.56-.09,19.12,0,28.67,0,3.43-1.35,7.54.62,10.12s6.26.3,9.4,1.25l.47.16q.28,5.84.55,11.69l0,2,0,1c-.12.64-.25,1.27-.37,1.91l-.57,1c-.95.54-1.74,1.44-3,1.26-2.95-.88-7.31,2.12-8.66-3.15-.59-3.94-1.91-7.77-1.52-11.83.34-12.4.49-24.79-.07-37.18C250.05,110.49,251.15,106.11,249.61,101.88Z" fill="#3b3a39"/><path d="M58.2,164c0,3.84-3,2.92-5,2.67-2.28-.28-5.5,1.86-6.66-2.1-.64-2.21-1.34-4.41-2-6.61.15-14.41.48-28.82-.22-43.23l.12-11.65.18-5.2c.79-2.59,1.19-5.33,3-7.54q0,8.91,0,17.82l0,29.39c0,9.64,0,9.64,9.85,9.51Q57.86,155.52,58.2,164Z" fill="#3b3a39"/><path d="M132.58,93a30.66,30.66,0,0,1,2,11l.09,8.94c-1.42,12.71-.78,25.44-.32,38.16v2.75c-.11,1.37-.22,2.74-.32,4.11-.4,1.61-.81,3.21-1.21,4.82-.42,1.34-.84,2.67-1.27,4l.07-.07-6.82.23c-1.47-.66-4,1-4.39-2q.17-8.5.32-17c2.32,0,4.63-.22,6.94-.12,2.71.11,4-.93,3.88-3.74-.34-11.87.63-23.77-.6-35.63l.48-1.45a2.07,2.07,0,0,0,0-2.24L131.58,93Z" fill="#3b3a39"/><path d="M297,10.1c-4.15,0-8.31-.11-12.46,0-3.59.12-3.1-2.39-2.86-4.41S280,.15,284.34.08c8.47-.13,17,0,25.43,0,.79,0,1.57,0,2,1A6.21,6.21,0,0,1,306,10.11Z" fill="#f9bf7a"/><path d="M88.25,10.1c-4.15,0-8.31,0-12.46,0-4.37.08-2.81-3.2-3-5.33S72-.06,75.9,0c8,.13,15.94.07,23.91,0,4.36,0,2.79,3.25,2.93,5.38s.9,4.9-3,4.72S92.06,10.11,88.25,10.1Z" fill="#f9bf7a"/><path d="M349.25,115c.09,1.55.18,3.1.28,4.65q0,8.2,0,16.4c-.78,5,.88,10.31-1.62,15.15a24.11,24.11,0,0,1-.24-4.93c.73-5-1.55-6.27-6-5.31-.07-6.59.17-13.19-.31-19.75-.35-4.75.88-7.15,6-6.46Z" fill="#7a797a"/><path d="M58.2,164q-.35-8.48-.68-16.94.09-19.38.2-38.76.09-9,.17-18.06c2.21,3.21,2.8,6.87,2.84,10.65.07,6.39.06,12.77.08,19.16,0,4.13.28,8.29-.06,12.4-.24,2.91,1.26,3.67,3.48,4.16a6.7,6.7,0,0,0-.6.45c-3.43-.06-2.76,2.49-2.89,4.53-.41,6.68.95,13.46-1.06,20.06C59.4,162.6,59.31,163.59,58.2,164Z" fill="#bebdbd"/><path d="M338.33,91.38c-1.93,5.37-.3,10.94-1,16.38l-9.86.24c-1.32-1.89-.88-4.07-1.06-6.17-.28-3.2.86-6.51-.77-9.59.11-.64,0-1.49.38-1.89C328.43,87.79,336.64,88.53,338.33,91.38Z" fill="#e8e8e8"/><path d="M325.67,92.24c1.63,3.08.49,6.39.77,9.59.18,2.1-.26,4.28,1.06,6.17a7.4,7.4,0,0,0-.83,2.31c.12,12.28-.53,24.57.32,36.85l-.72,14.78c-2.85-1.33-2.6-4-2.62-6.42,0-5.33.05-10.65,0-16-.05-3.52-1.46-2.67-3.05-.83l-.12-2.51c2.27-.13,3.51-.93,3.33-3.61-.31-4.28-.2-8.59-.27-12.89.05-5.13.22-10.27.1-15.4C323.5,100.12,323.82,96.06,325.67,92.24Z" fill="#bebdbd"/><path d="M120.74,147.89q-.17,8.49-.32,17a24.92,24.92,0,0,1-2.65-12.33c.21-5.43,0-10.88,0-16.33s0-10.88,0-16.32c0-5.25.21-10.49.08-15.73-.11-4.16.23-8.16,2.06-12,1.79,5.28.16,10.75.93,16.09Z" fill="#bebdbd"/><path d="M120.78,108.32c-.77-5.34.86-10.81-.93-16.09,1.5-3.86,6-4.63,11-1.88.24.87.49,1.73.73,2.6l-.15,11.76a2,2,0,0,0,0,2.24L131,108.4Z" fill="#e8e8e8"/><path d="M36.09,141a7.94,7.94,0,0,1-.29-4.32c-.65-5.58,1.15-11.31-1-16.81,2-4.45.16-9.21,1.09-13.75a2.67,2.67,0,0,1,1,3.07c-1,4.9,1.41,6.36,5.79,6q0,12.91,0,25.84Z" fill="#7a797a"/><path d="M253.54,108q-.07-8.79-.17-17.58c4.92-2.73,10-2,11.16,1.66-1.94,5.26-.21,10.74-1,16.07Z" fill="#e8e8e8"/><path d="M57.89,90.23q-.09,9-.17,18.06l-10.08-.14q0-8.91,0-17.82C51,88.1,54.44,88.23,57.89,90.23Z" fill="#e8e8e8"/><path d="M64.23,136.6c-2.22-.49-3.72-1.25-3.48-4.16.34-4.11.07-8.27.06-12.4,3-.75,6.14.74,9-.87.71.66,2.05.47,2.3,1.73-.06,3.82-.58,7.7,0,11.42s-.34,4.79-3.88,4.27A26.32,26.32,0,0,0,64.23,136.6Z" fill="#3b3a39"/><path d="M323.51,119.71c.07,4.3,0,8.61.27,12.89.18,2.68-1.06,3.48-3.33,3.61-7.79-.12-7.78-.12-7.78-7.93,0-2.12-.12-4.24-.18-6.36.24-1.22.53-2.4,2.09-2.54Z" fill="#3b3a39"/><path d="M263.57,108.12c.75-5.33-1-10.81,1-16.07,3.72,6.32,2.71,13.31,2.83,20.15,0,2.47.19,4.93.29,7.4a33.92,33.92,0,0,0,0,16.57c-2.22,6.2-.56,12.61-1.12,18.9-.15,1.75.95,4.15-2,4.79q-.27-5.85-.55-11.69c.09-8.76.31-17.52.21-26.28C264.18,117.3,265.09,112.64,263.57,108.12Z" fill="#bebdbd"/><path d="M267.68,136.17a33.92,33.92,0,0,1,0-16.57l6.84,0h2.14l1.85,0,2,.39a3.16,3.16,0,0,1-1.68,3.76c-4.77,2.69-6.8,6.73-6.26,12.12l-2.06.27Z" fill="#3b3a39"/><path d="M117.71,119.91q0,8.16,0,16.32l-3,.18-3-.55c.85-5.21-.92-9.08-5.57-11.78-1.32-.77-3.51-1.88-1.49-4.15l1-.14Z" fill="#3b3a39"/><path d="M347.34,114.77c-5.08-.69-6.31,1.71-6,6.46.48,6.56.24,13.16.31,19.75l-.37,8.9-.43,0-.43,0V102.93c2.33.42,4.94-1,7,1Z" fill="#e8e8e8"/><path d="M34.79,119.87c2.16,5.5.36,11.23,1,16.81l-2-.49a2,2,0,0,0-2.33,0,1.91,1.91,0,0,1-2.31-.92,7.87,7.87,0,0,0,0-6.48q0-3.9,0-7.8l.65-.94Z" fill="#3b3a39"/><path d="M42.64,115.16c-4.38.39-6.78-1.07-5.79-6a2.67,2.67,0,0,0-1-3.07c-.22-1.83.13-3.22,2.41-3.18,1.77,0,3.53,0,5.3,0a2.38,2.38,0,0,0,.88.13l-.12,11.65Z" fill="#e8e8e8"/><path d="M249.61,101.88c1.54,4.23.44,8.61.72,12.91l-1.85.29-5.69-.24c0-2.74.15-5.49,0-8.23-.24-3.58,1.33-4.64,4.62-3.75C248.2,102.71,249.13,102.8,249.61,101.88Z" fill="#e8e8e8"/><path d="M349.52,136.07q0-8.2,0-16.4h4.85l.93.39-.13,15.68a.68.68,0,0,0-.81.23Z" fill="#3b3a39"/><path d="M36.09,141h6.56c-.19,4.22,1.26,8.58-1,12.63-1.82-.54-5,1.32-4.89-2.67.07-.13.21-.28.18-.38a4.56,4.56,0,0,0-.34-.75C35.62,146.93,36,144,36.09,141Z" fill="#3b3a39"/><path d="M41.61,153.63c2.3-4,.85-8.41,1-12.63q0-12.92,0-25.84l1.71-.44c.7,14.41.37,28.82.22,43.23C43.05,156.87,44.81,153.56,41.61,153.63Z" fill="#a6a6a9"/><path d="M134.68,112.9l-.09-8.94,2.25-1.09c4.15-1,5.52.83,5.15,4.79-.23,2.41-.08,4.85-.11,7.27l-5.11.09A2.13,2.13,0,0,1,134.68,112.9Z" fill="#e8e8e8"/><path d="M341.32,149.88l.37-8.9c4.42-1,6.7.35,6,5.31a24.11,24.11,0,0,0,.24,4.93c-.26,3.23-2.76,1.9-4.39,2C340.91,153.49,341.76,151.21,341.32,149.88Z" fill="#3b3a39"/><path d="M82.86,355.52c2.75.12,5.53-.85,8.26.17-4.4,3.58-9.52,6-14.38,8.81C77.06,360.33,79.45,357.58,82.86,355.52Z" fill="#3b3a39"/><path d="M293.4,355.61c3-.89,6-.16,9,0a13,13,0,0,1,5.86,8.86A120.36,120.36,0,0,1,293.4,355.61Z" fill="#3b3a39"/><path d="M347.34,114.77l.15-10.8c2.84,3.33,2.09,7.23,1.76,11Z" fill="#a6a6a9"/><path d="M84.9,255c-.33-1.71.73-2.75,1.84-3.73.66-.59,1.36-1.8,2.37-.89s-.3,1.75-.38,2.66Z" fill="#dcbaa1"/><path d="M29.19,128.81a7.87,7.87,0,0,1,0,6.48A13,13,0,0,1,29.19,128.81Z" fill="#7a797a"/><path d="M44.47,103.07a2.38,2.38,0,0,1-.88-.13c.54-1.65-.44-3.62,1.06-5.07Z" fill="#a6a6a9"/><path d="M131.58,93c-.24-.87-.49-1.73-.73-2.6,1.09.55,2,1.22,1.73,2.65Z" fill="#7a797a"/><path d="M136,311.79a1.42,1.42,0,0,1,.91-.05c-.35.89.17,2.07-.95,2.67C136,313.53,136,312.66,136,311.79Z" fill="#be8b6b"/><path d="M276.63,119.63h-2.14A1.26,1.26,0,0,1,276.63,119.63Z" fill="#bebdbd"/><path d="M31.5,136.21a2,2,0,0,1,2.33,0A1.91,1.91,0,0,1,31.5,136.21Z" fill="#7a797a"/><path d="M280.5,120l-2-.39,2-.75Z" fill="#bebdbd"/><polygon points="145.81 93.92 145.43 93.8 145.07 93.98 145.4 93.7 145.81 93.92" fill="#3b3a39"/><path d="M36.56,149.83a4.56,4.56,0,0,1,.34.75c0,.1-.11.25-.18.38a4.44,4.44,0,0,1-.37-.76C36.32,150.11,36.49,150,36.56,149.83Z" fill="#7a797a"/><path d="M354.37,136a.68.68,0,0,1,.81-.23C355.07,136.38,354.76,136.31,354.37,136Z" fill="#7a797a"/><path d="M125.45,236.61a3.3,3.3,0,0,1,0-.7c0-.07.27-.11.41-.16A2.05,2.05,0,0,1,125.45,236.61Z" fill="#c69676"/><path d="M29.88,120.07l-.65.94C28.94,120.35,29.19,120.06,29.88,120.07Z" fill="#7a797a"/><path d="M355.31,120.07l-.93-.39C355,119.06,355.29,119.23,355.31,120.07Z" fill="#a6a6a9"/><path d="M105.77,119.79l-1,.14,0-.69Z" fill="#bebdbd"/><path d="M206.51,558.29l65.3.27-.3,20.68-157.87-.11q-.12-10.21-.23-20.43l48.25-.34c5.64,0,11.27-.12,16.91-.18Z" fill="#a6a6a9"/><path d="M113.41,558.7q.12,10.21.23,20.43c-6,.12-11.89.2-17.84.37-1.75,0-2.34-.69-2.27-2.35.25-6.27-.53-12.55.43-18.8Z" fill="#4f4f51"/><path d="M271.51,579.24l.3-20.68,18.71-.24c1.68,6.36.4,12.84.71,19.25.1,1.91-1.42,1.94-2.79,1.92Z" fill="#4f4f51"/><path d="M28,587.4a14.53,14.53,0,0,0,11.57,2.91,31.74,31.74,0,0,1,11.36.45c6.85,1.56,11.68-1.89,16-6.58-2.05,9.23-5.09,12-14.29,13.16a44.88,44.88,0,0,1-15.38-.18C30.92,595.82,28.2,592.94,28,587.4Z" fill="#4f4f51"/><path d="M318.14,586.14c1.31-2.3,1.84,0,2.28.54a12.81,12.81,0,0,0,12.21,4.14,53.84,53.84,0,0,1,14.39-.44,10.7,10.7,0,0,0,9.47-3.24c.79,4.37-1.46,7.08-5.22,8.44-9.09,3.29-18.2,2.81-27.11-.77C320.39,593.29,319.37,589.57,318.14,586.14Z" fill="#3b3a39"/><path d="M74.54,544.52a25.37,25.37,0,0,0,.15,7.73c-.46,5.06.91,10.53-4.61,14.26-1.33.9-.94,4.33-1.34,6.6C65.28,565.54,68,547.56,74.54,544.52Z" fill="#4f4f51"/><path d="M310.12,552.2l.09-5v-2c.09-.4.18-.79.26-1.19,6.84,6.66,9.23,20.85,5.21,30.85.06-4.43,0-8.48-4.05-11.9C308.55,560.38,311,555.81,310.12,552.2Z" fill="#4f4f51"/><path d="M313.06,537.21c-1.59-14-2.75-28-4.92-41.88-1.42-9.14-5.58-17.64-7.87-26.65-4.18-16.41-2.93-32.93-2.15-49.47.11-2.46.95-5-1.6-6.75a2.29,2.29,0,0,0,2.07-1c4,1,5.76,4.89,7.26,7.58a110.56,110.56,0,0,1,13.74,46.43c1,14.66,1.23,29.37,2.22,44,.54,8-.5,16.21,1.58,24.15.57,2.16-.46,3.85-1.85,5.37-1.25.18-2.82-.06-3.7.61C314.42,542.15,313.93,539.42,313.06,537.21Z" fill="#d6ac8e"/><path d="M298.59,411.43a2.29,2.29,0,0,1-2.07,1c-7.48-3.12-14.81-6.72-23.1-7.29-2.75-2.11-6.17-2.13-9.34-2.9-12.67-3.1-14.27-6.14-9.63-18.74.79-2.14,1.43-4.38,3.2-6,13.71,4.14,25.89,10.74,35.22,21.91.73.88,1.2,2,2.54,2.18Z" fill="#be8b6b"/><path d="M87.11,412.89A61.58,61.58,0,0,0,87,430.25c2.42,20.85-2.2,40.45-9.18,59.84-3,8.29-2.87,17.27-4,25.94-.89,7-2.51,14-2,21.22-1.84-.14-.29,6.38-4.22,2.14-.14-.59-.41-.81-.91-.3h-5c-.19-21.4,1.36-42.75,2.34-64.09.64-14,2.26-28.36,7.66-41.72,2.92-7.21,6.5-14.09,11.76-19.93.49-.53,1.47-.62,2.22-.91Z" fill="#d6ac8e"/><path d="M87.11,412.89l-1.32-.44c0-3.9,2.94-6.95,3.15-10.79,4.21-3.82,8.33-7.76,12.64-11.45,7.38-6.32,16.46-9.33,25.33-12.72,4.07,4.59,4.57,10.5,5.91,16.09l-.42,4.72c-.24.34-.49.67-.74,1-6.86,2-14,3.16-20.65,5.79C102.55,406.2,94.88,409.7,87.11,412.89Z" fill="#be8b6b"/><path d="M83.63,145.92c-1.21-2.17-2.34-4.5-4.54-5.76-3.19-1.84-1.87-3.15.36-4.68,1.71,3.22,3.26,6.35,7.82,3.11,1.72-1.22,3.29,1.5,5,2.33a41.29,41.29,0,0,0-6.48,8Z" fill="#be8b6b"/><path d="M94.74,140.06c.48-2.56.35-5.75,4.64-3.31,1.11.63,2.86.13,4.31.15C101.22,139.4,97.69,138.92,94.74,140.06Z" fill="#be8b6b"/><path d="M114.78,136.41l-2.92.71-.09-1.26Z" fill="#bebdbd"/><path d="M291.5,140.88c2.56-1.56,4.77-3.59,8.25-1.31,1.81,1.18,3.94-.48,4.53-2.61.74-2.72,1.72-.89,2.67-.36,1.4.79,1.38,1.43.11,2.55-2.19,1.92-4.91,3.47-5.58,6.68l-3,2.38C296.81,145.15,294.23,142.94,291.5,140.88Z" fill="#be8b6b"/><path d="M272.56,136.87l-2.06-.72,2.06-.27Q272.58,136.38,272.56,136.87Z" fill="#bebdbd"/><path d="M238.93,259.81c-1.9,1.89-1.22,4.36-1.34,6.58-.37,7.13,1.29,14.11,1.72,21.18-4,4.72-5.68,10.7-8.75,15.92-3.48,2.42-7.52,2.94-11.59,3.33-2.65-.23-4.47-.94-2.18-3.89a5.06,5.06,0,0,0,.83-3.3c1.6-6.14,4.32-12,5-18.37,2.93-4.86,1.05-9.73,0-14.6-.28-3.42,3.81-5.39,3-9-.33-4,.89-8.17-1-12.06.72-3.55,4-6.07,4-9.92l0,0c.48-.23,2,.49,1-1.07.53-4.46-1-8.06-5.26-9.65-7.94-3-15.56-7.1-24.12-8.18-6.19-.79-7.56.63-7.55,6.87,0,1.32,0,2.65,0,4-11.66,6.63-23.53,12.21-37.39,8,5.16,11.69,5.54,11.48,14.67,7.26,6.93-3.2,14.85-7.56,22.72-1.13a41.05,41.05,0,0,1-1,10.88,7.84,7.84,0,0,1-6.27,4.19c-3.24.41-6.39,1.68-9.51,2.76-5.15,1.78-10.27,3.52-15.76.11,1.85,7.51,5.21,10.72,9.34,8.6,5.27-2.72,11.11-3,16.48-5,3.24-1.2,5,0,6.69,2.29l.06,15.93c-10,5.56-20.19,3.44-30.81.46a184.62,184.62,0,0,0,7.81,25.56c-5.66,0-10.93-1.75-16.13-3.75a55.12,55.12,0,0,0-8-16.23c.42-4.76.56-9.56,1.32-14.26a30.14,30.14,0,0,0-1.15-13.62c1.6-1.47.89-3.41,1-5.16.25-6.93-.34-13.86.89-20.78.68-3.8,2.27-6.47,5.56-8.24,8.47-4.53,17.07-8.91,26.25-11.73,5.86-1.8,10.53-4.5,13.25-10.09,1.94,4.07,4.3,6.87,9.23,8.56a162,162,0,0,1,29.33,13c4.78,2.79,6.27,6.51,6.37,11.33.15,6.57,0,13.15.07,19.73C237.62,257.66,237.44,259.06,238.93,259.81Z" fill="#d6ac8e"/><path d="M131.66,399.31c.25-.34.5-.67.74-1,2.13-1.39,1.44-3,.42-4.72-1.34-5.59-1.84-11.5-5.91-16.09-3.68-7.81-10.21-12.62-17.52-16.6-1.87-1-3.79-1.94-5.69-2.91A238.09,238.09,0,0,0,126,337.58c3.94-4.12,7.09-8.74,7.16-14.79,9,1.32,16.78,5.55,24.22,10.59,9.32,6.32,17.23,13.79,21.47,24.56,2.47,6.3,2.88,12.84,2.82,19.48-9.07,5.07-18.25,9.95-27.16,15.3-5.31,3.19-11.37,5.21-15.86,9.74l.05,0c-.89-.06-1.69,0-2,1l0,0a3.14,3.14,0,0,0-2.53,1l-.23.16-2.6.74C129.7,403.24,132.41,401.37,131.66,399.31Z" fill="#3b3a39"/><path d="M138.66,402.46c4.49-4.53,10.55-6.55,15.86-9.74,8.91-5.35,18.09-10.23,27.16-15.3L192.59,376l11,1.49,43.48,24.9Z" fill="#7a797a"/><path d="M169.68,307.59A184.62,184.62,0,0,1,161.87,282c10.62,3,20.79,5.1,30.81-.46l2.06,1.94c.22,2.42-3.14,3.25-2.7,5.58,1.32,6.92.14,13.89.68,20.81q-.06.35-.09.69A135.43,135.43,0,0,1,169.68,307.59Z" fill="#be8b6b"/><path d="M145.54,287.61a55.12,55.12,0,0,1,8,16.23,27.43,27.43,0,0,1-9.72-4.32A41.68,41.68,0,0,1,145.54,287.61Z" fill="#be8b6b"/><path d="M247.12,402.4l-43.49-24.9c-1.36-13.23,2.08-25.13,11.42-34.58a79.42,79.42,0,0,1,31.23-19.38c1.72-.58,3.41-1.24,5.11-1.86.11,8.4,5.21,14.07,10.79,19.38,6.11,5.82,12.43,11.43,18.66,17.13-9.63,4.17-18.23,9.56-23.19,19.33-1.77,1.63-2.41,3.87-3.2,6-4.64,12.6-3,15.64,9.63,18.74,3.17.77,6.59.79,9.34,2.9-6.9,2.38-13.81,4.51-20.75.12l-5-2.79A.51.51,0,0,0,247.12,402.4Z" fill="#181818"/><path d="M192.72,309.9c-.54-6.92.64-13.89-.68-20.81-.44-2.33,2.92-3.16,2.7-5.58,6.17,2.2,12.53.86,18.82,1,2,4.27,3.82,8.55,3.16,13.46-.07.49.58,1.08.9,1.63a5.06,5.06,0,0,1-.83,3.3c-2.29,2.95-.47,3.66,2.18,3.89A116.54,116.54,0,0,1,192.72,309.9Z" fill="#c69676"/><path d="M230.56,303.49c3.07-5.22,4.76-11.2,8.75-15.92a41.28,41.28,0,0,1,1.33,12.07C237.47,301.42,234.54,303.81,230.56,303.49Z" fill="#be8b6b"/><path d="M260.58,167c-.07,2.35,2.29,2.57,3.4,3.89,2.23,2.64,5.36,5,6.4,8.09,3.38,10,13.25,12.59,20,18.65q-1.19,12.06-2.37,24.14a17.39,17.39,0,0,0-.38,2.44c.28,6.1-.34,6.58-6.15,4.44-8.75-3.23-16.37-7.73-21.14-16.34-1.79-3.24-1.49-6.61-2.2-10.56-3.5,2.64-2.67,6.88-5.77,10,1.51-9.71,4.67-17.5,12.76-22.06,4.17-2.36,4-4.78,1.64-8-3-3.94-5.95-7.88-10.09-10.68-1.5,1.21-.41,1.89.17,2.57,4.83,5.77,5.33,8.46,1,14.41a80.28,80.28,0,0,1-18.75,18.4c-1.3.9-3.09,1.1-4.65,1.62-3.33.07-5.94-1.91-8.8-3.14a98.53,98.53,0,0,0-25.23-7c-4.32-.6-6-2.81-5.92-7,.12-5.47,0-10.94,0-16.4s3.37-10.61,8.44-12.19c4.38-1.36,8.83-2.87,13.57-2.53,4.94.3,9.92-.49,14.84.89,1.9.53,4.15.45,4.31-2.54a13.87,13.87,0,0,0,7.86,1.66l4.64,1.89,3.69,2.1C253.27,169.07,257.63,166.07,260.58,167Z" fill="#e1c3af"/><path d="M66.78,539.09c.5-.51.77-.29.91.3A2.44,2.44,0,0,1,66.78,539.09Z" fill="#dcbaa1"/><path d="M94.59,197.22c5.39-3,9.41-8.31,15.89-9.46,4.8.53,7.94,4.49,12.28,6h0c4.28,6,4.4,12.37,1,18.8A28.22,28.22,0,0,1,109,225.83c-1.06.44-2,1.19-3,1.67-7.52,3.39-8.82,2.38-9.35-5.66C96.09,213.62,94.34,205.5,94.59,197.22Z" fill="#e1c3af"/><path d="M149.74,208.07c-8-2.65-13.24-8.93-18.73-14.78a60.48,60.48,0,0,1-5.51-6.95c-2.78-4-1.81-7.71,1.28-11.2,6.46-7.32,15.3-10.6,23.9-14.31l3-.14,1.06-.8c7,.13,13.94-.7,20.84.93,9.66,2.29,16,6.47,15.1,18-.31,4-.08,8,0,12,0,3.15-1.12,6.05-4.26,6.54-12.21,1.89-23.72,6-35.11,10.53A5.94,5.94,0,0,1,149.74,208.07Z" fill="#dcbaa1"/><path d="M150.54,157.3l-1.92,1.27c-3.17,1.61-6.68,1.19-10,1.69-3.38-1.19-2.29-3.94-2.22-6.34,2.82-.34,6.75.94,6.23-4.28.43-1.54.86-3.09,1.28-4.64,6.54-2.6,12.3-6.9,19.18-8.78,2.21-.6,4.31-1.7,6.71-1.4,1.5,4.48,0,9.32,1.7,13.78C164.48,151.5,157,153.06,150.54,157.3Z" fill="#181818"/><path d="M215.42,126.07q-.31,4.43-.65,8.87c-.33,4.66-1.48,9.25-1.13,14-1.09,2.86-1.06,5.86-1.09,8.86-8.1.52-14.51,4.36-19.93,10.14a2.08,2.08,0,0,1-1.11-1.95c.05-1.36.09-2.71.13-4.07,4.64-5,7.32-11.38,11.1-17C207,138.64,209.6,131.27,215.42,126.07Z" fill="#e1c3af"/><path d="M191.64,161.89c0,1.36-.08,2.71-.13,4.07-5.75-3.47-11.37-7.23-18.25-8.22-1.5-.22-1.52-1.52-1.56-2.7l-.24-6.44c-1.68-4.46-.2-9.3-1.7-13.78q-.12-4-.25-7.95c4.1,2.71,5.53,7.31,7.91,11.23C182.23,146,186.91,154,191.64,161.89Z" fill="#d6ac8e"/><path d="M154.7,159.89l-1.06.8C153.88,160.27,153.35,158.83,154.7,159.89Z" fill="#c69676"/><path d="M212.55,157.77c0-3,0-6,1.09-8.86,7.64,2.42,15.36,4.64,22.09,9.24-.16,3-2.41,3.07-4.31,2.54-4.92-1.38-9.9-.59-14.84-.89C216.31,157,214,158.14,212.55,157.77Z" fill="#d6ac8e"/><path d="M191.69,72.14c8.84-1,15.61,2.83,21.34,9.09.44.47,1.05,1.13,1,1.65-.8,7.72,4.14,14.51,3.55,22.17.63,5.63-1.35,11.08-1.05,16.69l-.1.1-.75,1.12a1.76,1.76,0,0,1-.26.83c-6.88,2.42-13.75,5.57-20.68.06-.44-.35-1.27-.22-1.91-.32q-.11-22.56-.21-45.12C192.6,76.28,193,74.08,191.69,72.14Z" fill="#e1c3af"/><path d="M192.83,123.53c.64.1,1.47,0,1.91.32,6.93,5.51,13.8,2.36,20.68-.06v2.28c-5.82,5.2-8.44,12.57-12.68,18.84-3.78,5.6-6.46,11.93-11.1,17-4.73-7.93-9.41-15.9-14.22-23.79-2.38-3.92-3.81-8.52-7.91-11.23-1-.91-.6-2-.44-3.08,6.74,2.45,13.44,6,20.37.3C190.2,123.46,191.68,123.7,192.83,123.53Z" fill="#be8b6b"/><path d="M235.73,158.15c-6.73-4.6-14.45-6.82-22.09-9.24-.35-4.72.8-9.31,1.13-14,8.42.25,15.3,4.66,22.43,8.33,1.31.68,2.37,1.81,4,1.78.16,1.21.33,2.42.49,3.63-.5,4.94,4.88,3.59,6.59,6.17v3c-1.61.56-3.37.75-4.67,2A13.87,13.87,0,0,1,235.73,158.15Z" fill="#181818"/><path d="M241.68,148.68c-.16-1.21-.33-2.42-.49-3.63.1-3.08.19-6.15.29-9.22V120c.46-1.7-.75-3.83,1.31-5.12l5.69.24q.06,12.87.14,25.75c-4-.54-6.87.21-6,5.28A2.22,2.22,0,0,1,241.68,148.68Z" fill="#7a797a"/><path d="M216.53,121.74c-.3-5.61,1.68-11.06,1.05-16.69l4-1.39C226.93,108.85,224,119.39,216.53,121.74Z" fill="#d6ac8e"/><path d="M241.48,120v15.87c-4.78,1-6.65-1-5.95-5.73a15.51,15.51,0,0,0,0-4.41C234.84,120.93,236.68,119,241.48,120Z" fill="#3b3a39"/><path d="M215.68,123l.75-1.12Z" fill="#d6ac8e"/><path d="M192.83,123.53c-1.15.17-2.63-.07-3.39.56-6.93,5.7-13.63,2.15-20.37-.3l-.57-1.7c-1.54-5.56-.26-11.34-1.25-16.94l-.24-2.23c.09-.11.26-.24.24-.31a3.87,3.87,0,0,0-.33-.68c1.62-6.21,2.51-12.68,4.17-18.72,1.84-6.65,9-9.24,15.66-10.81a26.1,26.1,0,0,1,4.94-.26c1.27,1.94.91,4.14.93,6.27Q192.74,101,192.83,123.53Z" fill="#d6ac8e"/><path d="M143.87,145c-.42,1.55-.85,3.1-1.28,4.65a3.1,3.1,0,0,1-.79-3.21c.75-4.25-1-6.16-5.23-5.82q.09-12.81.2-25.6l5.11-.09c3.52,1,.16,3.55,1.18,5.1-.86,5.66.28,11.26.59,16.88C143.72,139.6,143.8,142.3,143.87,145Z" fill="#7a797a"/><path d="M143.65,136.91c-.31-5.62-1.45-11.22-.59-16.88,6.62-.3,6.62-.3,6.62,6.13a35.38,35.38,0,0,0,0,4.49C150.31,135.34,148.57,137.63,143.65,136.91Z" fill="#3b3a39"/><path d="M167.25,105.15c1,5.6-.29,11.38,1.25,16.94-7.39-2.42-10.52-12.31-5.81-18.33Z" fill="#be8b6b"/><path d="M166.92,101.93a3.87,3.87,0,0,1,.33.68c0,.07-.15.2-.24.31Z" fill="#be8b6b"/><path d="M122.76,193.73c-4.34-1.48-7.48-5.44-12.28-6,1.78-7.4,6.15-13.11,11.74-18,1-.84,2.43-1.25,2.58-2.83l6.83-.23c-2.84,2.76-5.62,5.59-8.56,8.24s-4.76,6.25-7.07,9.43c-1.31,1.79-1.25,2.92,1.29,3.91S122.78,190.09,122.76,193.73Z" fill="#d6ac8e"/><path d="M138.58,160.26c3.36-.5,6.87-.08,10-1.69-.09.49,0,1.31-.29,1.41-5.57,2.31-11.17,4.53-16.77,6.77.43-1.34.85-2.67,1.27-4C135,162.49,136.77,161.33,138.58,160.26Z" fill="#d6ac8e"/><path d="M327,147.16c-.85-12.28-.2-24.57-.32-36.85a7.4,7.4,0,0,1,.83-2.31l9.86-.24c0,11.13-.2,22.27.18,33.39.17,4.83-1.3,6.68-6.07,6A27.94,27.94,0,0,0,327,147.16Z" fill="#7a797a"/><path d="M263.57,108.12c1.52,4.52.61,9.18.66,13.77.1,8.76-.12,17.52-.21,26.28l-.47-.16c-3.14-.95-7.41,1.36-9.4-1.25s-.59-6.69-.62-10.12c-.08-9.55,0-19.11,0-28.67Z" fill="#7a797a"/><path d="M248.62,140.83q-.08-12.87-.14-25.75l1.85-.29c.56,12.39.41,24.78.07,37.18l-1.68.95Q248.68,146.88,248.62,140.83Z" fill="#a6a6a9"/><path d="M248.72,152.92l1.68-.95c-.39,4.06.93,7.89,1.52,11.83l-3.69-2.1,0-3.9v-3Z" fill="#e8e8e8"/><path d="M264.14,164.73l.09,1.13-.66-.17Z" fill="#7a797a"/><path d="M264.54,161.84c.72.35.62.68,0,1Z" fill="#bebdbd"/><path d="M47.64,108.15l10.08.14q-.11,19.38-.2,38.76c-9.83.13-9.83.13-9.85-9.51Z" fill="#7a797a"/><path d="M120.78,108.32l10.18.08c1.23,11.86.26,23.76.6,35.63.08,2.81-1.17,3.85-3.88,3.74-2.31-.1-4.62.07-6.94.12Z" fill="#7a797a"/><path d="M136.77,115q-.11,12.8-.2,25.6c-1.68,3.3-.15,6.9-.95,10.28l-1.26.16c-.46-12.72-1.1-25.45.32-38.16A2.13,2.13,0,0,0,136.77,115Z" fill="#a6a6a9"/><path d="M134.36,153.81c.51,1.42.79,2.82-.32,4.11C134.14,156.55,134.25,155.18,134.36,153.81Z" fill="#a6a6a9"/><path d="M131.44,107a2,2,0,0,1,0-2.24A2.07,2.07,0,0,1,131.44,107Z" fill="#7a797a"/><path d="M206.51,558.29l-27.94-.11q.06-51.91.11-103.81c5.8-5.62,11.69-11.16,17.36-16.91,2.39-2.41,5.55-4.24,6.65-7.77l4-.19q-.08,56.91-.13,113.81Q206.53,550.81,206.51,558.29Z" fill="#bebdbd"/><path d="M206.68,429.5l-4,.19a234.38,234.38,0,0,0-24.15-.13c-11.63-.09-23.26-.21-34.9-.25-3.91,0-7.24-.88-9-4.84-.16-.36-.32-.72-.47-1.08-1-6.25-.25-12.53-.26-18.79l.23-.16c1,.13,2,.09,2.53-1l-.05,0a1.89,1.89,0,0,0,2.05-1l-.05,0,108.45-.06a.52.52,0,0,1,.51.1c0,1.93,1,2.95,2.94,3,.14,4.95.53,9.91.35,14.85-.22,6.11-3.32,8.89-9.51,8.95C229.83,429.4,218.25,429.43,206.68,429.5Z" fill="#4f4f51"/><path d="M178.54,429.56a234.38,234.38,0,0,1,24.15.13c-1.1,3.53-4.26,5.36-6.65,7.77-5.67,5.75-11.56,11.29-17.36,16.91Z" fill="#a6a6a9"/><path d="M131.66,399.31c.75,2.06-2,3.93-.31,6-6.84,4.7-13.59,2.19-20.34-.24C117.69,402.47,124.8,401.31,131.66,399.31Z" fill="#181818"/><path d="M134.21,423.39c.15.36.31.72.47,1.08Z" fill="#7a797a"/><path d="M250.56,405.47c-2,0-2.9-1-2.94-3l5,2.79Z" fill="#7a797a"/><path d="M310.2,545.26c0,.66,0,1.32,0,2C309.39,546.58,309.38,545.92,310.2,545.26Z" fill="#e8e8e8"/><path d="M132.82,393.58c1,1.68,1.71,3.33-.42,4.72Z" fill="#181818"/><path d="M224.59,245.61c1.9,3.89.68,8,1,12.06-2.69,2.25-5.65,4.8-9.23,3.81-8.43-2.35-17.37-3.41-24.72-8.81a41.05,41.05,0,0,0,1-10.88c2.12-1.9,4.25-3.62,7.45-3.09,6.21,1,12.33,2.49,17.91,5.42A10.7,10.7,0,0,0,224.59,245.61Z" fill="#dcbaa1"/><path d="M213.56,284.54c-6.29-.17-12.65,1.17-18.82-1l-2.06-1.94-.06-15.93c1.41-1.16,2-3.42,4.72-2.64,4.7,1.37,9.63,2.08,14.2,3.77,3.88,1.44,7.39,2.39,11.07-.11,1,4.87,2.92,9.74,0,14.6Z" fill="#dcbaa1"/><path d="M192.68,227.66c0-1.32,0-2.65,0-4,0-6.24,1.36-7.66,7.55-6.87,8.56,1.08,16.18,5.19,24.12,8.18,4.22,1.59,5.79,5.19,5.26,9.65l-1,1.07,0,0c-3.34.75-6.5,2.8-10.09,1.81-5.87-1.61-11.67-3.51-17.56-5C197.68,231.62,194.78,230.4,192.68,227.66Z" fill="#dcbaa1"/><path d="M192.68,227.66c2.1,2.74,5,4,8.27,4.81,5.89,1.52,11.69,3.42,17.56,5,3.59,1,6.75-1.06,10.09-1.81,0,3.85-3.28,6.37-4,9.92a10.71,10.71,0,0,1-6.56-1.49c-5.58-2.93-11.7-4.39-17.91-5.42-3.2-.53-5.33,1.19-7.45,3.09-7.87-6.43-15.79-2.07-22.72,1.13-9.13,4.22-9.51,4.43-14.67-7.26C169.15,239.87,181,234.29,192.68,227.66Z" fill="#c69676"/><path d="M222.61,266.66c-3.68,2.5-7.19,1.55-11.07.11-4.57-1.69-9.5-2.4-14.2-3.77-2.69-.78-3.31,1.48-4.72,2.64-1.7-2.3-3.45-3.49-6.69-2.29-5.37,2-11.21,2.26-16.48,5-4.13,2.12-7.49-1.09-9.34-8.6,5.49,3.41,10.61,1.67,15.76-.11,3.12-1.08,6.27-2.35,9.51-2.76a7.84,7.84,0,0,0,6.27-4.19c7.35,5.4,16.29,6.46,24.72,8.81,3.58,1,6.54-1.56,9.23-3.81C226.42,261.27,222.33,263.24,222.61,266.66Z" fill="#c69676"/><path d="M213.56,284.54l9-3.28c-.66,6.39-3.38,12.23-5,18.37-.32-.55-1-1.14-.9-1.63C217.38,293.09,215.53,288.81,213.56,284.54Z" fill="#be8b6b"/><path d="M228.57,235.72l1-1.07C230.54,236.21,229.05,235.49,228.57,235.72Z" fill="#c69676"/><path d="M138.71,402.43a1.89,1.89,0,0,1-2.05,1C137,402.47,137.82,402.37,138.71,402.43Z" fill="#7a797a"/><path d="M136.71,403.43c-.54,1.1-1.5,1.14-2.53,1A3.14,3.14,0,0,1,136.71,403.43Z" fill="#7a797a"/><path d="M248.26,157.8l0,3.9-4.64-1.89C244.89,158.55,246.65,158.36,248.26,157.8Z" fill="#3b3a39"/><path d="M136.36,153.92c-.25-1-.49-2-.74-3,.8-3.38-.73-7,.95-10.28,4.28-.34,6,1.57,5.23,5.82a3.1,3.1,0,0,0,.79,3.21C143.11,154.86,139.18,153.58,136.36,153.92Z" fill="#3b3a39"/><path d="M248.72,152.92l-.45,1.93c-1.71-2.58-7.09-1.23-6.59-6.17a2.22,2.22,0,0,0,1-2.57c-.91-5.07,1.93-5.82,6-5.28Q248.67,146.88,248.72,152.92Z" fill="#3b3a39"/></g></g></svg>