<svg xmlns="http://www.w3.org/2000/svg" viewBox="0 0 296.13 635.82"><title>ex_d2_8_1</title><g id="Layer_2" data-name="Layer 2"><g id="Layer_1-2" data-name="Layer 1"><path d="M226.36,579c9,2.91,17,7.43,21.84,15.81,3.86,6.66-.27,15.73-8.55,20.92-14.59,9.13-30.75,13.62-47.55,16.13-15.38,2.29-30.82,4.34-46.4,3.95-12.72-.33-25.32-2.08-37.95-3.68a150.88,150.88,0,0,1-44.31-12.28c-6.54-3-12.64-7-15.7-14.34-1.87-4.49-1.6-8.79.92-12.33,5.34-7.49,12.93-12,21.89-14.21-1,1.5-1.87,3.07-3,4.49-4.05,5.24-7.46,10.7-6.88,17.72-.87,4.7,1.83,7.2,5.67,8.72,7.6,3,15.34,2.29,23,.38,5.85-1.45,9-5.24,9.17-11.39l-.11.1.9-.81,1.83-7.82c.14-7.37.8-14.64,4.22-21.36,14-1.48,27.94-3,42-3,14.58-.07,29,1.67,43.52,2.91,2.72,4.94,2.42,10.71,4.4,15.85-.83,4.88.06,9.56,1.58,14.18,1.34,4.09,2.23,8.54,6.93,10.32,8.34,3.15,16.85,3.75,25.37.92,4.08-1.35,7.06-3.84,6-8.86.45-4.81.22-9.14-3.52-13.18C229.47,585.62,226.43,583,226.36,579Z" fill="#ebece6"/><path d="M176.39,40.76c1.34,0,2.55-.13,3.1,1.66,1.74,5.78-1.17,13-6.61,16.53-2.58,1.67-2.07,4.75-2.33,7.17-.47,4.27-.06,8.62-.19,12.94-.06,2.35,1.28,3.72,2.95,4.85,7.94,5.41,16,10.72,23.88,16.16,3.19,2.2,6.72,1.45,10.15,1.53,13.71.31,24.2,6.07,31,18.12.89,1.57,1.94,3.11,1.88,5-1.38,1.16-.7,2.78-.91,4.2-1.55,10.16-7.44,14.82-17.55,13.6a85.74,85.74,0,0,1-9.14-2.12c-.47-2.6.05-5.44-1.88-7.82-.42,8.87-4.77,15-12.27,19.05a10.53,10.53,0,0,1-2.84.83c-10.31.07-20.62.27-30.92,0-6-.17-12.38-6-14.07-11.72s-.93-11.87-1.12-17.81c-.2-6.74-.82-13.61,7.14-17.88-3.44-.6-5,1.59-7.15,1.64a1.94,1.94,0,0,1-1-1.93c2-4.13,4.27-8.16,6-12.41,2.25-5.58,6.13-10.49,7-16.64l4.94-6.22c-6.31,1.75-10.69,7.81-17.94,5.74l-.14-63.91A32.84,32.84,0,0,1,166.79,16c1.37.84,3.39,1.64,3.15,3.49-.91,7.31,3.54,13.62,3.59,20.74C173.56,44.44,175.42,40.6,176.39,40.76Z" fill="#dcbaa1"/><path d="M31.49,224.54c-2.49-9.24-3.34-18.37,1.95-27,5.24-2.59,9.64-6.07,12.16-11.53,1.24-2.68,2.49-5.38,3.65-8.08,2.9-6.69,7.44-12.74,8.34-20.26a37,37,0,0,0,17.25-7c3.76-2.66,5.21-1.25,6.23,2.25a15,15,0,0,1,.46,3.91c.23,15.32-8.29,26.84-16.94,38.18-3.46,4.55-3.57,8.2.82,12.49a35.94,35.94,0,0,0,.55,5.42,122.59,122.59,0,0,1,3.6,30c0,11.95.24,23.9,0,35.85s2,22.65,10.78,31.34l1.5,4.58a1.52,1.52,0,0,1-.3.82c-1.68-1.08-3.16-1.19-3.86,1.06a41.51,41.51,0,0,0-1.14,4.81c-1.31,7.14-2.52,8.49-9.64,9.73-5,.88-10.21.5-15.31.87-3.92.29-8.21-1-10.14-5.52,1.9-1.35.47-3-.14-3.91-1.59-2.26-1-4.53-.29-6.56,1.9-5.4,4.24-10.65,6.3-16A33.48,33.48,0,0,0,48.88,280c-2-8.67-4.57-17.22-6.2-26-2.56-13.78-5.09-27.62-4.12-41.78.07-1,.49-2.35-1.43-3.54a5.55,5.55,0,0,1-.44,1.2C33.87,214.39,33.44,219.73,31.49,224.54Z" fill="#dcbaa1"/><path d="M262.59,197.71a24.69,24.69,0,0,1,2.69,21.77c-2.8-.22-3.58-2.45-3.75-4.53-.21-2.68-1.77-4.2-3.24-6.19-.46.69-.78.94-.79,1.21a45.62,45.62,0,0,0-.1,5c.89,15.34-2.24,30.16-5.66,44.95-1.88,8.18-4.16,16.34-5.17,24.65-1.31,10.74,3.68,20.28,8,29.69.9,2-.85,5.46,2.84,6.11.44,2.16-.41,4-1.29,5.91-2.84,2-5,4.57-9,5.41-5.94,1.27-11.44-.55-17.14-.64-6.1-.1-9.86-2.75-10.07-9.39-.05-1.74-1-3.46-1.6-5.18-.78-2.25-2.2-2.09-3.84-1a1,1,0,0,1-.2-.76l1.57-5.39c4.62-5,9.16-10,9.7-17.36,1-13,1.65-26,1-39.08a149.45,149.45,0,0,1,4.83-45.19c1-3.56,5.37-6.79,1.66-10.86-6.91-7.59-11.39-16.6-15.86-25.67-3.16-6.42-3.28-13-1.5-19.78.71-2.7,2-3.42,4.63-1.49a41.54,41.54,0,0,0,18.08,7.73,26.94,26.94,0,0,0,1,3.81c2,4.83,4,9.69,6.29,14.41C249.75,184.3,253.3,193.24,262.59,197.71Z" fill="#dcbaa1"/><path d="M211.32,388.08c-2,13.38,1.05,26.71.36,40.15-.44,8.64,1.69,17.44,3,26.13,1.54,10.44,1,20.93.41,31.34q-2.09,33.62-1.55,67.24c-2.52,1.83-5.33.87-8,.85,0-19.92-.24-39.84,0-59.76.26-21-6.11-39.69-18.48-56.38-2.34-3.16-4.3-7.13-8.62-8.46-6.34-8.23-8.72-17.87-9.95-27.92,9-1.26,17.4-4.57,26-7.26,1.21-.38,2.58-.74,3-2.23Z" fill="#d6ad8f"/><path d="M82.77,552q0-15.48,0-31c.11-.1.32-.23.3-.29a3.81,3.81,0,0,0-.35-.7c-.69-15.24-1.43-30.47-2.05-45.71-.55-13.49,1.38-26.78,3.44-40.06a35.77,35.77,0,0,0,.55-6.92c-.36-8.81-.35-17.58,1.27-26.28,8.78.24,16.58-3.58,24.71-6,.46-.14.7-1,1-1.55l18.75-2.12c-.62,2.55-1.3,5.08-1.84,7.65-2.13,10.14-3.56,20.51-10.06,29.13a3.51,3.51,0,0,0-2.63,1.21c-7.35,8.35-13.77,17.36-18.12,27.62-5.28,12.48-7.34,25.63-7.22,39.16.13,16.23-.41,32.48,1,48.68.43,4.73.22,8.8-6,9l-1.95-.24Z" fill="#d6ad8f"/><path d="M148.38,11.36q.08,31.95.14,63.91c-7.48,2.22-12.49-3.8-18.64-6.1,7.05,10.69,10.56,22.75,16.58,33.53a2,2,0,0,0,2.08,2.1,1.94,1.94,0,0,0,1,1.93c-2.82,2.73-4.64-1.21-7.07-1l0,0c-.72-1.2-1.92-1-3-1l0,0c-.71-1.24-1.93-1-3-1l0,0c-.29-.56-.6-.66-1,0-8.18-2-16.52-.24-24.72-1.06-8.78-.88-13.56,4.34-18,10.5a42.06,42.06,0,0,0-7.14,17.51c-1.64.86-.55,3.08-2,4-2.53-7.82-3-15.89-3.17-24C80.4,107,82,105,85.14,104c2.75-.89,5.59-1.51,8.39-2.24,3.83-.11,6.49-2.49,9.41-4.55,1.47-1,2.77-2.85,5-2.52,4.62-1.55,9.21-3.21,13.87-4.6,5.08-1.51,5.53-2.26,3.57-7.51.33-7.68,1-15.37-.85-23l-.89-.88-.08-.08c-1.36-5.26-1-10.65-1.1-16-1.21-5.87,2.86-10.7,3.2-16.27.56-9.25,2-11,11-13.57A34.28,34.28,0,0,1,148.38,11.36Z" fill="#d6ad8f"/><path d="M205.47,553.79c2.71,0,5.52,1,8-.85,3.73-1.48,4.69,0,5.06,3.74.5,5.14.65,10.39,2.66,15.36,1.15,2.84,2.48,5.31,5.13,6.93.07,4,3.11,6.65,5.37,9.1,3.74,4,4,8.37,3.52,13.18a10,10,0,0,1-9.87,3.21c-3.46-.66-6.93-.35-10.39-.28a2.27,2.27,0,0,0-2.55.43,8.34,8.34,0,0,1-5,0,36.89,36.89,0,0,1-4.09-21.36,17.44,17.44,0,0,0-.49-3.39c-1-8.72-4.71-16.65-7.48-24.84C198.38,551.41,202.15,554.42,205.47,553.79Z" fill="#dad8eb"/><path d="M83.62,553.63l1.95.24c5,1.39,10-2.21,14.94.38.29,2.07-.6,3.81-1.39,5.65a74.33,74.33,0,0,0-5.83,21.2c-.88,8,1.18,17-5.77,23.62h-2c-.3-.5-.62-.55-1-.05-4.31,0-8.57-1.32-12.91-.32a11.06,11.06,0,0,1-10.95-3.21c-.58-7,2.83-12.48,6.88-17.72,1.09-1.42,2-3,3-4.49,5.26-6.2,6.64-13.66,7-21.45.14-3.19.29-6.21,4.89-4.53Z" fill="#dad8eb"/><path d="M211.32,388.08l-13.86,3.7-1.19-.31q.76-15,1.52-30c2.49-1.2,6.41,2.21,7.85-2.42.78-2.34,2.1-4.64,2.25-7,.43-6.94.4-13.9.56-20.86l7.78,0,1.68,4.19c1.08,13.33,1.81,26.7,3.38,40,.7,5.93-1.49,8.95-6.52,10.92A30.36,30.36,0,0,0,211.32,388.08Z" fill="#34b0b8"/><path d="M84.72,388.08c-9-2.88-10.78-8.83-9.37-17.79,1.81-11.53,2-23.3,2.92-35,.51-1.4,1-2.81,1.54-4.22h7.77c0,2.81,0,5.61.11,8.42.14,6.35-1,12.89,2.77,18.71.24,1-.37,2.27,1,2.88,2.31.85,5-.6,7.16,1.15.08,1.68.17,3.36.26,5l.06.94q.42,11.59.83,23.2C94.51,391.33,89.86,388.61,84.72,388.08Z" fill="#34b0b8"/><path d="M238.38,157.63a41.54,41.54,0,0,1-18.08-7.73c-2.61-1.93-3.92-1.21-4.63,1.49-1.78,6.75-1.66,13.36,1.5,19.78,4.47,9.07,9,18.08,15.86,25.67,3.71,4.07-.63,7.3-1.66,10.86-10.86-9.18-18.14-20.7-22.53-34.16-.44-1.34.26-3.62-2.29-3.77a230.62,230.62,0,0,0,6.09-29.33,83.42,83.42,0,0,0,9.14,2.13c10.11,1.22,16-3.44,17.55-13.6.21-1.42-.47-3,.91-4.2.58,1.91,1.41,3.77,1.17,5.84a1.22,1.22,0,0,0,.2.89l.48,4.13c-.09.11-.29.25-.27.31a4.1,4.1,0,0,0,.36.69q0,6.51,0,13C239.18,151.5,240.44,155.35,238.38,157.63Z" fill="#c69575"/><path d="M65.41,207.44c-4.39-4.29-4.28-7.94-.82-12.49,8.65-11.34,17.17-22.86,16.94-38.18a15,15,0,0,0-.46-3.91c-1-3.5-2.47-4.91-6.23-2.25a37,37,0,0,1-17.25,7c-2.14-4.42-2-9.44-3.71-14,0-2-.05-4-.07-6a1.14,1.14,0,0,0,.13-2l.3-2.09c.08-.35.17-.71.25-1.06a17.51,17.51,0,0,1,1.14-6.8c1.5,1,1,2.45,1.29,3.89,1.34,7.84,6.41,13.9,14.88,13.25a31.17,31.17,0,0,0,11.66-3.31,143.5,143.5,0,0,0,5.9,30.37c-1.32.41-1.54,1.54-1.88,2.69C83.5,186.32,75.89,197.79,65.41,207.44Z" fill="#c69575"/><path d="M83.46,139.52a31.17,31.17,0,0,1-11.66,3.31c-8.47.65-13.54-5.41-14.88-13.25-.24-1.44.21-2.93-1.29-3.89,3.2-12.92,16.21-23.19,30.49-24,2.46-.14,4.94,0,7.41,0-2.8.73-5.64,1.35-8.39,2.24-3.13,1-4.74,3-4.66,6.61.18,8.15.64,16.22,3.17,24C83.58,136.26,83.52,137.89,83.46,139.52Z" fill="#dcbaa1"/><path d="M148.38,11.36a34.28,34.28,0,0,0-11.7,1.42c-9,2.54-10.45,4.32-11,13.57-.34,5.57-4.41,10.4-3.2,16.27l-2.9-2.76c.06-3.65.39-7.33.12-11C118,6.33,141.7-5.65,160.32,2.63c10.59,4.7,16.21,12.83,16,24.65-.06,4.49,0,9,0,13.48-1-.16-2.83,3.68-2.86-.51-.05-7.12-4.5-13.43-3.59-20.74.24-1.85-1.78-2.65-3.15-3.49A32.84,32.84,0,0,0,148.38,11.36Z" fill="#343332"/><path d="M257.38,320.33c-3.69-.65-1.94-4.12-2.84-6.11-4.29-9.41-9.28-19-8-29.69,1-8.31,3.29-16.47,5.17-24.65,3.42-14.79,6.55-29.61,5.66-44.95a45.62,45.62,0,0,1,.1-5c0-.27.33-.52.79-1.21,1.47,2,3,3.51,3.24,6.19.17,2.08,1,4.31,3.75,4.53A173.25,173.25,0,0,1,255,273.55c-5.17,14.52-2.89,27.6,2.34,41C257.37,316.48,257.37,318.41,257.38,320.33Z" fill="#d6ad8f"/><path d="M31.49,224.54c1.95-4.81,2.38-10.15,5.2-14.65a5.55,5.55,0,0,0,.44-1.2c1.92,1.19,1.5,2.5,1.43,3.54-1,14.16,1.56,28,4.12,41.78,1.63,8.74,4.19,17.29,6.2,26a33.48,33.48,0,0,1-1.56,19.93c-2.06,5.35-4.4,10.6-6.3,16-.71,2-1.3,4.3.29,6.56.61.88,2,2.56.14,3.91l-1.33.24c-2.29-3.51-1.46-7.46-1.56-11.27,1.89-6.33,3.92-12.63,5.63-19,1.51-5.64.1-11.09-1.47-16.55C37.49,261.66,32,243.6,31.49,224.54Z" fill="#d6ad8f"/><path d="M53.88,143.64c1.68,4.54,1.57,9.56,3.71,14-.9,7.52-5.44,13.57-8.34,20.26-1.16,2.7-2.41,5.4-3.65,8.08-2.52,5.46-6.92,8.94-12.16,11.53,1.37-15.61,8-29.25,16.51-42C52.48,151.73,53.92,148,53.88,143.64Z" fill="#d6ad8f"/><path d="M238.38,157.63c2.06-2.28.8-6.13,3.78-8,10.4,14.49,19.11,29.69,20.43,48-9.29-4.46-12.84-13.4-16.94-21.85-2.28-4.72-4.26-9.58-6.29-14.41A26.94,26.94,0,0,1,238.38,157.63Z" fill="#d6ad8f"/><path d="M281.43,348.31a57.56,57.56,0,0,1-1.11,6.32c-2,6.88-3.74,7.77-10.83,6.78-3-.43-1.73-2.66-2.36-4.08q.22-7.45.44-14.92c2.16,0,4.33-.19,6.48-.07,2.91.17,4.26-.85,4.22-4-.17-11.79-.19-23.59-.27-35.38.06-1.81,0-3.64.21-5.43.48-3.64-1.32-7.48,1-10.93.58,3.6,2.42,6.95,2.19,10.72Z" fill="#3c3e3d"/><path d="M279.24,286.64c-2.35,3.45-.55,7.29-1,10.93-.24,1.79-.15,3.62-.21,5.43-2.31.08-4.62.32-6.92.19-2.69-.15-3.84.67-3.79,3.59.2,11.88.2,23.76.28,35.63q-.22,7.47-.44,14.92c-2.85-1.49-2.68-4.27-2.72-6.81-.11-6.43,0-12.86,0-19.29a40.74,40.74,0,0,0,0-16.82c.7-8.85-1.36-17.8,1.6-26.6,1-2.86,2.24-4,4.82-3.32C273.59,285.2,277.39,282.19,279.24,286.64Z" fill="#e0dfdf"/><path d="M31.66,331.15c0,6.78,0,13.56-.05,20.34,0,1.74.43,3.91-2.48,3.83q-.28-6.49-.55-13c.08-9.41.19-18.82.23-28.24,0-10.31,0-10.31-10.31-11A3.86,3.86,0,0,1,18,303l-.07-2.63c1.25-3.51.75-7.05.22-10.59l-.22-1.65c.21-.89.41-1.78.62-2.68a10.76,10.76,0,0,1,8.66-.81c3.94,1.25,4,5.57,4.29,8.92a136.19,136.19,0,0,1,.09,14.85,20,20,0,0,0,1,6.79,8.35,8.35,0,0,0-1.56.66C32.12,320.93,31,326.08,31.66,331.15Z" fill="#e0dfdf"/><path d="M28.58,342.33q.27,6.5.55,13c-.05,1-.09,1.92-.13,2.89l-.12,1.14c-2.31,4-6.09,1.2-9.12,1.89-2.32.53-2.3-1.81-2.85-3.23s-1-3.11-1.5-4.67c0-4.29,0-8.58-.11-12.87-.33-10,.72-20.11-.57-30.14q.16-6,.31-11.94l.37-6.05,1.35-4.75,1.18.54c.07.55.15,1.1.22,1.65-.86,3.51-.46,7.05-.22,10.59,0,.88,0,1.75.07,2.63-.09,9.46-.21,18.92-.26,28.38C17.7,342.37,17.72,342.37,28.58,342.33Z" fill="#343332"/><path d="M40.12,326.61l1.33-.24c1.93,4.49,6.22,5.81,10.14,5.52,5.1-.37,10.27,0,15.31-.87,7.12-1.24,8.33-2.59,9.64-9.73a41.51,41.51,0,0,1,1.14-4.81c.7-2.25,2.18-2.14,3.86-1.06.24,5.32-2.6,10.3-1.73,15.69l-1.54,4.21c-3.91,2.62-8.35,3-12.87,3.05s-9.3-.17-13.93.1c-4.44.26-7.91-.92-9.62-5.25-1.26-3.16-4.18-1-6-2.16C37.88,330.19,42,331.31,40.12,326.61Z" fill="#c69575"/><path d="M217.91,335.32c-.56-1.4-1.12-2.8-1.67-4.19.93-5.39-1.54-10.39-1.78-15.65,1.64-1.13,3.06-1.29,3.84,1,.59,1.72,1.55,3.44,1.6,5.18.21,6.64,4,9.29,10.07,9.39,5.7.09,11.2,1.91,17.14.64,4-.84,6.14-3.39,9-5.41.43,1.6-1.79,3.77,1.05,4.85-.83.48-2.19.79-2.41,1.46-1.93,5.95-6.61,6.08-11.62,5.88-6.1-.24-12.21-.22-18.31-.53A13.54,13.54,0,0,1,217.91,335.32Z" fill="#c69575"/><path d="M290.31,331.1c-1.29,4.49.84,9.34-1.42,13.73a16.29,16.29,0,0,1-.36-3.9c.74-4.77-1.41-6.26-5.81-5.45-.1-7-.14-13.92-.31-20.88-.07-2.74,0-5,3.79-4.63,2,.19,2.21-1.44,2.31-3.08.13-2.09-.68-4.31.72-6.26,1.53,4.55,0,9.33,1.08,13.92A33.84,33.84,0,0,0,290.31,331.1Z" fill="#787878"/><path d="M6.91,342.25c-1.56-2.35-.63-5-.72-7.47-.07-2-.41-3.46-2.64-3.81,1-.92,3.09-.55,2.9-2.76-.39-4.54.84-9.18-.8-13.66q.52-7,1.06-14a2.79,2.79,0,0,1,.91,3.13c-1,5.15,1.51,6.77,6.12,6.57q-.2,12.6-.38,25.19c-3.86-.58-6.63.06-5.81,5C7.64,341,7.14,341.65,6.91,342.25Z" fill="#787878"/><path d="M84.72,388.08c5.14.53,9.79,3.25,15,3.35,3.76,1.86,8.19-.08,11.9,2.07-.34.53-.58,1.41-1,1.55-8.13,2.43-15.93,6.25-24.71,6Z" fill="#b47f59"/><path d="M257.14,331.09c-2.84-1.08-.62-3.25-1.05-4.85.88-1.87,1.73-3.75,1.29-5.91,0-1.92,0-3.85,0-5.78l7-.14a40.74,40.74,0,0,1,0,16.82l-3.23-.15a.89.89,0,0,0-1.56,0Z" fill="#3c3e3d"/><path d="M289.23,300.63c-1.4,1.95-.59,4.17-.72,6.26-.1,1.64-.31,3.27-2.31,3.08-3.79-.35-3.86,1.89-3.79,4.63.17,7,.21,13.92.31,20.88-.07,4.27-1.37,8.62.72,12.77l-2,.06V297.36c1.79,0,3.58.08,5.37.07C289.06,297.42,289.55,298.7,289.23,300.63Z" fill="#e0dfdf"/><path d="M40.12,326.61c1.89,4.7-2.24,3.58-4.3,4.45l-4.16.09c-.67-5.07.46-10.22-.6-15.29a8.35,8.35,0,0,1,1.56-.66l5.94.14C38.66,319.15,37.83,323.1,40.12,326.61Z" fill="#343332"/><path d="M290.31,331.1a33.84,33.84,0,0,1,0-16.55l4.94.13.87.74,0,14.82-.85.7Z" fill="#3c3e3d"/><path d="M5.65,314.55c1.64,4.48.41,9.12.8,13.66.19,2.21-1.93,1.84-2.9,2.76l-2.77-.15c.08-.49-.12-.7-.61-.63Q.08,324.81,0,319.43a1.27,1.27,0,0,0,0-2.18c0-.59.07-1.17.1-1.76.52.07.74-.16.67-.67Z" fill="#343332"/><path d="M119.57,39.86l2.9,2.76c.09,5.35-.26,10.74,1.1,16-2.82.38-4.26-1.4-5.22-3.59a26.43,26.43,0,0,1-1.87-12C116.57,41,117.75,40.14,119.57,39.86Z" fill="#dcbaa1"/><path d="M13.74,310.28c-4.61.2-7.17-1.42-6.12-6.57a2.79,2.79,0,0,0-.91-3.13c-.35-2.22.51-3.29,2.84-3.2,1.58.06,3.17-.05,4.75-.09.25.37.5.73.74,1.1q-.15,6-.31,11.94Z" fill="#ebece6"/><path d="M13.74,310.28l1,.05c1.29,10,.24,20.1.57,30.14.15,4.29.08,8.58.11,12.87-2.06-1.08.48-4.74-2.86-5.1,2.11-4.14,1-8.48.81-12.77Q13.56,322.87,13.74,310.28Z" fill="#c2c1c1"/><path d="M13.36,335.47c.24,4.29,1.3,8.63-.81,12.77-1.9-.55-5.13,1.4-5.11-2.73.07-.15.22-.32.19-.44a5.74,5.74,0,0,0-.4-.83l-.32-2c.23-.6.73-1.24.64-1.78C6.73,335.53,9.5,334.89,13.36,335.47Z" fill="#3c3e3d"/><path d="M283.44,348.25c-2.09-4.15-.79-8.5-.72-12.77,4.4-.81,6.55.68,5.81,5.45a16.29,16.29,0,0,0,.36,3.9C289.13,349.25,285.81,348,283.44,348.25Z" fill="#3c3e3d"/><path d="M125.39,82.56c2,5.25,1.51,6-3.57,7.51-4.66,1.39-9.25,3.05-13.87,4.6C113.29,90,119.37,86.3,125.39,82.56Z" fill="#b47f59"/><path d="M15,298.39c-.24-.37-.49-.73-.74-1.1.43-1.64-.51-3.58,1.11-5Q15.23,295.36,15,298.39Z" fill="#c2c1c1"/><path d="M17.94,288.13l-1.18-.54c-.38-1.54.2-2.26,1.8-2.14C18.35,286.35,18.15,287.24,17.94,288.13Z" fill="#c2c1c1"/><path d="M53.94,135.64a1.14,1.14,0,0,1-.13,2C53.86,137,53.9,136.3,53.94,135.64Z" fill="#d6ad8f"/><path d="M83.62,553.63l-1.2-.67c.11-.32.23-.64.35-1C83.05,552.55,83.33,553.09,83.62,553.63Z" fill="#dcbaa1"/><path d="M0,317.25a1.27,1.27,0,0,1,0,2.18C0,318.7,0,318,0,317.25Z" fill="#787878"/><path d="M259.59,331.08a.89.89,0,0,1,1.56,0Z" fill="#c69575"/><path d="M7.23,344.24a5.74,5.74,0,0,1,.4.83c0,.12-.12.29-.19.44a5.71,5.71,0,0,1-.44-.85C7,344.56,7.15,344.38,7.23,344.24Z" fill="#787878"/><path d="M295.24,330.94l.85-.7C296.18,330.92,295.9,331.16,295.24,330.94Z" fill="#787878"/><path d="M.17,330.19c.49-.07.69.14.61.63C.16,331,0,330.81.17,330.19Z" fill="#787878"/><path d="M82.68,520a3.81,3.81,0,0,1,.35.7c0,.06-.19.19-.3.29C82.71,520.69,82.7,520.36,82.68,520Z" fill="#dcbaa1"/><path d="M296.12,315.42l-.87-.74C295.94,314.46,296.21,314.72,296.12,315.42Z" fill="#787878"/><path d="M241.61,131.5a1.22,1.22,0,0,1-.2-.89,5.46,5.46,0,0,1,.39.59C241.83,131.26,241.68,131.4,241.61,131.5Z" fill="#d6ad8f"/><path d="M54.49,132.49c-.08.35-.17.71-.25,1.06C54.32,133.2,54.41,132.84,54.49,132.49Z" fill="#d6ad8f"/><path d="M.77,314.82c.07.51-.15.74-.67.67C-.08,314.86.12,314.62.77,314.82Z" fill="#787878"/><path d="M242.18,136.63a4.1,4.1,0,0,1-.36-.69c0-.06.18-.2.27-.31Z" fill="#d6ad8f"/><path d="M123.65,58.7l.89.88Z" fill="#dcbaa1"/><path d="M28.88,359.35l.12-1.14C29.7,358.67,29.56,359,28.88,359.35Z" fill="#c2c1c1"/><path d="M189.48,559c.18-2.66-.61-5.69,2.74-7.13.9,1.21,1.17,3.07,3.19,3.15,2.77,8.19,6.44,16.12,7.48,24.84a17.44,17.44,0,0,1,.49,3.39,36.89,36.89,0,0,0,4.09,21.36c-5,.86-6.81-4.2-10.53-5.73-1.52-4.62-2.41-9.3-1.58-14.18,1.9-5,1.48-10,.1-14.94C194.34,565.76,193.61,561.38,189.48,559Z" fill="#c5c2db"/><path d="M103.83,551.84c3,1.36,2.73,3.94,2.48,6.53-7.75,9.69-7.83,20.6-5.11,32l-1.83,7.82-.9.81.11-.1c-3.17,2.92-5.92,6.63-11.06,5.86,7-6.61,4.89-15.63,5.77-23.62a74.33,74.33,0,0,1,5.83-21.2c.79-1.84,1.68-3.58,1.39-5.65C102.17,554.2,103.45,553.64,103.83,551.84Z" fill="#c5c2db"/><path d="M87.52,604.72c5.14.77,7.89-2.94,11.06-5.86-.12,6.15-3.32,9.94-9.17,11.39-7.69,1.91-15.43,2.64-23-.38-3.84-1.52-6.54-4-5.67-8.72a11.06,11.06,0,0,0,10.95,3.21c4.34-1,8.6.35,12.91.32l1,.05Z" fill="#3c3e3d"/><path d="M196.94,598.87c3.72,1.53,5.51,6.59,10.53,5.73a8.34,8.34,0,0,0,5,0,2.87,2.87,0,0,0,2.55-.43c3.46-.07,6.93-.38,10.39.28a10,10,0,0,0,9.87-3.21c1.05,5-1.93,7.51-6,8.86-8.52,2.83-17,2.23-25.37-.92C199.17,607.41,198.28,603,196.94,598.87Z" fill="#3c3e3d"/><path d="M101.2,590.33c-2.72-11.36-2.64-22.27,5.11-32,1,3.64-.41,7.08-.89,10.6C102,575.69,101.34,583,101.2,590.33Z" fill="#3c3e3d"/><path d="M189.48,559c4.13,2.39,4.86,6.77,6,10.76,1.38,4.92,1.8,10-.1,14.94-2-5.14-1.68-10.91-4.4-15.85A26.39,26.39,0,0,1,189.48,559Z" fill="#3c3e3d"/><path d="M98.47,599l.9-.81Z" fill="#3c3e3d"/><path d="M142.46,105.68c2.43-.16,4.25,3.78,7.07,1,2.16,0,3.71-2.24,7.15-1.64-8,4.27-7.34,11.14-7.14,17.88.19,5.94-.6,11.94,1.12,17.81s8.05,11.55,14.07,11.72c10.3.28,20.61.08,30.92,0a10.53,10.53,0,0,0,2.84-.83c.09.49,0,1.23.3,1.42,6.65,4.42,4.64,10.65,3.88,16.83-.39,3.14-1.17,6.55.72,9.62-.28.76-.52,1.54-.85,2.28-3.08,6.87-7,13.38-9.16,20.65-1.65-2.78-1.6-5.9-2-9-1.06-8.08-.72-16.48-5-23.91-.19-2.11-1.89-2.53-3.47-3-10.45-3.21-20.83-6.6-30.41-12-3.23-7.2-4.05-7.39-9.25-2.18a26.16,26.16,0,0,1-6.14,5c-7.08,3.75-14.68,6.1-22.25,8.48-3.55,1.11-4.74,2.48-3.56,6.37,1.08,3.56,3.4,4.41,6.31,4.28a59.74,59.74,0,0,0,30.8-9.88,9.46,9.46,0,0,0,6.17,4.51c4,1.05,8,2,11.82,3.37,6.55,2.41,12.9,3.53,19-1-1.07,3.94-4.35,6.87-5,11-2-.05-4,.53-5.85-.53-5.22-3-11-4.34-16.75-5.85-4.12-1.08-7.11-.1-9.39,3.41-4.14-3.56-8.74-4.78-14-2.82-2.78,1-5.8,1.56-8.38,2.95-3.22,1.73-7.46,1.84-9.83,3.86-3.1,2.65-2.19,7.41-.46,11.17a6.49,6.49,0,0,0,7.94,3.68c8.4-2.41,17.63-2.65,24.72-8.77,8.24,6.51,17.92,8.43,28.07,8.63,1,0,1.95-1.14,2.93-1.75,2.22,3.86-2.18,5.29-3,8-2.37,1.4-4.68,1-7.15.12A99,99,0,0,0,157,203c-2.89-.61-6.25-1.9-8.59,1.49-3.21-2-6.49-2-10.26-1.5-6.45.79-11.9,6.31-19,3.8-1.15-.4-1.35,1-1.74,1.93-1.62,3.91-.74,7.77.07,11.64a74.31,74.31,0,0,0,5.55,16.19,21.18,21.18,0,0,1,4.37-13c7.08-.55,14.56,1.72,21-3,1.21,2,3.22,2.5,5.35,3.08,5.26,1.42,10.42.77,15.62-.14,2.14,4.43,2.78,9.28,4,14-1.93,4.42-2.16,9.46-4.94,13.57-6.58,1.69-13.41,1.46-20.07,2.53a79.09,79.09,0,0,1-13.71-1.25c-7.44-1.56-15.15-1.78-22.33-4.6-2.74-7.54-6.91-14.34-10.9-21.23.2-2.62.36-5.24.6-7.85.67-7.16,1.81-14.22-1.55-21.25-2.47-5.16-5.61-10.07-7-15.73,0-4.46.76-9.11-.22-13.35-1.5-6.44-.73-11.64,4.55-15.86,10.77.05,21.53.22,32.29.11,6.61-.06,14-5.55,15-11.65C147.06,129,148.15,117,142.46,105.68Z" fill="#c69575"/><path d="M146.46,102.7c-6-10.78-9.53-22.84-16.58-33.53,6.15,2.3,11.16,8.32,18.64,6.1,7.25,2.07,11.63-4,17.94-5.74l-4.94,6.22c-3.81,2.65-6.82,6.91-12.39,6.09a1.25,1.25,0,0,0-1.42,1.57c1.11,2.88-.77,5.7.26,8.73A11.7,11.7,0,0,1,146.46,102.7Z" fill="#b47f59"/><path d="M203.39,179.55c-1.89-3.07-1.11-6.48-.72-9.62.76-6.18,2.77-12.41-3.88-16.83-.29-.19-.21-.93-.3-1.42,7.5-4.07,11.85-10.18,12.27-19.05,1.93,2.38,1.41,5.22,1.88,7.82a230.83,230.83,0,0,1-6.09,29.32A29.6,29.6,0,0,1,203.39,179.55Z" fill="#b47f59"/><path d="M146.46,102.7A11.7,11.7,0,0,0,148,92.14c-1-3,.85-5.85-.26-8.73a1.25,1.25,0,0,1,1.42-1.57c5.57.82,8.58-3.44,12.39-6.09-.86,6.15-4.74,11.06-7,16.64-1.72,4.25-4,8.28-6,12.41A2,2,0,0,1,146.46,102.7Z" fill="#c69575"/><path d="M80.34,310c.71-8.42,1.13-16.87,2.94-25.17-.22,3.79,3,6.19,3.88,9.51,1,6.67.5,13.38.41,20.08l-5.73.16Z" fill="#34b0b8"/><path d="M81.84,314.6l5.73-.16a92.6,92.6,0,0,1,0,16.65H79.81c-.87-5.38,2-10.36,1.73-15.68A1.52,1.52,0,0,0,81.84,314.6Z" fill="#343332"/><path d="M212.94,285.43c1.77,7.86,2,15.92,2.89,23.9q-.79,2.69-1.57,5.39l-5.83-.21q0-10.1,0-20.2A22.27,22.27,0,0,0,212.94,285.43Z" fill="#34b0b8"/><path d="M208.43,314.51l5.83.21a1,1,0,0,0,.2.76c.24,5.26,2.71,10.26,1.78,15.65l-7.79,0Q208.44,322.84,208.43,314.51Z" fill="#343332"/><path d="M195.41,555c-2-.08-2.29-1.94-3.19-3.15-1-12.7-3.23-25.27-4.14-37.94s-6.77-23.79-9.57-35.81c-3.8-16.25-1.64-32.61-.12-48.92,4.32,1.33,6.28,5.3,8.62,8.46,12.37,16.69,18.74,35.41,18.48,56.38-.26,19.92,0,39.84,0,59.76C202.15,554.42,198.38,551.41,195.41,555Z" fill="#dcbaa1"/><path d="M168.44,401.27c-1.35-3.11-1.59-6.47-2.19-9.75,10,1,20,2.19,30,0l1.19.31c-.46,1.49-1.83,1.85-3,2.23C185.84,396.7,177.43,400,168.44,401.27Z" fill="#b47f59"/><path d="M87.17,294.37c-.92-3.33-4.11-5.73-3.89-9.52C85.82,270,92.46,256.54,98,242.72c.16-.4.75-.63,1.14-.94,3.72,3.51,8.34,5,13.23,5.91,7.18,2.82,14.89,3,22.33,4.6a79.09,79.09,0,0,0,13.71,1.25c-1.2,4.73-.9,9.55-.9,14.34q0,16.22,0,32.42,0,17.08,0,34.16-3.18,25.71-6.33,51.43c-.27,2.21-1.08,3.6-3.51,3.94s-4.87,1-7.31,1.55l-18.75,2.12c-3.71-2.15-8.14-.21-11.9-2.07q-.42-11.6-.83-23.2c.09-.1.28-.22.26-.28a4.45,4.45,0,0,0-.32-.66c-.09-1.68-.18-3.36-.26-5,2.16-1,3.6-2.1,4.13-4.91.83-4.43.74-10.39,8.27-9.26,1.2.18,1.38-1.15,1.32-2.2,2-5.05.48-10.39,1.25-15.54,5.93,1.51,5.93,1.51,6-4.77v-5c0-6.18,0-6.18-6-5.27-1-4.29,1.31-9-1.49-13,.72-5.09-2.49-5.05-6-4.62-2.79-1.18-.07-6.06-4.25-6.31l-.42-5.94c.14-.71-.13-1-.86-.83l-8.92.06c-.67-.15-.87.17-.77.78-.25.95-.5,1.89-.76,2.83C88.61,290.07,89.07,292.78,87.17,294.37Z" fill="#181819"/><path d="M103.83,551.84c-.38,1.8-1.66,2.36-3.32,2.41-4.92-2.59-10,1-14.94-.38,6.21-.24,6.42-4.31,6-9-1.45-16.2-.91-32.45-1-48.68-.12-13.53,1.94-26.68,7.22-39.16,4.35-10.26,10.77-19.27,18.12-27.62a3.51,3.51,0,0,1,2.63-1.21c.38,10.76.93,21.52,1.08,32.29a73.44,73.44,0,0,1-7.42,33.62c-3.2,6.57-2.91,13.88-3.93,20.86C106.43,527.19,105.26,539.53,103.83,551.84Z" fill="#dcbaa1"/><path d="M142.46,105.68c5.69,11.36,4.6,23.32,2.67,35.2-1,6.1-8.38,11.59-15,11.65-10.76.11-21.52-.06-32.29-.11C90.53,147,84.34,140.88,85.66,130.6a42.06,42.06,0,0,1,7.14-17.51c4.46-6.16,9.24-11.38,18-10.5,8.2.82,16.54-.92,24.72,1.06.32,0,.64,0,1,0l0,0c.75,1.13,1.92,1,3,1l0,0c.73,1.18,1.91,1,3,1Z" fill="#dcbaa1"/><path d="M85.66,130.6c-1.32,10.28,4.87,16.37,12.19,21.82-5.28,4.22-6,9.42-4.55,15.86,1,4.24.21,8.89.22,13.35a31.93,31.93,0,0,1-4.16-11.74,143.5,143.5,0,0,1-5.9-30.37c.06-1.63.12-3.26.19-4.89C85.11,133.68,84,131.46,85.66,130.6Z" fill="#b47f59"/><path d="M142.5,105.7c-1.13,0-2.31.15-3-1C140.58,104.7,141.78,104.5,142.5,105.7Z" fill="#c69575"/><path d="M139.51,104.7c-1.12,0-2.29.1-3-1C137.58,103.71,138.8,103.46,139.51,104.7Z" fill="#c69575"/><path d="M136.5,103.7c-.32,0-.64,0-1,0C135.9,103,136.21,103.14,136.5,103.7Z" fill="#c69575"/><path d="M215,604.18a2.87,2.87,0,0,1-2.55.43A2.27,2.27,0,0,1,215,604.18Z" fill="#c5c2db"/><path d="M85.54,604.73l-1-.05C84.92,604.18,85.24,604.23,85.54,604.73Z" fill="#c5c2db"/><path d="M147.54,334.46q0-17.08,0-34.16,0-16.2,0-32.42c0-4.79-.3-9.61.9-14.34,6.66-1.07,13.49-.84,20.07-2.54,5.14-.59,10.26-1.3,15.11-3.23,5.12-.64,9.5-3.11,13.86-5.62,6.57,13.92,12.72,28,15.47,43.28a22.27,22.27,0,0,1-4.5,8.88L206,287.65l-.6-2.24c0-.69-.28-1-1-.85h-8.92c-.72-.13-1,.18-.8.87-.12,2.32-.23,4.64-.35,7-3.41.21-2.67,3.58-4,5.33-4.82-1.24-6.76.77-6.26,5.54-3.06,3.34-.68,7.44-1.54,11.08-4.42-.61-6.67,1-6.05,5.75a21.77,21.77,0,0,1,0,5.47c-.61,4.77,1.59,6.39,6,5.76.42,4.64-.78,9.46,1.53,13.85,1.87-3.38-3.07-10.86,6.08-9.7,1.12,3-.77,6.49,1.2,9.43.06,2.15-.4,4.48.28,6.4,1.33,3.76-.18,9.48,6.24,10.16q-.76,15-1.52,30c-10,2.24-20,1-30,0-8.4-.32-11.84-4.24-12.37-13.06-.82-13.7-3.37-27.28-5.22-40.91C148.51,336.46,148.81,335.16,147.54,334.46Z" fill="#3c3e3d"/><path d="M197.79,361.46c-6.42-.68-4.91-6.4-6.24-10.16-.68-1.92-.22-4.25-.28-6.4a279,279,0,0,0,.1-34.58,23.85,23.85,0,0,0-.3-8.91c.29-.63-.16-.87-.58-1.12-.08-.86-.15-1.71-.22-2.57,1.38-1.75.64-5.12,4-5.33l.37,10.7c-.07,9.42-.17,18.84-.2,28.26,0,10.67,0,10.67,10.71,11.12q.23,8.29.44,16.57C204.2,363.67,200.28,360.26,197.79,361.46Z" fill="#343332"/><path d="M205.64,359q-.21-8.28-.44-16.57.12-19.56.22-39.12c.33-5.23-.51-10.5.56-15.7l2.46,6.66q0,10.11,0,20.2,0,8.33,0,16.65c-.16,7-.13,13.92-.56,20.86C207.74,354.4,206.42,356.7,205.64,359Z" fill="#c2c1c1"/><path d="M101.78,291.36c4.18.25,1.46,5.13,4.25,6.31a27,27,0,0,0-1.38,11.66V343.2c-.1.8,0,1.85.9,1.69,1.09-.19.67-1,0-1.58.15-2.61.29-5.23.44-7.84,4.36-.2,6.32,1.65,5.63,6.18-.2,1.36-.49,3,.67,4.23.06,1.05-.12,2.38-1.32,2.2-7.53-1.13-7.44,4.83-8.27,9.26-.53,2.81-2,3.94-4.13,4.91-2.17-1.75-4.85-.3-7.16-1.14-.2-3,.51-6-.58-8.94.28-3.33-.62-6.73.55-10,2.15.06,4.3,0,6.43.21,2.76.24,3.78-.8,3.74-3.64-.19-11.88-.19-23.75-.26-35.63Z" fill="#343332"/><path d="M91.4,342.16c-1.17,3.28-.27,6.68-.55,10l-.39,6.05c-3.75-5.82-2.63-12.36-2.77-18.71-.06-2.81-.07-5.61-.11-8.42a91.68,91.68,0,0,0,0-16.65c.09-6.7.61-13.41-.41-20.08,1.91-1.58,1.45-4.29,2.89-6.1,2.3,4.78.94,9.92,1.48,14.87Q91.47,322.65,91.4,342.16Z" fill="#c2c1c1"/><path d="M90.46,358.22l.39-6.05c1.09,2.92.38,6,.58,8.94C90.09,360.49,90.7,359.21,90.46,358.22Z" fill="#787878"/><path d="M98.85,367.29a4.45,4.45,0,0,1,.32.66c0,.06-.17.18-.26.28Z" fill="#343332"/><path d="M267.57,342.41c-.08-11.87-.08-23.75-.28-35.63-.05-2.92,1.1-3.74,3.79-3.59,2.3.13,4.61-.11,6.92-.19.08,11.79.1,23.59.27,35.38,0,3.11-1.31,4.13-4.22,4C271.9,342.22,269.73,342.38,267.57,342.41Z" fill="#787878"/><path d="M28.58,342.33c-10.86,0-10.88,0-10.83-10.95.05-9.46.17-18.92.26-28.38a3.86,3.86,0,0,0,.49.09c10.31.69,10.34.69,10.31,11C28.77,323.51,28.66,332.92,28.58,342.33Z" fill="#787878"/><path d="M17.94,300.37c-.24-3.54-.64-7.08.22-10.59C18.69,293.32,19.19,296.86,17.94,300.37Z" fill="#c2c1c1"/><path d="M183.61,247.77c-4.85,1.93-10,2.64-15.11,3.23,2.78-4.1,3-9.14,4.94-13.56,1.5-6,4.31-11.67,5-17.92,2.11-6.24,1.46-10.5-2-13,.78-2.75,5.18-4.18,3-8,2.85-4.47,2.18-9.21,1-14,.65-4.13,3.93-7.06,5-11,.11-1.36-.45-2.88,1-3.92,4.24,7.43,3.9,15.83,5,23.91.41,3.09.36,6.21,2,9-.75,8.26,1.13,16.37,1.3,24.58A116.38,116.38,0,0,0,183.61,247.77Z" fill="#d6ad8f"/><path d="M176.47,206.52c3.44,2.5,4.09,6.76,2,13a19.87,19.87,0,0,1-9,3.94c-5.2.91-10.36,1.56-15.62.14-2.13-.58-4.14-1.06-5.35-3.08-1.89-5.35-.33-10.71,0-16.06,2.34-3.39,5.7-2.1,8.59-1.49a99,99,0,0,1,12.29,3.67C171.79,207.5,174.1,207.92,176.47,206.52Z" fill="#dcbaa1"/><path d="M148.43,191.6c-7.09,6.12-16.32,6.36-24.72,8.77a6.49,6.49,0,0,1-7.94-3.68c-1.73-3.76-2.64-8.52.46-11.17,2.37-2,6.61-2.13,9.83-3.86,2.58-1.39,5.6-1.92,8.38-2.95,5.28-2,9.88-.74,14,2.82Z" fill="#d6ad8f"/><path d="M148.43,191.6l0-10.07c2.28-3.51,5.27-4.49,9.39-3.41,5.76,1.51,11.53,2.82,16.75,5.85,1.84,1.06,3.88.48,5.85.53,1.16,4.77,1.83,9.51-1,14-1,.61-2,1.77-2.93,1.75C166.35,200,156.67,198.11,148.43,191.6Z" fill="#dcbaa1"/><path d="M148.44,204.46c-.3,5.35-1.86,10.71,0,16.06-6.47,4.74-13.95,2.47-21,3-4,.92-6.48-2.54-9.92-3.21-.81-3.87-1.69-7.73-.07-11.64.39-.93.59-2.33,1.74-1.93,7.09,2.51,12.54-3,19-3.8C142,202.5,145.23,202.47,148.44,204.46Z" fill="#d6ad8f"/><path d="M148.44,166.63a59.74,59.74,0,0,1-30.8,9.88c-2.91.13-5.23-.72-6.31-4.28-1.18-3.89,0-5.26,3.56-6.37,7.57-2.38,15.17-4.73,22.25-8.48a26.16,26.16,0,0,0,6.14-5c5.2-5.21,6-5,9.25,2.19-2.92-.12-4.19,1.26-4.07,4.18C148.57,161.36,148.46,164,148.44,166.63Z" fill="#d6ad8f"/><path d="M148.44,166.63c0-2.63.13-5.27,0-7.89-.12-2.92,1.15-4.3,4.07-4.18,9.58,5.4,20,8.79,30.41,12,1.58.49,3.28.91,3.47,3-1.41,1-.85,2.56-1,3.92-6.12,4.54-12.47,3.42-19,1-3.84-1.41-7.86-2.32-11.82-3.37A9.46,9.46,0,0,1,148.44,166.63Z" fill="#dcbaa1"/><path d="M112.39,247.69c-4.89-.91-9.51-2.4-13.23-5.91q1.16-7.67,2.33-15.32C105.48,233.35,109.65,240.15,112.39,247.69Z" fill="#b47f59"/><path d="M169.44,223.46a19.87,19.87,0,0,0,9-3.94c-.7,6.25-3.51,11.9-5,17.92C172.22,232.74,171.58,227.89,169.44,223.46Z" fill="#b47f59"/><path d="M117.52,220.33c3.44.67,6,4.13,9.92,3.21a21.18,21.18,0,0,0-4.37,13A74.31,74.31,0,0,1,117.52,220.33Z" fill="#b47f59"/><path d="M183.61,247.77a116.38,116.38,0,0,1,11.07-20.71l0,.23.51,1.2q1.13,6.82,2.23,13.66C193.11,244.66,188.73,247.13,183.61,247.77Z" fill="#c69575"/><path d="M195.24,228.49l-.51-1.2Z" fill="#d6ad8f"/><path d="M112.31,345.88c-1.16-1.25-.87-2.87-.67-4.23.69-4.53-1.27-6.38-5.63-6.18q-.24-12.53-.47-25.07c4.51.05,7.27-1.51,6.2-6.67a3.7,3.7,0,0,1,.31-1.44c2.8,4.09.47,8.76,1.49,13q0,7.5,0,15C112.79,335.49,114.32,340.83,112.31,345.88Z" fill="#787878"/><path d="M91.53,303.13c-.54-4.95.82-10.09-1.48-14.87.26-.94.51-1.88.76-2.83l.77-.78,8.92-.06.86.83.42,5.94q-.24,5.86-.47,11.74Z" fill="#ebece6"/><path d="M113.56,330.34q0-7.5,0-15c6-.91,6-.91,6,5.27v5C119.49,331.85,119.49,331.85,113.56,330.34Z" fill="#343332"/><path d="M112.05,302.29a3.7,3.7,0,0,0-.31,1.44c1.07,5.16-1.69,6.72-6.2,6.67l-.89-1.07A27,27,0,0,1,106,297.67C109.56,297.24,112.77,297.2,112.05,302.29Z" fill="#ebece6"/><path d="M91.58,284.65l-.77.78C90.71,284.82,90.91,284.5,91.58,284.65Z" fill="#c2c1c1"/><path d="M101.36,285.42l-.86-.83C101.23,284.41,101.5,284.71,101.36,285.42Z" fill="#c2c1c1"/><path d="M190.07,335.47c-9.15-1.16-4.21,6.32-6.08,9.7-2.31-4.39-1.11-9.21-1.53-13.85q0-8.49,0-17c.86-3.64-1.52-7.74,1.54-11.08-.3,4.63,1.38,7.44,6.51,7Z" fill="#787878"/><path d="M206,287.65c-1.07,5.2-.23,10.47-.56,15.7l-10.73-.26c-.12-3.57-.25-7.13-.37-10.7.12-2.32.23-4.64.35-7l.8-.87h8.92l1,.85Z" fill="#ebece6"/><path d="M182.47,314.34q0,8.49,0,17c-4.45.63-6.65-1-6-5.76a21.77,21.77,0,0,0,0-5.47C175.8,315.3,178.05,313.73,182.47,314.34Z" fill="#343332"/><path d="M190.52,310.3c-5.13.4-6.81-2.41-6.51-7-.5-4.77,1.44-6.78,6.26-5.54.07.86.14,1.71.22,2.57.19.37.39.74.58,1.12a23.85,23.85,0,0,1,.3,8.91A2,2,0,0,0,190.52,310.3Z" fill="#ebece6"/><path d="M190.52,310.3a2,2,0,0,1,.85,0,279,279,0,0,1-.1,34.58c-2-2.94-.08-6.38-1.2-9.43Z" fill="#c2c1c1"/><path d="M195.47,284.56l-.8.87C194.5,284.74,194.75,284.43,195.47,284.56Z" fill="#c2c1c1"/><path d="M205.38,285.41l-1-.85C205.1,284.4,205.4,284.72,205.38,285.41Z" fill="#c2c1c1"/><path d="M194.69,303.09l10.73.26q-.1,19.56-.22,39.12c-10.73-.45-10.75-.45-10.71-11.12C194.52,321.93,194.62,312.51,194.69,303.09Z" fill="#787878"/><path d="M191.07,301.41c-.19-.38-.39-.75-.58-1.12C190.91,300.54,191.36,300.78,191.07,301.41Z" fill="#c2c1c1"/><path d="M91.53,303.13l9.78,0c.07,11.88.07,23.75.26,35.63,0,2.84-1,3.88-3.74,3.64-2.13-.18-4.28-.15-6.43-.21Q91.48,322.65,91.53,303.13Z" fill="#787878"/><path d="M104.65,309.33c.3.36.59.72.89,1.07q.24,12.54.47,25.07c-.15,2.61-.29,5.23-.44,7.84l-.93-.11Z" fill="#c2c1c1"/><path d="M104.64,343.2l.93.11c.64.56,1.06,1.39,0,1.58C104.65,345.05,104.54,344,104.64,343.2Z" fill="#787878"/></g></g></svg>