<svg xmlns="http://www.w3.org/2000/svg" viewBox="0 0 568.19 293.6"><title>ex_d3_5_2</title><g id="Layer_2" data-name="Layer 2"><g id="Layer_1-2" data-name="Layer 1"><path d="M529.85,275c.37,2,1.83,2.31,3.53,2.86,4.84,1.57,6.76,4.66,5.84,9.5-.85,4.45-4.14,6.1-8.38,6.2-1.66,0-3.33,0-5,0q-257.62,0-515.25,0c-3.74,0-7.5.11-9.56-3.8a8.11,8.11,0,0,1,5.94-12,25.72,25.72,0,0,1,4.48-.14q96.36,0,192.72-.15c2.38,0,5.31,2.49,7.42-.76,12.63,7.8,26.48,9.76,41,8.6,4.4.18,8.8.42,13.16-.46a4.65,4.65,0,0,0,4-.17c16.06,0,32.05-1.46,48.07-2.19,1.33-.06,2.72,0,2.78-1.91l21-3.87c.84,1.06,2,.9,3.19.9h54c1.29,0,2.68.27,3.64-1,3,.66,6.11,1.15,9.09,2,7.54,2.16,15-.63,22.55-.07,1.85-.2,3.93.74,5.47-1.08l.24-.17.3,0c1.35,1.76,3.31,1.31,5.07,1.24,6.43-.25,12.86-.8,19.29-.9,9.95-.16,19.91-.06,29.87-.06a2.82,2.82,0,0,0,2.55,2.64c6.68,1.4,13.4,2.68,20.1,4,8,1.58,10.45.29,12.2-6.36C529.41,277,529.62,276,529.85,275Z" fill="#ebece6"/><path d="M556.67,247.75c-.25-9.81-.34-19.55-2.24-29.19-5.92-30-22.19-53.2-46.65-71.06-2.41-1.77-4-1.57-5.79.75-2.14,2.75-4.56,5.28-6.88,7.89-.66.74-1.42,1.65-2.48,1.42-1.22-.27-1-1.52-1.2-2.48-3.23-16.62-6.44-33.24-9.74-49.85-.55-2.78-.46-4.49,3.15-4.26,17.25,1.07,34.51,2,51.77,3,.8,0,1.76-.08,2.17.84.51,1.13-.29,1.84-1,2.54-2.72,2.67-7,5.42-6.75,8.75.2,2.86,4.41,5.42,6.8,8.15,20.42,23.31,31.91,50,30.19,81.45A99.41,99.41,0,0,1,556.67,247.75Z" fill="#f9be7a"/><path d="M304.36,177.62a8.28,8.28,0,0,1-1,5.29c-4.11-2.53-7.38-6.25-11.85-8.27-3.06-3.23-7.61-4.1-11-6.86.34-1.54-2.55-1-1.72-3.4,4.48-12.7,8.58-25.51,17.61-36,4.3-5,3.24-8.51-2.76-11.6-1.71-.89-4.7.15-5.12-3,5.09-3.21,10.46-1.65,15.79-.93,6.63,2,13.44,3.56,18.53,8.78-5.93,3.9-6.8,6.27-3.51,10.38a25.33,25.33,0,0,0,12.6,8.32c9.7,2.64,18.63,7.31,28.61,9.37,8,1.66,15.93,4.1,23.93,6,12.51,3,25.24,5,37.75,8,4.32,1,5.54,0,5.18-4,2.51,1.78,3.5,4.68,5.14,7.09,4.1,6,1.43,11.8-1.11,17.36-2.25,4.9-6.93,3.53-11,3.5-13.21-4.41-26.89-6.85-40.59-8.87-9.48-1.4-19.16-1.37-28.69-2.51-14.92-1.79-26.82-10-38.31-18.89-.79-.6-1.62-1.15-2.43-1.72-1.46-2.84-4.12-4.38-7.13-7C302.44,159,301.53,168.32,304.36,177.62Z" fill="#d2b8a0"/><path d="M341.56,276.72l-21,3.87a195.76,195.76,0,0,1,0-31.94c11.75,0,23.5,0,35.25,0a25.42,25.42,0,0,0,13.57-4.06c4.68-2.88,5-7.25,1.91-11.77-1.84-2.64-4.88-3.52-6.81-5.84,7.61-.61,14.73,1.62,21.87,3.76-.64.75-1.13,1.79-1.94,2.19-2.16,1.07-4.78,2.21-3.63,4.93s2.7,5.83,6.17,6.71a269.68,269.68,0,0,0,31.54,5.49c16.2,2.09,32.39,1.34,48.55,2,9.63.4,19.52,0,29.28-.43l2-.07h0c5.37,7.71,6,15.41,0,23.11l0,0-1.88.68-2.19.35c-7.24-1.83-14.65-.36-21.95-1-.55-.33-1.09-.91-1.66-.94-12.94-.7-25.87.1-38.71,1.34-12.38,1.19-24-.28-35-6.08-4.65-2.45-9.52-3.6-14.64-1.26a16.2,16.2,0,0,0-5.8-.44C364.32,268.42,353.11,273.15,341.56,276.72Z" fill="#d2b8a0"/><path d="M291.5,174.64c4.47,2,7.74,5.74,11.85,8.27,3.46,2.55,3.56,5.6,2.12,9.49-2.41,6.51-4.21,13.25-6.38,19.86a8.07,8.07,0,0,0-.35,5.32c-3.3,2.18-3,6-4.14,9.17-4.55,12.56-7.12,25.88-14.32,37.42-6.47,10.37-14.68,18.36-27.7,19.46-12.57.31-22.6-4.54-30.11-14.66-4.06-5.46-4.85-12.1-6.86-18.31,1.42.47,2.84.92,4.25,1.41,12.83,4.47,24.51,2.55,34.9-6.33C263.21,238.53,268.2,229,272.5,219Q282.06,196.86,291.5,174.64Z" fill="#3c3f3d"/><path d="M183.43,239.77a129.31,129.31,0,0,1-23.24-22c1.14.14,2.51-.09,3.37.47,6.09,4,12.93,3.16,19.66,3.5,5.14.26,5.05-4.61,7.5-6.92,2-1.9-.84-3-1.8-4.33s-.74-1.69.72-1.83h2c9.88.8,16-6.22,22.72-11.48,3.2-2.49,1.48-7.22-2.7-9.5-1.8.07-3.6-.28-5.31.82-5.38,3.47-11.57,4.77-17.65,6.3-2.81.06-5.19-.58-6.49-4.11,3.76,0,7.2.18,10.62,0,10.44-.65,15.78-7.56,12.69-16.45-1-3-2.8-5.41-6.69-3.67-4.42,2-9.17,2.7-13.88,3.58-4,.74-5.25.23-7.62-3.57,5.15,1.58,10.87,1.91,16,0,5.77-2.17,10-5.27,7.5-12.08-2.09-5.81-5.37-7.8-12.36-6.14-6.59,1.57-13,3.82-19.59,5.42-6.06,1.47-12.31,0-18.21,2-3-4.26-8.49-5.33-12-9a1.81,1.81,0,0,1,1.83-2.06c9,5,18.85,3.81,28.24,2.34,14.56-2.29,19.33-6,14-23.31-2.48-8.07-5.13-16.08-7.73-24.11-.39-1.19-.45-2.76-2.31-2.78l-1.08-1,0,0-1-1a5.9,5.9,0,0,0-.84,0c-1.71-2.51-4.41-3.33-7.12-4a101.62,101.62,0,0,0-22.94-2.17c-1.21-3.39-3.76-5.65-6.63-7.57-3.1-2.08-6.26-4.07-9.39-6.09,5.65-3.48,11.29-7,17.9-8.45,2.75,5.84,6.81,10.83,10.52,16,1.64,2.3,3.64,4.45,6.55,5.06,5.62,1.19,11.28,2.15,16.92,3.2.47-.15,1.22-.17,1.35-.47,3.56-8,7.34-15.88,8.76-24.61a64,64,0,0,1,13.91,7c-2.45,3.89.84,7.28,1,11a19.52,19.52,0,0,0-11.31,3.29c-5.13,3.21-6.6,7.16-4.81,12.81s3.28,11.14,5.56,16.43c2.45,5.68,3.07,12.37,8.46,16.57,3.92,5.7,16.73,6,21.16.67,5.34-6.47,4-13.52,3.47-20.66-.56-6.88-5-12.48-6.6-19,4,.07,3.45,5.47,7,6,.42,5.47,5,9.88,4,15.71q.53,3.69,1,7.4c-.13,5.68-.5,11.28-4.34,16-.38.47-.84,1.41-.63,1.75,3.14,5.15,3.37,10.58,2,16.29-.17.72.69,1.84,1.32,2.56,1.38,1.59,2.4,3.67,2.16,5.44-1.06,7.85,2.2,14.43,5.5,21.06-.16,3.37-3.15,3.48-5.28,4.4C208.2,203.66,190.21,216,183.43,239.77Zm20.19-87.18c.09,5.65,3.2,10.19,6.86,10,8-.39,12.21-3.47,12.12-8.92-.06-3.94-3.16-7.78-6.27-7.77C208.54,146,203.55,148.56,203.62,152.59ZM216,180.74c7.42-.11,9.4-2.89,8.69-10.69-.35-3.7-2.32-6.12-5.37-7a10.23,10.23,0,0,0-9.73,2.63c-2.38,2.21-.48,4.92.56,7.35a12.64,12.64,0,0,1,1.19,3.79C211.61,180.1,213.43,181.09,216,180.74Zm13.13,2c-4.83-1.94-8,.16-10.51,2-2.19,1.64,1.5,3.81,1.28,6.17-.09,1,.67,2.95,2.41,2.5,2-.53,1-2.11.5-3.23-1.3-3-.93-5,2.74-5.6C226.48,184.46,227.29,183.75,229.16,182.75Z" fill="#cbab91"/><path d="M189.64,208.7c-1.46.14-1.59.65-.72,1.83s3.82,2.43,1.8,4.33c-2.45,2.31-2.36,7.18-7.5,6.92-6.73-.34-13.57.47-19.66-3.5-.86-.56-2.23-.33-3.37-.47-9.34-8.58-18-17.72-24.66-28.62,2.36-3.57.37-7.79,1.85-11.58a39.31,39.31,0,0,1,13.29-17.8c5.9-2.07,12.15-.57,18.21-2,6.6-1.6,13-3.85,19.59-5.42,7-1.66,10.27.33,12.36,6.14,2.46,6.81-1.73,9.91-7.5,12.08-5.15,1.94-10.87,1.61-16,0,2.37,3.8,3.66,4.31,7.62,3.57,4.71-.88,9.46-1.61,13.88-3.58,3.89-1.74,5.65.66,6.69,3.67,3.09,8.89-2.25,15.8-12.69,16.45-3.42.21-6.86,0-10.62,0,1.3,3.53,3.68,4.17,6.49,4.11a11.74,11.74,0,0,0-1.45,3.07c-.52,3.55-2.33,7.51,2.41,9.81h0C189.64,208.05,189.64,208.38,189.64,208.7Z" fill="#d8c2ad"/><path d="M140.52,148.75a1.81,1.81,0,0,0-1.83,2.06c-2.43,1-2.58,3.68-3.73,5.51-3.63,5.8-8.64,10.52-12.31,16.25-2,.27-3.06,1.91-4.41,3.08-15,13-32.78,19.1-52.22,20.92-7.12.66-6.45-.67-6.59,7,0,1.56,1,3.68-.8,4.59s-2.8-1.29-4-2.23c-9.41-7.33-18.72-14.79-28.12-22.14-3.08-2.41-4.4-4.12-.15-7.13,10.13-7.19,19.88-14.91,29.78-22.43.79-.6,1.48-1.54,2.58-1.18,1.51.5,1,1.91,1,3,.56,10.84.56,10.76,11.39,11,15,.31,29.45-1.7,42.75-9.16,3.19-.59,5.73-2.64,8.12-4.44,4.19-3.16,9.88-4.81,11.8-10.53l.89-.11c4.77-1.41,5.28-7.33,9.57-9.4,1.05,2.52-.15,4.49-.81,6.48C142.46,142.84,140.27,145.38,140.52,148.75Z" fill="#f9be7a"/><path d="M15.68,98.76c.06-2.48,1.41-4.28,2.94-6.11A119.53,119.53,0,0,1,61.11,59.93C75.4,53.41,88.75,45,101.77,36.25c9.61-6.47,20.14-10.59,30.9-14.41a14.85,14.85,0,0,1,5.86-.85v8c-1.75,2.92-3,6.3-5.35,8.67-3.37,3.45-2.25,5,1.48,6.4.35,2.11.72,4.21,1,6.33.52,3.53,1.7,6.45,5.87,6.81l.21,2.52c-2.82.57-5.36,0-8.1-1-4-1.38-7.3-4.53-11.79-4.49-3.3-7.26-6.38-8.34-11.6-4.28-5,3.86-10.11,7.45-15,11.33C82.65,71.16,69,79.66,56.78,90.11A79.37,79.37,0,0,1,27.86,106c-1.84.55-3.37,1.11-5-.54C20.57,103.16,18.08,101,15.68,98.76Z" fill="#dfccbb"/><path d="M194.2,21.35c3.33-.78,6.14.76,9,2,11.31,4.9,21.14,12.3,31.63,18.59,10.8,6.48,21.34,13.48,32.89,18.53C284.94,68,298.4,80,310.18,94.14c1.17,1.4,2.3,2.85,2.18,4.85-2.1,0-2.34,2.09-3.53,3.11-2.74,2.34-5.16,5.2-9.31,4.78-5-2.48-10.32-4.51-15-7.51-17.71-11.33-33.61-25.19-51-37-6.27-4.28-12.32-8.9-18.28-13.61-2.2-1.74-3.76-1.43-5.54.26s-3.94,3.14-4.1,6c-4.79,2.31-9.26,5.55-15,5.1,0-.69,0-1.37,0-2.06,2.92-.21,4.34-2.15,5.26-4.61a29.3,29.3,0,0,0,1.87-10.69c.79-.75,4-.73,2-2.37C193.41,35.09,194.46,28.11,194.2,21.35Z" fill="#dfccbb"/><path d="M252.58,283.63c13-1.1,21.23-9.09,27.7-19.46,7.2-11.54,9.77-24.86,14.32-37.42,1.13-3.13.84-7,4.14-9.17a137.83,137.83,0,0,1,20.3,1.07c3,.31,3.58,1.65,3.4,4.1a176.84,176.84,0,0,0-1.83,25.9,195.76,195.76,0,0,0,0,31.94c-.06,1.9-1.45,1.85-2.78,1.91-16,.73-32,2.19-48.07,2.19l-4,.17c-4.36.88-8.76.64-13.16.46C252.59,284.75,252.59,284.19,252.58,283.63Z" fill="#191819"/><path d="M183.43,239.77c6.78-23.75,24.77-36.11,45.94-45.3,2.13-.92,5.12-1,5.28-4.4,4.93-8.34,8.28-17.43,12.64-26,.78-1.55,1-3.59,3.33-3.8a1.52,1.52,0,0,0,1.89-.09l1.88-.18c3.72,1.51,7.95,1,11.58,2.91C259.1,179,252.3,195.2,245.35,211.31c-6.16,14.27-19.17,18.43-28.58,4.33-1.5-2.24-2.82-2.27-4.76-.55a86.75,86.75,0,0,0-14.68,16.12,6.63,6.63,0,0,0-1.26,4.18,9.46,9.46,0,0,0-3.57,3.84c-1.79,2.83-1.67,6.83-5.2,8.56C185.27,245.48,183.06,243.24,183.43,239.77Z" fill="#3c3f3d"/><path d="M420.45,187.69c4.06,0,8.74,1.4,11-3.5,2.54-5.56,5.21-11.34,1.11-17.36-1.64-2.41-2.63-5.31-5.14-7.09l-.06-1c.33-3.42,3.79-3.34,5.68-5,8.92-7.79,16.48-16.57,21.44-27.46,1.56-3.41,3.11-7.25,8.18-6.34,5.53,7.23,6.46,15.25,4.73,24-2,10.24-5.25,19.84-12.05,28-1.82,2.17-3.56,4.46-4.16,7.27-1.7,8-4,15.63-10.39,21.31q-9.15-3.65-18.31-7.27C419.71,192.13,420.49,189.76,420.45,187.69Z" fill="#d8d6e9"/><path d="M494.31,275.68l2.19-.35a1.61,1.61,0,0,0,1.88-.68l0,0c4.24.33,5.56-2.17,6.33-5.86,1.85-8.92-.14-14.73-6.3-17.25h0a4.84,4.84,0,0,0-3-4.72l-1.13-.3a4.92,4.92,0,0,1,2-4.3c10.73-9.54,15.6-22.23,19-35.66.85-3.33,1.51-6.67,6.2-5.83,3.71,4.41,8,8.35,8.78,14.68,1.65,13.32,1,26.19-5.45,38.34-1.07,2-2.22,4.34-2.24,6.54-.07,8.45-.94,16.61-5.66,23.93-6.7-1.33-13.42-2.61-20.1-4a2.82,2.82,0,0,1-2.55-2.64Z" fill="#d8d6e9"/><path d="M15.68,98.76c2.4,2.24,4.89,4.4,7.19,6.74,1.62,1.65,3.15,1.09,5,.54A79.37,79.37,0,0,0,56.78,90.11C69,79.66,82.65,71.16,95.24,61.25c4.93-3.88,10.09-7.47,15-11.33,5.22-4.06,8.3-3,11.6,4.27-6.21,4.15-12.54,8.12-18.58,12.49-9.54,6.9-18.84,14.13-26.53,23.16A24.8,24.8,0,0,0,70.29,95,94.28,94.28,0,0,1,58,105.73c-6.16,4.64-13.45,5-22.24,4.81,8.11,5.49,15.49,4.55,22.92,3.17,1.47,3.65,5.79,3.58,8.07,6.17-5.62,2.06-11.41.75-17.12.7-1.34,0-2.64-.88-2.86,1.27-5.34-1.74-10.85-3.09-16-5.3-7.09-3.06-13.64-7-15.51-15.49A2.41,2.41,0,0,1,15.68,98.76Z" fill="#d2b8a0"/><path d="M427.35,158.71l.06,1c.36,4-.86,5-5.18,4-12.51-3-25.24-5.06-37.75-8-8-1.89-16-4.33-23.93-6-10-2.06-18.91-6.73-28.61-9.37a25.33,25.33,0,0,1-12.6-8.32c-3.29-4.11-2.42-6.48,3.51-10.38a1.26,1.26,0,0,1,.63.13c.3.67.63.79,1,.06,7.86,3.45,15.68,7,23.58,10.33,24.52,10.44,49.77,18.82,75.38,26.15A20.88,20.88,0,0,0,427.35,158.71Z" fill="#d8c2ad"/><path d="M320.61,248.65a176.84,176.84,0,0,1,1.83-25.9L364.53,227c1.93,2.32,5,3.2,6.81,5.84,3.13,4.52,2.77,8.89-1.91,11.77a25.42,25.42,0,0,1-13.57,4.06C344.11,248.62,332.36,248.65,320.61,248.65Z" fill="#d8c2ad"/><path d="M494.29,246.56l1.13.3c.32,1.59.63,3.19.95,4.79-9.76.45-19.65.83-29.28.43-16.16-.66-32.35.09-48.55-2A269.68,269.68,0,0,1,387,244.59c-3.47-.88-5-3.94-6.17-6.71s1.47-3.86,3.63-4.93c.81-.4,1.3-1.44,1.94-2.19,24.91,6.31,50.22,10.3,75.75,13C472.85,245,483.51,246.46,494.29,246.56Z" fill="#d8c2ad"/><path d="M187.3,247.79c3.53-1.73,3.41-5.73,5.2-8.56a9.46,9.46,0,0,1,3.57-3.84,113.2,113.2,0,0,0,19.54,15.27c2,6.21,2.8,12.85,6.86,18.31,7.51,10.12,17.54,15,30.11,14.66,0,.56,0,1.12,0,1.69-14.51,1.16-28.36-.8-41-8.6C200.7,269.42,192.09,260.21,187.3,247.79Z" fill="#352e28"/><path d="M194.2,21.35c.26,6.76-.79,13.74,5.54,18.95,2,1.64-1.19,1.62-2,2.37-1.27-4.54-1.35-4.55-6.13-.67-.08-.68-.15-1.36-.23-2l0-2.93c-.2-4.17-3.44-7.54-3-11.9.73-7.08-3.32-10.46-9.55-12.24-4-1.15-8-2.2-12.2-1.69a30.65,30.65,0,0,0-19.31,4.89c-1.39.88-2.87,1.79-2.66,3.81.82,7.75-3.94,14.49-4,22.08L138.58,40q0-5.55-.05-11.09V21c5.7-21.17,28.91-25.34,43.2-16.92C188.47,8,192.07,14.13,194.2,21.35Z" fill="#352e28"/><path d="M440.78,200.5c6.39-5.68,8.69-13.33,10.39-21.31.6-2.81,2.34-5.1,4.16-7.27,6.8-8.13,10-17.73,12.05-28,1.73-8.78.8-16.8-4.73-24,4.12-1.58,7,.1,8.73,3.74a20.82,20.82,0,0,1,1.9,9.19c-.21,14.14-2.73,27.67-10.73,39.73a37.61,37.61,0,0,0-5.21,13.34c-.51,2.43-1,4.86-1.78,7.22C452.63,202.42,449.66,203.87,440.78,200.5Z" fill="#46464a"/><path d="M517,284.26c4.72-7.32,5.59-15.48,5.66-23.93,0-2.2,1.17-4.52,2.24-6.54,6.42-12.15,7.1-25,5.45-38.34-.79-6.33-5.07-10.27-8.78-14.68,4.25-2.15,7.58-1.13,10,2.95a32.09,32.09,0,0,1,4,12.66c1.5,12.44,1.58,24.74-3.44,36.59-3,7.1-1.74,14.68-2.24,22-.23,1-.44,1.93-.69,2.88C527.41,284.55,524.94,285.84,517,284.26Z" fill="#46464a"/><path d="M133.8,142.92c-1.92,5.72-7.61,7.37-11.8,10.53-2.39,1.8-4.93,3.85-8.12,4.44l-2-5.21c1.19-11.26,1.14-22.62,2.92-33.83,1.08-.76,2.73-1.35.94-3,.76-1.76,2.24-2.1,4-1.94C120.63,125.39,125.81,134.84,133.8,142.92Z" fill="#d2b8a0"/><path d="M122.65,172.57c3.67-5.73,8.68-10.45,12.31-16.25,1.15-1.83,1.3-4.52,3.73-5.51,3.49,3.67,8.94,4.74,12,9a39.31,39.31,0,0,0-13.29,17.8c-1.48,3.79.51,8-1.85,11.58C130.3,184.38,126.88,178.16,122.65,172.57Z" fill="#d2b8a0"/><path d="M115.7,115.84c1.79,1.66.14,2.25-.94,3-3.59,2.71-7.75,4.63-11,7.86-6.49.86-13,2.11-19.47,2.51a73.58,73.58,0,0,1-37.54-7.37c.22-2.15,1.52-1.28,2.86-1.27,5.71,0,11.5,1.36,17.12-.7a12.44,12.44,0,0,1,2.46.29C85.33,125.31,100.81,123.79,115.7,115.84Z" fill="#cbab91"/><path d="M299.52,106.88c4.15.42,6.57-2.44,9.31-4.78,1.19-1,1.43-3.14,3.53-3.11.09,6.24-3.85,10.14-8,13.91-5.33-.72-10.7-2.28-15.79.93-4.06-.23-7.16,2-10.45,3.91-3.65,2.18-5.49,6.13-8.9,8.46-1.44.36-2.87.74-4.32,1.06-9.39,2-18.82,2.75-28.31.68,2-2.47,6.41-.27,7.86-3.93,11.63-.19,22.11-3.59,31.12-11.12,3.42-.16,6.85-.27,10-2C289.94,108.78,295.92,112,299.52,106.88Z" fill="#cbab91"/><path d="M103.79,126.71c3.22-3.23,7.38-5.15,11-7.86-1.78,11.21-1.73,22.57-2.92,33.83A96.65,96.65,0,0,1,103.79,126.71Z" fill="#a1836f"/><path d="M304.36,177.62c-2.83-9.3-1.92-18.66-1.06-28.91,3,2.61,5.67,4.15,7.13,7Q307.4,166.67,304.36,177.62Z" fill="#a1836f"/><path d="M324.49,121.87c-.38.73-.71.61-1-.06Z" fill="#d2b8a0"/><path d="M341.56,276.72c11.55-3.57,22.76-8.3,35-9.43a16.27,16.27,0,0,1,5.81.44c6.16,4.15,13.18,6.37,20.06,8.89-1,1.27-2.35,1-3.64,1h-54C343.6,277.62,342.4,277.78,341.56,276.72Z" fill="#fdfcfb"/><path d="M402.43,276.62c-6.88-2.52-13.9-4.74-20.06-8.89,5.11-2.34,10-1.19,14.63,1.26,11,5.8,22.61,7.27,35,6.08,12.84-1.24,25.77-2,38.71-1.34.57,0,1.11.61,1.66.94-10.82.18-21.66.08-32.28,2.66l-.3,0-.24.17c-1.86.2-3.85-.27-5.47,1.08-7.52-.56-15,2.23-22.55.07C408.54,277.77,405.46,277.28,402.43,276.62Z" fill="#cbab91"/><path d="M440.08,277.33c10.62-2.58,21.46-2.48,32.28-2.66,7.3.65,14.71-.82,21.95,1v1.93c-10,0-19.92-.1-29.87.06-6.43.1-12.86.65-19.29.9C443.39,278.64,441.43,279.09,440.08,277.33Z" fill="#fdfcfb"/><path d="M434.07,278.55c1.62-1.35,3.61-.88,5.47-1.08C438,279.29,435.92,278.35,434.07,278.55Z" fill="#fdfcfb"/><path d="M265.75,284.86l4-.17A4.65,4.65,0,0,1,265.75,284.86Z" fill="#352e28"/><path d="M215.61,250.66a113.2,113.2,0,0,1-19.54-15.27,6.63,6.63,0,0,1,1.26-4.18A86.75,86.75,0,0,1,212,215.09c1.94-1.72,3.26-1.69,4.76.55,9.41,14.1,22.42,9.94,28.58-4.33,7-16.11,13.75-32.29,20.62-48.44,5.25.46,9.62,3.51,14.55,4.91,3.37,2.76,7.92,3.63,11,6.86q-9.5,22.2-19,44.39c-4.3,10-9.29,19.5-17.74,26.71-10.39,8.88-22.07,10.8-34.9,6.33C218.45,251.58,217,251.13,215.61,250.66Z" fill="#2eaeb6"/><path d="M280.52,167.78c-4.93-1.4-9.3-4.45-14.55-4.91-3.63-1.88-7.86-1.4-11.58-2.91a9.4,9.4,0,0,1,1.33-4.7q6.73-14.52,13.46-29.06c3.41-2.33,5.25-6.28,8.9-8.46,3.29-2,6.39-4.14,10.45-3.91.42,3.12,3.41,2.08,5.12,3,6,3.09,7.06,6.62,2.76,11.6-9,10.47-13.13,23.28-17.61,36C278,166.76,280.86,166.24,280.52,167.78Z" fill="#d8c2ad"/><path d="M498.37,251.58c6.16,2.52,8.15,8.33,6.3,17.25-.77,3.69-2.09,6.19-6.33,5.86C504.36,267,503.74,259.29,498.37,251.58Z" fill="#cbab91"/><path d="M496.37,251.65c-.32-1.6-.63-3.2-.95-4.79a4.84,4.84,0,0,1,3,4.72Z" fill="#cbab91"/><path d="M498.38,274.65a1.61,1.61,0,0,1-1.88.68Z" fill="#cbab91"/><path d="M140.52,148.75c-.25-3.37,1.94-5.91,2.93-8.86.66-2,1.86-4,.81-6.48-4.29,2.07-4.8,8-9.57,9.4-2.71-5.1-5.56-10.13-8.13-15.3-8-16.07,1.09-30.39,19.06-30.7,8.18-.15,16.1,1.7,24.19,2a5.9,5.9,0,0,1,.84,0l1,1,0,0,1.08,1c1.86,0,1.92,1.59,2.31,2.78,2.6,8,5.25,16,7.73,24.11,5.31,17.29.54,21-14,23.31C159.37,152.56,149.57,153.74,140.52,148.75Z" fill="#d8c2ad"/><path d="M140.68,42c.09-7.59,4.85-14.33,4-22.08-.21-2,1.27-2.93,2.66-3.81a30.65,30.65,0,0,1,19.31-4.89q-.09,31.47-.17,62.94c-4.93,1.44-9-.19-12.89-3.22-1.13-.89-2.23-2-3.87-2.08-.39-.24-.78-.5-1.19-.71,0,0-.2.22-.31.34l1.27.64c4.44,6.3,9,12.32,18.16,10.85a35.39,35.39,0,0,1,4.95-.13c-.17,5.26,2.11,10,3,15.09-5.64-1-11.3-2-16.92-3.2-2.91-.61-4.91-2.76-6.55-5.06-3.71-5.21-7.77-10.2-10.52-16a14.47,14.47,0,0,0,.14-11l-.21-2.51c1.1-.83.94-1.85.74-3.08C141.65,50.06,141.21,46,140.68,42Z" fill="#d2b8a0"/><path d="M216.52,97.9c1.6,6.56,6,12.16,6.6,19,.58,7.14,1.87,14.19-3.47,20.66-4.43,5.38-17.24,5-21.15-.67.6-.38,1.15-1,.75-1.61-5.55-8.18-7.14-17.79-10.07-26.94-2.17-6.8,1.45-13.49,8.32-15.73,4.6-1.51,8.8,1.25,13.19.22C214.79,92.05,213.5,97.47,216.52,97.9Z" fill="#dfccbb"/><path d="M275.53,112.89c-9,7.53-19.49,10.93-31.12,11.12-6.1.4-11.21-3-16.83-4.41,1-5.83-3.59-10.24-4-15.71,4.94-7.1,11.86-8.78,20.13-8.18,3.27.24,6.73,2.26,10.06.08A24.51,24.51,0,0,1,264,106.36C266.62,111.61,270.48,112.87,275.53,112.89Z" fill="#d8c2ad"/><path d="M123.73,79.07c3.13,2,6.29,4,9.39,6.09,2.87,1.92,5.42,4.18,6.63,7.57-12.31.66-19.89,7.86-20.11,19.1a7.05,7.05,0,0,1-4.7-2.48C105.69,99,94.39,93.71,80.27,95.54c-1.47.19-2.08-.72-2.56-1.85.52-1.57,3-1.57,2.93-3.6,2.23-.33,4.45-.1,6.54-1.69C98,80.16,110,76.15,123.73,79.07Z" fill="#d2b8a0"/><path d="M241.59,88.08l2.94.1,1.13.83c2.22,2.84,6.15,3.62,8.1,6.78C250.43,98,247,96,243.7,95.71c-8.27-.6-15.19,1.08-20.13,8.18-3.6-.52-3.06-5.92-7-6-3-.43-1.73-5.85-5.83-5-2.36-3.71-6.22-4.39-10.1-5-.11-3.67-3.4-7.06-1-11a35.77,35.77,0,0,1,16.83-1.6c1.09,2.51,4.16,2.78,5.56,4.7,2.44,3.36,9.23,4.44,5.83,11.1-.82,1.61,1.06,1.73,2.16,1C233.57,89.87,237.63,89.14,241.59,88.08Z" fill="#d2b8a0"/><path d="M119.64,111.83c.22-11.24,7.8-18.44,20.11-19.1a101.62,101.62,0,0,1,22.94,2.17c2.71.63,5.41,1.45,7.12,4-8.09-.35-16-2.2-24.19-2-18,.31-27,14.63-19.06,30.7,2.57,5.17,5.42,10.2,8.13,15.3l-.89.11c-8-8.08-13.17-17.53-14.15-29C119.65,113.21,119.65,112.52,119.64,111.83Z" fill="#e1cfbf"/><path d="M211.64,187.73c4.18,2.28,5.9,7,2.7,9.5-6.74,5.26-12.84,12.28-22.72,11.48a2.05,2.05,0,0,0-2-1h0c-1.37-8.62.26-11.64,7.49-12.86C202.73,193.91,207.66,191.85,211.64,187.73Z" fill="#d8c2ad"/><path d="M203.62,152.59c-.07-4,4.92-6.64,12.71-6.68,3.11,0,6.21,3.83,6.27,7.77.09,5.45-4.09,8.53-12.12,8.92C206.82,162.78,203.71,158.24,203.62,152.59Z" fill="#dfccbb"/><path d="M216,180.74c-2.6.35-4.42-.64-4.66-3.94a12.64,12.64,0,0,0-1.19-3.79c-1-2.43-2.94-5.14-.56-7.35a10.23,10.23,0,0,1,9.73-2.63c3.05.9,5,3.32,5.37,7C225.43,177.85,223.45,180.63,216,180.74Z" fill="#dfccbb"/><path d="M200.59,87.83c3.88.65,7.74,1.33,10.1,5-4.39,1-8.59-1.73-13.19-.22-6.87,2.24-10.49,8.93-8.32,15.73,2.93,9.15,4.52,18.76,10.07,26.94.4.59-.15,1.23-.75,1.61-5.4-4.2-6-10.89-8.47-16.57-2.28-5.29-3.82-10.92-5.56-16.43s-.32-9.6,4.81-12.81A19.52,19.52,0,0,1,200.59,87.83Z" fill="#e1cfbf"/><path d="M185.9,66.84c-.06,1-.11,2-.17,3-1.42,8.73-5.2,16.64-8.76,24.61-.13.3-.88.32-1.35.47-.88-5-3.16-9.83-3-15.09,3.34-3,7.43-5.32,9-9.93l0,0c1.47.35,1.88-.49,1.95-1.73A2.35,2.35,0,0,1,185.9,66.84Z" fill="#d8c2ad"/><path d="M211.64,187.73c-4,4.12-8.91,6.18-14.51,7.14-7.23,1.22-8.86,4.24-7.49,12.86-4.74-2.3-2.93-6.26-2.41-9.81a11.74,11.74,0,0,1,1.45-3.07c6.08-1.53,12.27-2.83,17.65-6.3C208,187.45,209.84,187.8,211.64,187.73Z" fill="#dfccbb"/><path d="M227.58,119.6c5.62,1.42,10.73,4.81,16.83,4.41-1.45,3.66-5.82,1.46-7.86,3.93l-7.94-.94Q228.1,123.3,227.58,119.6Z" fill="#a1836f"/><path d="M229.16,182.75c-1.87,1-2.68,1.71-3.58,1.86-3.67.6-4,2.61-2.74,5.6.48,1.12,1.53,2.7-.5,3.23-1.74.45-2.5-1.51-2.41-2.5.22-2.36-3.47-4.53-1.28-6.17C221.13,182.91,224.33,180.81,229.16,182.75Z" fill="#dfccbb"/><path d="M189.63,207.72a2.05,2.05,0,0,1,2,1h-2C189.64,208.38,189.64,208.05,189.63,207.72Z" fill="#dfccbb"/><path d="M172.74,100.89l-1.08-1Z" fill="#e1cfbf"/><path d="M171.69,99.88l-1-1Z" fill="#e1cfbf"/><path d="M140.68,42c.53,4,1,8.08,1.62,12.1.2,1.23.36,2.25-.74,3.08-4.17-.36-5.35-3.28-5.87-6.81-.31-2.12-.68-4.22-1-6.33,1.56-1.08.53-4.71,3.92-4Z" fill="#cbab91"/><path d="M138.58,40c-3.39-.73-2.36,2.9-3.92,4-3.73-1.38-4.85-3-1.48-6.4,2.32-2.37,3.6-5.75,5.35-8.67Q138.56,34.49,138.58,40Z" fill="#a1836f"/><path d="M185.9,66.84a2.35,2.35,0,0,0-2.34,1.36c-.86.33-1.72.67-1.95,1.73l0,0c-5,1.6-9,6.72-15.12,4.24q.08-31.47.17-62.94c4.22-.51,8.19.54,12.2,1.69,6.23,1.78,10.28,5.16,9.55,12.24-.44,4.36,2.8,7.73,3,11.9a1.83,1.83,0,0,0,0,2.93c.08.68.15,1.36.23,2-.13,2.25-.45,4.52-.55,6.71-.13,3.08-2.66,6.1-.45,9.26,0,.69,0,1.37,0,2.06C188.1,61.63,188.84,65.51,185.9,66.84Z" fill="#e1cfbf"/><path d="M248.7,88.39c-4.08-6.64-10.5-10.94-16.33-15.67-8.31-6.74-17-13.17-26.74-17.79.16-2.81,2.31-4.25,4.1-6s3.34-2,5.54-.26c6,4.71,12,9.33,18.28,13.61,17.35,11.85,33.25,25.71,51,37,4.69,3,10,5,15,7.51-3.6,5.1-9.58,1.9-14,4-7.15-.5-13.62-2.76-19-7.62-4.32-3.88-8.64-7.76-12.84-11.77A12.37,12.37,0,0,0,248.7,88.39Z" fill="#d2b8a0"/><path d="M190.63,58c-2.21-3.16.32-6.18.45-9.26.1-2.19.42-4.46.55-6.71,4.78-3.88,4.86-3.87,6.13.67a29.3,29.3,0,0,1-1.87,10.69C195,55.82,193.55,57.76,190.63,58Z" fill="#d2b8a0"/><path d="M250.62,160.23a1.18,1.18,0,0,1,1.89-.09A1.52,1.52,0,0,1,250.62,160.23Z" fill="#d8c2ad"/><path d="M119.64,111.83c0,.69,0,1.38,0,2.07-1.71-.16-3.19.18-4,1.94-14.89,8-30.37,9.47-46.48,4.33a12.44,12.44,0,0,0-2.46-.29c-2.28-2.59-6.6-2.52-8.07-6.17,4.54-8.38,10.63-15.29,19-20,.48,1.13,1.09,2,2.56,1.85,14.12-1.83,25.42,3.43,34.67,13.81A7.05,7.05,0,0,0,119.64,111.83Z" fill="#d8c2ad"/><path d="M77.71,93.69c-8.39,4.73-14.48,11.64-19,20-7.43,1.38-14.81,2.32-22.92-3.17,8.79.24,16.08-.17,22.24-4.81A94.28,94.28,0,0,0,70.29,95a24.8,24.8,0,0,1,6.48-5.14l3.87.25C80.68,92.12,78.23,92.12,77.71,93.69Z" fill="#a1836f"/><path d="M191.4,40a1.83,1.83,0,0,1,0-2.93Z" fill="#d2b8a0"/><path d="M248.7,88.39a12.37,12.37,0,0,1,4.93,3.12c4.2,4,8.52,7.89,12.84,11.77,5.39,4.86,11.86,7.12,19,7.62-3.1,1.72-6.53,1.83-10,2-5,0-8.91-1.28-11.52-6.53a24.51,24.51,0,0,0-10.25-10.57c-1.95-3.16-5.88-3.94-8.1-6.78a2,2,0,0,0,.21-.76Z" fill="#a1836f"/><path d="M166.51,74.14c6.13,2.48,10.13-2.64,15.12-4.24-1.57,4.61-5.66,6.93-9,9.93a35.39,35.39,0,0,0-4.95.13c-9.13,1.47-13.72-4.55-18.16-10.85l.23-.27c1.64,0,2.74,1.19,3.87,2.08C157.46,74,161.58,75.58,166.51,74.14Z" fill="#a1836f"/><path d="M149.52,69.11l-1.27-.64c.11-.12.28-.36.31-.34.41.21.8.47,1.19.71Z" fill="#a1836f"/><path d="M241.59,88.08c-4,1.06-8,1.79-11.57,4-1.1.69-3,.57-2.16-1,3.4-6.66-3.39-7.74-5.83-11.1-1.4-1.92-4.47-2.19-5.56-4.7C226.61,76.08,234.06,82.16,241.59,88.08Z" fill="#e1cfbf"/><path d="M245.87,88.25a2,2,0,0,1-.21.76l-1.13-.83Z" fill="#e1cfbf"/><path d="M181.61,69.93c.23-1.06,1.09-1.4,1.95-1.73C183.49,69.44,183.08,70.28,181.61,69.93Z" fill="#a1836f"/></g></g></svg>