<svg xmlns="http://www.w3.org/2000/svg" viewBox="0 0 477.39 747.16"><title>ex_d3_1_2</title><g id="Layer_2" data-name="Layer 2"><g id="Layer_1-2" data-name="Layer 1"><path d="M387.55,61.09c15,0,29.95-.06,44.92.11,3.71,0,4.92-1.19,4.93-4.88,0-10.23.18-10.29,10.61-10.22,9.71.07,8.39-1.39,8.39,8.47q0,336.77,0,673.52c0,1.66.07,3.32.1,5-.25,7-.25,7-7.43,7h-4c-7.35,0-7.35,0-8-7.11.07-2.15.2-4.31.2-6.47q0-310.12,0-620.26c0-10.15-.1-20.3.05-30.44.06-3.46-1.15-4.69-4.63-4.65-15.31.18-30.62.15-45.93.2l-.27-3.2h.94c14.76,0,29.53,0,44.29,0,1.7,0,4.65,1.12,4.44-2.18-.17-2.72-2.81-1.71-4.42-1.72-14.76-.08-29.53,0-44.29,0C387.52,63.14,387.54,62.11,387.55,61.09Z" fill="#c0bfbf"/><path d="M21.6,733c0-2,.16-4,.16-6q0-336.69,0-673.37c0-8.48-.94-7.51,7.36-7.56,11.29-.05,11.46,0,11.62,11.17.05,3.68,1.74,3.93,4.6,3.91,14.82-.06,29.63,0,44.45,0-1.22,2.33-3.16,3.09-5.75,3-4.47-.13-9,0-13.42,0-8.78,0-17.57,0-26.35,0-1.44,0-3.25-.27-3.25,2s1.81,1.93,3.25,2c1.16,0,2.32,0,3.48,0q15.17,0,30.33,0c2.14,0,4.36-.16,2.68,3.1-11.32,0-22.65.23-34-.13-4.81-.16-6.07,1.23-6.07,6q.18,324.7.12,649.41c0,2.16.07,4.32.12,6.48-.28,7-.28,7-7.44,7h-4C22.13,740.09,22.13,740.09,21.6,733Z" fill="#c0bfbf"/><path d="M21.6,733c.53,7.09.53,7.09,8,7.1h4c7.16,0,7.16,0,7.44-7,.83,0,1.66.05,2.49.05H433.12c1.33,0,2.66-.08,4-.12.66,7.11.66,7.11,8,7.11h4c7.18,0,7.18,0,7.43-7,4.83,0,9.66-.05,14.48.06,4.2.1,6.6,2.73,6.36,7.13-.2,3.82-1.58,6.85-6.18,6.83H10.91c-2.14,0-4.32.39-6.38-.68-3.08-1.61-5.3-4-4.28-7.53.9-3.12,2.45-6.11,6.88-5.84C11.93,733.33,16.77,733,21.6,733Z" fill="#eaebe5"/><path d="M213.47,37.25A55,55,0,0,1,213,19.9c1-8.39,6.13-14.27,13.91-17.43,8.37-3.4,16.93-3.39,25.1.64s13,10.68,12.72,20.22c-.12,4.65-.28,9.29-.42,13.93q-3,6.78-6,13.56c-2.92,3-3.12,7.82-6.66,10.47A12.6,12.6,0,0,0,244.27,60c-6-1.93-11.84-.64-17.63,1.13-4.42-1.81-4-7-7-9.86Q216.55,44.26,213.47,37.25Z" fill="#181818"/><path d="M259,60.92l7.66.28c-.11,3.89,2.79,2.94,4.91,2.94,24.7,0,49.39,0,74.09,0,3.81,0,7.57.11,10.91-2.13l.15,5a8.23,8.23,0,0,1-7,4.24l-2.22-.4c.31-2.35-1.05-2.73-3-2.73q-37.24,0-74.49,0c-2.27,0-3.48.69-3.27,3.1l-7.64.3A45.36,45.36,0,0,1,259,60.92Z" fill="#adadad"/><path d="M210.74,61.32l7.78-.28q0,5.16-.08,10.34l-7.74-.27c.15-3.92-2.8-2.92-4.89-2.92q-41.49-.06-83,0l-1.17-1.08c0-1,.09-2,.13-3q42.19,0,84.39,0C208.23,64.15,210.83,64.85,210.74,61.32Z" fill="#adadad"/><path d="M356.68,67l-.15-5c0-.36,0-.73-.08-1.09.42-5.86,1-5.74,6.56-5.61,3.72.09,7.61,1.64,11.42-.41,2.12-1.13,11.88,3.73,13.12,6.14,0,1,0,2,0,3.07,0,1.33,0,2.67,0,4h-.94c-1.77-1.1-3.75-1-5.72-1C372.78,67.13,364.73,67.07,356.68,67Z" fill="#e1c5b1"/><path d="M121.79,64.13c0,1-.09,2-.13,3-9.26.07-18.53.08-27.8.28-1,0-2,1.09-2.94,1.67-.06-2.7-.13-5.39-.2-8.09,0-1.39.49-3.45,1.63-3.25,4.42.76,7.66-3.24,12.33-2.29a27.93,27.93,0,0,0,10.15,0c5.42-1,6.48,1.53,7,5.67C121.78,62.13,121.79,63.13,121.79,64.13Z" fill="#e1c5b1"/><path d="M121.79,64.13c0-1,0-2,0-3l89,.2c.09,3.53-2.51,2.83-4.56,2.83Q164,64.16,121.79,64.13Z" fill="#c0bfbf"/><path d="M356.45,61c0,.36.05.73.08,1.09-3.34,2.24-7.1,2.14-10.91,2.13-24.7,0-49.39,0-74.09,0-2.12,0-5,1-4.91-2.94q41.43,0,82.85-.06C351.8,61.14,354.12,61,356.45,61Z" fill="#c0bfbf"/><path d="M90.72,61c.07,2.7.14,5.39.2,8.09-.08.81-.17,1.62-.25,2.42l-9.89-.23c1.68-3.26-.54-3.1-2.68-3.1q-15.16,0-30.33,0c-1.16,0-2.32,0-3.48,0-1.44-.06-3.25.26-3.25-2s1.81-2,3.25-2c8.78,0,17.57,0,26.35,0,4.47,0,9-.09,13.42,0,2.59.08,4.53-.68,5.75-3A4.65,4.65,0,0,1,90.72,61Z" fill="#adadad"/><path d="M218.44,71.38q0-5.17.08-10.34a18,18,0,0,0,0-6.67c.37-1,.74-2.08,1.1-3.12,3,2.81,2.58,8,7,9.86-.16,4.68,1,9.59-3.38,13.32-2.49,2.13-3.52,1.21-4.3-1.33C218.78,72.52,218.61,72,218.44,71.38Z" fill="#b4805b"/><path d="M259,60.92A45.36,45.36,0,0,0,259,71.53c-.13,1.54-.25,3.08-.38,4.62-3.33.12-4.91-2-6.09-4.69-1.42-3.31-.74-6.77-.93-10.17,3.54-2.65,3.74-7.42,6.66-10.47l1.36,3.37A12.38,12.38,0,0,0,259,60.92Z" fill="#c69778"/><path d="M259.65,54.19l-1.36-3.37q3-6.78,6-13.56c3.27-.18,4.25,1.55,4.2,4.58C268.44,48.27,265.15,53,259.65,54.19Z" fill="#ddbaa1"/><path d="M219.64,51.25c-.36,1-.73,2.08-1.1,3.12-6.2-1.48-10.52-8.79-8.8-14.75.58-2,1.93-2.45,3.73-2.37Q216.56,44.26,219.64,51.25Z" fill="#c69778"/><path d="M386.82,71.37q-.36,3.34-.71,6.68c-4.61,3.88-6.57,9.75-10.59,14.06l-14.95,0c.64-3.94-1.8-6.33-4.68-8-5.12-3-6.88-7.27-6.25-12.87a8.23,8.23,0,0,0,7-4.24c8.05,0,16.1.1,24.15.11,2,0,3.95-.07,5.72,1Z" fill="#dab498"/><path d="M387.49,68.16c0-1.33,0-2.67,0-4,14.76,0,29.53,0,44.29,0,1.61,0,4.25-1,4.42,1.72.21,3.3-2.74,2.17-4.44,2.18C417,68.2,402.25,68.16,387.49,68.16Z" fill="#adadad"/><path d="M251.63,61.29c.19,3.4-.49,6.86.93,10.17,1.18,2.73,2.76,4.81,6.09,4.69a4.06,4.06,0,0,0,2.88,2.11c-4.14,2.62-10.07,1.86-12.94,6.87-5.38,2-7.16,7-8.81,11.53-3.12,8.61.45,17.61-.9,26.54-1.49,9.91.71,20.08-.17,30.15-.14,1.56-.59,3.36.95,4.67.33,2.09-.62,4-1,6-2.34.38-3.19,2.37-3.85,4.13-2.57,6.85-6.19,13.12-9.86,19.4-1.41,2.42-4.07,3.87-4.65,6.93s-2.78,3.9-5.64,3.51c-1-1.49-2-3-3-4.47-10.25-13.83-17.82-28.74-18.87-46.31,5.41-.75,11.05-.55,15.8-3.93,1.34-1.87,3.33-1,5.06-1.19s3.46.39,4.53-1.35c1.18-1.92-.45-3.16-1.39-4.38-4.48-5.76-6.73-12.64-9.88-19.07-3.31-6.77-5.18-14.27-10.22-20.17l.06-3a6.47,6.47,0,0,0,4.05-1.76c4.49-4.24,10-6,15.84-7.55,4.09-1.09,8.07.14,12-.68,3.92,2.33,6.17,6.39,9.69,10.29.22-4,.86-6.85.57-10.09-.59-6.53.12-13.18,0-19.77-.05-3.9,1.93-4.91,5.3-4.59A12.6,12.6,0,0,1,251.63,61.29Z" fill="#d6ad8e"/><path d="M244.27,60c-3.37-.32-5.35.69-5.3,4.59.08,6.59-.63,13.24,0,19.77.29,3.24-.35,6.09-.57,10.09-3.52-3.9-5.77-8-9.69-10.29-3.23-3.57-8.24-3.57-12-6,2.57-.85,1.74-3.25,2.31-5,.78,2.54,1.81,3.46,4.3,1.33,4.34-3.73,3.22-8.64,3.38-13.32C232.43,59.34,238.24,58.05,244.27,60Z" fill="#d2a381"/><path d="M345.31,71.24H266.67c-.21-2.41,1-3.1,3.27-3.1q37.24.08,74.49,0c1.94,0,3.3.38,3,2.74Z" fill="#c0bfbf"/><path d="M345.31,71.24l2.11-.36q1.11.18,2.22.39c-.63,5.6,1.13,9.91,6.25,12.87,2.88,1.66,5.32,4,4.68,8,0,.32,0,.65-.06,1l-4.93,0a37.8,37.8,0,0,0-3.13-3.85C347.25,84.35,344.06,78.69,345.31,71.24Z" fill="#d2a381"/><path d="M91.23,75.06c-.19-1.19-.37-2.39-.56-3.58.08-.8.17-1.61.25-2.42,1-.58,2-1.65,2.94-1.67,9.27-.2,18.54-.21,27.8-.28l1.17,1.07c.82,3.31,3.54,2.86,6,3-.13,5-1.45,9.13-6.24,12-3.07,1.81-5.7,4.65-4.78,9h-15c-.6-.54-1.23-1-1.79-1.63C96.73,86,94.75,80,91.23,75.06Z" fill="#dab498"/><path d="M128.78,71.2c-2.41-.16-5.13.29-6-3q41.49,0,83,0c2.09,0,5-1,4.89,2.92l-78,.14Z" fill="#c0bfbf"/><path d="M285.3,228.88C290.82,240,293.71,252,296,264.07c-7.61,33.43-6.68,67.69-10,101.53-3.52,1.64-7.29,2-11.11,2.3-9.51.76-18.79-1.17-28.15-2.21-3.19-.94-3.89-3.2-4.12-6.32-1.13-15.08-2.53-30.13-3.83-45.19-.06-1.32-.18-2.64-.18-4q0-35.62-.05-71.24l1.94-.45,2.17-.13,1.33-.3,4.59-.29c11-.85,21.84-2.34,31.91-7.26C282.24,230.25,283.33,228.32,285.3,228.88Z" fill="#3c3e3c"/><path d="M238.63,239q0,35.61.05,71.24c0,1.32.12,2.64.18,4-1.33,15.2-2.82,30.39-3.87,45.62-.23,3.31-1.3,5.1-4.28,6-2.8-.23-5.33.94-8,1.52l-2.91.15c-9.49.65-19,1.93-28.23-1.88q-2.72-38-5.43-76a90.57,90.57,0,0,0-4.57-22.8c2-13.18,5.17-26,11.14-38.08l3.92,1.25c10.23,5.88,21.63,6.83,33,7.89Z" fill="#181818"/><path d="M341.73,356.23c0-5.82-.28-11.66.08-17.46.26-4.24-1.25-5.59-5.34-5.26-2,.16-5,1.23-6-.67s1.81-3.59,3-5.23c7.45-10,15.13-19.77,22.6-29.73,1.65-2.2,2.63-3,4.63-.32,8.38,11.14,16.9,22.18,25.4,33.23,1.75,2.27.71,2.66-1.55,2.85-9.2.77-9.2.82-9.19,10.14,0,10.15-.11,20.29.07,30.43.07,3.7-.73,5.45-5,5.29-8.14-.32-16.31-.19-24.46,0-3.16.05-4.49-.93-4.39-4.28C341.87,368.87,341.73,362.55,341.73,356.23Z" fill="#f9bf7a"/><path d="M135.89,356.8c0,6.31-.09,12.63,0,18.94.06,2.79-.88,3.78-3.74,3.72-8.14-.16-16.3-.2-24.43,0-3.87.11-5.27-1.1-5.19-5.11.24-11.79-.12-23.59.23-35.38.13-4.53-1.35-6-5.63-5.42a18.5,18.5,0,0,1-3.49,0c-.93,0-2.12.42-2.58-.82-.39-1.09.47-1.83,1.07-2.61,8.4-10.9,16.89-21.74,25.13-32.76,2-2.62,2.6-1.74,4.11.26,8.21,10.86,16.56,21.6,24.88,32.37.6.79,1.59,1.52,1.24,2.56-.49,1.46-1.93.95-3,1-8.62.5-8.62.49-8.62,9.25Z" fill="#f9bf7a"/><path d="M238,485.5a46.12,46.12,0,0,1-2.93,11c-5.6,12.44-18,14.34-27.08,3.95-6.53-7.49-8.76-16.59-8.68-26.28,0-4.09.31-8.25,2.24-12.05l-.09-.37.32-.24-.06,0c5.22-7.39,15.74-12.76,9.32-24.6-.44-.81,0-2.07-.4-2.92-1.84-3.87.63-8.52-2.26-12.17-.1-1.64-.2-3.27-.31-4.91l0-.19c.95-.87.76-2,.73-3.09,2.16-6.67,6-11.33,13.55-12.09,3.44-.35,6.52.92,9.75,1.6,2.38,2.48,5.39,4.54,5.83,8.37.17,3.11.33,6.21.49,9.32-.86,3.65-.63,7.52-2.29,11a.81.81,0,0,1-.41.82l.1,0c-4.08.67-2.93,4.71-4.25,7.06-2.88,5.09-4,10.7-1.44,16.53,1.77,4,3.14,8.28,4.83,12.37.39.93.24,3,2.43,1.94l.54,1a12.64,12.64,0,0,0,.49,5.43c0,.44.09.88.13,1.32l-.14,4.3A3.43,3.43,0,0,0,238,485.5Zm-18.91-30c-5.75.14-8.47,3.56-10.27,7.49-4.66,10.16-3.67,20.38,1.46,30,2,3.74,5.91,6.73,10.58,6.31,4.42-.4,7.34-3.67,8.94-7.72a33.65,33.65,0,0,0-.18-26.45A16.78,16.78,0,0,0,219,455.54Zm13.65-35.24c0-2,0-3.51,0-5-.16-5.89-3.1-8.74-8.91-8.68-4.85.06-8.83,3.52-10.09,9.16-1.73,7.79-2.5,15.51,4.32,21.59,2.8,2.51,5.35,2.92,8.64,0C232.09,432.46,232.92,426.4,232.69,420.3Z" fill="#3c3e3c"/><path d="M277.28,465.49c3.1,11.57.93,22.35-5.39,32.27-3.87,6.07-9.54,9.92-17,9.12-7.69-.82-11-6.74-13.16-13.28a43.87,43.87,0,0,1-1.77-19.12c1.13-.22,1.42-1,1.79-2,1.72-5,3.45-10,5.56-14.86,1.91-4.4,2.72-8.88,1-13.31-1.85-4.76-4.5-9.21-5.14-14.42-.2-1.67-1.09-1.74-2-.3-1.11-2.86-1.23-5.89-1.59-8.88l0-7.18c.2-4.13,2.63-7,5.44-9.65,14.85-5.86,24.9,1.09,24.46,16.91-.1.07-.28.18-.27.2a3.25,3.25,0,0,0,.3.51l.09,2.2c-2,6.91-2.43,14.16-4.79,21-.76,2.21.39,4.15,2.19,5.66a25.55,25.55,0,0,1,7.92,12.33C275.23,463.89,275.68,465.23,277.28,465.49Zm-5.6,10.87c.24-3.55.17-7.11-1.19-10.34-1.91-4.57-4-9.62-9.73-10.13-4.55-.41-8.22,2.33-10.77,6.09-5.89,8.67-5.83,24.65,0,33.17,3.59,5.23,9.33,5.82,14,1.43C270,491.09,271.37,483.91,271.68,476.36Zm-7.14-53.05c1.09-4.69-.9-9.18-3.8-13.36a7.73,7.73,0,0,0-9.2-3c-3.38,1-6.48,3.11-6.81,7.06-.55,6.64-.24,13.29,3,19.31,1.72,3.17,3.77,6.43,8.11,6.27,4.09-.14,5.91-3.23,7.42-6.41C264.67,430.24,264.91,427.09,264.54,423.31Z" fill="#3c3e3c"/><path d="M126.17,196.28c-7.43,4.61-12.81,2.73-15.2-5.34a2,2,0,0,0,.77-2c0-.34,0-.67,0-1,.8.22,1.59.47,2.4.66,6.23,1.47,7.24.48,8.93-5.68,1.52-5.59.74-11.46,2.72-16.92h.91c2.89-4.72,5.52-9.62,8.72-14.12,6.07-8.53,12.28-17,23.28-19.83,5.45,5.42,7.94,11.78,5,19.22-4.65,11.92-11.81,21.86-23.21,28.43-4,2.33-8.57,3.2-12.67,5.3C122.86,187.55,122,192.07,126.17,196.28Z" fill="#d6ad8e"/><path d="M192.79,147.18c1.05,17.57,8.62,32.48,18.87,46.31,1.07,1.44,2,3,3,4.47,0,.33,0,.73.17,1,6.93,10,10.78,21.36,14.27,32.87.44,1.46,1,2.84-.42,4.07-3.19-6.92-8.62-12.05-13.89-17.31a8.88,8.88,0,0,0-6.22-2.75c-2-6.18-7.24-9.67-11.19-14.68-.69,1.73-1.11,2.77-1.52,3.81.35-9.53-4.89-17.43-7.8-26-3-8.79-6.5-17.39-8.41-26.52-.26-1.28-.39-2.68-1.87-3.28,0-1.75.64-3.2,2.59-2.66C184.51,147.62,188.68,146.67,192.79,147.18Z" fill="#c69778"/><path d="M296.62,146c-1.35,10.56-5,20.54-7.89,30.69-2.34,8.1-4.8,16.17-7.2,24.26-5,4.35-10.08,8.58-12.85,14.83-2-.09-3.24,1.18-4.76,2.22-6.23,4.26-9.37,11.42-15.27,16a89.6,89.6,0,0,1,14.94-34.08c3.57-4.72,7.11-9.46,10.72-14.15,8.76-11.36,13.39-24.34,15.16-38.45Z" fill="#d2a381"/><path d="M126.17,196.28c-4.19-4.21-3.31-8.73,1.7-11.29,4.1-2.1,8.63-3,12.67-5.3,11.4-6.57,18.56-16.51,23.21-28.43,2.9-7.44.41-13.8-5-19.22,2.17-4.08,6.58-4.28,10.19-5.88,3.07-1.37,4.61-.32,4.79,3-.26.57-.82,1.19-.74,1.71,1.87,12-.65,23.2-5.83,34-.68,1.41-3.37,2.8-1.43,5.11-5.08,7.19-12.34,11.8-19.62,16.32A126.7,126.7,0,0,1,126.17,196.28Z" fill="#d2a381"/><path d="M286.07,365.6c3.28-33.84,2.35-68.1,10-101.53,5.19,17.14,2.72,34.59,2,51.94-.55,13.61-1.64,27.2-2.34,40.8-.14,2.67-.41,5-3,6.29l-1.07.43Z" fill="#37b0b7"/><path d="M181.59,266.76a90.57,90.57,0,0,1,4.57,22.8q2.75,38,5.43,76l-6.76-2.41c-2.2-1.82-2.85-4.14-3-7-1-22.17-2.21-44.33-3.28-66.5C178.2,281.88,179.56,274.26,181.59,266.76Z" fill="#37b0b7"/><path d="M352.06,196.32l-2.58-.82-.83-.57c-12.4-5.65-24.55-11.69-33.92-22,1.51-2.09-.61-3.19-1.3-4.65-5.55-11.71-6.88-23.76-2.92-36.23,6.31,1.28,7.16,2.71,4.42,8.22a13.61,13.61,0,0,0-.88,9.66c2.37,9.93,8.55,17.45,15.81,24.09a50,50,0,0,0,24.63,12l.05,2C354.45,191,355.19,194.23,352.06,196.32Z" fill="#d2a381"/><path d="M111.75,187.94c0,.33,0,.66,0,1l-1.47.12c-6-6.94-7.72-15.6-9.35-24.14-3.68-19.22-1.42-38.71-2-58.07-.21-6.65-.61-13.06-4.46-19-2.41-3.71-3-8.3-3.18-12.81C94.75,80,96.73,86,101,90.5c.56.58,1.19,1.09,1.79,1.63-.2,4.48.84,8.91.86,13.31.1,16.22.09,32.44,2.23,48.53C107.4,165.35,109.77,176.62,111.75,187.94Z" fill="#e1c5b1"/><path d="M375.51,92.11c4-4.31,6-10.18,10.6-14.06a23.49,23.49,0,0,1-4,12.09c-4.39,6.34-3,13.83-3.36,20.76-.7,13.43-.1,26.92-.34,40.38a79,79,0,0,1-9.7,37.12,24.55,24.55,0,0,1-2,2.76c-.06-1.72-.13-3.45-.19-5.18,2.26-3.08.61-6.7,1.43-10.06,2.33-9.55,5.46-19.1,5.41-28.94-.09-15.55,1.33-31,1.14-46.56A27.34,27.34,0,0,1,375.51,92.11Z" fill="#e1c5b1"/><path d="M358.76,386.92c4.31,0,8.63.14,12.93-.06,2.83-.13,4,.87,3.73,3.69a26.69,26.69,0,0,0,0,4.47c.19,2.53-.81,3.55-3.43,3.53q-13.41-.15-26.84,0c-2.54,0-3.39-.88-3.49-3.46-.33-8.21-.44-8.2,7.66-8.17C352.47,386.93,355.61,386.92,358.76,386.92Z" fill="#f9bf7a"/><path d="M119.61,386.89c4.32,0,8.64.08,13,0,2.74-.07,4.14.72,3.45,3.75a10.11,10.11,0,0,0-.08,3.47c.46,3.55-1.09,4.58-4.53,4.49-8.13-.21-16.27-.2-24.39,0-3.13.07-4.76-.69-4.36-4.12a15.22,15.22,0,0,0,0-4.47c-.48-2.66.86-3.1,3.06-3.06,4.65.07,9.3,0,13.94,0Z" fill="#f9bf7a"/><path d="M310.5,132c-3.95,12.47-2.62,24.52,2.93,36.23.69,1.46,2.81,2.56,1.3,4.65-7.06-7-11.84-15.48-15.25-24.78-.36-1,.08-4.2-2.86-2.1l-7.15,1.28c-3.48-.11-7.05.2-10.44-.44-4.22-.81-9.06,0-12.36-3.87l-.05.06c2.29.16,4.61.15,6.87.51,12.33,2,23.19-.62,32.15-9.76,1.44-1.47,2.48-3.61,5-3.78C310.56,130.71,310.53,131.37,310.5,132Z" fill="#b4805b"/><path d="M239.54,420.68c.36,3,.48,6,1.59,8.88,5,13.13,5.85,26.22-.39,39.25a21.3,21.3,0,0,0-.89,2.77h-2l-.54-1c-4.41-12.48-7.31-25-1.57-37.9l-.1,0,.41-.82c1.66-3.48,1.43-7.35,2.29-11ZM239.48,434c-3.77,10.89-.25,21.11,0,31.34Z" fill="#eaebe5"/><path d="M208,416.93c.11,1.64.21,3.27.31,4.9a.94.94,0,0,0-.17.84l-.57,5.62c-1.57,1.35-2.25.24-2.87-1-2.84-5.87-6.94-10.92-10.58-16.28a38.81,38.81,0,0,1-6.56-18.09c-.55-5.43-.91-10.89-1.36-16.33,2.22.19,4.26-1.35,6.53-.67C188.93,388.9,196.6,409.51,208,416.93Z" fill="#d2a381"/><path d="M165.69,170c-1.94-2.31.75-3.7,1.43-5.11,5.18-10.85,7.7-22,5.83-34-.08-.52.48-1.14.74-1.71,5.62,11.15,14.68,16,27.09,15,2.61-.23,5.1-1.52,7.81-.84-4.75,3.38-10.39,3.18-15.8,3.93-4.11-.51-8.28.44-12.4-.68-1.95-.54-2.6.91-2.59,2.66A58.14,58.14,0,0,1,165.69,170Z" fill="#b4805b"/><path d="M290.49,383.63A43.66,43.66,0,0,1,281,414.78a71.41,71.41,0,0,0-7.8,12.13c-.59,1.2-1,3.15-3.13,1.59-.43-1.45-.67-2.89.24-4.27a7.11,7.11,0,0,0,1.26-4.73c-.72-3.93,1.47-6.5,3.8-9.18,7.12-8.21,11.65-17.49,11.26-28.68C288.33,381.54,289.18,383,290.49,383.63Z" fill="#d2a381"/><path d="M192.75,375.88c-2.27-.68-4.31.86-6.53.67a68.92,68.92,0,0,1-1.39-13.36l6.76,2.4c9.2,3.81,18.74,2.53,28.23,1.88l2.91-.15c-1,2.09-3.19,1.82-4.87,2.61s-4.55-.29-5.21,2.62C205.52,370.66,199.07,372.89,192.75,375.88Z" fill="#b4805b"/><path d="M268.68,215.82c2.77-6.25,7.88-10.48,12.85-14.83q1.89,13.95,3.77,27.89c-2-.56-3.06,1.37-4.73,1.67a59.16,59.16,0,0,0-1.35-6.24C277.15,218.05,274.67,216.13,268.68,215.82Z" fill="#c69778"/><path d="M195.88,204.94c.41-1,.83-2.08,1.52-3.81,3.95,5,9.2,8.5,11.19,14.68-4.36-.2-7.15,2-8.78,5.85-1.16,2.71-2.11,5.51-3.16,8.27l-3.92-1.25Z" fill="#b4805b"/><path d="M290.49,383.63c-1.31-.61-2.16-2.09-3.84-2,.34-3-1.93-4.39-3.7-6.06-2.34-2.21-5.76-2.25-8.35-4,1.35-1.38,3.21-1.41,4.88-2,4.25-1.54,9.68-.91,12.14-6.06l1.06-.43A92.59,92.59,0,0,1,290.49,383.63Z" fill="#c69778"/><path d="M270.33,424.23c-.91,1.38-.67,2.82-.24,4.27l-.09,2.11a4.91,4.91,0,0,0-.21,3.67,31.46,31.46,0,0,0,3.38,19.13,41.11,41.11,0,0,1,4.11,12.08c-1.6-.26-2-1.6-2.43-2.83a25.55,25.55,0,0,0-7.92-12.33c-1.8-1.51-2.95-3.45-2.19-5.66,2.36-6.84,2.81-14.09,4.79-21Z" fill="#181818"/><path d="M208.16,422.67a.94.94,0,0,1,.17-.84c2.89,3.66.42,8.31,2.26,12.18.4.85,0,2.11.4,2.92,6.42,11.84-4.1,17.21-9.32,24.6-.57-2.2.87-3.82,1.79-5.49A38.89,38.89,0,0,0,208,431.58,12.94,12.94,0,0,0,208.16,422.67Z" fill="#181818"/><path d="M239.85,471.58a21.3,21.3,0,0,1,.89-2.77c6.24-13,5.38-26.12.39-39.25.91-1.44,1.8-1.37,2,.3.64,5.21,3.29,9.66,5.14,14.42,1.73,4.43.92,8.91-1,13.31-2.11,4.85-3.84,9.86-5.56,14.86-.37,1.05-.66,1.81-1.79,2Z" fill="#181818"/><path d="M366.52,186c.06,1.73.13,3.46.19,5.18-2.26,7.84-7.62,9.73-14.65,5.16,3.13-2.09,2.39-5.34,2.48-8.34C358.79,188.86,363.23,190.86,366.52,186Z" fill="#d6ad8e"/><path d="M208.16,422.67a12.94,12.94,0,0,1-.17,8.91c-.13-1.1-.27-2.19-.4-3.28Z" fill="#3c3e3c"/><path d="M269.79,434.28a4.91,4.91,0,0,1,.21-3.67A2.91,2.91,0,0,1,269.79,434.28Z" fill="#d6ad8e"/><path d="M238,485.5a3.43,3.43,0,0,1,.38-2.86A2,2,0,0,1,238,485.5Z" fill="#eaebe5"/><path d="M110.27,189.06l1.47-.12a2,2,0,0,1-.77,2C110.74,190.32,110.51,189.69,110.27,189.06Z" fill="#ddbaa1"/><path d="M348.65,194.93l.83.57Z" fill="#d6ad8e"/><path d="M238.47,478.34c0-.44-.09-.88-.13-1.32a7,7,0,0,1,.29.88C238.65,478,238.53,478.19,238.47,478.34Z" fill="#eaebe5"/><path d="M201.73,461.5l-.32.24.09.37A.4.4,0,0,1,201.73,461.5Z" fill="#181818"/><path d="M366.52,186c-3.29,4.88-7.73,2.88-12,2,0-.66,0-1.31-.05-2,1-6-2.07-11.46-2.07-17.31-.56-9-1.16-18-3.95-26.64a2.11,2.11,0,0,0,2-1.76c1.9-7.67,4.09-15.26,5.74-23,1.71-8,4.38-15.89,4.26-24.23,0-.32,0-.65.06-1l14.95,0a27,27,0,0,0-1,8.31c.19,15.53-1.23,31-1.14,46.56.05,9.84-3.08,19.39-5.41,28.94C367.13,179.28,368.78,182.9,366.52,186Z" fill="#ddbaa1"/><path d="M266.67,143c3.3,3.85,8.14,3.06,12.36,3.87,3.39.64,7,.33,10.44.44-1.77,14.11-6.4,27.09-15.16,38.45-3.61,4.69-7.15,9.43-10.71,14.15a8.74,8.74,0,0,1-4.72-4.1c-2.35-4.08-4.93-8-7.37-12-3.42-5.59-7.16-10.9-9.14-17.22-.56-1.78-1.67-2.8-3.65-2.58h0c.36-2,1.31-3.88,1-6,.48-.1,1.12,0,1.43-.33,11.12-10.62,21.83-21.52,27.62-36.24,2.47-6.25,5.29-12.37,8.11-18.47,2.24-4.85,5-5.12,8.13-.89a36.19,36.19,0,0,1,3.38,5.48c3.18,6.34,6.79,11.88,14.65,13.39a9.51,9.51,0,0,1,7.6,7.09c0,.66,0,1.32,0,2-2.48.17-3.52,2.31-5,3.78-9,9.14-19.82,11.76-32.15,9.76-2.26-.36-4.58-.35-6.87-.51a1.49,1.49,0,0,0-1.92-.75c-.11,0-.16.25-.25.38Z" fill="#ddbaa1"/><path d="M310.58,128.05A9.51,9.51,0,0,0,303,121c-7.86-1.51-11.47-7-14.65-13.39a36.19,36.19,0,0,0-3.38-5.48c-3.15-4.23-5.89-4-8.13.89-2.82,6.1-5.64,12.22-8.11,18.47-5.79,14.72-16.5,25.62-27.62,36.24-.31.29-1,.23-1.43.33-1.54-1.31-1.09-3.11-.95-4.67.88-10.07-1.32-20.24.17-30.15,1.35-8.93-2.22-17.93.9-26.54,1.65-4.57,3.43-9.56,8.81-11.53,12.1-2.43,22.52.33,30.6,10.07,1.7,2,3.42,2,5.68.88,4.37-2.15,9.3-3.37,13.92-2.74,15.64,2.16,22.89,9,25.73,24.76-1.29,1.32-1.27,2.73-.35,4.3,2-1,1.2-2.83,1.41-4.31,1.18-6.88-2.55-12.72-4-19,6,6.36,7.84,14.35,9,22.62.38,2.79.75,5.58,1.13,8.37-1.64.08-3.26-.58-4.77-.58-4.2,0-7.85-4.69-12.35-1.39Z" fill="#dab498"/><path d="M208.59,143.25c-2.71-.68-5.2.61-7.81.84-12.41,1.07-21.47-3.82-27.09-15-.18-3.28-1.72-4.33-4.79-3-3.61,1.6-8,1.8-10.19,5.88-11,2.8-17.21,11.3-23.28,19.83-3.2,4.5-5.83,9.4-8.71,14.12,1.15-6.08,2.54-12.08,5.78-17.46a4.38,4.38,0,0,0,.31-4.58c2.21.31,2.56-1.64,3.46-2.88,2.86-3.93,5.61-8,9.53-11l3,0c6.23,0,7-.56,5.79-6.86a29,29,0,0,1,.19-11.19c1.85-10,12.22-18.43,22.35-19,7-.4,13.13,2.39,19.58,4.09,5,5.9,6.91,13.4,10.22,20.17,3.15,6.43,5.4,13.31,9.88,19.07.94,1.22,2.57,2.46,1.39,4.38-1.07,1.74-2.92,1.19-4.53,1.35S209.93,141.38,208.59,143.25Z" fill="#dab498"/><path d="M228.7,235.87c1.45-1.23.86-2.61.42-4.07-3.49-11.51-7.34-22.85-14.27-32.87-.17-.24-.12-.64-.17-1,2.86.39,5.09-.59,5.64-3.51s3.24-4.51,4.65-6.93c3.67-6.28,7.29-12.55,9.86-19.4.66-1.76,1.51-3.75,3.85-4.13h0q0,34.92-.08,69.83c0,1.9,0,3.67,1.93,4.71l-1.94.45-9-1.16Z" fill="#d2a381"/><path d="M321.59,99c1.44,6.33,5.17,12.17,4,19h-1.06c-2.84-15.73-10.09-22.6-25.73-24.76-4.62-.63-9.55.59-13.92,2.74-2.26,1.11-4,1.16-5.68-.88-8.08-9.74-18.5-12.5-30.6-10.07,2.87-5,8.8-4.25,12.94-6.87a73.47,73.47,0,0,1,18,6.91,21.84,21.84,0,0,0,13.23,3c8.77-.8,17.13.4,24.49,5.84C319.08,95.4,321.13,96.48,321.59,99Z" fill="#e1c5b1"/><path d="M196.69,97.09c-6.45-1.7-12.55-4.49-19.58-4.09-10.13.59-20.5,9-22.35,19a29,29,0,0,0-.19,11.19c1.22,6.3.44,6.83-5.79,6.86l-3,0c.89-4.86,1.6-9.77,2.71-14.58,4.16-17.94,13.13-26.08,31.33-28.05,4.56-.49,9.19,1.2,13.85.63a10.88,10.88,0,0,0,3.06,6Z" fill="#e1c5b1"/><path d="M196.75,94.13a10.88,10.88,0,0,1-3.06-6c7-4.93,14.86-7.7,23-10,3.78,2.46,8.79,2.46,12,6-4,.82-7.94-.41-12,.68-5.83,1.55-11.35,3.31-15.84,7.55A6.47,6.47,0,0,1,196.75,94.13Z" fill="#ddbaa1"/><path d="M314.59,128.06c4.5-3.3,8.15,1.38,12.35,1.39,1.51,0,3.13.66,4.77.58a40.73,40.73,0,0,1,9.62,10.53c.9,1.37,1.55,2.95,3.28,3.54-.29,2.08.55,3.85,1.36,5.69,2.14,4.84,4.21,9.72,4.77,15.07-1.63,1-1.58-.7-1.82-1.31a60.43,60.43,0,0,0-10.64-17.35C331.68,138.42,323.57,132.7,314.59,128.06Z" fill="#ddbaa1"/><path d="M360.51,93.1c.12,8.34-2.55,16.21-4.26,24.23-1.65,7.71-3.84,15.3-5.74,23a2.11,2.11,0,0,1-2,1.76l-2.13-2.34c4.68-15.22,7.07-30.89,9.24-46.6Z" fill="#d6ad8e"/><path d="M346.34,139.72l2.13,2.34c2.79,8.66,3.39,17.65,3.95,26.64l-1.68-3.84c-.56-5.35-2.63-10.23-4.77-15.07-.81-1.84-1.65-3.61-1.36-5.69Q345.47,141.91,346.34,139.72Z" fill="#b4805b"/><path d="M116.77,92.12h1a8.1,8.1,0,0,0,4.36,1.07c2.58,11.91,2.89,24.23,6.6,35.93,1.14,3.61,2,7.3,3,11l-2.85,2c-1.19-.65-1.24-1.94-1.51-3-2.89-11.76-6.59-23.33-8.55-35.32C118.16,99.87,117.45,96,116.77,92.12Z" fill="#d6ad8e"/><path d="M122.12,93.19a8.1,8.1,0,0,1-4.36-1.07c-.92-4.32,1.71-7.16,4.78-9,4.79-2.82,6.11-7,6.24-12l3.93,0c1.58,8.22-2.86,13.8-8.33,18.92a1.21,1.21,0,0,0-.57.61C123.24,91.58,122.68,92.39,122.12,93.19Z" fill="#d2a381"/><path d="M128.85,142.07l2.85-2,1.11,3.87a4.38,4.38,0,0,1-.31,4.58c-3.24,5.38-4.63,11.38-5.78,17.46h-.92C125,157.79,127.82,150.05,128.85,142.07Z" fill="#c69778"/><path d="M123.81,90.78a1.21,1.21,0,0,1,.57-.61A.51.51,0,0,1,123.81,90.78Z" fill="#d6ad8e"/><path d="M128.85,142.07c-1,8-3.83,15.72-3,23.93-2,5.46-1.2,11.33-2.72,16.92-1.69,6.16-2.7,7.15-8.93,5.68-.81-.19-1.6-.44-2.4-.66-2-11.32-4.35-22.59-5.87-34-2.14-16.09-2.13-32.31-2.23-48.53,0-4.4-1.06-8.83-.86-13.31h14c.68,3.88,1.39,7.75,2,11.63,2,12,5.66,23.56,8.55,35.32C127.61,140.13,127.66,141.42,128.85,142.07Z" fill="#ddbaa1"/><path d="M240.57,238.53c-1.95-1-1.93-2.81-1.93-4.71q.08-34.92.08-69.83c2-.22,3.09.8,3.65,2.58,2,6.32,5.72,11.63,9.14,17.22,2.44,4,5,8,7.37,12a8.74,8.74,0,0,0,4.72,4.1,89.47,89.47,0,0,0-15,34.08v3.81l-4.6.29-1.32.3Z" fill="#dab498"/><path d="M248.66,237.81V234c5.9-4.54,9-11.7,15.27-16,1.52-1,2.77-2.31,4.76-2.22,6,.31,8.47,2.23,10.54,8.49a59.16,59.16,0,0,1,1.35,6.24C270.5,235.47,259.65,237,248.66,237.81Z" fill="#ddbaa1"/><path d="M247.77,375.65c-.3-3.32-1.47-6.56-1-10,9.36,1,18.64,3,28.15,2.21,3.82-.3,7.59-.66,11.11-2.3l5.54-2.07c-2.45,5.15-7.88,4.52-12.13,6.06-1.67.6-3.53.63-4.88,2-5.53-.1-10.64,1.89-15.89,3.18C255,374.55,251.5,376.39,247.77,375.65Z" fill="#b4805b"/><path d="M242.74,238.4l1.32-.3Z" fill="#d2a381"/><path d="M228.7,235.87l1,1.95c-11.38-1.06-22.78-2-33-7.89,1-2.76,2-5.56,3.16-8.27,1.63-3.82,4.42-6,8.78-5.85a8.88,8.88,0,0,1,6.22,2.75C220.08,223.82,225.51,229,228.7,235.87Z" fill="#d6ad8e"/><path d="M230.71,365.8c.72,6.12-1.43,11.9-2.06,17.87-4.93-4.28-9.39-9.24-16-11.12.66-2.91,3.47-1.79,5.21-2.62s3.87-.52,4.87-2.61C225.38,366.74,227.91,365.57,230.71,365.8Z" fill="#c69778"/><path d="M212.65,372.55c6.61,1.88,11.07,6.84,16,11.12.8,5.33,3.38,10.24,3.64,15.71.06,1.29.6,2.57-.27,3.78-3.23-.68-6.31-2-9.75-1.6-7.51.76-11.39,5.42-13.55,12.09-1.21.8-1.05,1.93-.73,3.09l0,.19c-11.42-7.42-19.09-28-15.27-41.05C199.07,372.89,205.52,370.66,212.65,372.55Z" fill="#d6ad8e"/><path d="M219,455.54a16.78,16.78,0,0,1,10.53,9.62,33.65,33.65,0,0,1,.18,26.45c-1.6,4.05-4.52,7.32-8.94,7.72-4.67.42-8.58-2.57-10.58-6.31-5.13-9.61-6.12-19.83-1.46-30C210.57,459.1,213.29,455.68,219,455.54Z" fill="#4e5050"/><path d="M232.69,420.3c.23,6.1-.6,12.16-6.05,17-3.29,3-5.84,2.54-8.64,0-6.82-6.08-6.05-13.8-4.32-21.59,1.26-5.64,5.24-9.1,10.09-9.16,5.81-.06,8.75,2.79,8.91,8.68C232.72,416.79,232.69,418.28,232.69,420.3Z" fill="#4e5050"/><path d="M235.74,432.64c-5.74,12.89-2.84,25.42,1.57,37.9-2.19,1.1-2-1-2.43-1.94-1.69-4.09-3.06-8.32-4.83-12.37-2.56-5.83-1.44-11.44,1.44-16.53C232.81,437.35,231.66,433.31,235.74,432.64Z" fill="#181818"/><path d="M237.85,411.53l1.66,2,0,7.18-1.2.17C238.18,417.74,238,414.64,237.85,411.53Z" fill="#adadad"/><path d="M208,416.74c-.32-1.16-.48-2.29.73-3.09C208.75,414.74,208.94,415.87,208,416.74Z" fill="#d2a381"/><path d="M236.05,431.85l-.41.82A.81.81,0,0,0,236.05,431.85Z" fill="#181818"/><path d="M258.71,374.78c5.25-1.29,10.36-3.28,15.89-3.18,2.59,1.73,6,1.77,8.35,4,1.77,1.67,4,3.08,3.7,6.06.39,11.19-4.14,20.47-11.26,28.68-2.33,2.68-4.52,5.25-3.8,9.18a7.11,7.11,0,0,1-1.26,4.73l-.8-.56-.09-2.19a.83.83,0,0,0,0-.72c.44-15.82-9.61-22.77-24.46-16.91,0-7,3-13.36,3.75-20.19C253.06,381.86,255.72,378.13,258.71,374.78Z" fill="#d6ad8e"/><path d="M271.68,476.36c-.31,7.55-1.71,14.73-7.61,20.22-4.72,4.39-10.46,3.8-14-1.43-5.86-8.52-5.92-24.5,0-33.17,2.55-3.76,6.22-6.5,10.77-6.09,5.72.51,7.82,5.56,9.73,10.13C271.85,469.25,271.92,472.81,271.68,476.36Z" fill="#4e5050"/><path d="M264.54,423.31c.37,3.78.13,6.93-1.25,9.83-1.51,3.18-3.33,6.27-7.42,6.41-4.34.16-6.39-3.1-8.11-6.27-3.27-6-3.58-12.67-3-19.31.33-4,3.43-6,6.81-7.06a7.73,7.73,0,0,1,9.2,3C263.64,414.13,265.63,418.62,264.54,423.31Z" fill="#4e5050"/><path d="M269.41,420.76a.83.83,0,0,1,0,.72,3.88,3.88,0,0,1-.3-.52S269.31,420.83,269.41,420.76Z" fill="#181818"/><path d="M350.74,164.86l1.68,3.84c0,5.85,3.07,11.34,2.07,17.31a50,50,0,0,1-24.63-12c-7.26-6.64-13.44-14.16-15.81-24.09a13.61,13.61,0,0,1,.88-9.66c2.74-5.51,1.89-6.94-4.42-8.22,0-.67.05-1.33.09-2s0-1.33,0-2h4c9,4.64,17.09,10.36,23.69,18.14a60.43,60.43,0,0,1,10.64,17.35C349.16,164.16,349.11,165.87,350.74,164.86Z" fill="#d6ad8e"/><path d="M239.48,434v31.34" fill="#fff"/><path d="M266.67,143l-2.22-.31c.09-.13.14-.34.25-.38a1.49,1.49,0,0,1,1.92.75Z" fill="#b4805b"/><path d="M324.52,118.1h1.06c-.21,1.48.6,3.29-1.41,4.31C323.25,120.83,323.23,119.42,324.52,118.1Z" fill="#ddbaa1"/><path d="M258.71,374.78c-3,3.35-5.65,7.08-10,8.88l-.93-8C251.5,376.39,255,374.55,258.71,374.78Z" fill="#c69778"/></g></g></svg>