<svg xmlns="http://www.w3.org/2000/svg" viewBox="0 0 900.06 737.94"><title>ex_d3_4_1</title><g id="Layer_2" data-name="Layer 2"><g id="Layer_1-2" data-name="Layer 1"><path d="M861.11,705.9c6.95-.24,13.86-1,20.84-1.1,9.23-.14,19.17,8.57,18,18.84-.74,6.64-7.7,13.91-14.42,14.21-1.33.06-2.67,0-4,0q-431,0-862,.07C8.86,737.94,4.59,733.07,1,725.7c-3-6.1,1.14-14.19,8.94-18.86a12.32,12.32,0,0,1,9.57-1.7,36.13,36.13,0,0,0,8.89.76c0,3.31.28,6.63.07,9.93-.17,2.82.69,3.75,3.59,3.67,7-.21,14-.33,20.9,0,3.8.2,5.07-1.15,4.83-4.63,3.66,0,7.32,0,11,0h763c-.16,3.43,1.08,4.94,4.88,4.58,4.42-.42,8.91-.1,13.36-.1,10.82,0,10.82,0,10.91-11.07C861,707.54,861.05,706.72,861.11,705.9Z" fill="#f1f2ed"/><path d="M831.79,715h-763c-3.67,0-7.33,0-11,0l0-22,25.91-.05,17.18,0,33.75,0h41l17.2,0c22,0,44-.08,66,.17,4.23,0,5.23-1.57,4.73-5.19-.06-.67-.13-1.33-.2-2,.06-4.65.09-9.3.19-14,.14-6.4,4.26-10.83,9.95-10.78s9.71,4.51,9.84,11c.08,4.32.07,8.64.1,13a2.89,2.89,0,0,0,.11,2.87c-.41,3.28.17,5.11,4.35,5.1q103.65-.22,207.32-.16l22.22,0,265.49,0,22.23,0,26.74,0Q831.82,703.92,831.79,715Zm-739-14.56c-1.9.16-3.27,1-3.34,3a2.94,2.94,0,0,0,3,3.25,2.89,2.89,0,0,0,3.25-3C95.74,701.74,94.62,700.64,92.75,700.39Zm91.7,6.33a3.08,3.08,0,0,0,3-3.25,2.86,2.86,0,0,0-3.08-3.08,2.93,2.93,0,0,0-3.22,3.41A3,3,0,0,0,184.45,706.72Zm91.94-36.26c-.47-1.58-1.49-2.72-3.14-2.65a2.89,2.89,0,1,0,.49,5.76C275.37,673.39,276.22,672.13,276.39,670.46Z" fill="#cecdce"/><path d="M100.83,692.84l-17.18,0c0-2.17.11-4.33.11-6.49q0-320.5,0-641c0-1.49,0-3,.07-4.48,6.79-3.74,11-10,17-15.88h-17c0-6.15-.11-12.3-.13-18.45C83.75,0,83.77,0,90.12,0h114.3q21.47,0,42.93,0c7.14,0,11.88,4,12.22,10.28.49,9-3.13,13.82-11.15,14.6-2.31.22-4.65.05-7,.06l-20,.07-28.66,0L175.6,25l-23.31,0c-1.84,0-3.87-.24-3.49,2.68-3-3.58-7.06-2.61-10.89-2.67-3.11,0-6.23,0-9.35,0-7,0-14,.27-21-.15-4.86-.29-6.07,1.33-6.06,6.1q.23,106,.11,212,0,41.89.1,83.78c-1,6.36-1.39,12.72,0,19.07-.72,1.7-1.08,3.4,0,5.09a46.88,46.88,0,0,0,0,18.84v5a48.92,48.92,0,0,0,0,19.1q0,48.06,0,96.13a47.7,47.7,0,0,0,0,19l0,4.94a47.58,47.58,0,0,0,0,19c0,1.69,0,3.37,0,5.06a46.08,46.08,0,0,0,0,18.75c0,1.72,0,3.45,0,5.18a48.72,48.72,0,0,0,0,19.06c0,1.68,0,3.36,0,5a47.76,47.76,0,0,0,0,18.87c0,1.69,0,3.37,0,5.06a46.65,46.65,0,0,0,0,18.83c0,1.7,0,3.39,0,5.09a51.86,51.86,0,0,0-.1,19.08c0,1.66,0,3.33.08,5a48.71,48.71,0,0,0,0,18.87C101.55,682.11,102,687.52,100.83,692.84Zm-4.26-681C96.12,10.39,95.34,9,93.3,9.06a2.93,2.93,0,0,0-3,3.26,2.74,2.74,0,0,0,2.92,2.77C95.17,15.15,96.24,14,96.57,11.83Zm88,3.3c1.91-.09,3.13-1.07,3.09-3a3,3,0,0,0-6.06-.18C181.48,13.88,182.54,15,184.58,15.13Z" fill="#dbdadb"/><path d="M517.4,692.85l-22.22,0L495.36,591H664.73c2.15,0,4.33.24,6.33-.86,7.89,9.09,18.07,9.05,26.86-.11,33.74,0,67.48.14,101.23,0,4.9,0,6,1.47,6,6.16-.17,32.23,0,64.46,0,96.68l-22.23,0c0-24.62,0-49.25.22-73.87.06-4.84-1.35-6.06-6.11-6.05q-104.64.23-209.27.1c-15.32,0-30.63.1-46-.06-3.48,0-4.57,1-4.55,4.53C517.39,642.61,517.37,667.73,517.4,692.85Z" fill="#dbdadb"/><path d="M409.39,505.23c-.63-3.82-3.95-6-5.64-9.21s-1.76-5.74,1.24-7.85c3.83-2.67,3.45-5.32.7-8.6-1.44-1.72-3-3.61-3.22-6.08s-.59-5.35,2.2-6.58c2.62-1.15,5.83-1.59,7.76,1.11,2.76,3.89,5.4,5.09,10.43,3.49,5.75-1.83,11.82.68,17.56,2.1,3.34.83,5.23-.06,7.42-2.22a452.46,452.46,0,0,0,37.5-41.13,83.39,83.39,0,0,1,28.36-23,37.47,37.47,0,0,0,13.67-11.86,239.45,239.45,0,0,1,37.14-39.94c.94,2,1.89,3.93,2.84,5.89-.09,2.62-.19,5.24-.28,7.86-.91.9-.78,2-.67,3.14-.06,5.06-1.18,10.23,1.67,15l.57,6.95a34.22,34.22,0,0,0,.52,14.14c-6.7,2.78-11.88,7.93-18,11.61-3.77,2.26-7.36,4.82-8.89,9.29-4-2.81-8.2-2.37-12.45-.65-1.94-2.58-.63-6.86-4.44-8.46v.12c.34-1-.38-1.26-1-1.57-3.57-1.86-6.22-1-8,2.65-1.44,2-.68,4-.1,6q1.41,4.89,2.8,9.78c-7.74,1.9-9.44,5-6.71,12.24.45,1.2.69,2.49,1,3.74-5.43,4-10.73,8.29-16.31,12.13-18.93,13-37.91,25.95-55,41.46-6.94,6.29-14.13,15.34-25.61,7.33A17.73,17.73,0,0,0,409.39,505.23Z" fill="#dbdadb"/><path d="M529.8,428.67c4.25-1.72,8.43-2.16,12.45.65,2.15,1.2,4.32,2.38,6.46,3.6,7.53,4.28,16.2,2.82,21.38-3.61,7.2,0,12.29-4.85,18.13-8,4.29-2.43,8.63-4.8,12.87-7.31C611.87,407.65,621.81,399.8,634,396c5.86-1.84,5.58-1.9,2.06-7.27-4.75-7.25-8.76-15-8.77-23.89a13.2,13.2,0,0,0-5.86-11.37c-7.69-5.71-10.66-14.07-13.23-22.7-.45-1.51.67-3.51-1.34-4.84-1.21,6.31-1.21,6.31-6.89,13.42-8.12,10.18-22.38,14.22-33.89,9.37-3-1.25-1.33,1.24-1.92,1.89-1.75-4.68.48-8.91,2.34-12.7a172.17,172.17,0,0,1,23.78-36c2.41-2.81,5.22-5.25,8.88-6.16,2.48-.61,3.16-2.1,3.21-4.28a3.12,3.12,0,0,1,.8.14c0,1.6.2,3.12,2.4,2.87,5.66-.66,11.23-2.67,13.71-7.69,3.49-7,7.42-13.57,12.89-19.19,2.61-.67,5.22-1.47,8-1a4.89,4.89,0,0,0,1.48,4.06c2.27,2.29,3.31,5.29,4.59,8.12,2.42,5.36.58,8.39-5,10-2.6.77-6.91-.29-7.08,4.55l-2.92.21a6.21,6.21,0,0,0-4,1,5.34,5.34,0,0,0-4.24,2.32c-5.67,7.22-10.57,14.95-10.69,24.53-.19,15,7,26.47,17.94,36,.72,1.94,2.78,2.54,4,4-.45,11.19,4.35,20.45,10.58,29.25,2.84,4,7.59,2.59,11.21,4.43,3.86,2,6.47,4.85,7,8.83s-2.17,7.26-5.47,9.15c-6.15,3.53-13.09,5.21-19.81,7.33-5.79,1.83-11.59,3.53-17.56,4.84-7.53,1.64-14.63,5.5-22.19,6.74-9.54,1.55-18.2,5.63-27.49,7.77C562.57,441.57,555,444,548,437c-2.25-2.24-6.18-4.1-9.63-2.36-3.89,2-.94,5.62-1.23,8.52-.1,1,1.77,3.81-1.75,3.12Z" fill="#e1c4b0"/><path d="M698.11,328.52l.84-14.78c7.84.61,10.54-1,11-6.83,1.1-12.47,2.15-25,3.22-37.43,9.72,1.1,9.5,1.08,8.54,11.18-2.72,28.43-5.21,56.88-7.84,85.31-3.18,34.39-6.45,68.77-9.61,103.16-1.85,20.18-3.59,40.36-5.34,60.54-1.12,12.9-2.17,25.8-3.26,38.71-5.53-4.94-11.9-5.11-18.62-3.28-.62-7,1.65-13.85.95-20.84,8,.21,10.37-1.12,10.91-6.84,1.8-19,3.45-38,5.13-57q2.68-30.22,5.31-60.46,3.51-39.64,7-79.27C708.21,332.61,706.6,330.26,698.11,328.52Z" fill="#a1a0a2"/><path d="M338.62,576.12c5.94.15,10.46-3.62,15.55-5.76,7-2.93,13.95-6,20.21-10.41,2.3-.3,4.09-1.72,6.05-2.79l1-1v0c12.79-5,24.22-12.7,36.33-19,12.29-6.44,24.34-13.33,36.5-20a7.22,7.22,0,0,1,2.19,4.72c.75,6.18-2.56,10.75-5.65,15.37-9.73,14.54-24.73,22.49-39.36,30.72-8.58,4.83-17.78,8.52-26.4,13.28-7,3.88-14.52,6.78-21.61,10.58-7.26,3.89-15.17,6.57-22.45,10.54-6.25-3.18-9-8-7.22-13.31C335.22,584.65,337,580.41,338.62,576.12Z" fill="#e1c4b0"/><path d="M564.17,350.56c.59-.65-1.06-3.14,1.92-1.89,11.51,4.85,25.77.81,33.89-9.37,5.68-7.11,5.68-7.11,6.89-13.42,2,1.33.89,3.33,1.34,4.84,2.57,8.63,5.54,17,13.23,22.7a13.2,13.2,0,0,1,5.86,11.37c0,8.87,4,16.64,8.77,23.89,3.52,5.37,3.8,5.43-2.06,7.27-12.2,3.85-22.14,11.7-32.92,18.09-4.24,2.51-8.58,4.88-12.87,7.31-5.46-2.17-10.84-4.61-16.83-5-.17-1.36-.35-2.72-.52-4.08,3.94.63,7.52,2.46,11.33,3.47,3.43.91,7.5,2.19,10.14-1.3,2.2-2.91.63-6.28-1.4-8.66a33,33,0,0,0-22.29-11.48q-.3-3.46-.58-6.95c5.66,2.54,11.48,4.73,16.47,8.59,1.63,1.26,4.14,2.76,5.29-.33.79-2.12,1.71-4.38.54-7.09-4.58-10.61-13.43-14.55-24-16.13-.11-1.12-.24-2.24.67-3.14a23.09,23.09,0,0,1,6.75,1.4c10.87,4.51,19.31,12,26.49,21.07,4.07,5.14,8.75,8.26,15.66,7.78,6.7-.47,7.51-1.41,4.76-7.28a19.58,19.58,0,0,1-.55-1.89,69.3,69.3,0,0,0-15.7-25c-3.55-3.67-7.59-5.44-13.36-4.13-7.74,1.76-15.84,4.16-23.77.17-1-2-1.9-3.93-2.84-5.89C564.39,353.84,564.28,352.2,564.17,350.56Z" fill="#d6ad8e"/><path d="M253.24,585.23l24.34,0c2.78,5.48,5.29,11.13,8.48,16.36,1.45,2.38,1.06,4.23.45,6.41l-33.43.09-2.4,0-57.06,0a54.87,54.87,0,0,1,0-22.79l57-.14A2.21,2.21,0,0,0,253.24,585.23Z" fill="#cecdce"/><path d="M574.23,267.6c-3.86-4.26-2.05-9.73-2.81-14.58-2.62-16.73-.84-33.33,3-49.74,1.88.39,3.1-1,4.5-1.75a51,51,0,0,1,17.45-5.65c4.17-.63,5.56.78,4.27,4.91-1.23,3.94-2.19,8-3.27,11.92a5.31,5.31,0,0,0,.55,1.83c5.42,6.45,8.71,13.55,7.24,22.25-.53,3.18,2,2.73,3.86,3,0,3.56-2,6.65-2.58,10-1,5.55-4.59,8-9.21,10-6.48,2.74-13.45,3.32-20.22,4.73C575,264.9,574.06,265.55,574.23,267.6Z" fill="#e1c4b0"/><path d="M597.4,212.72c1.08-4,2-8,3.27-11.93,1.29-4.13-.1-5.54-4.27-4.91A51,51,0,0,0,579,201.53c-1.4.79-2.62,2.14-4.5,1.75-3.88-6.62-3.64-11.51.8-16.4,1-1.12,2-2.16,3.69-2.33,11.41-1.17,22.8-3.1,34.24-3.41,26.17-.71,40.47,18.16,33.67,43.56a1.94,1.94,0,0,1-2.6-.46C630.88,211.31,614.73,209.62,597.4,212.72Z" fill="#4f4f51"/><path d="M253.24,585.23a2.21,2.21,0,0,1-2.64-.11V43.47c-1.57,2.05-.54,4.57-2,6.52,1.08-7.31-2.83-13.32-5.15-19.75,6.71,2.6,9.31,8,9.89,14.69.22,2.48,0,5,0,7.48q0,263.43,0,526.84C253.4,581.25,253.29,583.24,253.24,585.23Z" fill="#686869"/><path d="M338.62,576.12c-1.63,4.29-3.4,8.53-4.85,12.87-1.76,5.29,1,10.13,7.22,13.31l8.37,3.84c-.08,3.36-.84,6.22-4.85,6.75,0-1.21-.86-1.61-1.8-2.09-12-6.09-21.77-14.62-31-24.46-13.89-14.85-20.47-31.69-18.87-51.84,4.89-1.24,7.74,1.26,9.81,5.27,1.84,3.55,3.65,7.11,5.58,10.6,5.87,10.64,16.65,15.41,26.12,21.73C336,573.21,338.65,573.25,338.62,576.12Z" fill="#040805"/><path d="M713.22,269.48c-1.07,12.48-2.12,25-3.22,37.43-.51,5.8-3.21,7.44-11,6.83l-6-.87c-.71-2.53-3.78-3.83-3.54-6.89.93-11.86,1.54-23.77,2.86-35.59.48-4.3.38-8.6.93-12.86.36-2.84.6-6.35,5.07-5.83,5.24.6,10.49,1.26,15.73,1.89C714.66,258.93,713.07,264.16,713.22,269.48Z" fill="#4f4f51"/><path d="M714.05,253.59c-5.24-.63-10.49-1.29-15.73-1.89-4.47-.52-4.71,3-5.07,5.83-.55,4.26-.45,8.56-.93,12.86-1.32,11.82-1.93,23.73-2.86,35.59-.24,3.06,2.83,4.36,3.54,6.89-11.46-.09-16.23-.73-14.25-15.13,2.27-16.45,3-33.1,4.39-49.66.54-6.28,3.26-8.53,9.44-7.93,4.3.43,8.62,1.25,12.91,1.11C713.05,241,716.51,246.16,714.05,253.59Z" fill="#262525"/><path d="M286.51,608c.61-2.18,1-4-.45-6.41-3.19-5.23-5.7-10.88-8.48-16.36-.09-4.38-3.07-7.6-4.74-11.32-3.75-8.32-8.17-16.34-12-24.62-3-6.43-2.31-7.58,4.7-10.16-.2,1.8.94,3.14,1.65,4.61q25.3,52.51,50.64,105c-2.76,2.37-7.15,1.56-9.43,4.92-2.58,3.81-4.91,7.87-8,11.23S296,673,291.48,675l.27-3.05c5.36-7.21,10.75-14.41,16.06-21.65,1.09-1.49.74-3.11,0-4.72q-8.52-17.43-16.93-34.91A4.12,4.12,0,0,0,286.51,608Z" fill="#dbdadb"/><path d="M282.39,556.1c-.47-4.26-.93-8.51.11-12.76.93-3.79,2.7-6.71,7-7.15-2.93,17.19,1.5,32.47,13,45.36,8.23,9.25,13.67,20,18.76,31,1.86,4,4.34,7.44,8.21,9.74-4.35,2.63-8.7,5.21-14.05,2.76l.1.08-.78-.75c-7-7.61-10.07-17.18-13.34-26.64-.51-1.47-.17-3.59-1.1-4.5C289.77,583,286.36,569.43,282.39,556.1Z" fill="#4f4f51"/><path d="M57.74,692.94l0,22c.24,3.48-1,4.83-4.83,4.63-6.95-.37-13.94-.25-20.9,0-2.9.08-3.76-.85-3.59-3.67.21-3.3,0-6.62-.07-9.93,0-4.65.17-9.29.07-13.94-.06-2.31.63-3.24,3.08-3.2,7.65.13,15.32.23,23,0C58,688.63,57.43,691,57.74,692.94Z" fill="#4f4f51"/><path d="M831.79,715q0-11,.07-22.06c-.17-3,.93-4.29,4.26-4.16,6.93.28,13.89.27,20.82,0,3.46-.14,4.16,1.22,4,4.29-.18,4.28.07,8.58.14,12.87-.06.82-.16,1.64-.17,2.46-.09,11.06-.09,11.06-10.91,11.07-4.45,0-8.94-.32-13.36.1C832.87,719.89,831.63,718.38,831.79,715Z" fill="#4f4f51"/><path d="M282.39,556.1c4,13.33,7.38,26.91,17.91,37.13.93.91.59,3,1.1,4.5,3.27,9.46,6.35,19,13.34,26.64l.78.75-.1-.08a60.65,60.65,0,0,0,6,12.19c3.45,8.8,3.45,8.8-3.58,11.55q-25.32-52.5-50.64-105c-.71-1.47-1.85-2.81-1.65-4.61,6.47-3.1,6.57-3,9.9,3.52C277.7,547.17,279.18,552.09,282.39,556.1Z" fill="#262525"/><path d="M631.21,293.6l2.92-.2c6.37.33,12.77-.24,19,1.88,2.83,1,4.69-1,5-3.91a47.66,47.66,0,0,0,.06-4.93c9.55,11.2,15,24.2,17,38.71.23,1.69-.12,3.75,1.91,4.78a13.07,13.07,0,0,0-1.19,8.18c2.05,14.74,4.21,29.46,6.33,44.18-.38,8.47.32,17.06-3,25.18l-1,.13c-.41-2.06-1.46-4-1.15-6.21,1.55-1.3.9-3.08,1-4.67.67-11.17-2.2-22-3.4-33-.79-7.23-1.87-14.42-2.83-21.63l-1.52-.73-3.08,4c2.12-5.59,1.93-11.38,1.87-17.17-.14-15.16-14.92-31.29-29-32.57l-8.86-.16Z" fill="#c79778"/><path d="M677.09,565.1c6.72-1.83,13.09-1.66,18.62,3.28,6,6.69,6.28,14,2.21,21.68-8.79,9.16-19,9.2-26.86.11-4-5.59-3.53-11.63-1.76-17.79ZM690,580.86a5.83,5.83,0,0,0-5.52-6.18c-3.48,0-5.55,2-6,5.36a5.73,5.73,0,0,0,5.75,6.08A5.61,5.61,0,0,0,690,580.86Z" fill="#4f4f51"/><path d="M603.18,291.59a3.12,3.12,0,0,0-.8-.14c-3.66-7.61-5-16.46-11.9-22.32a4,4,0,0,0-.18-.76,5.37,5.37,0,0,1,3.52-1.69c10.87-.57,16.67-7,19.44-16.84,1.13-4,2.25-7.81,7.54-8.12,1.55-.09,2.86-1.42,3.9-2.87,1.59-2.22,3.47-4.22,5.23-6.32.8,2.66,1.69,5.31,2.37,8,.9,3.57,3,5.33,6.74,4.84,1.85,7,2.46,14.39,5.15,21.22l-4,0c-2.76-.51-5.37.29-8,1l-4.17-24c-7.79,1.93-12.38,6.51-13.22,14.55a18.27,18.27,0,0,1-1.71,5.12C609.13,272.47,608,282.69,603.18,291.59Z" fill="#c79778"/><path d="M639,245.37c-3.76.49-5.84-1.27-6.74-4.84-.68-2.69-1.57-5.34-2.36-8,.18-1,.33-1.95.55-2.91,1.15-5.11-.84-9-5.41-10.6-3.85-1.35-7.92.58-10.16,4.76A35.37,35.37,0,0,0,611.24,236c-.22,1.65.06,3.4-2.19,3.8-1.85-.28-4.39.17-3.86-3,1.47-8.7-1.82-15.8-7.24-22.25a5.31,5.31,0,0,1-.55-1.83c17.33-3.09,33.48-1.4,46.85,11.53a1.94,1.94,0,0,0,2.6.46C645.56,232.09,642.61,238.85,639,245.37Z" fill="#686869"/><path d="M329.47,622.28c-3.87-2.3-6.35-5.71-8.21-9.74-5.09-11-10.53-21.74-18.76-31-11.48-12.89-15.91-28.17-13-45.36l3.35-1.69c-1.61,20.15,5,37,18.86,51.84,9.21,9.84,19,18.37,31,24.46.94.48,1.79.88,1.8,2.09l-13.09,9.19Z" fill="#b9d184"/><path d="M609.05,239.8c2.25-.4,2-2.15,2.19-3.8a35.37,35.37,0,0,1,3.68-12.22c2.24-4.18,6.31-6.11,10.16-4.76,4.57,1.59,6.56,5.49,5.41,10.6-.22,1-.37,1.94-.55,2.91-1.77,2.1-3.65,4.1-5.24,6.32-1,1.45-2.35,2.78-3.9,2.87-5.29.31-6.41,4.09-7.54,8.12-2.77,9.86-8.57,16.27-19.44,16.84a5.37,5.37,0,0,0-3.52,1.69,2.85,2.85,0,0,1-.82.07c-5.08-.41-10.25.94-15.25-.84-.17-2.05.76-2.7,2.81-3.13,6.77-1.41,13.74-2,20.22-4.73,4.62-2,8.23-4.41,9.21-10C607.06,246.45,609,243.36,609.05,239.8Z" fill="#d6ad8e"/><path d="M243.46,30.24c2.32,6.43,6.23,12.44,5.15,19.75-2.24,8.16-8.16,13.23-16.19,13.88A18.33,18.33,0,0,1,214.2,52.56c-2.95-7.25-.94-15,5.34-20.63l1.78.17c0,3.81.1,7.63.07,11.45,0,7.52,3.44,11.7,9.78,11.64,6.1,0,9.51-4.17,9.75-11.31.16-4.94-.88-10,.64-14.83Z" fill="#262525"/><path d="M682.26,382.29c-2.12-14.72-4.28-29.44-6.33-44.18a13.07,13.07,0,0,1,1.19-8.18c2-2.43,4.78-2.57,7.68-2.34,4.43.36,8.88.62,13.31.93,8.49,1.74,10.1,4.09,8.32,12.2-5.09-.42-10.19-.81-15.27-1.28-3.15-.28-5,.7-5.31,4.19-.47,6.23-1.16,12.44-1.74,18.65Q683.18,372.29,682.26,382.29Z" fill="#262525"/><path d="M241.56,29.05c-1.52,4.88-.48,9.89-.64,14.83-.24,7.14-3.65,11.26-9.75,11.31-6.34.06-9.82-4.12-9.78-11.64,0-3.82,0-7.64-.07-11.45.09-1.41.19-2.82.28-4.23-.07-.95-.14-1.9-.2-2.85l20-.07ZM234,45.58c-.36-1.61-1.35-2.79-3-2.72a2.76,2.76,0,0,0-2.76,3.35,2.68,2.68,0,0,0,3.14,2.44C233.06,48.48,233.92,47.27,234,45.58Z" fill="#cecdce"/><path d="M380.43,557.16c-2,1.07-3.75,2.49-6.05,2.79,3.71-7.37,9.41-13.36,14-20.12,2.59-3.82,5.65-7.3,5.05-12.39-.27-2.29,1.8-3.42,2.88-5,4.05-6,8.1-11.93,13.07-17.2a17.73,17.73,0,0,1,7.05,8.91c-1.5,2-2.92,4-4.53,5.88-3.58,4.12-5.74,9.86-10.62,12.32a22.57,22.57,0,0,0-9.22,7.83c-3.5,5.36-8.56,9.7-10.63,16v0C381,556.41,379.62,555.65,380.43,557.16Z" fill="#f1f2ed"/><path d="M482.7,353.64c2.18-.25,2.48.74,2.1,2.39-1.58,7-3.08,13.93-4.69,20.88-.59,2.57-1.66,2.93-3.63.82s-3.93-4.39-7.34-4.55c-1.08,0-2.9-1.39-3-2.28-.35-3.61-3-5.34-5.21-7.54-1-1-2-2.37.07-3.05C468.28,358,475.6,355.81,482.7,353.64Z" fill="#f8c484"/><path d="M640.16,266.62l4,0c3.22,6.05,8.85,10.23,12.39,16,.6,1,1.66,1.67,1.48,3a2.2,2.2,0,0,0-.33.3c.15.22.33.42.5.63l0-.12a47.66,47.66,0,0,1-.06,4.93c-.3,2.95-2.16,4.88-5,3.91-6.26-2.12-12.66-1.55-19-1.88.17-4.85,4.48-3.79,7.08-4.56,5.6-1.65,7.44-4.68,5-10-1.28-2.83-2.32-5.83-4.59-8.12A4.89,4.89,0,0,1,640.16,266.62Z" fill="#dcbba1"/><path d="M83.9,25h17c-6,5.85-10.25,12.14-17,15.88Z" fill="#cecdce"/><path d="M415.5,430.92a4.79,4.79,0,0,1-2.62-2.45,2.5,2.5,0,0,1,.63-3.13c1.81-1.89,3.6-3.8,5.39-5.7,1.34-1.43,2.54-2.53,4.45-.55,1.61,1.67,2.44,3,.46,4.94s-3.7,3.73-5.55,5.6C417.56,430.32,416.91,431.11,415.5,430.92Z" fill="#f8c484"/><path d="M443,402.63c0,1.37-8,9.53-9.14,9.37a4.29,4.29,0,0,1-3-2.42,2.47,2.47,0,0,1,.42-3.18c2.13-2.31,4.28-4.61,6.4-6.93a1.64,1.64,0,0,1,2.59-.18C441.34,400.29,442.74,401.06,443,402.63Z" fill="#f8c484"/><path d="M407.24,440.86c-.08.88-7.56,8.95-8.3,9.12-1.88.43-2.62-1.18-3.6-2.16s-.85-2.38.43-3.38a29.75,29.75,0,0,0,5.68-6.17c.65-.9,1.62-2,2.87-1S407.19,439.06,407.24,440.86Z" fill="#f8c484"/><path d="M371.77,479c0,1.27-7.68,9.16-8.85,9.13-1.52-.05-2.21-1.36-3.15-2.25-1.09-1-.55-2.2.26-3.09,2-2.2,4.12-4.33,6.2-6.47a2.05,2.05,0,0,1,3.09-.26C370.32,476.9,371.44,477.67,371.77,479Z" fill="#f8c484"/><path d="M389.27,459.91c0,1.33-6.75,8.93-8.14,9.07-1.65.18-2.82-.87-3.8-2s-.43-2,.53-3c2.1-2.11,4.06-4.35,6.06-6.55.88-1,1.86-1.46,3-.63S389.1,458.44,389.27,459.91Z" fill="#f8c484"/><path d="M460.32,383c.06,2.08-7.05,9.6-8.62,9.29-1.07-.2-2.73-.87-2.91-1.62-1.22-5.06,4.18-6.17,6-9.48,1.23-2.2,3-1.64,4.39.07A12.82,12.82,0,0,1,460.32,383Z" fill="#f8c484"/><path d="M658.23,286.56c-.17-.21-.35-.41-.5-.63a2.2,2.2,0,0,1,.33-.3A3.25,3.25,0,0,1,658.23,286.56Z" fill="#c79778"/><path d="M589.48,268.44a2.85,2.85,0,0,0,.82-.07,4,4,0,0,1,.18.76C589.89,269.28,589.58,269,589.48,268.44Z" fill="#e1c4b0"/><path d="M193.61,585.26a54.87,54.87,0,0,0,0,22.79c-.6,28.26.95,56.54-.87,84.79l-17.2,0q0-8.08,0-16.18a143.53,143.53,0,0,0,.09-18.78l-.06-5.1.06-18.92c0-1.74-.06-3.48-.1-5.23a142.76,142.76,0,0,0,.1-18.73l-.09-5.21a140.45,140.45,0,0,0,.08-18.69l-.07-5.22q0-9.45.1-18.9c0-1.77,0-3.54,0-5.31l0-18.58c0-1.74-.07-3.47-.1-5.21q0-9.45.11-18.89c0-1.72,0-3.45,0-5.18q0-9.37,0-18.76,0-48.19,0-96.4a149.44,149.44,0,0,0-.1-18.81c0-1.74.06-3.47.1-5.2q0-9.33,0-18.65c0-1.77,0-3.54,0-5.31q0-9.45-.08-18.91,0-26.18.07-52.37.06-116.71.08-233.43c2.14,0,3.1-1.73,4.38-2.95,4.2-4,8.36-8,12.53-12,0,.67,0,1.34,0,2a3.5,3.5,0,0,0,1,2.88q0,77.09,0,154.19Q193.57,385.16,193.61,585.26Z" fill="#dbdadb"/><path d="M291.75,671.91l-.27,3.05a34.52,34.52,0,0,1-4.53,8c-1.74-.28-1.6,2.69-3.55,2.06,0-4.32,0-8.64-.1-13-.13-6.45-4.16-10.9-9.84-11s-9.81,4.38-9.95,10.78c-.1,4.65-.13,9.3-.19,14-3.44.18-2.55-3.85-4.75-4.89l-1.05-.06.11.1c-.82-4-2.55-7.83-2.42-12,1-7.12,4.65-12.3,11.38-15C276.48,649.93,291.25,655.1,291.75,671.91Z" fill="#262525"/><path d="M283.4,685c2,.63,1.81-2.34,3.55-2.06,3,.19,4.95-1.89,6.79-3.65q45.7-43.54,91.27-87.21c2.05-1.23,4.12-2.4,6.65-2.14L318.8,659.51Q308,669.83,297.14,680.16a28.29,28.29,0,0,1-13.63,7.73A2.89,2.89,0,0,1,283.4,685Z" fill="#686869"/><path d="M258.57,680.94c2.2,1,1.31,5.07,4.75,4.89.07.66.14,1.32.2,2-8.22-2.71-12.86-8.74-12.88-17.39-.07-20.78,0-41.56,0-62.34l2.4,0c.1,2.15.28,4.31.29,6.46q.15,29.17.24,58.35c.21,3.25,1.26,6.07,4,8.05l-.11-.1C257.83,681.61,258.19,681.52,258.57,680.94Z" fill="#686869"/><path d="M144.66,676.92l.09,16H134.58l.09-15.9A38.84,38.84,0,0,1,144.66,676.92Z" fill="#dbdadb"/><path d="M92.75,700.39c1.87.25,3,1.35,2.88,3.26a2.89,2.89,0,0,1-3.25,3,2.94,2.94,0,0,1-3-3.25C89.48,701.37,90.85,700.55,92.75,700.39Z" fill="#4f4f51"/><path d="M184.45,706.71a3,3,0,0,1-3.31-2.91,2.93,2.93,0,0,1,3.22-3.41,2.86,2.86,0,0,1,3.08,3.08A3.07,3.07,0,0,1,184.45,706.71Z" fill="#686869"/><path d="M276.39,670.46c-.17,1.67-1,2.93-2.65,3.11a2.89,2.89,0,1,1-.49-5.76C274.9,667.74,275.92,668.88,276.39,670.46Z" fill="#262525"/><path d="M175.65,633.9l-.06,18.92-30.92.16-10,0-33-.16a51.86,51.86,0,0,1,.1-19.08c11,0,21.91.61,32.86-.31a42.48,42.48,0,0,0,10.08.13Z" fill="#4f4f51"/><path d="M175.67,561.92q-.06,9.45-.1,18.9l-30.92.21-10,.09c-11-.71-21.93-.31-32.9-.22a48.72,48.72,0,0,1,0-19.06l32.79-.19,10.19.06Z" fill="#4f4f51"/><path d="M175.64,586a140.45,140.45,0,0,1-.08,18.69l-30.92.23-10,.07c-11-.73-21.93-.29-32.9-.22a47.76,47.76,0,0,1,0-18.87c10.94.09,21.89.47,32.83-.2a43.08,43.08,0,0,0,10.15.07Z" fill="#4f4f51"/><path d="M144.66,676.92a38.84,38.84,0,0,0-10,.05l-32.91-.24a48.71,48.71,0,0,1,0-18.87l32.87-.11h10.11l30.92.16a143.53,143.53,0,0,1-.09,18.78Z" fill="#4f4f51"/><path d="M175.67,513.93q-.06,9.45-.11,18.89c-10.31,0-20.61-.52-30.91.27a40.08,40.08,0,0,0-10,.06c-11-.91-21.92-.32-32.89-.3a47.58,47.58,0,0,1,0-19c10.92,0,21.84.48,32.76-.26a36.22,36.22,0,0,0,10.24.09Z" fill="#4f4f51"/><path d="M134.54,394.06c-10.92-.84-21.86-.33-32.79-.27a48.92,48.92,0,0,1,0-19.1c11,.12,21.94.51,32.91-.2l9.95,0,30.92.25a149.44,149.44,0,0,1,.1,18.81l-30.87.36A34.53,34.53,0,0,0,134.54,394.06Z" fill="#4f4f51"/><path d="M175.65,609.94a142.76,142.76,0,0,1-.1,18.73c-10.3.06-20.6-.48-30.89.29l-10,.09c-11-1-21.92-.3-32.87-.35a46.65,46.65,0,0,1,0-18.83l31.86-.08,11.12,0Z" fill="#4f4f51"/><path d="M101.76,326.67h22.45l28.72,0h22.65q0,9.46.08,18.91l-31,.26-10.06.06c-10.95-.7-21.91-.31-32.87-.2C100.37,339.39,100.81,333,101.76,326.67Z" fill="#4f4f51"/><path d="M175.7,350.93q0,9.33,0,18.65l-30.91.19-10.16.06-32.82-.16a46.88,46.88,0,0,1,0-18.84c11,.13,21.94.64,32.89-.35l10,.07C155,351.46,165.35,350.85,175.7,350.93Z" fill="#4f4f51"/><path d="M101.76,489.92l32.8-.25a40.18,40.18,0,0,0,10.22.1l30.89.22q0,9.39,0,18.76c-10.36.09-20.74-.52-31.1.32a39.06,39.06,0,0,0-9.9.09c-11-.84-21.92-.51-32.88-.27A47.7,47.7,0,0,1,101.76,489.92Z" fill="#4f4f51"/><path d="M175.66,538l0,18.58-30.89.25a32.46,32.46,0,0,0-10.27.08c-10.9-.85-21.82-.34-32.73-.28a46.08,46.08,0,0,1,0-18.75c11,0,21.91.61,32.86-.31l10.08.12Z" fill="#4f4f51"/><path d="M128.68,30.88,128.56,25c3.12,0,6.24-.08,9.35,0,3.83.06,7.92-.91,10.89,2.67l-.14.32c.13,1,.27,2.08.4,3.12-1.45,4.53-.4,9.17-.63,13.76-.32,6.31-3.9,10.27-9.65,10.36-6,.09-10-4-10.12-10.4C128.56,40.15,128.67,35.52,128.68,30.88Zm12.9,14.56c-.52-1.25-1.18-2.64-3-2.55a2.73,2.73,0,0,0-2.89,3.23,2.64,2.64,0,0,0,3.08,2.52C140.41,48.48,141.38,47.36,141.58,45.44Z" fill="#cecdce"/><path d="M192.64,26c-4.17,4-8.33,8-12.53,12-1.28,1.22-2.24,3-4.38,2.95,0-3.42-.11-6.83-.16-10.25,0-.92.05-1.85.07-2.77l0-2.92,17.14,0C192.7,25.32,192.67,25.65,192.64,26Z" fill="#cecdce"/><path d="M96.57,11.83c-.33,2.21-1.4,3.32-3.36,3.26a2.74,2.74,0,0,1-2.92-2.77,2.93,2.93,0,0,1,3-3.26C95.34,9,96.12,10.39,96.57,11.83Z" fill="#4f4f51"/><path d="M184.58,15.13c-2-.16-3.1-1.25-3-3.22a3,3,0,0,1,6.06.18C187.71,14.06,186.49,15,184.58,15.13Z" fill="#4f4f51"/><path d="M495.36,591q-.14-4.74-.25-9.47c2.48-.12,5-.34,7.44-.34q68.82-.09,137.62-.13c8.43.54,10.35-1,11.12-9.07,6,.15,12-.49,18,.35-1.77,6.16-2.29,12.2,1.76,17.79-2,1.1-4.18.86-6.33.86Z" fill="#a1a0a2"/><path d="M677.13,401.39c-.31,2.2.74,4.15,1.15,6.21a11.54,11.54,0,0,1-2.24,8.76l-.84,1.12,0,0a5,5,0,0,0-3.71,1c-9.29,6.88-19.9,11-30.88,14.19-11.31,3.34-22.29,7.59-34,9.7-10.36,1.86-20.59,4.53-31.05,6.06-6.69,1-13.21,2.34-19.17,6.14C546,461.15,537,471,523.09,470.39a3.27,3.27,0,0,1,.44-.47c1.22-3.44-1-3.64-3.42-3.6-1-1.72-1.91-3.44-2.87-5.15-1-2.8-1.36-5.89-3.86-7.95-.33-1.25-.57-2.54-1-3.74-2.73-7.21-1-10.34,6.71-12.24,1.16,3.46,2.46,6.88,3.45,10.39,1.05,3.77,3.07,6.54,7.22,6.2,4.31-.36,5.59-3.63,5.67-7.51,3.52.69,1.65-2.08,1.75-3.12.29-2.9-2.66-6.56,1.23-8.52,3.45-1.74,7.38.12,9.63,2.36,7,7,14.55,4.53,22.44,2.72,9.29-2.14,17.95-6.22,27.49-7.77,7.56-1.24,14.66-5.1,22.19-6.74,6-1.31,11.77-3,17.56-4.84,6.72-2.12,13.66-3.8,19.81-7.33,3.3-1.89,6-5.12,5.47-9.15s-3.13-6.86-7-8.83c-3.62-1.84-8.37-.41-11.21-4.43-6.23-8.8-11-18.06-10.58-29.25,5.1,1.33,10.1,3,15.54,1.18,2.49-.85,4.62.25,6.37,2.61,5.38,7.24,7.06,15.42,7.06,24.18,0,2.06-.76,4.51,1.7,5.81C668.92,397.33,673,399.33,677.13,401.39Z" fill="#dcbba1"/><path d="M567.35,361.37c7.93,4,16,1.59,23.77-.17,5.77-1.31,9.81.46,13.36,4.13a69.3,69.3,0,0,1,15.7,25,19.58,19.58,0,0,0,.55,1.89c2.75,5.87,1.94,6.81-4.76,7.28-6.91.48-11.59-2.64-15.66-7.78-7.18-9-15.62-16.56-26.49-21.07a23.09,23.09,0,0,0-6.75-1.4C567.16,366.61,567.26,364,567.35,361.37Z" fill="#e1c4b0"/><path d="M570.87,412.25l-1.71-3.83a34.22,34.22,0,0,1-.52-14.14,33,33,0,0,1,22.3,11.48c2,2.38,3.6,5.75,1.4,8.66-2.64,3.49-6.71,2.21-10.14,1.3C578.39,414.71,574.81,412.88,570.87,412.25Z" fill="#dcbba1"/><path d="M566.4,372.37c10.54,1.58,19.39,5.52,24,16.13,1.17,2.71.25,5-.54,7.09-1.15,3.09-3.66,1.59-5.29.33-5-3.86-10.81-6.05-16.47-8.59C565.22,382.6,566.34,377.43,566.4,372.37Z" fill="#dcbba1"/><path d="M535.41,446.32c-.08,3.88-1.36,7.15-5.67,7.51-4.15.34-6.17-2.43-7.22-6.2-1-3.51-2.29-6.93-3.45-10.39q-1.4-4.89-2.8-9.78c-.58-2-1.34-4.06.1-6,1.31.95.64,2.43,1,3.64.68,2.36,1.85,4.52,4.75,3.76,2.49-.65,4.54-2.15,4.06-5.28-.17-1.12-.53-2.22-.81-3.32,3.81,1.6,2.5,5.88,4.44,8.46Z" fill="#4f4f51"/><path d="M525.36,420.21c.28,1.1.64,2.2.81,3.32.48,3.13-1.57,4.63-4.06,5.28-2.9.76-4.07-1.4-4.75-3.76-.35-1.21.32-2.69-1-3.64,1.73-3.64,4.38-4.51,8-2.65l1,1.57Z" fill="#686869"/><path d="M525.37,420.33l-1-1.57C525,419.07,525.71,419.35,525.37,420.33Z" fill="#4f4f51"/><path d="M631.27,295.45l8.86.16c.08,1.68,1.23,2.6,2.4,3.59,11.61,9.74,18.16,21.9,15.43,37.26-1.91,10.77-6.34,18-17.19,20.71-3.59.89-7.08-.79-10.57.27-10.9-9.56-18.13-21-17.94-36,.12-9.58,5-17.31,10.69-24.53a5.34,5.34,0,0,1,4.24-2.32C628.3,296,629.85,295.44,631.27,295.45Z" fill="#dcbba1"/><path d="M630.2,357.44c3.49-1.06,7,.62,10.57-.27,10.85-2.7,15.28-9.94,17.19-20.71,2.73-15.36-3.82-27.52-15.43-37.26-1.17-1-2.32-1.91-2.4-3.59,14.11,1.28,28.89,17.41,29,32.57.06,5.79.25,11.58-1.87,17.17l3.08-4,1.52.73c1,7.21,2,14.4,2.83,21.63,1.2,11,4.07,21.8,3.4,33-.09,1.59.56,3.37-1,4.67-4.09-2.06-8.21-4.06-12.26-6.19-2.46-1.3-1.7-3.75-1.7-5.81,0-8.76-1.68-16.94-7.06-24.18-1.75-2.36-3.88-3.46-6.37-2.61-5.44,1.86-10.44.15-15.54-1.18C633,360,630.92,359.38,630.2,357.44Z" fill="#d6ad8e"/><path d="M603.18,291.59c4.85-8.9,6-19.12,9.9-28.34a18.27,18.27,0,0,0,1.71-5.12c.84-8,5.43-12.62,13.22-14.55l4.17,24c-5.47,5.62-9.4,12.14-12.89,19.19-2.48,5-8,7-13.71,7.69C603.38,294.71,603.21,293.19,603.18,291.59Z" fill="#d6ad8e"/><path d="M570.09,429.31c.08-4.36-.51-8.79,1.3-13,6,.41,11.37,2.85,16.83,5C582.38,424.46,577.29,429.27,570.09,429.31Z" fill="#dcbba1"/><path d="M631.27,295.45c-1.42,0-3,.59-4.08-.89a6.21,6.21,0,0,1,4-1Z" fill="#d6ad8e"/><path d="M682.26,382.29q.93-10,1.85-20c.58-6.21,1.27-12.42,1.74-18.65.27-3.49,2.16-4.47,5.31-4.19,5.08.47,10.18.86,15.27,1.28q-3.52,39.63-7,79.27-2.67,30.22-5.31,60.46c-1.68,19-3.33,38-5.13,57-.54,5.72-2.91,7.05-10.91,6.84l-6.9-1c-2.69-4.43-2.71-9.1-2.14-14.16,1.39-12.47,2.17-25,3.28-37.51q1.86-21,3.86-41.92c.85-9,2-18,2.63-27.09.34-5,1.31-10,.5-15.06C682.58,399.35,681.88,390.76,682.26,382.29Z" fill="#4f4f51"/><path d="M454.27,517.09a86.64,86.64,0,0,1,18-13c1.85,1.7.91,3.58.48,5.52a8.81,8.81,0,0,0,8.56,10.55,127.67,127.67,0,0,0,21.21-1.68c12.16-2.1,24.48-3.51,36.69-5.52,2.19-.36,4.16-1,6.2.23A29.32,29.32,0,0,0,548,521.7c1.54,7.9,5.28,15,8.12,22.45-22.11,1.08-44.23,2.1-66.34,3.31-3.6.2-7.16,1.2-10.82.73-7.15,1.08-14.9.34-20,7.18a20.72,20.72,0,0,1-4.78,4.31,181.29,181.29,0,0,1-39.83,20.56c-5.4,2-11.61,2.75-15.84,7.41L391.66,590c-2.53-.26-4.6.91-6.65,2.14a212.61,212.61,0,0,0-35.65,14L341,602.3c7.28-4,15.19-6.65,22.45-10.54,7.09-3.8,14.57-6.7,21.61-10.58,8.62-4.76,17.82-8.45,26.4-13.28,14.63-8.23,29.63-16.18,39.36-30.72,3.09-4.62,6.4-9.19,5.65-15.37A7.22,7.22,0,0,0,454.27,517.09Z" fill="#dcbba1"/><path d="M380.43,557.16c-.81-1.51.6-.75,1-1Z" fill="#fefefe"/><path d="M331.42,622.08c-1.81,4-4.68,7.26-7.28,10.71-1.06,1.41-2.65,2.45-2.76,4.44a60.65,60.65,0,0,1-6-12.19c5.35,2.45,9.7-.13,14.05-2.76Z" fill="#dbdadb"/><path d="M315.52,625.12l-.78-.75Z" fill="#dbdadb"/><path d="M671.14,543.21c-1.32,0-2.65,0-4-.09-8.89-.78-10.42-2.85-9.61-11.79q4.8-53,9.45-106c2.63-2.74,6.58-4.11,8.22-7.88l0,0,.84-1.12a11.54,11.54,0,0,0,2.24-8.76l1-.13c.81,5-.16,10.06-.5,15.06-.6,9.05-1.78,18.06-2.63,27.09q-2,21-3.86,41.92c-1.11,12.5-1.89,25-3.28,37.51C668.43,534.11,668.45,538.78,671.14,543.21Z" fill="#262525"/><path d="M690,580.86a5.61,5.61,0,0,1-5.72,5.26,5.73,5.73,0,0,1-5.75-6.08c.4-3.4,2.47-5.34,6-5.36A5.83,5.83,0,0,1,690,580.86Z" fill="#dbdadb"/><path d="M219.54,31.93c-.42-1.6-1.76-1.19-2.82-1.19-7.71,0-15.42.08-23.12.13a3.5,3.5,0,0,1-1-2.88l29-.12c-.09,1.41-.19,2.82-.28,4.23Z" fill="#686869"/><path d="M234,45.59a2.92,2.92,0,0,1-2.63,3.06,2.68,2.68,0,0,1-3.14-2.44A2.76,2.76,0,0,1,231,42.86C232.68,42.79,233.67,44,234,45.59Z" fill="#262525"/><path d="M556.07,544.15c-2.84-7.44-6.58-14.55-8.12-22.45.17-1.8.1-3.29,2.85-3.59,13-1.42,25.93-3.81,39-4.65,15.66-1,25.86-14.72,26.56-28.48.39-7.72-1.81-15.12-2.3-22.72-.13-1.94,0-3.36,2.15-3.64,9.7-1.27,19.41-2.27,29.17-.63.76,3.33,1.48,6.67,2.28,10,3.06,12.7,4.87,25.53,2.48,38.53-.9,4.91-2,9.93-4.89,14.24-7.34,10.9-17.73,17.42-30.27,20.48-18.64,4.55-37.78,4.87-56.8,6.06C555.87,547.29,556.39,545.44,556.07,544.15Z" fill="#040805"/><path d="M640.17,581.1q-68.8.06-137.62.13c-2.48,0-5,.22-7.44.34-12.48-1.43-12.48-1.43-12.63-14.08,0-1.14.07-2.28.11-3.41,5.28-3.67,11.27-3.92,17.44-3.91q60.32.12,120.64,0c4,0,8-.06,12,0,5.66.11,7.45,1.92,7.49,7.42C640.15,572.14,640.15,576.62,640.17,581.1Z" fill="#4f4f51"/><path d="M640.17,581.1c0-4.48,0-9,0-13.45,0-5.5-1.83-7.31-7.49-7.42-4-.08-8,0-12,0q-60.33,0-120.64,0c-6.17,0-12.16.24-17.44,3.91q0-4.46.08-8.91c.18-.42.35-.83.53-1.24.46-2.22,2.15-3.17,4-3.9,9.75-.4,19.52.56,29.25-.61h14.6c.45.6.92.61,1.38,0h15.59a14.33,14.33,0,0,0,8.38,0l1.62,0c10.13.47,20.25.9,30.37,0H592a4.46,4.46,0,0,0,4.39,0H604c1.71,1,3.58.49,5.37.5,12.28.07,24.57.07,36.85.08,3.52,1.4,4.82,4.07,4.78,7.76,0,4.75.17,9.51.27,14.26C650.52,580.07,648.6,581.64,640.17,581.1Z" fill="#262525"/><path d="M588.43,549.44c-10.12.9-20.24.47-30.37,0,.93-.68.57-1.41.09-2.15,19-1.19,38.16-1.51,56.8-6.06,12.54-3.06,22.93-9.58,30.27-20.48,2.91-4.31,4-9.33,4.89-14.24,2.39-13,.58-25.83-2.48-38.53-.8-3.32-1.52-6.66-2.27-10l4.48,0c5,16.08,8.72,32.28,6.58,49.39-1.73,13.78-8.51,23.82-20.53,30.46-11.3,6.24-23.65,8.44-36.34,9.36-4.41.32-8.83.68-13.86,1.07Z" fill="#a1a0a2"/><path d="M398.42,587.65c4.23-4.66,10.44-5.38,15.84-7.41a181.29,181.29,0,0,0,39.83-20.56,20.72,20.72,0,0,0,4.78-4.31c5.14-6.84,12.89-6.1,20-7.18-.07,1.82-1.37,3.07-2.48,4.13-11.66,11.16-23.67,21.88-39.9,26C423.86,581.56,411.13,584.55,398.42,587.65Z" fill="#c79778"/><path d="M516.49,549.42c-9.73,1.17-19.5.21-29.25.61,1.79-1.82,4.06-1,6.1-1C501.06,549.21,508.79,548.53,516.49,549.42Z" fill="#a1a0a2"/><path d="M556.44,549.42a14.33,14.33,0,0,1-8.38,0A19,19,0,0,1,556.44,549.42Z" fill="#a1a0a2"/><path d="M532.47,549.42c-.46.6-.93.59-1.38,0Z" fill="#a1a0a2"/><path d="M483.2,553.93c-.18.41-.35.82-.53,1.24A.88.88,0,0,1,483.2,553.93Z" fill="#4f4f51"/><path d="M253.61,672.93c1.57-.9.2-3,1.6-4-.13,4.2,1.6,8,2.42,12C254.87,679,253.82,676.18,253.61,672.93Z" fill="#cecdce"/><path d="M258.57,680.94c-.38.58-.74.67-1.05-.06Z" fill="#cecdce"/><path d="M139.62,293.69c10.47,3,14.25,10.17,13.25,20.64-.38,4.09,0,8.25.06,12.38l-28.72,0c0-6.1-.06-12.2.14-18.29.25-7.51,4.71-12.28,12.37-13.62.54,3.33,1.42,6.64.78,10.06-2.87-.23-3.24,1.78-3.09,3.81a3.8,3.8,0,0,0,3.83,3.74,3.93,3.93,0,0,0,4.37-3.17c.51-2.26,0-4.28-2.89-4.58C139.68,301,139.65,297.34,139.62,293.69Z" fill="#686869"/><path d="M150.64,32c5.39,5.51,7.64,11.94,5.12,19.44-2.44,7.25-7.76,11.23-15.29,12.32l-1,0-2.71.09c-9.28-2-14.77-7-16.11-14.68a17.23,17.23,0,0,1,8-18.29c0,4.64-.12,9.27,0,13.9.13,6.45,4.14,10.49,10.12,10.4,5.75-.09,9.33-4,9.65-10.36.23-4.59-.82-9.23.63-13.76l.12-.11Z" fill="#262525"/><path d="M136.79,63.85l2.71-.09c.05.36.09.71.13,1.07q.06,81,.1,162.05c0,22.27-.07,44.54-.11,66.81,0,3.65.06,7.29.1,10.94-.13.7,0,1.61-1,1.7s-1.12-.74-1.18-1.5c.64-3.42-.24-6.73-.78-10.06,1-1.53.55-3.23.55-4.87q0-110.05,0-220.11C137.23,67.81,137,65.83,136.79,63.85Z" fill="#4f4f51"/><path d="M144.79,394q0,47.91,0,95.82a40.18,40.18,0,0,1-10.22-.1q0-47.81,0-95.61A34.53,34.53,0,0,1,144.79,394Z" fill="#dbdadb"/><path d="M144.66,629c0,1.55,0,3.1.05,4.65a42.48,42.48,0,0,1-10.08-.13c0-1.48,0-3,.05-4.43Z" fill="#f1f2ed"/><path d="M144.67,653l.06,4.78H134.62c0-1.57,0-3.15,0-4.72Z" fill="#dbdadb"/><path d="M144.8,556.86c0,1.62,0,3.24,0,4.85l-10.19-.06c0-1.57,0-3.14,0-4.71A32.46,32.46,0,0,1,144.8,556.86Z" fill="#dbdadb"/><path d="M144.65,581l.09,4.78a43.08,43.08,0,0,1-10.15-.07c0-1.54.06-3.08.08-4.62Z" fill="#dbdadb"/><path d="M144.64,605c0,1.6.07,3.2.1,4.8l-11.12,0c.35-1.58.71-3.17,1.06-4.76Z" fill="#dbdadb"/><path d="M144.65,533.09l.06,4.63-10.08-.12.05-4.45A40.08,40.08,0,0,1,144.65,533.09Z" fill="#f1f2ed"/><path d="M144.59,509.07c.07,1.53.13,3.06.2,4.59a36.22,36.22,0,0,1-10.24-.09c0-1.47.09-2.94.14-4.41A39.06,39.06,0,0,1,144.59,509.07Z" fill="#dbdadb"/><path d="M144.75,369.77c0,1.59-.08,3.18-.11,4.76l-9.95,0c0-1.55-.07-3.1-.1-4.66Z" fill="#dbdadb"/><path d="M144.7,345.88c0,1.56,0,3.11,0,4.67l-10-.07c0-1.52,0-3,0-4.54Z" fill="#f1f2ed"/><path d="M149.18,31l-.12.11c-.13-1-.27-2.08-.4-3.12l27-.05c0,.92,0,1.85-.07,2.77l-25,.09Z" fill="#4f4f51"/><path d="M141.58,45.44c-.2,1.92-1.17,3-2.8,3.2a2.64,2.64,0,0,1-3.08-2.52,2.73,2.73,0,0,1,2.89-3.23C140.4,42.8,141.06,44.19,141.58,45.44Z" fill="#262525"/><path d="M675.24,417.44c-1.64,3.77-5.59,5.14-8.22,7.88-6,2.36-11.38,5.94-17.63,7.63-1.93.53-2.37,2-2.35,3.85,0,3.79,0,7.59,0,11.38-6.34-.89-12.66-2.36-19.11-1.75A229.06,229.06,0,0,0,587.18,454l.93-3.45c-5.34,2.88-11.36,2.05-15.88,5.76l-2.74.11c-3.49.48-6.58,2-9.66,3.64-8.19,4.27-16.31,8.68-25.12,11.6-4,1.34-8,2.21-11.72-.71a.33.33,0,0,1,.1-.53c13.87.56,22.88-9.24,33.3-15.86,6-3.8,12.48-5.16,19.17-6.14,10.46-1.53,20.69-4.2,31.05-6.06,11.75-2.11,22.73-6.36,34-9.7,11-3.23,21.59-7.31,30.88-14.19A5,5,0,0,1,675.24,417.44Z" fill="#d6ad8e"/><path d="M523.09,470.39a.33.33,0,0,0-.1.53c-2.74,2.6-5.49,5.2-8.21,7.82-1.44,1.38-3,3.23-5,2.69-3.66-1-5.45,1.33-7.53,3.3-2.86,2.72-5.64,5.52-8.46,8.28-2.33,1.35-4,4.21-7.33,3.32,5-4.8,10-9.62,15-14.39,1.72-1.63,3.27-3.16,2.73-5.9-.38-2,.82-3.42,2.21-4.71,3.63-3.37,7.22-6.78,10.83-10.16,1,1.71,1.91,3.43,2.87,5.15.38,1.92.91,3.7,3.42,3.6A3.27,3.27,0,0,0,523.09,470.39Z" fill="#4f4f51"/><path d="M523.53,469.92c-2.51.1-3-1.68-3.42-3.6C522.55,466.28,524.75,466.48,523.53,469.92Z" fill="#d6ad8e"/><path d="M676,416.36l-.84,1.12Z" fill="#d6ad8e"/><path d="M486.44,496.33c3.35.89,5-2,7.33-3.32a3.17,3.17,0,0,0,3.57,1.07q22.52-5.41,45-10.9c1.71,1.65.86,3.76.86,5.63a111,111,0,0,0,2.38,23.64,7.42,7.42,0,0,1-.22.77c-2-1.23-4-.59-6.2-.23-12.21,2-24.53,3.42-36.69,5.52a127.67,127.67,0,0,1-21.21,1.68,8.81,8.81,0,0,1-8.56-10.55c.43-1.94,1.37-3.82-.48-5.52C476.12,500,482.07,499.6,486.44,496.33Z" fill="#e1c4b0"/><path d="M545.37,513.22a6.94,6.94,0,0,0,.22-.78c1.7,1.19,3.49.49,5.28.26,12.19-1.61,24.34-3.64,36.58-4.65,11.78-1,19.71-7.19,22.77-18.6,1.71-6.37-.64-12.33-.63-18.48,0-5.75-3.25-5.86-7.46-5.31-8.9,1.16-17.56,3.45-26.33,5.25-2.06.42-4.21,2.09-6.47.45q.07-7.49.16-15l2.74-.11c5.19.55,10-1,14.95-2.31a229.06,229.06,0,0,1,40.72-7.54c6.45-.61,12.77.86,19.11,1.75,1.7,3.06,1.9,6.55,2.83,9.83l-4.48,0c-9.77-1.64-19.48-.64-29.18.63-2.13.28-2.28,1.7-2.15,3.64.49,7.6,2.69,15,2.3,22.72-.7,13.76-10.9,27.48-26.56,28.48-13,.84-26,3.23-39,4.65-2.75.3-2.68,1.79-2.85,3.59A29.32,29.32,0,0,1,545.37,513.22Z" fill="#b9d184"/><path d="M646.24,550c-12.28,0-24.57,0-36.85-.08-1.79,0-3.66.45-5.37-.5,13.5-.87,27-.27,40.53-.28C645.11,549.15,645.68,549.71,646.24,550Z" fill="#a1a0a2"/><path d="M596.41,549.44a4.46,4.46,0,0,1-4.39,0A5.76,5.76,0,0,1,596.41,549.44Z" fill="#a1a0a2"/><path d="M149.18,31l1.37-.2.09,1.27Z" fill="#cecdce"/><path d="M139.63,64.83c0-.36-.08-.71-.13-1.07l1,0Z" fill="#686869"/><path d="M587.18,454c-4.9,1.31-9.76,2.86-14.95,2.31,4.52-3.71,10.54-2.88,15.88-5.76Z" fill="#c79778"/><path d="M542.35,483.18c-1.09-4.38,1.19-6.11,5.11-6.93,7.31-1.52,14.58-3.25,21.87-4.89,2.26,1.64,4.41,0,6.47-.45,8.77-1.8,17.43-4.09,26.33-5.25,4.21-.55,7.47-.44,7.46,5.31,0,6.15,2.34,12.11.63,18.48-3.06,11.41-11,17.63-22.77,18.6-12.24,1-24.39,3-36.58,4.65-1.79.23-3.58.93-5.28-.26a110.88,110.88,0,0,1-2.38-23.63C543.21,486.94,544.06,484.83,542.35,483.18Z" fill="#040805"/></g></g></svg>