<svg xmlns="http://www.w3.org/2000/svg" viewBox="0 0 416.06 674.02"><title>ex_d2_6_1</title><g id="Layer_2" data-name="Layer 2"><g id="Layer_1-2" data-name="Layer 1"><path d="M192,322.49c0-.65,0-1.31,0-2l.68-1.09h-.05a20.1,20.1,0,0,1,6.76,1.32,51.47,51.47,0,0,1,20.14,14.11c2.86,3.28,4.06,2.58,5.43-1.34a173.9,173.9,0,0,0,7.75-31.63c1-6.61,2.34-13.17,3.76-21.09-5.57,5.5-8.2,11.61-12.32,16.6-9.75,11.82-16.53,17.38-31.19,14.11-2.52-4.72-4.51-9.57-3.42-15.11,6,2.52,11.34.84,16.41-2.57,8.38-5.65,14.79-13.2,19.89-21.75,3.09-5.2,6.93-10.07,8.48-16.15.3-1.17,1.16-3.24,2.9-3,2.42.37,1.4,2.64,1.45,4.1.17,5.12-.42,10.29,1.14,15.31,3.36,10.78,10.78,17.64,21.59,19.77,10.27,2,20.23.81,27.26-8.56.79.19,2.1.46,1.57,1.36C288.6,287.77,289,291,288,294c-5.82,16.84-11.25,33.81-12.15,51.78-.19,3.85-1.1,7.89.76,11.67a313.82,313.82,0,0,0-2,44.94c-4.1-.35-8.18-.82-12.29-1-11-.55-21.64,1.71-32.35,3.52,1.72-6.37,6.26-11.12,9.52-16.61.86-1.46,3.82-2.32,2.48-4.21-1.08-1.51-3.75-.64-5.69-.46A5.86,5.86,0,0,0,233.7,385c-4.61,3.47-9.34,6.82-13,11.42a9.56,9.56,0,0,0-5,1.31c-6,3-12.26,5.34-19.22,4.44-3.44-6.13,0-12.54-.75-18.78a7.48,7.48,0,0,1,2.28.85c5.43,4.43,11.3,4.39,16.87.18,3-2.23,1.89-5.1,1.71-7.74-.16-2.33-1.26-4-4.17-4.64-5.23-1.15-10.31-3.05-15.45-4.64-.25-1.3-.51-2.61-.76-3.91a12,12,0,0,1,6.05,1.94,16.37,16.37,0,0,0,8.29,3c3,.16,6.44.51,7.85-2.77,1.29-3,0-6.15-1.83-8.83a18,18,0,0,0-1.71-1.79c-5.54-6-13.36-7.58-20.42-10.61l-1.17-6c6.27,3.08,12.93,5.35,18.71,9.44,1.8,1.28,3.24.66,4.09-1.71,1.47-4.12.91-8.25-1.61-11.24A34.86,34.86,0,0,0,192,322.49Z" fill="#d6ad8e"/><path d="M315.23,186.33c5-4.68,10-9.12,14.66-14,18.61-19.51,28.63-42.79,31-69.53a115.8,115.8,0,0,0,0-24.34c-.36-3-1.39-4-4.32-3.89-3.82.18-7.66.08-11.48,0-2.36,0-4.24-.15-1.83-3.25q17-21.79,33.7-43.81c1.86-2.44,2.95-1.79,4.47.18q16.56,21.48,33.2,42.9c.59.75,1.68,1.45,1.3,2.5-.52,1.46-2,.79-3.05.91-3.91.44-9-1.76-11.43,1.15-2.06,2.45-1.41,7.24-1.81,11-3.62,33.75-18.4,61.44-45.51,82A95.7,95.7,0,0,1,315.23,186.33Z" fill="#f8be7a"/><path d="M284.49,467.28c.16,3.9-2.53,7.12-2.62,11-3.79,6.36-8.39,11.51-15.63,14.51-11.47,4.76-23.49,6.17-35.55,6.19-19.39,0-38.82-.61-58.07-3.52-5-.77-10-1.69-15.06-2.28-4.32-.51-7.44-2.07-7.89-6.87-1.73-8.21-4.16-16.31-4.13-24.81,18.59,2.18,37.17,4.58,55.79,6.47,9.54,1,19,3.19,28.7,2.28,8-.76,14.9-4.42,14.94-15.07a315,315,0,0,0-1.22-31.78c3.35-.62,6.12,1.39,9.05,2.29,15.92,4.86,31.1,19.63,30,37.58C282.67,464.74,282.06,466.73,284.49,467.28Z" fill="#3d3f3e"/><path d="M197.64,212.74c-2.59-12.22-3-24.53-2.39-37,.44-8.82,2.21-17.38,3.65-26,4.7-1.42,8.36-5,13.34-6,9.54-2,9.4-2.18,9.55,7.43.05,3.21-1.45,7.2,1.26,9.46,3.24,2.7,3.32,5.76,3.22,9.25-.07,2.48-.11,5,0,7.44.09,1.61-.9,3.94,2.11,4.1s2.33-2,2.48-3.75c.25-3,.61-5.91.92-8.87,1.49,0,2.37,1,3.35,1.88,8,7.36,14.44,7.14,22.65-.35a67.77,67.77,0,0,0,7.92-8.52c3.44,2.78,4.31,7.75,8.47,9.92,2.95,8.47,6.1,16.88,6.56,26a8.83,8.83,0,0,0-1,2.15A45.27,45.27,0,0,1,266,226c-7,6.63-18.41,8.58-26.49.07-2.43-2.56-3.95-6.15-7.57-7.52q-.58-3.45-1.15-6.88V189.26l-1.45-.14c-1.14,2.86-2.49,5.66-3.37,8.59-1.53,5.13-4.69,8.22-9.64,10.47C210.28,210.91,203.92,211.49,197.64,212.74Z" fill="#e1c4af"/><path d="M145.53,461.47c0,8.5,2.41,16.6,4.14,24.81a282.85,282.85,0,0,0-34.41-7.13,33.2,33.2,0,0,0,1,3.79,94.39,94.39,0,0,1,4.74,62.3c-4.6,18-8.21,36.26-9.31,54.89-1.61,2.19-.61,4.67-.81,7l-.15,4.91A67.45,67.45,0,0,1,108,593.65c-.22-20.89.3-41.79-1-62.67-.4-6.3-2-12.48-3.57-18.39a67.77,67.77,0,0,0-11-23.48c-2.21-3-4.55-6.81-8.13-6.36-3.41.42-4.48,4.66-5.49,8.07-.69,2.35-.46,5.49-3.74,6.42-.18-10-3.7-19.51-4.69-29.41-1.21-11.95.12-23.17,8.37-32.66,2.29,2.21,1,5,1.17,7.54.37,6.68,4.16,10,10.38,7.88,6.43-2.17,12.9-2.22,19.5-2.3,7.94-.1,15.8,1,23.71,1.39,3.44.15,8.05-1.19,10.92,2.63,0,1.08,0,2.16,0,3.23-.66.67-.54,1.23.23,1.7Z" fill="#d6ad8e"/><path d="M346.89,656l10,0c5.62,0,8.3,2.66,8.72,8.49.36,5-3,8.87-8.11,9.43a35.39,35.39,0,0,1-4,0H6.44C0,674,0,674,0,667.48,0,656,0,656,11.47,656c4,0,8-.09,12-.13,17,11.52,35.7,12.14,54.94,8.33,6.07-1.2,12-2.43,18.21-1.61a59.57,59.57,0,0,0,11.94.37c6.47-.44,9.27-3.26,9.69-8.92.89.82.58,2.83,3,2.15,2.13-.59,4.56-.13,6.85-.14-.05,1-.11,1.95-.17,2.93-1.42,1.39-1.58,2.72.19,4l21.77.07c8.8,0,17.6.05,26.4,0L324.72,663c5.9.07,11.81-.05,17.7.27,3.41.18,4.88-.78,4.32-4.31A13.85,13.85,0,0,1,346.89,656Z" fill="#ebebe6"/><path d="M75,497.24c3.28-.93,3-4.07,3.74-6.42,1-3.41,2.08-7.65,5.49-8.07,3.58-.45,5.92,3.39,8.13,6.36a67.77,67.77,0,0,1,11,23.48c1.56,5.91,3.17,12.09,3.57,18.39,1.33,20.88.81,41.78,1,62.67a67.45,67.45,0,0,0,2.81,18.41A71.1,71.1,0,0,1,110.1,626c-1.59,2.79-2,6.39-5.62,7.76-11.47,4.36-24-3.51-24.83-15.57a536.12,536.12,0,0,0-1.52-63.5c-.53-6.09-.28-12.21-.8-18.34C76.21,523.32,75.74,510.27,75,497.24Z" fill="#ddbba1"/><path d="M324.72,663l-148.45.11c-8.8,0-17.6,0-26.4,0l-.15-22.84,72-.18,31.2-.07q32,.07,64,.14c2.64,0,5.29.14,7.93.21Q324.78,651.62,324.72,663Z" fill="#a6a6a8"/><path d="M288.69,283.57c-7,9.37-17,10.59-27.26,8.56-10.81-2.13-18.23-9-21.59-19.77-1.56-5-1-10.19-1.14-15.31,0-1.46,1-3.73-1.45-4.1-1.74-.26-2.6,1.81-2.9,3-1.55,6.08-5.39,10.95-8.48,16.15-5.1,8.55-11.51,16.1-19.89,21.75-5.07,3.41-10.41,5.09-16.41,2.57.76-7.71,4.63-14.2,8.72-20.38,6.64-10.06,12.36-20.92,22.37-28.34,1.14-.84.92-2,1.29-3.09,3.79,1.36,4.68-2.39,6.86-3.89a6.75,6.75,0,0,0,4.72-2.46c1.78-2.53,2.7-2.41,4.31.28a50.66,50.66,0,0,0,14.49,15.25c1.71,1.22,2.73,1.4,4.42-.44,3.22-3.49,7.18-6.3,10.41-9.78,5.76-6.19,13.72-10.71,15.6-19.93q4.51,9.36,9,18.72c-.48,2-.87,3.84.48,6a22.33,22.33,0,0,1,2.6,5.79C297.84,265.09,294.65,274.59,288.69,283.57Z" fill="#e1c4af"/><path d="M301.59,513.28c.93,5.6.49,11.26.46,16.88,0,6.1-3.47,9.31-9.77,9.38-13.1.14-26.2.18-39.3.26l-31.41,0c-12.95-.06-25.89-.08-38.84-.21-6.46-.07-9.89-3.47-9.93-9.82,0-5.13.16-10.27.26-15.41,4.19-4.36,9.53-4.21,15-4.19q48.92.18,97.82,0C291.39,510.14,296.86,509.78,301.59,513.28Z" fill="#515152"/><path d="M221.57,539.75l31.41,0q-.1,33.88-.19,67.76c0,10.79.07,21.59.11,32.38l-31.2.07c.05-22.78.13-45.57.12-68.35C221.82,561,221.66,550.39,221.57,539.75Z" fill="#bdbcbd"/><path d="M229.92,404.87c10.71-1.81,21.39-4.07,32.35-3.52,4.11.21,8.19.68,12.29,1,3.36,3,2.6,7.37,3.92,11.06-10.58-2.33-21.15-1.62-31.8-.34-3.32.4-4.16,1.89-4.25,4.66-.69-2.47-1.89-3.85-4.8-2.85-2.73.93-5.76.84-8.39,2.24a65.68,65.68,0,0,0-19.3,5.15h19.34a131.24,131.24,0,0,1,.19,21.35c-.4,7.2-5,10.42-12.35,9.27q-36.12-5.67-72.23-11.38c-.34-6.48,1.79-12.48,3.47-18.57,3.9-1.33,7.91-.54,11.86-.59,10.65-.13,21.3-.18,31.94,0,3.59.07,4.66-1,4.19-4.58-.27-2-2-4.5.69-6.3,5.86.29,11.43-1.23,17-2.67Z" fill="#3d3f3e"/><path d="M229.72,127.9a261.59,261.59,0,0,1,13.91-45.47c4.48-10.88,10-21.32,14.39-32.23,3.4-8.52,10.16-12.23,18-15,1.86-.67,3.83-1,5.75-1.54a102.1,102.1,0,0,1,30.23-.2,23.39,23.39,0,0,0-.29,2.47c-.05,7.23,1.37,7.27-7.37,7-10.18-.31-20.25,0-29.58,4.62-3,1.5-7.18,2-8,6.4-3.47,2.69-.68,6.21-1.07,9.3-1.9,15.19-3.47,30.42-4.84,45.67-.88,9.8-1.25,19.57-4.8,29-3.26,8.64-11.74,11.73-19.77,7.06-2.93-1.71-3.87-5.47-7.42-6.17C228,135.08,228.93,131.5,229.72,127.9Z" fill="#e1c4af"/><path d="M301.59,513.28c-4.73-3.5-10.2-3.14-15.67-3.13q-48.9.08-97.82,0c-5.51,0-10.85-.17-15,4.19q-.23-9.43-.44-18.88c19.25,2.91,38.68,3.56,58.07,3.52,12.06,0,24.08-1.43,35.55-6.19,7.24-3,11.84-8.15,15.63-14.51,4-.05,8-.26,11.94-.1,4.62.2,7.74,2.9,8,7.36C302.39,494.75,302.82,504,301.59,513.28Z" fill="#79787a"/><path d="M228.8,138.81c3.55.7,4.49,4.46,7.42,6.17,8,4.67,16.51,1.58,19.77-7.06,3.55-9.43,3.92-19.2,4.8-29,1.37-15.25,2.94-30.48,4.84-45.67.39-3.09-2.4-6.61,1.07-9.3,7.84,4,11.55,10.18,10,19.1q-1,12.39-2,24.79c-.75,6-2.37,11.93-2,18.07q-1,13.4-2.09,26.81c-2,3.88-1.45,8-1,12.06-3,1.37-2.89,4.54-4,7a67.77,67.77,0,0,1-7.92,8.52c-8.21,7.49-14.67,7.71-22.65.35-1-.9-1.86-1.91-3.35-1.88a56.91,56.91,0,0,0-1-10.81C229.74,151.63,228.38,145.31,228.8,138.81Z" fill="#ddbba1"/><path d="M79.65,618.16c.79,12.06,13.36,19.93,24.83,15.57,3.59-1.37,4-5,5.62-7.76,4.05-.54,5.18,2.29,5.56,5.31.78,6.12,1.2,12.28,1.77,18.43-7.8,5.17-16.53,4.78-25.28,4.18a20.91,20.91,0,0,0-9.69,1.8c-11.53,4.93-23.46,5-35.67,3.49-9.57-1.2-17.41-4.94-22.86-13.09,2.51-5,7.69-4.08,11.82-4.84,13.9-2.56,26.89-6.9,37.39-16.86C75.32,622.33,79.92,622.77,79.65,618.16Z" fill="#d9d6e9"/><path d="M148.36,423c-1.68,6.09-3.81,12.09-3.47,18.56-.17,3.6-.35,7.19-.52,10.78-2.87-3.82-7.48-2.48-10.92-2.63-7.91-.34-15.77-1.49-23.71-1.39-6.6.08-13.07.13-19.5,2.3-6.22,2.09-10-1.2-10.38-7.88-.14-2.52,1.12-5.33-1.17-7.54,5.31-7.28,12.74-11.06,21.45-11.95C116.18,421.58,132.28,422.05,148.36,423Z" fill="#ddbba1"/><path d="M276.74,73.05c1.51-8.92-2.2-15.09-10-19.1.86-4.39,5-4.9,8-6.4,9.33-4.6,19.4-4.93,29.58-4.62,8.74.26,7.32.22,7.37-7a23.39,23.39,0,0,1,.29-2.47l1.57.32c4.18,2.47,5.54,6.09,5.24,10.89a123.85,123.85,0,0,0,0,16.46c.43,6-1.57,10-7.41,11.88-2.47.31-5,.44-7.4,1-2.72.59-6.11-.38-7.78,3C289.9,74.87,283.18,74.63,276.74,73.05Z" fill="#d6ad8e"/><path d="M282.76,223.62c-1.88,9.22-9.84,13.74-15.6,19.93-3.23,3.48-7.19,6.29-10.41,9.78-1.69,1.84-2.71,1.66-4.42.44a50.66,50.66,0,0,1-14.49-15.25c-1.61-2.69-2.53-2.81-4.31-.28a6.75,6.75,0,0,1-4.72,2.46c1-7.37,5.68-14.23,3.1-22.11,3.62,1.37,5.14,5,7.57,7.52,8.08,8.51,19.53,6.56,26.49-.07a45.27,45.27,0,0,0,13.79-26.21,8.83,8.83,0,0,1,1-2.15c1,1.19.79,2.63.79,4-.11.11-.32.26-.29.33a4.51,4.51,0,0,0,.39.71C282.84,209.65,282.85,216.63,282.76,223.62Z" fill="#d6ad8e"/><path d="M313.55,33.77,312,33.45a102.1,102.1,0,0,0-30.23.2c-2.26-2.13-5.23-3.49-6.87-6.29,3.66,0,7.32-.05,11,.06,2.15.07,2.92-.75,2.86-2.9-.12-4.48.31-9-.13-13.45-.49-5.1,1.52-6.58,6.17-5.47a16.3,16.3,0,0,0,8.87,0c5.31-.22,10.62-.58,15.92.22,0,5.59.23,11.18,0,16.75-.13,3.42,1,4.66,4.46,4.57,2.56-.06,5.71-1.4,7.61,1.8-2.77,3.62-6.48,4.47-10.86,4.13C318.4,32.88,315.84,32.37,313.55,33.77Z" fill="#333232"/><path d="M332.58,120.71c-3.35,4.18-7.56,5.56-13,5.35-10.9-.42-21.84-.39-32.74,0-5.42.18-9-2-11.94-6.11,3.3,0,6.61-.16,9.89.08,3,.21,4-.73,3.94-3.83-.17-5.76.09-11.52.17-17.28l.8-.73,29.88,0a52.63,52.63,0,0,0-.2,18.1c.53,3.17,1.86,3.55,4.51,3.62C326.8,120,329.83,119,332.58,120.71Z" fill="#333232"/><path d="M242.43,417.76c.09-2.77.93-4.26,4.25-4.66,10.65-1.28,21.22-2,31.8.34,5.65,17.54,9.49,35.28,6,53.84-2.43-.55-1.82-2.54-1.73-4,1.14-17.95-14-32.72-30-37.58-2.93-.9-5.7-2.91-9.05-2.29C241.92,421.83,242.65,419.68,242.43,417.76Z" fill="#1b1b1c"/><path d="M193,311.51c14.66,3.27,21.44-2.29,31.19-14.11,4.12-5,6.75-11.1,12.32-16.6-1.42,7.92-2.77,14.48-3.76,21.09A173.9,173.9,0,0,1,225,333.52c-1.37,3.92-2.57,4.62-5.43,1.34a51.47,51.47,0,0,0-20.14-14.11,20.1,20.1,0,0,0-6.76-1.32Z" fill="#ddbba1"/><path d="M228.8,138.81c-.42,6.5.94,12.82,2,19.16a56.91,56.91,0,0,1,1,10.81c-.31,3-.67,5.91-.92,8.87-.15,1.74.46,3.9-2.48,3.75s-2-2.49-2.11-4.1c-.13-2.47-.09-5,0-7.44.1-3.49,0-6.55-3.22-9.25-2.71-2.26-1.21-6.25-1.26-9.46-.15-9.61,0-9.41-9.55-7.43-5,1-8.64,4.59-13.34,6-4.71-7.31-4.9-14.16-.41-18.67,1.64-1.65,3.28-3.35,5.81-1,1.65,1.55,3.83.51,5.74.29,6.57-.76,13.12-1.65,19.68-2.49C228.93,131.5,228,135.08,228.8,138.81Z" fill="#333232"/><path d="M23.93,646.09c5.45,8.15,13.29,11.89,22.86,13.09,12.21,1.53,24.14,1.44,35.67-3.49a20.91,20.91,0,0,1,9.69-1.8c8.75.6,17.48,1,25.28-4.18.27,1.45.53,2.9.8,4.35-.42,5.66-3.22,8.48-9.69,8.92a59.57,59.57,0,0,1-11.94-.37c-6.24-.82-12.14.41-18.21,1.61-19.24,3.81-38,3.19-54.94-8.33-.27-.63-.53-1.26-.8-1.88l-.51-1.31C22.4,650.41,21.15,647.7,23.93,646.09Z" fill="#3d3f3e"/><path d="M288.69,283.57c6-9,9.15-18.48,6.17-29.41a22.33,22.33,0,0,0-2.6-5.79c-1.35-2.19-1-4-.48-6a48,48,0,0,1,7.89,24c.63,12.33-2.28,24-6.27,35.52-6.22,18-12.31,36.07-16.19,54.78-.06.28-.4.5-.61.75-1.87-3.78-1-7.82-.77-11.67.9-18,6.33-34.94,12.15-51.78,1-2.95.62-6.22,2.28-9.06C290.79,284,289.48,283.76,288.69,283.57Z" fill="#ddbba1"/><path d="M319.6,98.23l-29.88,0c-.64-.17-.94,0-.8.73-.08,5.76-.34,11.52-.17,17.28.1,3.1-1,4-3.94,3.83-3.28-.24-6.59-.07-9.89-.08-1.83-.75-.55-3.16-2.14-4-.38-6.14,1.24-12,2-18.07,3.88-5,9.18-5.48,15-5,2.14.17,4.67.91,6.36-1.41,5.13,2.27,10.36,1.27,15.58.51,3.27,0,6.56.19,9.81,0,4.81-.32,8,1.83,10.2,5.89Z" fill="#ebebe6"/><path d="M294.75,5.6c-4.65-1.11-6.66.37-6.17,5.47.44,4.44,0,9,.13,13.45.06,2.15-.71,3-2.86,2.9-3.65-.11-7.31-.05-11-.06-2.15-6.64-.95-13.48-1-20.23,0-3,5.36-7,9-7.07C296.81,0,310.75,0,324.68.1c3.25,0,6.08,1.38,6.95,5.05l-12.09.67c-5.3-.8-10.61-.44-15.92-.22A24.94,24.94,0,0,0,294.75,5.6Z" fill="#ebebe6"/><path d="M324.72,663q.07-11.34.14-22.67c6.15-.07,12.31,0,18.46-.26,2.7-.09,3.42,1,3.36,3.51-.1,4.15.12,8.3.21,12.45a13.85,13.85,0,0,0-.15,2.93c.56,3.53-.91,4.49-4.32,4.31C336.53,662.91,330.62,663,324.72,663Z" fill="#515152"/><path d="M194.42,344.43c7.06,3,14.88,4.62,20.42,10.61a18,18,0,0,1,1.71,1.79c1.87,2.68,3.12,5.8,1.83,8.83-1.41,3.28-4.89,2.93-7.85,2.77a16.37,16.37,0,0,1-8.29-3,12,12,0,0,0-6.05-1.94C192.93,357.4,193.34,350.94,194.42,344.43Z" fill="#ddbba1"/><path d="M192,322.49A34.86,34.86,0,0,1,214.44,335c2.52,3,3.08,7.12,1.61,11.24-.85,2.37-2.29,3-4.09,1.71-5.78-4.09-12.44-6.36-18.71-9.44C190.68,333.31,191.87,327.86,192,322.49Z" fill="#ddbba1"/><path d="M231.91,218.59c2.58,7.88-2.08,14.74-3.1,22.11-2.18,1.5-3.07,5.25-6.86,3.89v-1.86c.11-.11.32-.25.3-.34a4.53,4.53,0,0,0-.3-.8c.12-5.46.12-10.58-4.66-14.85-2-1.76-1.88-5.8-2.73-8.8,5-3.1,10.83-4.07,16.2-6.23Q231.33,215.15,231.91,218.59Z" fill="#c69676"/><path d="M197,367.43c5.14,1.59,10.22,3.49,15.45,4.64,2.91.64,4,2.31,4.17,4.64.18,2.64,1.25,5.51-1.71,7.74-5.57,4.21-11.44,4.25-16.87-.18a7.48,7.48,0,0,0-2.28-.85C195.8,378.06,194.93,372.64,197,367.43Z" fill="#ddbba1"/><path d="M319.6,98.23l12.07-.47c.56.29,1.61.57,1.61.86.09,7.37,1.55,14.8-.7,22.09-2.75-1.74-5.78-.69-8.67-.76-2.65-.07-4-.45-4.51-3.62A52.63,52.63,0,0,1,319.6,98.23Z" fill="#515152"/><path d="M319.54,5.82l12.09-.67c1.19.34,2.05.84,2,2.35-.07,6.31-.05,12.62-.06,18.92a2.55,2.55,0,0,1-2,2.52c-1.9-3.2-5.05-1.86-7.61-1.8-3.5.09-4.59-1.15-4.46-4.57C319.77,17,319.57,11.41,319.54,5.82Z" fill="#515152"/><path d="M230.76,211.71c-5.37,2.16-11.19,3.13-16.2,6.23-3.73-2-7.84-.83-11.74-1.4-2.39-.34-5.28-.06-5.18-3.8,6.28-1.25,12.64-1.83,18.66-4.56,4.95-2.25,8.11-5.34,9.64-10.47.88-2.93,2.23-5.73,3.37-8.59l1.45.14Z" fill="#d6ad8e"/><path d="M311.66,91.9c-5.22.76-10.45,1.76-15.58-.51q.07-7.22.16-14.44c1.67-3.36,5.06-2.39,7.78-3,2.42-.53,4.93-.66,7.4-1Z" fill="#3d3f3e"/><path d="M214.06,408.85c-5.59,1.44-11.16,3-17,2.67l-.57-9.32c6.95.9,13.19-1.47,19.21-4.44a9.56,9.56,0,0,1,5-1.31c-3.3,2.49-5,6.19-7.22,9.5A1.86,1.86,0,0,0,214.06,408.85Z" fill="#c69676"/><path d="M269.7,154.78c-.46-4.08-1-8.18,1-12.06,4.6,8.29,5.4,17,3,26.13Z" fill="#333232"/><path d="M269.7,154.78l4,14.07c.16,1,.31,1.91.47,2.86-4.16-2.17-5-7.14-8.47-9.92C266.81,159.32,266.67,156.15,269.7,154.78Z" fill="#d6ad8e"/><path d="M281.64,202.74a4.51,4.51,0,0,1-.39-.71c0-.07.18-.22.29-.33C281.57,202,281.61,202.39,281.64,202.74Z" fill="#e1c4af"/><path d="M222,241.59a4.53,4.53,0,0,1,.3.8c0,.09-.19.23-.3.34Z" fill="#e1c4af"/><path d="M192.71,319.44l-.68,1.09Z" fill="#ddbba1"/><path d="M22.14,652.7l.51,1.31Z" fill="#ebebe6"/><path d="M214.06,408.85a1.86,1.86,0,0,1-.55-2.9c2.21-3.31,3.92-7,7.22-9.5,3.63-4.6,8.36-7.95,13-11.42a5.86,5.86,0,0,1,2.53-1.44c1.94-.18,4.61-1,5.69.46,1.34,1.89-1.62,2.75-2.48,4.21-3.26,5.49-7.8,10.24-9.52,16.61Z" fill="#ddbba1"/><path d="M242.43,417.76c.22,1.92-.51,4.07,1.32,5.61A315,315,0,0,1,245,455.15c0,10.65-6.93,14.31-14.94,15.07-9.68.91-19.16-1.31-28.7-2.28-18.62-1.89-37.2-4.29-55.79-6.47l-.9-4.23c-.08-.57-.16-1.13-.23-1.7,0-1.07,0-2.15,0-3.23.17-3.59.35-7.18.52-10.78q36.12,5.7,72.23,11.39c7.32,1.15,11.95-2.07,12.35-9.27a131.24,131.24,0,0,0-.19-21.35c0-.65.05-1.31.08-2a2.33,2.33,0,0,0-.13-2.5.6.6,0,0,0,0-.69c2.63-1.4,5.66-1.31,8.39-2.24C240.54,413.91,241.74,415.29,242.43,417.76Z" fill="#2dafb6"/><path d="M111.72,600.13c0,2.37.73,4.83-.81,7C111.11,604.8,110.11,602.32,111.72,600.13Z" fill="#ddbba1"/><path d="M144.41,455.54c.07.57.15,1.13.23,1.7C143.87,456.77,143.75,456.21,144.41,455.54Z" fill="#ddbba1"/><path d="M128.08,656.07c0-4.29.19-8.59.1-12.88-.06-2.36.77-3.21,3.16-3.15,6.12.16,12.25.11,18.38.15l.15,22.84L128.1,663c-.06-1.32-.12-2.64-.19-4Z" fill="#515152"/><path d="M127.91,659c.07,1.32.13,2.64.19,4C126.33,661.72,126.49,660.39,127.91,659Z" fill="#fff"/><path d="M229.24,417.15a.6.6,0,0,1,0,.7,2,2,0,0,0,.14,2.49c0,.65-.05,1.31-.08,2H209.94A65.68,65.68,0,0,1,229.24,417.15Z" fill="#1b1b1c"/><path d="M294.75,5.6a24.94,24.94,0,0,1,8.87,0A16.3,16.3,0,0,1,294.75,5.6Z" fill="#515152"/><path d="M288.92,98.91c-.14-.69.16-.9.8-.73Z" fill="#515152"/><path d="M229.36,420.34a2,2,0,0,1-.14-2.49A2.3,2.3,0,0,1,229.36,420.34Z" fill="#3d3f3e"/></g></g></svg>