<svg xmlns="http://www.w3.org/2000/svg" viewBox="0 0 383.86 769.45"><title>ex_d2_4_1</title><g id="Layer_2" data-name="Layer 2"><g id="Layer_1-2" data-name="Layer 1"><path d="M339.72,718.3A62.87,62.87,0,0,1,375.32,729c5.57,3.7,9.6,9.31,8.29,16.9-1.18,6.86-6.14,10.88-11.6,14-18,10.27-37.51,10.4-57.39,8.6-11.8-1.07-22.66-4.36-32.31-11.35-1.45-1.05-3.16-.88-4.82-.88q-85.63,0-171.28,0a10.4,10.4,0,0,0-5.92,1.93A69.45,69.45,0,0,1,71.5,768.44a147.14,147.14,0,0,1-26.85.72c-13.16-.75-25.8-3.88-36.74-11.88-10.06-7.35-10.81-19-.59-27,10.9-8.43,23.33-11.28,36.61-12-1.43,8.27-6,15.12-11.27,21.11A18,18,0,0,0,28,754.27c-.2,5.65,2.22,8.58,8.55,10a43.43,43.43,0,0,0,19.67-.55c6-1.43,9.45-5.09,9.81-11.4l-.09.1.94-.92c.86-3.4,1.86-6.78,2-10.32.1-2.61-.91-6.32,1-7.55,5.67-3.77,3.92-9.24,4.46-14.25,6.83.63,13.41,2.06,19.08,6.25-.09,5.95-.12,11.9-.29,17.85-.07,2.26.6,3.32,3.07,3.22,5.62-.2,11.24-.21,16.86-.3l157.85-.07c3.77.12,7.56.46,11.31.27,3-.15,6.18,1.25,8.86-1.13.11-.12.31-.26.29-.36a4.66,4.66,0,0,0-.31-.83c-.31-6.25.49-12.53-.43-18.76,5.88-3.71,12.41-5.39,19.24-6.1l-.07,2c-.13.09-.38.23-.37.27a4.79,4.79,0,0,0,.37.71c0,1.67,0,3.34,0,5-.13.1-.37.24-.36.28a4.68,4.68,0,0,0,.37.7c1.28,3.11,6,4.14,5.21,8.46-.47,2.53.46,4.8.95,7.16a10.71,10.71,0,0,0,1.63,7.31c.77,3.76,1.58,7.52,4.94,10,6.39,4.7,23.62,5.22,30.2.74,2.58-1.76,5.28-3.82,3-7.65.61-5.75-.38-10.79-4.63-15.32A48.07,48.07,0,0,1,339.72,718.3Z" fill="#e8e8e8"/><path d="M248.55,302.15c3.26-4.3,2.76-9.69,4-14.54,2.46-10,6.2-19.09,14.08-26.07l10-3.51c4.72.42,7.67,3.36,10.1,7.05a107.15,107.15,0,0,1-.23,25.69c-2.65,18.64-10.52,34.74-24.57,47.61-1.66,1.52-3.83,2.78-4.2,5.37-3.27.17-4.69,3.88-7.92,4.12-.5-10.25-1.29-20.48-1.61-30.84-3.58,17.24-7.72,34.35-9.95,51.83-6.4,14.45-18.55,13-30.84,11.08-8-1.27-11.38-7.13-13.66-14l-.06-26c1.09-4.45,5.18-6.2,8.09-9,1.88-.93,3.82-1.77,5.64-2.81,8.1-4.63,17.12-7.63,24.3-13.87l11-7.42C244.83,305.52,247.06,304.3,248.55,302.15Z" fill="#e1c3af"/><path d="M321,543.35c5.53,5.75,7.34,13.28,9.42,20.54,4.41,15.34,7.48,31,7.89,47,.29,11.23-1,22.53-1.82,33.77q-2.12,28.61-2,57.27c0,1.16,0,2.33,0,3.49-3.46,2-7.18,1-10.81.94-2.16-6.9-1.25-14.13-1.68-21.14-.83-13.33-1.62-26.7-2.1-40-.7-19.46-3.23-38.35-12.55-55.66-2.22-4.11-4.08-9.25-9.44-11a23,23,0,0,0-3.23-9.87,55.76,55.76,0,0,1-1-13.71c.19-4.47,3.91-10.33,7.58-11.19,5.24-1.23,10.58-2.51,15.78.42A2.76,2.76,0,0,0,321,543.35Z" fill="#dcbaa1"/><path d="M49.71,705.36a586.65,586.65,0,0,0-2.63-65.63c-3-30.09.05-59.23,10.52-87.6a14.57,14.57,0,0,1,3.22-5.51c1.16,0,2.34.09,3.3-.76,4.92-4.33,10.63-3.76,16.35-2.45,5.87,1.33,10.08,6.8,10.49,12.71.31,4.4-1.26,8.42-1.95,12.61-1,3.31-2.89,6.31-3.26,9.82-3.9,1.71-5.52,5.53-7.59,8.73-9.41,14.56-12.92,31.26-13.84,48-.94,17-2.44,34-2.39,51a80.22,80.22,0,0,1-.69,11.86c-.37,2.46-2.51,6.18,1.66,8C58.48,706.3,54,707.63,49.71,705.36Z" fill="#dcbaa1"/><path d="M94.82,122.06c.14-3.76,3-5.89,5.83-5.59,6.74.73,13.46-.62,20.15.38a7.19,7.19,0,0,0,1.91,0c5.93-.79,6.58-.3,7.12,5.49-1.21,2.23.29,3.61,1.85,4.45,4.94,2.66,6.26,6.77,5.35,12,.7,8.09-.56,15.32-8.65,19.53-1.41,0-2.45.38-2.46,2l0,0c-3,.34-5.89.71-8.84,1-2.28.22-2.78,1.07-2.6,3.57.45,6.27.9,12.68.12,18.88-1.77,14.12.19,28,1,42.06.6,10.52,1.47,21.11-8.74,28.29-5.61.58-10.34-.52-12.27-6.66-1.43-4.54-3.13-9-2.78-14,.43-6.23.18-12.37,1.84-18.62,2-7.66,1.91-15.75,3.89-23.63,2.26-9,2.34-18.59,3.37-27.93l2.94-.07c4.1-3.06,8.25-6.08,8-12,1.61-4.41,5.5-6.49,9.08-8.9l0,0c2.34-1.87,6.36.62,8-3.07.23-3.21.07-6.25-2.87-8.43-1.15-.86-1.25-2.29-1.14-3.63.21-2.61-.53-2.87-3.4-3.37-3.94-.69-7.94-.29-11.51,0-4,.26-8.89-2.78-12.3,1.74l0-.07-.24-2C97,122.17,95.83,122.26,94.82,122.06Z" fill="#e1c3af"/><path d="M254.7,122.46c.14-6.25.69-6.32,6.61-5.88a157.74,157.74,0,0,0,19.2-.13c4.38-.22,7.53.71,8.29,5.56a2.34,2.34,0,0,0-2.37,2.28,6.65,6.65,0,0,0-1-.19q-12.54-.33-25.08-.64c-.92,0-1.07.61-.9,1.33.76,3.23-1.31,5.21-3,7.49-3.29,4.37-2,7.9,3.06,9.4,1.74.51,3.48,1.06,5.22,1.59,3.6,1.75,6,4.74,8,8.06-.74,4.34.4,8,4.56,9.89,6,2.76,7,7.65,6.48,13.45a9.69,9.69,0,0,0,.42,2.44c2.17,11.75,4.39,23.5,6.48,35.27a86,86,0,0,1,.82,25.79c-1.27,10.11-2.3,16.52-13.76,15.93-6.41-4.36-9.29-10.24-9.21-18.15.1-9.14,1.08-18.23,1.12-27.34.07-14.11.76-28.25-1-42.32-.19-1.55,1.91-4.27.39-4.31-4-.09-7.49-2.88-11.53-1.54-7.7-5.09-12.16-11.82-10.83-21.46-.59-5.33.8-9.68,5.86-12.39A3.89,3.89,0,0,0,254.7,122.46Z" fill="#e1c3af"/><path d="M249.8,347.87c3.23-.24,4.65-3.95,7.92-4.11-.43,5.56,1,10.93,1.76,16.59a66.65,66.65,0,0,1,11.09-12.64c8.77-7.84,15.15-17,18.28-28.68,5.19-19.39,4.21-39.27,5.85-58.94a7.65,7.65,0,0,0,1-1.65A90.89,90.89,0,0,0,299,219.28c-.35-2.66-1.32-5.56.67-8.1,4.45,15.8,5.41,32.58,2.24,47.89-3.5,17-1.82,34.05-5.21,50.78s-10.07,31.23-24,41.67c-7.83,5.84-13.68,12.76-15.1,23-.78,5.54-2.93,10.88-4.37,16.34-2.07,7.81-5.19,15.41-4.79,23.73-1.28-1.32.29-3.4-1.35-4.94l-9.86,21.68c-.51-7.17-.78-14.4-2.51-21.41-1.18-4.8-.86-10.2-4.88-14-1.12-1.38-2.72-1.62-4.33-2-9.36-2.48-18.44-5.69-26.71-10.88a29,29,0,0,0-7-7.12c.94-3.24-2-7.25,2-9.9,2.28,6.9,5.68,12.76,13.66,14,12.29,2,24.44,3.37,30.85-11.08A56,56,0,0,0,249.8,347.87Z" fill="#c69676"/><path d="M117.5,257.12c0,3.84,1.84,6.5,4.36,9.38,7,8,8.87,18.14,11.13,28.12.57,2.5-.27,5.64,2.66,7.33.12.67.25,1.34.37,2-.42.18-1.21.38-1.2.53.3,4.16.67,8.31,1,12.47-1.58,8.05-.45,16.27-1.37,24.35-.78,6.86-1,6.82-6.32,2.67a8.24,8.24,0,0,0-2.25-.88c-3.42-4.89-8-8.71-11.86-13.26-8.32-9.88-13.29-21.21-15.83-33.63C96.13,286,97,275.48,96.93,265.08c1.35,0,2-.92,2.45-2,1.66-3.68,4.55-5.25,8.51-5,1.16,1.57,3.25.38,4.44,1.37C115.86,262.43,116.79,260.13,117.5,257.12Z" fill="#e1c3af"/><path d="M298.64,33.57a12.36,12.36,0,0,1-2,.63c-9,.62-9,.62-9,9.9,0,10-.12,20,.06,29.94.06,3.24-.9,4.41-4.21,4.32a202.33,202.33,0,0,0-20.46.06c-5,.37-6-2-6-6,0-10.81-.22-21.63.12-32.43.15-4.66-1.35-6.3-5.87-5.73-1.37.18-3.3.79-4.11-.81s1-2.58,1.87-3.7Q259.42,16,269.9,2.43c1.05-1.36,1.91-4.14,4.29-1C282.16,12.05,290.24,22.56,298.64,33.57Z" fill="#f9bf7a"/><path d="M114.47,78.31c-3,0-6-.35-9,.07-5,.7-6.42-1.68-6.31-6.09.26-10.62-.51-21.25.44-31.86.53-6,.37-6.07-5.62-6.21-1.57,0-3.7.92-4.59-.83s1.28-2.78,2.22-4c6.69-8.87,13.56-17.6,20.11-26.57,2.14-2.94,3.32-3.32,5.61-.19,6.86,9.35,14,18.52,21,27.77.68.89,1.87,1.69,1.28,3s-2,.81-3.12.87c-6.71.36-6.71.34-6.7,7.17,0,11-.07,21.93.08,32.89,0,3-.82,4.22-3.93,4C122.13,78.16,118.3,78.31,114.47,78.31Z" fill="#f9bf7a"/><path d="M248.37,481.55c.27,2.82,2.21,4.87,3.37,7.28a3.54,3.54,0,0,0-.44.73c-21.65,5-51.82,24-48.47,55l-11.09-1.33.09-65.52c7.61-1.31,15.46-.8,22.95-3,5.37-1.14,11.12-.79,15.91-4.16,4.12-.63,8.31-1.12,10.15-5.77.64,1.83,1.24,3.68,1.94,5.49,1.19,3.08.93,7,4.86,8.54C247.88,479.74,248.12,480.64,248.37,481.55Z" fill="#3b3a39"/><path d="M191.83,477.72l-.09,65.52-10.9,1.36c1.48-16.6-5.24-29.48-17.82-39.86-9-7.38-19.39-11.89-30.06-16l-.22-.2-.25.16c1.31-3.25,3.87-6.05,3.56-9.89,3.72-1.1,4-4.47,4.79-7.41.55-2,.2-4.36,2.5-5.56,2.69,3.22,6.47,4.3,10.31,5.27a47.25,47.25,0,0,0,16.19,3.64c7.34,1,14.47,3.84,22.08,2.59Z" fill="#181818"/><path d="M125.91,343.1a8.24,8.24,0,0,1,2.25.88c5.36,4.15,5.54,4.19,6.32-2.67.92-8.08-.21-16.3,1.37-24.35a10.19,10.19,0,0,1,1,2.19c3,15.77,5.88,31.58,9,47.33,1.58,7.92,7.55,14.26,13.18,14.4,4.66.12,9.33.15,14-.09,10.23-.53,16.76-7.53,16.83-17.8,0-4-.34-8,.08-12,1-9.26-.43-17.22-9.91-21.6-.12-.05-.15-.28-.23-.43,5.36,0,8.05,4.51,11.87,7.11,0,.31.06.62.1.93l1.05,1,.87,1.9.06,26c-3.93,2.65-1,6.66-2,9.9-3.26,1.61-4.33,5.28-7.26,7.39-5.93,4.28-12.6,7.54-19.46,8.43-11,1.44-14.57,8-15.79,17.5a26.7,26.7,0,0,1-.46,3.93c-1.4,4.86.27,10.34-3,14.81L136,408c-3.9-12.42-7.75-24.84-10.3-37.62.14-1.35.65-2.82-1.15-3.53-.22-1-.43-2-.65-3,1.19-.7,1-1.87,1-3A94.43,94.43,0,0,0,125.91,343.1Z" fill="#be8b6b"/><path d="M49.71,705.36c4.28,2.27,8.77.94,13.19.83,1.32.14,3-.2,3.87.5,3.71,3,3.91.14,4.43-2.39,3.33,1.39,2.63,4.36,2.74,7-6.73,4.7-9.41,23.85-5.15,29.84-.09,3.54-1.09,6.92-2,10.32-.61,0-1,.24-.94.92l.09-.1c-4.35,4-9.22,7.14-15.32,5.8a40.37,40.37,0,0,0-12.81-.55c-3.9.38-7.21-.31-9.9-3.27a18,18,0,0,1,4.7-14.82c5.27-6,9.84-12.84,11.27-21.11a66.19,66.19,0,0,1,.76-9.17C45.33,706,46.92,705.16,49.71,705.36Z" fill="#dad8eb"/><path d="M323.66,706.35c3.63,0,7.35,1,10.81-.94,3.66-.75,4.72,1.65,5,4.46s.16,5.62.22,8.43A48.07,48.07,0,0,0,351,739.06c4.25,4.53,5.24,9.57,4.63,15.32-2.09,2.89-5,3.4-8.36,3.21s-7.08-.81-10.39-.09c-7.85,1.7-14.3.09-19.43-6.21a10.71,10.71,0,0,1-1.63-7.31c1.24-6.12,2-12.34.86-18.49-.94-5.19-1.9-10.61-6.86-13.92.92-2.4-.45-5.68,2.75-7.21,1.76.33.19,4.92,3.52,3C318.6,705.84,321.14,706.62,323.66,706.35Z" fill="#dad8eb"/><path d="M299.68,211.18c-2,2.54-1,5.44-.67,8.1a90.89,90.89,0,0,1-3.31,39.16,7.65,7.65,0,0,1-1,1.65c-3.6.16-4.38,4.83-8,5-2.43-3.69-5.38-6.63-10.09-7.05a6.19,6.19,0,0,0,1.09-3.93c11.46.59,12.49-5.82,13.76-15.93a86,86,0,0,0-.82-25.79c-2.09-11.77-4.31-23.52-6.48-35.27a9.69,9.69,0,0,1-.42-2.44c.54-5.8-.47-10.69-6.48-13.45-4.16-1.9-5.3-5.55-4.56-9.89l1.1-1c.79-.08,1.52-.26,1.81-1.13l0-.09a30.74,30.74,0,0,1,15.47-2.93c1,.09,2.17-.61,3.25-.94a7.48,7.48,0,0,1-.12,4.9c-4.55,11.11-2,22.22,0,33.3C295.94,192.69,297.86,201.93,299.68,211.18Z" fill="#dcbaa1"/><path d="M89,568.73c.68-4.19,2.25-8.21,1.94-12.61-.41-5.91-4.62-11.38-10.49-12.71-5.72-1.31-11.43-1.88-16.35,2.45-1,.85-2.14.76-3.3.76,3.17-7,8.79-11.41,15.28-15a92.14,92.14,0,0,0,14.76-8.82c4.4.17,8.54,1.6,12.75,2.68,9.15,3.92,17.32,9.06,22.44,18-1.39,1.8-3.54,2.39-5.46,3.23-6.94,3-14,5.87-19.77,11C96.78,561.27,92.94,565.05,89,568.73Z" fill="#d6ac8e"/><path d="M321,543.35a2.76,2.76,0,0,1-3.92.84c-5.2-2.93-10.54-1.65-15.78-.42-3.67.86-7.39,6.72-7.58,11.19a55.76,55.76,0,0,0,1,13.71,61,61,0,0,1-4.69-4.39c-8.78-10-20-16-32.61-19.68.95-1.53,1.78-3.14,2.85-4.57,5.27-7.06,12.75-11.15,20.43-14.94L293,522.84c4.56,3.44,9.64,6,14.61,8.8A31.32,31.32,0,0,1,321,543.35Z" fill="#d6ac8e"/><path d="M248.55,302.15c-1.49,2.15-3.72,3.37-5.86,4.7,0-2.21-1.78-2.94-3.22-4-7.23-5.48-15.91-7.81-24.11-11.2l.53-2.42c3.22-.3,4.91-2.45,6.32-5,1.74-3.22,1.42-6.78,1.83-10.22.94-1.12,1-2.09-.46-2.82l.08.24c-.21-1-.57-.79-1-.11l-1.91-.33c.68-3.32.33-6.87,2.22-9.92a1,1,0,0,1,1.44,0h1.66a43.71,43.71,0,0,1,12.35-.25c6.17.54,9.93,5.22,10,12.08C248.55,282.62,248.52,292.39,248.55,302.15Z" fill="#4f4f51"/><path d="M136,304c-.12-.67-.25-1.34-.37-2,0-9.77,0-19.55.11-29.32.05-7.42,4.25-11.86,11.6-11.95,4.45-.06,8.93-.51,13.37.35,1.71,3.06,2,6.42,2.14,9.83-4.17,2.12-3.14,5.8-2.37,9,1,4.07,1.73,8.63,7.34,9.11.34,1,1.22,1.86.86,3.06-3.78.13-7.11,1.87-10.34,3.41-6.23,3-13.1,5-17.66,10.76Z" fill="#4f4f51"/><path d="M107.89,258.1c-4-.25-6.85,1.32-8.51,5-.47,1.06-1.1,2-2.45,2-3.13.07-3.88-4.06-7-4a77.23,77.23,0,0,1-5.35-37.72c.48-5.24,2.68-10.65.54-16.05,2.1-11.31,4.37-22.6,6.23-33.95.77-4.65,2.33-9.32,1.07-14.16,2,3.14,4.64,4.92,8.53,4.08-1,9.34-1.11,18.91-3.37,27.93-2,7.88-1.86,16-3.89,23.63-1.66,6.25-1.41,12.39-1.84,18.62-.35,5,1.35,9.42,2.78,14,1.93,6.14,6.66,7.24,12.27,6.66A7,7,0,0,0,107.89,258.1Z" fill="#dcbaa1"/><path d="M85.1,207.32c2.14,5.4-.06,10.81-.54,16.05a77.23,77.23,0,0,0,5.35,37.72A244.29,244.29,0,0,0,93,309c2.42,14.24,7.18,27.47,18.65,37.39,5,4.29,9.78,8.86,13.22,14.6,0,1.1.17,2.27-1,3a75.56,75.56,0,0,0-13.12-12.84c-14.24-10.82-20.89-25.77-23.64-42.89a161.2,161.2,0,0,1-1.8-29.77,25.18,25.18,0,0,0-1.18-9.3c-4.91-13.52-2.77-27.51-2.51-41.32A79.12,79.12,0,0,1,85.1,207.32Z" fill="#c69676"/><path d="M294.33,145.22c-1.08.33-2.21,1-3.25.94a30.74,30.74,0,0,0-15.47,2.93c-.19-2.94,2.05-4.43,3.86-6,2.8-2.4,2-3.91-1.14-5.54-.74,2.3-1.31,6.08-4.31,4.42-3.9-2.16-6.32.19-9.29,1.29-1.74-.53-3.48-1.08-5.22-1.59-5.11-1.5-6.35-5-3.06-9.4,1.72-2.28,3.79-4.26,3-7.49-.17-.72,0-1.35.9-1.33q12.54.3,25.08.64a6.65,6.65,0,0,1,1,.19l.3,15a4.57,4.57,0,0,0,6,0l1.84-.07c-.05.7-.09,1.39-.14,2.08a1.09,1.09,0,0,0,0,1.94Z" fill="#d6ac8e"/><path d="M162.87,270.86c-.1-3.41-.43-6.77-2.14-9.83,2-.69,1.81-2.48,2.08-4.1,2.37-13.79,14.61-23.83,29.05-23.88,14.26-.05,26.4,9.63,29.16,23.13.34,1.68-.07,3.79,2,4.82-1.89,3.05-1.54,6.6-2.22,9.92l-3.68,1.5.3-4.41-.36-1.3c-1.25-3.59-3.09-7.11-2.81-11,.5-6.75-3.69-10.16-8.67-13.26-4.23-2.63-9.05-2.45-13.71-3.13-13.08-.43-20.87,6.22-22.17,18.83a15.71,15.71,0,0,1-1.35,4.73,15.66,15.66,0,0,0-1.49,9.17C165.28,272.44,164.26,271,162.87,270.86Z" fill="#3b3a39"/><path d="M97.67,125.51C101.08,121,106,124,110,123.77c3.57-.24,7.57-.64,11.51,0,2.87.5,3.61.76,3.4,3.37-.11,1.34,0,2.77,1.14,3.63,2.94,2.18,3.1,5.22,2.87,8.43l-3.27.05a1.18,1.18,0,0,1-.56,0c-1.52.52-2.39-1.75-4.17-.92v3.95l0,0c-3.89.46-7.73-1.49-11.68-.08-1.28.45-2.5-.42-3.17-1.83-.41-.86.38-2.82-1.61-2.33a3.5,3.5,0,0,0-2,2c-.49,1.45,1,1.81,1.9,2.5,1.85,1.42,3.73,2.86,3.66,5.56-2.73-.61-5.44-1.44-8.21-1.8-7.48-1-7.89-.52-7.87,6.92h-1c-.07-.56-.13-1.11-.2-1.67-.19-2.17,1.42-4.7-1.25-6.37,0-1.3-.06-2.59-.08-3.88,2.22-1.69,5.3-.17,7.49-2C98.42,134.8,96.77,130.08,97.67,125.51Z" fill="#d6ac8e"/><path d="M103.61,525.48c-4.21-1.07-8.35-2.5-12.75-2.67-2.75-.88-5.53-.13-8.29-.15C95.21,512.5,109,504,122.43,495c3.28-2.19,6.7-4.19,10.06-6.27l.25-.16.22.2c.13,7.37-3.87,12.8-8.76,17.58C117.49,512.86,110.49,519.11,103.61,525.48Z" fill="#36b0b7"/><path d="M293,522.84l-12.37,2.25a245.59,245.59,0,0,1-22.2-20.33c-4-4.2-7.4-8.89-7.14-15.2a3.54,3.54,0,0,1,.44-.73c17.08,10.61,33.84,21.7,49.87,33.86C298.74,522.7,295.86,521.92,293,522.84Z" fill="#36b0b7"/><path d="M107.89,258.1a7,7,0,0,1-1-4c10.21-7.18,9.34-17.77,8.74-28.29-.8-14-2.76-27.94-1-42.06.78-6.2.33-12.61-.12-18.88-.18-2.5.32-3.35,2.6-3.57,3-.29,5.89-.66,8.84-1-7.52,4.93-7,12.67-7.13,20.22a342.09,342.09,0,0,0,1.68,40.72c1.27,12,1.34,24.21-3,35.89-.71,3-1.64,5.31-5.17,2.35C111.14,258.48,109.05,259.67,107.89,258.1Z" fill="#d6ac8e"/><path d="M247.64,478.83c-3.93-1.53-3.67-5.46-4.86-8.54-.7-1.81-1.3-3.66-1.94-5.49-1.7-3.14-.36-6.89-2-10,.13-7.87-2.49-15.55-1.63-23.47l9.86-21.68c1.64,1.54.07,3.62,1.35,4.94q0,32.15,0,64.31A.73.73,0,0,0,247.64,478.83Z" fill="#4f4f51"/><path d="M277.72,254.1a6.19,6.19,0,0,1-1.09,3.93l-10,3.51c0-1.48.26-3.08-.2-4.42-4.4-12.88-4.18-26-2.58-39.29,2-16.83,1.22-33.72.93-50.61,1-1.4,2.54-.9,3.91-.93,1.74,14.07,1.05,28.21,1,42.32,0,9.11-1,18.2-1.12,27.34C268.43,243.86,271.31,249.74,277.72,254.1Z" fill="#c69676"/><path d="M136,408l9.84,19.83c1.41,5,1.08,10.05.51,15.17-.51,4.54-1.85,9-1.11,13.69-2.42,2.67-.51,6.22-1.87,9.11-2.3,1.2-2,3.56-2.5,5.56-.82,2.94-1.07,6.31-4.79,7.41-.1-17.44-.23-34.89-.28-52.33C135.75,420.33,135.9,414.18,136,408Z" fill="#4f4f51"/><path d="M225.77,95.34c-.26-2.72,1-4.2,3.71-3.92,3.33.35,7.5-1.64,9.45,3a23.12,23.12,0,0,1,1.93,9.6c-.17,6.1-.07,12.21-.08,18.31q0,8.32.08,16.64l-.06,21c0,1.72,0,3.45-2.52,3.24q-.24-6.51-.49-13c.07-9.26.19-18.52.21-27.78,0-11.06,0-11.06-10.72-11.62a66.25,66.25,0,0,0-.3-7.33C226.57,100.8,228.47,97.71,225.77,95.34Z" fill="#e8e8e8"/><path d="M83.88,164.23c-.71,1.84,1,5.45-2.92,5-3.37-.42-8.17,2.67-9.6-3.67-.76-3.39-1.76-6.68-1.57-10.19l-.12-38.1,0-11.93A27.16,27.16,0,0,1,72.64,93q.18,8.65.37,17.32a1.2,1.2,0,0,0,0,.93c0,9.78-.1,19.57-.12,29.35s0,9.83,10.13,9.57Z" fill="#3b3a39"/><path d="M157.78,94.44c1.13,3.88,2.33,7.75,2.2,11.87v49a75.86,75.86,0,0,1-1.13,8.2c-.9,4.66-3.16,6.14-8,6-4.09-.11-5.63-1.24-5.22-5.16q.27-6.92.55-13.84c2.3-.09,4.61-.36,6.9-.22,2.81.16,3.75-.93,3.71-3.71-.19-11.86-.22-23.73-.3-35.59q.16-8.31.32-16.62l.48,0Z" fill="#3b3a39"/><path d="M296.69,122.21c.34-8.19-.73-16.44,1.71-24.54,2.07-6.89,7.28-8.67,13.21-4.12-1.14.87-.82,1.83-.18,2.8q-.21,7.2-.43,14.39c-2.65,0-5.3,0-7.95,0-1.68,0-3.05.35-3,2.38.28,12.38-.79,24.79.55,37.16L300.4,164l-.85.27a1.86,1.86,0,0,1-1.82-1.92c-.42-5.29-1.63-10.53-.31-15.89a9.66,9.66,0,0,0-.73-7.19A27.69,27.69,0,0,0,296.69,122.21Z" fill="#e8e8e8"/><path d="M311,110.74l.43-14.39h1.22l1.22,3.89c.06,1.74.11,3.49.17,5.24l.39,11.57a310.59,310.59,0,0,0-.1,39.19c0,.6,0,1.19,0,1.79a4.32,4.32,0,0,0-.55,3.27C311,170,311,170,300.81,169c-.13-1.68-.27-3.37-.41-5.05l.2-13.68c2.64,0,5.29-.1,7.93,0,2.06.05,3-.72,3-2.88C311.18,135.15,312.15,122.93,311,110.74Z" fill="#3b3a39"/><path d="M237.79,150.25q.26,6.51.49,13c-.64,1.94.84,5.14-1.37,5.75-2.91.81-6.76,1.12-9.22-.2s-2.29-5.5-3.24-8.43c.29-14.43.56-28.85-.16-43.27.06-3.56.11-7.12.17-10.68l-.17-1.33c0-.54,0-1.09-.07-1.63l.48-4.18,1.07-4c2.7,2.37.8,5.46,1.21,8.18a66.25,66.25,0,0,1,.3,7.33c-.12,9.47-.3,18.93-.35,28.4C226.88,150.13,226.93,150.13,237.79,150.25Z" fill="#3b3a39"/><path d="M272.33,95.41c-3.65,0-7.3-.11-10.93,0-2.64.11-3.8-.55-3.89-3.53-.2-6.56-.39-6.56,6.47-6.56,6.62,0,13.26.2,19.87-.08,4.86-.2,3.54,3.09,3.78,5.67.27,2.87-.21,4.8-3.87,4.55s-7.62-.06-11.43-.06Z" fill="#f9bf7a"/><path d="M114.4,95.41c-3,0-6,0-9,0-5.24,0-7.59-3.74-5.57-8.64.61-1.47,1.71-1.39,2.83-1.39,8,0,16,.09,24,0,4.33-.08,3.07,2.94,3.16,5.17.09,2.42.72,5.2-3.41,5s-8,0-12,0Z" fill="#f9bf7a"/><path d="M83.88,164.23,83,150.15q-.06-19.6-.11-39.2c.68-5.75-.83-11.62.86-17.33C87.37,100,86.7,107,86.71,113.89c0,2.79.14,5.59.22,8.39a37.74,37.74,0,0,0,0,16.85c-.08,6.12-.08,12.24-.29,18.34C86.57,160,87,162.88,83.88,164.23Z" fill="#bebdbd"/><path d="M216.59,153.47c-1.83-2.83-1.51-6.05-1.34-9.13.19-3.51-.37-5.88-4.68-5.14a1.13,1.13,0,0,1-1.34-1.09c2.19-.53,6,2.22,6.25-2.11.32-4.5,1-9.17-.69-13.63.92-4.79-.24-9.74,1.19-14.49a3.81,3.81,0,0,1,.8,3.69c-.87,4.77,1.22,6.56,5.77,6.15q0,12.89,0,25.75c-4.91-1.17-6.45,1-5.81,5.65A25.41,25.41,0,0,1,216.59,153.47Z" fill="#7a797a"/><path d="M168.83,139c-.49,5.31.35,10.73-1.27,16-.05.13-.18.31-.28.32s-.29-.12-.44-.2c.06-2-.05-3.94.2-5.87.59-4.58-.92-6.88-5.85-5.81-.1-6.57.12-13.16-.41-19.69-.4-4.84,1-7,6-6.5l1.8.2c.09,1.64.18,3.27.28,4.9Q168.83,130.68,168.83,139Z" fill="#7a797a"/><path d="M328.18,138.83c-4.49-.19-5.6,2.23-5.14,6.26.18,1.66.64,3.55-.61,5.12-1.16-3.25,0-8.74-6.57-6.78q0-12.9,0-25.78c4.64.53,6.58-1.38,5.73-6.08-.19-1-.26-2.33,1-3l1.08,13.85c-1.64,3.1-.43,6.48-.93,9.68C322.05,136.46,323.44,138.93,328.18,138.83Z" fill="#7a797a"/><path d="M146.21,150.49q-.28,6.91-.55,13.84c-2.67-1.64-2.58-4.34-2.62-7-.1-6.12-.14-12.24-.21-18.36a54.42,54.42,0,0,0,0-16.66c.05-5.24.29-10.49.09-15.72a26.61,26.61,0,0,1,2.94-13.14c1.9,5.7.07,11.62,1,17.38a4.63,4.63,0,0,0-.9,3.27Z" fill="#bebdbd"/><path d="M83.79,93.62c-1.69,5.71-.18,11.58-.86,17.33l-8.92,0-1-.6q-.2-8.65-.37-17.32C76.59,90.4,81.77,90.69,83.79,93.62Z" fill="#e8e8e8"/><path d="M86.94,139.13a37.74,37.74,0,0,1,0-16.85l7.89-.22c1,.2,2.17.11,2.65,1.34a1.68,1.68,0,0,0,.24,2l0,.07c-.9,4.57.75,9.29-.8,13.83L89,139.27Z" fill="#3b3a39"/><path d="M146.93,110.88c-1-5.76.88-11.68-1-17.38,3-3.94,6.5-2.28,10-.92.32.59.64,1.18,1,1.77q-.17,8.31-.32,16.62Z" fill="#e8e8e8"/><path d="M61.35,143.43c-.13-1.47-.27-2.93-.4-4.4q0-8.35,0-16.71,0-6,0-12c1.25.29,1.39,1.34,1.24,2.25-.81,4.73,1.8,5.47,5.58,4.94l.12,25.85Z" fill="#7a797a"/><path d="M296.69,122.21a27.69,27.69,0,0,1,0,17h-2.14l-1.84.07h-6l-.3-15A2.34,2.34,0,0,1,288.8,122,24.58,24.58,0,0,0,296.69,122.21Z" fill="#3b3a39"/><path d="M142.88,122.36a54.42,54.42,0,0,1,0,16.66l-5.8-.26c.91-5.19-.41-9.3-5.35-12-1.56-.84-3.06-2.22-1.85-4.45Z" fill="#3b3a39"/><path d="M240.86,139q0-8.32-.08-16.64l13.92.09a3.89,3.89,0,0,1-2.16,4.13c-5.06,2.71-6.45,7.06-5.86,12.39Z" fill="#3b3a39"/><path d="M166.76,117.24c-4.94-.53-6.38,1.66-6,6.5.53,6.53.31,13.12.41,19.69q-.13,5.91-.28,11.81l-.47,0H160v-49c2.32-.15,4.72-2.46,6.91.29C166.85,110.15,166.81,113.69,166.76,117.24Z" fill="#e8e8e8"/><path d="M214.79,122.37c1.71,4.46,1,9.13.69,13.63-.29,4.33-4.06,1.58-6.25,2.11,0-3.91-.07-7.83-.1-11.74,1-1.12.55-2.53.79-3.8Z" fill="#3b3a39"/><path d="M328.18,138.83c-4.74.1-6.13-2.37-5.44-6.77.5-3.2-.71-6.58.93-9.68l4.86.22c.36,1.9-.42,4,.69,5.77C328.8,131.85,330.59,135.55,328.18,138.83Z" fill="#3b3a39"/><path d="M60.94,122.32q0,8.36,0,16.71L59,138.94a1.3,1.3,0,0,0-2.16,0c-1.14.17-2.06,0-2.12-1.42a50.52,50.52,0,0,0,0-13.4C55.94,120.46,59,123.33,60.94,122.32Z" fill="#3b3a39"/><path d="M168.83,139q0-8.34,0-16.69l4.93.15,1,.84-.05,14.9-1,.68-1.81,0c-.4-.69-.79-.67-1.18,0Z" fill="#3b3a39"/><path d="M67.75,117.48c-3.78.53-6.39-.21-5.58-4.94.15-.91,0-2-1.24-2.25-.1-7,5.22-4.44,8.77-5l0,11.93Z" fill="#e8e8e8"/><path d="M222.55,117.72c-4.55.41-6.64-1.38-5.77-6.15a3.81,3.81,0,0,0-.8-3.69c1.09-5.17,5.24-1.34,7.66-2.6.27.38.54.77.82,1.15-.06,3.56-.11,7.12-.17,10.68Z" fill="#e8e8e8"/><path d="M322.59,108.53c-1.25.71-1.18,2-1,3,.85,4.7-1.09,6.61-5.73,6.07l-1.44-.58L314,105.49a1.58,1.58,0,0,0,.75-.15c1.79,0,3.57,0,5.35,0C322.43,105.3,322.83,106.65,322.59,108.53Z" fill="#e8e8e8"/><path d="M61.35,143.43l6.52-.1q-.06,6.39-.11,12.79c-4.48,1-6.24-1.2-6.34-5.35C61.37,148.33,61.37,145.88,61.35,143.43Z" fill="#3b3a39"/><path d="M222.55,117.72l1.74-.61c.72,14.42.45,28.84.16,43.27-1.54-1,.47-4.28-2.73-4.2,2-4.13.83-8.45.82-12.71Q222.54,130.6,222.55,117.72Z" fill="#a6a6a9"/><path d="M315.86,143.43c6.56-2,5.41,3.53,6.57,6.78.1,4.49-1.4,7.19-6.53,5.81Q315.89,149.72,315.86,143.43Z" fill="#3b3a39"/><path d="M315.86,143.43q0,6.28,0,12.59l-1.57.23a310.59,310.59,0,0,1,.1-39.19l1.44.58Q315.87,130.54,315.86,143.43Z" fill="#a6a6a9"/><path d="M67.76,156.12q0-6.39.11-12.79l-.12-25.85,1.92-.25.12,38.1Z" fill="#bebdbd"/><path d="M160.91,155.24l.28-11.81c4.93-1.07,6.44,1.23,5.85,5.81-.25,1.93-.14,3.91-.2,5.87C164.89,156.33,162.93,156.91,160.91,155.24Z" fill="#3b3a39"/><path d="M222.54,143.47c0,4.26,1.15,8.58-.82,12.71-2-.43-5.12,1.41-5.13-2.71a25.41,25.41,0,0,0,.14-4.35C216.09,144.51,217.63,142.3,222.54,143.47Z" fill="#3b3a39"/><path d="M82.57,522.66c2.76,0,5.54-.73,8.29.15a92.14,92.14,0,0,1-14.76,8.82A12.59,12.59,0,0,1,82.57,522.66Z" fill="#3b3a39"/><path d="M293,522.84c2.85-.92,5.73-.14,8.6-.15,3.25,2.15,5.73,4.81,6,8.95C302.65,528.87,297.57,526.28,293,522.84Z" fill="#3b3a39"/><path d="M100.93,163.29c-3.89.84-6.54-.94-8.53-4.08l-.66-3.68c.06-.76.11-1.52.17-2.27h0l12,10Z" fill="#d6ac8e"/><path d="M268.65,166.29c-1.37,0-2.87-.47-3.91.93-1.73-3-5.31-4-7.23-6.78,4-1.34,7.58,1.45,11.53,1.54C270.56,162,268.46,164.74,268.65,166.29Z" fill="#d6ac8e"/><path d="M166.76,117.24c.05-3.55.09-7.09.13-10.64,2.62,3.3,2.17,7.07,1.67,10.84Z" fill="#a6a6a9"/><path d="M54.77,124.1a50.52,50.52,0,0,1,0,13.4A45.94,45.94,0,0,1,54.77,124.1Z" fill="#7a797a"/><path d="M89,139.27l7.87.07c-2.19,1.83-5.27.31-7.49,2C89.25,140.65,89.13,140,89,139.27Z" fill="#dcbaa1"/><path d="M89.46,145.22c2.67,1.67,1.06,4.2,1.25,6.37C89.65,149.59,88.82,147.55,89.46,145.22Z" fill="#dcbaa1"/><path d="M329.22,128.37c-1.11-1.82-.33-3.87-.69-5.77C330.58,124.3,329.48,126.39,329.22,128.37Z" fill="#7a797a"/><path d="M314.79,105.34a1.58,1.58,0,0,1-.75.15c-.06-1.75-.11-3.5-.17-5.24C315.38,101.73,314.6,103.62,314.79,105.34Z" fill="#a6a6a9"/><path d="M312.65,96.36h-1.22c-.64-1-1-1.93.18-2.8C311.9,94.51,313.11,95.13,312.65,96.36Z" fill="#7a797a"/><path d="M300.4,164c.14,1.68.28,3.37.41,5.05-1.32-1.36-.63-3.24-1.26-4.78Z" fill="#7a797a"/><path d="M124.52,366.89c1.8.71,1.29,2.18,1.15,3.53A4,4,0,0,1,124.52,366.89Z" fill="#c69676"/><path d="M224.7,99.29l-.48,4.18C223.48,102,223.41,100.56,224.7,99.29Z" fill="#a6a6a9"/><path d="M209.92,122.57c-.24,1.27.2,2.68-.79,3.8C209,125,207.92,123.47,209.92,122.57Z" fill="#7a797a"/><path d="M125.92,160.32c0-1.65,1-2.07,2.46-2C127.85,159.31,127.29,160.31,125.92,160.32Z" fill="#d6ac8e"/><path d="M156.84,94.35c-.31-.59-.63-1.18-1-1.77,1.44-.2,2.17.32,1.89,1.86l-.46-.14Z" fill="#bebdbd"/><path d="M247.64,478.83a.73.73,0,0,1,.74,0,2.79,2.79,0,0,1,0,2.69Z" fill="#c69676"/><path d="M313.82,161.31a4.32,4.32,0,0,1,.55-3.27A2.52,2.52,0,0,1,313.82,161.31Z" fill="#a6a6a9"/><path d="M91.91,153.26c-.06.75-.11,1.51-.17,2.27a2.4,2.4,0,0,1-.83-2.27Z" fill="#dcbaa1"/><path d="M56.86,138.92a1.3,1.3,0,0,1,2.16,0Z" fill="#7a797a"/><path d="M294.45,143.25a1.09,1.09,0,0,1,0-1.94C294.42,142,294.43,142.6,294.45,143.25Z" fill="#dcbaa1"/><path d="M224.46,106.43c-.28-.38-.55-.77-.82-1.15a.52.52,0,0,1,.65-.18C224.34,105.54,224.4,106,224.46,106.43Z" fill="#a6a6a9"/><path d="M226.09,261h-1.66A1.27,1.27,0,0,1,226.09,261Z" fill="#3b3a39"/><path d="M174.78,123.33l-1-.84C174.5,122.29,174.86,122.54,174.78,123.33Z" fill="#7a797a"/><path d="M173.73,138.91l1-.68C174.72,138.94,174.42,139.21,173.73,138.91Z" fill="#7a797a"/><path d="M170.74,138.94c.39-.67.78-.69,1.18,0Z" fill="#7a797a"/><path d="M112.63,725.75l57.81-.24c2.49,0,5-.06,7.47-.09l27.92-.07q29.37.09,58.75.18c2.15,0,4.3.18,6.45.28q-.12,10.25-.25,20.49l-157.85.07Z" fill="#a6a6a9"/><path d="M270.78,746.3q.12-10.24.25-20.49l19.47-.32c.92,6.23.12,12.51.43,18.76,0,.4,0,.79,0,1.19-2.68,2.38-5.9,1-8.86,1.13C278.34,746.76,274.55,746.42,270.78,746.3Z" fill="#4f4f51"/><path d="M112.63,725.75l.3,20.62c-5.62.09-11.24.1-16.86.3-2.47.1-3.14-1-3.07-3.22.17-6,.2-11.9.29-17.85Z" fill="#4f4f51"/><path d="M317.46,751.29c5.13,6.3,11.58,7.91,19.43,6.21,3.31-.72,6.93-.1,10.39.09s6.27-.32,8.36-3.21c2.24,3.83-.46,5.89-3,7.65-6.58,4.48-23.81,4-30.2-.74C319,758.81,318.23,755.05,317.46,751.29Z" fill="#4f4f51"/><path d="M28,754.27c2.69,3,6,3.65,9.9,3.27a40.37,40.37,0,0,1,12.81.55c6.1,1.34,11-1.85,15.32-5.8-.36,6.31-3.83,10-9.81,11.4a43.43,43.43,0,0,1-19.67.55C30.18,762.85,27.76,759.92,28,754.27Z" fill="#4f4f51"/><path d="M309.74,719.39l.09-7.82c5,3.31,5.92,8.73,6.86,13.92,1.13,6.15.38,12.37-.86,18.49-.49-2.36-1.42-4.63-.95-7.16.8-4.32-3.93-5.35-5.21-8.46v-1c0-1.67,0-3.34,0-5v-1C309.7,720.72,309.72,720.06,309.74,719.39Z" fill="#4f4f51"/><path d="M73.94,711.31l.27,8c-.54,5,1.21,10.48-4.46,14.25-1.87,1.23-.86,4.94-1,7.55C64.53,735.16,67.21,716,73.94,711.31Z" fill="#4f4f51"/><path d="M309.67,721.39v1a4.79,4.79,0,0,1-.37-.71S309.54,721.48,309.67,721.39Z" fill="#fff"/><path d="M309.66,727.38c0,.33,0,.65,0,1a4.68,4.68,0,0,1-.37-.7S309.53,727.48,309.66,727.38Z" fill="#fff"/><path d="M291,745.44c0-.4,0-.79,0-1.19a4.66,4.66,0,0,1,.31.83C291.26,745.18,291.06,745.32,291,745.44Z" fill="#a6a6a9"/><path d="M65.9,752.39c-.06-.68.33-.91.94-.92Z" fill="#4f4f51"/><path d="M286.72,265.08c3.6-.16,4.38-4.83,8-5-1.64,19.67-.66,39.55-5.85,58.94-3.13,11.67-9.51,20.84-18.28,28.68a66.65,66.65,0,0,0-11.09,12.64c-.74-5.66-2.19-11-1.76-16.59.37-2.6,2.54-3.86,4.2-5.38,14.05-12.87,21.92-29,24.57-47.61A107.15,107.15,0,0,0,286.72,265.08Z" fill="#d6ac8e"/><path d="M215.36,291.62c8.2,3.39,16.88,5.72,24.11,11.2,1.44,1.09,3.23,1.82,3.22,4l-11,7.42L214,307.8c-.08-4.88,1.53-9.69.6-14.6,0-.42,0-.84.07-1.27A2.83,2.83,0,0,1,215.36,291.62Z" fill="#181818"/><path d="M249.8,347.87a56,56,0,0,1-11.55,21c2.22-17.48,6.36-34.59,9.94-51.83C248.51,327.39,249.3,337.62,249.8,347.87Z" fill="#be8b6b"/><path d="M214,307.8l17.76,6.47c-7.18,6.24-16.2,9.24-24.3,13.87-1.82,1-3.76,1.88-5.64,2.81l-1-1a7,7,0,0,1,4.23-3.06c3.58-1.19,7.19-2.71,7.7-7.28C213.13,315.65,213.53,311.73,214,307.8Z" fill="#d6ac8e"/><path d="M200.77,329.92l1,1c-2.91,2.81-7,4.56-8.09,9l-.87-1.9c0-.36,0-.72,0-1.08C194.53,333.58,196.62,330.59,200.77,329.92Z" fill="#c69676"/><path d="M312.58,704.36c-2.1-18-2.37-36.24-8.46-53.71-6.28-18-9-36.58-6.79-55.77.56-4.9,1.69-10.17-.85-15l1.41-1.29c5.36,1.72,7.22,6.86,9.44,11,9.32,17.31,11.85,36.2,12.55,55.66.48,13.34,1.27,26.71,2.1,40,.43,7-.48,14.24,1.68,21.14-2.52.27-5.06-.51-7.56,1C312.77,709.28,314.34,704.69,312.58,704.36Z" fill="#d6ac8e"/><path d="M297.89,578.54l-1.41,1.29c-7.64-3.27-15.18-6.83-23.68-7.31-5-3.14-10.91-3.38-16.39-4.93-3.6-1-4.85-2.87-4.53-6.35.54-6,1.79-11.71,5.48-16.64,12.63,3.65,23.83,9.64,32.61,19.68a61,61,0,0,0,4.69,4.39A23,23,0,0,1,297.89,578.54Z" fill="#be8b6b"/><path d="M87.21,580a7.88,7.88,0,0,0-1.07,5.73c2.65,24.81.32,48.9-8.73,72.42-3.49,9.08-3.09,19.24-4.4,28.92-.77,5.73-1.22,11.51-1.81,17.27-.52,2.53-.72,5.39-4.43,2.39-.86-.7-2.55-.36-3.87-.5-4.17-1.86-2-5.58-1.66-8a80.22,80.22,0,0,0,.69-11.86c0-17,1.45-34.06,2.39-51,.92-16.71,4.43-33.41,13.84-48,2.07-3.2,3.69-7,7.6-8.73Z" fill="#d6ac8e"/><path d="M87.21,580l-1.45-1.41C86.12,575,88,572,89,568.73c3.93-3.68,7.77-7.46,11.81-11,5.76-5.1,12.83-7.92,19.77-11,1.92-.84,4.07-1.43,5.46-3.23,5,6.79,6.5,14.47,5.78,22.71-6.85,2.45-14.29,2.93-20.89,6.22C102.46,573.13,94.89,576.71,87.21,580Z" fill="#be8b6b"/><path d="M103.87,163.22l-12-10c0-7.44.39-7.88,7.87-6.92,2.77.36,5.48,1.19,8.21,1.8v.08c-.09,1.36.6,2,1.91,2a2,2,0,0,0,1.95.92C112.12,157.14,108,160.16,103.87,163.22Z" fill="#dcbaa1"/><path d="M111.85,151.18a2,2,0,0,1-1.95-.92,3.34,3.34,0,0,0-1.91-2v-.08c.07-2.7-1.81-4.14-3.66-5.56-.89-.69-2.39-1-1.9-2.5a3.5,3.5,0,0,1,2-2c2-.49,1.2,1.47,1.61,2.33.67,1.41,1.89,2.28,3.17,1.83,4-1.41,7.79.54,11.68.08C117.35,144.69,113.46,146.77,111.85,151.18Z" fill="#be8b6b"/><path d="M120.89,142.32v-3.95c1.78-.83,2.65,1.44,4.16.92.19.41.38.51.57,0l3.27-.05C127.25,142.94,123.23,140.45,120.89,142.32Z" fill="#be8b6b"/><path d="M97.71,125.44a1.68,1.68,0,0,1-.24-2Z" fill="#d6ac8e"/><path d="M264.73,143.27c3-1.1,5.39-3.45,9.29-1.29,3,1.66,3.57-2.12,4.31-4.42,3.13,1.63,3.94,3.14,1.14,5.54-1.81,1.56-4.05,3.05-3.86,6l0,.1a1.71,1.71,0,0,0-1.81,1.12l-1.1,1C270.7,148,268.33,145,264.73,143.27Z" fill="#be8b6b"/><path d="M145.21,456.73c-.74-4.65.6-9.15,1.11-13.69.57-5.12.9-10.15-.51-15.17,3.26-4.47,1.59-9.95,3-14.81a26.7,26.7,0,0,0,.46-3.93c1.22-9.46,4.78-16.06,15.79-17.5,6.86-.89,13.53-4.15,19.46-8.43,2.93-2.11,4-5.78,7.26-7.39a29,29,0,0,1,7,7.12c-6.95,0-6.95,0-6.94,7,0,1.62,0,3.24,0,4.87-11.67,6.7-23.49,12.7-38.21,7.7,1.33,1.84,2.33,3.12,3.23,4.46,4.74,7.06,4.47,6.45,12.62,3.05,7.36-3.07,15.27-7,23.31-1.12-1.31,3.55-1,7.24-1,10.91-10,6.14-20.3,10.56-32.21,7.2,2.12,9.27,5.72,10.33,12.93,7.29,6.25-2.64,13-5.59,20.23-2.46-2,5.54-.56,11.27-.94,16.9-3.86,4.39-9.07,3.27-13.85,3s-9.81,1.56-14.23-2.19c-1.8-1.51-2.2.75-1.81,1.95,2.57,7.77,4,15.92,7.88,23.25a47.25,47.25,0,0,1-16.19-3.64C151.62,465.86,149.46,460.68,145.21,456.73Z" fill="#d6ac8e"/><path d="M237.19,431.3c-.86,7.92,1.76,15.6,1.63,23.47-3.48,4.88-5.84,10.32-8.13,15.8-4.79,3.37-10.54,3-15.91,4.16,1.22-3.24,2.72-6.39,3.05-9.9,1-3.3,2.2-6.56,3-9.9.51-2.06,2.64-4,.86-6.37,2-4.89,3.08-9.78.05-14.68.35-2.05,3.39-3.68,1-6.16,2.72-4.8,4.29-9.69,1.05-14.91.83-3.52,5.53-5.49,4-10,1-2.25,2-4.48,2-7,4,3.84,3.7,9.24,4.88,14C236.41,416.9,236.68,424.13,237.19,431.3Z" fill="#d6ac8e"/><path d="M229.8,395.85c0,2.52-1.06,4.75-2,7a13,13,0,0,1-12.33,1c-7.83-3.11-17-2.76-23.58-9.12,0-1.62,0-3.24,0-4.86,0-7,0-7,6.94-7,8.27,5.19,17.35,8.4,26.71,10.88C227.08,394.23,228.68,394.47,229.8,395.85Z" fill="#dcbaa1"/><path d="M136,304l4.68,2.28c4.13,3.1,7.94,6.73,13.13,8.11a49.22,49.22,0,0,0,18,10l0,.48a6,6,0,0,0,4.07,2.17l-.05,0c.75,1.12,1.9,1.06,3,1l0,0,1,1,0,0c.08.15.11.38.23.43,9.48,4.38,10.88,12.34,9.91,21.6-.42,4-.06,8-.08,12-.07,10.27-6.6,17.27-16.83,17.8-4.65.24-9.32.21-14,.09-5.63-.14-11.6-6.48-13.18-14.4-3.14-15.75-6-31.56-9-47.33a10.19,10.19,0,0,0-1-2.19c-.36-4.16-.73-8.31-1-12.47C134.81,304.34,135.6,304.14,136,304Z" fill="#dcbaa1"/><path d="M124.89,361c-3.44-5.74-8.26-10.31-13.22-14.6C100.2,336.44,95.44,323.21,93,309a244.29,244.29,0,0,1-3.11-47.88c3.14-.07,3.89,4.06,7,4,0,10.4-.8,20.88,1.29,31.13,2.54,12.42,7.51,23.75,15.83,33.63,3.83,4.55,8.44,8.37,11.86,13.26A94.43,94.43,0,0,1,124.89,361Z" fill="#d6ac8e"/><path d="M257.36,544.6c-3.69,4.93-4.94,10.66-5.48,16.64-.32,3.48.93,5.33,4.53,6.35,5.48,1.55,11.38,1.79,16.39,4.93-7,2.51-14,4.29-20.93-.17-.23-.73-.82-.87-1.48-.9l-.1.14-2.55-1,.07,0a1.87,1.87,0,0,0-2.06-1l.08,0c-.88-1.81-2.8-2.18-4.33-3.05q-19.31-11-38.67-22c-3.35-31,26.82-50,48.47-55-.26,6.31,3.1,11,7.14,15.2a245.59,245.59,0,0,0,22.2,20.33C273,528.88,265.48,533,260.21,540,259.14,541.46,258.31,543.07,257.36,544.6Z" fill="#181818"/><path d="M202.83,544.57q19.35,11,38.67,22c1.53.87,3.45,1.24,4.33,3.05l-108,0c1.71-1.89,4-2.84,6.19-4.06l36.82-20.95,10.9-1.36Z" fill="#7a797a"/><path d="M217.83,464.83c-.33,3.51-1.83,6.66-3.05,9.9-7.49,2.19-15.34,1.68-22.95,3l.09-.38c0-4.44-.13-8.88-.09-13.32,0-4.6-1-9.47,3-13.21,6.23,2.14,12.65.59,19,.94Z" fill="#c69676"/><path d="M230.69,470.57c2.29-5.48,4.65-10.92,8.13-15.8,1.66,3.14.32,6.89,2,10C239,469.45,234.81,469.94,230.69,470.57Z" fill="#be8b6b"/><path d="M180.84,544.6,144,565.55c-2.15,1.22-4.48,2.17-6.19,4.06l0,0a2.08,2.08,0,0,0-2.06,1l.05-.05c-1,.12-1.88.35-2.14,1.5l-2.89.48a13.32,13.32,0,0,1,1-6.33c.72-8.24-.79-15.92-5.78-22.71-5.12-9-13.29-14.09-22.44-18,6.88-6.38,13.88-12.63,20.59-19.17,4.89-4.78,8.89-10.21,8.76-17.58,10.67,4.11,21.09,8.62,30.06,16C175.6,515.12,182.32,528,180.84,544.6Z" fill="#3b3a39"/><path d="M194.8,450.81c-4,3.74-2.93,8.61-3,13.21,0,4.44.06,8.88.09,13.32-7.61,1.25-14.74-1.56-22.08-2.59-3.87-7.33-5.31-15.48-7.88-23.25-.39-1.2,0-3.46,1.81-1.95,4.42,3.75,9.47,2,14.23,2.19s10,1.36,13.85-3Z" fill="#be8b6b"/><path d="M145.21,456.73c4.25,3.95,6.41,9.13,8.44,14.38-3.84-1-7.62-2.05-10.31-5.27C144.7,463,142.79,459.4,145.21,456.73Z" fill="#be8b6b"/><path d="M171.77,324.86l0-.48c-.67-5.47-.42-11.06-2-16.41l-.8-13.89c2.21.55,2.91,2.58,3.92,4.2,6.35,10.22,12.62,20.49,18.92,30.74l-.18,7.08c-3.82-2.6-6.51-7.08-11.87-7.11l0,0-1-1,0,0c-.71-1.24-1.92-1-3-1l.05,0C175.55,324.29,173.3,325.25,171.77,324.86Z" fill="#d6ac8e"/><path d="M191.66,336.1l.18-7.08c1-1.46,2.15-2.89,3.12-4.4,6.67-10.39,12.39-21.37,19.59-31.42.93,4.91-.68,9.72-.6,14.6-.42,3.93-.82,7.85-1.25,11.78-.51,4.57-4.12,6.09-7.7,7.28a7,7,0,0,0-4.23,3.06c-4.15.67-6.24,3.66-8,7.06l-1.06,0C191.72,336.72,191.69,336.41,191.66,336.1Z" fill="#e1c3af"/><path d="M191.76,337l1.06,0c0,.36,0,.72,0,1.08Z" fill="#d6ac8e"/><path d="M273.82,150.31a1.71,1.71,0,0,1,1.81-1.12C275.34,150.05,274.61,150.23,273.82,150.31Z" fill="#d6ac8e"/><path d="M215.36,291.62a2.83,2.83,0,0,0-.74.31c-7.19,2-14.38,4.07-21.27-.95-.35-.26-.94-.21-1.42-.31l-.09-51.35c4.66.68,9.48.5,13.71,3.13,5,3.1,9.17,6.51,8.67,13.26-.28,3.89,1.56,7.41,2.81,11l.36,1.3-.3,4.41-1.2,16.78Z" fill="#e1c3af"/><path d="M215.89,289.2l1.2-16.78,3.68-1.5,1.91.33,1,.11-.08-.24c.16.94.31,1.88.46,2.82-.41,3.44-.09,7-1.83,10.22C220.8,286.75,219.11,288.9,215.89,289.2Z" fill="#d6ac8e"/><path d="M224,273.94c-.15-.94-.3-1.88-.46-2.82C225.05,271.85,225,272.82,224,273.94Z" fill="#3b3a39"/><path d="M223.66,271.36l-1-.11C223.09,270.57,223.45,270.32,223.66,271.36Z" fill="#3b3a39"/><path d="M191.84,239.32l.09,51.36c-7.4,4.21-15,3.86-22.81,1.22l-.42.17c.36-1.2-.52-2.06-.86-3.06q-.51-8.49-1-17a15.66,15.66,0,0,1,1.49-9.17,15.71,15.71,0,0,0,1.35-4.73C171,245.54,178.76,238.89,191.84,239.32Z" fill="#d6ac8e"/><path d="M169,294.08q.41,6.94.8,13.89c-5.4,1.94-11.15,3-16,6.38-5.19-1.38-9-5-13.13-8.11,4.56-5.75,11.43-7.8,17.66-10.76,3.23-1.54,6.56-3.28,10.34-3.41l.42-.17Z" fill="#181818"/><path d="M166.83,272.05q.51,8.47,1,17c-5.61-.48-6.38-5-7.34-9.11-.77-3.24-1.8-6.92,2.37-9C164.26,271,165.28,272.44,166.83,272.05Z" fill="#be8b6b"/><path d="M286.73,139.29h6A4.57,4.57,0,0,1,286.73,139.29Z" fill="#dcbaa1"/><path d="M217.39,268l-.36-1.3Z" fill="#d6ac8e"/><path d="M125.62,139.3c-.19.5-.38.4-.57,0A1.22,1.22,0,0,0,125.62,139.3Z" fill="#e1c3af"/><path d="M237.79,150.25c-10.86-.12-10.91-.12-10.86-11,0-9.47.23-18.93.35-28.4,10.71.56,10.74.56,10.72,11.62C238,131.73,237.86,141,237.79,150.25Z" fill="#7a797a"/><path d="M74,110.9l8.92,0q0,19.61.11,39.2c-10.11.26-10.14.26-10.13-9.57S73,121,73,111.23Z" fill="#7a797a"/><path d="M74,110.9l-1,.33a1.2,1.2,0,0,1,0-.93Z" fill="#bebdbd"/><path d="M146.93,110.88l9.59.09c.08,11.86.11,23.73.3,35.59,0,2.78-.9,3.87-3.71,3.71-2.29-.14-4.6.13-6.9.22L146,114.15A4.63,4.63,0,0,1,146.93,110.88Z" fill="#7a797a"/><path d="M311,110.74c1.15,12.19.18,24.41.51,36.61.06,2.16-.92,2.93-3,2.88-2.64-.06-5.29,0-7.93,0-1.34-12.37-.27-24.78-.55-37.16-.05-2,1.32-2.4,3-2.38C305.7,110.76,308.35,110.74,311,110.74Z" fill="#7a797a"/><path d="M205.83,725.35l-27.92.07.15-104c4.83-2,7.58-6.31,11-9.79,4.72-4.82,10.42-8.77,13.81-14.84l3-.13Z" fill="#bebdbd"/><path d="M205.86,596.69l-3,.13-25.08-.2q-17.31-.09-34.6-.2c-5.94,0-8.23-1.9-9.68-7.67-.06-.46-.13-.91-.2-1.37q.27-7.39.53-14.78c1.44.08,2-.69,2-2l-.05.05c.88,0,1.68-.09,2.06-1l0,0,108,0-.08,0c.38,1,1.19,1.05,2.06,1l-.07,0c.54,1.09,1.52,1.13,2.55,1l.11-.14c.06.2.11.39.15.59,0,5,.11,9.91,0,14.87-.07,6.4-3.1,9.44-9.46,9.51C229.38,596.55,217.62,596.6,205.86,596.69Z" fill="#4f4f51"/><path d="M250.55,572c0-.2-.09-.39-.15-.59.65,0,1.24.17,1.47.9Z" fill="#7a797a"/><path d="M177.78,596.62l25.08.2c-3.39,6.07-9.09,10-13.81,14.84-3.41,3.48-6.16,7.84-11,9.79Q177.93,609,177.78,596.62Z" fill="#a6a6a9"/><path d="M131.83,566.21a13.32,13.32,0,0,0-1,6.33l-.06,0-.91.68c-6.48,3.61-12.7,1.27-18.93-.82C117.54,569.14,125,568.66,131.83,566.21Z" fill="#181818"/><path d="M135.87,570.56c0,1.35-.6,2.12-2,2l-.25-.23.15-.31C134,570.91,134.89,570.68,135.87,570.56Z" fill="#7a797a"/><path d="M133.3,587.38c.07.46.14.91.2,1.37A.89.89,0,0,1,133.3,587.38Z" fill="#a6a6a9"/><path d="M129.87,573.25l.91-.68Z" fill="#3b3a39"/><path d="M169,294.08l.12-2.18c7.77,2.64,15.41,3,22.81-1.22a3.66,3.66,0,0,1,1.42.3c6.89,5,14.08,3,21.27.95,0,.43-.05.85-.07,1.27-7.2,10.05-12.92,21-19.59,31.42-1,1.51-2.08,2.94-3.12,4.4-6.3-10.25-12.57-20.52-18.92-30.74C171.91,296.66,171.21,294.63,169,294.08Z" fill="#be8b6b"/><path d="M108,148.21a3.34,3.34,0,0,1,1.91,2C108.59,150.21,107.9,149.57,108,148.21Z" fill="#d6ac8e"/><path d="M223.78,412.81c3.24,5.22,1.67,10.11-1.05,14.91-11.36,1.49-21.52-1.66-30.89-7.94,0-3.67-.34-7.36,1-10.91,3.25-4.29,7.45-2.94,11.76-2.27C211.34,407.65,216.89,412.27,223.78,412.81Z" fill="#dcbaa1"/><path d="M194.8,450.81l-3-2.1c.38-5.63-1-11.36.94-16.9a3.25,3.25,0,0,1,4.17-1.74c4.91,1.35,9.89,2.53,14.69,4.22,3.56,1.26,6.85,2.32,10.12-.41,3,4.9,2,9.79-.05,14.69-2.53,1.35-4.84,3.27-7.95,3.18C207.45,451.4,201,453,194.8,450.81Z" fill="#dcbaa1"/><path d="M223.78,412.81c-6.89-.54-12.44-5.16-19.21-6.21-4.31-.67-8.51-2-11.76,2.27-8-5.89-15.95-1.95-23.31,1.12-8.15,3.4-7.88,4-12.62-3.05-.9-1.34-1.9-2.62-3.23-4.46,14.72,5,26.54-1,38.21-7.7,6.57,6.35,15.75,6,23.58,9.11a13,13,0,0,0,12.33-1C229.31,407.32,224.61,409.29,223.78,412.81Z" fill="#c69676"/><path d="M221.77,433.88c-3.27,2.73-6.56,1.67-10.12.41-4.8-1.69-9.78-2.87-14.69-4.22a3.25,3.25,0,0,0-4.17,1.74c-7.2-3.13-14-.18-20.23,2.46-7.21,3-10.81,2-12.93-7.29,11.91,3.36,22.24-1.06,32.21-7.2,9.37,6.28,19.53,9.43,30.89,7.94C225.16,430.2,222.12,431.83,221.77,433.88Z" fill="#c69676"/><path d="M213.77,451.75c3.11.09,5.42-1.83,7.95-3.18,1.78,2.38-.35,4.3-.86,6.36-.83,3.34-2,6.6-3,9.9Q215.79,458.29,213.77,451.75Z" fill="#be8b6b"/><path d="M153.83,314.35c4.82-3.39,10.57-4.44,16-6.38,1.6,5.35,1.35,10.94,2,16.41A49.22,49.22,0,0,1,153.83,314.35Z" fill="#be8b6b"/><path d="M171.77,324.86c1.53.39,3.78-.57,4.07,2.17A6,6,0,0,1,171.77,324.86Z" fill="#be8b6b"/><path d="M175.79,327c1.12,0,2.33-.21,3,1C177.69,328,176.54,328.1,175.79,327Z" fill="#be8b6b"/><path d="M178.79,328l1,1Z" fill="#be8b6b"/><path d="M247.81,570.59c-.87,0-1.68-.08-2.06-1A1.87,1.87,0,0,1,247.81,570.59Z" fill="#7a797a"/><path d="M250.29,571.59c-1,.1-2,.06-2.55-1Z" fill="#7a797a"/><path d="M137.88,569.57c-.38.95-1.18,1.07-2.06,1A2.08,2.08,0,0,1,137.88,569.57Z" fill="#7a797a"/></g></g></svg>