<svg xmlns="http://www.w3.org/2000/svg" viewBox="0 0 244.02 635.48"><title>ex_d2_3_2</title><g id="Layer_2" data-name="Layer 2"><g id="Layer_1-2" data-name="Layer 1"><path d="M86.16,303.85c6.48,13.14,12.5,25.31,18.47,37.49,1.9,3.88,3.59,7.86,5.58,11.68,1.14,2.19.79,3.51-1.62,4-17.65,3.64-35.31,7.23-53.31,10.91.4-3.65,2.28-6.26,3.74-8.94,1.89-3.47,1.46-5.6-2.13-7.63a115.6,115.6,0,0,1-35.16-30.42A103.36,103.36,0,0,1,.37,264.06c-.68-9.76-.66-19.6,2.08-29.25,1.32.53,1.28,1.75,1.49,2.77,7.71,37.77,30.35,63.31,65,78.84,8.94,4,9.06,3.71,13.48-5.25C83.44,309.1,84.52,307.05,86.16,303.85Z" fill="#f9bf7a"/><path d="M212.59,568.06c.81,5.74-1.15,11.34-.85,17.05-1.57,4-2.84,8.08-8.23,8.61-9,.89-16.4-3.14-20.75-11.61,1.52-29.23-.59-58.35-2.57-87.49-.62-9.11-.8-18.24-1.18-27.37,2.36-3.85,2.86-8.4,4.69-12.45,2.46-5.42,3.74-5.86,7.56-1.55C202.55,466,207.33,481.71,208.63,498c1.51,19,.94,38.09,1.27,57.14a6.21,6.21,0,0,0,0,2C211.4,560.64,209.32,565,212.59,568.06Z" fill="#ddbba1"/><path d="M212.59,568.06c-3.27-3-1.19-7.42-2.65-10.93a6.21,6.21,0,0,1,0-2c-.33-19,.24-38.18-1.27-57.14-1.3-16.3-6.08-32-17.37-44.76-3.82-4.31-5.1-3.87-7.56,1.55-1.83,4.05-2.33,8.6-4.69,12.45-1-6.32-3.87-12-6.85-17.47-4.56-8.39-4.44-17.47-5-26.52,4.93,0,9.31-2.21,13.74-3.89,7.51-2.85,15.38-5,21.83-10.18l6-1.95c-1,14.95,1,29,7.84,42.84,9.66,19.54,10.68,40.39,4.95,61.62A284.78,284.78,0,0,0,212.59,568.06Z" fill="#d6ad8f"/><path d="M146.07,20.92c-3.94-6.35-4.28-11.91-.75-16.1,1.52-1.79,2.87-3.95,6.13-1.88,2,1.28,4.82-.11,7.26-.42,9.84-1.23,19.54-3.81,29.63-1.75,14.16,2.89,23.2,13.21,23.9,27.78.57,12-3.39,22.81-8.73,33.26-7.48,1-7.47,1-7.51-6.21,0-2.27.36-4.63-1.15-6.66.28-6.23-1.88-9.67-6.29-10.07s-6.85,2.13-8.05,8.07a14,14,0,0,0-.45,2.45c0,3.74-2.73,3.23-4.95,3-2.81-.33-1.1-2.52-1.37-3.93-.73-3.89,3-8.7-1.39-11.64-5.34-3.57-5-8.21-4.11-13.39.29-1.63.36-3.3.7-4.92.66-3.17-.46-3.76-3.64-3.69C158.2,15,152.35,18.51,146.07,20.92Z" fill="#312823"/><path d="M146.07,20.92c6.28-2.41,12.13-6,19.23-6.12,3.18-.07,4.3.52,3.64,3.69-.34,1.62-.41,3.29-.7,4.92-.94,5.18-1.23,9.82,4.11,13.39,4.39,2.94.66,7.75,1.39,11.64.27,1.41-1.44,3.6,1.37,3.93,2.22.25,4.93.76,4.95-3a14,14,0,0,1,.45-2.45c1.2-5.94,3.72-8.47,8.05-8.07s6.57,3.84,6.29,10.07c-2.6,5.4-6,9.84-12.39,11.06-2.05.39-2.22,2.19-2.43,3.86l-4.11,13.87-20.15,6.2c-1.5,0-3,0-4.49-.05-4.28-.22-6.77-1.69-7.48-6.7-2.53-17.93-2.4-35.67,2-53.29A17.17,17.17,0,0,0,146.07,20.92Z" fill="#e0c3af"/><path d="M234.85,169.75c.3,19.35-4.64,37.54-11.53,55.47a114.23,114.23,0,0,0-7.68,43.61,207.41,207.41,0,0,1-5.78,27,252.89,252.89,0,0,0-8.05,34.69c-.66,0-1.33,0-2-.06-4.21-.32-6.18-1.56-5-6.68,2.68-11.91,6.17-23.63,7.92-35.75,1.27-8.82,3.25-17.54,3.23-26.52,0-10.31,3-20.18,5.14-30.11,1.58-7.35,5.51-14.13,7.78-21.42,4-13.05,6.67-26.27,6-40-.1-2.29-.13-3.25-3.09-2-4.05,1.78-7.21,5.4-11.91,5.77-.2-1.81.82-3,1.8-4.41,3.23-4.56,6.77-9,8.19-14.58,1.47-4.16,3.05-8.26,3.48-12.75,1.14-12.07-.25-19.21-10.55-25.91-2.06-1.33-4-2.89-5.93-4.35,2.3-1.61,4.71-1,7.11-.33,17.31,5.13,22.7,23.75,20.2,35.95C232.68,154.85,233.32,162.33,234.85,169.75Z" fill="#d6ad8f"/><path d="M132.13,160.83c0-6.56,3-12.16,6.25-17.45,5.16-8.42,10.81-16.55,16.47-24.64,3.29-4.69,8.19-7.5,13.26-9.95,7,.59,13.9-1,17.12-7.34s7.39-12,11.69-17.54a8,8,0,0,1,4.83-1.12l1.16-.86,2,.11a7.23,7.23,0,0,0,2.64,5.65C211,90.65,213,95,212.39,99s-5.45,4.7-9,5.92c-1.24.42-2.59.57-3.83,1-2,.72-4.08,1.45-4.61,3.94-8.34,4.09-14.76,10-18,19-2.37,2.39-2.7,5.48-3.08,8.61-1.46,12.05-11.18,21.91-23,24.5C144.38,163.36,138.21,164.42,132.13,160.83Z" fill="#e0c3af"/><path d="M182.76,582.11c4.35,8.47,11.77,12.5,20.75,11.61,5.39-.53,6.66-4.62,8.23-8.61,3.67.74,5.41,3,5.1,6.7-.25,2.88.88,5.53,1,8.32q0,3.6,0,7.2c-2.48,2.38-5.5,4.31-8.82,4.14-13.11-.69-25.56,2.53-38.06,5.68a18.25,18.25,0,0,1-4.95.41c-13.17-.47-26.58-.33-35.2-13,.39-2.34,3-2,4.15-3.44,4.4-2,9.1-2.41,13.79-3.23A58.37,58.37,0,0,0,177,584.43C178.79,582.92,180.44,581.86,182.76,582.11Z" fill="#d8d6e9"/><path d="M217.86,607.33q0-3.6,0-7.2c6,1.83,12.08,3.27,17,7.78,5.52,5.11,4.76,12.19-1.84,16-10.4,6-22,8.14-33.54,10a140.2,140.2,0,0,1-34.78.84C150,633.5,135,632.36,121.73,624.44c-9-5.41-9.43-12.69-.59-18.36,4.18-2.69,8.41-5.62,13.84-5-1.13,1.45-3.76,1.1-4.15,3.44-3.21,4.29-2.26,8.71,3.14,11.62,14.34,7.73,29.86,9,45.43,5.85A82.4,82.4,0,0,1,204,620.36a28.79,28.79,0,0,0,5.94-.14C218.5,619.2,220.65,615.63,217.86,607.33Z" fill="#eaebe5"/><path d="M162.6,412.43l-6.4-.73-2.28-29.26c1.72-3,3.43-5.74,3.26-9.61-.4-8.71-.12-8.72,8.69-9.24l.48.11.48-.09,0,0c.31,4.62,3.12,6.6,7.42,6.83,3.93.2,7.88.23,11.82.33l3.42,39.95C180.59,412.58,171.56,412,162.6,412.43Z" fill="#31afb6"/><path d="M139.36,225.6c-.13-.64-.25-1.29-.37-1.94.37-2.51,2-1.06,3-.79,3.18.89,6.25,2.18,9.45,3,2.75.71,6,.56,7.78-1.49s.83-5.08-.62-7.43c-4.93-8-13-10.53-21.56-12.27-.1-1.21-.19-2.42-.28-3.63.3-.9.32-2.13,1.87-1.48,3.64,1.54,7.61,2.36,10.73,5,2.06,1.77,4.79,4.6,6.93,3.28,2.86-1.76,1.73-5.54,1.06-8.72a12.35,12.35,0,0,0-3.26-5.94c-5.21-5.76-12.33-7.92-19.22-10.53l.15-2c7.7,1.28,14.25,4.72,20.32,9.65,5.7,4.63,9.81,10.71,15.27,15.51,1.63,1.44,3,3.19,5.5,2.77,1.14,6.72,2.26,13.44,3.41,20.15.67,3.94,2.78,7.81.51,11.87-2.6-1.43-4.78.11-6.66,1.38-3.94,2.65-7.62,5.68-11.41,8.55a2.14,2.14,0,0,0-1,2h0c-7.36,2.57-14.43,6.29-22.56,6-1.18-5.29-.56-10.58-.06-15.87a39.22,39.22,0,0,0,12.77.85c4-.29,7.14-2.65,7.6-6.51s-2.5-7.22-6.05-8.09C148.23,227.89,143.78,226.81,139.36,225.6Z" fill="#d6ad8f"/><path d="M137.46,307.56a196.54,196.54,0,0,1-.12-22c1.43-1.95.81-4.21.73-6.28-.11-2.7,1-4.1,3.5-4.4a141.25,141.25,0,0,0,22.28-4.8c1.83-.53,2.9-.38,3.22,1.65-1.35,4.44-2.77,8.85-4,13.31-4.29,15.21-6.26,30.82-8.12,46.45-1.13,0-2.29.14-3.15-.85l-.75-1.57-.94-.29c-4,.41-7.93.89-11.85-.37l-.26-9.89C138.07,314.87,138.73,311.17,137.46,307.56Z" fill="#1c1c1c"/><path d="M201.81,330.51a252.89,252.89,0,0,1,8.05-34.69,207.41,207.41,0,0,0,5.78-27q18,27.14,10.28,58.75a6.91,6.91,0,0,1-2.09,1.13c-9.06,1.2-11.45,3.87-11.51,12.85,0,2.65-.18,5.29-.28,7.94l-7.1,0A80.88,80.88,0,0,0,201.81,330.51Z" fill="#1c1c1c"/><path d="M189.46,410.68,186,370.73c2.46-.07,4.94-.32,7.39-.19,4.7.27,8-1.41,9.36-6.11l1-1H212a70.12,70.12,0,0,1,.23,8.92c-.48,5,1.54,8.58,5.64,11.19.07.64.49.87,1.07.91-.08,2.65-.54,5.35-.18,7.94,1.12,8.11-2.52,12.75-10.09,14.84l-6,1.95C198.28,409.22,194,411.31,189.46,410.68Z" fill="#1c1c1c"/><path d="M180,240.71c2.27-4.06.16-7.93-.51-11.87-1.15-6.71-2.27-13.43-3.41-20.15-.47-8.69,1.09-17.24,1.72-25.85.66-4.72,1.27-9.44,2-14.16.45-3,.29-5.32-3.79-5-2.57.23-3.5-.55-1.51-3,3.44-4.27,4-9.08,2.89-14.47a35.72,35.72,0,0,1,.08-14.27c.24-1.17.71-2.24-.47-3.13,3.19-9,9.61-14.87,18-19,5.7-1.41,11.52-1.1,17.31-1.05,9.43.08,9.43.09,10.73-8,12.25,17,19.58,35.32,15.81,56.75a39.29,39.29,0,0,1-3.93,12.22c-1.53-7.42-2.17-14.9-.65-22.36,2.5-12.2-2.89-30.82-20.2-35.95-2.4-.71-4.81-1.28-7.11.33-4.09-.69-8.22-1.84-12,1.13-2.12.12-3.69,1.29-5.2,2.64-8.79,7.81-10.57,17.83-9.46,28.94.53,5.32,4,9.85,3.71,15.32-.07,1.49,0,3-.23,4.48-2.34,18.05-5.85,36-2.64,54.36.88,6.42,1.77,12.83,3.81,19l-6.21,19.22-2.43.05c-.65-1.81-.05-3.42.5-5.16C177.93,248.1,179.94,244.68,180,240.71Z" fill="#c69778"/><path d="M238.83,329.55c3.93,3.74,5.44,8.1,5.15,13.71-.5,9.92-.31,19.89-.06,29.83.11,4.27-1.27,7.32-4.87,9.45-2.08-1.9-1.16-4.4-1.07-6.58.15-3.4-.86-4.8-4.47-4.61-5.14.27-10.31.06-15.46.06-.1-8.76-.15-17.53-.33-26.29-.05-2.19.79-2.88,2.9-2.84,4.8.11,9.61-.07,14.41.1,2.42.08,3.06-.79,3.12-3.12C238.22,336,237.22,332.68,238.83,329.55Z" fill="#343434"/><path d="M177,128.83c1.18.89.71,2,.47,3.13a35.72,35.72,0,0,0-.08,14.27c1.1,5.39.55,10.2-2.89,14.47-2,2.47-1.06,3.25,1.51,3,4.08-.36,4.24,1.95,3.79,5-.7,4.72-1.31,9.44-2,14.16-3.74-1.1-5.56-4.5-8.12-7-2.77-2.66-5.93-3.9-9.45-2.9-7.93,2.23-16,1.84-24,1.69-.13-.55-.27-1.11-.4-1.66l-.86-1.23a24.56,24.56,0,0,1-2.82-10.94c6.08,3.59,12.25,2.53,18.77,1.11,11.82-2.59,21.54-12.45,23-24.5C174.28,134.31,174.61,131.22,177,128.83Z" fill="#d6ad8f"/><path d="M196.92,83.91c-4.3,5.58-8.45,11.12-11.69,17.54s-10.08,7.93-17.12,7.34c0-1,0-2,0-3,3-.56,1.83-3.24,2.15-4.85,1.56-7.83,5.28-15.14,5.65-23.24L180,63.86c3.67.23,7.21,0,10.14-2.67,1.62-1.45,2.49-1.16,2.79,1.1A165.36,165.36,0,0,0,196.92,83.91Z" fill="#d6ad8f"/><path d="M136.21,174.66c8.06.15,16.1.54,24-1.69,3.52-1,6.68.24,9.45,2.9,2.56,2.47,4.38,5.87,8.12,7-.63,8.61-2.19,17.16-1.72,25.85-2.52.42-3.87-1.33-5.5-2.77-5.46-4.8-9.57-10.88-15.27-15.51-6.07-4.93-12.62-8.37-20.32-9.65C134.65,178.58,135.51,176.64,136.21,174.66Z" fill="#e0c3af"/><path d="M238.83,329.55c-1.61,3.13-.61,6.48-.68,9.71-.06,2.33-.7,3.2-3.12,3.12-4.8-.17-9.61,0-14.41-.1-2.11,0-3,.65-2.9,2.84.18,8.76.23,17.53.33,26.29q-.06,6.07-.14,12.14c-4.1-2.61-6.12-6.15-5.64-11.19a70.12,70.12,0,0,0-.23-8.92,72.14,72.14,0,0,0,0-13.94c.1-2.65.27-5.29.28-7.94.06-9,2.45-11.65,11.51-12.85a6.91,6.91,0,0,0,2.09-1.13c2.48,1.92,5.35.48,8,1C235.56,328.85,237.53,327.6,238.83,329.55Z" fill="#e5e4e4"/><path d="M138.23,328.43c3.92,1.26,7.89.78,11.85.37l.94.29.75,1.57a76.07,76.07,0,0,0-.3,8.39c.21,2.95-.95,3.63-3.66,3.52-4.63-.19-9.28.07-13.91-.1-2.44-.09-3.1.8-3,3.13.22,8.6.26,17.2.37,25.8-.16,3.69-.31,7.38-.47,11.07-3.94-1.57-5.9-4.2-5.81-8.7.21-10.46.07-20.92.07-31.38C125,332.4,128.45,328.78,138.23,328.43Z" fill="#e5e4e4"/><path d="M176.28,256.92l2.43-.06q-.65,5.37-1.28,10.74c-3.48,1.33-8,.15-10.36,4.15-.32-2-1.39-2.18-3.22-1.65a141.25,141.25,0,0,1-22.28,4.8c-2.48.3-3.61,1.7-3.5,4.4.08,2.07.7,4.33-.73,6.28-.49-6.22,1-12.45-.18-18.65-.28-1.51.76-2,1.9-2.39A36.81,36.81,0,0,0,154,261.82l20.93-4.44,1.26-.45Z" fill="#444448"/><path d="M137,204.7c8.53,1.74,16.63,4.26,21.56,12.27,1.45,2.35,2.51,5.32.62,7.43s-5,2.2-7.78,1.49c-3.2-.84-6.27-2.13-9.45-3-.94-.27-2.61-1.72-3,.79C136.2,217.56,135,211.3,137,204.7Z" fill="#ddbba1"/><path d="M134.85,182.71c6.89,2.61,14,4.77,19.22,10.53a12.35,12.35,0,0,1,3.26,5.94c.67,3.18,1.8,7-1.06,8.72-2.14,1.32-4.87-1.51-6.93-3.28-3.12-2.67-7.09-3.49-10.73-5-1.55-.65-1.57.58-1.87,1.48A25.47,25.47,0,0,1,134.85,182.71Z" fill="#ddbba1"/><path d="M196.92,83.91a165.36,165.36,0,0,1-4-21.62c-.3-2.26-1.17-2.55-2.79-1.1-2.93,2.64-6.47,2.9-10.14,2.67.21-1.67.38-3.47,2.43-3.86,6.36-1.22,9.79-5.66,12.39-11.06,1.51,2,1.14,4.39,1.15,6.66,0,7.2,0,7.2,7.51,6.21.85,6.84,2.86,13.42,4.46,20.09l-3.1.14-2-.11-1.16.86A8,8,0,0,0,196.92,83.91Z" fill="#c69778"/><path d="M139.36,225.6c4.42,1.21,8.87,2.29,13.31,3.38,3.55.87,6.52,4.11,6.05,8.09s-3.63,6.22-7.6,6.51a39.22,39.22,0,0,1-12.77-.85C137.79,237,137.07,231.2,139.36,225.6Z" fill="#ddbba1"/><path d="M204.87,82l3.1-.14c5,6.33,11.23,11.61,15,18.88-1.3,8.13-1.3,8.12-10.73,8-5.79,0-11.61-.36-17.31,1.05.53-2.49,2.6-3.22,4.61-3.94,1.24-.45,2.59-.6,3.83-1,3.57-1.22,8.44-2,9-5.92s-1.43-8.34-4.88-11.3A7.23,7.23,0,0,1,204.87,82Z" fill="#ddbba1"/><path d="M175.92,77.73c-.37,8.1-4.09,15.41-5.65,23.24-.32,1.61.83,4.29-2.15,4.85-3-7.93-9.47-13.9-12.35-21.89Z" fill="#c69778"/><path d="M217.91,383.55q.08-6.07.14-12.14c5.15,0,10.32.21,15.46-.06,3.61-.19,4.62,1.21,4.47,4.61-.09,2.18-1,4.68,1.07,6.58-.29,2.57-2.37,1.85-3.8,1.88-5.42.11-10.84,0-16.27,0C218.4,384.42,218,384.19,217.91,383.55Z" fill="#545353"/><path d="M130.76,382.47c.16-3.69.31-7.38.47-11.07,5.27,0,10.53.14,15.79,0,2.95-.09,4.11.87,4.06,3.93,0,2.36-.93,4.94.83,7.12-1.26,3.76-4.38,1.33-6.58,2-3.8,0-7.59.06-11.39.12C132.4,384.53,130.89,384.6,130.76,382.47Z" fill="#545353"/><path d="M189.46,410.68c4.56.63,8.82-1.46,13.3-1.49-6.45,5.14-14.32,7.33-21.83,10.18-4.43,1.68-8.81,3.87-13.74,3.89,0-4.27-3.31-7.12-4.59-10.83C171.56,412,180.59,412.58,189.46,410.68Z" fill="#b27f59"/><path d="M145.33,384.39c2.2-.64,5.32,1.79,6.58-2h2l2.28,29.26c-4.62.83-7.18-.18-7.56-5.76C148.15,398.72,146.49,391.57,145.33,384.39Z" fill="#1c1c1c"/><path d="M154,261.82a36.81,36.81,0,0,1-14.91,2.72l-.66-5.94c8.14.33,15.21-3.39,22.57-6A45,45,0,0,1,154,261.82Z" fill="#c69778"/><path d="M137.46,307.56c1.27,3.61.61,7.31.51,11A34,34,0,0,1,137.46,307.56Z" fill="#444448"/><path d="M135,171.77l.86,1.23Z" fill="#e0c3af"/><path d="M177.43,267.6q.65-5.37,1.28-10.74l6.21-19.21C195,237,207.16,224.77,207.26,215c-3,.77-5,2.89-7.34,4.56-6.42,4.55-12.78,4.09-18.81-1-3.21-18.32.3-36.31,2.64-54.36.2-1.48.16-3,.23-4.48,3.94.54,4.76,4.35,6.73,6.78,6.4,7.85,11.64,10,19.19,7.19,4.7-.37,7.86-4,11.91-5.77,3-1.29,3-.33,3.09,2,.63,13.74-2,27-6,40-2.27,7.29-6.2,14.07-7.78,21.42-2.14,9.93-5.17,19.8-5.14,30.11,0,9-2,17.7-3.23,26.52-1.75,12.12-5.24,23.84-7.92,35.75-1.15,5.12.82,6.36,5,6.68.66.05,1.33,0,2,.06a80.88,80.88,0,0,1,3.13,19q-.58,7-1.18,13.95c-.32.34-.65.67-1,1a8.47,8.47,0,0,0-4.77-1q-15.6.07-31.22.12l0,0c.1-1.08.33-2.18-.61-3.05l.09-3.17a2.08,2.08,0,0,0,.41-2.25l.15-5.52c1.18-3.3,1.22-6.45-1.23-9.27a7.11,7.11,0,0,1,3-4.37c6.75-4.31,8.21-10.89,8.23-18.32C177,301,177.23,284.29,177.43,267.6Z" fill="#e0c3af"/><path d="M194.93,112.9c3.74-3,7.87-1.82,12-1.13,2,1.46,3.87,3,5.93,4.35,10.3,6.7,11.69,13.84,10.55,25.91-.43,4.49-2,8.59-3.48,12.75-3,.5-5.45,2.33-8.12,3.6-4.3,2-8.54,1.82-13,.39-8.91-2.86-12.75-9.43-13.42-18.2s-.75-17.45,6.26-24.39C192.73,115.11,195,115.12,194.93,112.9Z" fill="#e0c3af"/><path d="M194.93,112.9c.1,2.22-2.2,2.21-3.28,3.28-7,6.94-6.94,15.61-6.26,24.39s4.51,15.34,13.42,18.2c4.42,1.43,8.66,1.65,13-.39,2.67-1.27,5.1-3.1,8.12-3.6-1.42,5.59-5,10-8.19,14.58-1,1.4-2,2.6-1.8,4.41-7.55,2.82-12.79.66-19.19-7.19-2-2.43-2.79-6.24-6.73-6.78.29-5.47-3.18-10-3.71-15.32-1.11-11.11.67-21.13,9.46-28.94C191.24,114.19,192.81,113,194.93,112.9Z" fill="#ddbba1"/><path d="M201.75,82.79l1.16-.86Z" fill="#ddbba1"/><path d="M217.86,607.33c2.79,8.3.64,11.87-7.9,12.89a28.79,28.79,0,0,1-5.94.14A82.4,82.4,0,0,0,179.4,622c-15.57,3.16-31.09,1.88-45.43-5.85-5.4-2.91-6.35-7.33-3.14-11.62,8.62,12.72,22,12.58,35.2,13a18.25,18.25,0,0,0,4.95-.41c12.5-3.15,25-6.37,38.06-5.68C212.36,611.64,215.38,609.71,217.86,607.33Z" fill="#444448"/><path d="M166.87,349.62l-.15,5.52a2.23,2.23,0,0,0-.41,2.25l-.09,3.17c-.12,1-.24,2-.35,3-8.81.52-9.09.53-8.69,9.24.17,3.87-1.54,6.63-3.26,9.61h-2c-1.76-2.19-.87-4.77-.83-7.13,0-3.06-1.11-4-4.06-3.93-5.26.17-10.52,0-15.79,0-.11-8.6-.15-17.2-.37-25.8-.06-2.33.6-3.22,3-3.13,4.63.17,9.28-.09,13.91.1,2.71.11,3.87-.57,3.66-3.52a76.07,76.07,0,0,1,.3-8.39c.86,1,2,.89,3.15.85,2.42,4,2.42,8.46,2.07,12.87-.33,4,.78,6,5.14,4.95Z" fill="#343434"/><path d="M166.8,363.57q15.62-.06,31.22-.12a8.47,8.47,0,0,1,4.77,1c-1.38,4.7-4.66,6.38-9.36,6.11-2.45-.13-4.93.12-7.39.19-3.94-.1-7.89-.13-11.82-.33C169.92,370.17,167.11,368.19,166.8,363.57Z" fill="#d6ad8f"/><path d="M165.87,363.59c.11-1,.23-2,.35-3,.94.87.71,2,.61,3.05l-.48.09Z" fill="#d6ad8f"/><path d="M154,261.82a45,45,0,0,0,7-9.18h0a2.06,2.06,0,0,0,1-2c3.79-2.87,7.47-5.9,11.41-8.55,1.88-1.27,4.06-2.81,6.66-1.38-.07,4-2.08,7.39-3.23,11-.55,1.74-1.15,3.35-.5,5.16h-.12l-1.26.45Z" fill="#ddbba1"/><path d="M161.94,250.64a2.06,2.06,0,0,1-1,2A2.14,2.14,0,0,1,161.94,250.64Z" fill="#c69778"/><path d="M162.13,349.33c-4.36,1.09-5.47-.95-5.14-4.95.35-4.41.35-8.86-2.07-12.87,1.86-15.63,3.83-31.24,8.12-46.45,1.26-4.46,2.68-8.87,4-13.31,2.4-4,6.88-2.82,10.36-4.15-.2,16.69-.48,33.38-.54,50.06,0,7.43-1.48,14-8.23,18.32a7.11,7.11,0,0,0-3,4.37A33.48,33.48,0,0,0,162.13,349.33Z" fill="#31afb6"/><path d="M151,329.09l-.94-.29Z" fill="#343434"/><path d="M203.76,363.43q.59-7,1.18-13.95l7.1,0a72.14,72.14,0,0,1,0,13.94Z" fill="#343434"/><path d="M181.11,218.64c6,5.05,12.39,5.51,18.81,1,2.35-1.67,4.37-3.79,7.34-4.56-.1,9.73-12.24,21.93-22.34,22.61C182.88,231.47,182,225.06,181.11,218.64Z" fill="#ddbba1"/><path d="M174.9,257.38l1.26-.45Z" fill="#c69778"/><path d="M162.13,349.33a33.48,33.48,0,0,1,3.51-9c2.45,2.82,2.41,6,1.23,9.27Z" fill="#d6ad8f"/><path d="M166.31,357.39a2.23,2.23,0,0,1,.41-2.25A2.08,2.08,0,0,1,166.31,357.39Z" fill="#d6ad8f"/></g></g></svg>