<svg xmlns="http://www.w3.org/2000/svg" viewBox="0 0 249.91 644.05"><title>ex_d2_2_1</title><g id="Layer_2" data-name="Layer 2"><g id="Layer_1-2" data-name="Layer 1"><path d="M202.17,586c8.57,3,16.82,6.59,22.62,14.12,4.76,6.18,4.13,12.76-1,18.79-5.25,6.19-12.09,9.71-19.25,12.64-14.32,5.87-29.43,8.3-44.71,10.6-17.26,2.61-34.48,1.94-51.66,1.48a191.83,191.83,0,0,1-47-6.78,122.77,122.77,0,0,1-24.87-9.64c-7.51-4-14.38-9-14.09-19.28.22-8.16,6.33-11.72,11.75-15.52,4-2.78,8.84-4.31,13.3-6.39-1.12,3.34-3.71,5.63-5.79,8.32-3.53,4.55-6.88,9.27-4.23,15.55-.75.13-1.39-.08-1.25,1.35.4,4.12,3,6.37,6.44,7.42a38.27,38.27,0,0,0,25.85-.86c3.76-1.49,6.18-4.43,5.93-8.87,2.67-2.73,3.17-6.06,2.67-9.66,1.18-7.41,1.3-15,4.59-22a285.48,285.48,0,0,1,34.39-3.21,268.41,268.41,0,0,1,48.31,2.77c1.84.29,2.85-.35,3.18-2.15a62.22,62.22,0,0,1,4.94,23.09c.4,3.79.83,7.58,2.4,11.11,1.65,7.28,6.84,10.14,13.67,10.94a59.47,59.47,0,0,0,14.42.1c6.6-.83,9.92-3.84,11-9.47-.26-6.62-2-12.63-6.67-17.64A67.38,67.38,0,0,1,202.17,586Z" fill="#ebece6"/><path d="M189,393.33c-1.9,13.73.66,27.43.32,41.17-.21,8.84,1.87,17.75,3.13,26.59,1.39,9.77.94,19.58.38,29.32-1.35,23.2-2.08,46.4-1.56,69.63-.12.32-.25.64-.38,1a1.69,1.69,0,0,0-.68.62,20.35,20.35,0,0,1-7.93,0c.1-7.2.5-14.38.77-21.57.5-13.08.09-26.19.16-39.29a89.45,89.45,0,0,0-18.57-56.1c-2.39-3.14-3.58-8.58-9.27-8.5l-.27-1.7-.94-1.24c-5.42-7.85-7.68-16.76-8.73-26.08,2.71-.65,5.48-1.12,8.12-2,8.56-2.8,17.53-4.39,25.57-8.73Z" fill="#d6ae8f"/><path d="M58.55,560.92c-.09-14.3,0-28.6-.33-42.89-.29-12.11-1.18-24.21-1.68-36.31-.56-13.34,1.25-26.49,3.33-39.61a45,45,0,0,0,.67-10.83A76.52,76.52,0,0,1,62.05,407c7.16.48,13.44-2.86,20-4.82,2.47-.74,5.81-.3,7.27-3.41l16.91-1.43c-1.9,12.82-3.58,25.72-11.14,36.83-5.42,3.23-8.85,8.55-12.22,13.42a91.05,91.05,0,0,0-16.48,52.47c-.08,18.9.55,37.8.94,56.7a31.73,31.73,0,0,0,.85,4.86A16.59,16.59,0,0,1,58.55,560.92Z" fill="#d6ae8f"/><path d="M166,95.9c3.74,1.38,6.57,4,9.37,6.7-10.38-2.54-21-1.67-31.48-1.92-5.85-.14-11.47.36-16.75,3.07.75-1.82,1.56-3.61,2.23-5.45,2.83-7.71,7.77-14.49,9.93-22.5.92-1.07,2.09-2,1.37-4.31-5.08,2-9.31,6.81-15.41,4.85l-.09-64.74a32.23,32.23,0,0,1,18,4.27c1.53.87,3.87,1.8,3.67,3.68-.77,7.32,3.37,13.68,3.68,20.75,0,.77-.31,1.92.67,2.12s1.62-.88,2.18-1.68c1.57.09,2.91.4,3.54,2.16,1.24,3.48-1.11,14.21-4.45,15.65-5.48,2.35-4.92,6.89-5.23,11.11-.34,4.63-.06,9.31-.05,14,.61,2.34-1.79,5.93,1.79,6.91,4.78,1.31,9.24,3.72,14.26,4.18l-.08,0C163.8,95.83,164.39,97.07,166,95.9Z" fill="#dcbaa1"/><path d="M189,393.33l-9.88,3.1-5.52.08q1.24-28.63,3.61-57.2c1.08-12.95,2.65-25.78,7.87-37.84,1.7-3.94,3.7-7.75,5.56-11.61,3.08,15.73,2.87,31.79,4.68,47.65-3.68,4.4-1.15,8,1.55,11.53-1.18,4.62.4,9.16.49,13.74A132.07,132.07,0,0,0,199,381.09c.82,5.1-.8,8.22-5.54,10A42.85,42.85,0,0,0,189,393.33Z" fill="#31b0b8"/><path d="M60.84,393.43c-8.29-2.6-11.39-7.46-9.75-16.63a124.44,124.44,0,0,0,2-27.24c2.76-4.08,5.06-8.19,1-12.81,1.51-7.31,1.31-14.79,2.2-22.16s.2-15.18,2.86-22.45c6.51,8.32,9.41,18.14,11,28.28,4,25.41,4.64,51.1,6,76.72C70.85,396.84,66.06,394.24,60.84,393.43Z" fill="#31b0b8"/><path d="M127.16,103.75c5.28-2.71,10.9-3.21,16.75-3.07,10.52.25,21.1-.62,31.48,1.92,5.55.8,11,1.85,15.81,5a1.72,1.72,0,0,0,2.05,1v0c1.55,5.69,1.09,11.52.7,17.25-.17,2.44-.19,5.88-3.79,6.82-1.74-1.65-.61-4.82-3.18-6-1.94-2.17-2.59-5-3.54-7.57-3.48-9.51-11.68-15.37-21.6-15.37-4.31,0-8.63.19-12.93,0-6-.34-11.27,1.45-16.5,4.29-2.71,1.47-4.15,5-7.83,4.79-1.54-.89-1-4.8-4.36-3-3.64-1.9-7-4.18-11.2-5.11-7.24-1.61-14.57-.09-21.75-1-7.58-1-11.68,3.71-16.16,8.35-4.85,5-6.58,11.44-8.66,17.75-.32-.75-.28-2.34-1.5-.43-1.07,1.67,0,4-1.69,5.39-1.42-.13-1.7-1.06-2-2.32-1.8-7.86-2.92-15.71-1-23.72,1.57-.87,3-2.11,4.74-2.57,7.78-2.12,15.3-4.76,22-9.36.88-.09,1.79-.1,2.27-1l-.08,0c4.32-1.38,8.58-3,13-4.08,4.78-1.16,6.2-3.63,4.25-8.1l-.24-19.73c6.47,0,7.42,1,6,6-1,.26-3.91-.8-1.44,2,1.37,1.53,3.52,2.47,3.65,4.92,3.21,9.47,8.73,17.87,12.45,27.11C124.05,106.74,125.75,105.94,127.16,103.75Z" fill="#d6ae8f"/><path d="M108.21,69.8c1.4-5,.45-6-6-6l-.9-3.13-.83-.93-.11-.11c-1.65-5.34-.88-10.85-1.19-16.28-1.36-6.39,3.65-11.71,3.16-17.81-.59-7.4,3.76-10.24,9.71-12.12a34,34,0,0,1,13.16-1.81l.09,64.74C118.06,78.15,113.17,73.88,108.21,69.8Z" fill="#d6ac8d"/><path d="M58.55,560.92a16.62,16.62,0,0,0,9.64.71c3,.44,6.54-2,9.1,1.44-.68,1.83-1.23,3.73-2.07,5.48-3.52,7.34-5.81,15.06-5.83,23.18,0,7.87-.47,15.42-6,21.65-6.6-.38-13.18-1-19.82-.36-2.45.24-5-.49-6.25-3.14-2.65-6.28.7-11,4.23-15.55,2.08-2.69,4.67-5,5.79-8.32,4.53-6.11,6-13.1,6-20.54C53.32,562,54.16,559.39,58.55,560.92Z" fill="#dad8ea"/><path d="M190.87,561c.13-.32.26-.64.38-1,3.67-.45,4.68,1.25,5.07,4.82.78,7.31.66,15,5.85,21.13a67.38,67.38,0,0,0,5,6.81c4.68,5,6.41,11,6.67,17.64-9.2,4.59-19.1,1.58-28.62,2.64-1.74-4.79-4.45-9-4.25-14.71.44-12.35-2.79-24.13-8.74-35.08,2.85-3.64,6.58-1.91,10.07-1.67a20.16,20.16,0,0,0,7.93,0Z" fill="#dad8ea"/><path d="M38.05,161.46c-2.12-8.46-3.47-17-1.58-25.65,1.17,6,2.54,11.81,7.5,16.2,3.52,3.12,7.1,4.07,11.3,2.13,2.1-1,4-2.32,6-3.5,6.17,9.46,10.14,19.61,9.92,31.09a187.71,187.71,0,0,1-5.42,34.71c-3.78.73-4,5.9-8.73,6.9a68.45,68.45,0,0,0,5.74-22c1.15-11.06,1.5-22.12-3.82-32.5-1.46-2.85-2.65-3.94-5.38-1.16-2.15,2.19-4.55,4.48-8.16,3.84A50.92,50.92,0,0,1,38.05,161.46Z" fill="#c79777"/><path d="M214,139.74c1.09,7.12-.67,14-1.89,20.89-2.62,3.7-3.93,8.34-8,11-2.72.15-4.68-1.28-6.55-3-3.79-3.57-5.17-3.2-7.21,1.69-4.59,11-4.79,22.43-2.84,34a98.14,98.14,0,0,0,4.83,18.78c-4.06-1.39-4.89-5.37-8.11-6.56-.95-6.82-3.55-13.29-4.14-20.2-.45-5.18-.28-10.44-1.84-15.49,1.61-8.9,2.15-18.1,7.7-25.84.91-1.28,1.06-3.26,3.2-3.35a5.06,5.06,0,0,1,1.44.34c9.71,5.55,17.05,2.81,20.81-7.69C212,142.67,211.92,140.53,214,139.74Z" fill="#c79777"/><path d="M196.85,349c-2.7-3.55-5.23-7.13-1.55-11.53q5-8.42,10.09-16.81c.91-1.5,1.45-3.42,3.7-3.53l19,.07,2.19-.17c4.77-.45,7.34,2,9.37,6.14,2.7,5.49,5.95,10.73,9.18,16,1.39,2.24,1.53,4,.09,6.33-3.83,6.21-7.48,12.54-11,18.93a5,5,0,0,1-5.11,2.91c-7.48-.16-15-.14-22.43,0a4.48,4.48,0,0,1-4.65-2.75C202.91,359.32,199.82,354.21,196.85,349Zm45.3-6.65c1.13-11.64-9.69-21-20.68-20.78-12.32.28-20.19,9.74-20.47,21.29-.26,10.63,9.26,20.11,20.92,20.27C231.8,363.31,243.42,354,242.15,342.39Z" fill="#393939"/><path d="M54.15,336.75c4,4.62,1.72,8.73-1,12.81-2.93,5-5.94,10-8.76,15.05a4.6,4.6,0,0,1-4.7,2.73c-7.65-.16-15.31-.14-23,0a4.24,4.24,0,0,1-4.34-2.45Q6.77,354.88.9,345c-1-1.75-1.28-3.15-.18-5,4-6.7,8-13.41,11.67-20.31,1.73-3.28,4.6-1.79,6.93-2.49H22.4l8.87,0,4-.07,6.06.14c2,.34,2.38,2.09,3.2,3.46Zm-4.86,5.16c-1-11.59-8.21-20.27-20.87-20.2S7.86,329.24,7.67,341.88c-.19,12.43,7.48,20.94,20.9,21.12C40,363.15,48,355.5,49.29,341.91Z" fill="#393939"/><path d="M22.4,317.21H19.32c1.73-23.46,3.35-46.92,5.23-70.35,1.27-15.75,4.29-31.17,10.86-45.67,1.14-2.53,0-4.54-.59-6.66-2.69-10.29-1.58-20.37,1.33-30.4.32-1.13.56-2.28,1.9-2.67a50.92,50.92,0,0,0,7.38,10.07c-4.82,11.27-4.4,23.13-4,35-1,1-2.36,1.92-3.06,3.15-6.75,12-11.39,24.8-11.88,38.55-.8,22.71.73,45.47-1.11,68.18C24.31,316.48,23.18,316.22,22.4,317.21Z" fill="#e1c4b0"/><path d="M125.19,11.6A34,34,0,0,0,112,13.41c-6,1.88-10.3,4.72-9.71,12.12.49,6.1-4.52,11.42-3.16,17.81L96.22,40.8c0-4.49.17-9,0-13.45-.54-17,14.31-28.6,31.1-27.24,13.81,1.12,23.83,9.53,25.6,21.24,1,6.35.36,12.92.46,19.39-.56.8-1.13,1.89-2.18,1.68s-.64-1.35-.67-2.12c-.31-7.07-4.45-13.43-3.68-20.75.2-1.88-2.14-2.81-3.67-3.68A32.23,32.23,0,0,0,125.19,11.6Z" fill="#393939"/><path d="M214,139.74c-2.12.79-2,2.93-2.59,4.55-3.76,10.5-11.1,13.24-20.81,7.69a5.06,5.06,0,0,0-1.44-.34,103.69,103.69,0,0,0,1-19c3.6-.94,3.62-4.38,3.79-6.82.39-5.73.85-11.56-.7-17.25,11.44,3.16,17.29,11.34,19.67,22.37C213.54,133.83,214.6,136.71,214,139.74Z" fill="#dcbaa1"/><path d="M230.25,317.07l-2.18.17c-.78-1-1.92-.75-3-.84-1.25-5.2-1-10.51-1-15.79a43.87,43.87,0,0,0-.29-7.44,79.34,79.34,0,0,1-.38-23.27,107.78,107.78,0,0,0-1.5-32.48,87.44,87.44,0,0,0-9.76-26.77c-1.11-2-2.37-3.79-5-2.09.19-3.95,1.83-7.59,2.11-11.6.62-9-1.81-17.21-5.1-25.34,4.06-2.65,5.37-7.29,8-11,5.23,11.15,5.07,22.82,2.69,34.49a14.5,14.5,0,0,0,1,9.06c5.42,13,8.13,26.58,9.24,40.54,1.6,20.13,3.24,40.25,4.79,60.39C230.18,309.08,230.14,313.08,230.25,317.07Z" fill="#e1c4b0"/><path d="M61.28,150.64c-2,1.18-3.91,2.53-6,3.5-4.2,1.94-7.78,1-11.3-2.13-5-4.39-6.33-10.19-7.5-16.2,1.06-13.09,6.86-22.72,19.8-27.17-1.92,8-.8,15.86,1,23.72.29,1.26.57,2.19,2,2.32C59.07,140.11,59.31,145.49,61.28,150.64Z" fill="#dcbaa1"/><path d="M60.84,393.43c5.22.81,10,3.41,15.36,3.71,4.26,1.44,8.8.7,13.12,1.64-1.46,3.11-4.8,2.67-7.27,3.41-6.56,2-12.84,5.3-20,4.82Q61.45,400.22,60.84,393.43Z" fill="#b47e58"/><path d="M96.22,40.8l2.94,2.54c.31,5.43-.46,10.94,1.19,16.28C97.74,59.6,96.1,58.23,95,56c-1.8-3.64-2-7.63-2.38-11.52C92.38,42.26,93.66,40.68,96.22,40.8Z" fill="#dcbaa1"/><path d="M102.43,83.52c1.95,4.47.53,6.94-4.25,8.1-4.4,1.06-8.66,2.7-13,4.08C90.1,90.44,96.48,87.29,102.43,83.52Z" fill="#b47e58"/><path d="M163.27,94.72c-5-.46-9.48-2.87-14.26-4.18-3.58-1-1.18-4.57-1.79-6.91C152.82,87,158.57,90.08,163.27,94.72Z" fill="#b47e58"/><path d="M166,95.9c-1.63,1.17-2.22-.07-2.83-1.23Z" fill="#b47e58"/><path d="M85.28,95.67c-.48.94-1.39,1-2.27,1C83.55,95.9,84.2,95.32,85.28,95.67Z" fill="#b47e58"/><path d="M193.25,108.63a1.72,1.72,0,0,1-2.05-1A2.23,2.23,0,0,1,193.25,108.63Z" fill="#dcbaa1"/><path d="M100.46,59.73l.83.93Z" fill="#dcbaa1"/><path d="M167.24,566.17c-.73-3.37,1.11-6.11,2.17-9,1.48,1.8-.06,5,2.78,6.16,5.95,11,9.18,22.73,8.74,35.08-.2,5.74,2.51,9.92,4.25,14.71-3.43.43-5.82-1.37-8.08-3.6-.57-.56-1-2.61-2.36-.61-1.57-3.53-2-7.32-2.4-11.11C175.46,586.46,174.75,575.77,167.24,566.17Z" fill="#c5c3dd"/><path d="M80.38,559.85c3.25,1.24,1.5,4,2,6.17-7.68,10.13-7.34,21.55-5.4,33.24.5,3.6,0,6.93-2.67,9.66-3.54,1.72-6.34,5.22-10.9,4.46,5.56-6.23,6-13.78,6-21.65,0-8.12,2.31-15.84,5.83-23.18.84-1.75,1.39-3.65,2.07-5.48C79.61,563.24,79,560.61,80.38,559.85Z" fill="#c5c3dd"/><path d="M174.74,608.87c1.33-2,1.79,0,2.36.61,2.26,2.23,4.65,4,8.08,3.6,9.52-1.06,19.42,1.95,28.62-2.64-1.05,5.63-4.37,8.64-11,9.47a59.47,59.47,0,0,1-14.42-.1C181.58,619,176.39,616.15,174.74,608.87Z" fill="#393939"/><path d="M63.36,613.38c4.56.76,7.36-2.74,10.9-4.46.25,4.44-2.17,7.38-5.93,8.87a38.27,38.27,0,0,1-25.85.86c-3.4-1-6-3.3-6.44-7.42-.14-1.43.5-1.22,1.25-1.35,1.27,2.65,3.8,3.38,6.25,3.14C50.18,612.37,56.76,613,63.36,613.38Z" fill="#393939"/><path d="M76.93,599.26C75,587.57,74.65,576.15,82.33,566c2,3.9-.12,7.52-.81,11.24C78.23,584.22,78.11,591.85,76.93,599.26Z" fill="#545353"/><path d="M167.24,566.17c7.51,9.6,8.22,20.29,5.1,31.59a62.22,62.22,0,0,0-4.94-23.09C167,571.84,166.49,569,167.24,566.17Z" fill="#545353"/><path d="M172.19,563.29c-2.84-1.19-1.3-4.36-2.78-6.16-1.33-16.87-4-33.57-6.4-50.31-.4-2.88-2.07-5.57-3.12-8.36-5.22-13.86-7.75-28-6-42.93.75-6.4.56-12.93,1.45-19.36,5.69-.08,6.88,5.36,9.27,8.5a89.45,89.45,0,0,1,18.57,56.1c-.07,13.1.34,26.21-.16,39.29-.27,7.19-.67,14.37-.77,21.57C178.77,561.38,175,559.65,172.19,563.29Z" fill="#dcbaa1"/><path d="M145.41,407.15q-1-4.93-2-9.87c2.28.2,4.57.51,6.86.6,7.81.28,15.7,1.83,23.31-1.37l5.52-.08c-8,4.34-17,5.93-25.57,8.73C150.89,406,148.12,406.5,145.41,407.15Z" fill="#b47e58"/><path d="M155.08,434.47c-.31-.41-.63-.82-.94-1.24C154.45,433.65,154.77,434.06,155.08,434.47Z" fill="#dcbaa1"/><path d="M190.87,561l-.68.62A1.69,1.69,0,0,1,190.87,561Z" fill="#dcbaa1"/><path d="M173.58,396.51c-7.61,3.2-15.5,1.65-23.31,1.37-2.29-.09-4.58-.4-6.86-.6-.15-.08-.29-.22-.44-.22-9.23-.27-12.16-5.2-12.36-14.12-.22-9.9-2.2-19.76-3.53-29.62a54.55,54.55,0,0,0-2.79-11.53c-1.67,13.11-4,26.17-4.8,39.33-.57,9.27-2.55,15.91-13.25,16.23l-16.92,1.43c-4.32-.94-8.86-.2-13.12-1.64-1.35-25.62-2-51.31-6-76.72-1.59-10.14-4.49-20-11-28.27-.36-4.23,1-8.21,2.15-12.14,3.57-11.95,7.81-23.67,14-34.61a30.19,30.19,0,0,0,14,6c20,5.68,40.09,6.87,60.46,2.48a36.26,36.26,0,0,0,11.37-2.7,27,27,0,0,0,13.19-5.83c.57.54,1.4,1,1.66,1.65,5.5,14.08,12.39,27.69,14.67,42.87-1.86,3.86-3.86,7.67-5.56,11.61-5.22,12.06-6.79,24.89-7.87,37.84Q174.82,367.87,173.58,396.51Z" fill="#181818"/><path d="M80.38,559.85c-1.36.76-.77,3.39-3.09,3.22-2.56-3.46-6.06-1-9.1-1.44a30.59,30.59,0,0,1-.86-4.86c-.39-18.9-1-37.8-.94-56.7A91.05,91.05,0,0,1,82.87,447.6c3.37-4.87,6.8-10.19,12.22-13.42.38,9.09.8,18.19,1.16,27.29.53,13.1-1.4,25.82-6.89,37.77-3,6.66-3.59,13.72-4.5,20.73C83.13,533.24,80.89,546.45,80.38,559.85Z" fill="#dcbaa1"/><path d="M127.16,103.75c-1.41,2.19-3.11,3-4.29,0-3.72-9.24-9.24-17.64-12.45-27.11a5,5,0,0,1,2.94,1.68C116.9,81.65,121,82.64,125.9,83c6.44.45,9.17-4.43,13.42-7.18-2.16,8-7.1,14.79-9.93,22.5C128.72,100.14,127.91,101.93,127.16,103.75Z" fill="#c18c6a"/><path d="M139.32,75.8c-4.25,2.75-7,7.63-13.42,7.18-4.9-.34-9-1.33-12.54-4.61a5,5,0,0,0-2.94-1.68c-.13-2.45-2.28-3.39-3.65-4.92-2.47-2.77.42-1.71,1.44-2,5,4.08,9.85,8.35,17.07,6.54,6.1,2,10.33-2.85,15.41-4.85C141.41,73.75,140.24,74.73,139.32,75.8Z" fill="#b47e58"/><path d="M124.58,112.75c3.68.21,5.12-3.32,7.83-4.79,5.23-2.84,10.49-4.63,16.5-4.29,4.3.24,8.62,0,12.93,0,9.92,0,18.12,5.86,21.6,15.37.95,2.62,1.6,5.4,3.54,7.57.07.82.11,1.65.21,2.47,2.17,16.94-5.33,25.53-22.3,25.55-3.48,0-7-.35-10.43.06-12.34,1.48-22.61-1.37-29.09-12.93-.14-.24-.57-.32-.86-.48Q124.56,127.05,124.58,112.75Z" fill="#dcbaa1"/><path d="M62.45,129.72c2.08-6.31,3.81-12.73,8.66-17.75,4.48-4.64,8.58-9.3,16.16-8.35,7.18.89,14.51-.63,21.75,1,4.18.93,7.56,3.21,11.2,5.11a9.24,9.24,0,0,1,2.87,6.64c0,7.29.22,14.59-.06,21.88-.33,8.5-7.43,16.17-15.18,16.36-9.78.24-19.57.3-29.35,0s-18.61-12.55-16.3-22c.72-.27.82-.59.08-1Z" fill="#dcbaa1"/><path d="M62.45,129.72c-.06.65-.12,1.31-.17,2a2.94,2.94,0,0,0-.08,1c-2.31,9.4,6.6,21.67,16.3,22s19.57.22,29.35,0c7.75-.19,14.85-7.86,15.18-16.36.28-7.29.07-14.59.06-21.88a9.24,9.24,0,0,0-2.87-6.64c3.39-1.76,2.82,2.15,4.36,3q0,14.3-.07,28.59l-.24,8.36c-4.21,6-9.25,10.89-16.65,12.61-5.32,1.24-10.66,2.4-16.19,2.33-2,0-4.11-.39-5.23,1.93-2.28.43-2.58,2.29-2.91,4.08a210.47,210.47,0,0,0-3.07,21.92c-.27,3.49-.06,7.19-2.3,10.28L71.2,181.73c.22-11.48-3.75-21.63-9.92-31.09-2-5.15-2.21-10.53-2-16,1.69-1.44.62-3.72,1.69-5.39C62.17,127.38,62.13,129,62.45,129.72Z" fill="#b47e58"/><path d="M124.27,149.7l.24-8.36c.29.15.72.23.86.47,6.48,11.56,16.75,14.41,29.09,12.93,3.43-.41,6.95-.06,10.43-.06,17,0,24.47-8.61,22.3-25.55-.1-.82-.14-1.65-.21-2.47,2.57,1.2,1.44,4.37,3.18,6a103.69,103.69,0,0,1-1,19c-2.14.09-2.29,2.07-3.2,3.35-5.55,7.74-6.09,16.94-7.7,25.84-1.3,8.24-4.45,15.92-7.1,23.75-1.11-.79-.89-2-1-3.14-1-8.95-1.83-17.93-3.13-26.85-.35-2.37.06-5.46-2.83-7-.32-3.47-3-2.92-5.22-3-9.5-.19-18.68-1.55-26.79-7C129.79,154.78,127.57,151.7,124.27,149.7Z" fill="#c18c6a"/><path d="M65.78,216.44c2.06,15.51-.61,30.41-6.36,44.75-6.54,16.3-13.71,32.35-17.35,49.66a23.36,23.36,0,0,0-.71,6.38l-6.06-.14c.42-6.44,2.58-12.54,3.72-18.79,1.4-7.73,4.36-14.77,6.79-22.07,3.59-10.76,10.31-20.33,12-31.81,1.11-7.34,1.39-15.12-2.25-21.3s-9.81-10.74-14.2-16.61c-.37-11.85-.79-23.71,4-35,3.61.64,6-1.65,8.16-3.84,2.73-2.78,3.92-1.69,5.38,1.16,5.32,10.38,5,21.44,3.82,32.5a68.45,68.45,0,0,1-5.74,22C61.82,222.34,62,217.17,65.78,216.44Z" fill="#d6ae8f"/><path d="M209.09,317.17a180.88,180.88,0,0,0-13.67-43.92c-8.2-18.06-13.41-36.65-11.14-56.73,3.22,1.19,4.05,5.17,8.11,6.56a98.14,98.14,0,0,1-4.83-18.78c-1.95-11.6-1.75-23,2.84-34,2-4.89,3.42-5.26,7.21-1.69,1.87,1.76,3.83,3.19,6.55,3,3.29,8.13,5.72,16.36,5.1,25.34-.28,4-1.92,7.65-2.11,11.6-1.9,2.07-4,4-5.67,6.23-3.36,4.42-7.85,8-9.26,13.86-2.41,10-.24,19.31,3.95,28.33a229.65,229.65,0,0,1,16.77,48.42c2.36,10.93,2.19,11,12.17,11,1,.09,2.18-.17,3,.84Z" fill="#d6ae8f"/><path d="M242.15,342.39c1.27,11.63-10.35,20.92-20.23,20.78-11.66-.16-21.18-9.64-20.92-20.27.28-11.55,8.15-21,20.47-21.29C232.46,321.35,243.28,330.75,242.15,342.39Z" fill="#545353"/><path d="M41.4,206.51C45.79,212.38,52,217,55.6,223.12s3.36,14,2.25,21.3c-1.73,11.48-8.45,21.05-12,31.81-2.43,7.3-5.39,14.34-6.79,22.07-1.14,6.25-3.3,12.35-3.72,18.79l-4,.07c-1.82-1.44-3.95-.49-5.92-.77,1.84-22.71.31-45.47,1.11-68.18.49-13.75,5.13-26.57,11.88-38.55C39,208.43,40.37,207.55,41.4,206.51Z" fill="#dcbaa1"/><path d="M49.29,341.91C48,355.5,40,363.15,28.57,363c-13.42-.18-21.09-8.69-20.9-21.12.19-12.64,8.1-20.1,20.75-20.17S48.24,330.32,49.29,341.91Z" fill="#545353"/><path d="M25.35,316.39c2,.28,4.1-.67,5.92.77l-8.87,0C23.18,316.22,24.31,316.48,25.35,316.39Z" fill="#d6ae8f"/><path d="M225.11,316.4c-10,0-9.81-.07-12.17-11A229.65,229.65,0,0,0,196.17,257c-4.19-9-6.36-18.29-3.95-28.33,1.41-5.88,5.9-9.44,9.26-13.86,1.69-2.23,3.77-4.16,5.67-6.23,2.67-1.7,3.93.11,5,2.09A87.44,87.44,0,0,1,222,237.42a107.78,107.78,0,0,1,1.5,32.48,79.34,79.34,0,0,0,.38,23.27,43.87,43.87,0,0,1,.29,7.44C224.15,305.89,223.86,311.2,225.11,316.4Z" fill="#dcbaa1"/><path d="M77.92,202.85c2.24-3.09,2-6.79,2.3-10.28a210.47,210.47,0,0,1,3.07-21.92c.33-1.79.63-3.65,2.91-4.08a16.53,16.53,0,0,1,1,3.28c.91,8.78,4.18,11.23,12.73,8.94,8.71-2.33,17.66-4.08,25.34-9.25a13.72,13.72,0,0,0,7.42,4.38,140.14,140.14,0,0,1,13.69,4,18.21,18.21,0,0,0,14.75-.39c1.41,1,.52,1.82-.08,2.82-1.38,2.34-3.5,4.29-3.89,7.16-2.24.38-4.16-.49-6.14-1.43a64.48,64.48,0,0,0-13.93-5c-4.36-.92-8.51-1.1-11.83,2.6-3.36-1.56-6.36-3.64-10.56-3.15-8.08,1-14.47,6.43-22.34,7.78a1,1,0,0,0-.62.73c-.56,3.74-1.46,7.58.65,11.08,2.35,3.91,6.4,4.5,10.07,3.08,5-1.92,10.19-2.86,15.18-4.6,2.46-.86,5.15-1.47,6.59-4,6.18,5.4,14.45,5.21,21.56,8.09a11.78,11.78,0,0,0,11.39-1.08c.18,3.1-2.36,5.18-3,8-3.64,1.32-6.9.12-10.42-1-5.65-1.74-11.25-4.57-17.51-2.95-4.09-1.23-8-.48-12,.76-5.14,1.59-10.45,3.91-15.62,3.78-4.65-.13-4.89,2-5.35,4.94a11.92,11.92,0,0,0,2,8.46c-.77,6.55,2.56,12,4.69,17.82-.59-5.42.91-10.22,3.31-14.82,3.09,0,6.19,0,9.29,0,4.19,0,8.52.66,11.71-3.08,6.78,4.9,14.26,4.86,22,3.09a16,16,0,0,1,3,10.2c0,1.87-.81,4,.86,5.65-.34,2.77-1.58,5.24-2.7,7.75-1,2.3-.4,3.64,2.28,3.71-20.37,4.39-40.5,3.2-60.46-2.48-2.7-5.35-5.22-10.83-8.23-16-1-1.66-1-4.29-3.62-4.82q.75-6.83,1.49-13.64C79.45,212.17,79.62,207.44,77.92,202.85Z" fill="#c79777"/><path d="M149.73,253.87c-2.68-.07-3.31-1.41-2.28-3.71,1.12-2.51,2.36-5,2.7-7.75q3-9.87,6-19.73c-.26-4.46,1.14-9.16-2-13.18.66-2.78,3.2-4.86,3-8l0,0c.47-.23,2,.49,1-1.07.91-4.43,1.19-8.81-1-13,.39-2.87,2.51-4.82,3.89-7.16.6-1,1.49-1.83.08-2.82,2.46-2.85,1.25-6.84,3.08-9.89,2.89,1.52,2.48,4.61,2.83,7,1.3,8.92,2.15,17.9,3.13,26.85.13,1.14-.09,2.35,1,3.14-2.14,6.93.35,13.72.57,20.58,0,1.48.24,2.94.36,4.41-3.91,7.08-8.49,13.82-11,21.6A36.26,36.26,0,0,1,149.73,253.87Z" fill="#d6ac8d"/><path d="M77.42,230.56c2.59.53,2.65,3.16,3.62,4.82,3,5.18,5.53,10.66,8.23,16a30.19,30.19,0,0,1-14-6Q76.38,238,77.42,230.56Z" fill="#b47e58"/><path d="M161.1,251.17c2.54-7.78,7.12-14.52,11-21.6l2.16,15.77A27,27,0,0,1,161.1,251.17Z" fill="#b47e58"/><path d="M62.2,132.66a2.94,2.94,0,0,1,.08-1C63,132.07,62.92,132.39,62.2,132.66Z" fill="#d6ae8f"/><path d="M125.28,169.54c-7.68,5.17-16.63,6.92-25.34,9.25-8.55,2.29-11.82-.16-12.73-8.94a16.53,16.53,0,0,0-1-3.28c1.12-2.32,3.28-2,5.23-1.93,5.53.07,10.87-1.09,16.19-2.33,7.4-1.72,12.44-6.64,16.65-12.61,3.3,2,5.52,5.08,7.94,8-1.46-.21-2.93-.35-4.36-.66s-2.57-.11-2.48,1.4C125.58,162.12,124,165.82,125.28,169.54Z" fill="#d6ac8d"/><path d="M125.28,169.54c-1.24-3.72.3-7.42.09-11.15-.09-1.51,1.14-1.7,2.48-1.4s2.9.45,4.36.66c8.11,5.44,17.29,6.8,26.79,7,2.22.05,4.9-.5,5.22,3-1.83,3-.62,7-3.08,9.89a18.21,18.21,0,0,1-14.75.39,140.14,140.14,0,0,0-13.69-4A13.72,13.72,0,0,1,125.28,169.54Z" fill="#dcbaa1"/><path d="M154.17,209.5c3.14,4,1.74,8.72,2,13.17-3.34,1.22-6,4.1-9.92,3.89-7.72,1.77-15.2,1.81-22-3.09.09-6-.85-12.17,2-17.89,6.26-1.62,11.86,1.21,17.51,2.95C147.27,209.62,150.53,210.82,154.17,209.5Z" fill="#dcbaa1"/><path d="M157.17,187.48c2.19,4.2,1.91,8.58,1,13l-1,1.07,0,0a11.78,11.78,0,0,1-11.39,1.08c-7.11-2.88-15.38-2.69-21.56-8.08.05-3.66-.36-7.36,1-10.89,3.32-3.7,7.47-3.52,11.83-2.6a64.48,64.48,0,0,1,13.93,5C153,187,154.93,187.86,157.17,187.48Z" fill="#dcbaa1"/><path d="M125.27,183.65c-1.39,3.53-1,7.23-1,10.89-1.44,2.56-4.13,3.17-6.59,4-5,1.74-10.2,2.68-15.18,4.6-3.67,1.42-7.72.83-10.07-3.08-2.11-3.5-1.21-7.34-.65-11.08a1,1,0,0,1,.62-.73c7.87-1.35,14.26-6.82,22.34-7.78C118.91,180,121.91,182.09,125.27,183.65Z" fill="#d6ac8d"/><path d="M126.24,205.58c-2.82,5.72-1.88,11.86-2,17.89-3.19,3.74-7.52,3.13-11.71,3.08-3.1,0-6.2,0-9.29,0a13.8,13.8,0,0,1-8-3,11.92,11.92,0,0,1-2-8.46c.46-3,.7-5.07,5.35-4.94,5.17.13,10.48-2.19,15.62-3.78C118.25,205.1,122.15,204.35,126.24,205.58Z" fill="#d6ac8d"/><path d="M146.25,226.56c3.89.21,6.58-2.67,9.92-3.89q-3,9.87-6,19.74c-1.67-1.66-.91-3.78-.86-5.65A16,16,0,0,0,146.25,226.56Z" fill="#b47e58"/><path d="M95.27,223.52a13.8,13.8,0,0,0,8,3c-2.4,4.6-3.9,9.4-3.31,14.82C97.83,235.49,94.5,230.07,95.27,223.52Z" fill="#b47e58"/><path d="M157.17,201.56l1-1.07C159.13,202.05,157.64,201.33,157.17,201.56Z" fill="#c79777"/></g></g></svg>