<svg xmlns="http://www.w3.org/2000/svg" viewBox="0 0 625.19 643.95"><title>asset_6</title><g id="Layer_2" data-name="Layer 2"><g id="Layer_1-2" data-name="Layer 1"><path d="M391.93,587c10.38,2.82,18.35,8.85,23.47,18.29,2.23,4.09-.31,11.22-5,15.67-5.3,5-11.73,8.26-18.41,10.69-12.1,4.4-24.48,8-37.34,9.5-8.53,1-17,2.82-25.61,2.71-15.27-.19-30.56.79-45.8-1a300,300,0,0,1-37.93-7.3A80.19,80.19,0,0,1,218,622.8c-11-7.82-10.84-19.63.1-27.47,5-3.56,9.85-7.18,16-8.36-.64,2.84-2.58,4.86-4.4,6.95-4,4.61-6.44,9.75-5.57,16.05.41,5.56,3.07,8.39,9.36,9.71,4.42.93,8.94.65,13.4.37,10.25-.65,13.46-3.29,16.52-13.17a14.09,14.09,0,0,0,1.55-8.16c.59-7.47,1.73-14.83,4.55-21.84,11.15-1,22.29-2.38,33.47-2.78,17.84-.63,35.64.71,53.36,2.95,2.75,4.9,2.31,10.72,4.56,15.76a30,30,0,0,0,1.7,15.13c.73,4.43,2.74,8.16,7,9.85a38.08,38.08,0,0,0,25.68.89c4.25-1.31,7.15-4.15,6.34-9.22.34-6.76-2.21-12.36-6.86-17.11C393.36,590.84,391.61,589.47,391.93,587Z" fill="#ebece6"/><path d="M247.17,292.19c0-6,1.74-11.72,3.72-17.3,3.54-10,7-20.12,12.21-29.45a33.29,33.29,0,0,0,14,5.95c10.7,3.51,21.86,4.18,32.94,5.32.32.45.65.5,1,.05L313,257c-.45,27.55,1.07,55.12-.82,82.66-1.79,15.17-3.48,30.35-5.42,45.5-1.17,9.23-1.34,9.2-10.81,11.47a10.92,10.92,0,0,0-1.83.8l-16.84,1.53c-4.35-1.23-9-.22-13.3-1.8-.32-8.14-.49-16.29-1-24.41-1.16-18.08-1.82-36.23-5.11-54.09C256.13,309.17,253.53,299.87,247.17,292.19Z" fill="#181818"/><path d="M312.18,339.61c1.89-27.54.37-55.11.82-82.66,8.47-1,17.08-.85,25.38-3.19a35.86,35.86,0,0,0,10.61-2.4c4.82-1.06,9.62-2.17,13.12-6.07a2.18,2.18,0,0,1,1.87,1.39c5.53,14,12.26,27.56,14.74,42.6a22.45,22.45,0,0,1,.1,3c-5.85,6.32-8.19,14.32-9.81,22.36-5.48,27.24-5.87,54.95-7.1,82.57a57.1,57.1,0,0,1-13.3,1.14c-5.59-.24-11.19-.58-16.78-.87l-1-.72-.15-.35-.37.1c-1.15-.17-2.3-.39-3.45-.48-4.76-.37-6.9-2.39-7.34-7.66-1-12.21-2.77-24.38-4.74-36.49C314.16,347.77,315.38,343.17,312.18,339.61Z" fill="#393939"/><path d="M398.68,239.3c8.22-.51,16.26-1,24.25-2.53,24.32-4.78,43.91-17.32,59.89-35.88,3.35-3.89,6.28-8.13,9.36-12.25,1.93-2.57,2.33-4.47-1-6.9s-9-4.21-8.42-7.93c.39-2.55,6.87-2.59,10.64-3.58,12.68-3.33,25.45-6.26,38.15-9.53,3.16-.81,4.35-.54,4.29,3.2-.23,16-.16,31.92-.23,47.87,0,1.11.49,2.51-.71,3.21-1.57.93-2.37-.66-3.34-1.42-7.61-6-7.61-6-14.32.8-22.33,22.6-49,34.92-81.16,33.88C423.15,247.83,410.45,245.46,398.68,239.3Z" fill="#f8be7a"/><path d="M144.4,173.34a52,52,0,0,1-10,8.47c-2.62,1.84-2.82,3.74-1.14,6.27,18,27,42.12,44.7,74.78,49.55,3.11.47,6.26.79,9.4,1,3,.16,5.92,0,10.31,0-5.69,4.21-11.09,5.4-16.34,6.59-41.51,9.37-76.26-2.93-105.23-33.25-4.27-4.47-4.08-4.48-10-.23-1.66,1.19-3.22,4-5.16,3.13s-.77-3.91-.8-6c-.24-15.11.37-30.24-.61-45.34-.24-3.64,1.36-3.66,4.23-2.92C110.41,164.89,127,169,144.4,173.34Z" fill="#f8be7a"/><path d="M338.38,253.76C330.08,256.1,321.47,256,313,257l-1.95-.19-1-.05c-11.08-1.14-22.24-1.81-32.94-5.32-2.1-7.12-7.31-12.66-9.89-19.53a2.08,2.08,0,0,0-1.92-1.29c.49-8.8,2.82-17.5,1.61-26.4a11.62,11.62,0,0,0,1.21-5.25,48.21,48.21,0,0,1,2.24-17c1-3.12,0-7.87,4.68-9.31,2.88,6.49,6,8,13.22,6.1,4.94-1.28,9.8-2.85,14.73-4.19a19.5,19.5,0,0,0,10-5.88c.57,2.41,2.64,3.47,4.55,4.13,6.06,2.07,12.3,3.65,18.38,5.7A14.8,14.8,0,0,0,350,176.54c.33,4.59-4.15,7-5.05,11-4,.56-6.72-2.46-10.14-3.45-7.17-2.07-14.38-6.82-21.74-.4-3.84-3.41-8.09-3.18-13-2.44-6.85,1-12.65,4.61-18.87,7-3.66,1.39-2.06,6.61-1.23,10.37a5.83,5.83,0,0,0,7.08,4.72c8.9-2.06,18.33-2.83,26-8.72,1.65,1.59,3.2,3.32,5.57,3.93,5.27,1.36,10.62,2.49,15.78,4.2,4.44,1.47,8.09.46,11.6-2.16.66,3.54-3.31,5.51-3,8.93-3.19,1.44-6.25.93-9.49-.17-4.78-1.64-9.71-2.87-14.57-4.25-2.63-.74-4.89-.57-5.88,2.52-1.57-2-3-2.85-6.12-2.41-4.33.61-8.2,2.22-12.29,3.35-2.67.74-5.31,2.81-8,1.85-5-1.77-5.09,1.63-5.47,4.7a17.13,17.13,0,0,0,.95,8.26q2.57,8.61,5.12,17.23c0-5.24,2.45-9.5,3.87-14,7.41-.56,15.26,2,22-3.11,6.31,5.56,13.64,4.34,21,3.18,1.8,3.22,3.33,6.5,3.62,10.28.14,1.83-1.76,3.75.23,5.49a59.47,59.47,0,0,1-2.19,7.4C334.42,252.79,335.82,253.55,338.38,253.76Z" fill="#c79777"/><path d="M377,393.46c-1.1,10.09,1.31,20.21.57,30.12-1.21,16.29,3.71,31.84,3.86,47.9.08,8.63-.44,17.22-.8,25.8-.89,21.21-2,42.41-1.39,63.65-.9,1-2.08,1-3.29.9-4.79-.37-6.81-2.58-5-7.41a3,3,0,0,0,0-1q0-30.34,0-60.69c0-10.41-3.34-20.2-7-29.6-2.88-7.37-7.8-14.07-12.55-20.53-2.27-3.09-3.52-7.74-8.4-8.41-.33-.38-.65-.77-1-1.16l-.68-.81a66.74,66.74,0,0,1-7.9-25.17c5.56-1.47,11.2-2.66,16.64-4.47,5-1.68,10.65-2,14.89-5.78Z" fill="#d6ae8f"/><path d="M277.28,398.91l16.84-1.53c.42,2.87-.69,5.55-1.22,8.26-1.9,9.65-3.27,19.52-9.52,27.69a6.6,6.6,0,0,0-1.69.95,93.59,93.59,0,0,0-23,38.38c-1.74,5.71-3.49,11.47-3.54,17.38-.18,23.72,0,47.44,0,71.16a1.08,1.08,0,0,1-.81,0l-5.52-.07-2.12-.18c.75-22.94-.19-45.86-1.73-68.71-1.27-18.73.65-37.06,3.59-55.46.74-4.64-.28-9.56-.4-14.36a55,55,0,0,1,1.95-15.25c6.91-.19,13.16-3.13,19.68-4.87C272.45,401.65,275.48,401.5,277.28,398.91Z" fill="#d6ae8f"/><path d="M37,101.18a5.52,5.52,0,0,1,4.36-.34c12.87,3.87,25.64,0,38.4-.63,19.14-1,38.16-4.47,57.41-3.3,4.71.29,9.62.12,14.09,2.27-.19,2.14.16,4.52-.67,6.37-2.19,4.89-3.21,9.67-1.55,14.94.43,1.37.7,3.19-1.52,4.16-12.58,5.46-25.28,6.5-38.58,2.49-17.46-5.25-35.24-9-53.65-8.43-1.9.05-3.67,0-4.64-2,0-.7,0-1.39,0-2.09a1.87,1.87,0,0,0,0-2.81l-.14-2.15a3.25,3.25,0,0,0,.23-.37c-.21-.16-.45-.3-.68-.45Z" fill="#dcbaa1"/><path d="M473.55,99.38c12.63-3.76,25.58-3,38.43-2.24,13.19.78,26.34,2.38,39.51,3.6,6.42.6,12.85,1,19.25,1.77,4,.47,7.91-.35,11.77-1.24a14,14,0,0,1,6.37-.39,9,9,0,0,1-2.26,1.79c-9.1,3.18-13.49,9.19-11.75,19-1.69-.92-.54-4.85-4.06-3.81-6.28,1.85-12.8.49-19.21,1.67-11.19,2.06-22.41,3.86-33.36,7a97.86,97.86,0,0,1-16.45,3.23c-8.46.9-15.7-3-23.39-5.19-2.48-.69-2.19-2.65-1.46-4.43a13.77,13.77,0,0,0-.25-10.64A50.69,50.69,0,0,1,473.55,99.38Z" fill="#dcbaa1"/><path d="M341.38,40.71a3.34,3.34,0,0,1,3.32,1.68c1.79,3.5-.67,14.88-4.42,16.28-4.36,1.62-4.71,4.92-4.91,8.12-.32,5.19-1.32,10.53.88,15.62-2.62,5.27-.52,10.89-1.25,16.31-2.43.39-4.42,1.86-6.92,2.37a9.18,9.18,0,0,0-7,5.59l-2.88.1-1.13.8-1,.15a2.28,2.28,0,0,1-2.17-1.19l.18-3.81c3-1.26,3.37-4.38,4.26-6.85,2.51-6.89,7.45-12.7,8.72-20.11.43-1.29,2.47-1.82,1.6-4.06-3.27.49-5.33,3.58-8.47,4.23-1.09-.17-2.18-.34-3.12.47l-3.94-.08L313,11.63a31.75,31.75,0,0,1,18.93,4.71c1.37.83,3.3,1.58,3,3.55C333.88,28,339.42,35,338.51,43.14c.77-.28,1.14-.3,1.32-.5C340.38,42,340.86,41.36,341.38,40.71Z" fill="#e1c4b0"/><path d="M313,11.63l.15,64.7C305.48,79,300.8,72,294,69.62c1,3.73,4.31,4.48,5,7.17-.15,3.33,1.95,5.9,3.22,8.66,3.31,7.22,6.27,14.66,10.81,21.26a7,7,0,0,0,1,4.05c-.32,1.32-.66,2.45-2.09.73-1.66-2-3-4.34-6-4.77l.05,0c-.65-1-1.32-1.11-2,0-2.23-1-4.69-1.73-6.67-3.11-4.42-3.09-9.85-.54-14.32-2.9,1.46-1.6,3.39-.77,5.12-1,1.13-.15,2.71,0,2.65-1.54-.24-5.28,1.66-10.74-1.12-15.84a69,69,0,0,0-.65-21.56c-.6-5.83-2.72-11.48-2.12-17.46-1.2-6.24,3.61-11.41,3.25-17.4-.46-7.73,4.05-10.88,10.5-12.73A33,33,0,0,1,313,11.63Z" fill="#d6ac8d"/><path d="M399.93,90.63c6.41,3,12.91,3,20,2.35,14.54-1.38,28.7,1.35,42.15,7.29a17,17,0,0,0,2.87.75c-.15,1.53.69,2.09,2,2.94,5.66,3.77,6.75,10,2.37,13.71a28.85,28.85,0,0,1-16.72,6.87c-20.27,1.21-39.44-2.68-56.7-14,0-.63.08-1.26.13-1.89h0l1-1v0a2.1,2.1,0,0,0,1.06-2h.45l.44,0a2,2,0,0,0,1.05-2C402.69,99.37,402.75,95,399.93,90.63Z" fill="#dcbaa1"/><path d="M247.17,292.19c6.36,7.68,9,17,10.7,26.42,3.29,17.86,3.95,36,5.11,54.09.51,8.12.68,16.27,1,24.41-5.28-.36-10.09-2.67-15.21-3.68-8.77-2.65-10.69-8.3-9.72-17.24,2.89-26.71,4.77-53.52,7.06-80.29C246.22,294.61,246,293.2,247.17,292.19Z" fill="#31b0b8"/><path d="M377,393.46l-12,3.35-3.1.37c1.23-27.62,1.62-55.33,7.1-82.57,1.62-8,4-16,9.81-22.36,2.42,6.64,2.17,13.69,2.79,20.55,2,22.63,3.38,45.31,5.44,67.93.53,5.8-1.11,9.16-6.55,10.88A22.27,22.27,0,0,0,377,393.46Z" fill="#31b0b8"/><path d="M202.24,93.62l1.95.24a1.93,1.93,0,0,0,1.91,1.85c5.93.83,11.8,1.93,17.08,5,2.82.49,2.73,3.89,5,5-1.52,1.58-.33,1.84,1,2h0l1,1,0,0a5.49,5.49,0,0,0-.07.91l0,1.08a91.94,91.94,0,0,1-25.27,10.68c-15.16,3.67-30.14,6.1-45-1.28-5.93-3-7.54-9.27-3.25-14.27,1.3-1.51,2.93-2.76,2.56-5.08a12,12,0,0,0,5.77-1c7-3.55,14.67-4.77,22.34-5.88C192.31,95,197.3,95.66,202.24,93.62Z" fill="#dcbaa1"/><path d="M159.19,100.76c.37,2.32-1.26,3.57-2.56,5.08-4.29,5-2.68,11.32,3.25,14.27,14.83,7.38,29.81,5,45,1.28a91.94,91.94,0,0,0,25.27-10.68h1l0,0-.06,9a11.63,11.63,0,0,0-4.82,2.42c-7.62,5.36-16.14,8.45-25.14,10.83-7.22,1.9-14.88.51-21.82,3.61-3.72.38-7.3-.54-10.83-1.41-6.79-1.67-13.28-2.43-20.48-.74-15.29,3.58-30.79,2.31-45.84-1.86a259.89,259.89,0,0,0-51.45-8.72V116.7c1,2,2.74,2.06,4.64,2,18.41-.53,36.19,3.18,53.65,8.43,13.3,4,26,3,38.58-2.49,2.22-1,1.95-2.79,1.52-4.16-1.66-5.27-.64-10,1.55-14.94.83-1.85.48-4.23.67-6.37C153.91,99.77,156.74,99.3,159.19,100.76Z" fill="#d6ae8f"/><path d="M395.84,110.56c17.27,11.3,36.44,15.19,56.71,14a28.85,28.85,0,0,0,16.72-6.87c4.38-3.67,3.29-9.94-2.37-13.71-1.27-.85-2.11-1.41-2-2.94a33.36,33.36,0,0,1,8.61-1.64,50.69,50.69,0,0,0,3.14,10.12,13.77,13.77,0,0,1,.25,10.64c-.73,1.78-1,3.74,1.46,4.43,7.69,2.16,14.93,6.09,23.39,5.19a97.86,97.86,0,0,0,16.45-3.23c11-3.12,22.17-4.92,33.36-7,6.41-1.18,12.93.18,19.21-1.67,3.52-1,2.37,2.89,4.06,3.81,0,.65,0,1.29,0,1.94-7.08,1.93-14.45,1-21.64,2.3-10.93,1.93-21.67,4.6-32.45,7.18-16.35,3.92-32.73,4.41-49.08,0a12.22,12.22,0,0,0-6.35.18c-6.09,1.52-12.19,3.06-18.52,3.21-3.33-2.2-7.21-1.21-10.8-1.66-13.24-1.66-25.82-4.89-36.67-13.11a8,8,0,0,0-4.45-2A13.39,13.39,0,0,1,395.84,110.56Z" fill="#d6ae8f"/><path d="M306,106.72c2.92.43,4.29,2.79,6,4.77,1.43,1.72,1.77.59,2.09-.73.67-1,1.34-2,2-3l1-.15,1.13-.8,2.88-.09c-5.34,3.75-6.51,9-6.11,15.21.35,5.29.05,10.61.09,15.92.07,9.54,7,16.54,16.57,16.82,4.15.13,8.3.07,12.44.09.08,1.5,1.21,1.55,2.33,2,10.49,4.28,19.3,10.07,19.67,23a2.69,2.69,0,0,0,2.83,2.81l-10,22.91L356,184.32c-.57-4.16-1.09-8.33-3.9-11.74a6.18,6.18,0,0,0-4.22-3.89c-10-2.61-19.42-6.75-28.72-11.16-.4-2.54-2.88-3.54-4.07-5.47-1.75-2.81-2.74-2.23-4.54.18A28.8,28.8,0,0,1,299,161.31c-6.52,2.93-13.47,4.49-20.06,7.14-2.06.83-4.23,1.24-3.94,4.16-4.7,1.44-3.66,6.19-4.68,9.31a48.21,48.21,0,0,0-2.24,17,11.62,11.62,0,0,1-1.21,5.25,140.38,140.38,0,0,1-9.61-20.66,41.14,41.14,0,0,0,2.26-5.9c1.94-8.78,6.93-14.7,15.1-18.67,2.41-1.17,5.74-1.47,7.39-4.22,4.15,0,8.3.05,12.45-.07,7.6-.22,14.81-5.34,15.53-12.81C311.15,130,314.45,117.59,306,106.72Z" fill="#c18c6a"/><path d="M246.75,561l2.12.18a4.61,4.61,0,0,0,5.52.07,1.08,1.08,0,0,0,.81,0c4.1-.44,8.14-.4,11.85,1.77-6.5,8.52-10.06,18.2-9.83,28.86.18,8-.21,15.46-6.21,21.5-4.95.23-9.83-1.39-14.82-.46a13.83,13.83,0,0,1-12-2.9c-.87-6.3,1.56-11.44,5.57-16.05,1.82-2.09,3.76-4.11,4.4-6.95,5.15-5.14,6.12-11.84,6.95-18.59.18-1.47,0-3,.25-4.46C241.87,560.7,243.47,559.25,246.75,561Z" fill="#dad8ea"/><path d="M375.94,561.83c1.21.13,2.39.14,3.29-.9,2.88-1.15,4.52-.45,5.22,2.83a36.45,36.45,0,0,1,.52,5.86,26.85,26.85,0,0,0,7,17.36c-.32,2.49,1.43,3.86,2.91,5.37,4.65,4.75,7.2,10.35,6.86,17.11a10.06,10.06,0,0,1-9.79,3.55c-5.15-.81-10.25-.07-15.37.29-4.93-2.88-7.72-6.88-7.63-12.88a83.17,83.17,0,0,0-.46-12.89c-1.19-8.63-4.88-16.39-7.5-24.52,1.65-2.82,4.25-2.19,6.62-1.61A23.16,23.16,0,0,0,375.94,561.83Z" fill="#dad8ea"/><path d="M228.15,105.68c-2.24-1.07-2.15-4.47-5-5a12.39,12.39,0,0,1,3-10.06c12.75-4.77,25.25-3,37.64,1.48,1.39.51,2.79,1,4.18,1.5a18.76,18.76,0,0,1,4.19,7c.08,3.44-2.19,6.1-4.35,7.77-5.55,4.26-11.66,7.59-18.92,8.68-3.34.51-7.41-.24-10,3.06l-7.74-9.49,0,0c0-.29-.07-.58-.12-.87l-.87-1.12,0,0-1-1h0A2.17,2.17,0,0,0,228.15,105.68Z" fill="#e1c4b0"/><path d="M399.93,90.63c2.82,4.36,2.76,8.74,0,13.11a2.1,2.1,0,0,0-1.05,2l-.44,0H398a1.91,1.91,0,0,0-1.06,2v0l-1,1h0c-3.62,2.59-4.89,7-7.82,10.12-8-.68-16.24-1.29-23.11-5.77-4.61-3-11.12-4.93-11.09-12.34.09-2.83,2.84-4.46,3.21-7.17,9.12-2.66,18.05-6.11,27.82-5.73A45.46,45.46,0,0,1,399.93,90.63Z" fill="#e1c4b0"/><path d="M352.1,172.58c2.81,3.41,3.33,7.58,3.9,11.74l2.88,21.16c-1.57,8.09,1.58,16,1.2,24-2.82,5-5.66,10-8.44,15-1.18,2.15-2.77,4.18-2.65,6.85a35.86,35.86,0,0,1-10.61,2.4c-2.56-.21-4-1-2.64-4a59.47,59.47,0,0,0,2.19-7.4A144.67,144.67,0,0,0,344,222.63c1.4-4.52,1.74-9-1-13.16-.3-3.42,3.67-5.39,3-8.93l0,0c.68-.3.74-.63,0-1,.85-4.12,1.64-8.24-1.06-12.06.9-4,5.38-6.39,5.05-11A5.14,5.14,0,0,1,352.1,172.58Z" fill="#d6ac8d"/><path d="M388.16,118.8c2.93-3.13,4.2-7.53,7.82-10.12-.05.63-.09,1.26-.13,1.89a13.3,13.3,0,0,0-.92,9.16c-.05,2.27,0,4.43,1.63,6.36,1,1.17,1.83,2.76.39,4.34l-2,0c-.77-.82-1.42-.67-2,.24a9.92,9.92,0,0,0-5.68,7.16c-2.88,16.28-9.89,30.82-18.41,44.77a2.69,2.69,0,0,1-2.83-2.81c-.37-13-9.18-18.75-19.67-23-1.12-.45-2.25-.5-2.33-2,3.66,0,7.32-.28,10.95,0,7.22.5,12.58-2.66,16.51-8.3A274,274,0,0,0,388.16,118.8Z" fill="#b47e58"/><path d="M231.12,110.66l7.74,9.49a139.13,139.13,0,0,0,16.6,27.51c4,5.27,9.47,7.49,16.13,7,3.47-.24,7,0,10.45,0-1.65,2.75-5,3.05-7.39,4.22-8.17,4-13.16,9.89-15.1,18.67a41.14,41.14,0,0,1-2.26,5.9c-5.62-10-11.55-19.81-15-30.84-1.37-4.43-2.36-9-3.46-13.49-1.48-6.08-3.71-8.11-9.75-8.74-1.17-1.33-.6-2.57,0-4,1-2.16,2.06-4.34,1.89-6.84Z" fill="#b47e58"/><path d="M50.68,116.7v7.08a8.08,8.08,0,0,0-.27,2.45c2,9.46-2.13,15.08-10.85,18.45-5.05,1.95-9.36,7.47-14.37,7.17-4.74-.29-9-5.34-13.9-7.23-9.07-3.5-10.92-9.55-11.25-19C-.4,113.62,2.91,106.78,14,101c8.76-4.57,15.38-5.64,23.07.17l13.06,7.65a1.45,1.45,0,0,0,.45.82c.05.72.1,1.44.14,2.15v2.81C50.67,115.31,50.68,116,50.68,116.7Zm-4.37,7.73c-.2-13.26-9.18-20.84-20.86-21.18-12.86-.37-19.77,8.66-20.88,20.2-1,10.21,9.94,21,20.12,21.25C38.4,145.05,46.37,132.78,46.31,124.43Z" fill="#393939"/><path d="M574.89,123.63c0-.65,0-1.29,0-1.94-1.74-9.83,2.65-15.84,11.75-19a9,9,0,0,0,2.26-1.79c1.08-.43,2.38-.6,3.19-1.33,6.17-5.56,11.73-3.37,17.6.77,4.71,3.32,11.85,4.86,14.36,9.23s0,11.4.87,17.09c1.33,9-1.78,14.54-10.28,17.88-5,2-9.59,7.31-14.37,7.31s-9.56-4.73-14.31-7.44c-3.45-2-6.86-4-10.29-6-.16-4.54.49-9.1-.36-13.63Zm45.87.78c.43-12.91-9.32-21.32-20.71-21.29s-19.85,8.61-20.53,20.43c-.59,10.06,10.22,21.58,20.52,21.21C611.22,144.36,620.72,135.45,620.76,124.41Z" fill="#393939"/><path d="M313,11.63a33,33,0,0,0-12.27,1.55c-6.45,1.85-11,5-10.5,12.73.36,6-4.45,11.16-3.25,17.4l-2.89-2.5c.05-3.83.41-7.68.1-11.47C282.32,6.72,306.39-5.82,325.47,2.66,334,6.47,339.16,12.89,341.26,21.9q.09,8.43.2,16.87c0,.65-.06,1.3-.08,1.94-.52.65-1,1.32-1.55,1.93-.18.2-.55.22-1.32.5.91-8.18-4.63-15.11-3.57-23.25.26-2-1.67-2.72-3-3.55A31.75,31.75,0,0,0,313,11.63Z" fill="#393939"/><path d="M272.14,100.64a18.76,18.76,0,0,0-4.19-7,57.51,57.51,0,0,1,21.77-11.31c2.78,5.1.88,10.56,1.12,15.84.06,1.5-1.52,1.39-2.65,1.54-1.73.22-3.66-.61-5.12,1Z" fill="#c79777"/><path d="M357.17,93.52c-.37,2.71-3.12,4.34-3.21,7.17-6.37-.17-12.88,1-19-2,.73-5.42-1.37-11,1.25-16.31A47.36,47.36,0,0,1,357.17,93.52Z" fill="#d6ae8f"/><path d="M231.06,119.65c.17,2.5-.9,4.68-1.89,6.84-.64,1.38-1.21,2.62,0,4a92.88,92.88,0,0,1-43.42,6.86c-2.15-.18-4.29-.52-6.43-.79,6.94-3.1,14.6-1.71,21.82-3.61,9-2.38,17.52-5.47,25.14-10.83A11.63,11.63,0,0,1,231.06,119.65Z" fill="#c79777"/><path d="M397,130.43c1.44-1.58.62-3.17-.39-4.34-1.65-1.93-1.68-4.09-1.63-6.36a8,8,0,0,1,4.45,2c10.85,8.22,23.43,11.45,36.67,13.11,3.59.45,7.47-.54,10.8,1.66A90.53,90.53,0,0,1,397,130.43Z" fill="#c79777"/><path d="M248.77,393.43c5.12,1,9.93,3.32,15.21,3.68,4.3,1.58,8.95.57,13.3,1.8-1.8,2.59-4.83,2.74-7.44,3.44-6.52,1.74-12.77,4.68-19.68,4.87C248.06,402.79,249.66,398,248.77,393.43Z" fill="#b47e58"/><path d="M349,251.36c-.12-2.67,1.47-4.7,2.65-6.85,2.78-5,5.62-10,8.44-15a71,71,0,0,1,2,15.83C358.61,249.19,353.81,250.3,349,251.36Z" fill="#c79777"/><path d="M265.29,230.57a2.08,2.08,0,0,1,1.92,1.29c2.58,6.87,7.79,12.41,9.89,19.53a33.29,33.29,0,0,1-14-5.95Z" fill="#b47e58"/><path d="M284.06,40.81l2.89,2.5c-.6,6,1.52,11.63,2.12,17.46-5.79-2.69-9.91-10.6-8.69-16.72C280.78,42.05,281.78,40.69,284.06,40.81Z" fill="#dcbaa1"/><path d="M226.13,90.66a12.39,12.39,0,0,0-3,10.06c-5.27-3.08-11.14-4.18-17.07-5a1.93,1.93,0,0,1-1.91-1.85C211.7,94.16,219.14,94,226.13,90.66Z" fill="#d6ae8f"/><path d="M202.24,93.62c-4.94,2-9.93,1.37-14.94.31l1.9-.18c1.66-.15,3.46.55,4.92-.79C196.84,93,199.66,91.84,202.24,93.62Z" fill="#d6ae8f"/><path d="M341.46,38.77q-.1-8.45-.2-16.87C342.67,27.51,342.35,33.13,341.46,38.77Z" fill="#e1c4b0"/><path d="M575.29,124.72c.85,4.53.2,9.09.36,13.63C574,133.85,574.76,129.28,575.29,124.72Z" fill="#c79777"/><path d="M194.12,93c-1.46,1.34-3.26.64-4.92.79C190.66,92.33,192.43,92.9,194.12,93Z" fill="#dcbaa1"/><path d="M393,130.64c.57-.91,1.22-1.06,2-.24Z" fill="#c79777"/><path d="M355.15,566.28c-.07-2.5-.43-5.12,2.52-6.44,1.57.56,1.07,3.27,3.28,3.17,2.62,8.13,6.31,15.89,7.5,24.52a83.17,83.17,0,0,1,.46,12.89c-.09,6,2.7,10,7.63,12.88-4.39.9-7.94-.63-11.06-3.65-.78-.75-1-2.69-2.83-1.71a30,30,0,0,1-1.7-15.13C363.73,582.94,361.88,574.08,355.15,566.28Z" fill="#c5c3dd"/><path d="M268.3,559.82c3.05,1.27,2.68,3.92,2.63,6.44-1.93.71-2.49,2.57-3.33,4.12-4.94,9.06-4.36,18.65-2.59,28.34a14.09,14.09,0,0,1-1.55,8.16c-3.71,3-6.67,7.44-12.45,6.45,6-6,6.39-13.52,6.21-21.5-.23-10.66,3.33-20.34,9.83-28.86C267.07,561.76,267.1,560.56,268.3,559.82Z" fill="#c5c3dd"/><path d="M362.65,607.94c1.86-1,2.05,1,2.83,1.71,3.12,3,6.67,4.55,11.06,3.65,5.12-.36,10.22-1.1,15.37-.29a10.06,10.06,0,0,0,9.79-3.55c.81,5.07-2.09,7.91-6.34,9.22a38.08,38.08,0,0,1-25.68-.89C365.39,616.1,363.38,612.37,362.65,607.94Z" fill="#393939"/><path d="M251,613.33c5.78,1,8.74-3.44,12.45-6.45-3.06,9.88-6.27,12.52-16.52,13.17-4.46.28-9,.56-13.4-.37-6.29-1.32-8.95-4.15-9.36-9.71a13.83,13.83,0,0,0,12,2.9C241.18,611.94,246.06,613.56,251,613.33Z" fill="#393939"/><path d="M265,598.72c-1.77-9.69-2.35-19.28,2.59-28.34.84-1.55,1.4-3.41,3.33-4.12a22.88,22.88,0,0,1-1.37,10.62C266.74,583.89,265.6,591.25,265,598.72Z" fill="#545353"/><path d="M355.15,566.28c6.73,7.8,8.58,16.66,5.8,26.53-2.25-5-1.81-10.86-4.56-15.76C355.44,573.52,354.32,570,355.15,566.28Z" fill="#545353"/><path d="M310,256.71l1,.05C310.69,257.21,310.36,257.16,310,256.71Z" fill="#393939"/><path d="M333.48,407.06c-.68-3.18-1.87-6.28-1.65-9.61,5.59.29,11.19.63,16.78.87a57.1,57.1,0,0,0,13.3-1.14l3.1-.37c-4.24,3.76-9.85,4.1-14.89,5.78C344.68,404.4,339,405.59,333.48,407.06Z" fill="#b47e58"/><path d="M330.87,396.73l-.36.1-.17-.36s.38-.09.38-.09Z" fill="#b47e58"/><path d="M343,209.47c2.74,4.2,2.4,8.64,1,13.16a26.63,26.63,0,0,1-9.91,4c-7.33,1.16-14.66,2.38-21-3.18l-.06-15.85c1-3.09,3.25-3.26,5.88-2.52,4.86,1.38,9.79,2.61,14.57,4.25C336.74,210.4,339.8,210.91,343,209.47Z" fill="#dcbaa1"/><path d="M345,187.52c2.7,3.82,1.91,7.94,1.06,12.06,0,.33,0,.66,0,1l0,0c-3.51,2.62-7.16,3.63-11.6,2.16-5.16-1.71-10.51-2.84-15.78-4.2-2.37-.61-3.92-2.34-5.57-3.93l0-10.9c7.36-6.42,14.57-1.67,21.74.4C338.24,185.06,341,188.08,345,187.52Z" fill="#dcbaa1"/><path d="M313.08,183.67l0,10.9c-7.63,5.89-17.06,6.66-26,8.72a5.83,5.83,0,0,1-7.08-4.72c-.83-3.76-2.43-9,1.23-10.37,6.22-2.36,12-5.93,18.87-7C305,180.49,309.24,180.26,313.08,183.67Z" fill="#d6ac8d"/><path d="M313.05,207.57l.06,15.85c-6.78,5.07-14.63,2.55-22,3.11-3.43.13-5.9-2.41-9-3.21a17.13,17.13,0,0,1-.95-8.26c.38-3.07.43-6.47,5.47-4.7,2.73,1,5.37-1.11,8-1.85,4.09-1.13,8-2.74,12.29-3.35C310,204.72,311.48,205.56,313.05,207.57Z" fill="#d6ac8d"/><path d="M275,172.61c-.29-2.92,1.88-3.33,3.94-4.16,6.59-2.65,13.54-4.21,20.06-7.14a28.8,28.8,0,0,0,11.52-9.07c1.8-2.41,2.79-3,4.54-.18,1.19,1.93,3.67,2.93,4.07,5.48-6.11-1.3-6.11-1.3-6.12,5.16,0,2,0,4,0,5.94a19.5,19.5,0,0,1-10,5.88c-4.93,1.34-9.79,2.91-14.73,4.19C281,180.59,277.91,179.1,275,172.61Z" fill="#d6ac8d"/><path d="M313,168.64c0-2,0-4,0-5.94,0-6.46,0-6.46,6.12-5.16,9.3,4.4,18.71,8.54,28.72,11.15a6.18,6.18,0,0,1,4.22,3.89,5.14,5.14,0,0,0-2.09,4A14.8,14.8,0,0,1,336,178.47c-6.08-2.05-12.32-3.63-18.38-5.7C315.67,172.11,313.6,171.05,313,168.64Z" fill="#dcbaa1"/><path d="M334.08,226.6a26.63,26.63,0,0,0,9.91-4,144.67,144.67,0,0,1-6.06,19.74c-2-1.74-.09-3.66-.23-5.49C337.41,233.1,335.88,229.82,334.08,226.6Z" fill="#b47e58"/><path d="M282.08,223.32c3.09.8,5.56,3.34,9,3.21-1.42,4.52-3.89,8.78-3.87,14Q284.64,231.94,282.08,223.32Z" fill="#b47e58"/><path d="M361,563c-2.21.1-1.71-2.61-3.28-3.17-.27-9.92-2-19.7-3.13-29.52-.76-6.4-1.8-12.77-2.55-19.17a38.5,38.5,0,0,0-3.48-11.84c-7.58-16.26-7.31-33.45-6-50.72.36-4.8.44-9.59.55-14.39,4.88.67,6.13,5.32,8.4,8.41,4.75,6.46,9.67,13.16,12.55,20.53,3.67,9.4,7,19.19,7,29.6q0,30.35,0,60.69a3,3,0,0,1,0,1c-1.84,4.83.18,7,5,7.41a23.16,23.16,0,0,1-8.37-.43C365.2,560.82,362.6,560.19,361,563Z" fill="#dcbaa1"/><path d="M342.06,433l-.68-.81Z" fill="#dcbaa1"/><path d="M268.3,559.82c-1.2.74-1.23,1.94-1.25,3.15-3.71-2.17-7.75-2.21-11.85-1.77,0-23.72-.19-47.44,0-71.16.05-5.91,1.8-11.67,3.54-17.38a93.59,93.59,0,0,1,23-38.38,6.6,6.6,0,0,1,1.69-.95c-1.27,9,.51,17.84.79,26.75.47,14.81-1.76,28.94-8.1,42.46-2.68,5.71-2.66,12.24-3.57,18.4-1.79,12.09-3,24.27-4.37,36.41A13.74,13.74,0,0,0,268.3,559.82Z" fill="#dcbaa1"/><path d="M254.39,561.25a4.61,4.61,0,0,1-5.52-.07Z" fill="#dcbaa1"/><path d="M50.67,114.61V111.8A1.87,1.87,0,0,1,50.67,114.61Z" fill="#d6ae8f"/><path d="M50.54,109.65a1.45,1.45,0,0,1-.45-.82c.23.15.47.29.68.45A3.25,3.25,0,0,1,50.54,109.65Z" fill="#d6ae8f"/><path d="M335,98.72c6.08,2.93,12.59,1.8,19,2,0,7.41,6.48,9.34,11.09,12.34,6.87,4.48,15.08,5.09,23.11,5.77a274,274,0,0,1-16.66,27.6c-3.93,5.64-9.29,8.8-16.51,8.3-3.63-.25-7.29,0-10.95,0-4.14,0-8.29,0-12.44-.09-9.62-.28-16.5-7.28-16.57-16.82,0-5.31.26-10.63-.09-15.92-.4-6.17.77-11.46,6.11-15.21a9.17,9.17,0,0,1,7-5.6C330.58,100.58,332.57,99.11,335,98.72Z" fill="#dcbaa1"/><path d="M313,106.71c-4.54-6.6-7.5-14-10.81-21.26-1.27-2.76-3.37-5.33-3.22-8.66a4,4,0,0,1,3.28,1.82c2.78,3.53,6.47,4.64,10.78,4.19.57,6.63-1.31,13.39,1,19.93l-.18,3.81Z" fill="#c18c6a"/><path d="M313.07,82.8c-4.31.45-8-.66-10.78-4.19A4,4,0,0,0,299,76.79c-.69-2.69-4-3.44-5-7.17C300.8,72,305.48,79,313.12,76.33l3.94.08c1.1.29,2.19.45,3.12-.47,3.14-.65,5.2-3.74,8.47-4.23.87,2.24-1.17,2.77-1.6,4.06C322.86,79.05,319.58,84.12,313.07,82.8Z" fill="#b47e58"/><path d="M313.07,82.8c6.51,1.32,9.79-3.75,14-7-1.27,7.41-6.21,13.22-8.72,20.11-.89,2.47-1.24,5.59-4.26,6.85C311.76,96.19,313.64,89.43,313.07,82.8Z" fill="#c79777"/><path d="M313,106.71l.85-.17a2.28,2.28,0,0,0,2.17,1.19c-.66,1-1.33,2-2,3A7,7,0,0,1,313,106.71Z" fill="#dcbaa1"/><path d="M320.18,75.94c-.93.92-2,.76-3.12.47C318,75.6,319.09,75.77,320.18,75.94Z" fill="#d6ac8d"/><path d="M318.17,106.78l-1.13.8Z" fill="#dcbaa1"/><path d="M272.14,100.64l10.93.06c4.47,2.36,9.9-.19,14.32,2.9,2,1.38,4.44,2.09,6.67,3.11l2,0-.05,0c8.43,10.87,5.13,23.27,4,35.12-.72,7.47-7.93,12.59-15.53,12.81-4.15.12-8.3,0-12.45.07-3.48,0-7-.27-10.45,0-6.66.46-12.08-1.76-16.13-7a139.13,139.13,0,0,1-16.6-27.51c2.6-3.3,6.67-2.55,10-3.06,7.26-1.09,13.37-4.42,18.92-8.68C270,106.74,272.22,104.08,272.14,100.64Z" fill="#dcbaa1"/><path d="M306.07,106.75l-2,0C304.75,105.64,305.42,105.76,306.07,106.75Z" fill="#c18c6a"/><path d="M398.9,105.72a2.1,2.1,0,0,1,1.05-2A2,2,0,0,1,398.9,105.72Z" fill="#d6ae8f"/><path d="M397,107.69a1.91,1.91,0,0,1,1.06-2A2.1,2.1,0,0,1,397,107.69Z" fill="#d6ae8f"/><path d="M396,108.67l1-1Z" fill="#d6ae8f"/><path d="M228.15,105.68a2.17,2.17,0,0,1,1,2C227.82,107.52,226.63,107.26,228.15,105.68Z" fill="#d6ae8f"/><path d="M231,109.84c.05.29.08.58.12.87h-1l0-1.08Z" fill="#b47e58"/><path d="M231,109.84l-.94-.21a5.49,5.49,0,0,1,.07-.91Z" fill="#d6ae8f"/><path d="M229.14,107.7l1,1Z" fill="#d6ae8f"/><path d="M346,200.57c0-.33,0-.66,0-1C346.72,199.94,346.66,200.27,346,200.57Z" fill="#c79777"/><path d="M46.31,124.43c.06,8.35-7.91,20.62-21.62,20.27-10.18-.27-21.1-11-20.12-21.25,1.11-11.54,8-20.57,20.88-20.2C37.13,103.59,46.11,111.17,46.31,124.43Z" fill="#545353"/><path d="M620.76,124.41c0,11-9.54,20-20.72,20.35-10.3.37-21.11-11.15-20.52-21.21.68-11.82,9.14-20.41,20.53-20.43S621.19,111.5,620.76,124.41Z" fill="#545353"/></g></g></svg>