<svg xmlns="http://www.w3.org/2000/svg" viewBox="0 0 405.08 489.01"><title>ex_d2_5_1</title><g id="Layer_2" data-name="Layer 2"><g id="Layer_1-2" data-name="Layer 1"><path d="M392.21,321.27q-.07,56.31-.15,112.63c0,2.48-.19,5-.29,7.45a164.47,164.47,0,0,0-22.2.15c-.13-1.82-.39-3.64-.38-5.46,0-20.7.34-41.39.59-62.09.12-9.72-.44-19.56-.59-29.35-.11-6.57,0-6.57-6.38-6.57H278.9l-189.28.1,2.82-17.86,2.21.39.28.22.24-.26c2.16-.06,4.32-.18,6.48-.18l281.49,0c2.31,0,4.63-.2,6.95-.31l2.11.39A.9.9,0,0,0,392.21,321.27Z" fill="#dbdadb"/><path d="M392.13,447.87c9.63.06,13.1,2.68,12.95,9.77-.12,5.51-3.19,8.2-9.43,8.2q-119.76,0-239.52,0c-4,0-7.17-.53-8.52,5.37-1.06,4.61-6.78,7-11.46,8.77-20.31,7.79-41.58,10.19-63,8.55-14.69-1.12-29.67-2.67-43.2-9.72a32.57,32.57,0,0,1-5-3.12c-7.06-5.46-7.17-10.08-.64-16.14,4.35-4,9.8-5.8,15.23-7.62-.27,2.77-.55,5.53-.83,8.3-1,10.35,1.95,13.48,12.68,13.42,1.49,0,3-.23,4.46-.34,5.78-.41,11.72-1.52,17.3.35,10.52,3.51,21.17,3.56,31.94,2.15,8.41-1.11,16.74-2.69,23.82-7.85,4.16-3,4.7-7.72,1.42-11.11-1-1.71-2-3-4.32-3.33-6.12-1-12.16-2.46-18.25-3.62-1.29-.25-2.19-.59-2.36-2h264c.41,7.58.41,7.58,8.22,7.58H384C391.82,455.47,391.82,455.47,392.13,447.87Z" fill="#ecece6"/><path d="M59.27,246.35c2.86-22.09,5.59-44.2,8.67-66.26.76-5.44-.61-10.57-1-15.83-1.24-17.44.71-33.92,13-47.59,6.37-7.07,14-12.1,23.4-14.32l.46,0,.46,0,1-.14c1.06,1.5,2.67,1.13,4.11,1.1a34.42,34.42,0,0,1,20.67,5.86c5.84,4,10.49,8.84,13.09,15.5-6.38,1-12.78,1.94-19.13,3.15-13.32,2.54-22.29,12.75-23.73,26.37-1,9.23-2.31,18.42-3.47,27.62q-4.72,37.5-9.44,75c-7.12-.72-13.8-3.29-20.68-5C64.41,249.8,60.31,250.17,59.27,246.35Z" fill="#3c3e3d"/><path d="M167.31,93.36c-3-6.5-8.61-11.23-12-17.44A77.16,77.16,0,0,1,145.37,39c0-3.63,2.35-6.08,5.43-7.77,7-3.88,14.61-5.11,22.52-4.85-.89,5.86,2.49,10.57,5.65,14.34,7.65,9.14,13.77,19.07,17.5,30.2A213,213,0,0,0,218,116.3a236.3,236.3,0,0,0,14,19.26c8.4,10.84,16.08,21.89,14.22,36.68l-31.34.07C214,171.2,213,170.1,212,169c.45-5-1-9.77-1.86-14.61a25.6,25.6,0,0,1-.77-9.8c.45-4-1-6.82-3.8-9.62-4.42-4.42-8.24-9.43-12.55-14-7.73-8.14-14.48-17.16-22.69-24.84C170.2,94.26,169.07,93.47,167.31,93.36Z" fill="#e1c4b0"/><path d="M317.29,194.22c11.39,13.13,14.88,29.66,19.84,45.61,3.43,11.07,7.13,22.06,11.55,32.8,1.3,3.16,3,4.67,6.6,4.66,5.63,0,11.25.61,16.88.86a11.32,11.32,0,0,1,5.56,2c6.36,4,12.88,7.72,20.09,10,3.82,1.21,5,3.64,4.58,7.68-.5,4.43-.12,8.95-.21,13.42,0,1.6.57,3.36-.91,4.7,0-1.49.07-3,.05-4.47-.06-4,1.11-8.67-.65-11.64-1.26-2.12-6.46-1.91-9.9-2.73a6.17,6.17,0,0,1-1-.26c-7.52-3.27-15.15-4-23.1-1.45a47,47,0,0,1-8.79,1.52c-10.09,1.18-20,1.68-26.78-8.09,0-.32,0-.63,0-.94-20.26-30.26-38.9-61.33-47.91-97.14,2.19-.47,5.34.59,5.28-3.38.69.36,1.12,2.22,2.15.63,1.24-1.94,3.21-3.41,3.76-5.78C302.88,184.56,310.22,189.13,317.29,194.22Z" fill="#d5ad8e"/><path d="M66.76,251.83c6.88,1.71,13.56,4.28,20.68,5a198.64,198.64,0,0,0,24.9,3.38c-4,10-3.68,20.84-6.81,31l-3.3,7.71L93.3,313c-2.66-.52-2.23-3-2.82-4.7-.88-2.63-1.35-5.34-2.65-7.91-1.44-2.83-2.85-2.87-5-1.22-7.93,6.18-13,14.59-17,23.48-5.87,13.2-8.15,27.41-9.39,41.75-1.7,19.53-4.39,38.93-7,58.34-.16,1.13-.51,1.9-1.73,2-.81-4,.58-7.88.67-11.85.4-16.41-1.18-32.68-3.07-48.93-.86-7.35-1.9-14.68-2.86-22,0-1.31,0-2.62-.05-3.93-.27-.4-.53-.81-.79-1.21,0-1.22,0-2.44,0-3.67,3-3.67,1.53-8.42,3.07-12.44L52.36,300c1.43-2.59,2.8-5.23,4.32-7.77,1.69-2.8.48-3.31-2.19-3.29-5.29,0-10.58-.13-15.88-.22,4.83-1.42,9.76-.46,14.63-.61,6.21-.2,8.55-2.13,9.92-8.82A46.47,46.47,0,0,0,66.76,251.83Z" fill="#d5ad8e"/><path d="M251.2,42.59l9,.9a3.05,3.05,0,0,1-2.69,1.92c-5.07.32-9,3.08-12.75,6.09-5.59,4.51-7.26,11.8-4.17,17.82,7,13.68,20.67,17.59,33.46,15.62,5.37-.82,9.56-3,11.73-8.52.69-1.76.6-4.5,3.35-5.09,1.22,6.55-1.54,12.7-2,19.08a17.62,17.62,0,0,0-7.6,13.65c-.59,9.41-.9,18.82-2.38,28.16-3.35.76-7-1.13-10.17,1.29-5.37,2.56-6.3,7.08-6.14,12.55.24,7.69,0,7.68-7.52,8a18.08,18.08,0,0,0-2.88.56c-.24-7.87-6-12.68-10.14-18.42,1.55,0,1.78-1,1.89-2.34.65-7.37,1.53-14.72,2-22.1.23-3.86,1.43-5.8,5.64-5.47a16.31,16.31,0,0,0,10.85-2.59c-8.94-.93-11.56-2.06-22.38-9.47-2.33-3.09-4.65-6.2-7-9.28a6.52,6.52,0,0,0-6.09-2.6c-2.64.17-5.31,0-8,0l-1-1c-.3,0-.6,0-.91,0-2.24-3-4.95-5.84-6.63-9.16-5-9.81-9.55-19.81-17.61-27.64,1.86-.31,3.51.31,5.28.83,7.68,2.22,15,6.07,23.41,5.06C230.65,49.19,240.55,44.41,251.2,42.59Z" fill="#dcbaa1"/><path d="M102.23,298.9l3.3-7.71c.74-.8,1-2.21,2.5-2.09,5.46.42,10.91-.87,16.39.17,13.55,2.57,27.1,5.1,40.68,7.5,7.09,1.25,13.67-.28,19-5.21a9.42,9.42,0,0,1,7.12-2.53q63.64.09,127.29,0c1.81,0,3.62-.25,5.43-.39h3.39a5.17,5.17,0,0,0,3.79.14c6.78,9.77,16.69,9.27,26.78,8.09a47,47,0,0,0,8.79-1.52c8-2.57,15.58-1.82,23.1,1.45a6.17,6.17,0,0,0,1,.26c3.44.82,8.64.61,9.9,2.73,1.76,3,.59,7.68.65,11.64,0,1.49,0,3-.05,4.47a7.56,7.56,0,0,1-4.29,4.35l-4.78.22-2.11-.39c0-4.16.07-8.32.07-12.48,0-7.59,0-7.6-7.75-7.6q-137,0-274,0C106.3,300,104,300.83,102.23,298.9Z" fill="#242323"/><path d="M285,47.56a130.91,130.91,0,0,1,9.79-26C309.77-7,335-3,352.64,9.58c5.31,3.79,9.44,8.85,14.05,13.39,1.9,1.88,3.16,4.74,6.67,4.61,1.65-.07,1.72,1.74,2,3,1.43,7-2.95,12.86-11.18,15a40.22,40.22,0,0,0-10.33-16.15c-4.22-3.86-4.15-4-7.21,1.1a58.34,58.34,0,0,0-3.48,6c-1.59,3.51-3.92,5.5-8,5.15a7.17,7.17,0,0,0-7.84,4.72A20.08,20.08,0,0,1,324.38,51c-.93,1.17-1.1,4.08-3.85,2.11-2-1.47-4.34-2.72-1.93-5.79,1-1.28,1.47-3,2.29-4.4,2.2-3.8.61-6.84-2.29-9.11-3.15-2.47-6.62-1.86-9.54.71-1.2,1.07-1.92,2.67-2.86,4-4.29,2.55-6.32,7-9,10.86s-5.94,1.1-8.95,1.23C286,50.76,284.79,49.93,285,47.56Z" fill="#242323"/><path d="M306.2,38.58c.94-1.36,1.66-3,2.86-4,2.92-2.57,6.39-3.18,9.54-.71,2.9,2.27,4.49,5.31,2.29,9.11-.82,1.43-1.28,3.12-2.29,4.4-2.41,3.07-.12,4.32,1.93,5.79,2.75,2,2.92-.94,3.85-2.11a20.08,20.08,0,0,0,2.91-4.62,7.17,7.17,0,0,1,7.84-4.72c4.09.35,6.42-1.64,8-5.15a58.34,58.34,0,0,1,3.48-6c3.06-5.06,3-5,7.21-1.1a40.22,40.22,0,0,1,10.33,16.15C358.89,59.74,350.48,72,340.63,83.28c-2.93,3.38-5.89,6.74-9,10C327,98.1,326,98.12,320.17,94.42c-1.39-.89-2.83-1.7-4.25-2.55-.05-2-1.43-3.18-2.4-4.68-3.14-4.91-7.93-8.78-9.34-14.78a55.44,55.44,0,0,1,2.3-11.6c.7-2.5,2.5-5.24,1.33-7.61C305.44,48.4,306.46,43.47,306.2,38.58Z" fill="#e1c4b0"/><path d="M240.35,136.2c4.09,5.74,9.89,10.55,10.13,18.42-.93,4.72,2.53,9.12,1,13.89-.22,1.54,0,3.33-2.16,3.76l-3.06,0c1.86-14.79-5.82-25.84-14.22-36.68a236.3,236.3,0,0,1-14-19.26,213,213,0,0,1-21.56-45.36c-3.73-11.13-9.85-21.06-17.5-30.2-3.16-3.77-6.54-8.48-5.65-14.34a175.19,175.19,0,0,1,29-1.83c17,.2,31.86,6.52,45.85,15.49a28.58,28.58,0,0,1,3,2.53c-10.65,1.82-20.55,6.6-31.36,7.89-8.45,1-15.73-2.84-23.41-5.06-1.77-.52-3.42-1.14-5.28-.83-2.75-.49-4.36-3.39-7.31-3.67-.45,1.89,1.07,2.48,1.93,3.24,7.21,6.28,11.72,14.15,14.85,23.12,1.55,4.46,2.49,9.31,5.71,13.09,2.74,8.25,7.72,15.32,12.15,22.65,4,6.6,7.06,13.83,12.73,19.33C233.42,127.52,237.63,131.37,240.35,136.2Z" fill="#e5cab8"/><path d="M38.67,460.22c.28-2.77.56-5.53.83-8.3l2.13-14.05c2.32.65,3.31-2.61,5.64-1.94,0,3.17-.11,6.56,3,8.48,4.55,2.8,17.18,0,20.55-4.08,2-2.43,3.92-5,6.81-6.47,3.28.08,5.23,2.48,7.52,4.3,6,4.78,12.54,8.43,20.2,9.75.17,1.39,1.07,1.73,2.36,2,6.09,1.16,12.13,2.64,18.25,3.62,2.31.37,3.35,1.62,4.32,3.33-3.59,4.34-7,8.84-12.86,10.46-14.38,4-28.69,4.84-42.91-.73-3.25-1.27-6.52-2.68-10.09-2.37C55.5,465,46.7,465.19,38.67,460.22Z" fill="#d8d6e9"/><path d="M32,304.08c-1.32-2.19-.1-4.76-1-7.56-4.71,8.89-6,18.19-7.47,27.38-.45,2.73-1.06,4.83-4.16,5.2A25.07,25.07,0,0,1,8,312.33c-2.53-13.27-3-26.34,2.21-39.16a24,24,0,0,0,2-12.13c-1-8-.49-15.84,4.2-22.84,6.39.68,12.79,1.28,19.17,2.06,3.81.47,4,3.41,3.85,6.38-2.91.34-6,.14-7.53,3.59-2.55,5.72-.12,16.39,4.68,20.51,2.19,1.88,5.26,3,5.87,6.38.22,2-1,3.24-2.13,4.69-1.85,2.37-4.59,4.24-4.79,7.65-4.8,3.68-3,8.87-3.12,13.61Z" fill="#d8d6e9"/><path d="M289.12,71.33c-2.74.59-2.65,3.33-3.34,5.09-2.17,5.49-6.36,7.7-11.73,8.52-12.79,2-26.43-1.94-33.46-15.62-3.09-6-1.42-13.31,4.17-17.82,3.74-3,7.68-5.77,12.75-6.09a3.05,3.05,0,0,0,2.69-1.92,32.82,32.82,0,0,1,17.36,7.75c1.14.94,2.07,2.19,3.72,2.29C284.76,59.08,288.55,64.5,289.12,71.33Z" fill="#e5cab8"/><path d="M304.18,72.41c1.41,6,6.2,9.87,9.34,14.78,1,1.5,2.35,2.73,2.4,4.68-6.53-.06-11.57,3.64-16.92,6.62-2.05,1.15-1.6,3.05-1.8,4.81-1.65,14.33,1.62,27.58,8.1,40.36,8,15.83,9.87,33.25,12,50.56-7.07-5.09-14.41-9.66-22.91-12q-.17-18.9-.31-37.81c-.05-8-3.81-11.86-11.85-12.09,1.69-5,5.87-8.94,5.85-14.77,0-3.71-.25-7.56,1.1-11.18,4.1-6.75,5.91-14.43,8.92-21.62C299.84,80.52,300.19,75.54,304.18,72.41Z" fill="#c69777"/><path d="M143.21,124.7c-2.6-6.66-7.25-11.53-13.09-15.5a34.42,34.42,0,0,0-20.67-5.86c-1.44,0-3,.4-4.11-1.1,4.73-3.36,10.35-2.69,15.62-3.24,6.1-.64,12.28-.42,18.4-.91,2.12-.17,3.23,1.27,4.86,1.82a121.85,121.85,0,0,1,15.26,35.37c2.28,11.54,3.78,23.16,3.16,35-1.41,1.28-3.81,1-4.76,3-5.48-.22-9.41,4.06-14.5,5,.09-2.47-.19-5,.33-7.41a127.6,127.6,0,0,0,2.49-33.93C146.05,132.64,146,128.33,143.21,124.7Z" fill="#343333"/><path d="M159.48,135.28a121.85,121.85,0,0,0-15.26-35.37c3.28-2.81,7.48-1.31,11.2-2.28,4.13-1.08,8.24-1.94,11.89-4.27,1.76.11,2.89.9,3,2.79,1.58,5.65,5.25,10.37,7.2,15.81,2.43,6.82,7.67,12.55,7.87,20.22-3,.88-6.3-.92-9.12,1.18-1.39-.38-1.83,1-2.73,1.5-.25-1.12-.32-2.42-2.06-2.05C167.49,133.68,163.31,133.64,159.48,135.28Z" fill="#dcbaa1"/><path d="M42.52,277.12c-.61-3.36-3.68-4.5-5.87-6.38-4.8-4.12-7.23-14.79-4.68-20.51,1.55-3.45,4.62-3.25,7.53-3.59,5.8.39,11.6.73,17.39,1.2,1.32.1,1.61-1,2.38-1.5,1,3.83,5.14,3.46,7.49,5.49a46.47,46.47,0,0,1-3.6,27.48Z" fill="#c69777"/><path d="M304.18,72.41c-4,3.13-4.34,8.11-6.09,12.32-3,7.19-4.82,14.87-8.92,21.62-2.08-5.14,0-10.79-2-15.94.42-6.38,3.18-12.53,2-19.08-.58-6.83-4.37-12.25-7.85-17.8,2.59-1.15,2.52-4,3.72-6-.21,2.37,1,3.2,3.22,3.11,3-.13,6.24,2.61,8.95-1.23s4.74-8.31,9-10.86c.26,4.89-.76,9.82,1.61,14.62,1.17,2.37-.63,5.11-1.33,7.61A55.44,55.44,0,0,0,304.18,72.41Z" fill="#d5ad8e"/><path d="M16.48,238.2c-4.69,7-5.19,14.81-4.2,22.84a24,24,0,0,1-2,12.13C5.06,286,5.51,299.06,8,312.33A25.07,25.07,0,0,0,19.38,329.1c-1.77,3.62-7,3.59-10.16-.26A34.3,34.3,0,0,1,2.57,314c-2.82-13.57-4.06-27.17.2-40.74,1.89-6,.89-12.16.52-18.25-.09-1.49-.35-3-.36-4.46C2.87,240,6.31,236.91,16.48,238.2Z" fill="#4e4e4f"/><path d="M47.27,435.93c-2.33-.67-3.32,2.59-5.64,1.94q-.06-46.08-.11-92.16c0-1.3-.26-2.69.94-3.71,1,7.34,2,14.67,2.86,22,1.89,16.25,3.47,32.52,3.07,48.93-.09,4-1.48,7.85-.67,11.85Z" fill="#dbdadb"/><path d="M392.13,447.87c-.31,7.6-.31,7.6-8.15,7.62h-6.45c-7.81,0-7.81,0-8.22-7.58q.12-3.2.26-6.41a164.47,164.47,0,0,1,22.2-.15Z" fill="#4e4e4f"/><path d="M32,304.08l.47-1c6.13-4.26,13.13-2.84,19.88-3.05l-7.65,20.73-3.36-.15c-7.94-.71-9-1.93-9.07-10.13C32.26,308.34,32.1,306.21,32,304.08Z" fill="#4e4e4f"/><path d="M41.35,320.6l3.36.15c-1.54,4-.11,8.77-3.07,12.44Q41.49,326.9,41.35,320.6Z" fill="#dbdadb"/><path d="M392.2,320.5l4.78-.22c-1.34,1.55-3.23.41-4.77,1A.9.9,0,0,1,392.2,320.5Z" fill="#dcbaa1"/><path d="M41.62,336.86c.26.4.52.81.79,1.21C42.14,337.67,41.88,337.26,41.62,336.86Z" fill="#dbdadb"/><path d="M104.32,102.38l-.46,0-.46,0C103.72,101.91,104,101.93,104.32,102.38Z" fill="#343333"/><path d="M102.23,298.9c1.75,1.93,4.07,1.1,6.13,1.1q137,.06,274.05,0c7.75,0,7.76,0,7.75,7.6,0,4.16-.05,8.32-.07,12.48-2.32.11-4.64.31-6.95.31l-281.49,0c-2.16,0-4.32.12-6.48.18l-.27-.18-.25.22-2.21-.39c.29-2.42.57-4.83.86-7.24Z" fill="#4e4e4f"/><path d="M93.3,313c-.29,2.41-.57,4.82-.86,7.24l-2.82,17.86c-2.54,17.47-5.17,34.93-7.6,52.41-1.61,11.6-3.06,23.23-3.66,34.94-.14,2.8-.48,5.59-.72,8.38-2.89,1.51-4.84,4-6.81,6.47-3.37,4.12-16,6.88-20.55,4.08-3.12-1.92-3-5.31-3-8.48l.45-11.13c1.22-.13,1.57-.9,1.73-2,2.63-19.41,5.32-38.81,7-58.34,1.24-14.34,3.52-28.55,9.39-41.75,4-8.89,9.07-17.3,17-23.48,2.12-1.65,3.53-1.61,5,1.22,1.3,2.57,1.77,5.28,2.65,7.91C91.07,310.05,90.64,312.51,93.3,313Z" fill="#dcbaa1"/><polygon points="94.65 320.66 94.9 320.44 95.17 320.62 94.93 320.88 94.65 320.66" fill="#dcbaa1"/><path d="M38.67,460.22c8,5,16.83,4.77,25.76,4,3.57-.31,6.84,1.1,10.09,2.37,14.22,5.57,28.53,4.75,42.91.73,5.82-1.62,9.27-6.12,12.86-10.46,3.28,3.39,2.74,8.07-1.42,11.11-7.08,5.16-15.41,6.74-23.82,7.85-10.77,1.41-21.42,1.36-31.94-2.15-5.58-1.87-11.52-.76-17.3-.35-1.49.11-3,.33-4.46.34C40.62,473.7,37.68,470.57,38.67,460.22Z" fill="#4e4e4f"/><path d="M143.21,124.7c2.83,3.63,2.84,7.94,3,12.23-5.3,1.39-10.67,2.57-15.89,4.24s-8.5,5-8.4,10.94c.07,4.31-.29,8.63-.36,12.94-.56,31.74-1.08,63.49-4.41,95.1l-4.8.06a198.64,198.64,0,0,1-24.9-3.38q4.71-37.5,9.44-75c1.16-9.2,2.49-18.39,3.47-27.62,1.44-13.62,10.41-23.83,23.73-26.37C130.43,126.64,136.83,125.74,143.21,124.7Z" fill="#2dafb7"/><path d="M185.39,132.18c-.2-7.67-5.44-13.4-7.87-20.22-2-5.44-5.62-10.16-7.2-15.81,8.21,7.68,15,16.7,22.69,24.84,4.31,4.54,8.13,9.55,12.55,14,2.8,2.8,4.25,5.64,3.8,9.62a25.6,25.6,0,0,0,.77,9.8l-6.77-.17c0-3.47-.1-7-.11-10.42,0-7.3-4.1-11.37-11.41-11.42C189.69,132.36,187.54,132.24,185.39,132.18Z" fill="#c69777"/><path d="M249.32,172.27c-.52,3.35-3.49,3.6-5.72,3.69-7.79.3-15.61.22-23.41.08-2.37,0-4.59-.95-5.26-3.73l31.33-.07Z" fill="#d5ad8e"/><path d="M203.36,154.21l6.77.17c.83,4.84,2.31,9.6,1.86,14.61h-8.6Z" fill="#3c3e3d"/><path d="M282.22,132.3c8,.23,11.8,4.09,11.85,12.09q.12,18.9.31,37.81c-.55,2.37-2.52,3.84-3.76,5.78-1,1.59-1.46-.27-2.15-.63,0-1.43,0-2.86,0-4.29.74-.54.74-1.09,0-1.63-.1-1.73-.19-3.45-.28-5.18.09-7,.22-14,.26-20.94,0-8.81,0-8.7-8.87-8.87-4.1-.07-9.68,1.93-11.87-.87-2.05-2.6-.61-7.93-.71-12.07,3.14-2.41,6.82-.52,10.17-1.28Z" fill="#ecece6"/><path d="M288.21,176.25c.09,1.73.18,3.45.28,5.18v1.63c0,1.43,0,2.86,0,4.29.06,4-3.09,2.91-5.28,3.38-5.31-.78-10.7.45-16-.69,0-2.82.23-5.66-.05-8.45-.4-4,.82-5.7,5.15-5.41C277.57,176.54,282.9,176.26,288.21,176.25Z" fill="#4e4e4f"/><path d="M327.35,288.67l3.75-.79c0,.3,0,.61,0,.93A5.17,5.17,0,0,1,327.35,288.67Z" fill="#c69777"/><path d="M187.5,286.2c.27,3.57,3.05,1.88,4.57,1.89,36.87.11,73.73,0,110.6.13,7.09,0,14.22-.69,21.29.45-1.81.14-3.62.39-5.43.39q-63.64,0-127.29,0a9.42,9.42,0,0,0-7.12,2.53c-5.35,4.93-11.93,6.46-19,5.21-13.58-2.4-27.13-4.93-40.68-7.5-5.48-1-10.93.25-16.39-.17-1.52-.12-1.76,1.29-2.5,2.09,3.13-10.14,2.85-21,6.81-31l4.8-.06c4.41,1.28,7.49.37,8-4.8a4.77,4.77,0,0,1,.59-1.31c.58.3,1.34.47,1.71.93,7.77,9.73,16.3,18.65,26.76,25.56C164.5,287.32,174.86,293.45,187.5,286.2Z" fill="#c69777"/><path d="M52.36,300c-6.75.21-13.75-1.21-19.88,3.05.15-4.74-1.68-9.93,3.12-13.6l3-.73c5.3.09,10.59.26,15.88.22,2.67,0,3.88.49,2.19,3.29C55.16,294.79,53.79,297.43,52.36,300Z" fill="#242323"/><path d="M288.21,176.25c-5.31,0-10.64.29-15.92-.07-4.33-.29-5.55,1.41-5.15,5.41.28,2.79.05,5.63.05,8.45-4.75-3.2-6.53-7.54-6.18-13.33.44-7.51.11-7.52-7.15-7.75a16.35,16.35,0,0,1-2.38-.45c1.53-4.77-1.93-9.17-1-13.89a18.08,18.08,0,0,1,2.88-.56c7.49-.32,7.76-.31,7.52-8-.16-5.47.77-10,6.14-12.55.1,4.13-1.34,9.46.71,12.06,2.19,2.8,7.77.8,11.87.87,8.87.17,8.91.06,8.87,8.87C288.43,162.29,288.3,169.27,288.21,176.25Z" fill="#343333"/><path d="M231.21,122.35c-5.67-5.5-8.74-12.73-12.73-19.33-4.43-7.33-9.41-14.4-12.16-22.65,3,.33,6,1.48,9.07,1,.31,0,.61,0,.91,0l1,1c2.65,0,5.32.14,8,0a6.52,6.52,0,0,1,6.09,2.6c2.35,3.08,4.67,6.19,7,9.28-1.42,1.52-1.54,3.53-2.12,5.38C233.87,107.05,234,115,231.21,122.35Z" fill="#d5ad8e"/><path d="M231.21,122.35c2.74-7.34,2.66-15.3,5-22.74.58-1.85.7-3.86,2.12-5.38,10.82,7.41,13.44,8.54,22.38,9.47a16.31,16.31,0,0,1-10.85,2.59c-4.21-.33-5.41,1.61-5.64,5.47-.44,7.38-1.32,14.73-2,22.1-.11,1.29-.34,2.3-1.89,2.34C237.63,131.37,233.42,127.52,231.21,122.35Z" fill="#c69777"/><path d="M282.22,132.3l-5-.08c1.48-9.34,1.79-18.75,2.38-28.16a17.62,17.62,0,0,1,7.6-13.65c2,5.15-.08,10.8,2,15.94-1.35,3.62-1.12,7.47-1.1,11.18C288.09,123.36,283.91,127.29,282.22,132.3Z" fill="#e1c4b0"/><path d="M215.39,81.39c-3.11.46-6-.69-9.07-1-3.21-3.78-4.15-8.63-5.7-13.09-3.13-9-7.64-16.84-14.85-23.12-.86-.76-2.38-1.35-1.93-3.24,2.95.28,4.56,3.18,7.31,3.67,8.06,7.83,12.65,17.83,17.61,27.64C210.44,75.55,213.15,78.35,215.39,81.39Z" fill="#c69777"/><path d="M217.26,82.38l-1-1Z" fill="#c69777"/><path d="M157.88,173.28c7,15.25,13.32,30.83,19.79,46.32,1.32,3.16,1.32,5.52-1.49,7.61-14.05,11-30.51,15.08-47.82,16.72q5-20.2,10.09-40.41c2.08-8.33,4.59-16.58,4.93-25.25C148.47,177.34,152.4,173.06,157.88,173.28Z" fill="#242323"/><path d="M143.38,178.27c-.34,8.67-2.85,16.92-4.93,25.25q-5,20.22-10.09,40.41L125.78,254a4.77,4.77,0,0,0-.59,1.31c-.56,5.17-3.64,6.08-8,4.8,3.33-31.61,3.85-63.36,4.41-95.1.07-4.31.43-8.63.36-12.94-.1-6,3.24-9.29,8.4-10.94s10.59-2.85,15.89-4.24a127.6,127.6,0,0,1-2.49,33.93C143.19,173.24,143.47,175.8,143.38,178.27Z" fill="#3c3e3d"/><path d="M170.16,168.26c-2.74-.23-4.95,1.56-7.52,2,.62-11.8-.88-23.42-3.16-35,3.83-1.64,8-1.6,12-2.47,1.74-.37,1.81.93,2.06,2.05-3.19,3.21-3.46,7.19-3.35,11.45C170.36,153.62,170.19,160.94,170.16,168.26Z" fill="#d5ad8e"/><path d="M170.16,168.26c0-7.32.2-14.64,0-21.95-.11-4.26.16-8.24,3.35-11.45.9-.53,1.34-1.88,2.73-1.5,0,2.83.18,5.68-.11,8.47-.36,3.56.55,5.11,4.51,4.76,4.46-.4,9,0,13.46-.15,2.65-.11,3.41.79,3.35,3.38-.2,8.81-.17,17.62-.23,26.42-5.13,0-10.29.29-15.4-.06-4.26-.29-6.07.88-5.65,5.44.23,2.48,1,5.28-.89,7.62-4.68-3.41-5.5-8.19-5-13.56A65.71,65.71,0,0,0,170.16,168.26Z" fill="#343333"/><path d="M197.25,176.24c.06-8.8,0-17.61.23-26.42.06-2.59-.7-3.49-3.35-3.38-4.48.2-9-.25-13.46.15-4,.35-4.87-1.2-4.51-4.76.29-2.79.09-5.64.11-8.47,2.82-2.1,6.14-.3,9.12-1.18,2.15.06,4.3.18,6.45.19,7.31,0,11.38,4.12,11.41,11.42,0,3.47.07,7,.11,10.42l0,14.78c0,4,.09,7.94-.13,11.89-.2,3.6-1.22,6.85-5.62,7.39Z" fill="#ecece6"/><path d="M125.78,254l2.58-10.11c17.31-1.64,33.77-5.73,47.82-16.72,5.79,14,12.4,27.72,15.52,42.66a20,20,0,0,1-2.13,14.27l-1.24,1.05.07-.06c-.35.35-.71.7-1.06,1.06h.16c-12.64,7.25-23,1.12-33.25-5.67-10.46-6.91-19-15.83-26.76-25.56C127.12,254.51,126.36,254.34,125.78,254Z" fill="#d5ad8e"/><path d="M197.25,176.24l.39,12c-.2,1.18-.45,2.25-2,2.23-6.45-.11-12.9-.14-19.35-.27-.32,0-.62-.65-.93-1,1.91-2.34,1.12-5.14.89-7.62-.42-4.56,1.39-5.73,5.65-5.44C187,176.53,192.12,176.25,197.25,176.24Z" fill="#4e4e4f"/><path d="M187.34,286.19c.35-.36.71-.71,1.06-1.06A1,1,0,0,1,187.34,286.19Z" fill="#c69777"/><path d="M188.33,285.19l1.24-1.05Z" fill="#c69777"/><path d="M288.49,183.06v-1.63C289.23,182,289.23,182.52,288.49,183.06Z" fill="#d5ad8e"/></g></g></svg>