<svg xmlns="http://www.w3.org/2000/svg" viewBox="0 0 565.96 297"><title>ex_d3_6_1</title><g id="Layer_2" data-name="Layer 2"><g id="Layer_1-2" data-name="Layer 1"><path d="M476.28,280.54c14.18-1,28.39-.94,42.58-.79,12.7.13,25.4.6,38.09.92,6,.16,7.88,2.14,7.82,8.28,0,5.09-2.68,7.69-8.07,7.7q-39.19,0-78.39,0-234.92,0-469.84-.07c-2.62,0-6.52,1.63-7.61-1.72-1.3-4-1-8.52,0-12.77.24-1,1.4-1.38,2.46-1.38,6.43-.06,12.86-.09,19.29-.13,10.49,9.25,19.56,9.29,30.51.13,3.44-.28,7-1.18,10.32-.69a86.64,86.64,0,0,0,25.31.23c10-1.51,19.75.49,29.65,0,8.18-.42,16.73-.07,25.07.1a246,246,0,0,0,25.59-.49c14-1.16,28.08.63,42.18.06,15.31-.62,30.69.62,46,.7,16.1.08,32.19-.19,48.29-.57a210.59,210.59,0,0,1,25.09.49c6.58.63,13.26-.59,19.83-.61,9.4,0,18.77.59,28.22-.11,10.75-.79,21.5,1.55,32.31.86,7.6-.49,15.18-1.25,22.84-1.05,4,.1,7.81,1.86,11.84.83C456.48,289.93,466.21,290,476.28,280.54Z" fill="#ebece6"/><path d="M176.36,10.32c1.53-1.82,3.23-2.17,5.67-1.59C204,14,226.08,18.57,247.85,24.44c12.22,3.29,25,3.69,36.91,8.57s24,8.68,35.73,13.79c2.83,1.23,6.26.83,8.6,3.26a62.31,62.31,0,0,0-3,15.89l-2,18q-3,12.5-5.93,25c-1.85,3.79-4.18,7.37-5,11.59-2,2-4.41,1.82-6.89,1.43-10-4-19.92-8-29.93-11.94A526.28,526.28,0,0,0,220.79,91.5c-11.72-3.12-23.12-7.69-35.44-8.51-2.44-.16-5.39-.31-7-3-3.21-3.32-7.89-3.44-11.74-5.37-1.51-.75-3.7-.7-3.66-3.21,2.22-6.77.93-13.58.22-20.38,0-1.92-.18-3.86.87-5.61,21.21,7.87,42.32,16,63.65,23.52,16.34,5.76,32.66,5,47.52-4.34,13.43-8.49,14.13-8,3-22.41-1.28-1.67-2.41-2.24-4.53-.89-12,7.59-24.55,7.15-37.35,2.43Q204,31.87,171.78,19.88C172.15,16.14,175.17,13.67,176.36,10.32Z" fill="#3c3e3d"/><path d="M449.94,229.29c-2.32,2.89-4.36,6.07-7.91,7.71-3.81.37-6.48-1.68-9.22-4-8.56-7.12-17-14.37-25.91-21.06C355,173,297.6,144.49,236.15,123.92c-24-8-48.4-14.17-73-19.75-3.17-3.49-1.22-7.09-.28-10.71,1.18-4.55,4.08-6.18,8.59-5.24,18.15,3.8,36.16,8.22,53.94,13.43a646,646,0,0,1,87,32.69A567.66,567.66,0,0,1,387.19,176a489.6,489.6,0,0,1,56.93,43.34C447.3,222.11,450.94,224.23,449.94,229.29Z" fill="#4e4e50"/><path d="M318.08,109q3-12.49,5.93-25c6,1.44,7.32,7,9.92,11.4.79,1.34.71,3.67,2.94,3.32,2.44-.38,2.15-2.64,2.07-4.42C338.64,87.33,336,81.09,333,75a3,3,0,0,0,1-2.67c0-6.77-.66-13.61,2-20.12A25.28,25.28,0,0,1,349,57a35.23,35.23,0,0,1-3,7.76,14.51,14.51,0,0,0-.22,11.94c1,2.54,4.48,1.07,6.86,1.29,1.87.18,3-1,4-2.4L365,64l2,.06a7.2,7.2,0,0,1-2.46,5.7,28.6,28.6,0,0,0-4.64,5.09c-1.36,2.18-2.65,4.64-1.21,7.42,1.15,2.23,3.13,2.74,5.41,2.72,6.12-.06,17.78-10,18.91-16.16l6.9.33a105.13,105.13,0,0,1-12.65,12.67c-1.24,1.05-3.41,1.7-2.78,3.61A5.85,5.85,0,0,0,378.87,89c5,1.23,9.56.6,13.18-3.23,3.78-4,9.46-6.32,11-12.3.95.51,1.9,1,2.84,1.54-4.93,9.21-13.09,14.68-22.27,18.82C381,95,380.46,96,382.55,98.08a36,36,0,0,0,3.83,3.79c7.51,5.37,15.79,9.54,23.25,15,2.41,1.77,5.15,3.64,8.36,4.14-7.92,9.33-10.12,20.34-8.89,32.11.32,3.05.34,6.81,3.86,8.71l0,0c0,.91.2,1.71,1.2,2l1.84,2,.94,1h0c.47,3.19,2.79,5,4.94,7,2.49,2.4,6.24,2.82,8.26,5.75-10.6-.34-20.13-4.34-29.51-8.74-1.94-.92-3.54-2.6-5.8-.92l-20.85-13c-.08-2.13-1.5-2.16-3.07-2v0c.22-2.41-1.71-3.51-3.14-4.77-14.49-12.83-28.13-26.62-43.44-38.54C322.38,110.24,320.61,108.82,318.08,109Z" fill="#d6ad8e"/><path d="M163.14,104.17c24.61,5.58,49.06,11.73,73,19.75C297.6,144.49,355,173,406.9,212c8.89,6.69,17.35,13.94,25.91,21.06,2.74,2.28,5.41,4.33,9.22,4-2,1-1.9,1.83-.28,3.42,3.41,3.35,7.65,5.85,10.27,10a29.15,29.15,0,0,0-9.08,9.31c-1.14-.94-2.33-1.83-3.43-2.83-12.77-11.66-25.88-22.9-39.67-33.34-40.29-30.49-84.19-54.52-131-73.32a616.12,616.12,0,0,0-127.76-36.15c-10.48-1.77-10.41-1.69-15.29,7.74-9.4,18.14-18.43,36.46-28.52,54.23,1.6-10.17,5.34-19.77,9.15-29.16,6.65-16.4,14.58-32.28,21.72-48.48,2.71-6.16,5.7-12.36,5.19-19.43,3.73,2.36,8,2.83,12.22,3.69-.61,1.53-1.31,3-1.81,4.58-1.4,4.34-7.46,8.66-4.81,12.13,2.08,2.72,8.9,1.83,13.61,2.54A30.65,30.65,0,0,0,163.14,104.17Z" fill="#a2a1a3"/><path d="M71.29,153c3-1.76,2.28-5.09,2.74-7.62C79.63,114.69,85.43,84,89.38,53c.89-7.05,1.92-14.08,2.85-21.12.15-1.15.06-2.36,1.45-2.87,4.23.32,7.89,1.45,10.91,4.91,6.39,7.32,8.08,16.2,8.52,25.27.93,19.57-6.1,38-8.9,57.06-.95,6.51-2.6,12.94-4.19,19.3-2.14,8.52-2.09,17.32-4.35,25.82-2,7.3-3,14.85-4.34,22.31-.25,1.4-.54,3,.89,4.16-.2,2.61-1.86,3.67-4.23,4a18,18,0,0,1-19.75-11.91C76.34,170.37,77.25,162.36,71.29,153Z" fill="#dcbba1"/><path d="M163.14,104.17a30.65,30.65,0,0,1-10.6-2.24c-2.48-2.47-2-5.42-1.27-8.37,1.16-4.81,2.39-9.6,3.59-14.4,1.49.08,2.56-.86,3.74-1.52,5.84-.4,11.31,1.61,16.91,2.71,1.08.21,2,1.31,2.83-.33,1.62,2.66,4.57,2.81,7,3,12.32.82,23.72,5.39,35.44,8.51A526.28,526.28,0,0,1,276.23,110c10,3.9,20,8,29.93,11.94a11.41,11.41,0,0,0,2,1.46c13.21,6,26.38,12.05,39,19.17.19.1.71-.4,1.08-.61a151.31,151.31,0,0,0,22.6,13v0a4,4,0,0,0,3.07,2l20.85,13,19.62,13.86c11.92,9.17,23.94,18.19,35.31,28,8.76,7.61,8.84,9.29.25,17.38,1-5.06-2.64-7.18-5.82-10A489.6,489.6,0,0,0,387.19,176a567.66,567.66,0,0,0-74.76-41.61,646,646,0,0,0-87-32.69C207.61,96.44,189.6,92,171.45,88.22c-4.51-.94-7.41.69-8.59,5.24C161.92,97.08,160,100.68,163.14,104.17Z" fill="#242424"/><path d="M92.22,187.83c-1.43-1.14-1.14-2.76-.89-4.16,1.33-7.46,2.39-15,4.34-22.31,2.26-8.5,2.21-17.3,4.35-25.82,1.59-6.36,3.24-12.79,4.19-19.3,2.8-19,9.83-37.49,8.9-57.06-.44-9.07-2.13-18-8.52-25.27-3-3.46-6.68-4.59-10.91-4.91L94,27.51c0-.61,0-1.21,0-1.82,1.83-9.07,7.2-15.42,15.19-19.75-.79,1.93-1.48,3.9-2.39,5.78-3.24,6.7-1.11,10.83,6.45,12.39,1.22,2.75,4.1,3.69,6.16,5.51,5.29,4.65,8,11.06,12,16.54-.43.7-.79,1.44-1.28,2.09C121.69,59.36,122.78,70,133.33,79c.51,7.07-2.48,13.27-5.19,19.43-7.14,16.2-15.07,32.08-21.72,48.48-3.81,9.39-7.55,19-9.15,29.16-.44,3.16-3.37,5.48-3,8.91A2.92,2.92,0,0,0,92.22,187.83Z" fill="#d6ad8e"/><path d="M92.22,187.83A2.92,2.92,0,0,1,94.28,185c1,2,4,2.53,3.58,5.5-.79,6.34-1.4,12.69-2.09,19-7.07,2.13-14.07,1.52-20.9-.87a25.93,25.93,0,0,0-13.25-1.12,54.55,54.55,0,0,1-25.63-2c-10.43-3.22-20.67-6.92-24.68-18.7,1.1-2.3,3.22-1.94,5.18-2,7.92-.09,15.86.47,23.75-.91,1.83-.31,3.58-.51,5-1.8,8.14,4.25,15.73,2.73,23-2.18A18,18,0,0,0,88,191.84C90.36,191.5,92,190.44,92.22,187.83Z" fill="#d8d6e9"/><path d="M113.25,24.11c-7.56-1.56-9.69-5.69-6.45-12.39.91-1.88,1.6-3.85,2.39-5.78A29.74,29.74,0,0,1,131.77.4c15,2.49,29.88,5.94,44.59,9.92-1.19,3.35-4.21,5.82-4.58,9.56-3.49,4.1-3.73,9.57-6,14.18C148.61,29,131.49,23.58,113.25,24.11Z" fill="#dcbba1"/><path d="M68.24,179.93c-7.27,4.91-14.86,6.43-23,2.18A20,20,0,0,1,46,146.73c8.71-4.52,17.85-2.21,25.31,6.3C77.25,162.36,76.34,170.37,68.24,179.93Zm-6.31-15.42a6.77,6.77,0,0,0-7-6.79,6.6,6.6,0,0,0-6.85,6.88A6.83,6.83,0,0,0,55,171.48,7,7,0,0,0,61.93,164.51Z" fill="#4e4e50"/><path d="M446,91.45c3.72,2.18,5.93,5.83,8.33,9.15,2,2.74,3.62,2.79,6.14,1.14,19.07-12.44,40.19-20.47,61.32-28.49,4.92-1.87,9.77-3.19,14.95-1.24l1.27.81,1.73.48q1,2.36,2,4.71a37,37,0,0,0-23.67,2.29c-7.68,3.39-15.81,5.78-23.35,9.4-7.39,3.55-15.64,5.52-21.92,11.26a65.18,65.18,0,0,0-21.64,13.39c-3.81,3.46-9,5.51-11.36,10.53-10.85.21-17.46,6.84-22.78,15.23-.83,1.32-1.3,2.63-3,2.91.83-8.25,6.4-13.26,12-18.48,2.4-2.23,7.4-2.2,7.36-5.45,0-3-3-6-4.62-9.08.76-.28,1.87-.33,2.23-.88C435.34,102.63,441.42,97.65,446,91.45Z" fill="#d6ad8e"/><path d="M414.38,183.86,394.76,170c2.26-1.68,3.86,0,5.8.92,9.38,4.4,18.91,8.4,29.51,8.74,2.15.2,4.3.35,6.45.6,11.79,1.38,21.83-1.74,29.85-10.93,5-5.78,8.61-12.57,13.45-18.47,5.43,5.31,11.13,10.37,16.16,16,2.18,2.45,6.06,4.52,4.9,9,0,2.85-.41,5.51-3.26,7-1.7-.53-3.45-.93-5.09-1.61-6.16-2.55-6.15-2.58-9.7,3.49-1.42-.45-2.89-.8-4.26-1.37-8.37-3.5-16-5.49-25.42-.76-10.4,5.23-22.39,3.87-33.84,1.85C417.68,184.22,416,184.07,414.38,183.86Z" fill="#c59575"/><path d="M555.74,155.63c5.36,1.37,9.43,4.07,10.11,10.08.19,1.61.44,3.32-2,3.79-2.11.4-2.43,2.55-3.19,4.13-3.4,7-6.59,14.06-10.1,21-4.05,8-9.7,14.57-18.09,18.36-2.1,1-4.19,2-6.63,1.58a1.81,1.81,0,0,0,1-1.74c2.77-6.84,6.36-13.41,7.1-20.94,1-2.27.83-4.66.73-7l0-3c0-1.48,0-3-.05-4.44,0-2.68-2.32-6.52.08-7.72s4.44,2.7,6.39,4.53c2.91,2.73,4.58,2.67,5.6-1.34a15.61,15.61,0,0,0,3-8c.86-2.54,1.73-5.08.33-7.71.15-.46.31-.92.46-1.38l2.51-.55,1.53,0C554.79,155.82,555.23,155.85,555.74,155.63Z" fill="#242424"/><path d="M428.84,110c1.66,3,4.59,6,4.62,9.08,0,3.25-5,3.22-7.36,5.45-5.63,5.22-11.2,10.23-12,18.47-2.21,6.17-.91,12.55-1.11,18.84-3.52-1.9-3.54-5.66-3.86-8.71-1.23-11.77,1-22.78,8.89-32.12,3.11-.85,1.67-2.74.8-4.21-1.53-2.55-3.41-4.89-5-7.44C407.44,98.78,404.63,88,412.9,77a52.66,52.66,0,0,1,15-2,9.72,9.72,0,0,1-.87,2.26c-4.81,7-6.64,14.27-2.78,22.33C425.86,103,427.31,106.55,428.84,110Z" fill="#c59575"/><path d="M36.12,248.45q8.55-16.81,17.12-33.63c2-.08,4-.17,6-.23,5.65-.15,11.18.26,16.05,3.61-5.76,13-12.58,25.37-19.26,37.85-.19.36-.81.48-1.23.71C49.58,251.7,43.87,247.77,36.12,248.45Z" fill="#a2a1a3"/><path d="M412.9,77c-8.27,11-5.46,21.78.94,32.37,1.54,2.55,3.42,4.89,5,7.44.87,1.47,2.31,3.36-.8,4.21-3.21-.49-5.95-2.36-8.36-4.13-7.46-5.48-15.74-9.65-23.25-15a36,36,0,0,1-3.83-3.79c-2.09-2-1.51-3.06,1.08-4.23C392.81,89.71,401,84.24,405.9,75,408.43,75,410.27,77.42,412.9,77Z" fill="#dcbba1"/><path d="M75.26,218.2c-4.87-3.35-10.4-3.76-16.05-3.61-2,.06-4,.15-6,.23-14.77-1.93-28.92-5.57-40.72-15.29-4.6-3.79-5.4-7.49-3.23-11.73a1.85,1.85,0,0,1,2-1c4,11.78,14.25,15.48,24.68,18.7a54.55,54.55,0,0,0,25.63,2,25.93,25.93,0,0,1,13.25,1.12c6.83,2.39,13.83,3,20.9.87a.66.66,0,0,0,0,.69,4.75,4.75,0,0,0-.4,3.58c-1.61,4.82-5.42,6.66-11.45,5.8C81,219.17,78.36,217.34,75.26,218.2Z" fill="#444346"/><path d="M442.94,259.73a29.15,29.15,0,0,1,9.08-9.31c4.62-1.58,9.28-2.47,14.15-1.19,11.74,3.08,19.61,17.48,10.11,31.31-10.07,9.42-19.8,9.39-30.58-.08C441.39,274,440.87,267,442.94,259.73Zm4.93,8.15c0,7.54,6.11,13.89,13.25,13.8s13.74-6.61,13.72-13.59c0-7.91-5.52-13.36-13.48-13.36C453.21,254.73,447.85,260,447.87,267.88Z" fill="#444346"/><path d="M36.12,248.45c7.75-.68,13.46,3.25,18.65,8.31,3.4,8.26,3.66,16.31-1.65,24-10.95,9.16-20,9.12-30.51-.13-6-11.68-5.11-20.6,2.73-27.41A22,22,0,0,1,36.12,248.45Zm1.58,6.28c-6.89,0-13.27,5.87-13.4,12.31-.16,7.87,6.07,14.59,13.28,14.64a13.56,13.56,0,0,0,13.69-13.83C51.32,260.09,45.83,254.78,37.7,254.73Z" fill="#444346"/><path d="M428.84,110c-1.53-3.46-3-7-4.61-10.39-3.86-8.06-2-15.36,2.78-22.33a9.72,9.72,0,0,0,.87-2.26c7.81,3.53,13.05,9.91,18.16,16.42-4.62,6.2-10.7,11.18-15,17.68C430.71,109.68,429.6,109.73,428.84,110Z" fill="#e1c4af"/><path d="M546.71,172.85c-1,4-2.69,4.07-5.6,1.34-2-1.83-3.94-5.76-6.39-4.53s-.12,5-.08,7.72c0,1.48,0,3,.05,4.44-1.66-3.57-4.15-5.73-8.72-4.6a13.39,13.39,0,0,0,5.58-7.16q6.66-22.91,13.14-45.88c4.32-15.26,2-30.26-1.92-45.18l-1-1v0q-1-2.36-2-4.71c3.1-.27,5.79,2.3,6.8,6.24,5,19.55,4.5,38.83-2.58,57.86-1.23,3.31-2.93,6.76-1.26,10.51a2.25,2.25,0,0,0-2.22,1.62c-1.26,4.39-3,8.73-3.55,13.21-.5,3.9.91,7.53,5.81,8.12C543.08,173.51,545.15,172.68,546.71,172.85Z" fill="#dec1ad"/><path d="M383,68.82C381.83,75,370.17,84.92,364.05,85c-2.28,0-4.26-.49-5.41-2.72-1.44-2.78-.15-5.24,1.21-7.42a28.6,28.6,0,0,1,4.64-5.09,7.2,7.2,0,0,0,2.46-5.7l2,0c.27.54.59.65,1,.13C374.89,64,379.51,64.77,383,68.82Z" fill="#dcbba1"/><path d="M403.06,73.49c-1.55,6-7.23,8.31-11,12.3-3.62,3.83-8.16,4.46-13.18,3.23a5.85,5.85,0,0,1-4.44-3.59c-.63-1.91,1.54-2.56,2.78-3.61a105.13,105.13,0,0,0,12.65-12.67C394.48,69.94,399.42,69.75,403.06,73.49Z" fill="#dcbba1"/><path d="M365,64l-8.32,11.58c-1,1.4-2.17,2.58-4,2.4-2.38-.22-5.83,1.25-6.86-1.29A14.51,14.51,0,0,1,346,64.74,35.23,35.23,0,0,0,349,57C354.85,58.12,360.6,59.48,365,64Z" fill="#dcbba1"/><path d="M542.89,169c-5,1.25-6.42-2.38-5.92-6.28.58-4.48,2.29-8.82,3.55-13.21a2.25,2.25,0,0,1,2.22-1.62l0,0a1.92,1.92,0,0,0,1.78,2l.23.11,1,.83a12.28,12.28,0,0,1,4,3.89c.22.34.45.67.67,1-.15.46-.31.92-.46,1.38-.45,1.53-.23,3.19-1.45,4.58s-1.09,2.74,1.12,3.13a15.61,15.61,0,0,1-3,8c-1.56-.17-3.63.66-3.82-3.83,0-.32,0,.76-.11,1.84.45-.14,1-.14,1.32-.43C545.05,169.41,544.82,168.46,542.89,169Z" fill="#e1c4af"/><path d="M526.83,212.82a1.81,1.81,0,0,1-1,1.74c-2.51,2.91-5.66,3.06-9,2-5.19-1.69-10.3-3.61-15.51-5.2-5.43-1.66-7.73-5.23-7.26-10.77l.12-.22h.26c1,1.7,2.79,2.08,4.51,2.66,6.62,2.22,13.22,4.53,19.82,6.8C520.94,212.22,524.17,211.76,526.83,212.82Z" fill="#d6ad8e"/><path d="M494.46,200.34h-.26l-.12.22c-4.81-4.5-7.93-10.21-11.25-15.77,3.55-6.07,3.54-6,9.7-3.49,1.64.68,3.39,1.08,5.09,1.61Q496,191.63,494.46,200.34Z" fill="#242424"/><path d="M336,52.19c-2.66,6.51-2,13.35-2,20.12A3,3,0,0,1,333,75c-2.07-3.2-2.7-7.51-7-9a62.31,62.31,0,0,1,3-15.89Z" fill="#c59575"/><path d="M544.54,150a1.92,1.92,0,0,1-1.78-2A1.68,1.68,0,0,1,544.54,150Z" fill="#dec1ad"/><path d="M550.48,155.78c-.22-.33-.45-.66-.67-1l3.18.44Z" fill="#dec1ad"/><path d="M94,25.69c0,.61,0,1.21,0,1.82A1.1,1.1,0,0,1,94,25.69Z" fill="#dcbba1"/><path d="M369.94,64.16c-.4.52-.72.41-1-.13Z" fill="#e1c4af"/><path d="M555.74,155.63c-.51.22-1,.19-1.22-.37C555.06,154.93,555.45,155.11,555.74,155.63Z" fill="#dec1ad"/><path d="M545.78,150.89l-1-.83Z" fill="#dec1ad"/><path d="M538.05,72.82,536.78,72Z" fill="#dec1ad"/><path d="M165.79,34.06c2.26-4.61,2.5-10.08,6-14.18Q204,31.82,236.29,43.76c12.8,4.72,25.39,5.16,37.35-2.43,2.12-1.35,3.25-.78,4.53.89,11.16,14.44,10.46,13.92-3,22.41C260.34,74,244,74.73,227.68,69,206.35,61.45,185.24,53.32,164,45.45,163.89,41.54,165.28,37.87,165.79,34.06Z" fill="#2dafb7"/><path d="M133.33,79c-10.55-9-11.64-19.63-3.16-30.74.49-.65.85-1.39,1.28-2.09,14.59-6.56,18-6,29.92,5,.6.54,1.22.21,1.79-.13.71,6.8,2,13.61-.22,20.38-1.8,1.82-3.71,3.56-4.34,6.2-1.18.66-2.25,1.6-3.74,1.52-2.65,2.38-6.28,2.15-9.31,3.52C141.36,81.82,137.06,81.35,133.33,79Zm18.4-17a7.16,7.16,0,0,0-7.23-6.81,7.31,7.31,0,0,0-6.95,7.16A7.09,7.09,0,0,0,151.73,62Z" fill="#4e4e50"/><path d="M163.16,51.06c-.57.34-1.19.67-1.79.13-11.9-11-15.33-11.59-29.92-5-4-5.48-6.75-11.89-12-16.54-2.06-1.82-4.94-2.76-6.16-5.51,18.24-.53,35.36,4.88,52.54,10-.51,3.81-1.9,7.48-1.76,11.39C163,47.2,163.12,49.14,163.16,51.06Z" fill="#c59575"/><path d="M370.84,155a151.31,151.31,0,0,1-22.6-13c-2-4.18-6.37-5.59-9.81-8-7.87-5.55-16.86-9.08-25.38-13.44.85-4.22,3.18-7.8,5-11.59,2.53-.14,4.3,1.28,6.18,2.74,15.31,11.92,28.95,25.71,43.44,38.54C369.13,151.5,371.06,152.6,370.84,155Z" fill="#c59575"/><path d="M326.05,66c4.26,1.52,4.89,5.83,7,9,3,6.11,5.63,12.35,5.93,19.29.08,1.78.37,4-2.07,4.42-2.23.35-2.15-2-2.94-3.32C331.33,91,330,85.41,324,84Z" fill="#dec1ad"/><path d="M413,161.85c.2-6.29-1.1-12.67,1.11-18.84,1.69-.27,2.16-1.58,3-2.9,5.32-8.39,11.93-15,22.78-15.23A62.54,62.54,0,0,1,472,132.93c1.79,1,3.63,2.58,5.92,1,.84,2.43.54,4.4-.78,6.9-3.91,7.4-9,13.9-14.18,20.36-6.25,7.82-14.45,11.5-24.64,11.84-8,.27-14.82-2.17-21.4-6.15h0c-.32-.33-.63-.67-.94-1l-1.84-2-1.2-2Z" fill="#e1c4af"/><path d="M416.87,166.88c6.58,4,13.38,6.42,21.4,6.15,10.19-.34,18.39-4,24.64-11.84,5.16-6.46,10.27-13,14.18-20.36,1.32-2.5,1.62-4.47.78-6.9l15.92-5.07c9.49-5.52,19.32-10.53,27.38-18.22.6-.57,1.83-.48,2.77-.7-.3,3.51-2.64,5.84-4.85,8.21-3.07,3.29-6.23,6.49-9.35,9.73C505,129,501.13,132,496.81,134c-9.25,2-13,9.56-17,16.9-4.84,5.9-8.41,12.69-13.45,18.47-8,9.19-18.06,12.31-29.85,10.93-2.15-.25-4.3-.4-6.45-.6-2-2.93-5.77-3.35-8.26-5.75C419.66,171.84,417.34,170.07,416.87,166.88Z" fill="#ebd5c5"/><path d="M373.91,157a4,4,0,0,1-3.07-2C372.41,154.8,373.83,154.83,373.91,157Z" fill="#c59575"/><path d="M412.92,161.83l1.2,2C413.12,163.54,412.92,162.74,412.92,161.83Z" fill="#c59575"/><path d="M416,165.88c.31.34.62.68.94,1Z" fill="#ebd5c5"/><path d="M61.93,164.51a7,7,0,0,1-6.93,7,6.83,6.83,0,0,1-6.94-6.88,6.6,6.6,0,0,1,6.85-6.88A6.77,6.77,0,0,1,61.93,164.51Z" fill="#d8d6e9"/><path d="M523.94,109.94c-.94.22-2.17.13-2.77.7-8.06,7.69-17.89,12.7-27.38,18.22-.05-2.14-2-2.23-3.22-2.46-3.51-.64-6.55-2.31-9.61-3.93-10.13-5.33-10.81-7-8.22-18a16.67,16.67,0,0,0,.1-3.47c6.28-5.74,14.53-7.71,21.92-11.26,7.54-3.62,15.67-6,23.35-9.4A37,37,0,0,1,541.78,78v0l1,1c3.92,14.92,6.24,29.92,1.92,45.18s-8.7,30.61-13.14,45.88a13.39,13.39,0,0,1-5.58,7.16c4.57-1.13,7.06,1,8.72,4.6l0,3c-3.16,2-2.24,4.51-.73,7-.74,7.53-4.33,14.1-7.1,20.94-2.66-1.06-5.89-.6-8-3,2.13-3.73,3-8.06,4.1-12,1.85-6.7,4.1-14-.09-21-.37-2.54.68-4.9,1-7.35,1.36-11.3,2.73-22.59,4-33.9,1.19-10.66,1.93-21.36,3.88-31.92.22-1.21.7-3-1-3.39-2-.48-1.9,1.56-2.21,2.64A13.85,13.85,0,0,1,523.94,109.94Z" fill="#e1c4af"/><path d="M472.84,101a16.67,16.67,0,0,1-.1,3.47c-2.59,11.09-1.91,12.71,8.22,18,3.06,1.62,6.1,3.29,9.61,3.93,1.27.23,3.17.32,3.22,2.46l-15.92,5.07c-2.29,1.58-4.13,0-5.92-1a62.54,62.54,0,0,0-32.11-8.05c2.36-5,7.55-7.07,11.36-10.53A65.18,65.18,0,0,1,472.84,101Z" fill="#dcbba1"/><path d="M523.94,109.94a13.85,13.85,0,0,0,4.43-7c.31-1.08.25-3.12,2.21-2.64,1.75.43,1.27,2.18,1,3.39-2,10.56-2.69,21.26-3.88,31.92-1.25,11.31-2.62,22.6-4,33.9-.29,2.45-1.34,4.81-1,7.35-4.52.26-7.5-2.58-9.62-5.8-1.48-2.25-1.88-1.57-3.95-.92-3.56,1.12-4.75,5.11-8.35,5.75,1.16-4.47-2.72-6.54-4.9-9-5-5.66-10.73-10.72-16.16-16,4-7.34,7.74-14.87,17-16.9-3.9,13.22,4.82,21,13.47,30.59,2-13.11-1-24.91-.54-36.67,3.12-3.24,6.28-6.44,9.35-9.73C521.3,115.78,523.64,113.45,523.94,109.94Z" fill="#d6ad8e"/><path d="M500.88,175.88c3.6-.64,4.79-4.63,8.35-5.75,2.07-.65,2.47-1.33,3.95.92,2.12,3.22,5.1,6.06,9.62,5.8,4.19,6.93,1.94,14.25.09,21-1.09,3.94-2,8.27-4.1,12-6.6-2.27-13.2-4.58-19.82-6.8-1.72-.58-3.49-1-4.51-2.66q1.59-8.72,3.16-17.43C500.47,181.39,500.88,178.73,500.88,175.88Z" fill="#dcbba1"/><path d="M533.93,191.88c-1.51-2.53-2.43-5,.73-7C534.76,187.22,535,189.61,533.93,191.88Z" fill="#dec1ad"/><path d="M549.69,164.87c-2.21-.39-2.33-1.75-1.12-3.13s1-3.05,1.45-4.58C551.42,159.79,550.55,162.33,549.69,164.87Z" fill="#dec1ad"/><path d="M95.79,210.2c.51,1.26.68,2.49-.4,3.58A4.75,4.75,0,0,1,95.79,210.2Z" fill="#d8d6e9"/><path d="M447.87,267.88c0-7.93,5.34-13.15,13.49-13.15,8,0,13.46,5.45,13.48,13.36,0,7-6.56,13.51-13.72,13.59S447.9,275.42,447.87,267.88Z" fill="#4e4e50"/><path d="M37.7,254.73c8.13.05,13.62,5.36,13.57,13.12a13.56,13.56,0,0,1-13.69,13.83c-7.21-.05-13.44-6.77-13.28-14.64C24.43,260.6,30.81,254.69,37.7,254.73Z" fill="#4e4e50"/><path d="M542.77,79l-1-1Z" fill="#d6ad8e"/><path d="M543,167.18c1.82,1.28,2,2.23,1.1,3.25-.28.29-.87.29-1.32.43C542.84,169.78,542.91,168.7,543,167.18Z" fill="#dec1ad"/><path d="M151.73,62a7.09,7.09,0,0,1-14.18.35,7.31,7.31,0,0,1,6.95-7.16A7.16,7.16,0,0,1,151.73,62Z" fill="#d8d6e9"/><path d="M509.74,127.88c-.51,11.76,2.56,23.56.54,36.67-8.65-9.58-17.37-17.37-13.47-30.59C501.13,132,505,129,509.74,127.88Z" fill="#e1c4af"/></g></g></svg>