<svg xmlns="http://www.w3.org/2000/svg" viewBox="0 0 610.7 322.4"><title>ex_d3_7_1</title><g id="Layer_2" data-name="Layer 2"><g id="Layer_1-2" data-name="Layer 1"><path d="M546.56,280.56c4.53.58,7.16,3.24,7.79,7.62.27,1.85,1.3,3,2.34,4.24,7.81,9.54,3.45,16.1-4.64,21.19s-17.48,6.59-26.86,8c-12.91,1.95-25.41.07-37.77-3.2a35.45,35.45,0,0,1-17.83-11.32,5.51,5.51,0,0,1-1-4.71c.75-5-1.5-6.28-6.17-5.91-5,.39-10,.09-15,.09h-409c-1.5,0-3,0-4.49-.07.24-2.65,2.93-3.13,4.45-4.27,5.2-3.87,9.37-9.17,15.59-11.66q209.58,0,419.16,0c3.32,0,6.64.13,10,.2,0,5,0,10,0,15,0,3.27.92,5.88,4.31,7,1.26,3.19,1.68,6.86,5,8.9a6.15,6.15,0,0,0,4.92,2.76c4,.18,8.11,0,12.16,0,5.32-.62,7.81-5.59,12.07-7.84C534.61,302.48,543.4,294.22,546.56,280.56Z" fill="#ebece6"/><path d="M317.46,107.91l1.33-.26a5,5,0,0,0,3.94-.41l4.91,0c2.22.47,2.59,1.94,2.59,4,0,4.14.16,8.29.53,12.42.46,5.18,4.3,7.16,8.68,8.29,4.14,1.06,5.3-2.38,7-5,3.29-4.91,5.12-10.7,9.12-15.19q0,6,.1,12a45.1,45.1,0,0,0,1.13,14,95,95,0,0,0,3.8,21c0,.35-.09.7-.14,1-4.86-.61-9,1.9-13.45,3.13-24.85,6.94-49.58,14.32-74.43,21.27-15.28,4.28-30.39,9.18-45.92,12.53a2.74,2.74,0,0,1-.92-.25c-5-9.75-9.94-19.51-11.67-30.5,21.44-8.4,42.62-17.45,63.76-26.59C294,132.41,306.85,121.67,317.46,107.91Z" fill="#3c3e3c"/><path d="M473.32,24.65c11.51,2.54,20.26,9.13,26.73,18.75,6.66,9.9,8.32,21,7.18,32.7a1,1,0,0,1-.75-.2h0a2.19,2.19,0,0,0-2-1l.08.08c0-.34,0-.69,0-1-1-1.78-2.26-3.35-4.28-3.9-1-.28-2.17-1.4-3.21-.34a2.74,2.74,0,0,0-.23,3.29C499,76.06,499,79.83,500,83.25c2,6.73,4.28,13.49,4.48,20.65.11,1.06-.25,2.28,1,3-.23.64-.46,1.28-.7,1.91a2.49,2.49,0,0,0-2.06,1.94c-.64,5.73-4.9,7.37-9.52,8.66-6.06,1.69-12.08,3.54-18.18,5A17.35,17.35,0,0,1,453.79,112q-3.32-12-6.62-23.91c-1.19-4.3-.63-8.3,1-12.55,3-7.79,8.89-11,16.42-12.5l3.91-.21c1.07.08,2.17.42,3.53-.49l-3.35-.62,0-6.54a10.53,10.53,0,0,0,0-8.4,1.92,1.92,0,0,0,0-.86c0-1.12.2-2.31-1.09-2.95q0-5.48,0-11Z" fill="#e1c4af"/><path d="M168.87,171c6.87-2.29,12.64-7.16,19.82-8.67,8.31-1.75,15.29-6.6,23.1-9.51-4,10.41-8.43,20.72-12,31.3-1.93,5.7-4.95,11.18-5,17.45-7.47-2.16-13.46,1.56-19.54,4.93-.43.24-.88.45-1.32.68-12.39,6.52-25,12.22-39.11,14.13-5.78.78-11.65-.35-17.34,1.19-9.93,2.68-19.93,5.15-29.73,8.23C80.54,233,72.85,234,66.12,237.83l-4.2-.19c1-3.94-2.57-6.92-2.18-10.73.2-1.76,1.51-2.41,2.92-3,18.07-8,36-16.44,54.26-24.05,13.49-5.62,27.62-8.34,42.47-6.36,3.76.5,7.63,1.94,12.32.83-3.44-3.14-7.39-4.65-10-7.95-1.94-2.5-2.12-4.12-.33-7C163.48,176.1,167.31,174.6,168.87,171Z" fill="#d6ad8e"/><path d="M558.84,127.85c-6.15-.67-11.75,1.81-17.54,3.12-2.48.56-2.85,2.3-2.83,4.52a108.7,108.7,0,0,1-2.08,23.25c-3.86-1.76-7.75-3.16-11.93-1a63,63,0,0,1-5.84-15.29,27.24,27.24,0,0,0-6.41-12.08c-1.69-1.76-3.8-3.09-4.78-5.47.21-3.28-2.63-3.7-4.64-4.87-.9-.52-3-.22-1.3-2.23,1.64,2.13,3.23-.2,4.85,0,2.2,2,5.09,1.11,7.58,1.54,8.48,1.45,16.87,3.67,25.56,3.62l1.78.14,1.14.78,3.83,1.17.72.31-.32-.71a33.93,33.93,0,0,0-4.12-4.18c-4-2.83-6.68-6.22-6.33-11.38,14.57-4.3,29.07-8.9,43.76-12.77,6.17-1.62,12.16-4.3,18.7-4.41,2.46,6.23,2.16,12.58.61,18.92-.38,1.55-.68,3.69-2.51,4-8.08,1.34-13.33,8.5-21.25,10.06C570.07,126.59,564.39,126.86,558.84,127.85Z" fill="#d6ad8e"/><path d="M317.46,107.91c-10.61,13.76-23.44,24.5-39.61,31.49-21.14,9.14-42.32,18.19-63.77,26.59q-.69-6.72-1.4-13.44c.6-11.74,8.79-15.33,18.45-18.55,18.72-6.22,37-13.77,55.71-20A119.84,119.84,0,0,1,317.46,107.91Z" fill="#32b0b7"/><path d="M547.22,202.74c-.05.67-.09,1.35-.13,2-.19.37-.37.75-.56,1.13-2.09,6.16.36,12,1.34,17.9,2,12,1,23.9-.27,35.84-.37.51-1,1-1.06,1.55-.89,5.05-1.94,9.77-9,7.49-.84-.27-1.93.25-2.91.36-7,.79-11.72,5.83-17.13,9.56-3.5-1-5.59-3.88-8.14-6.14.44-2.55,3.31-3.42,4-5.78,6.75-2.78,13.41-6,21.06-4.05l1.1.74.25-.39-1.33-.37c-3.7-4.38-8.92-4.48-14-5-3.55-11.93-1.62-23.89-.22-35.86.81-6.93,4-13.21,5.23-20l2.08,0a49.41,49.41,0,0,1,8.26,3.67C539.86,207.55,543.44,203.91,547.22,202.74Z" fill="#dcbaa1"/><path d="M598.64,91.91c-6.54.11-12.53,2.79-18.7,4.41-14.69,3.87-29.19,8.47-43.76,12.77-3.89-5.49-2.1-10.86.36-16.21,1.39-2.32,1.32-5,1.81-7.54,2.81-2.44,6.71-4,7.1-8.43.52,1.35-1.14,5.13,2.62,3,4-2.3,8.3-3.51,12.52-5.1,5.75-3.22,12.23.58,18-1.72,6.87-2.76,10.94.58,14.42,5.78C595.66,82.85,598.1,87,598.64,91.91Z" fill="#e1c4af"/><path d="M53.93,280.56c-6.22,2.49-10.39,7.79-15.59,11.66-1.52,1.14-4.21,1.62-4.45,4.27-1.72-.22-3.71.76-5-1.15-2.28-1.42-4.64-2.95-5.17-5.75-1.31-6.86-3.9-13.32-6-19.94,3.78-3.79,8-6.61,13.61-7a47.53,47.53,0,0,0,6.9-.61,67.15,67.15,0,0,0,26.69-12.4,7.14,7.14,0,0,1,3,6.22,10.9,10.9,0,0,0,1.86,6.84c-.46,3,2.26,4.53,3.13,6.91-.82,3.4-4,3.06-6.35,3.76C61.79,274.87,57.42,276.88,53.93,280.56Z" fill="#dad8eb"/><path d="M59.74,226.91c-.39,3.81,3.23,6.79,2.18,10.73-.93.29-2,1-2.78.81-8.55-1.76-16.46.81-24.52,3.07-7.77,2.17-14.7,9.73-23.84,4.14-1.39-6.37-2.67-12.77-5.07-18.87-1.13-2.86-.07-5.46,1.18-8,4.07-3.7,9-2.81,13.55-1.92,11.31,2.23,22.52,3.16,33.68-.44,1.8-.59,3.21.14,4.79.27C58.41,220.16,56.15,223.78,59.74,226.91Z" fill="#dad8eb"/><path d="M59.74,226.91c-3.59-3.13-1.33-6.75-.83-10.22,25-10.9,49.4-22.9,74-34.61a135.65,135.65,0,0,1,36-11.05c-1.56,3.57-5.39,5.07-7.46,8.35-1.79,2.84-1.61,4.46.33,7,2.58,3.3,6.53,4.81,10,7.95-4.69,1.11-8.56-.33-12.32-.83-14.85-2-29,.74-42.47,6.36-18.26,7.61-36.19,16-54.26,24.05C61.25,224.5,59.94,225.15,59.74,226.91Z" fill="#dcbaa1"/><path d="M337.42,74.71c1.3-4.59,4.7-7.93,7.31-11.68,11.54-16.57,22.65-33.48,36.67-48.16,4.25-4.45,9.57-7.65,14.08-11.78C401.31-2.25,408,.83,414,1.42c8.16.8,16.46,1.66,24.39,4.27a9.49,9.49,0,0,1,4.16,2.39c0,1,0,1.93,0,2.89-3.24.38-6.2-.85-9.26-1.56-8.35-1.92-16.64-2.33-25,.17-15.11,4.51-25,15.91-34.17,27.35C367.56,45.1,361,53.45,355,62.1c-3.44,4.94-8.59,8.68-10.37,14.77h-3Z" fill="#e1c4af"/><path d="M547.22,202.74c-3.78,1.17-7.36,4.81-11.41,2.65a49.14,49.14,0,0,0-8.27-3.67c-.84-1.89-3.15-2.08-4.26-3.66.23-1.24-.57-2.12-1-3.17-5.27-12.71-8.63-25.34,2.19-37.11,4.18-2.2,8.07-.8,11.93,1-.07,1.75.83,3.08,1.68,4.54C545.17,175.48,548.55,188.58,547.22,202.74Z" fill="#e1c4af"/><path d="M598.64,91.91c-.54-4.94-3-9.06-5.66-13.07-3.48-5.2-7.55-8.54-14.42-5.78-5.74,2.3-12.22-1.5-18,1.72a5.67,5.67,0,0,1,1.77-3.26c7.86-1.79,15.25-5.7,23.7-4.76,12.48,1.38,23.28,12.63,24.46,25.73,1.42,15.81-5.41,26.72-19.21,30.67-4.3,1.24-8.59,2.5-12.89,3.75-1.22-.33-2.45-.64-2.93-2,7.92-1.56,13.17-8.72,21.25-10.06,1.83-.3,2.13-2.44,2.51-4C600.8,104.49,601.1,98.14,598.64,91.91Z" fill="#312823"/><path d="M517.5,278.59c5.41-3.73,10.08-8.77,17.13-9.56,1-.11,2.07-.63,2.91-.36,7.06,2.28,8.11-2.44,9-7.49.1-.57.69-1,1.06-1.55a154.05,154.05,0,0,1-1,20.93c-3.16,13.66-11.95,21.92-25,26.06-3-.58-1.86-3-2-4.74-.61-6.43,1.17-13-1-19.33l-1-1C517.51,280.56,517.51,279.57,517.5,278.59Z" fill="#d6ad8e"/><path d="M538.35,85.34c-.49,2.54-.42,5.22-1.81,7.54-.09-.76.1-1.83-.34-2.24-.86-.81-1.29.34-1.65.88-.86,1.3-1.6,2.69-2.39,4-4.1.63-6.29,4.07-8.93,6.56-5.59,5.28-12.16,9.49-16.89,15.68-1.62-.16-3.21,2.17-4.85,0h0l1-1c.71-2.7,2.28-5.14,2.34-8l.69-1.91c-.16-1,.17-2.24-1-3C504.3,96.74,502,90,500,83.25c-1-3.42-1-7.19-3.27-10.29a2.74,2.74,0,0,1,.23-3.29c1-1.06,2.19.06,3.21.34,2,.55,3.28,2.12,4.28,3.9-.12.1-.36.25-.34.3a4.28,4.28,0,0,0,.39.73l-.08-.08a2,2,0,0,0,2,1h0c0,1.32.58,2.15,2.06,2l0-.06c-.26,3.74,3.13,5.62,4.4,8.59,2,4.66,5.1,5.58,9.31,2.71l9.24-2.2c.42.71.74.56,1-.12Z" fill="#dcbaa1"/><path d="M212.68,152.55q.7,6.72,1.4,13.44c1.74,11,6.7,20.75,11.69,30.5-10.2,2.41-20.26,5.69-31,5.11,0-6.27,3-11.75,5-17.45,3.58-10.58,8-20.89,12-31.3A4.91,4.91,0,0,1,212.68,152.55Z" fill="#c69575"/><path d="M337.42,74.71l4.23,2.17c-7.85,5.91-8.45,13.64-6.44,22.57,1,4.25,3.52,6,6.81,6.88s6.75,1.24,9.81,3c2.39,1.4,2.55-1.06,3.42-2.23a.63.63,0,0,0,.58-.23l-.27,4.93,0-.08c-4,4.49-5.83,10.28-9.12,15.19-1.73,2.58-2.89,6-7,5-4.38-1.13-8.22-3.11-8.68-8.29-.37-4.13-.54-8.28-.53-12.42,0-2.07-.37-3.54-2.59-4,1-.57,2.08-.91,1.6-2.56s-.34-3.3-.79-4.87C325.4,89.23,328.84,81.06,337.42,74.71Z" fill="#dcbaa1"/><path d="M10.78,245.66c9.14,5.59,16.07-2,23.84-4.14,8.06-2.26,16-4.83,24.52-3.07.83.17,1.85-.52,2.78-.81l4.19.19a5.33,5.33,0,0,1-3,4.74c-.82.49-2,1-1.67,2.12s1.6.88,2.5.9c2.18.06,4.39-.06,5.21,2.64l-4.21,1.44a67.15,67.15,0,0,1-26.69,12.4,47.53,47.53,0,0,1-6.9.61c-5.58.36-9.83,3.18-13.61,7-2.24-4.31.55-7.61,2.26-11.12l-.1.1c.72-.05,1.16-.37,1.12-1.15,1.72-1.83,4.81-1,6.66-3.56l-7.92,1.52C16.29,252.61,11,251.47,10.78,245.66Zm22.17,5c-.29,1.87-4.25,1-3,4a46.89,46.89,0,0,0,18.85-1.55,25.34,25.34,0,0,0,9.47-5.32c1.85-1.69,2.49-3.38-.66-4.23C50.58,241.71,39,245.09,33,250.7Z" fill="#c4c2dc"/><path d="M10.78,245.66c.2,5.81,5.51,7,9,9.78-9.89.76-12.44-.76-16.12-10C1.47,240-.54,234.45.13,228.5c.49-4.31,1.24-8.76,6.76-9.72-1.25,2.55-2.31,5.15-1.18,8C8.11,232.89,9.39,239.29,10.78,245.66Z" fill="#464748"/><path d="M20,258.53c-1.71,3.51-4.5,6.81-2.26,11.12,2.06,6.62,4.65,13.08,6,19.94.53,2.8,2.89,4.33,5.17,5.75-2.4,1.77-4.39,1.76-6.88-.39-8.8-7.59-10.5-17.69-10.29-28.36C11.77,261.7,15,258.89,20,258.53Z" fill="#464748"/><path d="M442.57,11c0-1,0-1.93,0-2.89a4.53,4.53,0,0,1,1-.07c4.9,2.7,9.32,6.27,14.7,8.1l1.19,1.09a6.7,6.7,0,0,0,4.89,4.86c2.31,3.25,6.18,1.06,9,2.58L467.54,32c-5.68-7.78-11.72-15.16-21-19-.79-1.78-2.3-2.12-4-2Z" fill="#d6ad8e"/><path d="M562.36,71.52a5.67,5.67,0,0,0-1.77,3.26c-4.22,1.59-8.53,2.8-12.52,5.1-3.76,2.16-2.1-1.62-2.62-3,2.65-5.26,7.74-6.64,12.83-7.93C560.36,68.45,561.73,69.5,562.36,71.52Z" fill="#d1a17e"/><path d="M575.49,124.88c.48,1.39,1.71,1.7,2.93,2-.07.82.19,1.9-.24,2.42-3.14,3.76-7.7,3.33-11.85,3.34-3.18,0-6.85-.37-7.49-4.82C564.39,126.86,570.07,126.59,575.49,124.88Z" fill="#b37f5a"/><path d="M522.21,89.12c-4.21,2.87-7.33,1.95-9.31-2.71-1.27-3-4.66-4.85-4.4-8.59C513.53,81,517.84,85.12,522.21,89.12Z" fill="#b37f5a"/><path d="M458.25,16.11c-5.38-1.83-9.8-5.4-14.7-8.1C449.72,8.42,454.32,11.65,458.25,16.11Z" fill="#e1c4af"/><path d="M464.33,22.06a6.7,6.7,0,0,1-4.89-4.86C461.66,18.22,464,19.18,464.33,22.06Z" fill="#e1c4af"/><path d="M322.73,107.24a5,5,0,0,1-3.94.41A3.63,3.63,0,0,1,322.73,107.24Z" fill="#dcbaa1"/><path d="M508.54,77.88c-1.48.17-2-.66-2.06-2a1,1,0,0,0,.75.2C507.67,76.69,508.11,77.28,508.54,77.88Z" fill="#b37f5a"/><path d="M532.45,86.8c-.26.68-.58.83-1,.12Z" fill="#e1c4af"/><path d="M546.53,205.89c.19-.38.37-.76.56-1.13Z" fill="#e1c4af"/><path d="M21,257.48c0,.78-.4,1.1-1.12,1.15C19.66,257.67,20.49,257.72,21,257.48Z" fill="#464748"/><path d="M509.45,314.46c-4.05,0-8.11.14-12.16,0a6.14,6.14,0,0,1-4.92-2.77c1.73-1.38,1.08-3.32,1.1-5,.07-8.69,0-17.37.07-26.06a29.48,29.48,0,0,0,6.84-.69c5.61-1.27,9.09,1.71,9.09,7.36Q509.47,300.84,509.45,314.46Z" fill="#dcbaa1"/><path d="M509.45,314.46q0-13.62,0-27.24c0-5.65-3.48-8.63-9.09-7.36a29.48,29.48,0,0,1-6.84.69c-.07-1.05-.15-2.11-.22-3.16l.9-2.43c3.11-.15,6.23-.47,9.35-.4a7.42,7.42,0,0,0,5.79-2.11c2.55,2.26,4.64,5.14,8.14,6.14,0,1,0,2,0,3l1,1c2.18,6.35.4,12.9,1,19.33.16,1.76-1,4.16,2,4.74C517.26,308.87,514.77,313.84,509.45,314.46Z" fill="#e1c4af"/><path d="M494.22,275l-.9,2.43c-4.06,1.86-4.64,5.45-4.94,9.37-.4,5.33,1.23,10.79-1,16-3.39-1.15-4.34-3.76-4.31-7,0-5,0-10,0-15C485.33,274.94,486.36,274.4,494.22,275Z" fill="#b37f5a"/><path d="M487.37,302.76c2.24-5.21.61-10.67,1-16,.3-3.92.88-7.51,4.94-9.37.07,1.05.15,2.11.22,3.16,0,8.69,0,17.37-.07,26.06,0,1.72.63,3.66-1.1,5C489.05,309.62,488.63,306,487.37,302.76Z" fill="#d6ad8e"/><path d="M385.36,203.81c.17,2.32-1.78,3.25-3.23,3.95-10.78,5.15-20.1,12.75-30.79,18-13.91-5-28.12-8.34-43-6.62C283,222.07,258,226.43,232.92,231c-.74-1.83-1.59-3.63-2.21-5.5-2.67-8.06-3.09-16.53-4.43-24.83l-.58-1.16a3.13,3.13,0,0,0,1-2.8c15.53-3.35,30.64-8.25,45.92-12.53,24.85-7,49.58-14.33,74.43-21.27,4.41-1.23,8.59-3.74,13.45-3.13.67,1.7,1.35,3.39,2,5.09,3.73,9.59,7.35,19.22,13.27,27.75C378,197.16,380.57,201.46,385.36,203.81Z" fill="#19191a"/><path d="M375.76,192.65c-5.92-8.53-9.54-18.16-13.27-27.75-.66-1.7-1.34-3.39-2-5.09,0-.34.1-.69.14-1,7.55-.47,14.13-4.67,21.52-5.65,3.63-.48,6.07-2.14,7.53-5.4l3,2c.49,2.76-2.93,4.94-1.65,7.47,2.33,4.64,2.25,9.95,4.59,14.52a34.29,34.29,0,0,1-13,7.66c6.36-.24,12.67,1.47,18.87-.58,4.41,2.14,8,.08,11.49-2.3,3.3-2.28-.47-4.35-.41-6.58.15-5.14.23-10.29-.05-15.41-.18-3.3.25-7.16-4-8.73,1.47-3.09,1.05-5.95-.8-8.81-2.23-3.44-4-7.21-6.42-10.49a12.91,12.91,0,0,1-2.72-9.66c2.73-1.14,3.69-4.77,7.07-5a11,11,0,0,0,.72,10.46c2.89,5,5.9,10,9.11,14.75,1.34,2,3,4.07,6,3.88-4.75,9.07-3.22,18.59-1.78,28,.36,2.42.9,5.48,4.42,5.77,4.22.35,8.34.1,11.68-3a2.15,2.15,0,0,0,.58-1.78c-1.15-4,.87-7.77,1-11.63.23-7.13,1.86-14.85-5.93-19.62,1.95-4.62,1.31-8.85-1.3-13.15-2.4-4-4.79-7.92-8.3-11a6.42,6.42,0,0,1-2.34-5.69c2.48-2.92,4.77-6,8.2-8-.37,4.82-.58,9.56,2.32,13.9,3.4,5.1,6.51,10.38,9.86,15.51,1.28,2,2.86,3.73,5.57,3.6-2.91,8.33-2.34,17.09-2.69,25.65-.37,9.06,3.59,13.11,10.78,13.16.47,2.57-1.53,3.62-3.2,4.44-4.88,2.39-10,4.34-14.85,6.75-3.68,1.82-8,2.37-10.9,5.74-7.31,0-13.38,3.9-20,6.21-1.68.59-3.35,1.22-5,1.83-5-3.39-11-2.17-16.46-3.79C380.87,193.24,378.56,190.73,375.76,192.65Z" fill="#c69575"/><path d="M405.65,111.84c-3.38.22-4.34,3.85-7.07,5a21.45,21.45,0,0,0-13.92,3c-5.88,2.48-10.6,6.83-16.06,10-4,2.48-7.42,5.93-11.78,7.94a45.1,45.1,0,0,1-1.13-14,223.42,223.42,0,0,0,17.92-18c1.19-1.21,2.79-.68,4.19-1,6.7-1.36,13.71-1.37,19.92-4.77.95.6.59-.29.71-.63l1.13-.6c1.29,1.65,3,1.11,4.52.68,8.22-2.32,16.73-3,25.11-4.38,2.64-.43,6.21-2,8.42,1.56-2.71,2.82-6.77,2.46-9.93,4.23-3.43,1.94-5.72,5-8.2,8C414.28,107.12,410.12,110.2,405.65,111.84Z" fill="#d6ad8e"/><path d="M356.82,137.75c4.36-2,7.74-5.46,11.78-7.94,1.44,1.92,3,.49,4.35,0a11,11,0,0,1,10.61,1c.94.62.73,1.71,1.07,2.57,1.87,4.72,1,10.41,5,14.34-1.46,3.27-3.9,4.93-7.53,5.41-7.39,1-14,5.18-21.52,5.65A95,95,0,0,1,356.82,137.75Z" fill="#d1a17e"/><path d="M373.61,105.79a223.42,223.42,0,0,1-17.92,18q-.06-6-.1-12l0,.08c1.16-1.58,3.75-3.09.27-4.93a.6.6,0,0,1-.57.22c1.68-4.37-1.74-8.85.28-13.22.56,1,1.18,2,1.68,3C362.38,107.61,362.38,107.61,373.61,105.79Z" fill="#b37f5a"/><path d="M446.58,13c9.24,3.85,15.28,11.23,21,19q0,5.47,0,11l0,1c-13.29.73-25.63-2.29-37.72-8-3.85-1.79-7.62-4.5-12.09-5.09-.8-1.87,2.81-4.52-1-5.86-4.63,1.41-5.57,6.13-8.2,9.29-6.29,7.57-11.34,16.48-20.08,21.49-10.3,5.91-21.26,11.53-29.1,20-6.16,6.65-9.58,4.11-14.69,1.05C346.41,70.78,351.56,67,355,62.1c6-8.65,12.56-17,19.12-25.17,9.18-11.44,19.06-22.84,34.17-27.35,8.38-2.5,16.67-2.09,25-.17,3.06.71,6,1.94,9.26,1.56h0C442.86,13.71,445,12.79,446.58,13Z" fill="#dcbaa1"/><path d="M437.62,96.69c-2.22-3.54-5.79-2-8.43-1.56-8.38,1.37-16.89,2.06-25.11,4.38-1.53.43-3.23,1-4.52-.68,9.18-6.5,18.17-13.29,29.24-16.51a13,13,0,0,0,6-3.32c6.48-6.9,13.27-13.4,22.21-17.1,2.49.51,5.28-1,7.52,1.12-7.53,1.46-13.47,4.71-16.42,12.5-1.61,4.25-2.17,8.25-1,12.55q3.29,12,6.62,23.91A17.35,17.35,0,0,0,475,124.41c6.1-1.5,12.12-3.35,18.18-5,4.62-1.29,8.88-2.93,9.52-8.66a2.49,2.49,0,0,1,2.06-1.94c0,2.89-1.62,5.33-2.33,8l-1,1h0c-1.7,2,.4,1.71,1.3,2.23,2,1.17,4.85,1.59,4.64,4.87-4-2.16-7.84-3.81-12.63-2.12-6.38,2.25-13,3.8-19.45,5.89-6.74,2.19-10.6,8-11,14.94-.32,6,2.76,11.19,3.3,16.94-1.27.93-1.12,2.3-1.15,3.62-.33,11.9-4.82,21.11-16.75,25.28-1.79.62-2.37,1.56-2.24,3.25-7.79,0-15.25-2.45-23-3.07,2.86-3.37,7.22-3.92,10.9-5.74,4.87-2.41,10-4.36,14.85-6.75,1.67-.82,3.67-1.87,3.2-4.44,2.44-.36,2-2.26,2-3.86,0-3.15-.33-6.35.09-9.44,1.05-7.78.5-15.88,4.6-23.08s4.1-7.35-4.15-10.55a2,2,0,0,0-.49-.07c-6.66-6-11-13.39-14-21.71C440.59,101.45,438.94,99.13,437.62,96.69Z" fill="#c18d6b"/><path d="M464.57,63c-2.24-2.15-5-.61-7.52-1.12l-2.71-1.71c2.24-3,7.14-2.9,8.25-7.17,3.33-1.18,3.31-4.71,5-7.05l1-.07a1.92,1.92,0,0,1,0,.86q0,4.2,0,8.4l0,6.54-.18,1.11Z" fill="#b37f5a"/><path d="M468.69,55.16q0-4.2,0-8.4A10.53,10.53,0,0,1,468.69,55.16Z" fill="#c18d6b"/><path d="M468.48,62.81l.18-1.11,3.35.62C470.65,63.23,469.55,62.89,468.48,62.81Z" fill="#c18d6b"/><path d="M504.5,103.9c1.15.72.82,1.92,1,3C504.25,106.18,504.61,105,504.5,103.9Z" fill="#c18d6b"/><path d="M468.61,45.9l-1,.07,0-2,0-1C468.81,43.59,468.6,44.78,468.61,45.9Z" fill="#c18d6b"/><path d="M506.48,75.9a2,2,0,0,1-2-1A2.19,2.19,0,0,1,506.48,75.9Z" fill="#b37f5a"/><path d="M504.52,74.94a4.28,4.28,0,0,1-.39-.73s.22-.2.34-.3C504.49,74.25,504.5,74.6,504.52,74.94Z" fill="#b37f5a"/><path d="M467.67,160.59c-.54-5.75-3.62-11-3.3-16.94.38-7,4.24-12.75,11-14.94,6.45-2.09,13.07-3.64,19.45-5.89,4.79-1.69,8.67,0,12.63,2.12,1,2.38,3.09,3.71,4.78,5.47a27.24,27.24,0,0,1,6.41,12.08,63,63,0,0,0,5.84,15.29c-10.82,11.77-7.46,24.4-2.19,37.11.44,1.05,1.24,1.93,1,3.17-12.18-3.69-24.41-7.24-36.53-11.11-7.37-2.36-13.26-6.27-15.25-14.69C470.57,168.34,470.23,164.05,467.67,160.59Z" fill="#dcbaa1"/><path d="M506.34,117.8c4.73-6.19,11.3-10.4,16.89-15.68,2.64-2.49,4.83-5.93,8.93-6.56-.53,3.6-4.57,5.93-3.71,10,1.33,6.27,2,13,9.42,15.6.66.23,1.08,1.17,1.61,1.79-8.69.05-17.08-2.17-25.56-3.62C511.43,118.91,508.54,119.81,506.34,117.8Z" fill="#c18d6b"/><path d="M539.48,123c-.53-.62-1-1.56-1.61-1.79-7.45-2.64-8.09-9.33-9.42-15.6-.86-4.08,3.18-6.41,3.71-10,.79-1.35,1.53-2.74,2.39-4,.36-.54.79-1.69,1.65-.88.44.41.25,1.48.34,2.24-2.46,5.35-4.25,10.72-.36,16.21-.35,5.16,2.38,8.55,6.33,11.38a33.93,33.93,0,0,1,4.12,4.18c-.14.13-.27.26-.4.4l-3.83-1.17-1.14-.78Z" fill="#b37f5a"/><path d="M541.26,123.1l1.14.78Z" fill="#c18d6b"/><path d="M546.63,124.65l.32.71-.72-.31C546.36,124.91,546.49,124.78,546.63,124.65Z" fill="#b37f5a"/><path d="M467.67,160.59c2.56,3.46,2.9,7.75,3.83,11.67,2,8.42,7.88,12.33,15.25,14.69,12.12,3.87,24.35,7.42,36.53,11.11,1.11,1.58,3.42,1.77,4.26,3.66l-2.07,0c-2.66-1.81-5.36-.77-8.05-.1-4.82-1-6.93,3.92-10.8,5-2.1-6.95-4.23-8.73-11.49-8.16-16.28,1.27-32-1.28-47.6-5.76-.13-1.69.45-2.63,2.24-3.25,11.93-4.17,16.42-13.38,16.75-25.28C466.55,162.89,466.4,161.52,467.67,160.59Z" fill="#b37f5a"/><path d="M517.42,201.65c2.69-.67,5.39-1.71,8.05.1-1.23,6.8-4.42,13.08-5.23,20-1.4,12-3.33,23.93.22,35.86-4.87.9-6.92-2.13-8.11-6C507.05,234.25,507.93,217.51,517.42,201.65Z" fill="#d6ad8e"/><path d="M517.42,201.65c-9.49,15.86-10.37,32.6-5.07,49.94,1.19,3.9,3.24,6.93,8.11,6,5.08.5,10.3.6,14,5l0,0c-7.65-1.94-14.31,1.27-21.06,4.05-8.95-17.32-11-35.6-7.68-54.64q.46-2.68.92-5.37C510.49,205.57,512.6,200.68,517.42,201.65Z" fill="#c69575"/><path d="M534.46,262.6l1.33.37-.25.39-1.1-.74Z" fill="#c69575"/><path d="M190.81,215.72c9.92-9.08,22-13.46,34.88-16.18.2.38.4.77.59,1.16-1.14.2-1.61,1.11-2,2-5.89,14.87-11.88,29.7-16.51,45-23.86,3.3-46.31,13.08-70.79,14.23-20.11.94-40.19,3.85-60.1,7.3-1.31.23-2.64.24-4,.35-.87-2.38-3.59-3.93-3.13-6.91,2.66-4.12,7.21-2.34,10.71-2.88,16-2.5,32.05-4.1,48.06-6.27,24-3.25,43.59-14.66,59.51-32.68A9.54,9.54,0,0,0,190.81,215.72Z" fill="#d6ad8e"/><path d="M190.81,215.72a9.54,9.54,0,0,1-2.72,5.18c-15.92,18-35.51,29.43-59.51,32.68-16,2.17-32.1,3.77-48.06,6.27-3.5.54-8-1.24-10.71,2.88A10.9,10.9,0,0,1,68,255.89a7.14,7.14,0,0,0-3-6.22l4.21-1.44c18.07-4.35,36.07-9,53.48-15.53,7.56-2.83,14.22-7.73,22-10.34,11.33-3.8,23.11-4.26,34.78-5.65C183.2,216.26,187,216,190.81,215.72Z" fill="#dcbaa1"/><path d="M344.63,76.87c5.11,3.06,8.53,5.6,14.69-1.05,7.84-8.45,18.8-14.07,29.1-20,8.74-5,13.79-13.92,20.08-21.49,2.63-3.16,3.57-7.88,8.2-9.29-.68,5.91-4.29,10.46-7,15.43-.75,1.36-2.94,2.52-1,4.53a144.91,144.91,0,0,1-22.39,21.13c-9.46,7-19.55,13.17-28.48,20.93-2.27,2-3.31,4-2.22,6.83-2,4.37,1.4,8.85-.28,13.22-.88,1.18-1,3.64-3.43,2.24-3.06-1.8-6.48-2.16-9.81-3s-5.86-2.63-6.81-6.88c-2-8.93-1.41-16.66,6.44-22.57Z" fill="#d6ad8e"/><path d="M518.49,282.55l-1-1Z" fill="#dcbaa1"/><path d="M501.49,117.84l1-1Z" fill="#d6ad8e"/><path d="M355.83,106.91c3.48,1.84.89,3.35-.27,4.93Z" fill="#3c3e3c"/><path d="M33,250.7c6-5.61,17.63-9,24.66-7.08,3.15.85,2.51,2.54.66,4.23a25.34,25.34,0,0,1-9.47,5.32A46.89,46.89,0,0,1,30,254.72c5.94-1.37,12-2.49,18.5-6.05C42.12,247.53,37.77,250.77,33,250.7Z" fill="#464748"/><path d="M446.58,13c-1.58-.2-3.72.72-4-2C444.28,10.87,445.79,11.21,446.58,13Z" fill="#e1c4af"/><path d="M232.92,231c25-4.6,50.11-9,75.4-11.87,14.9-1.72,29.11,1.65,43,6.62-15.79,7.65-32.52,12.16-49.7,15.39-15.15,2.85-30.28,5.93-45.25,9.59-6.25,1.52-10.61.08-14.48-4.56a34,34,0,0,0-2.87-2.75C237.05,239.29,234.14,235.57,232.92,231Z" fill="#32b0b7"/><path d="M232.92,231c1.22,4.54,4.13,8.26,6.12,12.42-8.71.65-17.49.72-25.87,3.79-1.64.6-3.58.37-5.38.52,4.63-15.33,10.62-30.16,16.51-45,.37-.92.84-1.83,2-2,1.34,8.3,1.76,16.77,4.43,24.83C231.33,227.4,232.18,229.2,232.92,231Z" fill="#b37f5a"/><path d="M375.76,192.65c2.8-1.92,5.11.59,7.36,1.27,5.43,1.62,11.5.4,16.46,3.79a89.68,89.68,0,0,1-14.22,6.1C380.57,201.46,378,197.16,375.76,192.65Z" fill="#b37f5a"/><path d="M431.42,138.74c7.79,4.77,6.16,12.49,5.93,19.62-.13,3.86-2.15,7.59-1,11.63a2.15,2.15,0,0,1-.58,1.78c-3.34,3.06-7.46,3.31-11.68,3-3.52-.29-4.06-3.35-4.42-5.77-1.44-9.44-3-19,1.78-28C424.91,140.81,428.12,139.58,431.42,138.74Z" fill="#d6ad8e"/><path d="M395.6,171.73c-2.34-4.57-2.26-9.88-4.59-14.52-1.28-2.53,2.14-4.71,1.65-7.47,5.47-.59,10.24-4,15.86-4,4.23,1.57,3.8,5.43,4,8.73.28,5.12.2,10.27.05,15.41-.06,2.23,3.71,4.3.41,6.58-3.46,2.38-7.08,4.44-11.49,2.3C398.71,177.12,397.06,174.5,395.6,171.73Z" fill="#d6ad8e"/><path d="M408.52,145.79c-5.62,0-10.39,3.36-15.86,4l-3-2c-4.08-3.94-3.17-9.63-5-14.35-.34-.86-.13-2-1.07-2.57.18-3.68-.51-7.44,1.1-11a21.45,21.45,0,0,1,13.92-3,12.91,12.91,0,0,0,2.72,9.66c2.43,3.28,4.19,7,6.42,10.49C409.57,139.84,410,142.7,408.52,145.79Z" fill="#dcbaa1"/><path d="M431.42,138.74c-3.3.84-6.51,2.07-10,2.19-2.95.19-4.63-1.87-6-3.88-3.21-4.8-6.22-9.74-9.11-14.75a11,11,0,0,1-.72-10.46c4.47-1.64,8.63-4.72,13.83-3a6.42,6.42,0,0,0,2.34,5.69c3.51,3.09,5.9,7,8.3,11C432.73,129.89,433.37,134.12,431.42,138.74Z" fill="#dcbaa1"/><path d="M455.59,125.74a2,2,0,0,1,.49.07c8.25,3.2,8.31,3.23,4.15,10.55s-3.55,15.3-4.6,23.08c-.42,3.09-.05,6.29-.09,9.44,0,1.6.42,3.5-2,3.86-7.19-.05-11.15-4.1-10.78-13.16.35-8.56-.22-17.32,2.69-25.66C455.45,133,456.41,132.18,455.59,125.74Z" fill="#d6ad8e"/><path d="M455.59,125.74c.82,6.44-.14,7.22-10.16,8.18-2.71.14-4.29-1.63-5.57-3.59-3.35-5.13-6.46-10.41-9.86-15.51-2.9-4.34-2.69-9.08-2.32-13.9,3.16-1.77,7.22-1.41,9.93-4.23,1.33,2.44,3,4.76,3.93,7.34C444.6,112.35,448.93,119.78,455.59,125.74Z" fill="#dcbaa1"/><path d="M395.6,171.73c1.46,2.77,3.11,5.39,5.87,7.08-6.2,2.05-12.51.34-18.87.58A34.29,34.29,0,0,0,395.6,171.73Z" fill="#b37f5a"/><path d="M384.66,119.82c-1.61,3.54-.92,7.3-1.1,11a11,11,0,0,0-10.61-1c-1.34.52-2.91,1.95-4.35,0C374.06,126.65,378.78,122.3,384.66,119.82Z" fill="#b37f5a"/><path d="M397.72,100.06l.71-.63C398.31,99.77,398.67,100.66,397.72,100.06Z" fill="#c18d6b"/><path d="M467.54,44l0,2c-1.67,2.34-1.65,5.87-5,7.05-11.08.73-21.7-1.42-32.09-5.05-1.54-.94-3.16-1.78-4.6-2.85-4.78-3.53-8.5-7.71-8.17-14.2,4.47.59,8.24,3.3,12.09,5.09C441.91,41.67,454.25,44.69,467.54,44Z" fill="#d6ad8e"/><path d="M417.73,30.92c-.33,6.49,3.39,10.67,8.17,14.2C427.34,46.19,429,47,430.5,48c-2.05,2.18-4.33-1.06-6.42.27-2.89-.12-4.66-2.36-6.6-3.94-3.41-2.76-6.24-3.81-8.85.72-1.9-2,.29-3.17,1-4.53,2.74-5,6.35-9.52,7-15.43C420.54,26.4,416.93,29.05,417.73,30.92Z" fill="#b37f5a"/><path d="M424.08,48.24c2.09-1.33,4.37,1.91,6.42-.27,10.39,3.63,21,5.78,32.09,5.05-1.11,4.27-6,4.19-8.25,7.17C443.42,58.32,433.05,55.06,424.08,48.24Z" fill="#c69575"/></g></g></svg>