<svg xmlns="http://www.w3.org/2000/svg" viewBox="0 0 490.71 570.61"><title>ex_d3_8_2</title><g id="Layer_2" data-name="Layer 2"><g id="Layer_1-2" data-name="Layer 1"><path d="M290.46,531.54c13.93,1.6,28,2.06,41.81,4.68,8.25,1.56,16.74,2.08,24.84,4.43a64.27,64.27,0,0,1,11.79,5.11c2.36,1.25,3.2,3.53.82,5.66a21.56,21.56,0,0,1-8.84,5.07c-17.29,4.45-35,6.61-52.67,8.84-12,1.51-24.11,1.39-36.17,2.23-19.19,1.33-38.44,1.29-57.63,2.24-15.47.77-30.93,1.13-46.3.45-14.12-.64-28.25.06-42.31-.85-18.31-1.19-36.63-2.13-54.93-3.65-16.65-1.38-33.13-3.77-49.57-6.41-5.44-.87-11.06-1.91-15.95-5.22C3.17,552.64-.27,551.91,0,549c.32-3.26,3.77-4.75,6.52-6.22.8-.43,2-.19,3-.25,0,2.15.23,4.31.12,6.45s.58,2.9,2.81,2.9q31.84-.1,63.68,0c2.24,0,2.81-.83,2.68-3-.32-5-4-8.46-9.72-8.5-13.1-.1-26.2-.09-39.3-.13.71-3,3.44-3.71,5.76-4.87,1.08,1.49,2.63,1.31,4.07,1,10.43-2.52,21.12-2.75,31.71-3.92,8-.88,16.08-1.05,23.91-3.1a1.61,1.61,0,0,1,.61.15l10.27,13.77c.6-3.41,1-5.57,1.37-7.72.91-2.38,4.85-1.64,5-4.83l.28-1.22c5,.37,9.9-.55,14.84-.85,10.42-.64,20.89-.58,31.31-.79,21.06-.41,42.15-.35,63.25.36,19.7.67,39.38,2.08,59.1,2.32,0,3.22,0,6.44,0,9.66-3.66.06-7.31.09-11,.21-4.35.14-7.11,2.42-8.45,6.49-1.14,3.46-.49,5.1,3.76,5,13.14-.24,26.28-.05,39.41-.13,1.69,0,4.06,1.06,5-1s0-4.27-1.19-6.15a8.48,8.48,0,0,0-7.43-4.28c-3.65,0-7.3-.17-10.95-.26Z" fill="#f2f1f1"/><path d="M374.8,176a17.75,17.75,0,0,1-4.5,14.31c-9.46,10.84-14.73,23.78-20.12,36.84-10.41,25.21-26.64,46.5-46,65.5-3.38-5-9-7.6-12.95-12-1-4.73-11.65-14.05-16.72-14.64-3.15-2.6-6.9-4.53-9.21-8.1,11.29-8.69,15.78-21.12,18-34.37,4.19-25.23,11.53-49.44,23.06-72.21A134.58,134.58,0,0,1,338,110.76a12.84,12.84,0,0,0,5.41-.26c8.6-1.65,18-1.88,22.91-.35-11.62-.34-16.65,6.48-19.2,16.56-1.58,6.27-3.31,12.47-4.34,18.88-3,18.37,10.45,26.29,23.76,25C371.87,170,373.88,171.37,374.8,176Z" fill="#5f605f"/><path d="M374.8,176c-.92-4.6-2.93-5.95-8.23-5.42-13.31,1.33-26.74-6.59-23.76-25,1-6.41,2.76-12.61,4.34-18.88,2.55-10.08,7.58-16.9,19.2-16.56-4.92-1.53-14.31-1.3-22.91.35a12.84,12.84,0,0,1-5.41.26c4.33-5.51,9.45-10.51,11.2-17.65.31-1.26.61-2.52.92-3.79,4.59-3.82,9-7.89,14.19-10.93,5.34-3.13,11.8-5.29,10.18-13.61-.07-.4.34-.92.58-1.35,1-1.81,2.33-3.47,4.54-3.45,2.48,0,2.41,2.25,2.9,4,.54,1.94,1.14,4.11,3.65,4.12,2.91,0,2.19-2.77,3-4.39,2.29-4.44,2.68-9.35,8.05-12.83,5.18-3.35,9-1.43,13.48-.93.13,2.75-.21,5.64.51,8.23,1.09,3.85.72,6.6-2.07,9.9-2.58,3.06,1.19,6.69,1.6,10.17.19,1.56,1.59,2.94,2,4.52.77,2.88.62,5.49-3.44,5.39-1.91-.06-2.7.63-3.47,2.58-1.63,4.11-5.65,6.73-6.76,11.53-.66,2.83-4.4,2.24-7,1.37s-5-1.72-7.43-2.79c-2.62-1.17-4.54-.15-6.15,1.71-5.15,5.94-4.61,8.11,2.69,10.46,9.54,3.08,17.56,8,20.71,18.14,1.75,5.65,2.8,11.52,4.11,17.31A22.23,22.23,0,0,0,412.48,160c8.68,8.25,16.62,17.1,22.65,27.55a34,34,0,0,1,4.94,16.94c0,7.12.25,14.24-.95,21.33-.71,4.24-2.46,6.14-6.62,5a127.85,127.85,0,0,0-15-3.25c-5.73-.85-10.1-4.6-13.21-9.13a60.29,60.29,0,0,0-12.83-13.64c-7.5-5.82-10-14.64-13.24-23C377.39,179.68,376.88,177.37,374.8,176Z" fill="#dcbaa3"/><path d="M265.29,257.87c2.31,3.57,6.06,5.5,9.21,8.1-3.46,5-8.79,7.92-13.16,11.91-19.54,17.83-26.53,40.26-24.58,66,.1,1.27-.26,3.59,1.82,3.42,1.7-.13.9-2.16,1-3.35,1.31-12.73,3.73-25.29,12.39-35.15,10.82-12.33,24.32-21.35,39.22-28.22,3.94,4.41,9.57,7,12.95,12l-.09.18c-1.5,1.48-2.91,3.06-4.5,4.44a123,123,0,0,0-24.36,28.81c-8.46,13.69-19.58,25-31.21,36-6.12,5.77-13.23,10.43-18.68,16.92-3,0-4.38,2.81-6.87,3.66q-16-18.87-33-36.83a211.9,211.9,0,0,1,31.64-44.44c3.72-4,6.52-8.43,7.41-13.82,2.88-17.41,13.34-26.34,30.62-28C258.52,259.28,261.9,258.46,265.29,257.87Z" fill="#30303f"/><path d="M185.42,345.82q17,18,33,36.83c-4,5.14-10.11,6.61-15.7,8.84-6.54,2.61-13.74,4-18.76,9.39-8.84,9.58-17.46,19.37-26.23,29a347.71,347.71,0,0,1-24.65,25c-2.08,2.31-3.88,5-6.3,6.85-6.59,5.08-11.84,11.43-17.32,17.56-1.88,2.11-4.12,4.28-3.79,7.6l-1.31,1.72c-4.61-.72-9.34-1.7-8.06,5.86.15.86-.39,2.56-1.83,2.5s-1.58-1.56-1.81-2.62c-.65-3,1.21-6.67-1.2-9.09-5-5-5.35-11.33-6-17.67.18-.28.31-.72.56-.8C97.73,463,102.24,452.58,107.25,443c6.39-12.18,12.66-24.44,18.23-37.05,6.92-15.67,17.62-27.71,34.53-32.91,9.57-2.94,15.93-8.95,19.9-18.05C181.31,351.8,182.21,348.06,185.42,345.82Z" fill="#dcbaa3"/><path d="M225.33,379c5.45-6.49,12.56-11.15,18.68-16.92,11.63-11,22.75-22.33,31.21-36a123,123,0,0,1,24.36-28.81c1.59-1.38,3-3,4.5-4.44-.72,2.2,1.13,3.35,2.1,4.74,7.95,11.48,16,22.87,24,34.33,6,8.58,4.74,13.9-4.31,18.88-1.89,1-3.86,1.95-5.69,3.09-3.59,2.24-7.15,2.58-10.7.05a3.08,3.08,0,0,0-4.06-.06c-5.11,3.67-11.06,6.11-15.57,10.66-3.53.41-5.69,3.25-8.57,4.81-1.87,1.05-3.8,2-5.62,3.14q-15.6,9.75-31.14,19.56c-4.79-.08-9.33-.9-13-4.35C229.11,385,226.35,382.63,225.33,379Z" fill="#838481"/><path d="M410.74,49.93c-4.5-.5-8.3-2.42-13.48.93-5.37,3.48-5.76,8.39-8.05,12.83-.83,1.62-.11,4.4-3,4.39-2.51,0-3.11-2.18-3.65-4.12-.49-1.73-.42-4-2.9-4-2.21,0-3.53,1.64-4.54,3.45-.24.43-.65.95-.58,1.35,1.62,8.32-4.84,10.48-10.18,13.61-5.18,3-9.6,7.11-14.19,10.93-2.78-1.56-.84-4.38-1.69-6.62a92.54,92.54,0,0,1-5.34-24.2c-1.87-19.33,14.39-36.59,37.68-33.16,14,2.05,23.35,9.9,30.38,21.49C412.07,48.29,412.06,49.06,410.74,49.93Z" fill="#403421"/><path d="M281.28,369.3c2.88-1.56,5-4.4,8.57-4.81.16,2,.45,3.95.45,5.93q0,78.06,0,156.13c0,1.66.08,3.32.13,5l-.09,8.61-9.16.07c0-3.22,0-6.44,0-9.66Z" fill="#c0bfbe"/><path d="M432.34,28.58c6-7.36,11.87-14.25,17.45-21.35C453.15,3,456.33-.38,462.7,0c5.07.33,7.28,3.55,9.85,6.54,5.71,6.62,11.1,13.51,16.59,20.31.67.84,2.2,1.55,1.3,2.82-.4.55-1.79.51-2.73.53-4.78.1-9.46,1.25-14.3,1.13-3.86-.1-5.8,4.08-4.83,9,1.71,8.61,6.5,15.27,13.34,20.77-3.54,1-10.41-1.49-14.66-5.2-6.71-5.87-11.19-13-12.24-22-.5-4.32-4-3.36-6.42-3.58-4.93-.44-10,.3-14.81-1.13A12.38,12.38,0,0,1,432.34,28.58Z" fill="#f7be77"/><path d="M85.53,467.59c.62,6.34,1,12.66,6,17.67,2.41,2.42.55,6.07,1.2,9.09.23,1.06.43,2.57,1.81,2.62s2-1.64,1.83-2.5c-1.28-7.56,3.45-6.58,8.06-5.86,2,5.33,1.29,10.77.52,16.16A23.51,23.51,0,0,0,109.33,523c1.47,2,3.22,3.83,3.39,6.49-.09.41-.19.82-.28,1.22-4.77,1.86-9.22,1-13.48-1.56l0-.1c-5.53-6.39-11.36-12.76-14-20.85-2-6-4.36-10.62-10.79-12.81-3.26-1.11-5.2-4.53-7-7.53-1.62-2.7-3.1-5.48-4.64-8.23.65-2.73,5.32-2.58,4.53-6.34C73.19,471.41,78.93,468.12,85.53,467.59Z" fill="#c9c7c8"/><path d="M29.76,540.3c13.1,0,26.2,0,39.3.13,5.74,0,9.4,3.45,9.72,8.5.13,2.13-.44,3-2.68,3q-31.83-.09-63.68,0c-2.23,0-2.91-.79-2.81-2.9s-.07-4.3-.12-6.45l.26-1.88Z" fill="#4c4b4b"/><path d="M29.76,540.3l-20,.37c7.33-6.16,15.49-11.15,23.34-16.57,11.14-7.71,22.5-15.11,33.77-22.65,1.52-1,3-2.07,3.08-4.2l1.71,1.36c.84,3.18,4,4.82,5.12,7.85C73,509.18,69.35,512,65.56,514.6q-15,10.46-30,20.83C33.2,536.59,30.47,537.26,29.76,540.3Z" fill="#c0bfbe"/><path d="M71.65,498.61l-1.71-1.36-9.36-12.53c.69-1.66-2.24-4.7,1.91-5.06,1.54,2.75,3,5.53,4.64,8.23,1.8,3,3.74,6.42,7,7.53,6.43,2.19,8.81,6.77,10.79,12.81,2.66,8.09,8.49,14.46,14,20.85l-3.12.44a1.61,1.61,0,0,0-.61-.15L82.58,512.61C82,503.62,79.15,500,71.65,498.61Z" fill="#393844"/><path d="M62.49,479.66c-4.15.36-1.22,3.4-1.91,5.06L47.49,468.79c7.56.22,15.09-4.53,19.53,4.53C67.81,477.08,63.14,476.93,62.49,479.66Z" fill="#4e4e4e"/><path d="M281.21,540.22l9.16-.07c3.65.09,7.3.22,10.95.26a8.48,8.48,0,0,1,7.43,4.28c1.17,1.88,2.09,4.14,1.19,6.15s-3.28,1-5,1c-13.13.08-26.27-.11-39.41.13-4.25.08-4.9-1.56-3.76-5,1.34-4.07,4.1-6.35,8.45-6.49C273.9,540.31,277.55,540.28,281.21,540.22Z" fill="#4c4b4b"/><path d="M95.82,529.52l3.12-.44s0,.1,0,.11c1.12,4.41,4.36,6,8.5,6.38-.38,2.15-.77,4.31-1.37,7.72Z" fill="#4e4e4e"/><path d="M107.46,535.57c-4.14-.39-7.38-2-8.5-6.38,4.26,2.56,8.71,3.41,13.48,1.55C112.31,533.93,108.37,533.19,107.46,535.57Z" fill="#393844"/><path d="M291.22,280.61c-14.9,6.87-28.4,15.89-39.22,28.22-8.66,9.86-11.08,22.42-12.39,35.15-.13,1.19.67,3.22-1,3.35-2.08.17-1.72-2.15-1.82-3.42-1.95-25.77,5-48.2,24.58-66,4.37-4,9.7-6.92,13.16-11.91C279.57,266.56,290.21,275.88,291.22,280.61Z" fill="#2dadb4"/><path d="M133.12,454.88c2.3,0,4.07-1.29,5.85-2.5q44.17-30.11,88.33-60.26c1.68-1.15,4.15-1.73,4.23-4.47,3.66,3.45,8.2,4.27,13,4.35-5.63,6.22-13.18,9.83-19.94,14.47q-56.93,39.07-114.14,77.72c-1.5,1-3.15,1.8-4.73,2.7-.33-3.32,1.91-5.49,3.79-7.6,5.48-6.13,10.73-12.48,17.32-17.56C129.24,459.87,131,457.19,133.12,454.88Z" fill="#c0bfbe"/><path d="M82.58,512.61l-5.81-6.15c-1.07-3-4.28-4.67-5.12-7.85C79.15,500,82,503.62,82.58,512.61Z" fill="#4e4e4e"/></g></g></svg>