<svg xmlns="http://www.w3.org/2000/svg" viewBox="0 0 637.1 175.01"><title>ex_d3_7_2</title><g id="Layer_2" data-name="Layer 2"><g id="Layer_1-2" data-name="Layer 1"><path d="M613.45,158.72c5.32.1,10.64.31,16,.27,4.66,0,7.32,2.39,7.65,6.71.29,4-.78,7.57-5.56,8.75a21.67,21.67,0,0,1-5.41.55H36c-6.53,0-9-1.72-10.18-6.95,10.65.2,21.34.57,31-5.15,3.14.2,6.26.26,9.4.64,12.8,1.55,25.46,4.12,38.4,4.52,11.46.35,22.85-1.19,34.3-1.13a15.65,15.65,0,0,0,3.8-.94c4.22-.43,4.49-4.67,6.74-7l443.77,0a3,3,0,0,0,3,2.05c1.09,3.37,3.58,1.67,5.63,1.56A29.92,29.92,0,0,0,613.45,158.72Z" fill="#ebece6"/><path d="M142.73,166a15.65,15.65,0,0,1-3.8.94c-11.45-.06-22.84,1.48-34.3,1.13-12.94-.4-25.6-3-38.4-4.52-3.14-.38-6.26-.44-9.4-.64.41-2.54-1.8-3.75-2.82-5.57-.55-1-1.5-2-.88-3.22.83-1.61,2-.17,3.06-.15,9.75.23,19.31,3.22,29.17,2.1a14.75,14.75,0,0,1,4,.1c14.34,2.29,28.32,0,42.2-3.32,2.19-.51,3.65-1.78,2-4.76a64.71,64.71,0,0,1-8.94-34.48c.17-5.58,1.55-10.78,2.63-16.09.44-2.15.43-3.67-1.7-4.44-3.53-1.27-6.79-3.69-10.89-2.8l.06,0-1.1-1c-5.36-6-8.94-12.74-9.88-20.8a39.45,39.45,0,0,0-.92-4.26l1.95-13.94,1.1-1c1.35,1.16,1,2.76.92,4.2a43,43,0,0,0,2.15,17.14c2.09,6,5.58,11.19,12.22,13.25,2.67.82,3.86-.16,3.6-2.85a18.19,18.19,0,0,0-.87-3.85,68.8,68.8,0,0,1-3-29.15c.32-3,1.2-6,1.81-9-2.15-.83-2.92,1.14-4.41,1.29-2.35.23-4.8,3-6.87,1.09s.81-3.86,1.46-5.76c6-17.77,18.66-22,35.17-20.73,7.35.54,14.5,1.9,21,5.56,1,.54,2.38,1.41,3.12.14s-.32-2.66-1.32-3.44a19.71,19.71,0,0,1-4.66-4.41c-.53-.8-1.72-1.39-1.11-2.48.7-1.25,1.7-.28,2.58,0,12.37,4,23.33,11,35,16.39C212.1,31,220.77,37.31,231,39.75c9,2.13,18.2,3.27,27.32,4.84-.59,4.1-1.29,8.18-1.75,12.29-1.42,12.78.61,25.44,1.51,38.14-4-3.27-5.63-8.19-8.69-12.09-2.54-3.25-3.7-7.64-7.79-9.64-6.16-7.1-12.3-14.15-22.64-15.12a83.06,83.06,0,0,1-13.6-2.28c-10.39-2.77-20,.06-29.71,3.21-3.93.86-7,3.27-10.15,5.56-2.09,1.5-3.67,2.15-3.93-1.68-.35-5.18-2.67-9.73-5.9-13.79-2.71-5.39-7.05-8.95-12.4-11.48,14,19.65,7.76,36.25-8.23,52.12,5.16-.45,7.95-2.92,10.78-5.32,2-1.7,3.5-2,3.95,1.27.31,2.28.77,4.55,1.21,6.81,3.88,19.84,2.18,38.95-8.09,56.68a10.18,10.18,0,0,0-1,8.36A32,32,0,0,1,142.73,166Z" fill="#dcbaa1"/><path d="M271.57,37.68c13.73-6,27.72-10.31,43-7.5,7.07,1.3,14.22,2.82,20.35,6.39,10.68,6.21,22.36,7.94,34.19,9.64,9.38,1.34,18.68,3.31,28.09,4.26,5.37.54,7.52,3.23,8.44,7.9a23,23,0,0,0,.94,2.84l1.53,8.84c-.77,3.61,1,7.33-.45,10.92-17.9-.9-35.8-1.71-53.69-2.72C326.49,76.69,299,75,271.6,72c-4.6-.47-5.11-3.27-5.18-7.38-.15-9,1.44-17.6,3.24-26.26l.17,0A1.52,1.52,0,0,0,271.57,37.68Z" fill="#19191a"/><path d="M562.27,78.22l2.05.24,1.2.58c3.32,0,6.62.2,9.63,1.89,0,2.41,2.08,3.35,3.52,4.51a16.83,16.83,0,0,1,4.84,6.14c3.27,7,2.17,13.34-2.2,19.39-18.06-4.71-36.59-6.21-55.09-7.82-15.69-1.37-31.4-2.93-47.13-3.56-9.16-.37-18.44-3.06-27.62.44-11,4.18-22.26,6.57-34.07,3.92a110,110,0,0,0-2.48-15c-1.33-4.89-2.38-9.85-3.55-14.77,13.4,2.56,26.11-1,39.09-3.61,6.46-1.27,13.37-2.19,20.21-1.22,9.62,1.35,19.25,2.65,28.9,3.73,15.72,1.75,31.44,3.4,47.19,4.85C551.89,78.46,557.1,78.16,562.27,78.22Z" fill="#d6ad8e"/><path d="M114.6,90.28c4.1-.89,7.36,1.53,10.89,2.8,2.13.77,2.14,2.29,1.7,4.44-1.08,5.31-2.46,10.51-2.63,16.09a64.71,64.71,0,0,0,8.94,34.48c1.69,3,.23,4.25-2,4.76-13.88,3.28-27.86,5.61-42.2,3.32a14.75,14.75,0,0,0-4-.1c-9.86,1.12-19.42-1.87-29.17-2.1-1,0-2.23-1.46-3.06.15-.62,1.21.33,2.25.88,3.22,1,1.82,3.23,3,2.82,5.57-9.68,5.72-20.37,5.35-31,5.15-8.57-.5-10.52-2.59-11.72-13.7a74.61,74.61,0,0,1-.15-12.86c.48-7.41,5.37-10.64,14.92-10.27,0,.61,0,1.23,0,1.85-.89.13-2-.3-2.46.86-.08.19.44.85.75.9,1.32.21,1.55-.77,1.7-1.77,9.42,0,17.7,2.78,24.36,9.66,1.08,1.11,2.42,2.32,3.82,1.92,3.61-1.05,7.26-.49,10.87-.73,15.68-1,30.94-7,47-3.94,3.24-.23,3.9,3.93,6.92,4.06l.36.24-.39-.21c-1-4.56-1.54-9.34-6.09-12.11.7-4.42-1.43-8.41-2-12.64a73,73,0,0,1,1-25.57A17.46,17.46,0,0,0,114.6,90.28Z" fill="#e1c4af"/><path d="M258.36,44.59C249.24,43,240,41.88,231,39.75,220.77,37.31,212.1,31,202.63,26.63c-11.7-5.42-22.66-12.4-35-16.39-.88-.29-1.88-1.26-2.58,0-.61,1.09.58,1.68,1.11,2.48a19.71,19.71,0,0,0,4.66,4.41c1,.78,2,2.19,1.32,3.44S170,21,169,20.42c-6.54-3.66-13.69-5-21-5.56-16.51-1.22-29.16,3-35.17,20.73-.65,1.9-3.5,3.91-1.46,5.76s4.52-.86,6.87-1.09c1.49-.15,2.26-2.12,4.41-1.29-.61,3-1.49,5.93-1.81,9a68.8,68.8,0,0,0,3,29.15,18.19,18.19,0,0,1,.87,3.85c.26,2.69-.93,3.67-3.6,2.85-6.64-2.06-10.13-7.29-12.22-13.25a43,43,0,0,1-2.15-17.14c.09-1.44.43-3-.92-4.2-.67-8.48-7.78-15.2-18-17,0-3.51.48-6.84,3.84-8.92,1.48-.92.49-2,.14-3,7.3-8,17-12,26.68-15.91,19.62-7.84,38.83-4.27,57.47,3.73C192.38,15.17,208.09,23.77,224,32c7.17,3.69,15.42,3.51,23.12,5.36,4.17,1,8.48,1.45,12.72,2.14Q259.12,42,258.36,44.59Z" fill="#e1c4af"/><path d="M16.36,63.56C11.65,65,7,65.06,3.19,61.64c-2.55-2.3-4.68-4.36-1.83-9.1C4.09,48,3.92,41.68,4.82,36.11c.94-5.77,2.24-11.4,5-16.61C17.41,5.27,30.67-.08,46.05,5c10.23,3.36,18.3,10,25.83,17.34.49,6.73-.74,7.75-7.1,5.9a3.23,3.23,0,0,0-3.05-.79c-6.38-2.18-12.6-.59-14.45,3.82C44.65,37.49,50,38.75,53.62,41c1.14.7,2.46,1.11,2,2.92-.74,2.66-1.38,4.35-5,2.82s-7.05-5.58-11.4-2.55-8.35,3.07-12.64,0c-1.48-1-3.4-1.41-4.92-2.4-3.37-2.22-4.31-.71-5.16,2.57C14.74,50.83,15.82,57.17,16.36,63.56Z" fill="#312823"/><path d="M596.25,161a3,3,0,0,1-3-2.05,8.5,8.5,0,0,1,1.44-5.64c3.46-5,3.22-10.12,1-15.47-1.54-3.65-3.73-7-5.41-10.49-2.54-5.37-8.74-8.94-7.94-15.95,4.27.81,5.94-2.23,7.22-5.26,3.43-8.08-1.3-20.14-9.3-24.25.81-6.88,6.82-6.67,11.3-7.41,5.14-.84,10.41-2,15.74-1.33,5.9,4.06,9,9.31,7.89,16.78-1.48,9.88-1.89,19.68,1.6,29.42,3.09,8.6,4.46,17.41-1.6,25.58a71.1,71.1,0,0,1-12.92,13C600.51,159.36,599,161.56,596.25,161Z" fill="#dad8eb"/><path d="M16.36,63.56c-.54-6.39-1.62-12.73.05-19.18.85-3.28,1.79-4.79,5.16-2.57,1.52,1,3.44,1.37,4.92,2.4,4.29,3,8.23,3,12.64,0s7.85,1.07,11.4,2.55,4.3-.16,5-2.82c.51-1.81-.81-2.22-2-2.92-3.66-2.23-9-3.49-6.34-9.74,1.85-4.41,8.07-6,14.45-3.82,4.88,5.84,8.77,12,6.15,20.11a1.48,1.48,0,0,0,.22.95c4.41,9.36,3.89,19.33,3.75,29.27,0,2.11-.61,4.35,1,6.2C54.3,80.85,36.34,76,20.37,65.52A34.61,34.61,0,0,0,16.36,63.56Z" fill="#e1c4af"/><path d="M562.27,78.22c-5.17-.06-10.38.24-15.51-.24-15.75-1.45-31.47-3.1-47.19-4.85-9.65-1.08-19.28-2.38-28.9-3.73-6.84-1-13.75-.05-20.21,1.22-13,2.56-25.69,6.17-39.09,3.61-2.12-.59-1.37-3.4-3.24-4.18l-1.53-8.84c4.58.67,9.26,1,13.73,2.09,12.29,3.12,23.11-2.73,34.38-5.41a88.82,88.82,0,0,1,50.82,2.53c17.84,6.15,35.83,11.89,54.09,16.67C560.57,77.34,561.63,77.27,562.27,78.22Z" fill="#dcbaa1"/><path d="M258.36,44.59q.75-2.56,1.49-5.14l9.81-1.06c-1.8,8.66-3.39,17.3-3.24,26.26.07,4.11.58,6.91,5.18,7.38-4-.52-5.86.87-4.94,5.14.48,2.24.66,4.54,1,6.82q1,15,2,29.9c-3.54-1-7.9,1.42-10.78-2.5,1.09-5.51-.22-10.92-.72-16.37-.9-12.7-2.93-25.36-1.51-38.14C257.07,52.77,257.77,48.69,258.36,44.59Z" fill="#3c3e3c"/><path d="M613.45,158.72a29.92,29.92,0,0,1-11.57,3.87c-.51-1.93,1.32-1.57,2.14-2a46.72,46.72,0,0,0,15.09-12.74c5-6.54,7-13.5,4.36-21.84a89.86,89.86,0,0,1-3.79-38.33c1-8.18-1.73-12.31-9.24-15.38,11.19-3.07,16.73,1.31,16.32,13.1a26.47,26.47,0,0,1-1.27,8.3,24.38,24.38,0,0,0,.38,19.39C634.92,132.12,629.1,146.64,613.45,158.72Z" fill="#464748"/><path d="M72.86,84c-1.62-1.85-1-4.09-1-6.2.14-9.94.66-19.91-3.75-29.27a1.48,1.48,0,0,1-.22-.95c2.62-8.14-1.27-14.27-6.15-20.11a3.23,3.23,0,0,1,3.05.79c1.5,1.84,2.49,4.2,5,5.06-.76,7.18,2,12.12,7.83,16.79,6.07,4.87,12.47,9.73,17.2,16.17-2.19,3.12-4.85,5.36-9,4.79-2.83-.38-3.9,1.43-5.12,3.61C78.69,78.19,78,83,72.86,84Z" fill="#c69575"/><path d="M94.8,66.23c-4.73-6.44-11.13-11.3-17.2-16.17-5.83-4.67-8.59-9.61-7.83-16.79l4,0c0,2.07,1.56,2.79,3,3.58,6.37,3.45,12.7,7,19.15,10.25,2.76,1.4,5.43,3.26,8.77,3.16l-1.95,13.94-5.16,1-.43.18Z" fill="#d1a17e"/><path d="M610.44,72.29c7.51,3.07,10.21,7.2,9.24,15.38A89.86,89.86,0,0,0,623.47,126c2.68,8.34.65,15.3-4.36,21.84A46.72,46.72,0,0,1,604,160.58c-.82.44-2.65.08-2.14,2-2,.11-4.54,1.81-5.63-1.56,2.77.53,4.26-1.67,6-3.05a71.1,71.1,0,0,0,12.92-13c6.06-8.17,4.69-17,1.6-25.58-3.49-9.74-3.08-19.54-1.6-29.42,1.11-7.47-2-12.72-7.89-16.78A3,3,0,0,1,610.44,72.29Z" fill="#c4c2dc"/><path d="M114.83,140c-16-3.07-31.27,2.92-46.95,3.94-3.61.24-7.26-.32-10.87.73-1.4.4-2.74-.81-3.82-1.92-6.66-6.88-14.94-9.71-24.36-9.66h0c0-.62,0-1.24,0-1.85,3.31,0,5.42-3,8.77-3.24,6.46-.44,10.93,3.22,14.45,7.51,4.73,5.76,10.27,5.86,16.88,5.26,10.84-1,21.11-4.13,31.49-6.94a35.73,35.73,0,0,1,4.39-.65C108.64,134.76,112.51,136.23,114.83,140Z" fill="#dcbaa1"/><path d="M73.78,33.24l-4,0c-2.5-.86-3.49-3.22-5-5.06,6.36,1.85,7.59.83,7.1-5.9,6.73.28,13.27-1.35,19.9-2,.35,1,1.34,2.05-.14,3-3.36,2.08-3.81,5.41-3.84,8.92C83.12,32.46,78.35,31.59,73.78,33.24Z" fill="#dcbaa1"/><path d="M580.22,81.92c8,4.11,12.73,16.17,9.3,24.25-1.28,3-2.95,6.07-7.22,5.26l-1-.46c4.37-6,5.47-12.44,2.2-19.39a16.83,16.83,0,0,0-4.84-6.14c-1.44-1.16-3.53-2.1-3.52-4.51Z" fill="#c69575"/><path d="M114.83,140c-2.32-3.75-6.19-5.22-10-6.81,3.47-1.57,7.17-1,10.79-1.21,4.55,2.77,5.09,7.55,6.09,12.11l0,0C118.73,143.91,118.07,139.75,114.83,140Z" fill="#d1a17e"/><path d="M271.57,37.68a1.52,1.52,0,0,1-1.74.66Z" fill="#3c3e3c"/><polygon points="97.17 65.35 97.6 65.17 97.42 65.44 97.17 65.35" fill="#c69575"/><path d="M565.52,79l-1.2-.58Z" fill="#dcbaa1"/><path d="M113.56,89.23l1.1,1Z" fill="#e1c4af"/><path d="M159.67,108c-.43,10.38-4.37,20.29-3.92,30.82.3,7.37-3.6,13.61-6.27,20.16-2.26,2.33-2.53,6.57-6.75,7a32,32,0,0,0-.83-8.37,10.18,10.18,0,0,1,1-8.36c10.27-17.73,12-36.84,8.09-56.68-.44-2.26-.9-4.53-1.21-6.81-.45-3.3-1.94-3-3.95-1.27-2.83,2.4-5.62,4.87-10.78,5.32,16-15.87,22.23-32.47,8.23-52.12,5.35,2.53,9.69,6.09,12.4,11.48C153.59,52.84,157,55.8,157,59.43c-.19,8.22-4.36,16.44-.28,24.73.76,1.56.5,3.6,1.08,5.29C159.84,95.51,157.46,102,159.67,108Z" fill="#d6ad8e"/><path d="M178.67,105.05c-2.25.39-4.08-.9-6.08-1.52.43-8.36,0-16.26-6.26-23.08-2.92-3.19-2.42-7.69.85-11.32,2.94-3.26,5.68-6.68,8.51-10,9.67-3.15,19.32-6,29.71-3.21A83.06,83.06,0,0,0,219,58.17c10.34,1,16.48,8,22.64,15.12-.16,1.59.71,2.75,1.46,4.07,4.71,8.15,8.8,16.53,10.17,26,.86,5.9,1.06,5.87,5.26,8-7-.33-14.15.48-20.89-2.34,1-3.77,2.36-7.37,2.1-11.48-.24-3.92-.45-7.43-5.08-8.35-4.79-1-7.44.77-9.14,6.06a32.46,32.46,0,0,1-5.08,9,1.33,1.33,0,0,1-2.12.33c-.64-.57-.19-1.16.13-1.75,1.49-2.75,3-5.48,4.41-8.28a7.34,7.34,0,0,0-.64-8c-1.76-2.37-4.07-1.13-6.36-.73a10.41,10.41,0,0,0-5.5,3,37.59,37.59,0,0,0-8.64,11.87c-.88,1.9-2.05,5.39-4.63,4-2.26-1.25-.08-3.86,1.06-5.73A60.89,60.89,0,0,1,204.06,91c1.68-1.94,2.27-4.94-.82-5.55-3.76-.74-8.18-1.53-11.5,1.36C186,91.83,180.56,97.21,178.67,105.05Z" fill="#d6ad8e"/><path d="M175.69,59.1c-2.83,3.35-5.57,6.77-8.51,10-3.27,3.63-3.77,8.13-.85,11.32,6.25,6.82,6.69,14.72,6.26,23.08A36.64,36.64,0,0,1,159.67,108c-2.21-6,.17-12.51-1.91-18.57-.58-1.69-.32-3.73-1.08-5.29-4.08-8.29.09-16.51.28-24.73.08-3.63-3.37-6.59-1.25-10.24,3.23,4.06,5.55,8.61,5.9,13.79.26,3.83,1.84,3.18,3.93,1.68C168.7,62.37,171.76,60,175.69,59.1Z" fill="#c69575"/><path d="M73.78,33.24c4.57-1.65,9.34-.78,14-1.06,10.23,1.82,17.34,8.54,18,17l-1.1,1c-3.34.1-6-1.76-8.77-3.16-6.45-3.28-12.78-6.8-19.15-10.25C75.34,36,73.74,35.31,73.78,33.24Z" fill="#d6ad8e"/><path d="M258.53,111.37c-4.2-2.1-4.4-2.07-5.26-8-1.37-9.51-5.46-17.89-10.17-26-.75-1.32-1.62-2.48-1.46-4.07,4.09,2,5.25,6.39,7.79,9.64,3.06,3.9,4.73,8.82,8.69,12.09.5,5.45,1.81,10.86.72,16.37Z" fill="#c69575"/><path d="M406,107.19c-.88,1.9-.08,4.22-1.47,6-6.15-.32-12.29-.58-18.43-1C345,109.55,304.92,102.58,267.63,84c-.31-2.28-.49-4.58-1-6.82-.92-4.27,1-5.66,4.94-5.14C299,75,326.49,76.69,354,78.25c17.89,1,35.79,1.82,53.69,2.72C408.09,89.77,406.64,98.46,406,107.19Z" fill="#32b0b7"/><path d="M406,107.19c.69-8.73,2.14-17.42,1.73-26.22,1.47-3.59-.32-7.31.45-10.92,1.87.78,1.12,3.59,3.24,4.18,1.17,4.92,2.22,9.88,3.55,14.77a110,110,0,0,1,2.48,15C413.14,103.46,409.86,106.44,406,107.19Z" fill="#c69575"/><path d="M28.83,133.07c-.15,1-.38,2-1.7,1.77-.31-.05-.83-.71-.75-.9.45-1.16,1.57-.73,2.46-.86Z" fill="#dcbaa1"/><path d="M121.72,144.07l.39.21-.36-.24Z" fill="#d1a17e"/><path d="M267.63,84c37.29,18.59,77.34,25.56,118.42,28.22,6.14.4,12.28.66,18.43,1,.48,4.94-1.23,6.92-6.7,6.89-25.75-.1-51.51,1.28-77.25-.06-17.09-.88-34.13-2.52-50.91-6.13Q268.63,98.94,267.63,84Z" fill="#19191a"/><path d="M178.67,105.05c1.89-7.84,7.32-13.22,13.07-18.23,3.32-2.89,7.74-2.1,11.5-1.36,3.09.61,2.5,3.61.82,5.55A60.89,60.89,0,0,0,198.15,99c-1.14,1.87-3.32,4.48-1.06,5.73,2.58,1.44,3.75-2,4.63-4a37.59,37.59,0,0,1,8.64-11.87,10.41,10.41,0,0,1,5.5-3c2.29-.4,4.6-1.64,6.36.73a7.34,7.34,0,0,1,.64,8c-1.39,2.8-2.92,5.53-4.41,8.28-.32.59-.77,1.18-.13,1.75a1.33,1.33,0,0,0,2.12-.33,32.46,32.46,0,0,0,5.08-9c1.7-5.29,4.35-7,9.14-6.06,4.63.92,4.84,4.43,5.08,8.35.26,4.11-1.11,7.71-2.1,11.48A28.69,28.69,0,0,1,223,107c-3.1-1.37-5.92-.14-8.8.17-7.34.79-14.54-2-21.83-.81C187.62,107.16,183.15,106.33,178.67,105.05Z" fill="#dcbaa1"/></g></g></svg>