<svg xmlns="http://www.w3.org/2000/svg" viewBox="0 0 580.21 294.3"><title>ex_d3_5_1</title><g id="Layer_2" data-name="Layer 2"><g id="Layer_1-2" data-name="Layer 1"><path d="M541.39,278.32c7.63.17,10,2.35,10,8.59,0,3.33-1.7,5.19-4.53,6.4-2.37,1-4.84,1-7.35,1H23.69c-7.39,0-10.57-1.85-11.63-6.74s3.48-10.48,8.52-9.68a62.53,62.53,0,0,0,9.93.42q88.62.06,177.25-.08c4.61,0,9.42,1.1,13.92-1,3.77,1.62,7.49,3.36,11.31,4.85,9.17,3.57,18.81,3.42,28.44,3.39,22.73-.08,45.39-1.5,68.06-3,1.48-.1,3.1,0,3.12-2.16,7.08.06,13.71-2.72,20.7-3.19,3.37,2.41,7,.34,10.45.61,16,1.22,32,.18,48.06.52,1.57,0,3.35.56,4.62-1a60.4,60.4,0,0,0,20.46,1.91c4.55-.43,9.08-1.12,13.62-1.7,1.39,1.32,3.13.79,4.73.8,17,0,34,0,51.07,0,.16.83.4,1.67,1.37,1.86q10.41,2.06,20.83,4.06C537.49,286,537.57,286,541.39,278.32Z" fill="#ebece6"/><path d="M237.72,118.65c.14,9,.23,18.08-2.92,26.76a9.22,9.22,0,0,0-3.47,2.67c-7.84,11.37-15.65,22.79-22.24,34.92a117.63,117.63,0,0,0-7.78,19.07c-2.22,6.66-.69,13.5-2.55,20.05-.41,1.47-.91,3.84,1.9,4.3l-4.1,10c-7.12-5.39-12.21-12.5-16.85-20,.74-.45.51-.74-.15-1a1.87,1.87,0,0,1-.91-1.86c.22-1.75-.53-3.22-1.26-4.74-7.47-15.62-9.87-32.55-11.46-49.43a110.55,110.55,0,0,1,2.62-38c4.93-19.2,19-40.92,42.52-43.83,1.64-.2,3.32-.72,3.57-2.85,1.63,0,3.06,1,4.85.53,10.55-3,20.93-2,31.15,1.66a3.27,3.27,0,0,0,3.56,1.72l6.47,3.84-1.11,3.12c-2.53,2.13-5,4.35-7.6,6.39a94.27,94.27,0,0,1-31.59,16.3c-1,.3-2.6.29-2.52,1.9s1.62,1.6,2.66,1.8a35.62,35.62,0,0,0,14.79-.07c1.4-.32,2.95-2.13,4.47-.11C238.53,113.91,237.22,116,237.72,118.65Z" fill="#d8c2ad"/><path d="M196.56,236.38l4.1-10a45.81,45.81,0,0,0,2.9-4.36c5.75-8,13.76-13.39,21-19.65,7.76-3.41,15.59-6.65,22.77-11.22.79,1.44,1.6,2.87,2.37,4.32,2.66,5,5.64,9.42,11.36,11.86,10.1,4.3,20.24,8.45,31.37,7.88,5.92-.3,11.74,2.71,17.62.2,1.2,2.22,3.45,1.54,5.28,1.77,4.91.61,9.82,1.18,14.75,1.45,3.27.19,4.73,1.52,4.35,4.78-.31,1.76-.63,3.52-.94,5.27-22.47,0-44.94-.38-67.39.21-12.46.32-22.9-3-31.45-12-1.37-1.46-2.67-2.26-4.7-.78a99,99,0,0,0-14.67,12.68c-1.42,1.54-1.43,2.63.07,4.15,12.08,12.25,25.82,20.77,43.79,20.7,24.29-.11,48.59,0,72.88.1.23,8.87-.4,17.75.56,26.61,0,2.19-1.64,2.06-3.12,2.16-22.67,1.45-45.33,2.87-68.06,3-9.63,0-19.27.18-28.44-3.39-3.82-1.49-7.54-3.23-11.31-4.85-10.74-8.14-18-19-24.19-30.73a14.43,14.43,0,0,1-2.12-6.89A4.73,4.73,0,0,0,196.56,236.38Z" fill="#3c3f3d"/><path d="M567.9,251.53c1.82-27.13-4.13-51.24-19.41-72.84A120.6,120.6,0,0,0,519.79,150c-2.68-1.91-4.16-1.64-6.06,1a104.28,104.28,0,0,1-7,7.79c-.63.7-.94,1.93-2.23,1.47-.91-.34-.84-1.33-1-2.13-3.34-17.08-6.64-34.17-10.09-51.23-.57-2.82.33-3.39,2.89-3.24,14.26.82,28.54,1.43,42.79,2.41,3.14.22,6.27.49,9.43.56,2.56.06,3,1,1.3,3-1.08,1.24-2.06,2.58-3.16,3.81-4.73,5.32-4.67,5.24.38,10.61,21.73,23.09,33.92,50,33.1,82.2C579.8,221.05,574.4,242.26,567.9,251.53Z" fill="#f9be7a"/><path d="M301.57,112.69c12-1.52,22.81,1.73,32.93,7.92a2.78,2.78,0,0,1-1.59,2.32c-4.2,2.71-3.87,5.74-1.16,9.58,2.86,4,7.28,5.71,11.25,7.52,11.38,5.21,23.56,8.32,35.65,11.45,12.66,3.28,25.45,6.06,38.21,8.93,6.26,1.4,12.58,2.5,18.88,3.74,1.86.37,3.89,1.07,3.05-2.3-.28-1.11.85-1.19,1.64-1.37,1.57,2.41,3.65,4.56,4.07,7.59-.47,14.39-1.46,16-12,19.29a355,355,0,0,0-69.67-11.05c-10.71-.66-19.94-6.07-28.7-11.93-4-2.67-7.63-5.87-11.42-8.83-1.38-1.43-2.75-2.87-4.14-4.28-2-2-3.73-2-3.79,1.14-.15,8.37-1.09,16.81,1.65,25a7.53,7.53,0,0,1-1.21,5.34c-7.93-5.75-15.87-11.48-24.79-15.67,1.4-4.38,2.48-8.89,4.27-13.1,3.57-8.44,5.88-17.55,13-24.16,5.08-4.72,4.91-6.67-.33-11.19-1.34-1.16-2.51-2.68-4.43-3.11C301.42,115.16,301.6,113.84,301.57,112.69Z" fill="#d2b8a0"/><path d="M332.61,280.36c-1-8.86-.33-17.74-.56-26.61l.57-5.36c12.48,0,25,0,37.44,0,4.9,0,9.05-2.13,12.68-4.94,4.22-3.27,4-8.19-.26-11.33a10.07,10.07,0,0,1-4-4.85l1.88.07h1.21c6.34-.32,12,2.51,17.88,4.07-7.26,2.69-8.8,6.89-3.61,10.63,3.14,2.27,6.81,4.4,10.53,5.15,19.17,3.83,38.68,4.39,58.13,5.06,14.93.52,29.9.1,44.85.1,4.06,2.81,5,6.78,5.11,11.53.08,4.17-1.53,7.61-3.06,11.21l-2.1.14c-.31-.52-.62-.49-.91,0l-2.14.38-23.94-.75c-.17-1-.58-1.08-1.18-.28l-4.78.56c-.63-2.75-2.86-1.76-4.49-1.79-13.44-.28-26.71,2.45-40.19,2.07a47.9,47.9,0,0,1-22.17-6.25c-4.84-2.65-10.39-3.9-16-1.84-14.23-.21-27.06,5.32-40.14,9.8C346.32,277.64,339.69,280.42,332.61,280.36Z" fill="#d2b8a0"/><path d="M196.56,236.38a4.73,4.73,0,0,1-1.19,3.23c-5.08-2.05-8.5-6.29-12.46-9.74a224.37,224.37,0,0,1-44.09-52.46c-1.28-2.1-2.19-4.44-3.27-6.67.24-2.17-1.2-3.75-2-5.54-6.69-14.77-11.75-29.91-10.84-46.47C123.94,96.2,135.58,85.39,156,79.79c3.12-.85,5.2.13,6.3,3.72,2.12,6.94,2.46,14,2.48,21.12-2,11.37-5.64,22.43-6,34.1-.55,16,1.2,31.76,6.29,47,3.29,9.87,6.84,19.69,13.66,27.86a1.87,1.87,0,0,0,.91,1.86q.06.48.15,1C184.35,223.88,189.44,231,196.56,236.38Z" fill="#cbab91"/><path d="M0,137.15c5.61,6.38,10.16,11.8,15.72,16.31,17.59,14.29,37.77,20.25,60.19,19.39.33,0,.66,0,1-.06,11.06-.38,8.8.13,9-9.3,0-1.56-.91-3.65.87-4.57S89.76,160.11,91,161c10,7.44,19.8,15.1,29.75,22.58,2.12,1.58,2.62,2.84.39,4.6L86.71,215.33a55.11,55.11,0,0,1,0-6.53c.67-4.77-1.28-6.23-6-6.51-16.54-.94-32.06-5.68-45.78-15.07C18.2,175.77,6.94,160.09.86,140.75.63,140,.5,139.28,0,137.15Z" fill="#f9be7a"/><path d="M259.56,85.58l1.11-3.12c3.59-.51,7-1.77,10.73-1.9,9.26-.33,18.22.52,26.47,5.22,1,.59,2.93,1.92,1.66-1.12.77-1.74-.78-.68-1.19-1l-.83-.61c.11-2.79-2-4-3.87-5.34-4.3-3.07-9.28-4.81-13.95-7.14-11.34-5.67-22.77-11.18-34.07-16.93-5.88-3-11.51-6.47-17.39-9.45-2-1-4.47-2.69-6.69.12s-4.6,5.6-6.9,8.4c-5.56-.55-11.1-1.3-16.71-1-6.34-1.16-12.71-2.17-19-3.57-1.47-.33-4.32.66-4.28-2.09,0-2.39,2.29-3.77,4.38-4.16a85.67,85.67,0,0,1,11.32-1.18c6.92-.33,6.92-.25,7.11-6.86,2.78-1.2,5.39-2.62,6.82-5.47,2.17-4.33,5.34-7.94,8.38-11.64a63,63,0,0,1,5.17,6.64c4,6.67,9.74,11,16.6,14.39C248.15,44.49,261.88,51.19,276,57.2c12.68,5.41,24.19,12.56,31.5,24.91C311.54,89,311,93.9,305.22,99.45c-4.32,4.13-9,7.76-14.69,10,.82-3.34,3.8-4.94,6-7.12a31.44,31.44,0,0,0,7.25-11.22c-17.33,16.55-37.37,18.61-58.13,17.31,3.48-3.92,7.15-7.49,10.12-11.56C258.09,93.59,261.6,90.43,259.56,85.58Z" fill="#d2b8a0"/><path d="M290.43,167.07c8.92,4.19,16.86,9.92,24.79,15.67,3.76,2.8,3.6,6.19,2.12,10.28-2.67,7.39-4.86,14.94-7.26,22.43-5.88,2.51-11.7-.5-17.62-.2-11.13.57-21.27-3.58-31.37-7.88-5.72-2.44-8.7-6.84-11.36-11.86-.77-1.45-1.58-2.88-2.37-4.32l.18-1.66c4-8.8,8.06-17.61,12.14-26.39.59-1.27,1-2.93,2.94-2.78h.93l2-.07A94.85,94.85,0,0,1,290.43,167.07Z" fill="#191819"/><path d="M80.84,130.47a69.57,69.57,0,0,1-42.62-13.42c-1.2-.85-2.47-1.72-2.65-3.4,7-11.37,17.17-19.61,27.21-27.92C74.89,75.7,87.3,66,99.66,56.33c5.56-4.37,11.33-8.47,17-12.7,4.73,2.86,8.8,6.58,13,10q-3.8,3.56-7.61,7.09C114,68.29,106.49,76.49,99,84.66c-2.81,0-5.62-.17-8.42,0-11.53.66-21.37,4.87-28.81,14l0-.05-1.06,1.25c-4.31,5.67-3.8,11.45,1.53,15.41a59,59,0,0,0,19.31,9.38c3.72,1.06,8,.13,11.21,3C89.1,129.78,84.67,128.84,80.84,130.47Z" fill="#cbab91"/><path d="M509.29,275.25l2.1-.14c3-.56,4.21-2.5,5.05-5.33,2.77-9.3-.47-16.15-8.09-21.44l0,0a1.88,1.88,0,0,0-2-1.79c-.19-1.94,1.24-3,2.39-4.11,8.93-9,14.28-19.91,17.6-32,1.12-4.08,1.19-9.23,7.18-9.93,3,4.62,7.79,8.09,8.6,14.19,1.75,13.2,1.51,26.07-4.91,38.21a21.55,21.55,0,0,0-2.93,10.89c.27,7.43-1,14.43-5.82,20.41q-10.41-2-20.83-4.06c-1-.19-1.21-1-1.37-1.86s-.05-1.77-.08-2.66l2.14-.38.46.05Z" fill="#d8d6e9"/><path d="M444.5,168.07c-.42-3-2.5-5.18-4.07-7.59l-2-1.69a4.2,4.2,0,0,1,2.3-2.45c12.4-7.47,20.53-18.56,26.48-31.44,1.53-3.3,3.43-5.69,7.49-5.1,2.58,5.13,6.15,9.83,5.58,16.16-1.16,13.13-4.21,25.53-12.88,35.94a23.17,23.17,0,0,0-5.06,10.64c-1.36,7-4,13.28-9.77,17.83-6.58-1.06-12.07-4.8-18-7.35-2.39-1-2.3-2.88-1.82-4.92,8.92.61,12.65-2.54,13.51-12C446.46,173.41,448,170.08,444.5,168.07Z" fill="#d8d6e9"/><path d="M197.47,33.81c-.19,6.61-.19,6.53-7.11,6.86A85.67,85.67,0,0,0,179,41.85c-2.09.39-4.34,1.77-4.38,4.16,0,2.75,2.81,1.76,4.28,2.09,6.28,1.4,12.65,2.41,19,3.57l-.28,1c-.57.12-.94.4-.88,1h-.1c-4.59,2.31-8.88,5.29-14,6.34-7.34-4.44-14.64-4.41-21.88.23l-5.2-2.73-3-6.82c2.55-.6,5.13-1.12,7.65-1.85,1.26-.37,3.38.38,3.47-1.84.07-1.63-1.29-2.64-2.58-3.39a12.93,12.93,0,0,0-3.2-1.23c-3-.8-7.34.75-8.85-1.62s-.61-6.36-.77-9.64a3.85,3.85,0,0,0-.07-.49c3.33-1.76,6.68-3.49,10-5.29s6.8-3.41,6.24-7.91c-.57-4.67-4.24-6.29-8.29-7.24-.8-.19-1.61-.34-2.41-.51C165.76-4.19,189.19-3,200,12.12c-4.2-.07-8-2-12-2.68-3.54-.59-6.94-.5-10.08,1.37-5.45,3.26-5.64,8.91-.22,12.19,3.66,2.21,7.68,3.82,11.42,5.92C191.9,30.5,195.51,30.76,197.47,33.81Z" fill="#352e28"/><path d="M224.59,202.41c-7.27,6.26-15.28,11.69-21,19.65a45.81,45.81,0,0,1-2.9,4.36c-2.81-.46-2.31-2.83-1.9-4.3,1.86-6.55.33-13.39,2.55-20.05A117.63,117.63,0,0,1,209.09,183c6.59-12.13,14.4-23.55,22.24-34.92a9.22,9.22,0,0,1,3.47-2.67c3.72,3.54,4.32,7.92,3.33,12.69-.27,1.28-1.1,2.73-.18,3.79,5,5.69,3.93,12.14,2.58,18.66C234.57,187.36,230,195.15,224.59,202.41Z" fill="#d2b8a0"/><path d="M164.74,104.63c0-7.13-.36-14.18-2.48-21.12-1.1-3.59-3.18-4.57-6.3-3.72-20.38,5.6-32,16.41-33.25,38.94-.91,16.56,4.15,31.7,10.84,46.47.8,1.79,2.24,3.37,2,5.54C130.36,165.16,128,158,125,151.27c-2.54-5.71-4.15-11.83-6.18-17.77a27.57,27.57,0,0,0-1-12c-1-11.19,1.43-21.75,6-31.91a14.94,14.94,0,0,0,5-5l2.83-1.07,1.12-1c6.36-5.23,13.93-7.83,21.72-10h4.24c8.42.18,16.61-2.51,25.06-2l13.29,0,12.6,2.22c-.23,1.83-1.6,1.77-3,1.83-18.31.74-29.58,11.61-38,26.47C167.67,102.72,166.69,104.2,164.74,104.63Z" fill="#d8c2ad"/><path d="M290.43,167.07a94.85,94.85,0,0,0-24.91-6.78c5.59-13,10.38-26.57,19.31-37.81a26.07,26.07,0,0,1,16.74-9.79c0,1.15-.15,2.47,1.38,2.82,1.92.43,3.09,1.95,4.43,3.11,5.24,4.52,5.41,6.47.33,11.19-7.13,6.61-9.44,15.72-13,24.16C292.91,158.18,291.83,162.69,290.43,167.07Z" fill="#d8c2ad"/><path d="M438.45,158.79l2,1.69c-.79.18-1.92.26-1.64,1.37.84,3.37-1.19,2.67-3.05,2.3-6.3-1.24-12.62-2.34-18.88-3.74-12.76-2.87-25.55-5.65-38.21-8.93-12.09-3.13-24.27-6.24-35.65-11.45-4-1.81-8.39-3.48-11.25-7.52-2.71-3.84-3-6.87,1.16-9.58a2.78,2.78,0,0,0,1.59-2.32c10.33,4.91,20.59,9.93,31.23,14.17,22.39,8.9,45.24,16.45,68.28,23.43A25.93,25.93,0,0,0,438.45,158.79Z" fill="#d8c2ad"/><path d="M509.34,252.37c-14.95,0-29.92.42-44.85-.1-19.45-.67-39-1.23-58.13-5.06-3.72-.75-7.39-2.88-10.53-5.15-5.19-3.74-3.65-7.94,3.61-10.63,14.3,2.81,28.55,6,42.93,8.35,15,2.46,30.18,4.43,45.39,5.68,5.94.48,11.85,1.31,17.77,2l2.85.93,0,0A6.65,6.65,0,0,0,509.34,252.37Z" fill="#d8c2ad"/><path d="M378.47,227.28a10.07,10.07,0,0,0,4,4.85c4.26,3.14,4.48,8.06.26,11.33-3.63,2.81-7.78,4.95-12.68,4.94-12.48-.05-25,0-37.44,0-.76-6.61,1.08-13.09.9-19.67.31-1.75.63-3.51.94-5.27,12.55.16,25,1.8,37.38,3.46C374.09,227.21,376.39,225.59,378.47,227.28Z" fill="#d8c2ad"/><path d="M116.67,43.63c-5.68,4.23-11.45,8.33-17,12.7C87.3,66,74.89,75.7,62.78,85.73c-10,8.31-20.26,16.55-27.21,27.92-2.61-1-1.82-2.67-.87-4.4,9.91-17.89,23.52-32.12,40.58-43.59,12.07-8.11,22.82-18.12,33.54-28,2.05-1.89,4.36-3.5,6.56-5.23Z" fill="#dfccbb"/><path d="M259.56,85.58c2,4.85-1.47,8-3.82,11.23-3,4.07-6.64,7.64-10.12,11.56,20.76,1.3,40.8-.76,58.13-17.31a31.44,31.44,0,0,1-7.25,11.22c-2.17,2.18-5.15,3.78-6,7.12-7.19,4.3-14.69,7.78-23.07,9.07-5.26-1.71-10.91-.66-16.24-2.8-3.69-1.48-7.23-3.81-11.45-3.88-1.52-2-3.07-.21-4.47.11a35.62,35.62,0,0,1-14.79.07c-1-.2-2.58-.27-2.66-1.8s1.5-1.6,2.52-1.9A94.27,94.27,0,0,0,252,92C254.57,89.93,257,87.71,259.56,85.58Z" fill="#cbab91"/><path d="M116.67,43.63l-1.29-11.22c1.87-5.72,6.63-9.54,9.59-14.55,2.17-.09,2.42,1.85,3.41,3.09,3.76,4.69,5.69,11.19,12.51,12.93l0,1.66c0,.44,0,.87,0,1.31-.52,3.48,1.33,4.8,4.48,4.73,3.34-.07,2.09-2.7,2.2-4.38.14-2.11-.09-4.24-.16-6.36a2.7,2.7,0,0,1,.85-.13,3.85,3.85,0,0,1,.07.49c.16,3.28-.76,7.24.77,9.64s5.86.82,8.85,1.62a12.93,12.93,0,0,1,3.2,1.23c1.29.75,2.65,1.76,2.58,3.39-.09,2.22-2.21,1.47-3.47,1.84-2.52.73-5.1,1.25-7.65,1.85-4.39.56-8.79,1.11-13.17,1.68-3.22.43-6.64-.71-9.66,1.23C125.47,50.21,121.4,46.49,116.67,43.63Z" fill="#d2b8a0"/><path d="M528.52,284.23c4.82-6,6.09-13,5.82-20.41a21.55,21.55,0,0,1,2.93-10.89c6.42-12.14,6.66-25,4.91-38.21-.81-6.1-5.57-9.57-8.6-14.19,5.58-1.42,8.24-.41,10.57,4.48,5.07,10.64,4.61,22,3.77,33.3a41,41,0,0,1-3.68,14.42c-2,4.34-2,9-2.24,13.68-.18,4-.41,7.94-.61,11.91C537.57,286,537.49,286,528.52,284.23Z" fill="#46464a"/><path d="M452.59,200.37c5.8-4.55,8.41-10.88,9.77-17.83a23.17,23.17,0,0,1,5.06-10.64c8.67-10.41,11.72-22.81,12.88-35.94.57-6.33-3-11-5.58-16.16,6.19-.39,8.43.86,9.55,6.71,2.91,15.3-.57,29.71-7.86,43.06-3.38,6.18-6.42,12.26-7.64,19.2a34.28,34.28,0,0,1-1.25,4.78C464.44,202.81,461.17,204.29,452.59,200.37Z" fill="#46464a"/><path d="M140.89,33.88c-6.82-1.74-8.75-8.24-12.51-12.93-1-1.24-1.24-3.18-3.41-3.09,3.73-3.08,8.45-3.45,12.86-4.48,5.29-1.23,10.33-3.59,15.9-3.62.8.17,1.61.32,2.41.51,4.05,1,7.72,2.57,8.29,7.24.56,4.5-3,6.17-6.24,7.91s-6.66,3.53-10,5.29a2.7,2.7,0,0,0-.85.13Z" fill="#dfccbb"/><path d="M197.47,33.81c-2-3.05-5.57-3.31-8.39-4.89-3.74-2.1-7.76-3.71-11.42-5.92-5.42-3.28-5.23-8.93.22-12.19,3.14-1.87,6.54-2,10.08-1.37,4.06.69,7.84,2.61,12,2.68,4,2.19,9.14,1.14,12.67,4.58-3,3.7-6.21,7.31-8.38,11.64C202.86,31.19,200.25,32.61,197.47,33.81Z" fill="#dfccbb"/><path d="M224.59,202.41c5.36-7.26,10-15,15.94-21.86a22.68,22.68,0,0,1,4.76,7.13c.45,1,.67,2.24,2.25,1.85l-.18,1.66C240.18,195.76,232.35,199,224.59,202.41Z" fill="#a1836f"/><path d="M117.76,121.53a27.57,27.57,0,0,1,1,12c-4.06-5-8.84-6.6-15.35-4.85a57.4,57.4,0,0,1-22.61,1.82c3.83-1.63,8.26-.69,12-2.8,5.16-1.51,10.7-2.23,14.26-7A43.18,43.18,0,0,0,117.76,121.53Z" fill="#a1836f"/><path d="M239.77,111.79c4.22.07,7.76,2.4,11.45,3.88,5.33,2.14,11,1.09,16.24,2.8-9.89,3-19.81,2.61-29.74.18C237.22,116,238.53,113.91,239.77,111.79Z" fill="#a1836f"/><path d="M316.43,177.4c-2.74-8.18-1.8-16.62-1.65-25,.06-3.14,1.81-3.15,3.79-1.14,1.39,1.41,2.76,2.85,4.14,4.28Q319.56,166.47,316.43,177.4Z" fill="#a1836f"/><path d="M444.5,168.07c3.47,2,2,5.34,1.73,8-.86,9.51-4.59,12.66-13.51,12a2.74,2.74,0,0,1-.22-.74C443,184.06,444,182.46,444.5,168.07Z" fill="#cbab91"/><path d="M508.38,248.37l-2.85-.93.88-.86A1.88,1.88,0,0,1,508.38,248.37Z" fill="#cbab91"/><path d="M381.56,227.36h-1.21C380.76,226.82,381.16,226.85,381.56,227.36Z" fill="#d8c2ad"/><path d="M263.55,160.36h-.93Q263.1,159.69,263.55,160.36Z" fill="#d8c2ad"/><path d="M353.31,277.17c13.08-4.48,25.91-10,40.14-9.8,7,4.89,15.15,7,23,9.93-1.27,1.56-3.05,1-4.62,1-16-.34-32.05.7-48.06-.52C360.29,277.51,356.68,279.58,353.31,277.17Z" fill="#fdfcfb"/><path d="M416.44,277.3c-7.84-2.9-16-5-23-9.93,5.65-2.06,11.2-.81,16,1.84a47.9,47.9,0,0,0,22.17,6.25c13.48.38,26.75-2.35,40.19-2.07,1.63,0,3.86-1,4.49,1.79a119,119,0,0,0-25.82,2.33c-4.54.58-9.07,1.27-13.62,1.7A60.4,60.4,0,0,1,416.44,277.3Z" fill="#cbab91"/><path d="M450.52,277.51a119,119,0,0,1,25.82-2.33l4.78-.56,1.18.28,23.94.75c0,.89.05,1.77.08,2.66-17,0-34.05,0-51.07,0C453.65,278.3,451.91,278.83,450.52,277.51Z" fill="#fdfcfb"/><path d="M164.74,104.63c1.95-.43,2.93-1.91,3.84-3.51,8.47-14.86,19.74-25.73,38-26.47,1.36-.06,2.73,0,3-1.84,1.85.2,3.66.5,5,1.9-.25,2.13-1.93,2.65-3.57,2.85-23.53,2.91-37.59,24.63-42.52,43.83a110.55,110.55,0,0,0-2.62,38c1.59,16.88,4,33.81,11.46,49.43.73,1.52,1.48,3,1.26,4.74-6.82-8.17-10.37-18-13.66-27.86-5.09-15.23-6.84-31-6.29-47C159.1,127.06,162.75,116,164.74,104.63Z" fill="#e1cfbf"/><path d="M214.64,52.72c2.3-2.8,4.66-5.56,6.9-8.4s4.67-1.14,6.69-.12c5.88,3,11.51,6.46,17.39,9.45,11.3,5.75,22.73,11.26,34.07,16.93,4.67,2.33,9.65,4.07,13.95,7.14,1.88,1.33,4,2.55,3.87,5.33-4.15-2.37-8.3-4.81-13-5.84-10.21-2.22-20.41-3.4-30.3,1.41a3.27,3.27,0,0,1-3.56-1.72c-1.77-3.67-5.54-5.09-8.47-7.45C233.74,62.66,223.82,58.3,214.64,52.72Z" fill="#dfccbb"/><path d="M254.2,78.62c9.89-4.81,20.09-3.63,30.3-1.41,4.71,1,8.86,3.47,13,5.84l.83.62,1.19,1c1.27,3-.63,1.71-1.66,1.12-8.25-4.7-17.21-5.55-26.47-5.22-3.72.13-7.14,1.39-10.73,1.9Z" fill="#a1836f"/><path d="M179.71,216.4q-.09-.48-.15-1C180.22,215.66,180.45,216,179.71,216.4Z" fill="#e1cfbf"/><path d="M333.52,228.72c.18,6.58-1.66,13.06-.9,19.67l-.57,5.36c-24.29-.05-48.59-.21-72.88-.1-18,.07-31.71-8.45-43.79-20.7-1.5-1.52-1.49-2.61-.07-4.15A99,99,0,0,1,230,216.12c2-1.48,3.33-.68,4.7.78,8.55,9.07,19,12.35,31.45,12C288.58,228.34,311.05,228.74,333.52,228.72Z" fill="#2eaeb6"/><path d="M509.34,252.37a6.65,6.65,0,0,1-1-4c7.62,5.29,10.86,12.14,8.09,21.44-.84,2.83-2.08,4.77-5.05,5.33,1.53-3.6,3.14-7,3.06-11.21C514.37,259.15,513.4,255.18,509.34,252.37Z" fill="#cbab91"/><path d="M509.29,275.25l-.45.07-.46-.05C508.67,274.76,509,274.73,509.29,275.25Z" fill="#cbab91"/><path d="M482.3,274.9l-1.18-.28C481.72,273.82,482.13,273.86,482.3,274.9Z" fill="#cbab91"/><path d="M299.53,84.66l-1.19-1C298.75,84,300.3,82.92,299.53,84.66Z" fill="#dfccbb"/><path d="M107.06,120.69c-3.56,4.75-9.1,5.47-14.26,7-3.21-2.9-7.48-2-11.2-3a59,59,0,0,1-19.31-9.38c-5.33-4-5.84-9.74-1.53-15.41l1.06-1.25,0,.05,3-1c.39.74.71.66,1-.09l0,0a12.15,12.15,0,0,0,3.47-.08c7-2.18,13.92-2.17,21-.94,3.26.56,4.93,1.41,3.45,5-.93,2.27-1.88,4.67,0,7C94.17,114.16,100,119.51,107.06,120.69Z" fill="#d2b8a0"/><path d="M64.8,97.63l-3,1c7.44-9.13,17.28-13.34,28.81-14,2.8-.16,5.61,0,8.42,0l-3.74,5.69c-1.41,1.59-3.07.41-4.62.38-9-.16-17.64.81-24.92,6.84l0,0A1.44,1.44,0,0,0,64.8,97.63Z" fill="#a1836f"/><path d="M61.82,98.6l-1.06,1.25Z" fill="#a1836f"/><path d="M183.7,70.62c-8.45-.54-16.64,2.15-25.06,2-.18-4.25,2.81-7.95,2.11-12.28,7.24-4.64,14.54-4.67,21.88-.23C183,63.6,183.34,67.11,183.7,70.62Z" fill="#d2b8a0"/><path d="M183.7,70.62c-.36-3.51-.71-7-1.07-10.53,5.16-1.05,9.45-4,14-6.34l.15,1.72.44,1.22A77,77,0,0,1,197,70.6Z" fill="#cbab91"/><path d="M160.75,60.32c.7,4.33-2.29,8-2.11,12.28H154.4c.75-5-1.14-10.15,1.15-15Z" fill="#cbab91"/><path d="M197.65,52.7l-.88,1C196.71,53.1,197.08,52.82,197.65,52.7Z" fill="#d8c2ad"/><path d="M107.06,120.69c-7-1.18-12.89-6.53-13.32-12.14,6.22-12.29,15.44-19.83,30-18.93-4.55,10.16-6.95,20.72-6,31.91A43.18,43.18,0,0,1,107.06,120.69Z" fill="#cbab91"/><path d="M123.74,89.62c-14.56-.9-23.78,6.64-30,18.93-1.93-2.31-1-4.71,0-7,1.48-3.61-.19-4.46-3.45-5-7.13-1.23-14.1-1.24-21,.94a12.15,12.15,0,0,1-3.47.08c7.28-6,15.94-7,24.92-6.84,1.55,0,3.21,1.21,4.62-.38,2.53,2.7,4.71,2.52,7.49-.07,7.45-7,16.34-8.23,26-5.67A14.94,14.94,0,0,1,123.74,89.62Z" fill="#e1cfbf"/><path d="M131.56,83.54l1.12-1Z" fill="#e1cfbf"/><path d="M140.87,35.54c.57.46.55.89,0,1.3C140.85,36.41,140.86,36,140.87,35.54Z" fill="#dfccbb"/><path d="M197.26,56.69l-.44-1.22C197,55.87,197.11,56.28,197.26,56.69Z" fill="#d8c2ad"/><path d="M64.8,97.63a1.44,1.44,0,0,1,1-.09C65.51,98.29,65.19,98.37,64.8,97.63Z" fill="#e1cfbf"/></g></g></svg>