<svg xmlns="http://www.w3.org/2000/svg" viewBox="0 0 525.67 751.98"><title>ex_d3_2_1</title><g id="Layer_2" data-name="Layer 2"><g id="Layer_1-2" data-name="Layer 1"><path d="M445.82,75c-.05,4.49-.15,9-.15,13.47q0,299.22-.14,598.42c0,5.17,1.41,6.6,6.41,6.27,6.29-.42,12.64,0,19,0q0,10.8.07,21.6l-106.71.13c-5.48,0-11,.05-16.45.07a18.57,18.57,0,0,0-7.83-.92,47.06,47.06,0,0,1-29.57-8.33c-3-2-6.13-3.93-9.1-6-1.41-1-2.73-1.88-4.54-1.47l-.93-5.18c13.14,0,26.29.06,39.43,0,8.43,0,7.56,1,7.56-7.36q0-284.86,0-569.72c0-18.62-.09-37.24-.14-55.87,1.06-.61.82-1.7,1-2.65V56c5.49-.48,10.56,2.26,16,2-.09.82-.19,1.65-.28,2.48s-.45,1.95.36,2.8q0,142.56,0,285.12a128.26,128.26,0,0,0,.06,17.86c0,1.62,0,3.24-.08,4.87q0,8.76,0,17.52l0,4.9q0,8.9,0,17.8,0,45.39,0,90.8a128.08,128.08,0,0,0,.08,17.74l-.09,5q0,8.76,0,17.51l0,4.91a128.52,128.52,0,0,0,0,17.77c0,1.65,0,3.29-.05,4.93l0,17.68v5l0,17.62c0,1.64,0,3.28,0,4.92a128.66,128.66,0,0,0,0,17.78l-.06,4.86v17.68l.08,4.88a124.48,124.48,0,0,0,0,17.7c0,3.8.08,7.6-.1,11.39-.13,2.86,1.1,3.7,3.8,3.66,7.6-.12,15.2-.1,22.79,0,2.51,0,3.63-.84,3.52-3.45-.15-3.79-.09-7.59-.12-11.38a24.3,24.3,0,0,1,8.16.05c-.06,3.63,0,7.27-.21,10.89-.21,3.15,1.18,4,4.09,3.9,4.45-.16,8.93.12,13.38-.09,4.72-.21,10.86,2.16,13.77-1.07s.65-9.17.84-13.92l-.06-17.58.09-5.13V637.91c0-1.7-.05-3.4-.07-5.09l0-17.59,0-5.07-.06-17.45.09-5.24q0-8.69,0-17.37l-.05-5.11q0-8.82,0-17.62l0-5.07q0-8.65,0-17.29c0-1.76,0-3.51,0-5.27l0-17.5q0-45.48-.05-91V393.69c0-1.7,0-3.39.05-5.09l0-17.34-.09-5.11q0-8.83.07-17.65,0-138.26,0-276.52C435.21,72,440.46,73.8,445.82,75Zm-94.65,625.4c-1.63.41-2.62,1.36-2.51,3.13a2.65,2.65,0,0,0,2.85,2.76c2,0,3-1.38,2.78-3.28C354.11,701.3,352.78,700.61,351.17,700.42Zm86.7.05c-1.69.29-2.8,1.28-2.79,2.93a2.64,2.64,0,0,0,3.18,2.86,2.6,2.6,0,0,0,2.48-3C440.64,701.45,439.52,700.66,437.87,700.47Z" fill="#cdcdcd"/><path d="M350.84,719.92c4.21,1.3,8.53,1.06,12.85,1.06q71.91,0,143.84,0c7.55,0,13.57,2.57,17.07,9.6s-1.86,20.27-11.37,20.66c-6.94.28-13.9.66-20.86.66q-235.24.07-470.49.1a59.44,59.44,0,0,1-12.31-1.35c-4.51-1-7.34-4.71-8.58-9.35-1.37-5.15-1.88-10.06,2.28-14.4,4.35-4.53,9.65-6,15.74-5.94q120.87.07,241.74,0c.09,1.3.17,2.6.25,3.9-.15,9.93,2.3,13.24,11.22,14.47,5.44.75,11.33,1.34,16.27-.5,5.47-2,10-3.12,14.85.66.78.59,2.26.35,3.42.36,5.3.07,10.63.41,15.91,0,8.32-.58,16.42-2.35,23.57-7,3.54-2.28,6.13-5.19,4.5-9.91C350.78,722,350.81,721,350.84,719.92Z" fill="#f2f3ef"/><path d="M114.93,251c5.69-10.42,4.06-22.16,5.95-33.26a122.27,122.27,0,0,1,9.27-29.23,269.16,269.16,0,0,0,14.1-40.74c.67-2.54,0-3.94-1.55-5.71-3-3.51-5.8-7.22-8.62-10.89-1.44-1.87-2.47-3.91-2.09-6.42.5-3.24-1.29-4-4.12-3.82-3.86.23-6.79-1.42-6.73-5.49,0-4.39,3.26-5.7,7.27-5.48,1.82.09,3.67-.1,5.48.07,2.54.24,3.7-.54,4.44-3.25,1.2-4.38,4.16-6.29,9.11-5.19,10.61,2.35,10.78,2.24,15.48-7.65,8.4-17.68,16.6-35.45,25-53.15,1.59-3.36,3.75-6.26,7.81-6.9l.5.54a19.63,19.63,0,0,0-6.62,10.7c-1.5.23-2.09,1.24-2.7,2.56-8,17.31-16,34.63-24.24,51.84-1.69,3.54-1.33,4.92,2.72,5.49,5.58.8,7.42,3.4,7.63,9.16a42.13,42.13,0,0,1-1.8,14.21c-6.79,21.45-7.56,43.89-11,65.87-2.17,13.7-3.2,27.64-7.85,40.78-6,17-7.06,34.88-9.3,52.55-4.43,2.44-5,5.9-2.72,10.14-.52,2.74-.08,5.53-.88,8.29a79,79,0,0,0-3.44,26.64c-4.29-1.34-8.31-3.55-12.87-4.05l-4-5.05c.31-7.94-2.8-15.88,0-23.83a57.07,57.07,0,0,1,7-4.35c2.63-1.44,6.48-2.33,6-6.74a9,9,0,0,0-.25-2,183.63,183.63,0,0,0-15-31.2C116,254,114.64,252.82,114.93,251Z" fill="#dcdcdb"/><path d="M359.69,58c-5.46.21-10.53-2.53-16-2-3.46-3.46-8.28-2.85-12.44-3.68C309.88,48,288.41,44.23,267,40.22c-16.06-3-32.1-6.11-48.15-9.17-6.42-.31-12.39-3.44-18.93-3-5-1-10-2-15-3-1.13-.21-2.36,0-3-1.26q1.93-11.31,3.86-22.6,17,3.15,34.08,6.32c22.41,4.19,44.82,8.34,67.22,12.61,17.37,3.3,34.69,6.83,52.06,10.12,24.67,4.69,49.44,8.87,74,14,15.37,3.21,30.88,5.7,46.18,9.23A146.73,146.73,0,0,0,455,76.76L445.81,75c-5.35-1.22-10.6-3-16.19-3-5.29-1-10.57-2.15-15.9-3-3-.48-6-2.58-9.24-.62l-.33-.16c-5.54-4.11-12-3.95-18.47-4.23-.83-1.83-2.48-1.75-4.16-2C374.23,60.74,367,59.34,359.69,58Zm-5.07-14a2.67,2.67,0,0,0-2.31-3.16,2.82,2.82,0,1,0-.93,5.55A2.76,2.76,0,0,0,354.62,44Zm86.93,16.12c-.2-1.72-1.09-2.87-2.81-2.93a2.78,2.78,0,0,0-3.13,3,2.58,2.58,0,0,0,2.72,2.87C440.31,63.15,441.31,62,441.55,60.11Z" fill="#dcdcdb"/><path d="M82,693,82,588.32l117.59-.15c14.11,0,28.22-.13,42.34-.2l3,.35c.34,8.74-.85,17.48,1.44,26.24,3.06,11.69,7.72,22.87,10.46,34.63q0,21.91,0,43.84c-7.31-.55-14.62,2.08-21.93,0,0-29.43-.07-58.86.1-88.29,0-4.18-.79-5.74-5.42-5.72q-60.14.29-120.28,0c-4.65,0-5.42,1.59-5.4,5.74.16,29.43.08,58.86.07,88.29-2.08.38-4.12,1.52-6.25.87C92.51,692.34,87.25,693.29,82,693Z" fill="#dcdcdb"/><path d="M127.93,558.21c-7.57-4.85-15.11-9.72-18.82-18.49A48.42,48.42,0,0,1,105,521.51c-.12-8,0-15.95,0-23.92a29,29,0,0,1,2-10.3,144.73,144.73,0,0,1,28.34-4.05c2.74-.08,3.68.63,3.71,3.51,0,5.63.74,11.25.89,16.89.35,13.41,9,24.24,22.23,26.65,12.83,2.33,25.79,3.9,38.65,6.07,2.86.48,6.31-.47,8.48,2.52-2,7.72-4.49,15.28-8.39,22.3-1.89,3.4-3.17,6.92-8.63,6.09a274,274,0,0,0-29-2.92c-10.44-.47-20.75-1.11-30.49-5.3A10.8,10.8,0,0,0,127.93,558.21Z" fill="#060a06"/><path d="M82,693c5.22.26,10.48-.69,15.65.88,2.13.65,4.17-.49,6.25-.87l130.93,0c7.31,2.09,14.62-.54,21.93,0l9.92-.06,1.21,8c-3,.24-3.59,2.84-4.77,4.86l-1.47,9.1-201.45,0c-1,0-2,.09-3,.14q0-11.06,0-22.11Zm14.06,9.81a2.5,2.5,0,0,0-2.82-2.33,2.74,2.74,0,0,0-2.82,2.85,2.68,2.68,0,0,0,3.15,2.93C95.3,706.13,96.19,705,96.09,702.84Zm152.32.47c-.36-1.49-1.09-2.77-2.86-2.79-2.05,0-2.94,1.22-2.8,3.18a2.57,2.57,0,0,0,2.95,2.59C247.42,706.22,248.28,705.08,248.41,703.31Z" fill="#cdcdcd"/><path d="M241.9,588c-14.12.07-28.23.17-42.34.2L82,588.32c-3-.06-6-.09-9-.19-4.79-.16-6.94-2.27-7-7-.06-3,.07-6,.11-8.94A21.44,21.44,0,0,1,77.17,569c28.6.24,57.21.12,85.82.12,24.46,0,48.91.07,73.36-.06,4.05,0,5.79,1.21,5.55,5.42C241.65,579,241.88,583.49,241.9,588Z" fill="#4e4e4f"/><path d="M107.69,477.5c-1-4.69-2.43-9.35-2.93-14.1-1.72-16.16-11.81-28.14-20-41.09-5.06-8-10.18-15.93-15.13-24-10.4-16.94-11.61-34.91-5.69-53.59a145.94,145.94,0,0,1,7.17-19.07c2.18,2.2-.16,4.34-.14,6.53.06,5.28,1.36,6.4,6.17,4.87,1.41-.44,2.81-1.59,4.79-.67-1.84,3.33-5.63,5.13-6,9.09-2.46.45-3,2.68-3.48,4.44a37.31,37.31,0,0,0,1.6,26.14c4,9.09,11.47,14.65,20.89,19.15-3.1.36-6.69,0-2.91,3.83,9.76,9.94,19.19,20.22,29.18,29.92,3.94,3.83,8.09,7.86,13.75,9.41v0l1,.92,7.92,2.11c-1.13,1.45-2.83,1.22-4.13.86-4.59-1.28-9.33-2.25-13.4-5-3.24-2.16-6.45-4.36-10.61-7.16,1,8.21,3.19,15.12,3.74,22.27.57,7.34,3.71,14.3,3.46,21.79Z" fill="#c69777"/><path d="M68.94,301.69c-7.51-4.75-14.25-10.4-19.44-17.66-13.27-18.6-8.37-38.09,12.34-47.85,9.45-4.46,19.3-8.06,29.06-11.83,4.8-1.86,10.41,2.55,12.39,9.36,0,1,0,2,0,3-.12.66-.25,1.31-.37,2a42.32,42.32,0,0,0-13.84.67c-3.82,1-9.35,1.2-10.25,4.68-.8,3.11,4,5.94,6.81,8.48,1.87,1.71,3.86,3.23,3,6.22a22.33,22.33,0,0,0,4,20.13c1.48,2,1,3.25-1.08,4.2-2.39,1.1-3.25-.78-4.29-2.23a30.78,30.78,0,0,0-8-8.07c-3.88-2.56-8.65-2-11.31,1.11-3,3.46-2.73,7.07.73,11.1.76.88,1.46,1.8,2.18,2.7a16.72,16.72,0,0,0,.65,6.32C72.66,297.21,71.89,299.84,68.94,301.69Z" fill="#855637"/><path d="M75.94,345.49c.35-4,4.14-5.76,6-9.09-2-.92-3.38.23-4.79.67-4.81,1.53-6.11.41-6.17-4.87,0-2.19,2.32-4.33.14-6.53q1.07-3.1,2.12-6.22c2.69-1.46,3.72-5.58,7.78-4.86a9.35,9.35,0,0,1-1.09,4.29c-2.5,6.33-.39,10.14,6.21,11.6,1.45.32,3.38-.77,4.35,1.15-.25,1.28-2.18.32-2.13,1.82C105,334,119,343.62,123.73,360.1c1.46,5.11,2,10.35,3.06,15.53-2.43-.18-2.73,2.09-3.82,3.4-2.09,2.52-4,4.87-7.36,6.24-11,4.56-27.88-3.62-33.53-13.79A48.1,48.1,0,0,1,75.94,345.49Z" fill="#dcbba1"/><path d="M91.6,283.1c2.11-1,2.56-2.22,1.08-4.2a22.33,22.33,0,0,1-4-20.13c.82-3-1.17-4.51-3-6.22-2.8-2.54-7.61-5.37-6.81-8.48.9-3.48,6.43-3.72,10.25-4.68a42.32,42.32,0,0,1,13.84-.67c3.57,2.28,5.81,5.81,8.49,8.93,1,1.21,1.54,3,3.5,3.3-.29,1.87,1,3.06,1.87,4.47a183.63,183.63,0,0,1,15,31.2,9,9,0,0,1,.25,2c-5.82,1.76-11.64,3.55-17.46,5.29C104.61,296.85,95.79,292.7,91.6,283.1Z" fill="#e1c4af"/><path d="M107.69,477.5,123,474.23a95.74,95.74,0,0,1,17.25-.94c7.9.17,15.8.47,23.7.71,5.06.46,10.12.71,15.1-.69,1.35.32,2.68.82,2.69,2.42.05,6,2.21,11.54,3,17.35a28.25,28.25,0,0,1-2.91-.2c-11.27-2-22.48-4.31-33.88-5.53-3.07-.33-4.15.6-3.79,3.8.56,5,.59,10,1,14.91.82,8.84,7.18,17.31,15.43,18.84,16.62,3.08,33.32,5.82,50.18,7.37.37,2.4-.6,4.5-1.51,6.6-2.17-3-5.62-2-8.48-2.51-12.86-2.17-25.82-3.74-38.65-6.07-13.23-2.41-21.88-13.24-22.23-26.65-.15-5.64-.84-11.26-.89-16.89,0-2.88-1-3.59-3.71-3.51A144.73,144.73,0,0,0,107,487.29C106.87,484,106.73,480.71,107.69,477.5Z" fill="#b9d284"/><path d="M241.9,588c0-4.48-.25-9,0-13.46.24-4.21-1.5-5.44-5.55-5.42-24.45.13-48.9.06-73.36.06-28.61,0-57.22.12-85.82-.12a21.44,21.44,0,0,0-11.08,3.15c-.63-13.16.07-13.89,13.11-13.9q24.36,0,48.73-.07a10.8,10.8,0,0,1,4.85.84c9.74,4.19,20.05,4.83,30.49,5.3a274,274,0,0,1,29,2.92c5.46.83,6.74-2.69,8.63-6.09,11.56,1.81,23.24,2,34.89,2.61,4,.39,8.09.83,12.14,1.14,1.55.12,3,.14,2.93,2.26-.62,1.69-1.28,3.36-1.85,5.07-1.76,5.25-1.64,11-4.11,16.06Z" fill="#262526"/><path d="M263.15,705.85c1.18-2,1.77-4.62,4.77-4.86,1.92,2.3,3.57,4.89,6.46,6.18,6.22,3.82,10.45,3.34,15.17-1.64,2.36-2.49,4.81-4.88,7.22-7.32,1.81-.41,3.13.47,4.54,1.47,3,2.11,6.09,4,9.1,6A47.06,47.06,0,0,0,340,714.05a18.57,18.57,0,0,1,7.83.92c.21,1.91,3,2.19,2.74,4.41A42.78,42.78,0,0,1,324.07,728C301.18,727.67,280.82,720.49,263.15,705.85Z" fill="#060a06"/><path d="M471,714.77q0-10.8-.07-21.6c0-2.52.86-3.79,3.82-3.68,6.64.25,13.29.19,19.94,0,2.81-.06,3.78.85,3.71,3.7q-.27,10.71,0,21.43c.08,2.88-.9,3.73-3.7,3.66-6.81-.16-13.63-.19-20.44,0C471.35,718.42,471,717,471,714.77Z" fill="#4e4e4f"/><path d="M57.26,692.94q0,11.05,0,22.11c0,2-.38,3.35-3,3.28-7.12-.18-14.25-.15-21.37,0-2.58,0-3-1.11-3-3.28.09-7.45.13-14.91,0-22.36,0-2.37.68-3.18,3.07-3.14,7,.11,13.93.16,20.88,0C56.57,689.43,57.38,690.55,57.26,692.94Z" fill="#4e4e4f"/><path d="M263.15,705.85c17.67,14.64,38,21.82,60.92,22.12a42.78,42.78,0,0,0,26.48-8.59.56.56,0,0,1,.29.54c0,1-.06,2.07-.1,3.1-13,9.17-27.2,11.72-42.66,7.92-7.73-1.9-15.4-4.1-23.54-3.92-7.9.17-15.92,1-23.54-2.16-.08-1.3-.16-2.6-.25-3.9l.93-6Z" fill="#b9d284"/><path d="M81,314.59c-4.06-.72-5.09,3.4-7.78,4.86q-2.13-8.88-4.28-17.76c3-1.85,3.72-4.48,2.6-7.66a16.72,16.72,0,0,1-.65-6.32c4.12-.4,7.17,4.19,11.25,2.83,4.43-1.47,6.87.62,9.76,3.37,6.06,5.77,12.8,9.83,21.76,6.41,1.61-.61,3.37-2.51,5.39-.64-2.75,7.95.36,15.89,0,23.83-1.53,1.35-2-.4-2.7-1-8.06-7.91-16-15.89-24.37-23.52-3.45-3.16-6.3-5.52-11.5-4.51-3.48.68-3.49,1.55-2.68,4.42,1.49,5.24,4.53,10,5,15.52Z" fill="#c69777"/><path d="M199.92,28.05c6.54-.44,12.51,2.69,18.93,3,0,.94,0,1.88,0,2.82,0,.4,0,.79,0,1.19-.06,4.47-.06,8.94-.21,13.4-.19,5.85-3.81,9.71-9.07,9.84-5.47.13-9.4-3.82-9.61-9.83-.14-4.14-.08-8.28-.12-12.42.23-1.23.51-2.47-1-3.13V32A5.91,5.91,0,0,0,199.92,28.05Zm9.57,18.58c-1.49.07-2.59.69-2.75,2.28-.17,1.76.63,2.94,2.46,3.07A2.43,2.43,0,0,0,212,49.72C212.24,47.9,211.2,47,209.49,46.63Z" fill="#cdcdcd"/><path d="M455,76.76a146.73,146.73,0,0,1,4.28-23.26c6.73,1.06,6.74,1.06,5.5,7.7-.61,3.22-1.25,6.43-1.89,9.65C461.5,77.69,461.5,77.69,455,76.76Z" fill="#4e4e4f"/><path d="M185.69,1.22q-1.94,11.3-3.86,22.6c-7.5-.08-7.5-.08-6.2-6.91.78-4.08,1.73-8.14,2.23-12.25.48-3.93,1.61-6,5.86-3.63A5.44,5.44,0,0,0,185.69,1.22Z" fill="#4e4e4f"/><path d="M198.87,32v.9l-2.69,1.46-.5-.54C196.09,32.09,197.44,32,198.87,32Z" fill="#dcdcdb"/><path d="M103.31,236.75c0-1,0-2,0-3A1.92,1.92,0,0,1,103.31,236.75Z" fill="#e1c4af"/><path d="M287.85,583.18c1.35,1.59.71,3.5.79,5.27,1.12,24,1.91,48.06,3.4,72,.67,10.88,1.59,21.8,3.8,32.53l.93,5.18c-2.41,2.44-4.86,4.83-7.22,7.32-4.72,5-8.95,5.46-15.17,1.64a1.91,1.91,0,0,0,1.26-1.94c-.64-5.73-1.08-11.5-2.05-17.17-2.92-17.12-3.79-34.44-4.58-51.7-.63-13.86-1.08-27.84.79-41.71.83-6.17,1.22-12.43,5.46-17.54,2.95-3.56,5.78-3.48,9-.24C286.17,578.73,286.4,581.25,287.85,583.18Z" fill="#dcbba1"/><path d="M397.78,678.32a24.3,24.3,0,0,0-8.16-.05l-29.89-.21a124.48,124.48,0,0,1,0-17.7c10-.07,20,.49,29.91-.32l9,.06,30.91.35.06,17.58Z" fill="#4e4e4f"/><path d="M359.76,565.06a128.52,128.52,0,0,1,0-17.77l69.89.08q0,8.8,0,17.62l-30.91.25-10,0Z" fill="#4e4e4f"/><path d="M388.68,411.49l-28.93-.13q0-8.91,0-17.8l28.95-.16,10,0,30.92.31v17.58l-30.91.23Z" fill="#4e4e4f"/><path d="M429.63,615.23l0,17.59-30.91.32-10,0-28.94-.18a128.66,128.66,0,0,1,0-17.78l29.92-.14a26.76,26.76,0,0,0,8.09,0Z" fill="#4e4e4f"/><path d="M408,348.38l21.63.12q0,8.82-.07,17.65l-30.91.35-10,0-28.92-.21a128.26,128.26,0,0,1-.06-17.86l20.91.11Z" fill="#4e4e4f"/><path d="M359.71,502.16l28.92-.12,10.13,0,30.9.24,0,17.5-31,.41-9.89-.07-29-.18A128.08,128.08,0,0,1,359.71,502.16Z" fill="#4e4e4f"/><path d="M359.72,610.24l0-17.62,29-.31,9.95-.06c10.3,1,20.62,0,30.92.46l.06,17.45-31.85.32a24.54,24.54,0,0,0-8.2-.07Z" fill="#4e4e4f"/><path d="M359.71,542.38q0-8.76,0-17.51l28.88-.21a39.44,39.44,0,0,0,10.24-.08l30.86.43q0,8.64,0,17.29Z" fill="#4e4e4f"/><path d="M429.66,570.1q0,8.68,0,17.37l-30.93.51a35.38,35.38,0,0,0-10.12,0l-28.94-.27q0-8.83,0-17.68l29.89-.23,9.17,0Z" fill="#4e4e4f"/><path d="M359.71,388.66q0-8.76,0-17.52l28.94-.28,10.11-.07c10.3,1,20.62.09,30.93.47q0,8.67,0,17.34l-30.94.3-10.06,0Z" fill="#4e4e4f"/><path d="M359.7,655.48V637.8l28.95-.24,10.09-.09,30.93.44q0,8.7,0,17.41c-10.31.52-20.63-.52-30.93.54a26.41,26.41,0,0,0-9.13.06C379.66,654.82,369.67,655.67,359.7,655.48Z" fill="#4e4e4f"/><path d="M342.7,60.11c-13-2.51-26-5-39-7.54Q265,45.16,226.34,37.82c-1.19-.23-2.5-1.26-3.63.2l.11.11c.59-1.26-.49-.93-1-1.1l-2.9-2c0-.4,0-.79,0-1.19,1.64.26,3.29.46,4.92.77L343.68,57.46C343.52,58.41,343.76,59.5,342.7,60.11Z" fill="#666566"/><path d="M343.68,57.46,223.76,34.64c-1.63-.31-3.28-.51-4.92-.77,0-.94,0-1.88,0-2.82,16.05,3.06,32.09,6.17,48.15,9.17,21.41,4,42.88,7.76,64.23,12.06,4.16.83,9,.22,12.44,3.68C343.67,56.46,343.68,57,343.68,57.46Z" fill="#f2f3ef"/><path d="M383.93,69.09c-.64-2.16-2.62-1.66-4.1-2-6.67-1.35-13.37-2.57-20.06-3.84-.81-.85-.57-1.83-.36-2.81l25,4.73a3.59,3.59,0,0,1,.8,3.87Z" fill="#666566"/><path d="M384.44,65.21l-25-4.73c.09-.82.19-1.65.28-2.47,7.27,1.33,14.54,2.73,21.83,3.94,1.68.28,3.33.2,4.16,2Z" fill="#f2f3ef"/><path d="M351.17,700.41c1.61.2,2.94.89,3.12,2.62.19,1.9-.75,3.25-2.78,3.28a2.65,2.65,0,0,1-2.85-2.76C348.55,701.78,349.54,700.83,351.17,700.41Z" fill="#666566"/><path d="M437.87,700.47c1.65.19,2.77,1,2.87,2.74a2.6,2.6,0,0,1-2.48,3,2.64,2.64,0,0,1-3.18-2.86C435.07,701.75,436.18,700.76,437.87,700.47Z" fill="#4e4e4f"/><path d="M261,724.86c7.62,3.13,15.64,2.33,23.54,2.16,8.14-.18,15.81,2,23.54,3.92,15.46,3.8,29.66,1.25,42.66-7.92,1.63,4.72-1,7.63-4.5,9.91-7.15,4.61-15.25,6.38-23.57,7-5.28.37-10.61,0-15.91,0-1.16,0-2.64.23-3.42-.36-4.89-3.78-9.38-2.7-14.85-.66-4.94,1.84-10.83,1.25-16.27.5C263.3,738.1,260.85,734.79,261,724.86Z" fill="#4e4e4f"/><path d="M81,314.59l1.86-.2c2.91.45,5.81.26,8.76,1.36,6.14,2.29,11.3,6.07,16.68,9.6,4.46,2.93,9,5.79,14.76,3.21,4.56.5,8.58,2.71,12.87,4.05.18,1.67,1.54,2.34,2.62,3.35,4.3,4,8.79,7.85,12.39,12.56-1.22,6-3.76,11.56-6.5,17-4.52,9-4.51,9-12.73,3.26-.67-.47-1.39-1.32-2.12-.67-.5.44-.56,1.46-.65,2.24-.41,3.41,2.34,5,4.32,6.8,3.72,3.41,3.48,6.4-.26,9.45a20.86,20.86,0,0,0-6.08-6.12c0-1.62-.09-3.25-.13-4.87-1-5.18-1.6-10.42-3.06-15.53C119,343.62,105,334,88.34,333.45c0-1.5,1.88-.54,2.13-1.82-1-1.92-2.9-.83-4.35-1.15-6.6-1.46-8.71-5.27-6.21-11.6A9.35,9.35,0,0,0,81,314.59Z" fill="#e1c4af"/><path d="M168.6,282.7c1.25-15.21,2.42-30.43,3.74-45.64q3.71-42.42,7.56-84.84,4.82-53.56,9.66-107.14a19.63,19.63,0,0,1,6.62-10.7l2.69-1.46c1.51.66,1.23,1.9,1,3.13-2.84,0-2.77,3.41-5,4.13l-1,.9,0,0c-1.11.75-.89,1.94-1,3h0c-1.13.87-1.45,1.78-.12,2.76l-.12,2.5c-2.88.71-1.43,2.91-1.55,4.56q-4.33,49.62-8.67,99.24-4.77,53.85-9.64,107.67c-.69,7.6-1.54,15.18-2.31,22.78Z" fill="#666566"/><path d="M119.05,299.68c-2-1.87-3.78,0-5.39.64-9,3.42-15.7-.64-21.76-6.41-2.89-2.75-5.33-4.84-9.76-3.37-4.08,1.36-7.13-3.23-11.25-2.83-.72-.9-1.42-1.82-2.18-2.7-3.46-4-3.7-7.64-.73-11.1,2.66-3.09,7.43-3.67,11.31-1.11a30.78,30.78,0,0,1,8,8.07c1,1.45,1.9,3.33,4.29,2.23,4.19,9.6,13,13.75,23,10.78,5.82-1.74,11.64-3.53,17.46-5.29.51,4.41-3.34,5.3-6,6.74A57.07,57.07,0,0,0,119.05,299.68Z" fill="#d6ad8e"/><path d="M123.06,328.56c-5.71,2.58-10.3-.28-14.76-3.21-5.38-3.53-10.54-7.31-16.68-9.6-3-1.1-5.85-.91-8.76-1.36-.48-5.56-3.52-10.29-5-15.53-.81-2.87-.8-3.74,2.68-4.42,5.2-1,8,1.35,11.5,4.51,8.34,7.63,16.31,15.61,24.37,23.52.66.64,1.17,2.39,2.7,1Z" fill="#d6ad8e"/><path d="M143.77,298.93l-3.52-1.25c-2.3-4.24-1.71-7.7,2.72-10.14,2,.14,4.14-.1,6,1.1C149.07,293,149,297.26,143.77,298.93Z" fill="#666566"/><path d="M383.93,69.09h1.31c.05,4.13.07,8.27.15,12.4.12,6,3.41,9.61,8.88,9.75,5.7.15,9.31-3.46,9.54-9.65.16-4.45.23-8.91.34-13.37l.33.16c5.83,4.65,8.47,10.58,6.65,18S404.44,98,397,99.28a5.24,5.24,0,0,0-1.33.64l-2.07.07-.82-.67a.77.77,0,0,0-1.19-.3c-7.12-1.16-11.65-5.44-13.46-12.2C376.24,79.85,378.24,73.77,383.93,69.09Z" fill="#262526"/><path d="M404.15,68.21c-.11,4.46-.18,8.92-.34,13.37-.23,6.19-3.84,9.8-9.54,9.65-5.47-.14-8.76-3.72-8.88-9.75-.08-4.13-.1-8.27-.15-12.4a3.59,3.59,0,0,0-.8-3.87L385.68,64C392.1,64.26,398.61,64.1,404.15,68.21Zm-9.37,16.88a2.61,2.61,0,0,0,2.49-3,2.42,2.42,0,0,0-2.65-2.32c-1.76,0-2.84,1-2.78,2.7S393.08,85,394.78,85.09Z" fill="#cdcdcd"/><path d="M354.62,44a2.76,2.76,0,0,1-3.24,2.39A2.81,2.81,0,1,1,354.62,44Z" fill="#4e4e4f"/><path d="M441.55,60.11c-.24,1.88-1.24,3-3.22,3a2.58,2.58,0,0,1-2.72-2.87,2.78,2.78,0,0,1,3.13-3C440.46,57.24,441.35,58.39,441.55,60.11Z" fill="#666566"/><path d="M287.85,583.18c-1.45-1.93-1.68-4.45-3.55-6.31-3.26-3.24-6.09-3.32-9,.24-4.24,5.11-4.63,11.37-5.46,17.54-1.87,13.87-1.42,27.85-.79,41.71.79,17.26,1.66,34.58,4.58,51.7,1,5.67,1.41,11.44,2.05,17.17a1.91,1.91,0,0,1-1.26,1.94c-2.89-1.29-4.54-3.88-6.46-6.18-.4-2.67-.81-5.35-1.21-8-.66-4.24-1.08-8.53-2-12.7-2.35-10.43-3.25-21.23-7.88-31.08-2.74-11.76-7.4-22.94-10.46-34.63-2.29-8.76-1.1-17.5-1.44-26.24,2.47-5.08,2.35-10.81,4.11-16.06.57-1.71,1.23-3.38,1.85-5.07a41,41,0,0,1,11.68-11c-1.19-1.1-2.12-1.12-2.79-.73-5.13,3-11.09,3.26-16.53,5.19-2.52.89-5.74.28-7.43,3.16-11.65-.63-23.33-.8-34.89-2.61,3.9-7,6.36-14.58,8.39-22.3.91-2.11,1.88-4.21,1.51-6.61l.9-2.21a13.39,13.39,0,0,0,6.36,2.29c12.56,1.9,25.08,4.1,37.67,5.8,10,1.34,20.31,3.5,28.1-5.91,5.38,7,6.07,15.27,5.59,23.65C288.91,565,287.61,574,287.85,583.18Z" fill="#d6ad8e"/><path d="M96.09,702.84c.1,2.17-.79,3.29-2.49,3.45a2.68,2.68,0,0,1-3.15-2.93,2.74,2.74,0,0,1,2.82-2.85A2.5,2.5,0,0,1,96.09,702.84Z" fill="#666566"/><path d="M248.41,703.31c-.13,1.77-1,2.91-2.71,3a2.57,2.57,0,0,1-2.95-2.59c-.14-2,.75-3.21,2.8-3.18C247.32,700.54,248.05,701.82,248.41,703.31Z" fill="#666566"/><path d="M168.6,282.7l1.94.86,11.31,3.55c.21,1.26,1.12,1.89,2.09,2.61,5,3.74,6.18,7.84,3.52,13.4s-5.24,11.54-8.84,16.61c-4.2,5.91-5.42,12.47-5.59,19.17a286.78,286.78,0,0,1-5.27,48.17c-3.69,18.66-5.47,38.15-18.79,53.49-1.26,2.76-3.33.88-5.07.87L136,439.32l-1-.92v0c.36-2.8-2.14-4.37-2.89-6.69-.41-1.25-2-2.82.83-3.23a5.9,5.9,0,0,0,4,2c5.39,1.76,10.21-1.36,11.82-8.32,2.78-12,6.27-23.92,8.15-36.16,2.34-15.13,4.72-30.25,6.93-45.4,1.13-7.76,4.25-15.91-3.23-22.5-.86-.76-1.49-1.79-2.35-2.56-2.07-1.82-3.25-4-1.81-6.58s3.92-4.14,7.12-2.88a10.15,10.15,0,0,0,8.21-.55c3.89-1.77,4.33-8.35.82-10.7a10.27,10.27,0,0,0-5.15-2.69c-3.52-.71-7-1.59-10.53-2.41C158.86,281.64,159,281.54,168.6,282.7Z" fill="#dcbba1"/><path d="M143.9,441.43c1.74,0,3.81,1.89,5.07-.87l4-1.16c4.21.28,8.27.14,11.62-3,1.16-1.09,3-1.67,3.92-.11s-.47,2.64-2.06,3.17c-2.35.78-4.34,2.31-6.63,3.31a7.72,7.72,0,0,0-4.91,8.34c.37,4.3,3.59,4.64,6.54,5.58,2.57.83,4.85-.4,7.2-1,3.7-1,5.74.42,6.17,4.13.19,1.65,0,3.33.15,5,.27,2.89-1.12,3.54-3.81,3.73-4.36.31-8.34-1.66-12.84-1.86.39,3.92,4.52,4.51,5.63,7.4-7.9-.24-15.8-.54-23.7-.71a95.74,95.74,0,0,0-17.25.94c.25-7.49-2.89-14.45-3.46-21.79-.55-7.15-2.7-14.06-3.74-22.27,4.16,2.8,7.37,5,10.61,7.16,4.07,2.71,8.81,3.68,13.4,5C141.07,442.65,142.77,442.88,143.9,441.43Z" fill="#d6ad8e"/><path d="M132.91,428.46c-2.87.41-1.24,2-.83,3.23.75,2.32,3.25,3.89,2.89,6.69-5.66-1.55-9.81-5.58-13.75-9.41-10-9.7-19.42-20-29.18-29.92-3.78-3.85-.19-3.47,2.91-3.83-9.42-4.5-16.84-10.06-20.89-19.15a37.31,37.31,0,0,1-1.6-26.14c.5-1.76,1-4,3.48-4.44a48.1,48.1,0,0,0,6.14,26c5.65,10.17,22.48,18.35,33.53,13.79,3.33-1.37,5.27-3.72,7.36-6.24,1.09-1.31,1.39-3.58,3.82-3.4,0,1.62.09,3.25.13,4.87-1.65,5.34-5.34,9.29-9.22,13-1.56,1.49-2.22,3.09-1.53,4.8,2.55,6.33,5,12.75,10.75,17.12C126.69,420.79,129.5,424.77,132.91,428.46Z" fill="#d6ad8e"/><path d="M135,438.4l1,.92Z" fill="#d6ad8e"/><path d="M211.71,530.06l-.9,2.21c-16.86-1.55-33.56-4.29-50.18-7.37-8.25-1.53-14.61-10-15.43-18.84-.46-5-.49-10-1-14.91-.36-3.2.72-4.13,3.79-3.8,11.4,1.22,22.61,3.56,33.88,5.53a28.25,28.25,0,0,0,2.91.2c8.66,1.75,17.33,3.54,26,5.24,3.62.7,3.22,3.38,3.15,6Q212.8,517.18,211.71,530.06Z" fill="#060a06"/><path d="M163.91,474c-1.11-2.89-5.24-3.48-5.63-7.4,4.5.2,8.48,2.17,12.84,1.86,2.69-.19,4.08-.84,3.81-3.73-.14-1.65,0-3.33-.15-5-.43-3.71-2.47-5.14-6.17-4.13-2.35.64-4.63,1.87-7.2,1-2.95-.94-6.17-1.28-6.54-5.58a7.72,7.72,0,0,1,4.91-8.34c2.29-1,4.28-2.53,6.63-3.31,1.59-.53,3.06-1.5,2.06-3.17s-2.76-1-3.92.11c-3.35,3.17-7.41,3.31-11.62,3,2.6-3,5.13-6.12,6.45-9.95,2.32-6.71,4.82-13.35,6.7-20.23,1.25-4.55.86-9.57,3.73-13.67,1.64,2.55,1.55,5.6,1.27,8.24-1.07,9.82,2.66,19.21,1.95,29-.48,6.66,2.42,13.23,3.77,19.81A94.35,94.35,0,0,1,179,473.31C174,474.71,169,474.46,163.91,474Z" fill="#dcbba1"/><path d="M235.8,563.79c1.69-2.88,4.91-2.27,7.43-3.16,5.44-1.93,11.4-2.22,16.53-5.19.67-.39,1.6-.37,2.79.73a41,41,0,0,0-11.68,11c.07-2.12-1.38-2.14-2.93-2.26C243.89,564.62,239.84,564.18,235.8,563.79Z" fill="#c69777"/><path d="M192.71,49.31l.12-2.5.12-2.76h0c1-.76,1.09-1.87,1-3l0,0,1-.9c2.2-.72,2.13-4.18,5-4.13,0,4.14,0,8.28.12,12.42.21,6,4.14,10,9.61,9.83,5.26-.13,8.88-4,9.07-9.84.15-4.46.15-8.93.21-13.4l2.9,2a1,1,0,0,0,1,1.1l-.11-.11c4.45,7.16,5.64,14.46.25,21.62C218.82,65.12,213,67.19,206.3,66c-7-1.21-11.39-5.52-13.46-12.26C192.8,52.28,192.76,50.8,192.71,49.31Z" fill="#262526"/><path d="M209.49,46.63c1.71.34,2.75,1.27,2.49,3.09A2.43,2.43,0,0,1,209.2,52c-1.83-.13-2.63-1.31-2.46-3.07C206.9,47.32,208,46.7,209.49,46.63Z" fill="#262526"/><path d="M211.71,530.06q1.08-12.88,2.18-25.78c18.23,4.65,37,7.24,54.7,13.9,6.78,2.55,12.31,7.05,15.25,14.06-7.79,9.41-18.13,7.25-28.1,5.91-12.59-1.7-25.11-3.9-37.67-5.8A13.39,13.39,0,0,1,211.71,530.06Z" fill="#dcbba1"/><path d="M169.81,395.55c-2.87,4.1-2.48,9.12-3.73,13.67-1.88,6.88-4.38,13.52-6.7,20.23-1.32,3.83-3.85,6.93-6.45,9.95l-4,1.16c13.32-15.34,15.1-34.83,18.79-53.49A286.78,286.78,0,0,0,173,338.9c.17-6.7,1.39-13.26,5.59-19.17,3.6-5.07,6.13-11,8.84-16.61s1.48-9.66-3.52-13.4c-1-.72-1.88-1.35-2.09-2.61,10.06,1.21,9.88,7.55,8.53,14.93a78.15,78.15,0,0,1-6.6,19.21c-5.05,10.67-5.57,22.37-7.54,33.71C173.9,368.45,170.69,381.82,169.81,395.55Z" fill="#e1c4af"/><path d="M214.51,254.9c.66,0,1.43.31,2,.06A9.35,9.35,0,0,1,227,256c1.92,1.47,5.76-.89,6.41,2.12.47,2.23-2.44,4.06-3.79,6.1-2.56,3.86-5.37,7.54-7.89,11.42-1.61,2.46-2.68,2-3.73-.28-2.8-6-5.67-11.92-8.33-18C208.52,254.88,208.89,254.7,214.51,254.9Z" fill="#f8c485"/><path d="M237.68,110.48c-.3,2.42-.66,4.55-.81,6.69-.13,1.88-1,2.64-2.85,2.51s-3.09-1-2.85-3.14.64-4.26.73-6.4.41-4.06,3.25-3.83C238.16,106.55,237.66,108.81,237.68,110.48Z" fill="#f8c485"/><path d="M227,161.85c1.18-2-1.86-6.81,4-6.11,1.81.21,2.67.84,2.3,2.84s-.34,3.92-.62,5.86c-.24,1.7.87,4.33-2.62,4-2.85-.26-3.5-1.92-3.12-4.41A15.68,15.68,0,0,0,227,161.85Z" fill="#f8c485"/><path d="M225.07,186.79c0-1.16,0-2.32,0-3.48,0-2.21.91-3.39,3.28-3.31s2.65,1.44,2.51,3.33-.13,4-.27,5.95.4,4.05-3,3.84-3-2.17-2.72-4.35a18.67,18.67,0,0,0,0-2Z" fill="#f8c485"/><path d="M222.76,210.68c1.26-1.89-2-6.33,3.59-6.09,1.73.07,2.46.63,2.42,2.26-.07,2.63-.18,5.26-.28,7.89-.08,2-1.17,2.88-3.18,2.88-2.36,0-2.62-1.46-2.56-3.29C222.8,213.18,222.76,212,222.76,210.68Z" fill="#f8c485"/><path d="M235.51,135c-2.41,2.09,2.28,7.55-3.45,8.83-2.87.64-3.47-1.5-2.92-3.66.78-3.12-1.66-7.66,3.31-9C234.55,130.58,235.81,132.1,235.51,135Z" fill="#f8c485"/><path d="M226.59,232.91c-.26,2.3-.53,4.44-.74,6.59-.24,2.37-1.92,2.36-3.66,2.25s-1.92-1.18-1.67-2.77a55.57,55.57,0,0,0,.34-6.46c.06-1.92.06-3.73,2.86-3.57S226.88,230.83,226.59,232.91Z" fill="#f8c485"/><path d="M192.71,49.31c0,1.49.09,3,.13,4.46l-1.68.1C191.28,52.22,189.83,50,192.71,49.31Z" fill="#c69777"/><path d="M408,348.38l-27.4.14c1.1-4,.44-8.18.48-12.27.13-12.22,1.48-14.38,12.41-18.94,0,3.5,0,7,.05,10.51-3.08-.35-3.14,1.79-2.84,3.79a3.6,3.6,0,0,0,3.85,3.12,3.64,3.64,0,0,0,3.9-3.1c.36-2,.16-4.06-2.77-4,0-3.37,0-6.75,0-10.12,9.92,3.32,12.06,6.37,12.09,17C407.83,339.15,408,343.76,408,348.38Z" fill="#666566"/><path d="M393.57,327.82c0-3.5,0-7-.05-10.51q-.06-51.35-.12-102.68,0-55.09,0-110.17c0-1.49.12-3,.18-4.47l2.07-.07q.06,46.41.11,92.82,0,62.38,0,124.77c0,3.37,0,6.75,0,10.12-.16.58-.11,1.32-1,1.38S393.75,328.43,393.57,327.82Z" fill="#4e4e4f"/><path d="M391.57,99a.77.77,0,0,1,1.19.3Z" fill="#666566"/><path d="M398.76,502l-10.13,0q0-45.27.05-90.55h10Z" fill="#dcdcdb"/><path d="M389.69,660c0-1.37,0-2.75-.07-4.12a26.41,26.41,0,0,1,9.13-.06l-.07,4.24Z" fill="#f2f3ef"/><path d="M389.6,569.76l-.9-4.56,10,0,.07,4.57Z" fill="#dcdcdb"/><path d="M388.69,393.4l0-4.53,10.06,0,0,4.48Z" fill="#f2f3ef"/><path d="M388.65,637.56c0-1.48,0-3,.05-4.44l10,0c0,1.44,0,2.89.05,4.33Z" fill="#f2f3ef"/><path d="M389.65,615c0-1.54,0-3.07,0-4.61a24.54,24.54,0,0,1,8.2.07l-.06,4.51A26.76,26.76,0,0,1,389.65,615Z" fill="#cdcdcd"/><path d="M388.64,370.86l.06-4.38,10,0c0,1.43.05,2.86.07,4.29Z" fill="#f2f3ef"/><path d="M388.58,524.66l.18-4.58,9.89.07.17,4.43A39.44,39.44,0,0,1,388.58,524.66Z" fill="#dcdcdb"/><path d="M388.72,592.31l-.09-4.37a35.38,35.38,0,0,1,10.12,0c0,1.43-.05,2.85-.08,4.27Z" fill="#f2f3ef"/><path d="M222.82,38.13a1,1,0,0,1-1-1.1C222.33,37.2,223.41,36.87,222.82,38.13Z" fill="#fffffe"/><path d="M156.93,289.66c3.51.82,7,1.7,10.53,2.41a10.27,10.27,0,0,1,5.15,2.69c1.67,6.93-1,9.95-7.91,8.75-4.9-.86-9.75-1.93-14.63-2.91l-6.3-1.67c5.23-1.67,5.3-5.93,5.18-10.29Z" fill="#4e4e4f"/><path d="M150.07,300.6c4.88,1,9.73,2,14.63,2.91,6.91,1.2,9.58-1.82,7.91-8.75,3.51,2.35,3.07,8.93-.82,10.7a10.15,10.15,0,0,1-8.21.55c-3.2-1.26-5.6.21-7.12,2.88s-.26,4.76,1.81,6.58c.86.77,1.49,1.8,2.35,2.56,7.48,6.59,4.36,14.74,3.23,22.5-2.21,15.15-4.59,30.27-6.93,45.4-1.88,12.24-5.37,24.12-8.15,36.16-1.61,7-6.43,10.08-11.82,8.32-.29-.74-.35-1.76-.88-2.19-5.27-4.23-7-10-7.14-16.39,0-1.31-.46-2.21-1.91-2.3a212.4,212.4,0,0,1,6-22.91c3.74-3.05,4-6,.26-9.45-2-1.81-4.73-3.39-4.32-6.8.09-.78.15-1.8.65-2.24.73-.65,1.45.2,2.12.67,8.22,5.72,8.21,5.71,12.73-3.26,2.74-5.46,5.28-11,6.5-17a55.33,55.33,0,0,0,8-23c.5-4.47-3.63-7.6-5.94-11.14C150.15,310.1,147.79,305.88,150.07,300.6Z" fill="#d6ad8e"/><path d="M133,386.62a212.83,212.83,0,0,0-6,22.9q0,3-.1,5.9c-5.7-4.37-8.2-10.79-10.75-17.12-.69-1.71,0-3.31,1.53-4.8,3.88-3.71,7.57-7.66,9.22-13A20.86,20.86,0,0,1,133,386.62Z" fill="#dcbba1"/><path d="M193.94,41c.08,1.15,0,2.26-1,3C193.05,43,192.83,41.79,193.94,41Z" fill="#c69777"/><path d="M193,44.05l-.12,2.76C191.5,45.83,191.82,44.92,193,44.05Z" fill="#c69777"/><path d="M194.9,40.18l-1,.9Z" fill="#c69777"/><path d="M394.78,85.09c-1.7-.07-2.88-.93-2.94-2.62s1-2.67,2.78-2.7a2.42,2.42,0,0,1,2.65,2.32A2.61,2.61,0,0,1,394.78,85.09Z" fill="#262526"/><path d="M126.92,415.42q.06-2.94.1-5.9c1.45.1,1.88,1,1.91,2.31.18,6.42,1.87,12.16,7.14,16.39.53.43.59,1.45.88,2.19a5.9,5.9,0,0,1-4-2C129.5,424.77,126.69,420.79,126.92,415.42Z" fill="#c69777"/><path d="M388.61,547l.19-4.58,9.88.07.18,4.43A39.52,39.52,0,0,1,388.61,547Z" fill="#dcdcdb"/></g></g></svg>