<svg xmlns="http://www.w3.org/2000/svg" viewBox="0 0 306.44 635.28"><title>ex_d2_3_3</title><g id="Layer_2" data-name="Layer 2"><g id="Layer_1-2" data-name="Layer 1"><path d="M122.52,194.9c-4.23,2.53-8.43,2.86-12.34,3.89-3.49.91-4.56,2.52-3.93,6,4.84,26.85,16.51,49.92,37.6,67.7a113.6,113.6,0,0,0,30.39,18.44c-12.49.85-24.41-1.52-36-5.58-33.34-11.7-54.44-35.58-66.73-68C68.28,208.75,70,209.5,61,211.83c-2,.51-4.54,2.27-6,.81s.85-3.62,1.57-5.35c6.07-14.55,12.36-29,18.51-43.52,1.14-2.67,2.24-3.74,5-1.55C94,173,107.94,183.69,122.52,194.9Z" fill="#f9bf7a"/><path d="M167.27,109l4.93-.2c.77,1.1,2,1,3.1,1.11,11.19,1.23,22.14,3.17,31,11-.91,4.56-2.39,8.83-6.05,12-.81.1-1.82-.06-2.42.35-10.23,7-21.91,7.27-33.48,6.43-7.35-.53-15.25-.41-21.41-6.21-1.65-1.56-4.26-1.63-7-.56A56.7,56.7,0,0,1,117.17,137c-8.77.28-17-1.85-25.42-3.81-13-3-25.87-7-39.4-7.25,1-6.24-2.29-9.62-7.73-11.73-1.62-.63-3-1.93-4.47-2.92,1-.1,2.07-.51,2.94-.24,10.74,3.33,21.4-.09,32.07-.41,10.09-.3,20.13-1.79,30.2-2.61,6.45-.53,12.91-.82,19.37-1.18,5.85-.34,11.74-.21,17.17,2.1a26.63,26.63,0,0,0,18.25.93l1-.46,3.13-.27A1.74,1.74,0,0,0,167.27,109Z" fill="#ddbba1"/><path d="M245.14,582.19c.5-17.29.57-34.58-.17-51.84-.86-19.86-2.47-39.69-3.72-59.54-.12-1.82,0-3.65,0-5.47,3.37-3.25,3.22-8.08,5.36-11.91,1.71-3.07,3.14-3.92,6-1.23,4.17,3.93,6.61,8.77,9.18,13.81,5.11,10,8.62,20.58,9.2,31.6,1,19.67.89,39.42,1.2,59.13.05,3.54-.21,7.1,1.48,10.46.9-.86.23-2.41,1.49-3,.53,6.72-1.08,13.33-1,20-1.81,3-.94,7.56-5.83,8.84C259,595.49,249.73,591.32,245.14,582.19Z" fill="#ddbba1"/><path d="M275.15,564.2c-1.26.59-.59,2.14-1.49,3-1.69-3.36-1.43-6.92-1.48-10.46-.31-19.71-.16-39.46-1.2-59.13-.58-11-4.09-21.57-9.2-31.6-2.57-5-5-9.88-9.18-13.81-2.85-2.69-4.28-1.84-6,1.23-2.14,3.83-2,8.66-5.36,11.91-1.3-3.23-2.21-6.67-4-9.63-6.12-10.32-7.77-21.61-7.88-33.31,1.69,1.5,3.39.65,5.13.06,6.59-2.26,13.23-4.41,19.53-7.44,3.19-1.54,7.1-1.86,9.2-5.3L271,407.4c-1.11,15,1,29,8,42.79,10.86,21.33,9.8,43.87,3.79,66.5C278.66,532.25,276.47,548.17,275.15,564.2Z" fill="#d6ad8f"/><path d="M208.36,21c-3.24-5.08-4.69-10.35-.88-15.73,1.45-2,3-4.35,6.44-2.2,1.9,1.18,4.52-.07,6.8-.37,7.55-1,15-2.78,22.69-2.65,20.37.34,33,14.33,31.15,34.65-.86,9.75-4.28,18.66-8.7,27.26-7.46.85-7.43.85-7.49-6.31,0-2.24.48-4.62-1.15-6.61,0-.66.09-1.32.08-2,0-4.72-2.35-7.71-6.26-8.1-4.16-.42-7,2-7.88,6.93-.27,1.46-.67,2.91-.86,4.38s-.68,2.15-2.11,2.25c-2.47.17-4.28.32-4.29-3.4,0-3.93,3.23-8.77-.7-11.72-5.48-4.1-5.49-8.88-4.39-14.69,1.56-8.22.74-8.65-7.77-7.28C217.69,16.25,213.45,19.63,208.36,21Z" fill="#312823"/><path d="M297.91,168.69c-1.25,11.32-1.38,22.8-4.7,33.83-1.43,4.75-2.7,9.57-4.49,14.19-6.48,16.79-10.84,34-10.7,52.12-1.23,6.61-2,13.3-3.85,19.81-3.84,13.84-7.88,27.63-10,41.88-2.05.32-3.9-.6-5.85-.93-1.73-.28-2.13-1.09-1.75-2.77,1.6-6.9,3.06-13.84,4.64-20.74,3.37-14.65,7-29.22,7.07-44.41,0-4.74,1.07-9.48,1.78-14.2,1.87-12.47,6.75-24.05,10.63-35.93,4.33-13.26,7.15-26.82,6.53-40.93-.16-3.64-.85-4-3.86-2-3.71,2.42-7.64,4.62-12.19,5.2,0-1.46.88-2.4,1.84-3.32a36.05,36.05,0,0,0,9.14-15.67,36.29,36.29,0,0,0,4-19.05c-.83-13.69-10.82-23.66-24-24,2.75-2.68,6.17-2.23,9.36-1.59,18.37,3.66,28.71,19.84,24.95,38.37C295.07,155.35,295,162.18,297.91,168.69Z" fill="#d6ad8f"/><path d="M208.36,21c5.09-1.33,9.33-4.71,14.68-5.57,8.51-1.37,9.33-.94,7.77,7.28-1.1,5.81-1.09,10.59,4.39,14.69,3.93,3,.68,7.79.7,11.72,0,3.72,1.82,3.57,4.29,3.4,1.43-.1,1.94-.92,2.11-2.25s.59-2.92.86-4.38c.92-4.88,3.72-7.35,7.88-6.93,3.91.39,6.22,3.38,6.26,8.1,0,.66-.05,1.32-.08,2-3.17,5-6.17,10.2-12.94,11.23-1.55.23-1.84,2.15-2,3.68-1.16,4.71-1.58,9.63-4,14L218,84c-1.49,0-3,0-4.48,0-4.28-.25-6.79-1.77-7.41-6.77-2.21-17.89-2.11-35.61,2-53.22A19.41,19.41,0,0,0,208.36,21Z" fill="#e0c3af"/><path d="M194.43,160.9c-1.55-2.3,3.2-5.64-1.23-7.47a7,7,0,0,0,5-4.31,98.08,98.08,0,0,1,10-17.14c6.33-9,11.58-19.15,23-23.07,6.86-.13,13.24-1.42,16.73-8.21,3.32-6.43,7-12.56,12.35-17.53,2.62-.74,5.21-2.32,7.95-.32-.46,5.49,4.76,8.34,6.11,13.1.8,2.78.57,4.54-1.83,5.72-2.73,1.34-5.26,2.87-8.46,3.58s-7.7,1.11-8.86,5.7c-7.55,3.81-13.09,9.33-15.14,17.81-4,2.29-3.45,6.46-3.81,10.05-.89,8.85-10.95,19.82-19.52,22.23C209.13,163.19,201.86,165,194.43,160.9Z" fill="#e0c3af"/><path d="M245.14,582.19c4.59,9.13,13.84,13.3,23.2,10.87,4.89-1.28,4-5.82,5.83-8.84,3.85,1.6,5.3,4.45,5.07,8.6-.13,2.42.58,4.89.91,7.34l.09,7.22c-6,5.63-13.45,5-20.71,4.54a26.6,26.6,0,0,0-12.17,1.76A46.34,46.34,0,0,1,228,617.61c-13-.35-26.23-.49-34.73-13l2-3.41,6-1.09c3.55-.28,7.59,1.12,10.07-2.88,10.45-.65,19.09-5.55,27.06-11.82C240.44,583.78,242.11,581.68,245.14,582.19Z" fill="#d8d6e9"/><path d="M195.27,601.21l-2,3.41a2.23,2.23,0,0,0-1.74,2.15c-.53,4.23.91,7.45,4.81,9.47,14.64,7.6,30.25,9,46,5.68a79.15,79.15,0,0,1,23.18-1.6,34.24,34.24,0,0,0,6.94-.07c8.57-1,10.56-4.41,7.78-12.87l-.09-7.22c6.32.63,11.71,3.67,16.61,7.29,5.75,4.23,5,12.62-1.05,16.25-10.71,6.39-22.7,8.58-34.8,10.39-10.08,1.51-20.22,1.31-30.31.89-16.23-.67-32.25-2.62-46.88-10.8-7.77-4.35-8.95-11.69-1.84-16.95C185.81,604.32,190.09,601.62,195.27,601.21Z" fill="#eaebe5"/><path d="M52.35,125.91c13.53.24,26.38,4.21,39.4,7.25,8.38,2,16.65,4.09,25.42,3.81A56.7,56.7,0,0,0,136,132.89c2.73-1.07,5.34-1,7,.56,6.16,5.8,14.06,5.68,21.41,6.21,11.57.84,23.25.56,33.48-6.43.6-.41,1.61-.25,2.42-.35-4.61,8.57-9,16.74-20.89,17.34-5.59.29-11.53-.76-17,1.53-7-.56-13.56-2.9-20.22-4.89-2-.61-4.06-1.62-6.28-1.16-14.82,3.08-28.95-.66-43.09-4.31C79.43,138,66,135.25,52.18,134.56,52.23,131.68,52.29,128.79,52.35,125.91Z" fill="#d6ad8f"/><path d="M225.08,412.59l-6.87-.56c.59-6.59-.69-13.07-1.19-19.59,0-1-.09-1.94-.13-2.91.18-4.09-1-8.42,2.07-12,.12-1.47.32-2.95.33-4.42.08-9,.06-9,8.94-9.42l.44.11.44-.13,0-.06c.3,5,3.68,6.58,8,6.86,3.76.25,7.53.25,11.3.35q1.84,20.13,3.7,40.26Z" fill="#31afb6"/><path d="M201,258.73c-1.47-3.26-.82-6.67-.69-10,.93-.59,1-1.25.16-2,.06-1,.13-2,.19-2.93,4.13,0,8.29.25,12.37-.19,3.68-.39,7.42-1.82,8-6.11.55-4.12-2-6.41-5.79-8-4.51-1.9-9.73-1.66-13.77-4.79l-.57-2.94c4.57,1.8,9.16,3.62,14.12,3.94,2.43.16,5.36.66,6.79-1.85,1.31-2.31.31-4.86-1-7a12.64,12.64,0,0,0-2.67-3.5,43.71,43.71,0,0,0-18.65-8.59c-.37-2-.75-4-1.12-5.95,6.26,2.34,12.7,4.26,17.74,9.09,1.76,1.69,3.75.81,4-1.49.51-4.58,1.1-9.43-3.13-12.85-2.43-2-4.87-3.94-7.4-5.8-3.77-2.78-8.73-2-12.27-4.93,0-.65.05-1.31.07-2a10,10,0,0,1,5.77,1.1,67.54,67.54,0,0,1,25.37,19c2.77,3.36,4.91,8.19,10.65,7.69,1.64,8.23,1,16.8,3.79,24.9.75,2.18,1.11,4.9-.58,7.16-3.06-.33-5.5,1-8.24,2.25-4.51,2-6,7.36-10.79,8.7a2,2,0,0,0-1.06,2l0,0a9,9,0,0,0-5.67,1.32C211.77,257.85,206.48,258.69,201,258.73Z" fill="#d6ad8f"/><path d="M200.37,327.37c-.35-17.56-2-35.12,0-52.69,7.66.32,15-1.75,22.33-3.29,2.23-.47,4.73-2.64,6.72.53-6.8,19.67-10,40.05-12.16,60.65l-3.13-1c-.26-3-2.55-2.07-4.35-2.41C206.65,328.56,202.93,331,200.37,327.37Z" fill="#1c1c1c"/><path d="M264.18,330.52c2.11-14.25,6.15-28,10-41.88,1.81-6.51,2.62-13.2,3.85-19.81,11.27,17,15,35.57,11.09,55.64l-.6,2.09-.42,2c-11.51,1-13.31,3.11-13.37,15.11,0,2.3-.23,4.61-.35,6.91l-7.12-1C267.36,343,265.74,336.77,264.18,330.52Z" fill="#1c1c1c"/><path d="M252.06,411.08q-1.86-20.13-3.7-40.26c2.94-.09,5.89-.22,8.84-.27,3.62-.06,6.39-1.28,7.37-5.12l1.59-1.93,8.25,0a74.61,74.61,0,0,1,.26,9.32c-.45,4.85,1.65,8.11,5.48,10.62a1.21,1.21,0,0,0,1.16,1.11c-.12,3.44-.73,6.94-.24,10.28.95,6.52-2.34,9.65-7.89,11.49A15.53,15.53,0,0,0,271,407.4l-7.76,2.32Z" fill="#1c1c1c"/><path d="M242.32,240.73c1.69-2.26,1.33-5,.58-7.16-2.81-8.1-2.15-16.67-3.79-24.9q.09-12.93.17-25.86c3.5-5.33,1.49-11.56,2.74-17.28.37-1.69-1.68-1.68-3-1.69-2.39,0-2.8-.65-1.6-3,1.74-3.36,3.4-7,2.72-10.93a65.45,65.45,0,0,1-.08-21.18c2.05-8.48,7.59-14,15.14-17.81,8.26-2.65,16.62-3.86,25.14-1.44,3.08.87,4.37-.55,4.76-3.26a34.67,34.67,0,0,0,.11-4.45c6.45,6.41,10,14.56,13,22.85,5.34,14.65,5.55,29.4-.32,44-3-6.51-2.84-13.34-1.47-20.09,3.76-18.53-6.58-34.71-24.95-38.37-3.19-.64-6.61-1.09-9.36,1.59l-1.94.19a6,6,0,0,0-6,2.87h0c-8,2.11-13,19-11.78,26.76,1,6.49,4,12.52,3.84,19.2-.09,2.31,0,4.64-.31,6.92-2,16.27-5.67,32.45-2.62,49-.06,1.11-.24,2.26.86,3a5.87,5.87,0,0,0,0,.94c-.5,5.93,2.38,11.26,3,17-2.52,6.23-3.26,13.06-6.32,19.11l-3.7.62C239.12,251.94,241.34,246.52,242.32,240.73Z" fill="#c69778"/><path d="M52.35,125.91c-.06,2.88-.12,5.77-.17,8.65-.08.33-.28.68-.21,1,2.31,10-2.51,15.51-11.29,19.17-5,2.08-9.58,7.25-14.37,7.28S17,156.78,12,154.83C2.38,151.13.34,144.71,0,134.71-.35,122.54,3,115.57,14.19,110.22c8.26-3.94,15-7.73,22.83-.44a11.59,11.59,0,0,0,3.13,1.48c1.49,1,2.85,2.29,4.47,2.92C50.06,116.29,53.31,119.67,52.35,125.91ZM5.4,132.74c-1.22,13.92,11.83,22.07,21.11,22.08,11.13,0,20.86-9.75,20.93-20.88.07-12.27-9-21.93-20.81-22A20.9,20.9,0,0,0,5.4,132.74Z" fill="#343434"/><path d="M301.1,329.6c4.2,3.64,5.4,8.15,5.17,13.71-.4,9.61-.26,19.27.15,28.89.24,5.46-2.08,9-6.23,11.95,0-2.63-.2-5.28,0-7.89.33-3.57-.79-5.09-4.63-4.86-5.08.3-10.2.07-15.3.07-.1-8.77-.15-17.54-.33-26.31-.05-2.2.79-2.88,2.9-2.82,4.3.11,8.65-.28,12.91.13s5.07-1.34,4.84-5C300.46,334.85,300,332.15,301.1,329.6Z" fill="#343434"/><path d="M240.07,128.76a65.45,65.45,0,0,0,.08,21.18c.68,3.91-1,7.57-2.72,10.93-1.2,2.32-.79,2.94,1.6,3,1.31,0,3.36,0,3,1.69-1.25,5.72.76,11.95-2.74,17.28-1.62-.71-2.3-2.29-3.42-3.48-3.93-4.2-8.32-8.07-14.66-6.27-7.51,2.12-15.1,1.8-22.72,1.66-1.92-4.44-4.12-8.8-4-13.82,7.43,4.1,14.7,2.29,22.31.14,8.57-2.41,18.63-13.38,19.52-22.23C236.62,135.22,236,131.05,240.07,128.76Z" fill="#d6ad8f"/><path d="M260.3,83.17c-5.36,5-9,11.1-12.35,17.53-3.49,6.79-9.87,8.08-16.73,8.21a2.27,2.27,0,0,0-1.19-2.17,1.59,1.59,0,0,1,.34-.86c1.51-.15,1.62-1.25,1.93-2.44,2.19-8.48,4.61-16.89,6-25.55,2.41-4.35,2.83-9.27,4-14,4.67.36,8.67-1.17,12.38-4.89.9,5.18,1.73,9.81,2.52,14.46C257.78,76.86,257.66,80.45,260.3,83.17Z" fill="#d6ad8f"/><path d="M198.48,174.72c7.62.14,15.21.46,22.72-1.66,6.34-1.8,10.73,2.07,14.66,6.27,1.12,1.19,1.8,2.77,3.42,3.48q-.09,12.93-.17,25.86c-5.74.5-7.88-4.33-10.65-7.69a67.54,67.54,0,0,0-25.37-19,10,10,0,0,0-5.77-1.1C197.71,178.79,198.09,176.76,198.48,174.72Z" fill="#e0c3af"/><path d="M301.1,329.6c-1.12,2.55-.64,5.25-.48,7.84.23,3.69-.66,5.43-4.84,5s-8.61,0-12.91-.13c-2.11-.06-2.95.62-2.9,2.82.18,8.77.23,17.54.33,26.31l-.15,11.94c-3.83-2.51-5.93-5.77-5.48-10.62a74.61,74.61,0,0,0-.26-9.32,59.28,59.28,0,0,0,0-12.91c.12-2.3.34-4.61.35-6.91.06-12,1.86-14.06,13.37-15.11C292.4,329.24,296.92,327.31,301.1,329.6Z" fill="#e5e4e4"/><path d="M200.37,327.37c2.56,3.6,6.28,1.19,9.42,1.78,1.8.34,4.09-.58,4.35,2.41a57.36,57.36,0,0,0-.23,6.92c.24,3.19-.72,4.42-4.13,4.17-4.46-.33-9,0-13.44-.13-2.33-.07-3.22.63-3.17,3.07.2,8.62.22,17.24.3,25.87L193,382.52c-4.54-1.54-5.61-5.28-5.65-9.41q-.17-16.59,0-33.2c.07-6.37,4.2-10.68,10.47-11.31A3.11,3.11,0,0,0,200.37,327.37Z" fill="#e5e4e4"/><path d="M230,106.74a2.27,2.27,0,0,1,1.19,2.17c-11.46,3.92-16.71,14-23,23.07a98.08,98.08,0,0,0-10,17.14,7,7,0,0,1-5,4.31,106.11,106.11,0,0,1-30.85-1.68c5.49-2.29,11.43-1.24,17-1.53,11.92-.6,16.28-8.77,20.89-17.34,3.66-3.17,5.14-7.44,6.05-12l3.93-12C216.59,105.94,223.28,106.08,230,106.74Z" fill="#c69778"/><path d="M237.19,257.44l3.7-.62c.49,3.72-.83,7.26-1.07,10.9-3.67.89-7.93.34-10.39,4.2-2-3.17-4.49-1-6.72-.53-7.38,1.54-14.67,3.61-22.33,3.29-.26-2.23-.46-4.46-.79-6.68-.24-1.6-.13-2.91,1.75-3.33,5.51.15,10.74-1.24,15.92-2.89Z" fill="#444448"/><path d="M197.25,182.79c3.54,2.94,8.5,2.15,12.27,4.93,2.53,1.86,5,3.84,7.4,5.8,4.23,3.42,3.64,8.27,3.13,12.85-.26,2.3-2.25,3.18-4,1.49-5-4.83-11.48-6.75-17.74-9.09C196.26,193.55,195.45,188.26,197.25,182.79Z" fill="#ddbba1"/><path d="M199.42,204.72a43.71,43.71,0,0,1,18.65,8.59,12.64,12.64,0,0,1,2.67,3.5c1.36,2.17,2.36,4.72,1,7-1.43,2.51-4.36,2-6.79,1.85-5-.32-9.55-2.14-14.12-3.94C198.82,216.21,197.25,210.63,199.42,204.72Z" fill="#ddbba1"/><path d="M260.3,83.17c-2.64-2.72-2.52-6.31-3.1-9.69-.79-4.65-1.62-9.28-2.52-14.46C251,62.74,247,64.27,242.3,63.91c.14-1.53.43-3.45,2-3.68,6.77-1,9.77-6.18,12.94-11.23,1.63,2,1.12,4.37,1.15,6.61.06,7.16,0,7.16,7.49,6.31.44,7.23,3.88,13.83,4.46,21l-2.07-.1C265.51,80.85,262.92,82.43,260.3,83.17Z" fill="#c69778"/><path d="M201.45,224.69c4,3.13,9.26,2.89,13.77,4.79,3.79,1.59,6.34,3.88,5.79,8-.57,4.29-4.31,5.72-8,6.11-4.08.44-8.24.16-12.37.19C199.92,237.38,199.79,231,201.45,224.69Z" fill="#ddbba1"/><path d="M268.25,82.85l2.07.1c5.47,4.85,10.63,10,13.88,16.64.06.9,0,1.85,1,2.32v-.11a34.67,34.67,0,0,1-.11,4.45c-.39,2.71-1.68,4.13-4.76,3.26-8.52-2.42-16.88-1.21-25.14,1.44,1.16-4.59,5.66-5,8.86-5.7s5.73-2.24,8.46-3.58c2.4-1.18,2.63-2.94,1.83-5.72C273,91.19,267.79,88.34,268.25,82.85Z" fill="#ddbba1"/><path d="M238.31,77.89c-1.4,8.66-3.82,17.07-6,25.55-.31,1.19-.42,2.29-1.93,2.44C227.29,98,221.29,91.74,218,84Z" fill="#c69778"/><path d="M193,382.52l.48-11.06c4.15,0,8.31,0,12.46,0,3.89,0,8.83-1.44,8.12,5.5-.05.49.7,1.06,1.08,1.59-.59,4.25-2.49,6.86-7.3,5.86-3.9,0-7.81.06-11.71.13C194.59,384.58,193.13,384.6,193,382.52Z" fill="#545353"/><path d="M280.15,383.41l.15-11.94c5.1,0,10.22.23,15.3-.07,3.84-.23,5,1.29,4.63,4.86-.24,2.61,0,5.26,0,7.89-6.28.83-12.59.23-18.88.37A1.21,1.21,0,0,1,280.15,383.41Z" fill="#545353"/><path d="M207.83,384.43c4.81,1,6.71-1.61,7.3-5.86.5-3.22,2.49-.94,3.83-1-3.12,3.58-1.89,7.91-2.07,12a1.84,1.84,0,0,0,.13,2.91c.5,6.52,1.78,13,1.19,19.59-4.69.39-6.94-1.19-7.26-6.46C210.53,398.48,208.93,391.47,207.83,384.43Z" fill="#1c1c1c"/><path d="M252.06,411.08l11.22-1.36c-2.11,3.44-6,3.76-9.21,5.3-6.3,3-12.94,5.18-19.53,7.44-1.74.59-3.44,1.44-5.13-.06.06-3.93-3.34-6.34-4.33-9.81Z" fill="#b27f59"/><path d="M210.24,108.87l-3.93,12c-8.87-7.8-19.82-9.74-31-11-1.15-.12-2.33,0-3.1-1.11,2.58-1.43,5.36-.63,8.06-.72.65.87,1.32.88,2,.06a27.11,27.11,0,0,1,7.35.56C196.48,109.84,203.35,112,210.24,108.87Z" fill="#d6ad8f"/><path d="M217.26,261.78c-5.18,1.65-10.41,3-15.92,2.89q-.17-3-.35-5.94c5.49,0,10.78-.88,15.6-3.72a9,9,0,0,1,5.67-1.32C221.5,257,217.68,258.31,217.26,261.78Z" fill="#c69778"/><path d="M211.3,597.24c-2.48,4-6.52,2.6-10.07,2.88C204.28,598.09,207.79,597.68,211.3,597.24Z" fill="#eaebe5"/><path d="M167.27,109a1.74,1.74,0,0,1-2.94.11Z" fill="#e0c3af"/><path d="M182.29,108.15c-.71.82-1.38.81-2-.06Z" fill="#e0c3af"/><path d="M288.51,326.56l.6-2.09A1.71,1.71,0,0,1,288.51,326.56Z" fill="#e5e4e4"/><path d="M285.23,101.91c-1-.47-1-1.42-1-2.32A2,2,0,0,1,285.23,101.91Z" fill="#c69778"/><path d="M200.46,246.71c.85.73.77,1.39-.16,2C200.36,248,200.41,247.37,200.46,246.71Z" fill="#ddbba1"/><path d="M161.2,109.39l-1,.46Z" fill="#e0c3af"/><path d="M239.82,267.72c.24-3.64,1.56-7.18,1.07-10.9,3.06-6,3.8-12.88,6.32-19.11,10.54-.74,22.66-13.49,22.26-23.42C266,216.79,263,220,259,221.71c-5.14,2.21-9.91.54-14.75-1a5.87,5.87,0,0,1,0-.94c0-1.1.24-2.25-.86-3-3.05-16.54.58-32.72,2.62-49,.29-2.28.22-4.61.31-6.92,1.26.12,3.28-.51,3.56.9,1,5.15,5.51,6.93,8.75,10,3.82,3.62,8,4.07,12.63,2.09,4.55-.58,8.48-2.78,12.19-5.2,3-2,3.7-1.65,3.86,2,.62,14.11-2.2,27.67-6.53,40.93-3.88,11.88-8.76,23.46-10.63,35.93-.71,4.72-1.75,9.46-1.78,14.2-.09,15.19-3.7,29.76-7.07,44.41-1.58,6.9-3,13.84-4.64,20.74-.38,1.68,0,2.49,1.75,2.77,1.95.33,3.8,1.25,5.85.93,1.56,6.25,3.18,12.49,3.07,19q-.54,7-1.09,14l-1.59,1.93c-.86-2.31-2.87-1.89-4.64-1.89q-15.42,0-30.84.07l0,.06c.12-1.08.3-2.18-.58-3.08-.54-3.71,1.39-7.3.6-11,2.3-3.33.76-6.21-1.06-9.05,1.21-3.89,4.58-6,7.32-8.5a8.86,8.86,0,0,0,3.07-5.82C241,306.74,239,287.2,239.82,267.72Z" fill="#e0c3af"/><path d="M260.19,112l1.94-.19c13.22.3,23.21,10.27,24,24a36.29,36.29,0,0,1-4,19.05c-2.64-.42-4.22,1.7-6.25,2.69-7.33,3.59-19.73,2-23.39-3.71-6.45-10.17-8.06-22.93-1.1-33.76,1.05-1.63,2.7-3,2.76-5.17h0C256.8,115.2,258.92,114.49,260.19,112Z" fill="#e0c3af"/><path d="M254.18,114.88c-.06,2.17-1.71,3.54-2.76,5.17-7,10.83-5.35,23.59,1.1,33.76,3.66,5.76,16.06,7.3,23.39,3.71,2-1,3.61-3.11,6.25-2.69A36.05,36.05,0,0,1,273,170.5c-1,.92-1.86,1.86-1.84,3.32-4.65,2-8.81,1.53-12.63-2.09-3.24-3.06-7.75-4.84-8.75-10-.28-1.41-2.3-.78-3.56-.9.21-6.68-2.86-12.71-3.84-19.2C241.23,133.89,246.21,117,254.18,114.88Z" fill="#ddbba1"/><path d="M280.24,607.38c2.78,8.46.79,11.84-7.78,12.87a34.24,34.24,0,0,1-6.94.07,79.15,79.15,0,0,0-23.18,1.6c-15.77,3.31-31.38,1.92-46-5.68-3.9-2-5.34-5.24-4.81-9.47a2.23,2.23,0,0,1,1.74-2.15c8.5,12.5,21.74,12.64,34.73,13a46.34,46.34,0,0,0,19.38-3.93,26.6,26.6,0,0,1,12.17-1.76C266.79,612.33,274.25,613,280.24,607.38Z" fill="#444448"/><path d="M229.13,349.56c.79,3.73-1.14,7.32-.6,11l-.3,3.1c-8.88.41-8.86.41-8.94,9.42,0,1.47-.21,2.95-.33,4.42-1.34.1-3.33-2.18-3.83,1-.38-.53-1.13-1.1-1.08-1.59.71-6.94-4.23-5.46-8.12-5.5-4.15,0-8.31,0-12.46,0-.08-8.63-.1-17.25-.3-25.87,0-2.44.84-3.14,3.17-3.07,4.48.15,9-.2,13.44.13,3.41.25,4.37-1,4.13-4.17a57.36,57.36,0,0,1,.23-6.92l3.13,1c3.06,3.54,2.13,7.83,1.93,11.84s.89,6,5.22,5Z" fill="#343434"/><path d="M229.09,363.61q15.42,0,30.84-.07c1.77,0,3.78-.42,4.64,1.89-1,3.84-3.75,5.06-7.37,5.12-2.95.05-5.9.18-8.84.27-3.77-.1-7.54-.1-11.3-.35C232.77,370.19,229.39,368.63,229.09,363.61Z" fill="#d6ad8f"/><path d="M228.23,363.69l.3-3.1c.88.9.7,2,.58,3.08l-.44.13Z" fill="#d6ad8f"/><path d="M217,392.44a1.84,1.84,0,0,1-.13-2.91C216.93,390.5,217,391.47,217,392.44Z" fill="#343434"/><path d="M217.26,261.78c.42-3.47,4.24-4.83,5-8.09l0,0a2.13,2.13,0,0,0,1.06-2c4.8-1.34,6.28-6.7,10.79-8.7,2.74-1.22,5.18-2.58,8.24-2.25-1,5.79-3.2,11.21-5.13,16.71Z" fill="#ddbba1"/><path d="M223.29,251.68a2.13,2.13,0,0,1-1.06,2A2,2,0,0,1,223.29,251.68Z" fill="#c69778"/><path d="M224.42,349.39c-4.33,1-5.42-.92-5.22-5s1.13-8.3-1.93-11.84c2.14-20.6,5.36-41,12.16-60.65,2.46-3.86,6.72-3.31,10.39-4.2-.85,19.48,1.14,39-1.36,58.47a8.86,8.86,0,0,1-3.07,5.82c-2.74,2.54-6.11,4.61-7.32,8.5C226.24,343.22,225.51,346.38,224.42,349.39Z" fill="#31afb6"/><path d="M266.16,363.5q.55-7,1.09-14l7.12,1a59.28,59.28,0,0,1,0,12.91Z" fill="#343434"/><path d="M244.21,220.73c4.84,1.52,9.61,3.19,14.75,1,4.06-1.74,7-4.92,10.51-7.42.4,9.93-11.72,22.68-22.26,23.42C246.59,232,243.71,226.66,244.21,220.73Z" fill="#ddbba1"/><path d="M260.19,112c-1.27,2.48-3.39,3.19-6,2.87A6,6,0,0,1,260.19,112Z" fill="#ddbba1"/><path d="M243.31,216.75c1.1.79.88,1.94.86,3C243.07,219,243.25,217.86,243.31,216.75Z" fill="#ddbba1"/><path d="M5.4,132.74A20.9,20.9,0,0,1,26.63,111.9c11.77.11,20.88,9.77,20.81,22-.07,11.13-9.8,20.89-20.93,20.88C17.23,154.81,4.18,146.66,5.4,132.74Z" fill="#545353"/><path d="M224.42,349.39c1.09-3,1.82-6.17,3.65-8.88,1.82,2.84,3.36,5.72,1.06,9.05Z" fill="#d6ad8f"/></g></g></svg>