<svg xmlns="http://www.w3.org/2000/svg" viewBox="0 0 360.6 635.86"><title>ex_d2_8_3</title><g id="Layer_2" data-name="Layer 2"><g id="Layer_1-2" data-name="Layer 1"><path d="M257.89,579.1c8.92,2.76,16.68,7.25,21.81,15.3,3.16,5,.88,14.4-4.26,18.29-10.18,7.69-21.53,12.51-34,15.55a261.44,261.44,0,0,1-69.35,7.53c-13.32-.36-26.61-2.5-39.86-4.55a144.7,144.7,0,0,1-37.29-11.38,35.12,35.12,0,0,1-11-7.44C76.85,605.08,76.1,597.23,83,590c5.12-5.39,11.79-8.87,19.07-10.9-.44,2.57-2.22,4.35-3.76,6.26-3.77,4.71-7.23,9.52-6,16.09-.52,6,3.67,8.13,8.29,9.49,5.33,1.56,10.84,1.28,16.28.41,9.62-1.53,11.69-3.51,14-13.19,2.45-3.74,2.31-7.92,2.11-12.12.75-6.64,1.95-13.17,4.81-19.28.31,1.43,1,2.6,2.65,2.26,7.3-1.47,14.74-1.37,22.09-2.14,14.89-1.56,29.6-.36,44.39.94,5,.44,10.2,1.48,15.27-.09,3.21,6.89,4.09,14.32,5,21.75-.29,3.07-.86,6.19,1.82,8.64.09,4.58,1.58,8.79,5.81,10.72a34,34,0,0,0,27.4.9c3.63-1.43,6.05-4,4.7-8.47a18,18,0,0,0-3.8-13.74C261.12,585,258.06,582.84,257.89,579.1Z" fill="#ebece6"/><path d="M208.13,39.92c3.37,1,4.27,3.49,3.57,6.59-1.12,5.05-1,10.86-7.47,12.93-.56.18-1,1.3-1.14,2A46.17,46.17,0,0,0,202,68.83c-.33,13-.28,13,10.43,20.24,2.47,1.68,5,3.28,7.38,5.08a37.8,37.8,0,0,0,22.63,8c14,.48,24.16,8.23,29.22,21.76-1.13,1.07-.73,2.46-.78,3.74-.41,9.92-6.22,15.29-16.07,15.15-4,0-7.22-2.1-10.82-3.19-.4-2.33.56-5-1.69-7-.41,8.87-4.22,15.41-12.31,19.19a11.63,11.63,0,0,1-2.86.79c-10.31.06-20.63.38-30.91-.06-7.7-.32-14.08-7.65-14.27-15.44-.13-5.14-.08-10.3,0-15.45.06-6-1.64-12.61,5.6-16.56-3.07-.1-5,2.1-7.61,1.72v-1.15c3.63-7.61,7.37-15.18,10.85-22.86,1-2.18,2.8-4.19,2.33-6.9.6-1.71,3-2.55,2.56-5.6-5.25,2.56-9.57,7-15.65,5q0-28.53,0-57c0-2.33.06-4.64-1.07-6.77a33.37,33.37,0,0,1,19.87,4.72c1.37.84,3.2,1.69,2.94,3.63-1.08,7.94,4.51,14.73,3.29,23.72Z" fill="#dcbaa1"/><path d="M63.1,223.63c-2.11-8.53-3.45-17,1.62-25.07,4.82-3.62,10-6.93,12.71-12.63,2.56-5.32,5.35-10.57,7.47-16.07,1.59-4.12,5.08-7.41,5.19-12.13,6.52-1.07,12.23-4.18,17.72-7.57,2.78-1.72,3.77-1.11,4.47,1.71a29.14,29.14,0,0,1,0,14.75c-2.87,10.62-8.66,19.83-15.49,28.11-4.23,5.14-3.07,8.66.25,12.89a41.93,41.93,0,0,0,.6,4.91A119.75,119.75,0,0,1,101.18,242c-.16,11.93-.22,23.87.06,35.8.28,11.6.64,23.32,10.69,31.69l1.2,4.92c-2.46-.11-3.5,1.35-4,3.51-.59,2.57-1.5,5.08-1.84,7.68a5,5,0,0,1-4,4.52A120.08,120.08,0,0,1,82.37,332c-4.94.09-6.81-4-10.48-5.26l0,0-.72-1.22L70.78,323c4.34-5.22,3.3-12.32,6.45-18.05,4.93-9,4.62-18.62,2.74-28.41-1.76-9.19-4.9-18-6.24-27.35-1.68-11.66-4.47-23.19-3.65-35.11a53,53,0,0,0-.25-5.32C65.49,213.42,65.59,219.1,63.1,223.63Z" fill="#dcbaa1"/><path d="M294.12,195.42c2.54,7.29,6.1,14.42,3.73,22.54-.27.92-.11,2-1,2.67-4.22-2-3.55-6.38-4.82-9.8-.35-.94-.55-2.1-1.85-1.91s-1.28,1.33-1.3,2.34c0,1.16-.08,2.33,0,3.48,1.42,21.77-4.28,42.45-9.55,63.22-1.21,4.75-2.4,9.77-1.18,14.7,2.37,9.55,7.36,18.26,9.21,28,.07.36,1.09.54,1.67.8l-1.29,4.93c-3.16,1.7-4.76,5.19-9.44,5.42-7.19.35-14.11-.79-21.12-1.47-2.92-.28-4.62-2.41-5.19-5.31-.42-2.1-.79-4.22-1.21-6.32-.5-2.56-2-3.68-4.63-3.21a1.57,1.57,0,0,1-.29-.84c.17-.46.34-.91.5-1.37a1,1,0,0,0,.35-.52l1-3.75c5.52-4.9,9.57-10.76,9.94-18.3.59-11.92.88-23.86,1-35.79.05-5.6-.57-11.17-.35-16.84.39-10.33,3.07-20.23,4.48-30.36,1-2,2-4.12,3.15-6.11a2.94,2.94,0,0,0-.56-4c-6.92-7.32-11.86-15.93-16-25A31.44,31.44,0,0,1,247,152.87c.8-3.85,2.3-4.49,5.66-2.35,5.3,3.38,10.84,6.39,17.23,7.25a17.28,17.28,0,0,0,.77,3.34c3.79,8.37,7.58,16.75,11.54,25,1,2.05,2.19,4.7,4,5.49C288.87,192.82,289.94,197.61,294.12,195.42Z" fill="#dcbaa1"/><path d="M243,388.25c-.46,8.58.57,17.21.33,25.68-.68,23.73,5.73,47,3.61,70.8-1.89,21.29-2,42.72-1.89,64.12a7.23,7.23,0,0,1-1,4.25,8.65,8.65,0,0,1-6.1.91,7,7,0,0,1-1-3.8c.5-12.76-.1-25.5.76-38.3,1.57-23.26-.92-46.05-13.73-66.46-3.81-6.06-7-12.76-14-16.15-6.13-8.33-8.55-18-9.93-28A133,133,0,0,0,232,391.4Z" fill="#d6ad8f"/><path d="M114.44,553c.58-25.72-.59-51.39-2.11-77.06-.78-13,.84-25.88,3.12-38.63,1.25-7,.42-13.92.61-20.88.13-4.78.18-9.55,2-14.1,6.32-1.72,12.73-3.18,18.91-5.31,2.43-.83,5.62-.62,7.2-3.41l16.92-1.73c-1.3,13.19-3.58,26.09-11.2,37.39a4.39,4.39,0,0,0-3,1.65A82,82,0,0,0,129.06,458c-5.39,13-6.89,26.68-7.06,40.65-.21,16.56,1.77,33.06,1.07,49.63-.09,2.17.2,4.36-2,5.73C118.82,554,116.42,554.81,114.44,553Z" fill="#d6ad8f"/><path d="M178.93,11.57C180.06,13.7,180,16,180,18.34q0,28.52,0,57.05c-7.51,2.34-12.25-4.34-18.74-5.87A22,22,0,0,1,166,75.91c1,5.82,4.43,10.66,6.7,16,2,4.77,3.66,9.87,7.29,13.85v1.15c-5.06.08-8.78-4.46-13.93-4.06-8.6,0-17.23.24-25.81-.29-3.09-.18-5.6.18-7.69,2.12-8.24,7.66-15,16.15-14.57,28.29l-2-.18c-1.48-.14-1.77-1.12-1.91-2.41-.6-5.55-1.46-11.08-1.92-16.65-.52-6.43,1.49-8.57,7.88-10.46,2.68-.79,5.72.79,8.06-1.47,3.87-2,6.82-5.4,11-6.93.39.66.72.59,1-.09l-.08.05c4.13-.13,7.21-3.56,11.19-3.8,5.72-.34,7.82-3.12,6.84-8.58-.35-7.83.81-15.79-2-23.41a38.11,38.11,0,0,1-1.83-16.28c-1.07-6.24,3.24-11.37,3.6-17.34.48-8.15,1.69-9.65,9.47-12.14A32.21,32.21,0,0,1,178.93,11.57Z" fill="#d6ad8f"/><path d="M360.6,248.53c-7.38,9.7-13.88,18.42-20.57,27-5.78,7.4-5.91,7.34-11.7-.18-6.63-8.63-13.2-17.3-20-26.17a8.18,8.18,0,0,1,1.7-.59c9-.57,9-.57,9-9.37,0-10.13.12-20.27-.07-30.4-.06-3.24.87-4.4,4.19-4.3,7.3.2,14.63.22,21.93,0,3.44-.1,4.58.9,4.51,4.47-.24,11.3.13,22.6-.2,33.89-.14,4.6,1.22,6.42,5.81,5.69A44.44,44.44,0,0,1,360.6,248.53Z" fill="#f8bf7a"/><path d="M.11,249c.25-.15.49-.43.76-.45,9.46-.69,9.46-.69,9.46-10.38s.11-19.61-.07-29.41c-.06-3.28,1-4.36,4.27-4.28,7.47.18,15,.11,22.44,0,2.74,0,3.62.81,3.56,3.81-.24,11.75-.06,23.51-.07,35.27,0,3.53,1.13,5.64,5.21,5a43.07,43.07,0,0,1,6.09-.05c-5.1,6.72-9.54,12.58-14,18.43-3.41,4.48-6.81,9-10.26,13.43-1,1.33-2,2.75-3.77.42C15.89,270.35,7.93,260,0,249.53,0,249.45.07,249.23.11,249Z" fill="#f8bf7a"/><path d="M237.92,554a8.65,8.65,0,0,0,6.1-.91c5.72-.83,6.92.08,6.81,6.65-.12,7.44,1.62,14,7.07,19.35.16,3.74,3.22,5.86,5.2,8.39a18,18,0,0,1,3.8,13.74c-2.44,3.37-5.94,4-9.69,3.38a54.12,54.12,0,0,0-9.85-.36,2.23,2.23,0,0,0-2.41.43,9.07,9.07,0,0,1-5,.16c-2.15-4.11-5-7.87-5.07-12.87a117.66,117.66,0,0,0-.36-12.86c-1-8.52-5.55-15.82-7.6-24C230.24,551.32,234.31,554.87,237.92,554Z" fill="#dad8eb"/><path d="M114.44,553c2,1.8,4.38,1,6.63,1a14.39,14.39,0,0,0,5.37-.48c2.12-.66,4.27-.81,5.69,1.5a12.8,12.8,0,0,1-1.11,4.74A75.26,75.26,0,0,0,125,580.12c-1.23,8.39,1.14,17.73-5.92,24.75-4.81.65-9.54-1.63-14.32-.55s-8.83.33-12.45-2.91c-1.18-6.57,2.28-11.38,6-16.09,1.54-1.91,3.32-3.69,3.76-6.26,5.4-5.73,7-12.75,7-20.35C109.1,555.27,109.39,551.85,114.44,553Z" fill="#dad8eb"/><path d="M116.51,388.17c-10.71-3-10.24-10.8-9.12-19.62,1.4-10.94,1.77-22,2.59-33,.61-1.41,1.23-2.83,1.84-4.25l7.83-.25c.09,1.8.22,3.6.27,5.4.24,8-1.09,16.13,2.54,23.76.88,1.64,2.51,1.54,3.88,1.3,3.22-.56,3.94,1.29,4.16,3.83l.24,2.22c-.08.12-.25.27-.22.35a5.13,5.13,0,0,0,.41.72q.33,11.41.65,22.83C126.24,391.84,121.67,388.64,116.51,388.17Z" fill="#34b0b8"/><path d="M243,388.25l-11,3.15-4,.05c.3-10,.43-20,1.93-30l6-.2,1.61,0c3-9.8,2-19.92,2.46-29.93l7.86-.11c.59,1.47,1.18,2.95,1.76,4.42,1.09,13.85,1.87,27.73,3.42,41.53.51,4.62-1.21,6.64-4.8,8.3C246.47,386.28,244.77,387.31,243,388.25Z" fill="#34b0b8"/><path d="M269.88,157.77c-6.39-.86-11.93-3.87-17.23-7.25-3.36-2.14-4.86-1.5-5.66,2.35a31.44,31.44,0,0,0,2.43,19.76c4.11,9.09,9.05,17.7,16,25a2.94,2.94,0,0,1,.56,4c-1.13,2-2.11,4.07-3.15,6.11-10.56-9.17-17.69-20.55-22.15-33.76-.34-1,1-4.48-2.63-3.14a6.31,6.31,0,0,1,0-2,100.45,100.45,0,0,0,6-29.22c3.6,1.09,6.84,3.14,10.82,3.19,9.85.14,15.66-5.23,16.07-15.15,0-1.28-.35-2.67.78-3.74a47.66,47.66,0,0,1,2.24,18.78c-1.53,1.61-1.46,3.26-.17,5,0,.69,0,1.38,0,2.06C270.8,151.61,273.31,156.14,269.88,157.77Z" fill="#c69575"/><path d="M97,207.62c-3.32-4.23-4.48-7.75-.25-12.89,6.83-8.28,12.62-17.49,15.49-28.11a29.14,29.14,0,0,0,0-14.75c-.7-2.82-1.69-3.43-4.47-1.71-5.49,3.39-11.2,6.5-17.72,7.57-1.74-.15-1.61-1.53-2.1-2.74-1.23-3,.11-6.53-2-9.28l0-8.71c0-.78.07-1.56.1-2.34a23.94,23.94,0,0,1,2.12-10.84c1.62,1.5.81,3.44.89,5.19.35,8.72,5.54,13.59,14.22,13.89,4.16.14,7.73-1.73,11.64-2.29,2.14,9.74,3,19.76,6.06,29.32-1.74,1.14-1.7,3.14-2.25,4.82A75,75,0,0,1,97,207.62Z" fill="#c69575"/><path d="M114.88,140.6c-3.91.57-7.48,2.44-11.64,2.3C94.56,142.6,89.37,137.73,89,129c-.08-1.75.73-3.69-.89-5.19,3.53-11.91,15.93-21.18,29.5-22,3.47-.19,7-.07,10.42-.1-2.34,2.26-5.38.68-8.06,1.47-6.39,1.89-8.4,4-7.88,10.46.46,5.57,1.32,11.1,1.92,16.65.14,1.29.43,2.27,1.91,2.41C115.59,135.37,115.23,138,114.88,140.6Z" fill="#dcbaa1"/><path d="M178.93,11.57a32.21,32.21,0,0,0-11.74,1.67c-7.78,2.49-9,4-9.47,12.14-.36,6-4.67,11.1-3.6,17.34-.89-.92-1.79-1.84-2.68-2.77l-.06-3.17a4.09,4.09,0,0,0,0-3.73V26.81a2.72,2.72,0,0,0,0-2.77c2.78-14.76,13-23.6,27.87-24,13.06-.37,25.07,8.05,28.12,20.12,1.64,6.48.21,13.2.74,19.79L205,43.64c1.22-9-4.37-15.78-3.29-23.72.26-1.94-1.57-2.79-2.94-3.63A33.37,33.37,0,0,0,178.93,11.57Z" fill="#343332"/><path d="M289.05,321.47c-.58-.27-1.6-.45-1.67-.81-1.85-9.74-6.84-18.45-9.21-28-1.22-4.93,0-10,1.18-14.7,5.27-20.77,11-41.45,9.55-63.22-.08-1.15,0-2.32,0-3.48,0-1,.06-2.16,1.3-2.34s1.5,1,1.85,1.91c1.27,3.42.6,7.82,4.82,9.8-.89,16.66-3.23,33.24-8.89,48.85s-5.24,30.27.93,45.23C288.72,317,289.79,319.2,289.05,321.47Z" fill="#d6ad8f"/><path d="M63.1,223.63c2.49-4.53,2.39-10.21,6.73-14.88a53,53,0,0,1,.25,5.32c-.82,11.92,2,23.45,3.65,35.11,1.34,9.31,4.48,18.16,6.24,27.35,1.88,9.79,2.19,19.45-2.74,28.41-3.15,5.73-2.11,12.83-6.45,18-1.54-2.81.08-5.52.26-8.28.7-2.71,1-5.59,2.16-8.11,5.08-11.43,2.87-22.45-.65-33.81C67.6,256.79,63.55,240.53,63.1,223.63Z" fill="#d6ad8f"/><path d="M85.94,145.71c2.16,2.75.82,6.28,2,9.28.49,1.21.36,2.59,2.1,2.74-.11,4.72-3.6,8-5.19,12.13-2.12,5.5-4.91,10.75-7.47,16.07-2.75,5.7-7.89,9-12.71,12.63,1.75-15.33,8-28.94,16.15-41.79C83.08,153.29,85.49,150,85.94,145.71Z" fill="#d6ad8f"/><path d="M269.88,157.77c3.43-1.63.92-6.16,3.92-8,10.05,13.76,18.27,28.34,20.31,45.66-4.17,2.19-5.24-2.6-7.93-3.77-1.8-.79-3-3.44-4-5.49-4-8.3-7.75-16.68-11.54-25A17.28,17.28,0,0,1,269.88,157.77Z" fill="#d6ad8f"/><path d="M310.84,286.58c.67,3.65,2.49,7.07,2.2,10.91,0,4,0,8,0,11.93Q313,329,313,348.48c0,.32-.05.65-.07,1-.54,11.36-1.83,12.53-13,11.77l-.71-.93c-.18-1.28-.37-2.56-.55-3.84q.31-6.9.62-13.79c2.33-.06,4.67-.29,7-.14,2.92.2,3.69-1.07,3.65-3.8-.18-11.81-.19-23.62-.26-35.43C310.8,297.78,308.58,292,310.84,286.58Z" fill="#343332"/><path d="M46.82,351.35c0-.93,0-1.87,0-2.8q-.06-19.08-.11-38.14l0-13c.2-4.08.54-8.11,3.19-11.51-.08,5.83-.53,11.67.24,17.49-.05,9.62-.12,19.24-.15,28.86,0,10.26,0,10.26,10.12,10.14l.7,16.18c-.07.59-.13,1.18-.2,1.77l-.6,1c-.33,0-.66.09-1,.09-9.4.11-9.4.11-12.15-9C46.87,352.11,46.85,351.73,46.82,351.35Z" fill="#3c3e3d"/><path d="M310.84,286.58c-2.26,5.44,0,11.2-1.16,16.72-2.48,0-5,.15-7.45.05-2.29-.1-3.3.71-3.26,3.12.17,12.06.24,24.13.34,36.2q-.31,6.9-.62,13.79c-2.87-1.89-2.68-4.94-2.75-7.76-.14-5.74-.06-11.49-.07-17.24a33.91,33.91,0,0,0,0-17c.71-8.5-1.21-17.09,1.57-25.58,1.11-3.39,2.45-5,5.75-4.26C305.74,285.21,309.18,282.54,310.84,286.58Z" fill="#e0dfdf"/><path d="M111.82,331.27c-.61,1.42-1.23,2.84-1.84,4.25-3.74,2.52-8,2.93-12.31,3-4,0-7.93-.11-11.88.1-5.57.31-10.65,0-12.89-6.38-.13-.37-1.14-.44-1.74-.65v-.46c1.81-1.2.65-2.9.72-4.39,3.67,1.3,5.54,5.35,10.48,5.26a120.08,120.08,0,0,0,20.95-1.85,5,5,0,0,0,4-4.52c.34-2.6,1.25-5.11,1.84-7.68.49-2.16,1.53-3.62,4-3.51a.94.94,0,0,1,.46.44C112.86,320.3,111.28,325.67,111.82,331.27Z" fill="#c69575"/><path d="M334.36,197.57c-3.82,0-7.66-.22-11.46.05-4.21.3-4-2.29-3.88-5.09s-.6-5.76,4-5.6q11.22.36,22.44,0c5.53-.18,3.69,3.67,4.08,6.49.48,3.42-1,4.35-4.22,4.15-3.65-.23-7.31-.06-11-.06Z" fill="#f8bf7a"/><path d="M249.64,335.62c-.58-1.47-1.17-2.95-1.76-4.42.89-5.39-1.42-10.44-1.71-15.7,2.61-.47,4.13.65,4.63,3.21.42,2.1.79,4.22,1.21,6.32.57,2.9,2.27,5,5.19,5.31,7,.68,13.93,1.82,21.12,1.47,4.68-.23,6.28-3.72,9.44-5.42l-.81,4.8c-1.53,5.67-5.15,7.88-11,7.43-6.08-.46-12.22-.23-18.33-.41A17.43,17.43,0,0,1,249.64,335.62Z" fill="#c69575"/><path d="M25.14,197.52c-3.66,0-7.33-.22-11,0-4.26.32-3.9-2.33-3.87-5.11s-.38-5.7,4.13-5.55c7.47.25,15,.23,22.45,0,4.17-.12,4,2.4,4,5.2,0,3,.24,5.79-4.23,5.46C32.81,197.3,29,197.52,25.14,197.52Z" fill="#f8bf7a"/><path d="M60.84,358.6q-.36-8.09-.7-16.18,0-19.55,0-39.09c.66-5.5-1-11.12.87-16.55,2.69,4.89,2,10.23,2.13,15.48.08,4.1-.62,8.27,1,12.26a30.91,30.91,0,0,0,0,16.82c-1.4,6.23-1,12.56-1,18.86C63.09,353.21,62.86,356.14,60.84,358.6Z" fill="#c2c1c1"/><path d="M116.51,388.17c5.16.47,9.73,3.67,15.07,3.26,3.95,2.08,8.59.22,12.55,2.19-1.58,2.79-4.77,2.58-7.2,3.41-6.18,2.13-12.59,3.59-18.91,5.31C116.75,397.7,116.83,392.91,116.51,388.17Z" fill="#b47f59"/><path d="M320.19,299.24c2.66,4.9,1.08,10.27,1.66,15.4V331.3c-.2,1.45-.39,2.9-.58,4.35l-6.43-.21-.06-25.32c4.48.83,5.93-1.23,5.39-5.47A40.71,40.71,0,0,1,320.19,299.24Z" fill="#787878"/><path d="M61,286.78c-1.83,5.43-.21,11.05-.87,16.55l-9.95.09c-.77-5.82-.32-11.66-.24-17.49C54.14,283.57,59.06,284,61,286.78Z" fill="#ebece6"/><path d="M38.4,335.57c-.09-1.39-.18-2.78-.28-4.17V314.54l0-12.13c1.25.3,1.37,1.38,1.21,2.27-.91,5,1.88,6,6,5.74L45,335.53Z" fill="#787878"/><path d="M287,331.19l.81-4.8,1.29-4.93c.74-2.26-.33-4.5-.14-6.75l7-.23a33.91,33.91,0,0,1,0,17Z" fill="#3c3e3d"/><path d="M64.12,331.34a30.91,30.91,0,0,1,0-16.82l6.94.18c-.18,2.76-1.8,5.47-.26,8.28.14.83.27,1.64.41,2.46a1,1,0,0,0,.72,1.22l0,0c-.07,1.49,1.09,3.19-.72,4.39l-2.22.24Z" fill="#3c3e3d"/><path d="M45.26,310.42c-4.08.26-6.87-.76-6-5.74.16-.89,0-2-1.21-2.27-.4-7.36,5.36-4,8.65-5l0,13Z" fill="#e0dfdf"/><path d="M38.12,314.54V331.4c-6.27-.39-5.85-.42-6.41-11.4C31.43,314.32,34.35,314.42,38.12,314.54Z" fill="#343332"/><path d="M321.85,331.3V314.64l4.9.14,1,.75q0,7.44,0,14.88l-1,.71Z" fill="#343332"/><path d="M314.84,335.44l6.43.21c0,2.48-.08,5-.09,7.44,0,4.15-1.83,6.15-6.15,5.21A24.4,24.4,0,0,1,314.84,335.44Z" fill="#3c3e3d"/><path d="M151.44,40c.89.93,1.79,1.85,2.68,2.77A38.11,38.11,0,0,0,156,59c-6-.42-6.81-5.3-7.52-9.53C147.88,46.16,146.08,41.71,151.44,40Z" fill="#dcbaa1"/><path d="M320.19,299.24a40.71,40.71,0,0,0,0,5.41c.54,4.24-.91,6.3-5.39,5.47l-1.69-.7c0-4,0-7.95,0-11.93C315.43,298,318.4,296.24,320.19,299.24Z" fill="#ebece6"/><path d="M38.4,335.57l6.61,0a45.24,45.24,0,0,1-.11,12.73c-4.43,1-6.33-1.07-6.41-5.31C38.44,340.49,38.43,338,38.4,335.57Z" fill="#3c3e3d"/><path d="M158,82.41c1,5.46-1.12,8.24-6.84,8.58-4,.24-7.06,3.67-11.19,3.8C145.28,89.67,151.65,86.08,158,82.41Z" fill="#b47f59"/><path d="M44.9,348.26A45.24,45.24,0,0,0,45,335.53l.24-25.11h1.47q.06,19.06.11,38.14Z" fill="#c2c1c1"/><path d="M313.09,309.42l1.69.7.06,25.32A24.4,24.4,0,0,0,315,348.3l-2,.18Q313,328.95,313.09,309.42Z" fill="#c2c1c1"/><path d="M273.76,147.7c-1.29-1.7-1.36-3.35.17-5A3.92,3.92,0,0,1,273.76,147.7Z" fill="#d6ad8f"/><path d="M151.37,33.05a4.09,4.09,0,0,1,0,3.73A3.64,3.64,0,0,1,151.37,33.05Z" fill="#dcbaa1"/><path d="M151.4,24a2.72,2.72,0,0,1,0,2.77A2.11,2.11,0,0,1,151.4,24Z" fill="#dcbaa1"/><path d="M86,134.66c0,.78-.06,1.56-.1,2.34A1.68,1.68,0,0,1,86,134.66Z" fill="#d6ad8f"/><path d="M69,331.33l2.22-.24v.46Z" fill="#c2c1c1"/><path d="M46.82,351.35c0,.38,0,.76.08,1.14C46.29,352.15,46.14,351.78,46.82,351.35Z" fill="#c2c1c1"/><path d="M326.74,331.12l1-.71C327.76,331.15,327.48,331.46,326.74,331.12Z" fill="#787878"/><path d="M140,94.74c-.28.68-.61.75-1,.09Z" fill="#b47f59"/><path d="M327.75,315.53l-1-.75C327.52,314.45,327.81,314.76,327.75,315.53Z" fill="#787878"/><path d="M299.24,360.3l.71.93C299.3,361.24,299,361,299.24,360.3Z" fill="#787878"/><path d="M60,361.37l.6-1C61.18,361.15,60.79,361.36,60,361.37Z" fill="#c2c1c1"/><path d="M136,552.07c2.81,1.49,2,4,1.85,6.38a25.77,25.77,0,0,0-4.09,7.26c-2.46,6.68-3.7,13.41-.78,20.29.2,4.2.34,8.38-2.11,12.12-3.19,3.57-6.19,7.49-11.85,6.75,7.06-7,4.69-16.36,5.92-24.75A75.26,75.26,0,0,1,131,559.79a12.59,12.59,0,0,0,1.1-4.74C134.39,555.32,134.74,553.09,136,552.07Z" fill="#c5c2db"/><path d="M221.87,558.43c.63-2.14-1.43-5.1,1.95-6.4.82,1.26,1.13,3,3.12,3.13,2.05,8.13,6.6,15.43,7.6,24A117.66,117.66,0,0,1,234.9,592c0,5,2.92,8.76,5.07,12.87-5.37.51-8.13-3.2-11-6.76-2.68-2.45-2.11-5.57-1.82-8.64C229,578.49,229.06,567.84,221.87,558.43Z" fill="#c5c2db"/><path d="M119,604.87c5.66.74,8.66-3.18,11.85-6.75-2.36,9.68-4.43,11.66-14,13.19-5.44.87-11,1.15-16.28-.41-4.62-1.36-8.81-3.48-8.29-9.49,3.62,3.24,7.76,4,12.45,2.91S114.22,605.52,119,604.87Z" fill="#3c3e3d"/><path d="M229,598.08c2.85,3.56,5.61,7.27,11,6.76a9.07,9.07,0,0,0,5-.16,2.5,2.5,0,0,0,2.41-.43,54.12,54.12,0,0,1,9.85.36c3.75.58,7.25,0,9.69-3.38,1.35,4.43-1.07,7-4.7,8.47a34,34,0,0,1-27.4-.9C230.57,606.87,229.08,602.66,229,598.08Z" fill="#3c3e3d"/><path d="M221.87,558.43c7.19,9.41,7.17,20.06,5.3,31-.88-7.43-1.76-14.86-5-21.75C222,564.6,220,561.59,221.87,558.43Z" fill="#3c3e3d"/><path d="M133,586c-2.92-6.88-1.68-13.61.78-20.29a25.77,25.77,0,0,1,4.09-7.26c.19.58.38,1.15.56,1.72,0,1.28-.07,2.57-.11,3.86l-.51,2.69C134.94,572.83,133.74,579.36,133,586Z" fill="#3c3e3d"/><path d="M166,102.81c5.15-.4,8.87,4.14,13.93,4.06,2.6.38,4.54-1.82,7.61-1.72-7.24,3.95-5.54,10.54-5.6,16.56,0,5.15-.1,10.31,0,15.45.19,7.79,6.57,15.12,14.27,15.44,10.28.44,20.6.12,30.91.06a11.63,11.63,0,0,0,2.86-.79c6.06,4.47,5,11,4.89,17.2,0,2,.23,3.93-.55,5.84-.59,1.45-.32,2.6,1.54,2.79,0,1.74-1,3-1.73,4.5-3.29,6.73-6.71,13.39-9.21,20.47-.94-.65-.91-1.64-1-2.64-1-7.79-1.81-15.62-3.13-23.36-.4-2.37.08-5.48-2.87-6.95a2.78,2.78,0,0,0-2.22-2.89A138.91,138.91,0,0,1,184,154.65c-3.5-7.79-3.49-7.78-8.82-1.74a15.41,15.41,0,0,1-2.28,1.88c-8.16,6.38-18.2,8.38-27.6,11.86-1.08.4-3-.46-2.82,1.76.49,5,1.88,8.89,7.5,8.27,10.69-1.18,21.09-3.36,30-10a8.72,8.72,0,0,0,5.64,4.38,129.1,129.1,0,0,1,13.22,3.81c6.31,2.35,12.31,2.93,18.08-1.25.58.41,1.06,1.24.57,1.6-3.29,2.41-4.07,6.51-6.53,9.46-1.63-.13-3.37.35-4.86-.64-4.93-3.29-10.62-4.46-16.21-5.92-4.14-1.07-7.54-.27-9.92,3.52-3.41-3.57-7.27-4.05-12.15-3.11-6.74,1.31-12.32,5.71-19.16,6.47a1.6,1.6,0,0,0-1.09.93c-1,3.82-2.32,7.66-.06,11.5,2,3.48,5.6,4.08,8.73,3,7.9-2.73,16.59-3.1,23.79-7.89,7.55,5.15,16.45,6.15,25.05,8.06,2.27.51,4.14-.64,5.86-2,1.91,2.66-2,4.51-1,7a10.44,10.44,0,0,1-11.07.23A29.78,29.78,0,0,0,189,203c-3-.37-6.61-1.92-9.06,1.62-2.71-2.34-5.42-2.47-9.07-1.65-5.51,1.23-10.51,4.21-16.13,4.61-4.68.32-7.28,2.94-6.63,7.68.2,1.46.59,2.9.89,4.35l1,1,0,0c.54,6.15,3.12,11.71,5,17.61-.23-5.39.56-10.31,4-14.54,7.1-.56,14.65,1.86,21.08-3.16,6.37,5.16,13.6,4.67,21,3.18,3.3,4.42,2.23,10,3.88,14.83Q203,244.74,201,251c-6.89,1.85-14,1.66-21,2.67a152.32,152.32,0,0,1-35.79-5.73c-2.66-7.63-7-14.37-11.1-21.26.14-1.82.22-3.64.45-5.44,1.09-8.55,2.6-17-2-25.27-2.87-5.21-5-10.85-7.39-16.3,1.67-1.84.77-4.07.85-6.12.31-7.46-1.64-15.31,4-21.78a26.79,26.79,0,0,0,4.85.94c9.64.08,19.28.15,28.91,0,6-.1,12.47-5.69,14.16-11.56,1.6-5.55.42-11.25,1-16.82,1.12-10-1.09-17.76-11.7-21.07C166.18,103.16,166.11,103,166,102.81Z" fill="#c69575"/><path d="M179.94,105.72c-3.63-4-5.24-9.08-7.29-13.85-2.27-5.3-5.68-10.14-6.7-16C170.05,77.15,172,81.75,177,82A20.45,20.45,0,0,0,193.12,76c.47,2.71-1.34,4.72-2.33,6.9C187.31,90.54,183.57,98.11,179.94,105.72Z" fill="#c69575"/><path d="M235.9,177.7c-1.86-.19-2.13-1.34-1.54-2.79.78-1.91.52-3.89.55-5.84.07-6.21,1.17-12.73-4.89-17.2,8.09-3.78,11.9-10.32,12.31-19.19,2.25,2,1.29,4.65,1.69,7a100.45,100.45,0,0,1-6,29.22,6.31,6.31,0,0,0,0,2A16.85,16.85,0,0,1,235.9,177.7Z" fill="#b47f59"/><path d="M193.12,76A20.45,20.45,0,0,1,177,82c-5-.28-7-4.88-11.07-6.12a22,22,0,0,0-4.66-6.39c6.49,1.53,11.23,8.21,18.74,5.87,6.08,2,10.4-2.47,15.65-5C196.09,73.41,193.72,74.25,193.12,76Z" fill="#b47f59"/><path d="M111.93,309.48c1.06-7.55,1-15.23,2.89-22.68,1.71,2.4,2.27,5.61,5.06,7.26q-.12,10.38-.23,20.75a15.21,15.21,0,0,0-6.05,0,1,1,0,0,0-.47-.44Z" fill="#34b0b8"/><path d="M71.91,326.66a1,1,0,0,1-.72-1.22Z" fill="#c69575"/><path d="M244.75,288.21c1.71,4.85,1.91,9.92,2.24,15,.12,1.94-.23,4,.76,5.82-.34,1.25-.68,2.5-1,3.75l-.34.15,0,.37c-.16.46-.33.91-.5,1.37l-5.94,0q0-10,0-20C242.23,293,242.18,289.64,244.75,288.21Z" fill="#34b0b8"/><path d="M239.94,314.63l5.94,0a1.57,1.57,0,0,0,.29.84c.29,5.26,2.6,10.31,1.71,15.7l-7.86.11Q240,323,239.94,314.63Z" fill="#343332"/><path d="M246.38,313.29l0-.37.34-.15A1.12,1.12,0,0,1,246.38,313.29Z" fill="#c69575"/><path d="M226.94,555.16c-2-.1-2.3-1.87-3.12-3.13,0-10.64-2.36-21-3.3-31.56-1.13-12.76-4.31-24.91-8.7-37-6.39-17.62-3.56-36-1.83-54.15,6.95,3.39,10.16,10.09,14,16.15,12.81,20.41,15.3,43.2,13.73,66.46-.86,12.8-.26,25.54-.76,38.3a7,7,0,0,0,1,3.8C234.31,554.87,230.24,551.32,226.94,555.16Z" fill="#dcbaa1"/><path d="M200.06,401.32l-2.1-9.7c1,.1,2,.21,2.94.29,9.06.75,18.12,1.62,27.13-.46l4-.05A133,133,0,0,1,200.06,401.32Z" fill="#b47f59"/><path d="M119.87,294.07c-2.78-1.66-3.34-4.87-5.05-7.27,2.31-15.77,9.1-30,15.34-44.4,4.68,1.82,8.79,5.09,14,5.5A152.32,152.32,0,0,0,180,253.63c-.5,27,1.09,54.07-.86,81.08-2.06,17.37-4.16,34.74-6.16,52.12-.22,1.85-1.11,2.5-2.76,2.85-3.06.65-6.09,1.46-9.13,2.21l-16.92,1.73c-4-2-8.6-.11-12.55-2.19q-.32-11.42-.65-22.83a.84.84,0,0,0,.07-.37,5.89,5.89,0,0,0-.26-.7l-.24-2.22c1.49-4.06,4.45-7.4,5.2-11.91.39-2.32-.74-5.08,1.42-7.06v-.07c.36,3.25,2.89,1.89,4.59,2.06,2,.2,2.4-1.24,2.32-2.9,2-4.51.45-9.31,1.11-13.94,4.41.55,6.55-1.13,5.91-5.8a38.43,38.43,0,0,1,0-4.92c0-6.12,0-6.12-5.81-5.34-.89-4.6.9-9.45-1.28-13.93l-.72-3.44a4.66,4.66,0,0,0-5.35.05,2.39,2.39,0,0,1-.73.65c-2.17-3.08.21-7.79-3.68-10.26-.13-1-.25-2.05-.38-3.07a7.37,7.37,0,0,0-10-.1c-1.13.36-1.07,1.27-1,2.18Z" fill="#181819"/><path d="M136,552.07c-1.27,1-1.62,3.25-3.89,3-1.41-2.31-3.56-2.16-5.68-1.5a14.39,14.39,0,0,1-5.37.48c2.2-1.37,1.91-3.56,2-5.73.7-16.57-1.28-33.07-1.07-49.63.17-14,1.67-27.69,7.06-40.65a82,82,0,0,1,17.83-27.09,4.39,4.39,0,0,1,3-1.65c.58,10.25,1.42,20.48,1.43,30.78,0,8.89-.79,17.67-4.14,25.85a107.21,107.21,0,0,0-7.63,31.61C138.52,529.05,135.62,540.39,136,552.07Z" fill="#dcbaa1"/><path d="M166,102.81c.1.14.17.35.3.39,10.61,3.31,12.82,11.12,11.7,21.07-.63,5.57.55,11.27-1,16.82-1.69,5.87-8.17,11.46-14.16,11.56-9.63.17-19.27.1-28.91,0a26.79,26.79,0,0,1-4.85-.94c-6-2.78-8.93-8-11.08-13.84,0-1.11,0-2.23-.07-3.34,0-.54,0-1.08,0-1.62-.42-12.14,6.33-20.63,14.57-28.29,2.09-1.94,4.6-2.3,7.69-2.12C148.78,103.05,157.41,102.77,166,102.81Z" fill="#dcbaa1"/><path d="M118,137.89c2.15,5.85,5.1,11.06,11.08,13.84-5.65,6.47-3.7,14.32-4,21.78-.08,2.05.82,4.28-.85,6.12a36.28,36.28,0,0,1-3.24-9.71c-3.09-9.55-3.92-19.57-6.06-29.31.35-2.62.71-5.24,1.06-7.86l2,.18c0,.54,0,1.08,0,1.62A2.13,2.13,0,0,0,118,137.89Z" fill="#b47f59"/><path d="M247.36,604.25a2.5,2.5,0,0,1-2.41.43A2.23,2.23,0,0,1,247.36,604.25Z" fill="#c5c2db"/><path d="M133.45,288.5c3.89,2.47,1.51,7.18,3.68,10.26-.3,3.51-.61,7-.92,10.54l-.36,28.32c0,3-.23,6,1.27,8.72-2.16,2-1,4.74-1.42,7.06-.75,4.51-3.71,7.85-5.2,11.91-.22-2.54-.94-4.39-4.16-3.83-1.37.24-3,.34-3.88-1.3q.29-8.88.58-17.74c2.16,0,4.33-.1,6.48.08,2.9.25,3.68-1,3.64-3.78-.16-11.78-.16-23.58-.22-35.37Z" fill="#343332"/><path d="M123,342.44q-.29,8.87-.58,17.74c-3.63-7.63-2.3-15.77-2.54-23.76,0-1.8-.18-3.6-.27-5.4V314.81q.12-10.38.23-20.75l2.13-6.55c2.14,5.16.31,10.59,1,15.84Z" fill="#c2c1c1"/><path d="M119.65,314.81V331l-7.83.25c-.54-5.6,1-11,1.77-16.43A15.27,15.27,0,0,1,119.65,314.81Z" fill="#3c3e3d"/><path d="M130.74,367.53a5.89,5.89,0,0,1,.26.7.84.84,0,0,1-.07.37,5.13,5.13,0,0,1-.41-.72C130.49,367.8,130.66,367.65,130.74,367.53Z" fill="#343332"/><path d="M179.1,334.71c2-27,.36-54.06.86-81.08,7-1,14.16-.82,21.06-2.67A52.59,52.59,0,0,0,215.2,248a36.43,36.43,0,0,0,13.9-5.87c6.79,14.82,14,29.5,15.65,46.06-2.57,1.43-2.52,4.8-4.79,6.45-.7-2.38-1.49-4.73-2.07-7.14-1.32-5.47-5.65-2.28-8.58-3-3.43-.84-3,2-3.32,4-1.37.11-1.91.87-2.05,2.21-.26,2.38-.59,4.77-2,6.8l-1,.3c-4-.94-5.47.83-5.16,4.68.21,2.64.28,5.29.41,7.93-.41.47-1.16.94-1.16,1.41-.07,10.55-.05,21.1-.05,31.64,1.49-3.5-.75-9.59,6.77-7.91l.81,11c.25,3.67,1.64,7.09,2.27,10.64.58,3.25,2.3,4.24,5.16,4.28-1.5,9.93-1.63,20-1.93,30-9,2.08-18.07,1.21-27.13.46-1-.08-2-.19-2.94-.29-10.78-2.67-10.79-2.67-12.18-13.53q-2.49-19.48-5-39C180.6,337.52,180.73,335.77,179.1,334.71Z" fill="#3c3e3d"/><path d="M226,288.52c.36-2-.11-4.82,3.32-4,2.93.7,7.26-2.49,8.58,3,.58,2.41,1.37,4.76,2.07,7.14q0,10,0,20,0,8.34.08,16.68c-.46,10,.56,20.13-2.47,29.93a.8.8,0,0,0-.4-.84l-.24-17.93c.08-9.24.2-18.48.23-27.71,0-10.74,0-10.74-10.24-11.57-.17,0-.33-.07-.49-.1Z" fill="#e0dfdf"/><path d="M226,288.52l.42,14.57c-.1,9.63-.25,19.25-.3,28.88-.06,10.57,0,10.57,10.8,10.5l.24,17.93-1.2.88-6,.2c-2.86,0-4.58-1-5.16-4.28-.63-3.55-2-7-2.27-10.63a45.09,45.09,0,0,0,1.12-6.82c.1-11.12,0-22.25,0-33.37,0-1.89-.14-3.6-1.76-4.85,0-1,0-2,0-3,0-.33,0-.67,0-1,1.45-2,1.78-4.42,2-6.8C224.08,289.39,224.62,288.63,226,288.52Z" fill="#343332"/><path d="M236,361.28l1.2-.88a.8.8,0,0,1,.4.84Z" fill="#3c3e3d"/><path d="M299.31,342.67c-.1-12.07-.17-24.14-.34-36.2,0-2.41,1-3.22,3.26-3.12,2.48.1,5,0,7.45-.05.07,11.81.08,23.62.26,35.43,0,2.73-.73,4-3.65,3.8C304,342.38,301.64,342.61,299.31,342.67Z" fill="#787878"/><path d="M50.17,303.42l9.95-.09q0,19.55,0,39.09C50,342.54,50,342.54,50,332.28,50.05,322.66,50.12,313,50.17,303.42Z" fill="#787878"/><path d="M138.31,564c0-1.29.08-2.58.11-3.86A2.79,2.79,0,0,1,138.31,564Z" fill="#c5c2db"/><path d="M215.2,248A52.59,52.59,0,0,1,201,251q1.93-6.22,3.88-12.45c.9-2.79,2.16-5.52,2.59-8.38.49-3.21,3.13-6.14,1.44-9.66,3.9-4.68,1.53-9.8,1-14.79-1-2.52,2.9-4.37,1-7,2.88-4.64,2.48-9.28,0-13.93,2.46-2.95,3.24-7.05,6.53-9.46.49-.36,0-1.19-.57-1.6.16-1.35-.44-2.91,1-3.94,2.95,1.47,2.47,4.58,2.87,6.95,1.32,7.74,2.15,15.57,3.13,23.36.12,1,.09,2,1,2.64-.54,8.42,1.13,16.67,1.83,25C221.61,233.7,218.13,240.71,215.2,248Z" fill="#d6ad8f"/><path d="M210,205.68c.5,5,2.87,10.11-1,14.79-2.47,1.47-4.85,3.17-7.91,3.21-7.37,1.49-14.6,2-21-3.18L180,204.6c2.45-3.54,6-2,9.06-1.62a29.78,29.78,0,0,1,9.87,2.93A10.44,10.44,0,0,0,210,205.68Z" fill="#dcbaa1"/><path d="M180,192.58c-7.2,4.79-15.89,5.16-23.79,7.89-3.13,1.08-6.68.48-8.73-3-2.26-3.84-.92-7.68.06-11.5a1.6,1.6,0,0,1,1.09-.93c6.84-.76,12.42-5.16,19.16-6.47,4.88-.94,8.74-.46,12.15,3.11Z" fill="#d6ad8f"/><path d="M180,192.58l-.06-10.9c2.38-3.79,5.78-4.59,9.92-3.52,5.59,1.46,11.28,2.63,16.21,5.92,1.49,1,3.23.51,4.86.64,2.46,4.65,2.86,9.29,0,13.93-1.72,1.35-3.59,2.5-5.86,2C196.49,198.73,187.59,197.73,180,192.58Z" fill="#dcbaa1"/><path d="M180,204.6l.09,15.9c-6.43,5-14,2.6-21.08,3.16a21.91,21.91,0,0,1-8.94-3.07l0,0-1-1c-.3-1.45-.69-2.89-.89-4.35-.65-4.74,2-7.36,6.63-7.68,5.62-.4,10.62-3.38,16.13-4.61C174.54,202.13,177.25,202.26,180,204.6Z" fill="#d6ad8f"/><path d="M180,166.72c-8.9,6.6-19.3,8.78-30,10-5.62.62-7-3.31-7.5-8.27-.22-2.22,1.74-1.36,2.82-1.76,9.4-3.48,19.44-5.48,27.6-11.86a15.41,15.41,0,0,0,2.28-1.88c5.33-6,5.32-6,8.82,1.74-3.5,1-4.64,3.25-4.08,6.76A33.57,33.57,0,0,1,180,166.72Z" fill="#d6ad8f"/><path d="M180,166.72a33.57,33.57,0,0,0-.05-5.31c-.56-3.51.58-5.8,4.08-6.76a138.91,138.91,0,0,0,31.69,12.18,2.78,2.78,0,0,1,2.22,2.89c-1.44,1-.84,2.59-1,3.94-5.77,4.18-11.77,3.6-18.08,1.25a129.1,129.1,0,0,0-13.22-3.81A8.72,8.72,0,0,1,180,166.72Z" fill="#dcbaa1"/><path d="M144.17,247.9c-5.22-.41-9.33-3.68-14-5.5,2.29-5,1.25-10.64,2.91-15.76C137.14,233.53,141.51,240.27,144.17,247.9Z" fill="#b47f59"/><path d="M201,223.68c3.06,0,5.44-1.74,7.91-3.21,1.69,3.52-1,6.45-1.44,9.66-.43,2.86-1.69,5.59-2.59,8.38C203.25,233.66,204.32,228.1,201,223.68Z" fill="#b47f59"/><path d="M150,220.59a21.91,21.91,0,0,0,8.94,3.07c-3.4,4.23-4.19,9.15-4,14.54C153.15,232.3,150.57,226.74,150,220.59Z" fill="#b47f59"/><path d="M149,219.59l1,1Z" fill="#b47f59"/><path d="M215.2,248c2.93-7.31,6.41-14.32,11.59-20.35l2.31,14.48A36.43,36.43,0,0,1,215.2,248Z" fill="#c69575"/><path d="M137.12,346.34c-1.5-2.75-1.31-5.75-1.27-8.72l.36-28.32c6.88,1.34,6.87,1.34,7.19-5.43a14.19,14.19,0,0,1,.53-2.37c2.18,4.48.39,9.33,1.28,13.93q0,8-.07,16.06c-.66,4.63.91,9.43-1.11,13.94-1.53-1.89-.87-4.09-.61-6.11s.32-3.55-2.29-3.79c-2.83-.25-3.13,1.36-3.2,3.63s.82,4.9-.81,7.11Z" fill="#787878"/><path d="M123,303.35c-.72-5.25,1.11-10.68-1-15.84-.05-.91-.11-1.82,1-2.18l10,.1c.13,1,.25,2.05.38,3.07l-.51,14.87Z" fill="#ebece6"/><path d="M145.14,331.49q0-8,.07-16.06c5.79-.78,5.79-.78,5.81,5.34a38.43,38.43,0,0,0,0,4.92C151.69,330.36,149.55,332,145.14,331.49Z" fill="#343332"/><path d="M143.93,301.5a14.19,14.19,0,0,0-.53,2.37c-.32,6.77-.31,6.77-7.19,5.43.31-3.51.62-7,.92-10.54a2.39,2.39,0,0,0,.73-.65l5.35-.05Z" fill="#ebece6"/><path d="M137.12,346.27c1.63-2.21.72-4.74.81-7.11s.37-3.88,3.2-3.63c2.61.24,2.56,1.71,2.29,3.79s-.92,4.22.61,6.11c.08,1.66-.27,3.1-2.32,2.9C140,348.16,137.48,349.52,137.12,346.27Z" fill="#3c3e3d"/><path d="M133.07,285.43l-10-.1A7.37,7.37,0,0,1,133.07,285.43Z" fill="#343332"/><path d="M143.21,298.06l-5.35.05A4.66,4.66,0,0,1,143.21,298.06Z" fill="#787878"/><path d="M118,137.89a2.13,2.13,0,0,1-.07-3.34C117.91,135.66,117.94,136.78,118,137.89Z" fill="#d6ad8f"/><path d="M123,303.35l9.9,0c.06,11.79.06,23.59.22,35.37,0,2.73-.74,4-3.64,3.78-2.15-.18-4.32-.07-6.48-.08Z" fill="#787878"/><path d="M221.72,335.58c-7.52-1.68-5.28,4.41-6.77,7.91,0-10.54,0-21.09.05-31.64,0-.47.75-.94,1.16-1.41a14.34,14.34,0,0,1,5.8-.06Z" fill="#787878"/><path d="M221.72,335.58l.24-25.2,0-8.85c1.62,1.25,1.77,3,1.76,4.85,0,11.12.06,22.25,0,33.37a45.09,45.09,0,0,1-1.12,6.82Z" fill="#c2c1c1"/><path d="M221.93,301.53l0,8.85a14.34,14.34,0,0,0-5.8.06c-.13-2.64-.2-5.29-.41-7.93-.31-3.85,1.17-5.62,5.16-4.68l1,.7C221.9,299.53,221.92,300.53,221.93,301.53Z" fill="#ebece6"/><path d="M221.89,298.53l-1-.7,1-.3C221.89,297.86,221.89,298.2,221.89,298.53Z" fill="#c2c1c1"/><path d="M236.91,342.47c-10.82.07-10.86.07-10.8-10.5,0-9.63.2-19.25.3-28.88.16,0,.32.08.49.1,10.25.83,10.28.83,10.24,11.57C237.11,324,237,333.23,236.91,342.47Z" fill="#787878"/></g></g></svg>