<svg xmlns="http://www.w3.org/2000/svg" viewBox="0 0 431.81 505.39"><title>ex_d3_3_1</title><g id="Layer_2" data-name="Layer 2"><g id="Layer_1-2" data-name="Layer 1"><path d="M406.44,471.32c1.09-.5,1.13-1.48,1.26-2.49.19-1.52-.79-3.82,1.52-4.17s4.69-1,6.89,1.32c4.76,5,5.06,11.06.53,15-2.07,1.8-4.35,1.38-6.61,1.38q-124.78,0-249.57,0c-3.57,0-6.18-.44-7,4.88-.7,4.5-6,6.95-10.17,8.81-15.06,6.67-31,9.28-47.38,9.31-15.25,0-30.53.49-45.54-3-8-1.88-16.06-4-23-8.49-9.61-6.24-9.26-14.26.7-19.88,4.14-2.34,8.06-5.27,13.08-5.55.3,2.78-.41,5.44-.92,8.13C39,487.3,41.83,490.44,52.84,490.46a74.34,74.34,0,0,0,8.95-.49c5-.59,10-.72,14.83.79,15,4.71,29.9,3.1,44.78-.44a32.61,32.61,0,0,0,12.52-5.94c4-3.1,4.4-8.09,1.08-11.22-2.37-4.5-6.93-3.89-10.91-4.79-5.18-1.18-11-.6-15.14-4.89a67.43,67.43,0,0,0,7.84.89q132.9.06,265.79,0a36.9,36.9,0,0,1,.15,4.45c-.18,2.24.85,2.85,2.91,2.8C392.57,471.47,399.51,471.41,406.44,471.32Z" fill="#ebece6"/><path d="M148.92,103.05c2.6-.5,5.2-1.42,7.79-1.41,10.7,0,18.63-6.46,27.14-11.35,14.78-8.51,29.22-17.61,44-26.16,14.92-8.64,31.24-10.48,48.12-8.83.47,2.57,2.5,1.46,4,1.68l-.06,0c.19,2.46,2.5,2.77,4,4,5.35,4.35,10.57,8.81,12,16.09a5.17,5.17,0,0,1-3.71-1.13c-5.11-4.14-10.82-4.46-16.88-2.53a29.45,29.45,0,0,1-3.39.67c-.48-2.66-1.88-2.08-3.48-1a49.1,49.1,0,0,1-9.19,4.47c-2.18.85-4.55,1.83-5.31,4.51-7.64,4.3-12.46,10.72-13.9,19.35-.55,3.24-1.32,4.58-5,3.83-3.21-.66-6.66-.14-10-.14a5.47,5.47,0,0,0,2.91,2.36c6.81,1.94,11.26,6.8,15.15,12.27,3.68,5.2,1,17.64-4.4,20.33-11.64,5.8-23.3,7.71-34.7-.68-4.73-3.48-10.07-4.57-15.84-4.38-7.79.27-15.35,2.29-23.07,3C160.94,125.67,156.42,113.68,148.92,103.05Z" fill="#e1c3af"/><path d="M415.68,303.56c3.18,2.14,1,4.62.46,7-2.78-2.41-6.46-.93-9.58-2.31-9.52-4.24-19.09-4.14-29.41-2-12.08,2.53-25.28,5.61-34.29-7.63-1.06-1.86-2-3.79-3.2-5.58-7-10.68-13.58-21.65-20.08-32.66-9.82-16.68-17.14-34.46-23.79-52.56-.61-4.86,1.5-9.34,2-14a110.16,110.16,0,0,0,4.2-30.58,143.78,143.78,0,0,0-3.2-30.31,14.27,14.27,0,0,1,1.63-6.12,56.16,56.16,0,0,0,4.29-21.89l.13,0c1.65.1,2.46-1.32,3.67-2,0,6.47-.91,12.88-1,19.36-.1,9.52,4.84,17.21,8.51,25.24,6.59,14.4,9.79,29.52,11.63,45.05a21.21,21.21,0,0,0,4.28,11.3c7.4,9.48,10.44,21,13.6,32.33,4.41,15.84,10.13,31.23,15.78,46.65.95,2.61,2.27,4.23,5.34,4.09a61.72,61.72,0,0,1,39.69,11.54,4.23,4.23,0,0,0,1.44.37A10.79,10.79,0,0,0,415.68,303.56Z" fill="#d6ad8e"/><path d="M61.7,254c2.9-22.58,5.7-45.18,8.79-67.73.75-5.43-.67-10.56-1-15.83-1-15.5-.13-30.55,9.1-43.95C85.65,116.23,94.93,109.18,107,106c2.19,1.83,4.78.86,7.16.88,4.66,0,9.08.39,13.52,2.3,9.56,4.09,16.67,10.53,21.2,19.85-7.19,1.23-14.34,2.73-21.57,3.61-12,1.46-21.37,13.65-23.19,25.51-1.06,6.88-1.69,13.83-2.56,20.74q-5.41,43.44-10.87,86.89c-6.78,0-12.93-2.93-19.41-4.3-1.79-.79-3.55-1.64-5.37-2.34C63.51,258.21,61.56,257,61.7,254Z" fill="#3c3e3d"/><path d="M431.81,193.76c-8.4,11-16.05,20.94-23.68,30.92-2.92,3.82-6.13,7.47-8.64,11.54-2.61,4.24-4.44,3-6.76,0q-12.93-17-25.94-34a14.16,14.16,0,0,1-1.42-2c-1-2-4.49-3.26-3.08-5.61,1.17-1.94,4.31-.67,6.56-.73,7.64-.21,6.94,1,7-6.94,0-19.61.11-39.22-.07-58.82,0-3.72,1-5,4.74-4.88,10.47.18,20.95.2,31.42,0,3.91-.08,4.72,1.56,4.7,5-.12,20.11.06,40.22-.15,60.32,0,4.11,1,5.74,5.23,5.3C424.63,193.51,427.63,193.76,431.81,193.76Z" fill="#f9be7a"/><path d="M71.31,261.49c6.48,1.37,12.63,4.26,19.41,4.3a16.89,16.89,0,0,0,2.78.88c7.49,1,15,2,22.48,3a187.36,187.36,0,0,0-5,29.48q-2.76,5.72-5.51,11.45c-3.67,5.41-7.46,10.75-9.41,17.1q-2.53-8.52-5.06-17c-.94-3.18-2.69-2-4.54-.93-6.53,3.85-10.76,10.22-14,16.36-6,11.45-10.61,23.55-11.73,36.93-1.54,18.36-4.14,36.65-6.89,54.88C53,424.11,54.55,431,50,436.48c.46-19.74-.21-39.43-3.11-59-1-7-.65-14.14-2.81-20.95q-.06-6.49-.11-13c.63-3.85,3.63-7.63.33-11.6a3.44,3.44,0,0,0,3.19-2.56c2.13-6.25,4.46-12.45,6.71-18.66,1.6-2.86,3-5.84,4.84-8.56s-.32-2.79-1.93-3.34c5.9-.15,6.35-5.6,8.84-9.06,1.27-5.61,2.42-11.24,3.83-16.81C70.78,269.19,68.61,265,71.31,261.49Z" fill="#d6ad8e"/><path d="M407,332.79c-.1,2.32-.29,4.64-.29,6.95q0,55,0,110.07c0,2.47.28,5-.6,7.4L383.12,457c-.13-2.16-.36-4.31-.37-6.46,0-28.28,0-56.55-.05-84.83,0-4.78,2.05-10.95-.83-14-3.15-3.32-9.49-1.29-14.36-1-7.27.37-14.5-1.63-21.75-.18q0-9.18-.05-18.37c2.31-.08,4.62-.21,6.93-.23q26-.13,52.05-.23l2.05.36C406.8,332.28,406.88,332.54,407,332.79Z" fill="#dadadb"/><path d="M294.94,52c2.64-12.76,6.83-24.95,14.28-35.72C320.21.4,335.65-3.79,353.74,3.4c10.56,4.19,18.13,12,25.78,19.89,2.17,2.24,3.59,5.67,7.73,5.43,1.17-.07,1.36,1.63,1.62,2.78,1.67,7.48-4,14.71-12.11,15.45-1.44-6.39-5.1-11.46-9.62-16-4.86-4.83-4.93-4.76-8.44,1.27a48.24,48.24,0,0,0-3.24,5.59c-1.58,3.82-4.16,5.78-8.37,5.34-3.8-.4-6.26,1.33-7.89,4.69a28.16,28.16,0,0,1-3.2,5c-.92,1.15-1,4.21-3.75,2.23-1.92-1.38-4.61-2.51-2.37-5.75,1-1.49,1.67-3.23,2.57-4.82,2.23-4,.54-7.06-2.36-9.59-2.7-2.37-7.86-1.63-10.34,1.23a53.83,53.83,0,0,0-3.18,4.42,7.77,7.77,0,0,0-4.41,4.5C308.65,53.31,302.62,54.57,294.94,52Z" fill="#242222"/><path d="M316.57,40.63a53.83,53.83,0,0,1,3.18-4.42c2.48-2.86,7.64-3.6,10.34-1.23,2.9,2.53,4.59,5.64,2.36,9.59-.9,1.59-1.55,3.33-2.57,4.82-2.24,3.24.45,4.37,2.37,5.75,2.76,2,2.83-1.08,3.75-2.23a28.16,28.16,0,0,0,3.2-5c1.63-3.36,4.09-5.09,7.89-4.69,4.21.44,6.79-1.52,8.37-5.34a48.24,48.24,0,0,1,3.24-5.59c3.51-6,3.58-6.1,8.44-1.27,4.52,4.5,8.18,9.57,9.62,16-2.14,10.56-8.61,18.94-14.51,27.46-5.74,8.3-12.7,15.71-19.52,23.2-3.55,3.9-6.89,3.69-10.32.9a11.52,11.52,0,0,0-8.69-2.73c.71-1.44,2.5-.4,3.48-1.57-1.31-2-2.7-4.06-4-6.17-2.68-4.45-7.3-7.67-8.4-13.13,1-4.8,2-9.61,3.06-14.39.48-2.09,1.57-4.26.69-6.28C316.69,49.84,316.9,45.21,316.57,40.63Z" fill="#e1c3af"/><path d="M17.05,246.75c6.63.67,13.27,1.32,19.91,2,4.07.44,4.25,3.42,4.13,6.54-2.92.34-5.91.18-7.63,3.51-3.18,6.16-.84,17.27,4.65,21.61,2.42,1.91,5.3,3.51,6.07,6.91-.24,2.84-2.65,4.3-4,6.43-.89,1.38-3.5,2.61-1.13,4.83a1.2,1.2,0,0,0,.09.7c-2.27.77-4.35,1.77-5,4.36-.34,1-.68,2-1,3-4.59,7.24-5.92,15.58-7.95,23.68-.56,2.23-.81,4.54-1.37,6.77-.49,1.93-1.06,4-3.81,3.57-5.83-4-10-9.09-11.39-16.13C5.73,310.36,5,296.31,10.82,282.59c1.5-3.52,2.62-7.19,2.06-11.1C11.65,262.79,12.31,254.43,17.05,246.75Z" fill="#d8d6e9"/><path d="M109,463.48c4.18,4.29,10,3.71,15.14,4.89,4,.9,8.54.29,10.91,4.79-3.88,4.77-7.75,9.52-14.15,11.13-14.57,3.66-29,4.64-43.42-1-3.53-1.39-7.12-2.88-11.05-2.51-9.11.88-18.08,1-26.21-4.22.51-2.69,1.22-5.35.92-8.13l2.13-16c4.38-1.23,4.62,2.48,5.91,4.94,1.26,3.36,4.45,3.23,7.08,3.55,7.25.91,14.19.82,18.7-6.61,1.3-2.14,3.11-4.34,6-4.93,2.49-.31,3.78,1.54,5.48,2.84C93.15,457.41,99.82,462.94,109,463.48Z" fill="#d8d6e9"/><path d="M148.91,129c-4.53-9.32-11.64-15.76-21.2-19.85-4.44-1.91-8.86-2.27-13.52-2.3-2.38,0-5,1-7.16-.88,4.48-2.28,9.4-2.75,14.27-3.11,7.88-.59,15.79-.75,23.67-1.31a5.33,5.33,0,0,1,3.95,1.46c7.5,10.63,12,22.62,16.06,34.84q1.88,11.49,3.76,23,.24,7.14.49,14.27c-.85,2.75-4.93,1.7-5.54,4.73-5.34-.27-9.58,3.54-14.73,4,.06-2.31-.23-4.69.22-6.92a146.91,146.91,0,0,0,2.65-35.32C151,137.37,151.1,133,148.91,129Z" fill="#333"/><path d="M406.74,332l-2.05-.36c0-5-.15-10,.05-15,.18-4.54-1.79-6.16-6.25-6.15-35.9.11-71.81.08-107.72.1-.3-4-.44-8.05,1-11.94,17,.29,34.08.44,51.11-.07,9,13.24,22.21,10.16,34.29,7.63,10.32-2.16,19.89-2.26,29.41,2,3.12,1.38,6.8-.1,9.58,2.31,0,1.08,0,2.17,0,3.25a31.15,31.15,0,0,0,0,10.81c-.26,4.13-2.38,6.63-6.49,7.35Z" fill="#242222"/><path d="M44.18,287.35c-.77-3.4-3.65-5-6.07-6.91-5.49-4.34-7.83-15.45-4.65-21.61,1.72-3.33,4.71-3.17,7.63-3.51,5.58.43,11.19.67,16.75,1.36,2.49.31,3.07-1.13,3.86-2.73-.14,3,1.81,4.26,4.24,5.2,1.82.7,3.58,1.55,5.37,2.34-2.7,3.54-.53,7.7-1.49,11.5-1.41,5.57-2.56,11.2-3.83,16.81Z" fill="#c69676"/><path d="M316.57,40.63c.33,4.58.12,9.21,2,13.61.88,2-.21,4.19-.69,6.28-1.09,4.78-2,9.59-3.06,14.39-4.67,8.18-7.5,17.06-10,26.06-.94-8.76-4.61-16.5-9-24-1.43-7.28-6.65-11.74-12-16.09-1.46-1.2-3.77-1.51-4-4,5.75.55,11.44.94,15.08-4.92,7.68,2.56,13.71,1.3,17.22-6.88A7.77,7.77,0,0,1,316.57,40.63Z" fill="#d6ad8e"/><path d="M17.05,246.75c-4.74,7.68-5.4,16-4.17,24.74.56,3.91-.56,7.58-2.06,11.1C5,296.31,5.73,310.36,8.56,324.53c1.41,7,5.56,12.18,11.39,16.13.91,1.82-.27,2.39-1.7,2.63-3.08.5-6,.18-8.25-2.26a22,22,0,0,1-4.56-7.65c-5.49-16-7.56-32.24-2.73-48.81,1.86-6.37,1.46-12.79.91-19.25a56,56,0,0,1-.46-6.94C3.61,248.06,7,245.25,17.05,246.75Z" fill="#4f4e50"/><path d="M396.24,113.92c-5.65,0-11.3-.07-16.95,0-2.49,0-3.44-.74-3.55-3.41-.44-10.39-.55-10.4,9.95-10.42,8.64,0,17.29.12,25.92-.07,3.58-.08,5.09.94,5,4.77-.27,11,.92,8.89-8.9,9.09C403.89,114,400.06,113.92,396.24,113.92Z" fill="#f9be7a"/><path d="M49.13,457.37c-1.29-2.46-1.53-6.17-5.91-4.94q0-46.11-.1-92.21c0-1.3-.26-2.7,1-3.67,2.16,6.81,1.77,14,2.81,20.95,2.9,19.55,3.57,39.24,3.11,59C50.06,443.45,48.4,450.36,49.13,457.37Z" fill="#dadadb"/><path d="M383.12,457l22.93.21.39,14.11c-6.93.09-13.87.15-20.8.31-2.06.05-3.09-.56-2.91-2.8a36.9,36.9,0,0,0-.15-4.45Z" fill="#4f4e50"/><path d="M54.24,310.76C52,317,49.66,323.17,47.53,329.42A3.44,3.44,0,0,1,44.34,332L43,332l-1.9-.05-2-.08c-4.07-1.19-5.72-4.1-5.7-8.15,0-3.28.07-6.56.12-9.83C39.86,309.32,47.14,310.63,54.24,310.76Z" fill="#4f4e50"/><path d="M304.79,101c2.55-9,5.38-17.88,10-26.06,1.1,5.46,5.72,8.68,8.4,13.13,1.26,2.11,2.65,4.13,4,6.17-1,1.17-2.77.13-3.48,1.57-6,.52-10.35,4.31-15.2,7.16-1.21.7-2,2.12-3.67,2Z" fill="#c69676"/><path d="M54.24,310.76c-7.1-.13-14.38-1.44-20.77,3.14v-4.61c1-1.78.73-3.71.62-5.62.69-2.59,2.77-3.59,5-4.36l1.79-.47,16.23,0c1.61.55,3.78.57,1.93,3.34S55.84,307.9,54.24,310.76Z" fill="#242222"/><path d="M43,332l1.36,0c3.3,4,.3,7.75-.33,11.6C42.05,339.87,43.7,335.83,43,332Z" fill="#dadadb"/><path d="M415.68,303.56a10.79,10.79,0,0,1-7.88-4.69C411.46,298.69,414.19,300.09,415.68,303.56Z" fill="#4f4e50"/><path d="M416.17,324.63a31.15,31.15,0,0,1,0-10.81A23.1,23.1,0,0,1,416.17,324.63Z" fill="#d6ad8e"/><path d="M279.92,57c-1.47-.22-3.5.89-4-1.68l1.89.16,1.78.66A3.25,3.25,0,0,1,279.92,57Z" fill="#d6ad8e"/><path d="M34.09,303.67c.11,1.91.4,3.84-.62,5.62l-.39-2.65C33.41,305.65,33.75,304.66,34.09,303.67Z" fill="#4f4e50"/><path d="M406.74,332l2.94,0c-.72.9-1.79.62-2.72.81C406.88,332.54,406.8,332.28,406.74,332Z" fill="#ebece6"/><path d="M279.62,56.12l-1.78-.66C278.64,55.12,279.29,55.19,279.62,56.12Z" fill="#e1c3af"/><path d="M39.05,331.88l2,.08C40.37,332.79,39.7,332.76,39.05,331.88Z" fill="#dadadb"/><path d="M40.17,476.55c8.13,5.17,17.1,5.1,26.21,4.22,3.93-.37,7.52,1.12,11.05,2.51,14.37,5.65,28.85,4.67,43.42,1,6.4-1.61,10.27-6.36,14.15-11.13,3.32,3.13,2.93,8.12-1.08,11.22a32.61,32.61,0,0,1-12.52,5.94c-14.88,3.54-29.77,5.15-44.78.44-4.79-1.51-9.82-1.38-14.83-.79a74.34,74.34,0,0,1-8.95.49C41.83,490.44,39,487.3,40.17,476.55Z" fill="#4f4e50"/><path d="M168.74,160.86q-1.87-11.49-3.76-23c7.72-.7,15.28-2.72,23.07-3,5.77-.19,11.11.9,15.84,4.38,11.4,8.39,23.06,6.48,34.7.68,5.41-2.69,8.08-15.13,4.4-20.33-3.89-5.47-8.34-10.33-15.15-12.27a5.47,5.47,0,0,1-2.91-2.36c3.35,0,6.8-.52,10,.14,3.7.75,4.47-.59,5-3.83,1.44-8.63,6.26-15,13.9-19.34a6.34,6.34,0,0,1-.56,1.85c-6.29,8.82-8.78,18.38-6.57,29.19.8,3.87,3,7.75,1.15,11.93-.16,1-.33,1.94-.5,2.92-1.4,8.23-4.44,16.38-.5,24.78A61,61,0,0,0,256.57,167a7.85,7.85,0,0,1,2.33,5.75c-.32,12.75-.09,25.48,2,38.1l-1.25.1a36.73,36.73,0,0,1-1.74-4.53c-3.5-14.3-8.18-28.29-11-42.76-.48-2.5-.89-4.88-4.33-3.16-8.76,4.36-18.17,4.79-27.68,4.59A34.87,34.87,0,0,0,198,146.67c-2.46-1.29-6.1-2.72-8.74-.36s-1.32,5.44-.58,8.36,2.81,5.2,4.26,7.77c1.11,1.95,3.24,3.43,2.9,6.08l-3.94.11a5.79,5.79,0,0,0-1.21-4.07,77.39,77.39,0,0,1-6.59-9.77c-1.69-3-4-4.39-7.23-3.81s-5.68,2.55-5.92,6.26C170.85,158.85,171.24,160.73,168.74,160.86Z" fill="#d6ad8e"/><path d="M304.79,101l.06,4-.13,0c-2.14.31-1.74,2-1.94,3.44a18.86,18.86,0,0,1-3.49,8.59c-7.84,10.88-25.34,10.13-34.37,2.88-15-12-11.23-38.61,6.92-45.82a29.45,29.45,0,0,0,3.39-.67c6.06-1.93,11.77-1.61,16.88,2.53A5.17,5.17,0,0,0,295.82,77C300.18,84.47,303.85,92.21,304.79,101Z" fill="#e4cab8"/><path d="M271.84,74c-18.15,7.21-21.95,33.77-6.92,45.82,9,7.25,26.53,8,34.37-2.88a18.86,18.86,0,0,0,3.49-8.59c.2-1.46-.2-3.13,1.94-3.44a56.16,56.16,0,0,1-4.29,21.89,14.27,14.27,0,0,0-1.63,6.12c-8.21,1.82-14.28,7.35-20.58,12.28-3.2,2.51-7.23,4.63-8.38,9.17-.26,1-.66,2.07-1.83,2-1.4-.06-1-1.45-1.28-2.32-3.35-10-9.65-18.36-15.23-27.13-.88-1.4-1.9-2.26-3.62-2,1.87-4.18-.35-8.06-1.15-11.93-2.21-10.81.28-20.37,6.57-29.19a6.34,6.34,0,0,0,.56-1.85c.76-2.69,3.13-3.67,5.31-4.52A49.1,49.1,0,0,0,268.36,73C270,71.92,271.36,71.34,271.84,74Z" fill="#dbbaa1"/><path d="M247.88,124.94c1.72-.26,2.74.6,3.62,2,5.58,8.77,11.88,17.12,15.23,27.13.29.87-.12,2.26,1.28,2.32,1.17.05,1.57-1,1.83-2,1.15-4.54,5.18-6.66,8.38-9.17,6.3-4.93,12.37-10.46,20.58-12.28a143.78,143.78,0,0,1,3.2,30.31,110.16,110.16,0,0,1-4.2,30.58c-1.47,0-1.63,1.22-2.23,2.22-3.37,5.66-5.92,5.94-11.13,2-3.54-2.67-5.94-6.17-8.33-9.73-.95-1.41-1.62-3.12-4.42-3,2.29,4.4,4.33,8.28,6.32,12.18,4.44,8.68,10.95,16.24,13.29,26.11.46,1.92.59,6,4.55,6.2,1.93,11.55.64,23-.85,34.5s-3.7,22.82-3.25,34.44c-1.42,3.89-1.28,7.91-1,11.94,0,1,0,2,0,3a11.12,11.12,0,0,0,.15,6.87L299,332.46l1.05,4.33.1,1.69a2.09,2.09,0,0,0,.4,2.21c.39,3.88.12,7.83,1.24,11.63a2.12,2.12,0,0,1-1.71,1.54c-.63-2.77-2.85-2.25-4.75-2.25q-17.52,0-35.05,0-.27-7.49-.55-15c.12-1.62.24-3.23.35-4.84,2.79-7.15,5.26-14.34,2.71-22.14l-.18-9.83-.88-1.38c.72-6.74-1.27-13.23-1.8-19.85,1.65-1.88.91-4.16.83-6.22a153.51,153.51,0,0,1,4.1-40.32c1.84-7.85-1.15-14.48-4-21.28-2.09-12.62-2.32-25.35-2-38.1a7.85,7.85,0,0,0-2.33-5.75,61,61,0,0,1-9.69-14.31c-3.94-8.4-.9-16.55.5-24.78C247.55,126.88,247.72,125.91,247.88,124.94Z" fill="#e1c3af"/><path d="M295.79,207.85c-2.88,4.94-1,10.11-.55,15.15.21,2.25.56,4.5.61,6.78-4-.2-4.09-4.28-4.55-6.2-2.34-9.87-8.85-17.43-13.29-26.11-2-3.9-4-7.78-6.32-12.18,2.8-.1,3.47,1.61,4.42,3,2.39,3.56,4.79,7.06,8.33,9.73,5.21,3.93,7.76,3.65,11.13-2,.6-1,.76-2.19,2.23-2.22C297.29,198.51,295.18,203,295.79,207.85Z" fill="#dbbaa1"/><path d="M148.91,129c2.19,3.91,2.13,8.33,2.92,12.56-5.3,1.4-10.66,2.6-15.89,4.24-6.77,2.14-9.62,5.88-9.77,12.22-.33,14.8-.59,29.6-.94,44.39-.53,22.45-1.39,44.88-3.82,67.21H116c-7.49-1-15-2-22.48-3a16.89,16.89,0,0,1-2.78-.88q5.44-43.44,10.87-86.89c.87-6.91,1.5-13.86,2.56-20.74,1.82-11.86,11.15-24,23.19-25.51C134.57,131.77,141.72,130.27,148.91,129Z" fill="#2eafb7"/><path d="M93,350.57c-2.29,14.85-4.85,29.66-6.81,44.56-2.36,18-5,36-5.34,54.25-2.85.59-4.66,2.79-6,4.93-4.51,7.43-11.45,7.52-18.7,6.61-2.63-.32-5.82-.19-7.08-3.55-.73-7,.93-13.92.91-20.9C54.55,431,53,424.11,53.88,417.9c2.75-18.23,5.35-36.52,6.89-54.88,1.12-13.38,5.74-25.48,11.73-36.93,3.21-6.14,7.44-12.51,14-16.36,1.85-1.1,3.6-2.25,4.54.93q2.52,8.54,5.06,17c.29,1.45-.6,3.11.76,4.37C93.92,337.9,94.61,344.47,93,350.57Z" fill="#dbbaa1"/><path d="M96.82,332.07c-1.35-1.26-.46-2.92-.75-4.37,2-6.35,5.74-11.69,9.41-17.1q75.81,0,151.63,0c1.91,0,4,.73,5.71-.9,2.55,7.8.08,15-2.71,22.14l-9.12-.27c-.05-.65-.14-1.31-.15-2-.2-12.91-2.36-15.23-15.16-15-4.3.09-8.82-1.48-12.94,1.05-1.25,0-1.9.95-2.77,1.71-4.75,4.11-2.34,9.78-3.4,14.68-2.82-.05-5.65-.17-8.47-.16l-104.28.18a.37.37,0,0,0-.62,0H99.87a.44.44,0,0,0-.69,0Z" fill="#4f4e50"/><path d="M116,269.67h5.43c5.39,1.61,7.61-1.42,8.77-6,.61.23,1.43.28,1.8.71,10.06,11.76,21,22.38,34.39,30.5,9.84,6,19.34,6.51,28.6-.43.18-.14.79.29,1.21.46-3,5.14,2.08,2.95,3.61,4-2.58,1.31-5.72-.29-8.28,2.36-5.9,6.1-13.39,7.11-21.61,6-19.63-2.75-38.76-9.14-58.91-8.08A187.36,187.36,0,0,1,116,269.67Z" fill="#c69676"/><path d="M111,299.15c20.15-1.06,39.28,5.33,58.91,8.08,8.22,1.15,15.71.14,21.61-6,2.56-2.65,5.7-1,8.28-2.36h55.28l7.57.93.18,9.83c-1.69,1.63-3.8.9-5.71.9q-75.81.06-151.63,0Q108.23,304.87,111,299.15Z" fill="#242222"/><path d="M290.81,313.66c0-1,0-2,0-3,35.91,0,71.82,0,107.72-.1,4.46,0,6.43,1.61,6.25,6.15-.2,5-.05,10-.05,15q-26,.12-52.05.23c-2.31,0-4.62.15-6.93.23-1.28-1.81-.52-3.87-.74-5.81s.5-3.74-.68-5.34c-2.74-3.73-5.15-7.7-11.07-6.54-5.41,1.06-11.15-1.25-16.51,1.23a7,7,0,0,0-1.7.8c-4.91,4.11-4.23,9.82-4.34,15.29-3.89.13-7.84-.78-11.64.71L291,320.53A6.56,6.56,0,0,0,290.81,313.66Z" fill="#4f4e50"/><path d="M316.71,315.66c5.36-2.48,11.1-.17,16.51-1.23,5.92-1.16,8.33,2.81,11.07,6.54,1.18,1.6.48,3.55.68,5.34s-.54,4,.74,5.81q0,9.19.05,18.37c0,4.64.22,9.29-.09,13.9-.26,4-1.87,7.31-6.36,8.2q-.27-6-.53-12c.1-9.46.11-18.92.34-28.37.07-2.76-1.07-3.34-3.53-3.26-5,.15-10-.15-14.95.12-3.18.17-4-.95-3.83-3.95S316.76,318.81,316.71,315.66Z" fill="#ebece6"/><path d="M39,298.61l1.89.23-1.8.47A1.2,1.2,0,0,1,39,298.61Z" fill="#d6ad8e"/><path d="M130.18,263.68c-1.16,4.56-3.38,7.59-8.77,6,2.43-22.33,3.29-44.76,3.82-67.21.35-14.79.61-29.59.94-44.39.15-6.34,3-10.08,9.77-12.22,5.23-1.64,10.59-2.84,15.89-4.24a146.91,146.91,0,0,1-2.65,35.32c-.45,2.23-.16,4.61-.22,6.92-.91,5.18-1.79,10.37-2.74,15.55-3,16.58-8,32.69-12.38,48.93-.8,3,.27,3.5,2.58,3.76-2.87.16-4.18,1.76-4.6,4.53C131.46,259,130.74,261.32,130.18,263.68Z" fill="#3c3e3d"/><path d="M136.42,252.08c-2.31-.26-3.38-.81-2.58-3.76,4.39-16.24,9.34-32.35,12.38-48.93.95-5.18,1.83-10.37,2.74-15.55,5.15-.44,9.39-4.25,14.73-4,7.68,16.14,14.15,32.8,21.14,49.25,1.41,3.31-1.2,4.38-2.3,6.37C168.86,245.73,153.27,250.65,136.42,252.08Z" fill="#242222"/><path d="M169.82,175.12l-.3.14-.29-.13q-.25-7.14-.49-14.27c2.5-.13,2.11-2,2.21-3.62.24-3.71,2.62-5.65,5.92-6.26s5.54.84,7.23,3.81a77.39,77.39,0,0,0,6.59,9.77,5.79,5.79,0,0,1,1.21,4.07c-5.28,4.06-11.49,5.07-17.91,5.37,0-3.81-2.89-6.43-4.17-9.82Z" fill="#dbbaa1"/><path d="M99.87,332.06h3.32l.32.31.31-.31,104.28-.18c2.82,0,5.65.11,8.47.16l-.45,1.09q-7.32,7.11-14.62,14.21c-.8.78-1.93,1.47-1.2,2.89-4.82.1-9.63.28-14.45.29q-46.41,0-92.83,0c1.59-6.1.9-12.67,3.81-18.5h3Z" fill="#dadadb"/><path d="M316.71,315.66c.05,3.15.32,6.32.1,9.45s.65,4.12,3.83,3.95c5-.27,10,0,14.95-.12,2.46-.08,3.6.5,3.53,3.26-.23,9.45-.24,18.91-.34,28.37-6.15,0-12.31,0-18.47-.07-2.54-.05-3.65.83-3.55,3.46.12,3.32,0,6.65,0,10-5.12-3.69-6.06-8.78-5.85-14.79.28-8.17,1.53-6.7-7.07-7a16.74,16.74,0,0,0-2,.18c-1.12-3.8-.85-7.75-1.24-11.63a1.92,1.92,0,0,0-.4-2.21c0-.56-.07-1.13-.1-1.69a48.82,48.82,0,0,1,6.39-.12c4,.43,4.93-1.46,4.2-4.92.11-5.47-.57-11.18,4.34-15.29A7,7,0,0,1,316.71,315.66Z" fill="#333"/><path d="M216.12,333.14l.45-1.09c1.06-4.9-1.35-10.57,3.4-14.68.87-.76,1.52-1.66,2.77-1.71.06,3.32.29,6.64.12,9.95-.13,2.56.6,3.53,3.29,3.43,5.14-.19,10.3,0,15.44-.1,2.43-.06,3.6.46,3.54,3.25-.23,9.45-.22,18.91-.3,28.37l-8.89,0c-12.89,0-12.89,0-13.11,13.07,0,.17,0,.33,0,.49-4.45-3.49-6.77-7.79-6.09-13.7.4-3.42-.07-6.94-.15-10.42C216.71,344.35,217.52,338.71,216.12,333.14Z" fill="#333"/><path d="M244.83,360.56c.08-9.46.07-18.92.3-28.37.06-2.79-1.11-3.31-3.54-3.25-5.14.14-10.3-.09-15.44.1-2.69.1-3.42-.87-3.29-3.43.17-3.31-.06-6.63-.12-9.95,4.12-2.53,8.64-1,12.94-1.05,12.8-.26,15,2.06,15.16,15,0,.66.1,1.32.15,2l0,5.16q0,7.52,0,15.05l.95,1c-1.77,4-.84,8.15-1.09,12.25-.23,3.68-1.25,6.83-5.54,7.56Z" fill="#ebece6"/><path d="M316.72,373.94c0-3.33.16-6.66,0-10-.1-2.63,1-3.51,3.55-3.46,6.16.11,12.32.05,18.47.07q.27,6,.53,12l-.27.15-.24-.18c-.13.1-.38.22-.37.27a5,5,0,0,0,.32.71c-.48,2-2.13,1.15-3.2,1.1C329.28,374.32,322.94,375.58,316.72,373.94Z" fill="#4f4e50"/><path d="M244.83,360.56l.48,12.05-.26.14-.21-.2c-.12.09-.35.21-.34.28a3.75,3.75,0,0,0,.29.69c-.27,1.89-1.77,1.15-2.73,1.12-6.41-.24-12.87.75-19.25-.56,0-.16,0-.32,0-.49.22-13.07.22-13.07,13.11-13.07Z" fill="#4f4e50"/><path d="M251.94,352.8l-.95-1.05,9.32-.13q17.52,0,35.05,0c1.9,0,4.12-.52,4.75,2.25-1,4-3.76,5.65-7.71,5.65l-22.91,0c-2.2,0-4.66,0-5.71-2.21C261.19,352,256.64,352.31,251.94,352.8Z" fill="#d6ad8e"/><path d="M216.12,333.14c1.4,5.57.59,11.21.45,16.82l-16.27.29c-.73-1.43.4-2.12,1.2-2.9Q208.79,340.24,216.12,333.14Z" fill="#76767b"/><path d="M244.79,373.52a3.75,3.75,0,0,1-.29-.69c0-.07.22-.19.34-.28Z" fill="#333"/><path d="M338.75,373.54a5,5,0,0,1-.32-.71c0-.05.24-.17.37-.27Z" fill="#333"/><path d="M214.92,165c-5.75,4.48-12.41,4-19.08,3.48.34-2.65-1.79-4.13-2.9-6.08-1.45-2.57-3.5-4.77-4.26-7.77s-2-6.1.58-8.36,6.28-.93,8.74.36A34.87,34.87,0,0,1,214.92,165Z" fill="#dbbaa1"/><path d="M260,278.62c-2.37-15.56-5.62-31-1.79-46.9,1.61-6.67,4.39-13.66,1.48-20.82l1.25-.1c2.84,6.8,5.83,13.43,4,21.28a153.51,153.51,0,0,0-4.1,40.32C260.87,274.46,261.61,276.74,260,278.62Z" fill="#dbbaa1"/><path d="M260.31,351.62l-9.32.13q0-7.51,0-15l8.73,0Q260,344.15,260.31,351.62Z" fill="#333"/><path d="M310.67,331.75c.73,3.46-.2,5.35-4.2,4.92a48.82,48.82,0,0,0-6.39.12L299,332.46C302.83,331,306.78,331.88,310.67,331.75Z" fill="#76767b"/><path d="M259.76,336.66l-8.73,0c0-1.72,0-3.44,0-5.16l9.12.27C260,333.43,259.88,335,259.76,336.66Z" fill="#76767b"/><path d="M290.81,313.66a6.56,6.56,0,0,1,.15,6.87A11.12,11.12,0,0,1,290.81,313.66Z" fill="#242222"/><path d="M255.07,298.92l6.69-.45.88,1.38Z" fill="#c69676"/><path d="M300.18,338.48a1.92,1.92,0,0,1,.4,2.21A2.09,2.09,0,0,1,300.18,338.48Z" fill="#76767b"/><path d="M103.82,332.07l-.31.31-.32-.31A.38.38,0,0,1,103.82,332.07Z" fill="#dbbaa1"/><path d="M99.87,332.06h-.7A.46.46,0,0,1,99.87,332.06Z" fill="#dbbaa1"/><path d="M136.42,252.08c16.85-1.43,32.44-6.35,46.11-16.6,6.05,13.43,11.73,27,15.69,41.21a23.09,23.09,0,0,1-2.05,18.23c-.41-.17-1-.6-1.2-.46-9.26,6.94-18.76,6.39-28.6.43C153,286.77,142,276.15,132,264.39c-.37-.43-1.19-.48-1.8-.71.56-2.36,1.28-4.69,1.64-7.07C132.24,253.84,133.55,252.24,136.42,252.08Z" fill="#d6ad8e"/><path d="M169.82,175.12V164.18c1.28,3.39,4.22,6,4.17,9.82A6.15,6.15,0,0,1,169.82,175.12Z" fill="#d6ad8e"/></g></g></svg>