<svg xmlns="http://www.w3.org/2000/svg" viewBox="0 0 554.5 383.77"><title>ex_d2_1_2</title><g id="Layer_2" data-name="Layer 2"><g id="Layer_1-2" data-name="Layer 1"><path d="M537.35,367.6c3.16,0,6.33,0,9.49,0,4.78.08,7.6,3,7.66,7.81,0,3.67-3.71,7.83-7.38,8.12-1,.09-2,0-3,0q-254.47,0-508.95.19c-7.55,0-12.24-6-8.85-12.15l14.92-4,303,0c1.38,2-2.13,6.39,3,6.39,5.63,0,11.29.58,16.9-.37l153.72,0c4.23.87,8.56-.13,12.75.48C536,374.92,538.09,372.89,537.35,367.6Z" fill="#ebebe5"/><path d="M210.39,290.73c-.79-2.24,1.2-1.91,2.24-2.32A408.37,408.37,0,0,1,268,271c4.2-1,7.63-1.74,8.31-6.87.29-2.19,1.83-4.21,2.81-6.31a12.72,12.72,0,0,1,3,.12c9.21,2.67,18.41,5.35,27.57,8.18,2.29.71,5.11.37,6.62,2.91-6.89,18.2-10.82,21-29.86,20.93-22.28-.1-44.56-.61-66.73,2.59-3.47.5-4.2,1.6-3.34,4.7,2.4,8.65,5.31,17.12,8.56,25.49.86,2.2,2.06,2.51,4.22,2.1,6.37-1.2,12.79-2.1,19.18-3.23,18-3.17,36.21-5,53.91-9.76,10.22-2.74,17-9.28,21.11-18.88a83.77,83.77,0,0,0,4.47-15.27c.63-2.84,0-4.87-2.73-6.09.93-1.17,2-.66,3.13-.36,6.18,1.66,12.45,3,18.54,4.93,2.64.83,6.21-.89,7.92,2.66,0,1,0,1.93,0,2.9-1.36,1.94-.82,4.06-.58,6.16a49.53,49.53,0,0,1-5.58,21.48c-10.63,20.79-30.43,29.34-50.93,34.95-17.52,4.79-36.19,4.47-54.32,6.6-7,.83-11.43-.31-13.24-7.46-6.28-13.29-11.84-26.87-16.8-40.71Q211.81,296.74,210.39,290.73Z" fill="#1a1b1b"/><path d="M461.24,101c0-8.64.13-17.28-.07-25.92-.07-3.07.89-4,3.94-4,10.14.16,20.28.13,30.42,0,3.06,0,4.07,1.18,4.05,4.14-.12,17.27,0,34.55-.28,51.82-.06,3.4,1.08,4.08,3.89,4,1.83-.07,3.66-.1,5.49,0,1.23.07,2.88-.75,3.57.8.55,1.25-.87,2-1.53,2.9-9.2,12.14-18.52,24.2-27.63,36.41-2,2.73-3,3.09-5.28.11-9.17-12.18-18.62-24.17-27.92-36.26-.75-1-2.13-2.08-1.25-3.46.67-1.06,2.14-.49,3.26-.51,9.33-.17,9.33-.17,9.34-9.6V101Z" fill="#f9be79"/><path d="M497.6,225.93c.15,5.11.47,10.23.39,15.34-.08,5.48-3.16,8.36-8.81,8.42-11.41.12-22.82.12-34.22.17l-28.07,0c-11.24-.07-22.47-.12-33.71-.21-6.51-.05-9.2-2.81-9.3-9.39,0-2.47-.15-4.94-.22-7.41,0-2.15.41-4.35,0-6.43-1.2-6.77,2.84-9.94,8.05-12.48a12.64,12.64,0,0,1,5.79-1.08c6.45,0,12.9,0,19.35,0-2.32,3.51-6.36,5.61-8.55,10,24.33,0,48.11.07,71.88,0C486.25,222.84,492.15,222.94,497.6,225.93Z" fill="#4f5051"/><path d="M149.32,319.89c6.34-1.27,11.29-5.31,16.52-8.62a37.59,37.59,0,0,1,19.09-5.52,8.56,8.56,0,0,0,4.23-1.08c1.78,3.05-1.31,4.29-2.54,5.91a68.87,68.87,0,0,0-5.42,9.06c-3.66,4.83-7,9.92-11,14.46-9,10.27-21.27,15.76-33.28,21.48-13.22,6.29-27.45,4.62-41.16,3.73-16.29-1.07-32.37-.1-48.47,1.4-10.38,1-13.47-5.41-10.89-15.07,5.43-.42,10.89-.67,16.31-1.32,11.95-1.45,23.85-3.38,35.82-4.6a165,165,0,0,0,48.81-12.44C141.48,325.49,146.41,324.09,149.32,319.89Z" fill="#ddbaa1"/><path d="M517.81,373.64l-153.72,0-.18-19.93,62.93-.18H455l62.94.21Q517.89,363.7,517.81,373.64Z" fill="#a5a5a8"/><path d="M455,353.56h-28.2q0-51.82.05-103.66l28.07,0Q455,301.72,455,353.56Z" fill="#bebdbd"/><path d="M282.69,170.17c-2.77-2.81-2-6.67-2.25-9.89a160.49,160.49,0,0,1,3.29-45.22c1.12-5.1,3.42-10,8.09-13.11,1,.35,1.19,1.17,1.21,2.09a6,6,0,0,0-.32,6.33l1.37.06V104c3.91-7.66,9.55-13.39,18-16,.4.29.87.89,1.17.81,7.09-1.84,12.8,1.18,18.35,5,7.71,5.29,10.14,18.25,4.24,25.25-9.23,11-31.58,13.83-40.17-1.9-.41-.74-.57-2.08-2.36-1.42.27,3.77,2.47,6.55,4.86,9.24.11,1.64,1.33,2.56,2.26,3.73,4.43,5.52,10.62,8.3,16.87,11-.51,5.19-2.65,9.82-4.82,14.49-3.68,7.94-9.32,12.7-18.3,14.1C290.36,168.92,286.14,167.5,282.69,170.17Z" fill="#e1c3af"/><path d="M420.92,91.09c7,2.41,8.35,4.29,9,11.23,2.17,22.33-.72,44.34-3.62,66.4-1.16,8.87-1.83,17.8-3.36,26.63l-.27,3.51c-3.55.38-6.84-.75-10.19-1.64-1.77-.47-4-1-4.71,1.25-1.79,5.93-7,7.24-11.71,9.38-3.25,1.48-6.07,1.28-8.17-1.77-.83-1.22-1.88-1.13-3-1.24.85-2.06,3-2.35,4.62-3.36,3.11-1.94,6.83-3,9.17-6.06l2.93-.72c6.89,1.26,7.26.93,7.32-6.54,0-.16,0-.33,0-.49,1.69-16.26-2.73-31.85-5.64-47.53-1.76-9.48-1.29-18.85-1.12-28.25a20.16,20.16,0,0,1,4.2-12c.77-1,2.32-2.31.54-3.85.74-1.55,2.12-1.72,3.66-2C414.1,93.25,417.71,92.85,420.92,91.09Z" fill="#ddbaa1"/><path d="M265.13,20.2c-3.89-6.3-4.19-11.61-.76-15.64,1.51-1.77,2.75-2.62,5.78-1.58,5.39,1.85,11-.69,16.56-1.37C294.13.69,301.54-.8,309,.52,326.42,3.6,335.57,17.87,332.64,37c-1.41,9.21-4.46,18-6.76,27-2.32.07-4.66,0-7,.27-3.49.39-4.24-1.18-3.83-4.33s.85-6.6-.12-9.88c.33-1.78.76-3.55,1-5.35.45-3.8-1.21-6.53-4.8-7.7-5.19-1.7-15.1,5-14.91,10.39.17,4.81-1.52,6.55-6.08,6-1.63-5.5-.38-11.13-.74-16.7-.09-1.45.56-3.45-.82-4.19-6-3.26-4.68-8.36-3.55-13.35,1-4.49-.66-5.17-4.87-4.75C274.51,15,270.24,18.55,265.13,20.2Z" fill="#1a1b1b"/><path d="M291.63,222.81c.15-1.65.29-3.31.44-5,4.5,2,9.28,3.17,14,4.54,2.58.75,4.94.3,6.21-1.72a6,6,0,0,0-.41-7.38,22.07,22.07,0,0,0-4.52-3.81c-5.32-3.47-11.54-4.63-17.47-6.54l-1-2.12c6.42,1.36,13,2.19,18.72,5.79,2.78,1.76,3.85.39,4.4-2.16,1.12-5.26-2.47-10.93-8.34-12.77A130.23,130.23,0,0,0,289.82,188c-2.37-.46-2.89-1.07-1.72-3.09l4,.94,1,0c7.56.38,14.48,3,21.48,5.63,7.78,2.88,9.83,2.13,14.37-5,9.18-14.44,13.06-30.5,14-47.4L349,137c2.33,1.08,2,3.2,2,5.17-.08,7.11-.45,14.2-.77,21.3a166,166,0,0,1-10.42,51.24c-2.72,7.27-4.58,15.36-11.76,20.16-.71-1.18-1.88-.94-3-1-.69-1-1.37-1.07-2,0l0,0c-4.14-.14-7.65,1.82-11,3.71-7.9,4.43-16,7.51-25.29,6,1.12-2.58,2.23-5.17,3.35-7.76,4.84.41,9.54,3,14.53.92,2.88-1.2,5.32-2.76,5.42-6.34s-2.17-5.14-5-6C300.7,223.13,296.36,221.21,291.63,222.81Z" fill="#d6ad8e"/><path d="M36.37,345.64c-2.58,9.66.51,16,10.89,15.07,16.1-1.5,32.18-2.47,48.47-1.4,13.71.89,27.94,2.56,41.16-3.73,12-5.72,24.26-11.21,33.28-21.48,4-4.54,7.37-9.63,11-14.46,3.85-1.28,6.31-5.22,10-6.16,8.67-2.17,10.61-7.15,7.72-14.94,3.34-3.31,8.43-4.05,11.45-7.81q1.43,6,2.84,12c-1.26,3.51-4.74,3.25-7.4,4.07-3.5,1.08-4.43,3-3.32,6.27q.8,2.35,1.72,4.66,5,12.39,10,24.77l-12.95.15c-8.92.11-17.23,1.8-25,6.79-18.16,11.68-37.66,19-59.82,16a340.55,340.55,0,0,0-75-1.62c-8.25-1.22-10.95-5.36-9.61-14.93.5-3.62,1.25-7.16,5.53-8.31Z" fill="#d6ad8e"/><path d="M422.7,198.86l.27-3.51,5,0h1c19.81,0,39.62-.14,59.42-.09,7,0,9.71,2.78,9.64,9.73s.57,13.95-.37,20.91c-5.45-3-11.35-3.09-17.38-3.06-23.77.11-47.55,0-71.88,0,2.19-4.35,6.23-6.45,8.55-10C421.93,209.53,422.38,204.22,422.7,198.86Z" fill="#7a797c"/><path d="M290.16,53.4c4.56.58,6.25-1.16,6.08-6C296.05,42,306,35.34,311.15,37c3.59,1.17,5.25,3.9,4.8,7.7-.22,1.8-.65,3.57-1,5.35-4,1.47-5.88,6.2-10.61,6.64-1.14.11-1.41,1.73-1.12,3,.36,1.55,1.68,1.51,2.79,1.33a31.89,31.89,0,0,0,4.24-1.32c-1.19,7.15-2.18,13.93-3.51,20.66-.54,2.74.28,2.85,2.48,2.16,6-1.9,12-3.29,18.47-1.94a5.82,5.82,0,0,0,5.44-1.64c6.42-.54,12.76-1.74,19.22-2.1A134.51,134.51,0,0,1,412.9,87.37c2.71,1.14,5.79,1.54,8,3.72-3.21,1.76-6.82,2.16-10.32,2.87-1.54.31-2.92.48-3.66,2-4,1.41-6.27,4.6-8.4,7.94-4,6.21-3.7,13.18-3.57,20.12l-5.91.73c-1.3-8.22,1.61-15.53,4.9-22.76l12.19-9.12c-10.65-4.82-21.47-6.64-32.18-8.86-9.52-2-19.05-.47-28.58,0-1.5.08-3.54-.79-4.19,1.51-.54,1.93.93,3,2.09,4.2s2,2.26,3.69,2.28c.61,1.37,2.19,2.22,2.09,4-4.71-1.18-8.06-4.89-12.46-6.66-8-3.25-16.13-5.25-24.55-1.32-8.43,2.58-14.07,8.31-18,16L293,104c0-.92-.22-1.74-1.21-2.09.11-1,.23-2,.35-3A5,5,0,0,0,295,95.71q1.95-9.63,3.81-19.29c.21-1-.07-2.51-1.27-1.84-3.93,2.2-9.2,1.15-12.34,5.15-3.89.49-7.83.73-11.65,1.55-3.65.78-6.43-.06-8.64-3,1.81-4.8,6.44-3.33,9.82-4.1,8.69-2,16.27-9.89,17.05-18.53C291.88,54.27,290.59,54.21,290.16,53.4Z" fill="#d6ad8e"/><path d="M37.33,340.62c-4.28,1.15-5,4.69-5.53,8.31-1.34,9.57,1.36,13.71,9.61,14.93-.06,1.25-.11,2.5-.16,3.74l-14.92,4-5.21.89c-1.78-2.76-4.51-5.14-4.69-8.59-.6-11.77-4.49-22.59-8.94-33.32a25.84,25.84,0,0,1-1.6-8.27c-.67-11.48-1.84-23.16,8.61-31.64,3.66.81,4,4.16,4.83,6.83,2.43,7.5,4.58,15,9.09,21.72a63.62,63.62,0,0,0,9,11.06c1.56,1.47,3.32,2.85,2.91,5.38,0,.33,0,.66,0,1-1.51.95-3,1.92-3,4Z" fill="#d8d6e9"/><path d="M290.16,53.4c.43.81,1.72.87,1.6,2.26-.78,8.64-8.36,16.55-17.05,18.53-3.38.77-8-.7-9.82,4.1-3-4.71-2.32-10.15-2.63-15.25-.85-14.37-.3-28.71,2.87-42.84,5.11-1.65,9.38-5.22,15.05-5.79,4.21-.42,5.88.26,4.87,4.75-1.13,5-2.49,10.09,3.55,13.35,1.38.74.73,2.74.82,4.19C289.78,42.27,288.53,47.9,290.16,53.4Z" fill="#e1c3af"/><path d="M292.07,185.86l-4-.94H286c-1.87-3.34,1-6.65.07-10,4.49.35,8.88-.63,13.3-1.09,13.71-1.4,22.07-9.14,26.21-21.94q1.77-5.43,3.56-10.84c4.72.09,9.22-1.39,13.84-2-1,16.89-4.84,32.95-14,47.39-4.54,7.14-6.59,7.89-14.37,5-7-2.59-13.92-5.25-21.48-5.63C292.76,185.32,292.42,185.3,292.07,185.86Z" fill="#e1c3af"/><path d="M316.29,269c-1.51-2.54-4.33-2.2-6.62-2.91-9.16-2.83-18.36-5.51-27.57-8.18a12.72,12.72,0,0,0-3-.12c1-3,2.08-6,3-9.07a2.76,2.76,0,0,1,2.91-2,81,81,0,0,0,15.65,4.36c2.82,1.74,6.1,2.08,9.19,3,10.93,3.13,21.72,6.83,33,8.77,3.87,1.85,8.05,2.19,12.24,2.5,1.4,4.54-.78,9-.45,13.48-1.71-3.55-5.28-1.83-7.92-2.66-6.09-1.92-12.36-3.27-18.54-4.93-1.15-.3-2.2-.81-3.13.36C322.26,270.36,319.65,268.42,316.29,269Z" fill="#4f5051"/><path d="M36.37,345.64l1-5,0,0c2.5-.19,3.67-2,4.88-3.87l.34-.32c36-3.17,71.34-10.14,106.8-16.58-2.91,4.21-7.84,5.61-12,7.4A165,165,0,0,1,88.5,339.72c-12,1.22-23.87,3.15-35.82,4.6C47.26,345,41.8,345.22,36.37,345.64Z" fill="#ead2c2"/><path d="M14.5,290.69c-10.45,8.48-9.28,20.16-8.61,31.64a25.84,25.84,0,0,0,1.6,8.27c4.45,10.73,8.34,21.55,8.94,33.32.18,3.45,2.91,5.83,4.69,8.59-8.52,2.58-11.35.95-13.07-7.85a40.22,40.22,0,0,1-.63-7.91c0-6.07-1.48-11.71-3.45-17.43-5.06-14.68-5.45-29.54-.2-44.35,1.54-4.36,4.57-6.32,9.19-5.88A1.59,1.59,0,0,1,14.5,290.69Z" fill="#4f5051"/><path d="M329.11,141.08q-1.78,5.41-3.56,10.84c-4.14,12.8-12.5,20.54-26.21,21.94-4.42.46-8.81,1.44-13.3,1.09-1.22-1.52-3.3-2.44-3.35-4.78,3.45-2.67,7.67-1.25,11.47-1.85,9-1.4,14.62-6.16,18.3-14.1,2.17-4.67,4.31-9.3,4.82-14.49Z" fill="#d6ad8e"/><path d="M479.4,62.27c-4.66,0-9.32-.18-14,0-3.25.17-4.33-.89-4.33-4.2,0-8.22-.16-8.48,7.78-8.65,9-.18,17.93.37,26.88.18,3-.07,3.28,1,3.27,3.36-.05,11.26.86,9-8.68,9.25C486.71,62.35,483.05,62.28,479.4,62.27Z" fill="#f9be79"/><path d="M333.15,78.93a5.82,5.82,0,0,1-5.44,1.64c-6.44-1.35-12.46,0-18.47,1.94-2.2.69-3,.58-2.48-2.16,1.33-6.73,2.32-13.51,3.51-20.66A31.89,31.89,0,0,1,306,61c-1.11.18-2.43.22-2.79-1.33-.29-1.22,0-2.84,1.12-3,4.73-.44,6.63-5.17,10.61-6.64,1,3.28.55,6.61.12,9.88s.34,4.72,3.83,4.33c2.3-.26,4.64-.2,7-.27C327.54,69.36,330.93,73.86,333.15,78.93Z" fill="#c69575"/><path d="M517.81,373.64q.08-9.93.17-19.87c5.24-.08,10.5,0,15.74-.27,3-.16,3.53,1.19,3.44,3.78-.13,3.43.11,6.88.19,10.32.74,5.29-1.36,7.32-6.79,6.52C526.37,373.51,522,374.51,517.81,373.64Z" fill="#4f5051"/><path d="M286,184.93h2.13c-1.17,2-.65,2.63,1.72,3.09a130.23,130.23,0,0,1,13.82,3.67c5.87,1.84,9.46,7.51,8.34,12.77-.55,2.55-1.62,3.92-4.4,2.16-5.71-3.6-12.3-4.43-18.72-5.79C285.82,195.9,286.18,190.36,286,184.93Z" fill="#ddbaa1"/><path d="M289.88,202.94c5.93,1.91,12.15,3.07,17.47,6.54a22.07,22.07,0,0,1,4.52,3.81,6,6,0,0,1,.41,7.38c-1.27,2-3.63,2.47-6.21,1.72-4.72-1.37-9.5-2.53-14-4.54C288.06,213.36,289.28,208.11,289.88,202.94Z" fill="#ddbaa1"/><path d="M291.63,222.81c4.73-1.6,9.07.32,13.43,1.61,2.83.84,5.09,2.51,5,6s-2.54,5.14-5.42,6.34c-5,2.09-9.69-.51-14.53-.92C289.93,231.41,289.56,227,291.63,222.81Z" fill="#ddbaa1"/><path d="M300.72,251.09a81,81,0,0,1-15.65-4.36,4.57,4.57,0,0,1,1.69-3.15c9.26,1.47,17.39-1.61,25.29-6,3.38-1.89,6.89-3.85,11-3.71-.54,1.37-1.8,1.86-3,2.4A55.91,55.91,0,0,0,300.72,251.09Z" fill="#c69575"/><path d="M285.18,79.73c3.14-4,8.41-3,12.34-5.15,1.2-.67,1.48.79,1.27,1.84q-1.87,9.64-3.81,19.29A5,5,0,0,1,292.17,99c-1.67-3.11-1.44-6.63-2.07-9.95C289.4,85.36,288.09,82.17,285.18,79.73Z" fill="#c69575"/><path d="M198.94,298.54c2.89,7.79.95,12.77-7.72,14.94-3.71.94-6.17,4.88-10,6.16a68.87,68.87,0,0,1,5.42-9.06c1.23-1.62,4.32-2.86,2.54-5.91C192.81,303.24,195.06,299.58,198.94,298.54Z" fill="#ead2c2"/><path d="M40.33,336.66c0-.32,0-.65,0-1l2.19.78-.34.32Z" fill="#ead2c2"/><path d="M428.91,195.38h0Z" fill="#ddbaa1"/><path d="M344.21,367.65c.14-3.45.44-6.91.36-10.35-.05-2.59.4-4,3.47-3.81,5.28.28,10.58.19,15.87.25l.18,19.93c-5.61.95-11.27.37-16.9.37C342.08,374,345.59,369.62,344.21,367.65Z" fill="#4f5051"/><path d="M316.29,269c3.36-.59,6,1.35,8.79,2.58s3.36,3.25,2.73,6.09A83.77,83.77,0,0,1,323.34,293c-4.1,9.6-10.89,16.14-21.11,18.88-17.7,4.74-35.93,6.59-53.91,9.76-6.39,1.13-12.81,2-19.18,3.23-2.16.41-3.36.1-4.22-2.1-3.25-8.37-6.16-16.84-8.56-25.49-.86-3.1-.13-4.2,3.34-4.7,22.17-3.2,44.45-2.69,66.73-2.59C305.47,290,309.4,287.21,316.29,269Z" fill="#2caeb6"/><path d="M230,343.45c-5.26-.49-10.6.51-15.81-.94q-5-12.37-10-24.77-.93-2.31-1.72-4.66c-1.11-3.24-.18-5.19,3.32-6.27,2.66-.82,6.14-.56,7.4-4.07C218.19,316.58,223.75,330.16,230,343.45Z" fill="#b88464"/><path d="M354.68,281.72a11.37,11.37,0,0,1-.58,6.16C353.86,285.78,353.32,283.66,354.68,281.72Z" fill="#4f5051"/><path d="M383.66,232.89c-7.62-4.39-9.73-15.07-4.35-21.89,1.62-2.05,3.17-4.17,4.76-6.26a4,4,0,0,0,.85.1c1.12.11,2.17,0,3,1.24,2.1,3,4.92,3.25,8.17,1.77,4.72-2.14,9.92-3.45,11.71-9.38.69-2.27,2.94-1.72,4.71-1.25,3.35.89,6.64,2,10.19,1.64-.32,5.36-.77,10.67-5.81,14.09-6.45,0-12.9,0-19.35,0a12.64,12.64,0,0,0-5.79,1.08c-5.21,2.54-9.25,5.71-8.05,12.48C384.07,228.54,383.69,230.74,383.66,232.89Z" fill="#d6ad8e"/><path d="M312.06,88.05c8.42-3.93,16.51-1.93,24.55,1.32,4.4,1.77,7.75,5.48,12.46,6.66,1.71-.23,2.76.61,3.6,2,2.34,3.94,5.32,7.61,7,11.8,1.84,4.62,3.71,9.94-2.87,13.11-.93.44-.76,1.75-.73,2.74a16.23,16.23,0,0,0-6.51,2.16,55.25,55.25,0,0,1-33.69,5.4c-6.88-1-12.08-4.94-17.72-8.25-2.39-2.69-4.59-5.47-4.86-9.24,1.79-.66,1.95.68,2.36,1.42,8.59,15.73,30.94,12.87,40.17,1.9,5.9-7,3.47-20-4.24-25.25-5.55-3.8-11.26-6.82-18.35-5C312.93,88.94,312.46,88.34,312.06,88.05Z" fill="#ddbaa1"/><path d="M298.15,125c5.64,3.31,10.84,7.23,17.72,8.25a55.25,55.25,0,0,0,33.69-5.4,16.23,16.23,0,0,1,6.51-2.16l7,.12,2.95.07,1.41.12q.8,3.48,1.57,7c-6.78.66-14.27-2.22-20,4L343,139.11c-4.62.58-9.12,2.06-13.84,2l-11.83-1.35c-6.25-2.69-12.44-5.47-16.87-11C299.48,127.57,298.26,126.65,298.15,125Z" fill="#b88464"/><path d="M293,104l1.05,0v6.41l-1.37-.06A6,6,0,0,1,293,104Z" fill="#ddbaa1"/><path d="M401.64,194.7c2-15.27.51-30.26-3.22-45.17-2.09-8.32-3.88-16.77-3.45-25.47-.13-6.94-.39-13.91,3.57-20.12,2.13-3.34,4.43-6.53,8.4-7.94,1.78,1.53.23,2.87-.54,3.84a20.16,20.16,0,0,0-4.2,12c-.17,9.4-.64,18.77,1.12,28.25,2.91,15.68,7.33,31.27,5.64,47.53,0,.16,0,.33,0,.49C408.9,195.63,408.53,196,401.64,194.7Z" fill="#e1c3af"/><path d="M384.92,204.84a4,4,0,0,1-.85-.1c-.06-6.55,2.39-9.25,8.67-9.44,2-.06,4,.08,6,.12-2.34,3.1-6.06,4.12-9.17,6.06C387.92,202.49,385.77,202.78,384.92,204.84Z" fill="#7a797c"/><path d="M349,137c5.68-6.2,13.17-3.32,20-4,3.25,11.77,3.46,23.8,2.66,35.83-.54,8-1.05,16.14-2.64,24.09-.13.08-.38.19-.37.25a4.4,4.4,0,0,0,.25.75l-.66,3.9c-.38.5-1,1-1.12,1.53C363,213.6,359.31,228,353,241.53c-3.32,7.13-5.43,14.83-10.13,21.31-11.25-1.94-22-5.64-33-8.77a4.74,4.74,0,0,0,2.86-1.8c4.38-6.43,10.07-11.73,15.28-17.45,7.18-4.8,9-12.89,11.76-20.16a166,166,0,0,0,10.42-51.24c.32-7.1.69-14.19.77-21.3C351,140.15,351.35,138,349,137Z" fill="#c69575"/><path d="M328.05,234.82c-5.21,5.72-10.9,11-15.28,17.45a4.74,4.74,0,0,1-2.86,1.8c-3.09-.9-6.37-1.24-9.19-3a55.91,55.91,0,0,1,19.36-14.86c1.2-.54,2.46-1,3-2.4l0,0h2C326.17,233.88,327.34,233.64,328.05,234.82Z" fill="#ddbaa1"/><path d="M325.09,233.84h-2C323.72,232.77,324.4,232.82,325.09,233.84Z" fill="#c69575"/><path d="M292.07,185.86c.35-.56.69-.54,1,0Z" fill="#ddbaa1"/><path d="M363,125.82l-7-.12c0-1-.2-2.3.73-2.74,6.58-3.17,4.71-8.49,2.87-13.11-1.68-4.19-4.66-7.86-7-11.8-.84-1.41-1.89-2.25-3.6-2,.1-1.74-1.48-2.59-2.09-4,10.29-3.09,20.13.55,30.11,2,6.39,1,10.54,6.78,16.87,7.94-3.29,7.23-6.2,14.54-4.9,22.76A116.26,116.26,0,0,1,367.4,126l-1.41-.12A1.73,1.73,0,0,0,363,125.82Z" fill="#e1c3af"/><path d="M394,102c-6.33-1.16-10.48-7-16.87-7.94-10-1.47-19.82-5.11-30.11-2-1.69,0-2.65-1.22-3.69-2.28s-2.63-2.27-2.09-4.2c.65-2.3,2.69-1.43,4.19-1.51,9.53-.5,19.06-2,28.58,0,10.71,2.22,21.53,4,32.18,8.86Z" fill="#ddbaa1"/><path d="M40.33,336.66l1.85.12c-1.21,1.82-2.38,3.68-4.88,3.87C37.34,338.58,38.82,337.61,40.33,336.66Z" fill="#d6ad8e"/><path d="M342.88,262.84c4.7-6.48,6.81-14.18,10.13-21.31,6.3-13.54,10-27.93,14.08-42.21.16-.57.74-1,1.12-1.53-1.15,14.21-5,27.93-7.61,41.87-1.62,8.61-4.59,16.92-5.48,25.68C350.93,265,346.75,264.69,342.88,262.84Z" fill="#d6ad8e"/><path d="M368.87,193.89a4.4,4.4,0,0,1-.25-.75c0-.06.24-.17.37-.25Z" fill="#d6ad8e"/><path d="M363,125.82a1.73,1.73,0,0,1,2.95.07Z" fill="#ddbaa1"/></g></g></svg>