<svg xmlns="http://www.w3.org/2000/svg" viewBox="0 0 543.7 474.68"><title>ex_d2_1_1</title><g id="Layer_2" data-name="Layer 2"><g id="Layer_1-2" data-name="Layer 1"><path d="M527.23,458.63c3.16,0,6.32,0,9.48,0,5,.09,6.87,2,7,6.93.12,5.47-2.36,8.72-6.94,9-1,.06-2,0-3,0H29.56a25.82,25.82,0,0,1-4.49-.08c-4.33-.78-6.73-3.42-6.82-7.88-.1-5.19,2-7.13,8.56-8.13,5.8,8.63,9.8,9.22,15.29,2.26,2.42.43,3.81-2,6-2.15l286,.07c1.31,2-2.14,6.36,3,6.37,5.62,0,11.27.57,16.87-.37l153.6,0c4.28.11,8.56.29,12.83.32C527,465.11,527,465.07,527.23,458.63Z" fill="#ebebe5"/><path d="M194.08,322.87a4.36,4.36,0,0,1,1.64-5.13c18.74-15.46,37.93-30.27,59.19-42.13,4.37-2.44,7.38-5.17,8.29-10.23.46-2.55,1.83-4.94,2.8-7.4a28.27,28.27,0,0,1,3.91.36q31.13,7,62.22,14.14c2.22.52,5.23-.62,6.47,2.52a187.6,187.6,0,0,1,1,21.85c-.35,17-9.19,28.77-23.44,36.7a681.64,681.64,0,0,1-72.15,34.5c-5.56,2.29-10.08,3.51-13.88-2.41-.38-.6-1.39-.8-2.11-1.18q-13.44-15.31-26.89-30.61ZM301.4,280.12c.83-11.14.8-11-7.89-13-3.41-.79-5.09-.4-5.6,3.54a67.89,67.89,0,0,1-4.9,17.19c-1.89,4.55-4.91,7.73-9.8,9.14-5.26,1.52-10.45,3.29-15.66,5-17.92,5.77-35.27,12.75-50.93,23.45-2.66,1.82-3.06,3.18-1.15,5.89,4.79,6.81,10.16,13.13,15.58,19.42,1.47,1.72,2.67,1.84,4.63.66,19.59-11.87,39.46-23.29,59-35.33,10.37-6.4,15.13-15.35,16.09-26.95C301,286.09,301.18,283.1,301.4,280.12Z" fill="#1a1b1b"/><path d="M474.88,213.78c0,8.48-.19,17,.09,25.42.13,3.84-1.2,4.8-4.85,4.71q-14-.34-27.92,0c-3.92.11-5.21-1.14-5.16-5.1.18-16.44-.05-32.89.17-49.34.06-4.27-1-6.08-5.54-5.62-2.34.24-5.89,1.38-6.93-.71s2.14-4.07,3.57-6c8.36-11.15,16.93-22.13,25.26-33.3,2-2.66,3-3.26,5.32-.2,9.11,12.23,18.5,24.25,27.7,36.41.71.93,2.34,1.89,1.44,3.37-.68,1.11-2.13.51-3.25.52-9.89.12-9.89.11-9.89,9.86C474.88,200.49,474.89,207.14,474.88,213.78Z" fill="#f9be79"/><path d="M487.37,317c.13,5,.37,9.95.35,14.92,0,5.95-2.89,8.77-8.93,8.82-9.8.07-19.6,0-29.4,0-1.81,0-3.63.25-5.44.38-9.06-.65-18.13-.33-27.2-.18-9.29-.07-18.58-.18-27.87-.21-14.5,0-15.19-.7-15.29-15.06.08-2.8.19-5.61.22-8.41.06-7.92,5-13.14,13-13.29,6.94-.14,13.89.06,20.84.11-1.7,1.81-3.45,3.57-5.09,5.44-.93,1.06-2.9,1.86-2.26,3.49s2.64.9,4,.9c22.24,0,44.48.11,66.71,0C476.75,313.87,482.27,314.15,487.37,317Z" fill="#4f5051"/><path d="M144.14,370.86c5.27-3.39,9.07-8.28,12.56-13.25,5.62-8,14-11.83,22.18-16,1.65,1.11.44,2.25.11,3.45-1.17,4.22-3.55,8.17-2.92,12.79l0,0c-.13.09-.38.21-.37.26a5,5,0,0,0,.32.71c-1.48,4-3.46,7.87-4.31,12-1.22,5.86-4.44,10.48-7.31,15.5s-7.37,8.84-10.93,13.33c-4.39,5.53-9.71,10.67-15.92,14-12.2,6.44-25.82,9.33-38.79,13.86-12.24,4.26-24.5,8.54-36.12,14.34-7.37,3.68-11.89,2.08-14.5-5.78a39,39,0,0,1-.92-4.32c3.75-1.72,7.58-3.28,11.24-5.18,24.07-12.53,49.77-22.21,70.92-39.9C134.93,382,141.4,378.13,144.14,370.86Z" fill="#ddbaa1"/><path d="M507.58,464.74l-153.6,0q-.09-10-.19-19.93l62.9-.2,27.42-.12q28.62.07,57.25.16c2.15,0,4.31.09,6.46.15Z" fill="#a5a5a8"/><path d="M444.11,444.46l-27.42.12L416.75,341c9.07-.15,18.14-.47,27.2.18Q444,392.8,444.11,444.46Z" fill="#bebdbd"/><path d="M272.25,20.05c-3.34-4.64-4.78-9.57-1.42-14.73,1.44-2.21,3-4.91,6.65-2.15,1.76,1.32,4.51.08,6.8-.22C290.85,2.06,297.39.9,304,.26c25.36-2.49,39.91,13.43,35.39,38.47-1.57,8.66-4.33,17-6.61,25.47l-10.84.06c0-1.61.05-3.23.08-4.84.1-.1.29-.19.29-.28a3.83,3.83,0,0,0-.13-.74,10.39,10.39,0,0,0,.4-6c-.1-1.66-.19-3.31-.28-5,1.4-3.8,1.19-7.31-2.42-9.75s-6.35-.37-9.63,1.26c-5.45,2.7-8.26,6.35-7.28,12.53a1.87,1.87,0,0,1-1.1,2c-4.29.53-5.89-1.2-5.36-5.59.41-3.45-.07-7,.13-10.47.16-2.87-.3-5.27-3-6.8s-3-3.67-2.45-6.38c.47-2.28.43-4.67,1.05-6.89.85-3-.58-3.49-3-3.14-2.13.31-4.25.75-6.38,1.06C278.88,15.86,276.16,19.28,272.25,20.05Z" fill="#1a1b1b"/><path d="M322.57,52.36a10.39,10.39,0,0,1-.4,6c-.05.34-.11.68-.16,1,0,1.61-.05,3.23-.08,4.84-1.22,4.47-2.46,8.92-3.64,13.39-.66,2.48-.4,3.74,2.87,3.1a33.67,33.67,0,0,1,15.77.48A33.87,33.87,0,0,1,355.37,101c1.21,3.26,4.13,5.95,6.51,8.69,14.52,16.7,21.49,36.74,25.92,57.94a14.78,14.78,0,0,0,.67,3.38c7.82,16.25,11.51,33.85,15.46,51.19,3.33,14.62,4,29.87,5.72,44.84.56,4.78.8,9.59,1.36,14.37.22,1.89.25,4.08,2.56,5-2.8,1.52-1.68,4-1.33,6.14.77,4.81-.22,8.82-4.59,11.55-6.95-.05-13.9-.25-20.84-.11-8,.15-12.94,5.37-13,13.29,0,2.8-.14,5.61-.22,8.41a7.63,7.63,0,0,0-1.29-2c-4-3.12-5.82-6.81-5.72-12.2A17.55,17.55,0,0,1,372,298.81a14.74,14.74,0,0,0,1.76-2.9l2-1.11c2.59,1.3,4,4.43,7.06,4.89,6.72,1,13.94-5.65,14-12.73,2.12.34,4.24.66,6.35,1,4.72.81,5.2.21,4.27-4.7-.68-3.56-1.25-7.15-1.63-10.75q-1.67-15.73-3.93-31.4a337,337,0,0,0-7.37-36.29,115.08,115.08,0,0,0-9.87-25.61c-3.67-6.88-4.07-14.8-6.22-22.14-3.49-11.94-8-23.61-15.14-34-1.92-2.76-3.85-7.64-6.62-7-3.36.83-1.39,5.82-1.88,9l-2,3c-1.45-.13-2.13-.88-1.69-2.33,1.94-6.41.62-12.86-.57-19-.87-4.56-1.51-10-6.7-12.54-6.69-10-27.67-17.86-37-3-3.7,2.37-4.26,6.93-7,10h-1.1c-.78-.63-.63-1.34-.32-2.2q6.39-17.61,12.76-35.25c.22-.61.5-1.52,1-1.68C317.17,60.38,319.66,56.16,322.57,52.36Z" fill="#d6ad8e"/><path d="M407.65,304.1c4.37-2.73,5.36-6.74,4.59-11.55-.35-2.15-1.47-4.62,1.33-6.14q31.35-.06,62.7-.11c9.33,0,11.56,2.13,11.46,11.34-.08,6.45.5,12.92-.36,19.35-5.1-2.84-10.62-3.12-16.33-3.09-22.23.14-44.47.07-66.71,0-1.39,0-3.37.79-4-.9s1.33-2.43,2.26-3.49C404.2,307.67,406,305.91,407.65,304.1Z" fill="#7a797c"/><path d="M48.13,458.64c-2.22.12-3.61,2.58-6,2.15-6.14-1.5-8.6-6.66-10.59-11.65A42.08,42.08,0,0,0,20.34,433,35,35,0,0,1,12,421.26c-5-11.09-10.45-22.2-3.56-34.54,2.85-.32,4.46,1.14,6,3.43,6.19,9.25,13.62,17.33,23,23.5,2,1.3,4.22,1.85,6.25,2.91,1.83.95,4.27,1.31,4.47,4.07a7.11,7.11,0,0,0-.06.92c-1,2.08-2,4.14-3,6.23C40.77,437.21,47.84,448,58,447.42c1.48,2.35,1.16,3.9-1.34,5.65C53.87,455,50.17,455.58,48.13,458.64Z" fill="#d8d6e9"/><path d="M277.05,187.07c0-1,0-2,0-2.95,11.4,2,21.86,6.15,30.88,13.51,2.26,1.84,4.37,1.79,6.24.05,3.69-3.45,7.18-6.93,9.58-11.7,1.9-3.79,2.92-8.49,7.05-11a10.77,10.77,0,0,1,.08,1.5c-1.57,21.42-7.3,41.87-14.72,61.91-.55,1.49-1.51,2.58-3.31,2.51-.37-.59-.67-.45-.94.08h-5c-5.54-.25-10.71,1.9-16.1,2.48-5.9.63-11.91,3.78-17.71-.39.19-2.67,1.66-4.81,2.86-7.07,5,.48,9.72,2.72,15,2.09,3.19-.38,4.72-2.3,5.7-4.65.82-2,.63-5-1.4-5.79-5.29-2-9.9-6.7-16.34-4.64l1-4c4.48,0,7.78,3.37,12,4.22,3,.6,6,2,8.16-1.13s.43-6-1-8.85a7.45,7.45,0,0,0-2.87-2.62C291,207.1,285,205.14,279.14,203c-.13-.58-.26-1.16-.38-1.74.54-.29,1.25-1,1.59-.81,5.09,2.24,10.17,4.5,15.16,6.95,3.45,1.7,6.18.65,6.09-3.24s-1.46-7.46-5.44-9.59A95.82,95.82,0,0,0,277.05,187.07Z" fill="#d6ad8e"/><path d="M272.25,20.05c3.91-.77,6.63-4.19,10.64-4.78,2.13-.31,4.25-.75,6.38-1.06,2.41-.35,3.84.11,3,3.14-.62,2.22-.58,4.61-1.05,6.89-.56,2.71-.11,4.91,2.45,6.38s3.13,3.93,3,6.8c-.2,3.48.28,7-.13,10.47-.53,4.39,1.07,6.12,5.36,5.59a5.89,5.89,0,0,0-4,4.55C295.19,70,286.7,74.41,275.48,75.21c-1.74.12-3.39.09-3.77,2.29-3.2-4.45-2.09-9.77-2.47-14.63A142.44,142.44,0,0,1,272.25,20.05Z" fill="#e1c3af"/><path d="M298.82,101.18h1.1a2,2,0,0,1,2,2.34c-.39,8.44,2.54,16.07,5.83,23.6q.18,3,.34,5.89a50.59,50.59,0,0,1-10.41,25.55c-5.59,7.07-13.14,11.31-22.8,9.56-1.91-3.76-1.13-7.84-.82-11.66,1.07-13.19,2.5-26.39,11-37.41,3.52-4.56,8-8.41,10.68-13.6a2.45,2.45,0,0,0,1.22-2.19A1.84,1.84,0,0,0,298.82,101.18Z" fill="#e1c3af"/><path d="M330.82,175c-4.13,2.48-5.15,7.18-7.05,11-2.4,4.77-5.89,8.25-9.58,11.7-1.87,1.74-4,1.79-6.24-.05-9-7.36-19.48-11.53-30.88-13.51-.6-3.19.88-6.1,1.29-9.15,22,.56,30.21-6.53,41.56-27.95,9,3.67,9.42,12.63,12.42,20C331.83,169.69,331.33,172.35,330.82,175Z" fill="#e1c3af"/><path d="M48.14,421.55a7.11,7.11,0,0,1,.06-.92c17.68-6,33.63-15.55,49.9-24.43,15.38-8.38,30.7-16.89,46-25.34-2.74,7.27-9.21,11.09-14.74,15.71-21.15,17.69-46.85,27.37-70.92,39.9-3.66,1.9-7.49,3.46-11.24,5.18a11.23,11.23,0,0,1,.81-5.77C48.71,424.51,50.12,423,48.14,421.55Z" fill="#ead2c2"/><path d="M338.6,275c-1.24-3.14-4.25-2-6.47-2.52q-31.08-7.19-62.22-14.14A28.27,28.27,0,0,0,266,258c.93-2.9,2-5.76,2.76-8.7a2.9,2.9,0,0,1,3-2.49,153.48,153.48,0,0,0,18.93,4.34,22.19,22.19,0,0,0,8.21,2,291.09,291.09,0,0,0,34,7.81l7,1Q339.27,268.46,338.6,275Z" fill="#4f5051"/><path d="M271.71,77.5c.38-2.2,2-2.17,3.77-2.29C286.7,74.41,295.19,70,297.86,58a5.89,5.89,0,0,1,4-4.55,1.87,1.87,0,0,0,1.1-2c-1-6.18,1.83-9.83,7.28-12.53,3.28-1.63,6.16-3.6,9.63-1.26s3.82,6,2.42,9.75C320.9,50.34,318.8,53,316,54.14c-5.67,2.19-7.32,6.7-7.92,11.86-.7,6.14-3.93,9.08-9.87,10.61-2.86.74-7.38.19-8.34,4.82-2-2.23-4.22-.82-6.44-.64C279.13,81.13,274.31,83.12,271.71,77.5Z" fill="#d6ad8e"/><path d="M8.48,386.72C1.59,399.06,7,410.17,12,421.26A35,35,0,0,0,20.34,433a42.08,42.08,0,0,1,11.17,16.16c2,5,4.45,10.15,10.59,11.65-5.49,7-9.49,6.37-15.29-2.26a100.8,100.8,0,0,0-14.13-25.42C4.14,421.72-.79,408.36.1,393.63.45,387.89,3.83,385.32,8.48,386.72Z" fill="#4f5051"/><path d="M319.92,147c-11.35,21.42-19.56,28.51-41.56,27.95-1.28-2.23-3.57-3.93-3.48-6.85,9.66,1.75,17.21-2.49,22.8-9.56A50.59,50.59,0,0,0,308.09,133Z" fill="#d6ad8e"/><path d="M456,265.68c-5,0-10-.1-14.95,0-2.61.08-3.36-1-3.49-3.48-.48-9.47-.56-9.46,9-9.46,8,0,15.95.16,23.91-.07,3.54-.1,4.59,1.09,4.49,4.53-.3,10.17.95,8.22-8.49,8.43C463,265.74,459.48,265.68,456,265.68Z" fill="#f9be79"/><path d="M507.58,464.74l.24-20c5.26-.06,10.52,0,15.77-.24,3-.15,3.59,1.13,3.48,3.77-.14,3.44.09,6.89.16,10.33-.26,6.44-.26,6.48-6.82,6.43C516.14,465,511.86,464.85,507.58,464.74Z" fill="#4f5051"/><path d="M289.82,81.43c1-4.63,5.48-4.08,8.34-4.82,5.94-1.53,9.17-4.47,9.87-10.61.6-5.16,2.25-9.67,7.92-11.86,2.85-1.1,4.95-3.8,6.34-6.74.09,1.65.18,3.3.28,5-2.91,3.8-5.4,8-10.35,9.69-.46.16-.74,1.07-1,1.68Q304.86,81.36,298.5,99c-.31.86-.46,1.57.32,2.2a1.84,1.84,0,0,1-1.83,2.08l-1.29.08c-.17-2.45-.49-4.9-.45-7.35,0-2.63-.36-4.8-2.94-6.19-2.19-1.18-2.28-3.43-2.34-5.6,0-.36-.06-.72-.1-1.08C289.85,82.56,289.84,82,289.82,81.43Z" fill="#c69575"/><path d="M279.14,203c5.87,2.13,11.81,4.09,17.06,7.63a7.45,7.45,0,0,1,2.87,2.62c1.46,2.85,3.12,5.81,1,8.85s-5.2,1.73-8.16,1.13c-4.23-.85-7.53-4.2-12-4.22C277.29,213.8,277.69,208.43,279.14,203Z" fill="#ddbaa1"/><path d="M277.05,187.07a95.82,95.82,0,0,1,19.11,7.51c4,2.13,5.36,5.73,5.44,9.59s-2.64,4.94-6.09,3.24c-5-2.45-10.07-4.71-15.16-6.95-.34-.15-1.05.52-1.59.81C276,196.79,277.05,191.87,277.05,187.07Z" fill="#ddbaa1"/><path d="M279,223c6.44-2.06,11,2.68,16.34,4.64,2,.75,2.22,3.82,1.4,5.79-1,2.35-2.51,4.27-5.7,4.65-5.27.63-10-1.61-15-2.09A24.1,24.1,0,0,1,279,223Z" fill="#ddbaa1"/><path d="M336.93,81.23a33.67,33.67,0,0,0-15.77-.48c-3.27.64-3.53-.62-2.87-3.1,1.18-4.47,2.42-8.92,3.64-13.39l10.84-.06,3.36,14.69.63,1.35Z" fill="#c69575"/><path d="M194.08,322.87l7.09,11c-4.33,1.08-6.31,5.65-10.45,7-3-1.5-3.7-4.94-5.89-7.12A32.25,32.25,0,0,1,194.08,322.87Z" fill="#d6ad8e"/><path d="M290.72,251.13a153.48,153.48,0,0,1-18.93-4.34,5.8,5.8,0,0,1,1.37-3.71c5.8,4.17,11.81,1,17.71.39,5.39-.58,10.56-2.73,16.1-2.48C301.45,244.21,295,246,290.72,251.13Z" fill="#c69575"/><path d="M184.83,333.75c2.19,2.18,2.87,5.62,5.89,7.12,0,.64.06,1.28.08,1.92-2.05.15-2.91,2-4.31,3-4.27,3.31-6.62,8.28-10.42,12-.63-4.62,1.75-8.57,2.92-12.79.33-1.2,1.54-2.34-.11-3.45A21.53,21.53,0,0,1,184.83,333.75Z" fill="#ead2c2"/><path d="M295.7,103.34l1.29-.08a2.45,2.45,0,0,1-1.22,2.19C295.75,104.75,295.72,104.05,295.7,103.34Z" fill="#d6ad8e"/><path d="M289.87,83.12c0,.36.07.72.1,1.08a5.49,5.49,0,0,1-.36-.73C289.59,83.38,289.78,83.24,289.87,83.12Z" fill="#d6ad8e"/><path d="M336.76,80.24l-.63-1.35Z" fill="#d6ad8e"/><path d="M334.14,458.71c.14-3.62.46-7.24.34-10.85-.08-2.68.95-3.41,3.46-3.32,5.27.2,10.56.18,15.85.24q.09,10,.19,19.93c-5.6.94-11.25.37-16.87.37C332,465.07,335.45,460.7,334.14,458.71Z" fill="#4f5051"/><path d="M301.4,280.12c-.22,3-.42,6-.67,8.95-1,11.6-5.72,20.55-16.09,26.95-19.5,12-39.37,23.46-59,35.33-2,1.18-3.16,1.06-4.63-.66-5.42-6.29-10.79-12.61-15.58-19.42-1.91-2.71-1.51-4.07,1.15-5.89,15.66-10.7,33-17.68,50.93-23.45,5.21-1.68,10.4-3.45,15.66-5,4.89-1.41,7.91-4.59,9.8-9.14a67.89,67.89,0,0,0,4.9-17.19c.51-3.94,2.19-4.33,5.6-3.54C302.2,269.1,302.23,269,301.4,280.12Z" fill="#2caeb6"/><path d="M228.06,364.46c-4.17,2.91-9,3.84-13.88,4.86L190.8,342.79c0-.64-.05-1.28-.08-1.92,4.14-1.37,6.12-5.94,10.45-7Q214.61,349.15,228.06,364.46Z" fill="#b88464"/><path d="M190.8,342.79l23.38,26.53c-7.51,3.5-15.69,5.19-23,9.54-8,4.81-12.59,12.68-18.64,19.17-12,12.92-26,21.94-43.41,25.59a330.67,330.67,0,0,0-65.36,21c-2,.86-3.87,1.88-5.81,2.82-10.17.58-17.24-10.21-12.87-19.64,1-2.09,2-4.15,3-6.23,2,1.48.57,3-.09,4.33a11.23,11.23,0,0,0-.81,5.77,39,39,0,0,0,.92,4.32c2.61,7.86,7.13,9.46,14.5,5.78,11.62-5.8,23.88-10.08,36.12-14.34,13-4.53,26.59-7.42,38.79-13.86,6.21-3.29,11.53-8.43,15.92-14,3.56-4.49,8-8.17,10.93-13.33s6.09-9.64,7.31-15.5c.85-4.12,2.83-8,4.31-12,0-.33,0-.65.05-1l0,0c3.8-3.71,6.15-8.68,10.42-12C187.89,344.76,188.75,342.94,190.8,342.79Z" fill="#d6ad8e"/><path d="M176.09,357.8c0,.32,0,.64-.05,1a5,5,0,0,1-.32-.71C175.71,358,176,357.89,176.09,357.8Z" fill="#ead2c2"/><path d="M322,59.42c.05-.34.11-.68.16-1a3.83,3.83,0,0,1,.13.74C322.3,59.23,322.11,59.32,322,59.42Z" fill="#c69575"/><path d="M363.73,195.11c-2.89-1.91-4.79-5.28-8.59-5.86-.48-3-3.49-4.38-4.44-7.07,3.38.4,6.25.62,9.63-1.71,8.19-5.63,10.12-22.66,6.6-30.33-1.91-4.16-3.34-8.54-5.14-12.75s-2.88-9.19-7-12.29c.49-3.15-1.48-8.14,1.88-9,2.77-.67,4.7,4.21,6.62,7,7.17,10.38,11.65,22.05,15.14,34,2.15,7.34,2.55,15.26,6.22,22.14a115.08,115.08,0,0,1,9.87,25.61,337,337,0,0,1,7.37,36.29q2.25,15.68,3.93,31.4c.38,3.6.95,7.19,1.63,10.75.93,4.91.45,5.51-4.27,4.7-2.11-.36-4.23-.68-6.35-1l0,0a53.69,53.69,0,0,0-.2-7c-2.25-14.94-7.84-28.83-14.71-42.08-5.07-9.78-6.39-20.22-8.11-30.72-1.11-6.76-.87-13.53-1-20.31,0-1,.07-2.13-1.13-2.49s-1.68.72-2.29,1.49a17.73,17.73,0,0,0-3.59,9.1C365.49,197.73,364.42,194.7,363.73,195.11Z" fill="#ddbaa1"/><path d="M306.91,91.2c9.32-14.85,30.3-7,37,3a48.45,48.45,0,0,1,2.07,14.6c-.46,14-13.41,20.33-25,16.67-12-3.8-18.95-19.74-14.59-31.37A14.62,14.62,0,0,0,306.91,91.2Z" fill="#e1c3af"/><path d="M354.84,125.1c4.07,3.1,5.08,8,7,12.29s3.23,8.59,5.14,12.75c3.52,7.67,1.59,24.7-6.6,30.33-3.38,2.33-6.25,2.11-9.62,1.71-10.22-9.87-16.26-22.35-21.91-35.06a15.59,15.59,0,0,1,3.37.66c5.14,2.27,8.5-.19,11.91-3.79,4.34-4.59,6.22-10.38,8.78-15.86Z" fill="#e1c3af"/><path d="M352.86,128.13c-2.56,5.48-4.44,11.27-8.78,15.86-3.41,3.6-6.77,6.06-11.91,3.79a15.59,15.59,0,0,0-3.37-.66c-3.7-4.39-9.26-6.49-13-10.93-2.59-3.07-4.46-6.85-8-9.07-3.29-7.53-6.22-15.16-5.83-23.6a2,2,0,0,0-2-2.34c2.73-3.05,3.29-7.61,7-10a14.62,14.62,0,0,1-.48,2.91c-4.36,11.63,2.55,27.57,14.59,31.37,11.54,3.66,24.49-2.68,25-16.67a48.45,48.45,0,0,0-2.07-14.6c5.19,2.57,5.83,8,6.7,12.54,1.19,6.19,2.51,12.64.57,19C350.73,127.25,351.41,128,352.86,128.13Z" fill="#ddbaa1"/><path d="M388.64,286.41l2.14-.53,6.06,1,0,0c-.09,7.08-7.31,13.74-14,12.73-3-.46-4.47-3.59-7.06-4.89C379.9,291.73,385.48,290.92,388.64,286.41Z" fill="#ddbaa1"/><path d="M388.64,286.41c-3.16,4.51-8.74,5.32-12.85,8.39l-2,1.11c.11-7,2.57-9.5,9.46-9.6C385,286.28,386.83,286.37,388.64,286.41Z" fill="#7a797c"/><path d="M351.82,209l-.3,1.92c-3.57,2.14-2.44,6.18-3.58,9.27-5,13.55-11.19,26.67-15,40.66a291.09,291.09,0,0,1-34-7.81c.59-1.41,1.84-2.16,2.91-3.15,3.3-3.06,7.4-5.22,10.11-8.93h0l.94-.08c1.8.07,2.76-1,3.31-2.51,7.42-20,13.15-40.49,14.72-61.91a10.77,10.77,0,0,0-.08-1.5c.51-2.66,1-5.32,1.52-8,4.63,3.83,6.49,9.65,10.17,14.13s5.6,10.55,12.22,11.89l-1.84,10c-.13.08-.39.18-.38.24a5.15,5.15,0,0,0,.24.76c-.25,1.34-.51,2.67-.77,4C351.29,208.29,351.13,208.6,351.82,209Z" fill="#c69575"/><path d="M312,241c-2.71,3.71-6.81,5.87-10.11,8.93-1.07,1-2.32,1.74-2.91,3.15a22.19,22.19,0,0,1-8.21-2C295,246,301.45,244.21,307,241Z" fill="#ddbaa1"/><path d="M312.87,240.93l-.94.08C312.2,240.48,312.5,240.34,312.87,240.93Z" fill="#ddbaa1"/><path d="M354.73,193c-6.62-1.34-8.61-7.51-12.22-11.89S337,170.85,332.34,167c-3-7.37-3.44-16.33-12.42-20l-11.83-14q-.16-2.94-.34-5.89c3.57,2.22,5.44,6,8,9.07,3.76,4.44,9.32,6.54,13,10.93,5.65,12.71,11.69,25.19,21.91,35.06.94,2.69,4,4.09,4.43,7.07C355,190.51,354.86,191.77,354.73,193Z" fill="#b88464"/><path d="M332.93,260.89c3.82-14,10-27.11,15-40.66,1.14-3.09,0-7.13,3.58-9.27-1.93,14.9-5.75,29.39-9.58,43.87-.62,2.37-1.34,4.71-2,7.07Z" fill="#d6ad8e"/><path d="M396.84,286.92l-6.06-1c-1.5-14.47-6.1-28-12.88-40.79-5.35-10.11-10.16-20.49-12.28-31.8-1.12-6-1.29-12.11-1.89-18.18.69-.41,1.76,2.62,2.11-.16a17.73,17.73,0,0,1,3.59-9.1c.61-.77,1.06-1.86,2.29-1.49s1.12,1.5,1.13,2.49c.1,6.78-.14,13.55,1,20.31,1.72,10.5,3,20.94,8.11,30.72C388.8,251.13,394.39,265,396.64,280A53.69,53.69,0,0,1,396.84,286.92Z" fill="#e1c3af"/><path d="M352.75,204.05a5.15,5.15,0,0,1-.24-.76c0-.06.25-.16.38-.24Z" fill="#d6ad8e"/><path d="M351.82,209c-.69-.44-.53-.75.16-1C351.93,208.39,351.88,208.72,351.82,209Z" fill="#d6ad8e"/></g></g></svg>