<svg xmlns="http://www.w3.org/2000/svg" viewBox="0 0 477.24 701.79"><title>ex_d3_1_1</title><g id="Layer_2" data-name="Layer 2"><g id="Layer_1-2" data-name="Layer 1"><path d="M387.34,15.79c14.65,0,29.3-.1,43.94.06,3.69,0,5.31-.65,5.22-4.88-.22-10.36,0-10.36,10-10.25,9.69.12,9.69.12,9.69,9.73q0,335.4,0,670.82c0,2.16.07,4.32.1,6.49-.16,7-.16,7-7.29,7h-5.43c-8.8,0-6.94.28-7.3-7,0-2.49.1-5,.1-7.48q0-131.47,0-263,0-192.85.1-385.71c0-4.56-1.18-5.92-5.8-5.84-14.47.26-28.95,0-43.42,0,0-1,0-2,0-3l.11,0c14.76,0,29.53,0,44.29,0,1.61,0,4.26,1,4.41-1.74.19-3.29-2.76-2.15-4.45-2.16-14.77-.09-29.53-.05-44.3,0C386.08,17.79,386.12,16.79,387.34,15.79Z" fill="#c0bfbf"/><path d="M20.73,687.77q0-27.45.09-54.9V7.46c0-7.55,0-7.61,7.73-7.41,3.14.08,6.28.54,9.42.67,1.93.08,2.69,1,2.63,2.79,0,.83,0,1.66,0,2.49.08,9.78.08,9.75,9.63,9.78q19.23.06,38.45.18c-.59,3.31-3.18,2.84-5.47,2.84-12.48,0-25,0-37.43.07-1.72,0-4.75-1.24-4.81,1.79-.07,3.54,3.2,1.72,5,2.1a17.65,17.65,0,0,0,3.49,0c9.48,0,19,0,28.45,0,2.24,0,4.3,0,2.65,3.14-10.82,0-21.64-.08-32.47-.05-8.47,0-7.49-1-7.49,7.4q0,279.57,0,559.12,0,47.67.11,95.35c-.17,7-.17,7-7.28,7H28C19.35,694.74,21,695.11,20.73,687.77Z" fill="#c0bfbf"/><path d="M20.73,687.77c.28,7.34-1.38,7,7.3,7h5.42c7.11,0,7.11,0,7.28-7H436.28c.36,7.28-1.5,7,7.3,7H449c7.13,0,7.13,0,7.29-7,4.66,0,9.33.13,14,0s6.6,2.49,6.94,6.64c.3,3.63-2.83,7-6.55,7.36-1,.09-2,0-3,0q-229.17,0-458.34,0c-4.56,0-8.15-.65-9.15-6-.86-4.67,1.33-7.88,6.07-8S15.9,687.77,20.73,687.77Z" fill="#eaebe5"/><path d="M120.72,15.66q69.1.06,138.2.12,46.4,0,92.8,0c1.49,0,3-.13,4.48-.19.05.38.09.76.14,1.14-3.37,2.17-7.12,2.11-10.95,2.11q-108.7-.06-217.42,0c-1.33,0-2.66,0-4,0-2.11,0-2.38,1.38-2.43,3a4.9,4.9,0,0,1-.94-.05Q120.66,18.7,120.72,15.66Z" fill="#c0bfbf"/><path d="M356.34,16.73c0-.38-.09-.76-.14-1.14.48-6,.75-6.38,6.43-5.09,2.52.58,4.84-.44,7.14-.65,4.59-.44,8.51,1.57,12.78,1.87,2.73.19,4.26,1.47,4.79,4.07-1.22,1-1.26,2,0,3,0,1.34,0,2.67.05,4l-.11,0a55.78,55.78,0,0,0-10.34-1c-6.81.15-13.63,0-20.45,0C356.42,20,356.38,18.39,356.34,16.73Z" fill="#e1c5b1"/><path d="M120.72,15.66q-.06,3-.11,6.09c-10,.55-20-1-29.94,1,0-2.4-.08-4.79-.11-7.19,0-1.6.45-3.54,2-3.49,3.13.1,5.89-2,8.36-1.94,3.57,0,7.4-1.29,10.91.44a2.75,2.75,0,0,0,2.23.3C120.15,9.24,120.45,9.5,120.72,15.66Z" fill="#e1c5b1"/><path d="M90.56,15.57c0,2.4.07,4.79.11,7.19-.09,1.19-.18,2.39-.28,3.58l-9.8-.41c1.65-3.18-.41-3.15-2.65-3.14-9.48,0-19,0-28.45,0a17.65,17.65,0,0,1-3.49,0c-1.82-.38-5.09,1.44-5-2.1.06-3,3.09-1.78,4.81-1.79,12.47-.11,24.95-.05,37.43-.07,2.29,0,4.88.47,5.47-2.84Z" fill="#adadad"/><path d="M386.18,28.8c-.07.64-.15,1.27-.22,1.9-4.32,5.37-6.68,12.08-11.58,17.06-2.71.27-3.77,1.62-4.18,4.47-1.82,12.85-4,25.65-6,38.48-1.35,8.77-2.44,17.57-3.88,26.33-1.3,7.86-3.3,15.62-4.25,23.52-.57,4.78-3.94,9-2.7,14,.62,2.43-1.92,3.78-2,6-3.07-.64-1.89-3.12-1.91-4.85-.09-9.23-.48-18.39-4.05-27.09,0-4.81-.46-9.69.17-14.42,2.47-18.64,8.5-36.45,13.18-54.58.89-3.41,2.45-7.15.6-10.86,2.87-5.32-1.17-8.24-4.41-10.66-4.31-3.23-6.34-6.91-5.45-12.19,3-.25,5.48-1.42,7-4.21,6.82,0,13.64.19,20.45,0a55.78,55.78,0,0,1,10.34,1c0,1,0,2,0,3l-1,2c-.12.09-.35.2-.34.27A4.13,4.13,0,0,0,386.18,28.8Z" fill="#dab498"/><path d="M387.35,22.81c0-1.33,0-2.66-.05-4,14.77,0,29.53,0,44.3.05,1.69,0,4.64-1.13,4.45,2.16-.15,2.73-2.8,1.73-4.41,1.74C416.88,22.83,402.11,22.81,387.35,22.81Z" fill="#adadad"/><path d="M90.75,26.9a.74.74,0,0,1-.36-.56c.1-1.19.19-2.39.28-3.58,9.92-2,20-.46,29.94-1a4.9,4.9,0,0,0,.94.05l1.11,1c.55,2.85,3.26,2.2,5,3.11.72,6.06-1.69,10.37-7,13.48-2.95,1.73-4.77,4.51-4.08,8.27a22.58,22.58,0,0,1,1,3.81c.72,9.27,3.11,18.28,5.73,27,4.89,16.4,8.61,32.85,8.35,50a6,6,0,0,0-1.87,4.44c-.39,8.23-2.9,16.26-2.2,24.57l-2,.07,0,0c-1-4.83-3.64-9.31-4.41-13.9-1.41-8.43-3.1-16.82-4.38-25.27-3.34-22.1-6.17-44.29-9.11-66.46-.34-2.61-1.72-3.34-4-3.23l-2-1c-.21-.93-.12-2.21-.7-2.74C95.53,40.09,93.51,33.29,90.75,26.9Z" fill="#dab498"/><path d="M122.66,22.82l-1.11-1c0-1.6.32-3,2.43-3,1.33,0,2.66,0,4,0q108.71,0,217.42,0c3.83,0,7.58.06,10.95-2.11,0,1.66.08,3.31.11,5-1.48,2.79-3.94,4-7,4.21l-3.13-.24c1.84-5.21-2.58-2.75-3.89-2.75Q232.57,22.73,122.66,22.82Z" fill="#adadad"/><path d="M284.5,367.09c6.14,11.16,8.74,23.42,11.16,35.74-1.09,5-2.38,10-3.24,15-2.23,13.09-2.36,26.38-3.45,39.57-1.29,15.5-2.14,31-3.18,46.57-6.86,2.86-14,3.25-21.29,2.54-6-.59-12-1.58-18.05-2.39-2.76-.89-3.93-2.51-4.07-5.68-.46-9.7-1.23-19.41-2.25-29.07-.33-3.12.45-6.55-1.65-9.39-.94-4.89-.14-9.77-.09-14.65.23-22.63.09-45.25.08-67.88l3.88-.57,2.4-.26,2.1-.31.3.16.31-.15c11.5-.88,22.93-2.06,33.29-7.82Z" fill="#3c3e3c"/><path d="M238.47,377.47c0,22.63.15,45.25-.08,67.88,0,4.88-.85,9.76.09,14.65-.95.38-.92,1.23-1,2-1,12.17-2.17,24.33-2.82,36.51-.17,3.26-1.44,4.67-4.08,5.61l-8,1.65c-1.14.06-2.28.09-3.42.2-9.4.84-18.82,2-27.89-2-1.42-19.81-2.94-39.62-4.24-59.45-.88-13.55-1.76-27.08-5.72-40.18A151,151,0,0,1,192,367.2c1.65-.31,2.77,1.1,4.27,1.31,10.3,5.65,21.58,7.05,33.05,7.66l.34-.06.06-.34c.58,1.35,1.68,1,2.74.86l3.12.28Z" fill="#181818"/><path d="M235.6,376.91l-3.12-.28c-.55-1.44-1.53-1.53-2.74-.86l-.06.34-.34.06c.2-1.1.21-2.15-.82-2.9-.22-1.46-.34-2.94-.67-4.38-2.63-11.25-8.22-21.47-11.35-32.55,3.64-4.31,7.34-8.31,9.66-13.83,2.5-5.94,6.8-11.11,8.78-17.49.6-1.91,1.62-4.52,4.56-4.66l1,1c1.84,5.74,3.55,11.54,8,16,2,6.95,6.72,12.26,11,17.8,1.37,1.76,2,.1,2.4-.84,3.13-7.61,6.88-14.95,10.08-22.5,4.76-11.22,9.52-22.38,16.45-32.47l0,0,1-1.19c3.05-1.82,4.76-5.71,8.95-5.8-.28,9.51-3,18.58-5.46,27.62-3.53,12.91-7.78,25.62-11.72,38.42-1.61,1.82-3.13,3.72-4.85,5.44-3,3-6.11,5.88-6.85,10.36a7.61,7.61,0,0,0-5.06,1.71c-7.09,5.61-13.9,11.45-17,20.4l-.31.15-.3-.16-2.1.31-2.4.26A7.83,7.83,0,0,0,235.6,376.91Z" fill="#d2a381"/><path d="M269.61,571.54a36.42,36.42,0,0,0,3.62,21.16c6,12.49,7,25.44,1.23,38.44-2.41,5.43-5.81,10.05-11.37,12.68-7.81,3.7-14.74,1.58-19.19-5.81-2.62-4.35-3.67-9.2-4.44-14.13,0-3.68-.07-7.37-.11-11l.12-3.08a1.75,1.75,0,0,1,.7-.3,2.26,2.26,0,0,0,.34.35,2.23,2.23,0,0,0,.44.21c1-2.37,1.72-4.9,3.05-7.06,7.57-12.27,4.38-23.52-3-34.43-2.19-5.7-1.9-11.64-1.75-17.57.49-3.78,3-6.29,5.55-8.74,2.52-.72,5-1.84,7.57-2.09,8.77-.86,13.72,3.66,16.87,15Q269.43,563.34,269.61,571.54Zm-24.14,46c0,8.56,1.82,14,5.9,17.74,4.31,3.89,10.78,3.6,13.92-1.25,6.56-10.13,8.82-21.11,3.38-32.39-3.75-7.78-10.94-10.9-17.45-3C246.61,604.16,245.27,610.56,245.47,617.51ZM264.4,562a17.9,17.9,0,0,0-1.25-9.27c-1.47-4.06-4.28-7.39-8.91-7.61-4.27-.2-8.4,1.74-9.15,6.11-1.41,8.19-1.77,16.51,4.31,23.5,4.24,4.88,10.56,3.94,13-2.14C263.77,569.22,265.07,565.76,264.4,562Z" fill="#3c3e3c"/><path d="M237.6,622.92a36.91,36.91,0,0,1-4.26,14.7c-4.59,8-12.29,10.15-20.39,5.71a21.3,21.3,0,0,1-8.61-8.76c-6.58-12.25-7.58-24.83-2-37.73,5.12-2.15,6.52-7.85,10.52-11.12,1.13-.93-.16-2.51-.53-3.71-1.29-4.24-2.95-8.4-2.88-13a1.72,1.72,0,0,0-1.71-2c0-1.08,0-2.17,0-3.26l.31-.17-.3-.52c-.67-3.76.6-7.41.63-11.13,1.89-5.78,5.18-10.18,11.46-11.67,4.4-1,8.39.47,12.41,1.86,2.49,2.51,5,5,5.51,8.76.15,4,.42,8.1-.61,12.08-1.44.38-2,1-.48,2,0,1,0,2,.07,3l-.24.11-.19-.18c-3.75,3.68-4.65,8.8-6.36,13.41-4.21,11.34,2.49,20.24,7.27,29.5.13.66.27,1.32.4,2C237.63,616.19,237.62,619.56,237.6,622.92Zm-6.2-5.32A25.4,25.4,0,0,0,228.64,603c-2.6-5.27-6.65-9.17-12.26-8.47-4.78.59-8,5-9.52,9.86a33.32,33.32,0,0,0,3,26.77c2.16,3.85,5.48,7.43,10.79,6.66,4.3-.63,7.15-3.61,8.73-7.35C231.07,626.33,232.35,622,231.4,617.6ZM222.82,545c-3-.19-4.92,1.48-6.64,3.62-5.27,6.54-4.77,18.95-.51,25.82,3.14,5.08,8.6,4.79,12.2,0,3.72-5,5.09-10.8,5.21-16.73C233.23,549.85,229,545.15,222.82,545Z" fill="#3c3e3c"/><path d="M216.5,336.34c3.13,11.08,8.72,21.3,11.35,32.55.33,1.44.45,2.92.67,4.38-2.37-3.06-4.48-6.36-7.16-9.11-3.79-3.9-7.07-8.62-12.89-9.94-1.88-5.54-6.95-8.67-10.08-13.26-.71-1-1.81,0-2.68.35-1.19-9.78-5.12-18.81-7.85-28.15-4-13.69-7.73-27.41-9.6-41.58,3.86,1.62,7,4.27,10.37,6.7-1.07,1.58.44.9,1,1.09h0a4.1,4.1,0,0,0,.25,1.44c7,11.23,12.22,23.32,17.6,35.33Q212,326.24,216.5,336.34Z" fill="#c69778"/><path d="M345.4,128.62c3.57,8.7,4,17.86,4.05,27.09,0,1.73-1.16,4.21,1.91,4.85-2.36,4.14-2.2,8.64-1.87,13.16l.05-.1c-1.21.6-2.79,1-1.31,2.87-.26,1-.52,2-.79,3a9.12,9.12,0,0,0-2,6.57c-.87,6.89-4.16,12.74-7.85,18.43-1.16.9-2.32,1.79-3.46,2.71-7.07,5.73-14.7,10.36-23.77,12.19q1.56-5.44,3.11-10.88c2.75.42,4.76-1.05,6.64-2.71a66,66,0,0,0,17.15-23.63c6.92-15.83,5.65-31.64,2-47.72l.12-3.86C341.82,131.24,343.18,128.66,345.4,128.62Z" fill="#d2a381"/><path d="M127.59,157.58c-.7-8.31,1.81-16.34,2.2-24.57a6,6,0,0,1,1.87-4.44c2.88.62,4.35,2.93,6,5-.18,1-.3,2-.53,2.92-5,21.21-3.59,41.37,10.58,59.08,3.93,4.92,7.69,10.29,13.84,12.95,3.09,3,4.86,6.42,4.05,10.84-9.55-2.46-17.5-7.84-25.1-13.84l.08.06-1.14-1.06c-5.77-8.74-9.1-18.41-10.92-28.66-1.3-4.69-.12-9.54-.93-14.26Z" fill="#d2a381"/><path d="M285.79,504c1-15.53,1.89-31.07,3.18-46.57,1.09-13.19,1.22-26.48,3.45-39.57.86-5,2.15-10,3.24-15,4.44,14.92,3.23,30.13,2.36,45.32-.88,15.39-1.86,30.79-2.55,46.19-.14,3-.76,5.49-3.1,7.43l-.94.41C289.42,502.38,288,504.46,285.79,504Z" fill="#37b0b7"/><path d="M181.29,404.4c4,13.1,4.84,26.63,5.72,40.18,1.3,19.83,2.82,39.64,4.24,59.45-2.53.23-4.26-2.1-6.73-2.11a9.87,9.87,0,0,1-3-7c-1.08-21.69-2.45-43.36-3.57-65.05C177.52,421.19,179.31,412.76,181.29,404.4Z" fill="#37b0b7"/><path d="M374.38,47.76c4.9-5,7.26-11.69,11.58-17.06.07,3.87-.45,7.71-2.6,11-4.25,6.42-4.81,13.65-4.91,21-.17,14.13.24,28.28-.25,42.4-.52,15.12-3.88,29.58-12.76,42.25a8.91,8.91,0,0,1-1.84,1.53c.13-3.85,2.16-7.37,1.89-11.28.62-1.53,1.29-3,1.87-4.59,4.76-12.73,5.53-26.18,5.78-39.46C373.42,78.21,374.43,63,374.38,47.76Z" fill="#e1c5b1"/><path d="M101.65,47.76l2,1c.68,4.66-1.68,9.2-.89,13.77C104.59,73.17,104,84,104.28,94.6a126,126,0,0,0,7.32,41.05c-.13.1-.38.24-.37.27a5,5,0,0,0,.4.71c0,.31,0,.63,0,.94-.38,4.74,2.11,8.86,2.84,13.36-8.81-10.49-12.94-22.88-14.75-36.22-2-14.87-.39-29.81-1-44.71-.3-7.11-.56-14.22-.84-21.33Z" fill="#d2a381"/><path d="M140.51,205.53c7.6,6,15.55,11.38,25.1,13.84,2.13.12,1.69,2.31,2.69,3.34.64,8.43,2.78,16.56,5.07,24.65,3.87,13.69,12.09,24.34,23,33.09-2.68,2.18-4.43-1.48-6.83-1.09h0l-1-1.09c-3.33-2.43-6.51-5.08-10.37-6.7-8.33-13-11.44-27.74-14.82-42.43a7.69,7.69,0,0,0-4.07-5.25,53.8,53.8,0,0,1-16.63-14.09C141.76,208.53,140.3,207.45,140.51,205.53Z" fill="#b4805b"/><path d="M310.38,219.42c9.07-1.82,16.7-6.45,23.77-12.18,1.14-.92,2.3-1.81,3.46-2.71-4,8-10.42,13.69-17.94,18-4.17,2.4-6.06,5.65-7.05,10-1.86,8.22-3.46,16.49-6.37,24.46-2,5.48-6,9.84-7.87,15.35-4.19.09-5.9,4-8.95,5.81-.35.39-.69.79-1,1.18l0,0c-3-.44-5.11,2.37-8,2.08a12.61,12.61,0,0,1,1.6-1.87c13.49-10.45,20.52-24.61,24.15-40.94C307.56,232.22,307.82,225.56,310.38,219.42Z" fill="#b4805b"/><path d="M208.41,552c0,3.72-1.3,7.37-.63,11.12a1,1,0,0,0,0,.7c0,1.09,0,2.18,0,3.26l-.39,1.67c-.56-.33-1.38-.53-1.66-1-8-13.94-20.6-25.85-19-43.94.26-2.94-1.42-5.78-.85-8.81l6.75-.73c-.63,3.22-2.35,6.25-1.87,9.66a46.75,46.75,0,0,0,8,21.05C201,548.19,202.91,552.79,208.41,552Z" fill="#d2a381"/><path d="M269.61,571.54q-.19-8.2-.38-16.42c10.71-9.67,16.73-21.57,17.23-36.11,2.13-.14,2.64,1.79,3.76,2.93.81,12.68-3.27,23.7-11.1,33.58-2.56,3.22-4.55,6.89-6.8,10.35-1.66-1.3-.14-3.5-1.74-5.4.17,2.55-1.26,4.79,1.17,6.49A10.9,10.9,0,0,0,269.61,571.54Z" fill="#d2a381"/><path d="M195.71,341.31c.87-.4,2-1.39,2.68-.35,3.13,4.59,8.2,7.72,10.08,13.26a8.47,8.47,0,0,0-8.31,4.86c-1.53,3-2.6,6.28-3.87,9.43-1.5-.21-2.62-1.62-4.27-1.31Q193.87,354.24,195.71,341.31Z" fill="#b4805b"/><path d="M192.58,514.23l-6.75.73a58.3,58.3,0,0,1-1.31-13c2.47,0,4.2,2.34,6.73,2.11,9.07,4,18.49,2.82,27.89,2,1.14-.11,2.28-.14,3.42-.2-2.79,3.78-7.65,2.29-11.12,4.37l-4.87,0c-1.12-.17-2.25-.32-3.1.71C199.38,510.5,196.35,513.59,192.58,514.23Z" fill="#b4805b"/><path d="M269.5,354.23c.74-4.48,3.85-7.37,6.85-10.36,1.72-1.72,3.24-3.62,4.85-5.44l3.3,28.66-3.75,1.43c-.79-2.33-1.53-4.68-2.37-7C276.86,357.37,274.24,354.5,269.5,354.23Z" fill="#c69778"/><path d="M114.47,150.93c-.73-4.5-3.22-8.62-2.84-13.36,1.8,3,3.45,6,5.42,8.85,2.68,3.85,4.11,8.66,8.5,11.21l0,0c-.08,1.71.23,3.22,2,4,.81,4.72-.37,9.57.93,14.26A91.1,91.1,0,0,1,114.47,150.93Z" fill="#c69778"/><path d="M365.49,137.5c.27,3.91-1.76,7.43-1.89,11.28-3.45,9-7.4,17.76-14.11,24.94-.33-4.52-.49-9,1.87-13.16.11-2.18,2.65-3.53,2-6,2.33-.19,3-1.95,4.15-3.69C360.36,146.53,361.9,141.4,365.49,137.5Z" fill="#c69778"/><path d="M290.22,521.94c-1.12-1.14-1.63-3.07-3.76-2.93,0-2.08-1.73-3-2.9-4.36-2.69-3-6.92-2.63-10.1-4.58,2.67-.69,5.48-1.05,8-2.14,3.51-1.54,8.32-1,10-5.75l.94-.41A108.51,108.51,0,0,1,290.22,521.94Z" fill="#c69778"/><path d="M207.37,568.74l.39-1.67a1.72,1.72,0,0,1,1.71,2c-.07,4.55,1.59,8.71,2.88,13,.37,1.2,1.66,2.78.53,3.71-4,3.27-5.4,9-10.52,11.12A48.31,48.31,0,0,0,207.37,568.74Z" fill="#181818"/><path d="M101.65,47.76l-3.8.91c-5.2-6.34-7.2-13.71-7.1-21.77C93.51,33.29,95.53,40.09,101,45,101.53,45.55,101.44,46.83,101.65,47.76Z" fill="#b4805b"/><path d="M237.6,622.92c0-3.36,0-6.73.05-10.09h1.7c0,3.68.07,7.37.11,11Z" fill="#c0bfbf"/><path d="M271.75,567c-2.43-1.7-1-3.94-1.17-6.49,1.6,1.9.08,4.1,1.74,5.4Z" fill="#d6ad8e"/><path d="M345.46,186.1a9.12,9.12,0,0,1,2-6.57C347.31,181.88,347.23,184.24,345.46,186.1Z" fill="#c69778"/><path d="M348.23,176.49c-1.48-1.83.1-2.27,1.31-2.87A3.14,3.14,0,0,1,348.23,176.49Z" fill="#c69778"/><path d="M386.18,28.8a4.13,4.13,0,0,1-.25-.75c0-.07.22-.18.34-.27Z" fill="#e1c5b1"/><path d="M139.45,204.53l1.14,1.06C139.85,205.62,139.63,205.1,139.45,204.53Z" fill="#b4805b"/><path d="M365.49,137.5c-3.59,3.9-5.13,9-7.95,13.41-1.12,1.74-1.82,3.5-4.15,3.69-1.24-5.07,2.13-9.26,2.7-14,1-7.9,3-15.66,4.25-23.52,1.44-8.76,2.53-17.56,3.88-26.33,2-12.83,4.16-25.63,6-38.48.41-2.85,1.47-4.2,4.18-4.47.05,15.24-1,30.45-1.24,45.69-.25,13.28-1,26.73-5.78,39.46C366.78,134.46,366.11,136,365.49,137.5Z" fill="#d6ad8e"/><path d="M345.4,128.62c-2.22,0-3.58,2.62-6,2-.64-.33-1.28-.66-1.91-1-.45-11.45,2.45-22.27,6.44-32.83,6-15.84,9.88-32.1,10.61-49.06l4.82,1c1.85,3.71.29,7.45-.6,10.86C354.07,77.75,348,95.56,345.57,114.2,344.94,118.93,345.43,123.81,345.4,128.62Z" fill="#d6ad8e"/><path d="M359.35,48.76l-4.82-1c-.24-2-1.67-3.19-2.95-4.42-5-4.78-8.29-10.18-6.93-17.45l1.7-.2,3.13.24c-.88,5.28,1.15,9,5.46,12.19C358.18,40.52,362.22,43.44,359.35,48.76Z" fill="#d2a381"/><path d="M125.55,157.63c-4.39-2.55-5.82-7.36-8.5-11.21-2-2.84-3.62-5.89-5.42-8.85,0-.31,0-.63,0-.94l0-1a126,126,0,0,1-7.32-41.05c-.24-10.64.31-21.43-1.54-32.06-.79-4.57,1.57-9.11.89-13.77,2.3-.11,3.68.62,4,3.23,2.94,22.17,5.77,44.36,9.11,66.46,1.28,8.45,3,16.84,4.38,25.27C121.91,148.32,124.6,152.8,125.55,157.63Z" fill="#d6ad8e"/><path d="M137.67,133.57c-1.66-2.07-3.13-4.38-6-5,.26-17.19-3.46-33.64-8.35-50-2.62-8.76-5-17.77-5.73-27a22.58,22.58,0,0,0-1-3.81h5.5a12.27,12.27,0,0,1,.43,1.94,142.4,142.4,0,0,0,8.91,42.12c4.29,11.52,8.34,23.1,8.15,35.65,0,2.76,2.13,3.94,4,5.28a51.65,51.65,0,0,1,19,24.89c-1.26.82-.86,1.89-.61,3.08a54.2,54.2,0,0,1-.14,16.73c-3.18-11.93-7.62-23.28-15.07-33.13C144,140.54,142.27,135.78,137.67,133.57Z" fill="#e1c5b1"/><path d="M346.35,25.67l-1.7.2q-103.21,0-206.41,0c-1.92,0-4-.7-5.73.86l-4.84-.83c-1.75-.91-4.46-.26-5-3.11q109.91,0,219.8.1C343.77,22.92,348.19,20.46,346.35,25.67Z" fill="#c0bfbf"/><path d="M127.67,25.93l4.84.84c-.42,7.34-3,13.62-8.77,18.46a10,10,0,0,0-1.61,2.45h-5.5c-.69-3.76,1.13-6.54,4.08-8.27C126,36.3,128.39,32,127.67,25.93Z" fill="#d2a381"/><path d="M127.6,161.61c-1.8-.74-2.11-2.25-2-4l2-.07C127.6,158.92,127.6,160.26,127.6,161.61Z" fill="#d6ad8e"/><path d="M269.5,354.23c4.74.27,7.36,3.14,8.88,7.3.84,2.31,1.58,4.66,2.37,7-10.36,5.76-21.79,6.94-33.29,7.82,3.08-8.95,9.89-14.79,17-20.4A7.61,7.61,0,0,1,269.5,354.23Z" fill="#ddbaa1"/><path d="M247.46,514.05a30.4,30.4,0,0,1-1-9.91c6,.81,12,1.8,18.05,2.39,7.25.71,14.43.32,21.29-2.54,2.22.47,3.63-1.61,5.64-1.81-1.68,4.74-6.49,4.21-10,5.75-2.49,1.09-5.3,1.45-8,2.14l-14.9,3.09C254.92,514.21,251.19,514.11,247.46,514.05Z" fill="#b4805b"/><path d="M235.6,376.91a7.83,7.83,0,0,1,6.75,0l-3.88.57Z" fill="#d6ad8e"/><path d="M244.75,376.64l2.1-.31Z" fill="#d6ad8e"/><path d="M196.29,368.51c1.27-3.15,2.34-6.41,3.87-9.43a8.47,8.47,0,0,1,8.31-4.86c5.82,1.32,9.1,6,12.89,9.94,2.68,2.75,4.79,6,7.16,9.11,1,.75,1,1.8.82,2.9C217.87,375.56,206.59,374.16,196.29,368.51Z" fill="#d6ad8e"/><path d="M230.59,504.16A113.55,113.55,0,0,1,228.48,523c-3.7-3.09-6.57-7.12-11-9.44-2-1.07-5-.5-6.05-3.39,3.47-2.08,8.33-.59,11.12-4.37Z" fill="#c69778"/><path d="M229.74,375.77c1.21-.67,2.19-.58,2.74.86C231.42,376.81,230.32,377.12,229.74,375.77Z" fill="#d6ad8e"/><path d="M168.3,222.71c-1-1-.56-3.22-2.69-3.34.81-4.42-1-7.88-4.05-10.85,4-2.41.54-5,0-7.38-1.33-6.44-2.77-12.81,2-18.58,6,3.08,12.25,5.62,17.57,9.82,8,6.32,15.3,13.16,15.42,24.49,0,3.18,1.42,4.73,4.89,4.69,5.4-.08,11-.92,16,1.9,2.38,5.88,6.16,11,8.56,16.94a153.11,153.11,0,0,1,10.52,40.85c.27,2.54-.24,5.67,2.93,7.13v12c-2.94.14-4,2.75-4.56,4.66-2,6.38-6.28,11.55-8.78,17.49-2.32,5.52-6,9.52-9.66,13.83q-4.53-10.11-9.07-20.21c-5.38-12-10.62-24.1-17.6-35.33a4.1,4.1,0,0,1-.25-1.44c2.4-.39,4.15,3.27,6.83,1.09,4,2.22,8.05,2.38,12.46,1.39,3.73-.84,4.46-1.73,1.75-5-4.07-4.89-7.82-10-10.28-16.07-1.53-3.77-3.08-7.63-4.93-11.24-4.48-8.72-5.17-17.4-1.38-26.8-6.52-1-12.86,1.12-19.23-.07C172.87,222.32,170.41,220.69,168.3,222.71Z" fill="#d6ad8e"/><path d="M239.5,300.36v-12l0-5c2.12-2.6.67-5.73,1.25-8.59,3.68-18.06,8.88-35.52,18.7-51.33,6.28-2.88,12.94-1.9,19.49-1.85a4.41,4.41,0,0,1,3.78,2.94c2,5.23,4.12,10.57,2,16.3-1.88,5-3.64,10.19-6,15-3.39,6.94-6.53,14.06-11.82,19.94-1.2,1.33-3.14,3-2.2,5.23,1,2.43,3.51,1.21,5.34,1.3,3.47.16,7,.34,10.33-.93,2.93.29,5.07-2.52,8-2.08-6.93,10.09-11.69,21.25-16.45,32.47-3.2,7.55-7,14.89-10.08,22.5-.39.94-1,2.6-2.4.84-4.3-5.54-9-10.85-11-17.8-.32-6.5-2.72-12-8-16Z" fill="#dab498"/><path d="M240.49,301.37c5.27,4,7.67,9.48,8,16C244,312.91,242.33,307.11,240.49,301.37Z" fill="#d6ad8e"/><path d="M288.4,279.38c.34-.39.68-.79,1-1.18C289.08,278.59,288.74,279,288.4,279.38Z" fill="#dab498"/><path d="M258.56,513.16l14.9-3.09c3.18,1.95,7.41,1.55,10.1,4.58,1.17,1.32,2.88,2.28,2.9,4.36-.5,14.54-6.52,26.44-17.23,36.11-3.15-11.34-8.1-15.86-16.87-15-2.57.25-5.05,1.37-7.57,2.09-.1-6.66,2.08-12.88,3.73-19.2Z" fill="#d6ad8e"/><path d="M245.48,617.51c-.21-7,1.13-13.35,5.74-18.93,6.51-7.87,13.7-4.75,17.45,3,5.44,11.28,3.18,22.26-3.38,32.39-3.14,4.85-9.61,5.14-13.92,1.25C247.29,631.56,245.47,626.07,245.48,617.51Z" fill="#4e5050"/><path d="M264.4,562c.67,3.77-.63,7.23-2,10.59-2.45,6.08-8.77,7-13,2.14-6.08-7-5.72-15.31-4.31-23.5.75-4.37,4.88-6.31,9.15-6.11,4.63.22,7.44,3.55,8.91,7.61A17.9,17.9,0,0,1,264.4,562Z" fill="#4e5050"/><path d="M237.79,550.94h1.45c-.15,5.93-.44,11.87,1.75,17.57.83,3.37,1.41,6.83,2.54,10.09,2.4,6.9,2.49,13.52-.63,20.3a27.73,27.73,0,0,0-2.73,10.54,1.75,1.75,0,0,0-.7.3q0-18.84,0-37.68c0-1.94.49-4.25-2.71-4.06,0-1-.05-2-.07-3l.48-2C238.21,559,237.94,555,237.79,550.94Z" fill="#eaebe5"/><path d="M240.17,609.45a27.73,27.73,0,0,1,2.73-10.54c3.12-6.78,3-13.4.63-20.3-1.13-3.26-1.71-6.72-2.54-10.09,7.39,10.91,10.58,22.16,3,34.43-1.33,2.16-2.05,4.69-3.05,7.06a2.23,2.23,0,0,1-.44-.21A2.26,2.26,0,0,1,240.17,609.45Z" fill="#181818"/><path d="M211.44,510.18c1,2.89,4,2.32,6.05,3.39,4.42,2.32,7.29,6.35,11,9.44,1.5,6.34,3.87,12.51,3.8,19.17-4-1.39-8-2.9-12.41-1.86-6.28,1.49-9.57,5.89-11.46,11.67-5.5.8-7.41-3.8-9.74-7a46.75,46.75,0,0,1-8-21.05c-.48-3.41,1.24-6.44,1.87-9.66,3.77-.64,6.8-3.73,10.89-3.32,1.12.14,2.24.28,3.1-.71Z" fill="#d6ad8e"/><path d="M231.4,617.6c.95,4.38-.33,8.73-2.05,12.83-1.58,3.74-4.43,6.72-8.73,7.35-5.31.77-8.63-2.81-10.79-6.66a33.32,33.32,0,0,1-3-26.77c1.49-4.9,4.74-9.27,9.52-9.86,5.61-.7,9.66,3.2,12.26,8.47A25.4,25.4,0,0,1,231.4,617.6Z" fill="#4e5050"/><path d="M222.82,545c6.22.16,10.41,4.86,10.26,12.66-.12,5.93-1.49,11.74-5.21,16.73-3.6,4.83-9.06,5.12-12.2,0-4.26-6.87-4.76-19.28.51-25.82C217.9,546.46,219.84,544.79,222.82,545Z" fill="#4e5050"/><path d="M237.26,608.46v2.39c-4.78-9.26-11.48-18.16-7.27-29.5,1.71-4.61,2.61-9.73,6.36-13.41,0,.65,0,1.31,0,2-1,3.29-2.09,6.57-3,9.89-1.23,4.29-2.73,8.53-1.12,13.12C234,598.06,235.58,603.28,237.26,608.46Z" fill="#181818"/><path d="M237.18,563l-.48,2C235.16,564,235.74,563.4,237.18,563Z" fill="#181818"/><path d="M207.77,563.81a1,1,0,0,1,0-.7l.3.53Z" fill="#181818"/><path d="M188.63,278.28l1,1.09C189.07,279.18,187.56,279.86,188.63,278.28Z" fill="#d6ad8e"/><path d="M280.39,281.42c-3.35,1.27-6.86,1.09-10.33.93-1.83-.09-4.29,1.13-5.34-1.3-.94-2.2,1-3.9,2.2-5.23,5.29-5.88,8.43-13,11.82-19.94,2.36-4.83,4.12-10,6-15,2.13-5.73,0-11.07-2-16.3a4.41,4.41,0,0,0-3.78-2.94c-6.55-.05-13.21-1-19.49,1.85-4.71.11-8.64,2.74-13,4,0-1.13-.08-2.28,1.14-3,4.42-2.68,8.53-6.1,13.85-6.75a7,7,0,0,0,6-4.22,12.35,12.35,0,0,1,1.49,0c6.55.8,11-.27,14.67-7.42,6.3-12.21,18.13-18.81,30.8-23.56.87,2.66.85,5.42,1.12,8.17.59,6.13-1.33,11.9-2,17.84q-1.55,5.44-3.11,10.88c-2.56,6.13-2.82,12.79-4.24,19.18-3.63,16.33-10.66,30.49-24.15,40.94A12.61,12.61,0,0,0,280.39,281.42Z" fill="#ddbaa1"/><path d="M313.49,208.55c.7-5.94,2.62-11.71,2-17.84-.27-2.75-.25-5.51-1.12-8.17-.34-4.48-3.86-4.47-7-5,.84-7.2,4.21-13.5,7.06-20,1.63,1.57.8,3.31.47,5.09a31.73,31.73,0,0,0,.37,13.33,111.92,111.92,0,0,1,10.48-25c3.52-6.24,6.8-12.83,13.51-16.52,3.66,16.08,4.93,31.89-2,47.72a66,66,0,0,1-17.15,23.63C318.25,207.5,316.24,209,313.49,208.55Z" fill="#d6ad8e"/><path d="M339.27,134.49c-6.71,3.69-10,10.28-13.51,16.52a111.92,111.92,0,0,0-10.48,25,31.73,31.73,0,0,1-.37-13.33c.33-1.78,1.16-3.52-.47-5.09,4.23-12.16,12.4-21.08,23-28,.63.34,1.27.67,1.91,1Z" fill="#e1c5b1"/><path d="M163.57,182.56c-4.74,5.77-3.3,12.14-2,18.58.5,2.39,4,5,0,7.38-6.15-2.65-9.91-8-13.84-12.94-14.17-17.71-15.54-37.87-10.58-59.08.23-1,.35-1.95.53-2.92,4.6,2.2,6.34,7,9.15,10.66,7.45,9.85,11.89,21.2,15.07,33.13a54.2,54.2,0,0,0,.14-16.73c-.25-1.19-.65-2.26.61-3.08,3.41,6.28,5.36,13.09,7.09,20C166.55,177.82,163.47,178.24,163.57,182.56Z" fill="#dab498"/><path d="M111.6,135.65l0,1a5,5,0,0,1-.4-.71S111.47,135.75,111.6,135.65Z" fill="#c69778"/><path d="M168.3,222.71c2.11-2,4.57-.39,6.5,0,6.37,1.19,12.71-.91,19.23.07-3.79,9.4-3.1,18.08,1.38,26.8,1.85,3.61,3.4,7.47,4.93,11.24,2.46,6.06,6.21,11.18,10.28,16.07,2.71,3.25,2,4.14-1.75,5-4.41,1-8.5.83-12.46-1.39-10.95-8.75-19.17-19.4-23-33.09C171.08,239.27,168.94,231.14,168.3,222.71Z" fill="#ddbaa1"/><path d="M206.57,510.2c-.86,1-2,.85-3.1.71C204.32,509.88,205.45,510,206.57,510.2Z" fill="#c69778"/><path d="M258.56,513.16l-10,9.85c-.56-3-1.34-5.9-1.06-9C251.19,514.11,254.92,514.21,258.56,513.16Z" fill="#c69778"/><path d="M169.73,177.53c5.29,4.23,11.58,6.69,17.43,9.95,1.54.86,2.93,2,4.39,3l1.07,1-.07-.09a22.06,22.06,0,0,0,2,2.07,55.92,55.92,0,0,1,13.9,15.89c1.81,3.16,3.47,6.66-3.16,6.68,11.33,1.13,21.68,3.24,28.2,13.37-2,.37-3.41-.83-4.8-1.91a21.56,21.56,0,0,0-11.23-4.09c-5.08-2.82-10.64-2-16-1.9-3.47,0-4.85-1.51-4.89-4.69-.12-11.33-7.39-18.17-15.42-24.49-5.32-4.2-11.61-6.74-17.57-9.82C163.47,178.24,166.55,177.82,169.73,177.53Z" fill="#ddbaa1"/><path d="M217.49,223.46a21.56,21.56,0,0,1,11.23,4.09c1.39,1.08,2.8,2.28,4.8,1.91h0a2,2,0,0,0,1,2l0,0,1.09,1c1.53-.17,1.86,1.41,2.9,2,.33,6.52,1.55,13.16.77,19.55-1,8.45-.38,16.84-.73,25.25-.06,1.43-.44,3,1,4.14l0,5c-3.17-1.46-2.66-4.59-2.93-7.13a153.11,153.11,0,0,0-10.52-40.85C223.65,234.45,219.87,229.34,217.49,223.46Z" fill="#d2a381"/><path d="M239.53,283.39c-1.44-1.11-1.06-2.71-1-4.14.35-8.41-.3-16.8.73-25.25.78-6.39-.44-13-.77-19.55l.06-1c4.17.05,6.45-2.42,7.94-5.95,4.35-1.29,8.28-3.92,13-4-9.82,15.81-15,33.27-18.7,51.33C240.2,277.66,241.65,280.79,239.53,283.39Z" fill="#d6ad8e"/><path d="M237.26,608.46c-1.68-5.18-3.28-10.4-5.08-15.54-1.61-4.59-.11-8.83,1.12-13.12.94-3.32,2-6.6,3-9.89a2.63,2.63,0,0,1,1.17,2.54Z" fill="#eaebe5"/><path d="M282.41,193c1.42-3.16,4.61-4,7.29-5.46,6-3.17,12.15-6,17.69-9.95,3.15.49,6.67.48,7,5-12.67,4.75-24.5,11.35-30.8,23.56-3.7,7.15-8.12,8.22-14.67,7.42a12.35,12.35,0,0,0-1.49,0c1.19-5.07,3.93-9.2,7.42-13C277.27,197.86,280.65,196.24,282.41,193Z" fill="#e1c5b1"/><path d="M282.41,193c-1.76,3.25-5.14,4.87-7.55,7.5-3.49,3.82-6.23,7.95-7.42,13a7,7,0,0,1-6,4.22c-5.32.65-9.43,4.07-13.85,6.75-1.22.74-1.09,1.89-1.14,3-1.49,3.53-3.77,6-7.94,5.95,0-.66,0-1.32,0-2l2-6c5.07-3.76,8.37-10.34,16-10a2.13,2.13,0,0,0,2-1c2.53.07,2.57-2.22,3.43-3.68C266.76,202.56,273.16,196.15,282.41,193Z" fill="#dab498"/><path d="M213,175.66a67.08,67.08,0,0,1-.37-16.86c.72-7.83,5.24-13.46,12.17-17,15.51-7.92,34.92-1,38.9,14.11,1.7,6.43.92,13.15.2,19.74l-3.57,8.76q-3.25,6.07-6.49,12.15c-.76,1.43-1.18,3.19-3.36,3a20.73,20.73,0,0,0-8.27-1.49c-5.72-1.18-11.21-.05-16.63,1.72-2.87-1.61-2.59-5.42-5.08-7.29-.1-.56-.27-1.07-1-1.09l.19-.1C218.41,185.7,214.5,181.2,213,175.66Z" fill="#181818"/><path d="M238.51,231.47c0,.66,0,1.32,0,2l-.06,1c-1-.56-1.37-2.14-2.9-2l-1.09-1,0,0a1.94,1.94,0,0,0-1-2h0c-6.52-10.13-16.87-12.24-28.2-13.37,6.63,0,5-3.52,3.16-6.68a55.92,55.92,0,0,0-13.9-15.89,22.06,22.06,0,0,1-2-2.07,43.48,43.48,0,0,1,22.38,19c.87,1.51.67,4.22,3.57,4l2.07.07c5.52,2,10.87,4,14.29,9.53C236.35,226.49,236.48,229.44,238.51,231.47Z" fill="#c69778"/><path d="M250.5,199.57c2.18.17,2.6-1.59,3.36-3q3.22-6.09,6.49-12.15c1.36,2.9.37,5.56-.84,8.2-2.12,7.21-.51,14.6-1,21.88a2.13,2.13,0,0,1-2,1c-4-3.48-5.92-7.72-5.14-13.11C251.51,201.49,250.82,200.51,250.5,199.57Z" fill="#c69778"/><path d="M213,175.66c1.48,5.54,5.39,10,6.71,15.66-1.37.68-1,2-1.16,3.12-5-2.89-9.11-6.46-9.46-12.76C209,178.78,208.9,175.83,213,175.66Z" fill="#c69778"/><path d="M218.57,194.44c.13-1.13-.21-2.44,1.16-3.12l-.19.1,1,1.09c2.49,1.87,2.21,5.68,5.08,7.29,0,5.49.92,11.3-5,14.76l-2.07-.07c.05-.66.11-1.33.17-2a39.56,39.56,0,0,0-.09-18Z" fill="#b4805b"/><path d="M259.51,192.6c1.21-2.64,2.2-5.3.84-8.2l3.57-8.76c2.38-.09,3.57,1.2,4.1,3.4C269.33,184.43,265.16,191.12,259.51,192.6Z" fill="#ddbaa1"/><path d="M218.58,194.51a39.56,39.56,0,0,1,.09,18Z" fill="#c69778"/><path d="M192.62,191.54l-1.07-1Z" fill="#c69778"/><path d="M233.52,229.46a1.94,1.94,0,0,1,1,2A2,2,0,0,1,233.52,229.46Z" fill="#ddbaa1"/><path d="M234.5,231.45l1.09,1Z" fill="#ddbaa1"/><path d="M220.57,214.56c6-3.46,5-9.27,5-14.76,5.42-1.77,10.91-2.9,16.63-1.72-2.76.27-3.59,1.64-3.85,4.51-.71,7.82,3.38,15.11,2.14,22.9l-2,6c-2-2-2.16-5-3.65-7.38C231.44,218.56,226.09,216.58,220.57,214.56Z" fill="#d2a381"/><path d="M240.52,225.49c1.24-7.79-2.85-15.08-2.14-22.9.26-2.87,1.09-4.24,3.85-4.51a20.73,20.73,0,0,1,8.27,1.49c.32.94,1,1.92.88,2.79-.78,5.39,1.15,9.63,5.14,13.11C248.89,215.15,245.59,221.73,240.52,225.49Z" fill="#d6ad8e"/><path d="M220.52,192.51l-1-1.09C220.25,191.44,220.42,192,220.52,192.51Z" fill="#c69778"/></g></g></svg>