<svg xmlns="http://www.w3.org/2000/svg" viewBox="0 0 514.33 511.2"><title>ex_d3_6_2</title><g id="Layer_2" data-name="Layer 2"><g id="Layer_1-2" data-name="Layer 1"><path d="M495,493.56c3.95,1.73,8.05.33,12.07.54,6.84.35,7.3.63,7.31,7.45,0,9.57,0,9.57-9.36,9.57q-247.73,0-495.46.08c-4.84,0-8-1.26-9.23-6.19-1.29-5.09,2.06-9.16,7.33-10,10.94-1.68,21.82-.44,32.73,0,10.37,9.63,20.95,9.37,31-.75,7,.12,13.89-.39,20.87.75,7.41,1.21,14.87-.65,22.33-.88,19.12-.57,38.18,1.62,57.29,1,6.45-.22,12.95-1.81,19.34-.76,7.31,1.2,14.58.63,21.87.75,3.28.05,6.6-1,9.85-.81a235.75,235.75,0,0,0,29.48,0c14.06-.84,28.13.27,42.2.2,9.82-.05,19.73-.08,29.6.61,3.58.25,7.35-1.29,10.83-.72,15.85,2.57,31.77.44,47.59.36,13.49-.06,27.15-.68,40.56-.06s26.74-1,40.08.23C474.93,504.9,485.65,504.46,495,493.56Z" fill="#ebece6"/><path d="M193.87,224.91c1.69-1.85,3.43-2.32,6.11-1.66,15,3.68,30.14,6.89,45.13,10.63,3.49.87,4.51-.2,5.86-3,1-2.12.07-5.58,3.62-6.26,4.22,3,9.28,3.43,14.08,4.68l17.8,3.64,24,8.05,12.18,6.94c.55,1.11,2.06,1.73,1.53,3.4-2.71,8.59-2.18,17.75-4.77,26.39-5.73,19.15-17.34,32.51-37,38.16-2,.58-4.08,1.43-6.28.68-6.53.21-12.06-3.19-18.05-5-19.2-5.68-38.35-11.54-58-15.47-4.29-3.64-9.94-4.24-14.79-6.61-1.66-.81-4.14-.48-4.65-3.06,1.65-6.67,1.06-13.33-.06-20,.22-2.17-.18-4.45,1.05-6.46q30.34,11.27,60.68,22.53c17.28,6.44,34.43,6.58,50.32-3.28,13.85-8.6,14.1-8.22,3.34-22.29-.21-.26-.46-.49-.66-.74-1.12-1.38-2.13-1.55-3.8-.5-12.09,7.68-24.78,7.26-37.73,2.46l-64.47-23.87C189.83,230.65,192.87,228.27,193.87,224.91Z" fill="#3c3e3d"/><path d="M460.69,385.5c0-3.84,0-7.58,0-11.33.2-40.07-16.64-72.05-46.5-97.84-3.38-2.92-7-5.53-10.54-8.3-2-1.54-3.43-1.15-5,.82-2.87,3.65-6,7.11-9,10.62-1.43,1.65-2.68,2.86-3.36-.65-3.87-20-7.87-40-11.76-60-.44-2.29-.51-3.88,3.21-3.58,14.06,1.15,28.17,1.71,42.26,2.51,6.93.4,13.86.86,21.25,1.32-1.45,4.13-4.63,6.6-7.25,9.37-2.81,3-3,5.13.12,8.2,12.21,12.14,22.41,25.82,29.38,41.64,15.32,34.77,14.69,69.58-.28,104.29C462.77,383.6,462.65,385.18,460.69,385.5Z" fill="#f9be79"/><path d="M467.35,444c-2.79,3.12-4.58,7.46-9.63,7.78a13.31,13.31,0,0,1-5.23-2.62,537.46,537.46,0,0,0-90.06-63c-46.06-25.83-94.72-45.07-145.65-58.74-11.66-3.13-23.41-5.9-35.12-8.83-4.64-3.4-1.86-7.46-.83-11.22,1.11-4,4.12-5.46,8.12-4.63,5,1,10,2.19,15,3.35a639.23,639.23,0,0,1,109.93,35.84,593.85,593.85,0,0,1,84.81,44.61c22.21,14.22,43.53,29.68,63.14,47.43C465,436.8,468.57,438.92,467.35,444Z" fill="#4e4e50"/><path d="M181.66,318.54c11.71,2.93,23.46,5.7,35.12,8.83,50.93,13.67,99.59,32.91,145.65,58.74a537.46,537.46,0,0,1,90.06,63,13.31,13.31,0,0,0,5.23,2.62c.89,3.92,4.63,5.36,7,8,1.55,1.68,3.79,2.72,4.61,5.07a42.93,42.93,0,0,0-8.77,9.43C454.89,469.13,449.29,464,443.5,459a545.38,545.38,0,0,0-119.59-77.75,623.73,623.73,0,0,0-171-53.65c-3.21-.52-5.09.14-6.66,3.32-6,12.06-12.1,24-18.54,35.87-4,7.27-7,15.07-11.92,21.79a12.51,12.51,0,0,1,.16-2.46c5.7-21.71,15.4-41.8,25-62,4.64-9.78,9.87-19.45,10-30.74,3.72,2.38,8.06,2.83,12.2,3.9-1.41,4.64-4,8.7-6.27,12.93-1.43,2.7-1.35,4.22,2.08,4.61,3.77.43,7.53,1,11.29,1.54A22.26,22.26,0,0,0,181.66,318.54Z" fill="#a2a1a3"/><path d="M310.51,240.94l-24-8.05c0-2.23,1.54-3.12,3.25-3.91,3.46-1.57,6.92-3.13,10.36-4.74,1.17-.55,3-.86,2.95-2.32,0-2-2.2-1.58-3.44-2.09-1-.42-2.29-.12-3.43-.28-5.08-.72-9.66,2-14.63,2-2.59-.52-5.06.57-7.72.5-6-.17-11.46-2.39-17.18-3.49a19.58,19.58,0,0,1,5.74-12.11c3.72-.16,6.5,1.92,9.54,3.62,3.34,1.87,6.85,3,10.32-.45,3.68-3.65,2.12-6.38-.41-9.84-2.93-4-8.37-5.32-10.3-10.2l.09-2c4.1,1.28,6.27,5,9.31,7.58,2.58,2.18,5,4.17,8.22,2.87,3.54-1.44,2.23-5.06,2.4-7.91a8.69,8.69,0,0,0-2-5.48c-3.43-4.79-6.85-9.66-11.87-13l1-5c4.76,3.35,8.09,7.94,11,12.87,1,1.67,2,3.12,4.08,3s3.09-1.54,3.84-3.35a12.56,12.56,0,0,0-.4-11,55.32,55.32,0,0,0-12.7-15.54c.39-.65.77-1.3,1.16-1.94,1.49,0,2.36,1,3.32,1.93,5.78,5.77,10.39,12.18,12.92,20.15,1.74,5.48,3.52,5.57,7.25,1.64,5.33-5.65,10-11.85,14.71-18,3.09-4,5.55-8.64,9.76-11.76,5.31,2.51,9.56,6.8,15.5,8.36,9.84,2.6,19.36,3.57,28.4-2.39.34-.61.68-1.22,1-1.83,1.78,0,3-1,4.44-1.93,2.74-1.82,4.38-4.92,7.51-6.22a9.1,9.1,0,0,1-.16,3,183.37,183.37,0,0,1-23.11,40.87c-8.36,11.13-19.75,19.54-27.72,31l-.52-1.19c-.13.44-.27.88-.4,1.32l0,0a91,91,0,0,0-17.24,12.18C317,231.59,312.43,235.17,310.51,240.94Z" fill="#d6ad8e"/><path d="M88.94,367.44c3.08-1.23,2.17-4.32,2.56-6.45q7.25-40.31,14-80.69c1.8-10.93,2.86-22,4.31-33a30.59,30.59,0,0,1,1-3.81c8.13-.77,13.3,5,16.72,13.13,5.08,12.06,3.63,24.79,1.74,37.16-2.09,13.67-5.05,27.25-8,40.76-3.92,17.89-7.08,35.9-10.11,53.93-.74,4.43-2.8,9-1.44,13.8-1.83,4.12-6.19,5.05-12.07,3.49-6.19-1.64-9.28-6.21-12.22-11.15C93.86,386.14,95,377.23,88.94,367.44Z" fill="#dcbba1"/><path d="M181.66,318.54a22.26,22.26,0,0,1-11.47-2.15c-1.46-2.08-2.28-4.33-1.59-6.88,1.35-5,2.77-10,4.16-15.06a5,5,0,0,0,2.53-2.79l.94-.24-.1.09,24,4.57c19.67,3.93,38.82,9.79,58,15.47,6,1.77,11.52,5.17,18.05,5-.81,2.95,2,2.18,3.06,2.58a648,648,0,0,1,104.63,48.3,542.94,542.94,0,0,1,84.77,60.15c7,6,7,8,.51,14.8-.57.58-1.22,1.09-1.82,1.63,1.22-5.05-2.33-7.17-5.51-10.05-19.61-17.75-40.93-33.21-63.14-47.43a593.85,593.85,0,0,0-84.81-44.61A639.23,639.23,0,0,0,204,306c-5-1.16-10-2.31-15-3.35-4-.83-7,.6-8.12,4.63C179.8,311.08,177,315.14,181.66,318.54Z" fill="#242424"/><path d="M109.71,402.3c-1.36-4.77.7-9.37,1.44-13.8,3-18,6.19-36,10.11-53.93,3-13.51,5.92-27.09,8-40.76,1.89-12.37,3.34-25.1-1.74-37.16-3.42-8.11-8.59-13.9-16.72-13.13,1.26-10.46,7-17.81,15.9-23a55,55,0,0,0-2.69,6.83c-1.66,6.47.51,9.93,6.73,11.25,7.48,6.48,14.45,13.35,18,22.93-9.46,12.16-8.76,22.4,2.17,31.91-.11,11.29-5.34,21-10,30.74-9.57,20.16-19.27,40.25-25,62a12.51,12.51,0,0,0-.16,2.46,1.41,1.41,0,0,1-.19.78l-.73,1.11a36.23,36.23,0,0,0-2.63,9.74A3.59,3.59,0,0,0,109.71,402.3Z" fill="#d6ad8e"/><path d="M109.71,402.3a3.59,3.59,0,0,1,2.52-2.1c2.75,1,3.79,3,3.43,5.79a36.08,36.08,0,0,1-1,5.79c-1.75,5.72.06,11.75-1.65,17.45-.1-1.78-.21-3.56-.34-5.72-7,3.23-13.58,1.63-20-.41A29.59,29.59,0,0,0,79,422c-13.67,2.12-26.27-1.37-38.42-7.31-5.54-2.71-9-7.1-11-12.78.28-2.9,2.45-2.62,4.44-2.63,8.42,0,16.85.38,25.22-1,1.4-.22,3.13.36,3.53-1.78,8,4,15.48,3.09,22.67-1.89,2.94,4.94,6,9.51,12.22,11.15C103.52,407.35,107.88,406.42,109.71,402.3Z" fill="#d8d6e9"/><path d="M130.75,238.57c-6.22-1.32-8.39-4.78-6.73-11.25a55,55,0,0,1,2.69-6.83c7.32-5.42,15.75-6.92,24.36-5.38,13.29,2.37,26.43,5.61,39.62,8.52a21.56,21.56,0,0,1,3.18,1.28c-1,3.36-4,5.74-4.51,9.36-3.07,4.3-3.77,9.58-5.87,14.28C166.22,243.59,149.08,237.93,130.75,238.57Z" fill="#dcbba1"/><path d="M339.44,215.5c8-11.46,19.36-19.87,27.72-31a183.37,183.37,0,0,0,23.11-40.87,9.1,9.1,0,0,0,.16-3v0c1.08-.66,1-1.34,0-2,3.64-7.66,5.05-15.61,3.08-24,.66.09,1.84,2.61,1.87-.23.07-7.41-.52-14.77-3-21.84,2.05-.71,4,1.86,6.11.1,12.52,28.24,3.63,53.22-11.83,77.14a178.07,178.07,0,0,1-34.53,38.79,100.21,100.21,0,0,0-20.63,24.7,6.89,6.89,0,0,1-3,3.18c-.27-2.12.9-3.77,1.8-5.48,2.72-5.17,5.5-10.31,8.26-15.46l0,0A5.66,5.66,0,0,0,339.44,215.5Z" fill="#e1c4af"/><path d="M306.54,111.74c2.9-3,6.5-5.09,10.15-7,2.35-1.26,2.79-2.53,1.44-5.1-11.53-21.9-17.76-45.67-24.08-69.39a13.05,13.05,0,0,1,.62-9.25c3-2,4.73-5.79,8.88-6.08-2,5.31-5.28,10.21-3.39,16.48,2.36,7.88,3.82,16,6.37,23.85,3.35,10.3,6.27,20.76,11,30.57,2.06,7.92,6.45,14.68,10.72,21.5,3.14,5,5.61,10.5,10.25,14.45-.3,6.06,2.46,11,5.42,16s8.63,7,11.69,11.75c-8.14-1.73-13.78-6.79-18-13.65-1.69-2.79-2.28-7.18-4.64-8.4-2.95-1.53-5.93,2.78-9.37,3.31-3.08-3.23-6.28-6.36-9.2-9.73C311.77,118,307.79,116,306.54,111.74Z" fill="#d6ad8e"/><path d="M85.42,394.64c-7.19,5-14.72,5.9-22.67,1.89-7.47-4.92-11.2-11.8-9.78-20.72,1.27-8,6-13.59,14-15.83,8.93-2.52,16.29.21,22,7.46C95,377.23,93.86,386.14,85.42,394.64Zm-12.9-22.46a6.6,6.6,0,0,0-6.82,6.94,6.83,6.83,0,0,0,7,6.83,7.25,7.25,0,0,0,7-7A7,7,0,0,0,72.52,372.18Z" fill="#4e4e50"/><path d="M379.89,12c1.29-5.66,3.74-10.36,10.05-11.67,2.36-.49,4.79-.88,5.33,2.53.29,1.8,1.91,2.2,3.13,2.95,6.67,4.05,13.4,8,20.05,12.08,7.26,4.44,13.06,10.24,16.38,18.21,1.15,2.75,2.31,5.56,1.4,8.67l-.19-.17-.23.13c-9.46-6.57-19.46-11.7-31.34-11.93-2.46-.62-4.93-.1-7.4-.08-1.95,0-4.58.5-4.63-2.84,2-1.69,4-3.44,6.06-5.06s1.9-2.9-.35-4.37c-4.5-3-9.18-5.48-14.67-5.46C381.05,15,380.31,13.91,379.89,12Z" fill="#242424"/><path d="M323.64,130.78c3.44-.53,6.42-4.84,9.37-3.31,2.36,1.22,2.95,5.61,4.64,8.4,4.18,6.86,9.82,11.92,18,13.65,7.15,3,14.49,2.39,21.86,1.12-9,6-18.56,5-28.4,2.39-5.94-1.56-10.19-5.85-15.5-8.36-.05-3.39-1.36-4.67-4.59-2.73-1.13.68-2.22,1.44-3.38,2-11.11,5.69-22.28,10.5-34.3,2.15a7,7,0,0,0-2.37-.58,52.71,52.71,0,0,1-1.23-15.74,3.27,3.27,0,0,1,2.83.49C301.44,139.33,312.52,136.29,323.64,130.78Z" fill="#c59575"/><path d="M54.7,462.67c1-6.78,5.62-11.87,8.28-17.89,2.34-5.3,5.19-10.38,7.81-15.55,2.49-.07,5-.23,7.47-.18,5.09.11,10.19.34,14.51,3.61a19.56,19.56,0,0,1-1,3.26q-8.47,16.53-17,33c-.52,1-.94,2.17-2.34,2.29C67.52,466.24,62,462.7,54.7,462.67Z" fill="#a2a1a3"/><path d="M420.44,74.83l-1.19.74c-.61-1.45-2-1.49-3.24-1.85-4.53-1.3-9.05-2.64-13.57-4-1.45-2.13-3-4.13-6-4-.51-3.22-3.83-4.17-5.4-6.67-1.74-2.76-1.94-3.91,1.07-5.88,3.19-2.09,6.42-4.78,6.31-9.38,0-.33,0-.66,0-1,8.94-.69,17.33,1.37,25.45,5,2.46,1.08,4.25,3.92,7.51,3Z" fill="#dcbba1"/><path d="M288.93,145.55a7,7,0,0,1,2.37.58c12,8.35,23.19,3.54,34.3-2.15,1.16-.6,2.25-1.36,3.38-2,3.23-1.94,4.54-.66,4.59,2.73-4.21,3.12-6.67,7.75-9.76,11.76-4.74,6.15-9.38,12.35-14.71,18-3.73,3.93-5.51,3.84-7.25-1.64-2.53-8-7.14-14.38-12.92-20.15-1-1-1.83-1.95-3.32-1.93Q287.28,148.13,288.93,145.55Z" fill="#dcbba1"/><path d="M92.77,432.66c-4.32-3.27-9.42-3.5-14.51-3.61-2.49-.05-5,.11-7.47.18C56,427.35,41.93,423.61,30.07,414c-3.52-2.86-5.29-6.28-3.41-10.89.63-1.53,1.34-2.26,2.9-1.15,2,5.68,5.43,10.07,11,12.78C52.68,420.63,65.28,424.12,79,422a29.59,29.59,0,0,1,13.71,1.1c6.46,2,13.09,3.64,20,.41.13,2.16.24,3.94.34,5.72-2.4,5.31-7,5-11.72,4.73C98.43,433.76,95.83,431.67,92.77,432.66Z" fill="#444346"/><path d="M460.58,474.21a42.93,42.93,0,0,1,8.77-9.43c6.83-2,13.55-2.85,20,1.33,9.06,5.89,11.28,16.62,5.62,27.45-9.3,10.9-20,11.34-31.68,1.29C459.14,488.39,458.52,481.48,460.58,474.21Zm4.8,8.51c-.18,7,5.76,13,13.11,13.39,7.05.33,13.68-5.76,13.85-12.7.2-8.21-5.47-13.81-13.79-14.29C470.55,468.66,466.42,475.19,465.38,482.72Z" fill="#444346"/><path d="M54.7,462.67c7.26,0,12.82,3.57,17.69,8.55,3.13,7.83,3.91,15.55-1,23-10.09,10.12-20.67,10.38-31,.75-6.73-12.09-4.84-22.8,5-29.11C48.26,464.06,51.51,463.49,54.7,462.67Zm14.08,21c0-8.92-5-14.44-13.2-14.45s-13.76,5.36-13.76,13c0,8.08,5.91,13.81,14.26,14C61.65,496.28,70,489.83,68.78,483.64Z" fill="#444346"/><path d="M396.47,65.78c3-.16,4.52,1.84,6,4-.82,1.78-1.54,3.6-2.47,5.32-3.39,6.26-3.41,6.25,3.33,9.53q-2.4,4.07-4.79,8.12c-2.07,1.76-4.06-.81-6.1-.1-4.81-3.27-10-.51-14.93-.86l-8.1-6.87c3.71-5.77,9.7-9,14.8-13.2C387.72,68.78,390.85,64.56,396.47,65.78Z" fill="#c59575"/><path d="M323.64,130.78c-11.12,5.51-22.2,8.55-33.11-.48a3.27,3.27,0,0,0-2.83-.49c4.37-8,11.51-13.14,18.84-18.07,1.25,4.27,5.23,6.24,7.9,9.31C317.36,124.42,320.56,127.55,323.64,130.78Z" fill="#e1c4af"/><path d="M392.44,29.87c.05,3.34,2.68,2.86,4.63,2.84,2.47,0,4.94-.54,7.4.08-4.28.65-6.87,2.51-5.39,7.38.05.16-.41.47-.64.7-1.15-1.66-.75-4.19-3.44-5.06-4.68-1.51-9.24-3.38-13.83-5.16-11.34-4.42-22.52-9.32-34.06-13.15-6.94-2.3-13.91-5.77-21.59-4.54-6.59,1-13.19.83-19.79,1a6.41,6.41,0,0,0-2.18.92c-4.15.29-5.9,4.08-8.88,6.08.77-5.44,3.76-9.36,8.89-9.73,11.5-.83,23.15-3.2,34.53-.13,8.87,2.4,17.39,6.1,26.09,9.17,2.31.82,4.57,2,7.18,1.48.27.59.43,1.6.82,1.7C379.06,25.2,384.9,30.22,392.44,29.87Z" fill="#ebd5c5"/><path d="M284.45,152.65a55.32,55.32,0,0,1,12.7,15.54,12.56,12.56,0,0,1,.4,11c-.75,1.81-1.75,3.23-3.84,3.35s-3.1-1.34-4.08-3c-2.89-4.93-6.22-9.52-11-12.87C279.75,161.66,280.7,156.58,284.45,152.65Z" fill="#dcbba1"/><path d="M277.63,171.65c5,3.37,8.44,8.24,11.87,13a8.69,8.69,0,0,1,2,5.48c-.17,2.85,1.14,6.47-2.4,7.91-3.21,1.3-5.64-.69-8.22-2.87-3-2.57-5.21-6.3-9.31-7.58C272,181.68,273.44,176.15,277.63,171.65Z" fill="#dcbba1"/><path d="M338.56,215.59c-2.76,5.15-5.54,10.29-8.26,15.46-.9,1.71-2.07,3.36-1.8,5.48-2.36,3.56-3.05,8-5.81,11.35l-12.18-6.94c1.92-5.77,6.49-9.35,10.81-13.17A91,91,0,0,1,338.56,215.59Z" fill="#c59575"/><path d="M271.52,189.61c1.93,4.88,7.37,6.2,10.3,10.2,2.53,3.46,4.09,6.19.41,9.84-3.47,3.44-7,2.32-10.32.45-3-1.7-5.82-3.78-9.54-3.62C264.14,200.16,266.88,194.37,271.52,189.61Z" fill="#dcbba1"/><path d="M392.44,29.87c-7.54.35-13.38-4.67-20.26-6.42-.39-.1-.55-1.11-.82-1.7,2.22-3.8,7.76-4.7,8.53-9.76.42,1.92,1.16,3,3.59,3,5.49,0,10.17,2.51,14.67,5.46,2.25,1.47,2.54,2.66.35,4.37S394.45,28.18,392.44,29.87Z" fill="#dec1ad"/><path d="M420.44,74.83l11-24c1.41-2.08,1.56-5.06,4.39-6.12l.23-.13.19.17c2.54,2.32,2.68,5.16,1.6,8.15a168.05,168.05,0,0,1-8.35,18.52C427.47,75.44,423.91,74.91,420.44,74.83Z" fill="#d6ad8e"/><path d="M403.3,84.6c-6.74-3.28-6.72-3.27-3.33-9.53.93-1.72,1.65-3.54,2.47-5.32,4.52,1.33,9,2.67,13.57,4,1.24.36,2.63.4,3.24,1.85A120.39,120.39,0,0,1,403.3,84.6Z" fill="#242424"/><path d="M256.63,218.59c5.72,1.1,11.15,3.32,17.18,3.49,2.66.07,5.13-1,7.72-.5-3.76,3.43-9.33,3.84-12.86,7.67-4.8-1.25-9.86-1.72-14.08-4.68Z" fill="#c59575"/><path d="M183.49,248.55c2.1-4.7,2.8-10,5.87-14.28l64.47,23.87c12.95,4.8,25.64,5.22,37.73-2.46,1.67-1.05,2.68-.88,3.8.5.2.25.45.48.66.74,10.76,14.07,10.51,13.69-3.34,22.29-15.89,9.86-33,9.72-50.32,3.28Q212,271.19,181.68,260C181.41,256,183.08,252.38,183.49,248.55Z" fill="#2dafb7"/><path d="M150.89,293.41c-10.93-9.51-11.63-19.75-2.17-31.91,8.24-5.8,16.7-7.24,25.36-1a74.73,74.73,0,0,1,6.55,5.93c1.12,6.66,1.71,13.32.06,20-2.35,1-3.18,3.28-4.56,5.1l.1-.09c-.22.44-.48.73-.94.24a5,5,0,0,1-2.53,2.79l-9.67,2.86C159,296.24,154.61,295.79,150.89,293.41Zm11.42-9.85a7,7,0,0,0,7-6.86,7,7,0,0,0-6.94-7,6.72,6.72,0,0,0-6.92,6.92A6.57,6.57,0,0,0,162.31,283.56Z" fill="#4e4e50"/><path d="M180.63,266.42a74.73,74.73,0,0,0-6.55-5.93c-8.66-6.23-17.12-4.79-25.36,1-3.52-9.58-10.49-16.45-18-22.93,18.33-.64,35.47,5,52.74,10-.41,3.83-2.08,7.47-1.81,11.41C180.45,262,180.85,264.25,180.63,266.42Z" fill="#c59575"/><path d="M268.67,229.25c3.53-3.83,9.1-4.24,12.86-7.67,5,0,9.55-2.75,14.63-2,1.14.16,2.42-.14,3.43.28,1.24.51,3.44.1,3.44,2.09,0,1.46-1.78,1.77-2.95,2.32-3.44,1.61-6.9,3.17-10.36,4.74-1.71.79-3.28,1.68-3.25,3.91Z" fill="#dec1ad"/><path d="M377.47,150.64c-7.37,1.27-14.71,1.86-21.86-1.12-3.06-4.74-8.76-6.76-11.69-11.75s-5.72-10-5.42-16a8.81,8.81,0,0,0,1-2.16c1-7.14,2.2-14.1,5.82-20.63,2.47-4.46,6.69-8.37,6.23-14.19,2.78-1.17,5-.33,7.17,1.64,2.69,2.42,5.67,4.52,8.51,6.79,10.06,8,19.84,16.36,19.8,30.79,0,7.4-.19,14.93-6,20.74-1.16,1.15-2.6,2.17-2.5,4.1C378.15,149.42,377.81,150,377.47,150.64Z" fill="#e1c4af"/><path d="M378.48,148.81c-.1-1.93,1.34-2.95,2.5-4.1,5.83-5.81,6-13.34,6-20.74,0-14.43-9.74-22.75-19.8-30.79-2.84-2.27-5.82-4.37-8.51-6.79-2.18-2-4.39-2.81-7.17-1.64a59,59,0,0,0-4-16,91.12,91.12,0,0,0-13.32-27.1c-1.71-2.41-5.11-4-4.66-7.76a41.18,41.18,0,0,1,8.68,6.94c3.36,3.75,6.78,7.44,10.17,11.16a37.9,37.9,0,0,0,5.14,13.78c.9,10,8.71,14.26,15.86,19.07l8.1,6.87c.49.43,1,.82,1.46,1.28,6.29,6.25,13.32,12,14.58,21.65,2,8.38.56,16.33-3.08,24,0,.67,0,1.34,0,2v0c-3.13,1.3-4.77,4.4-7.51,6.22C381.5,147.81,380.26,148.83,378.48,148.81Z" fill="#ebd5c5"/><path d="M339.44,215.5a5.66,5.66,0,0,1-.92.13c.13-.44.27-.88.4-1.32Z" fill="#c59575"/><path d="M115.59,389.35l-.73,1.11Z" fill="#a2a1a3"/><path d="M393.52,114.69c-1.26-9.64-8.29-15.4-14.58-21.65-.46-.46-1-.85-1.46-1.28,5,.35,10.12-2.41,14.93.86,2.46,7.07,3,14.43,3,21.84C395.36,117.3,394.18,114.78,393.52,114.69Z" fill="#d6ad8e"/><path d="M390.42,140.7c0-.68,0-1.35,0-2C391.46,139.36,391.5,140,390.42,140.7Z" fill="#d6ad8e"/><path d="M329.53,33.94c-.45,3.75,3,5.35,4.66,7.76a91.12,91.12,0,0,1,13.32,27.1,2.16,2.16,0,0,0-2,1.79c-1.48,4.93-4.17,9.25-7.11,13.43-4.27,6.09-8.73,7.21-15.38,4-1.77-.85-3.64-1.5-5.47-2.24-4.73-9.81-7.65-20.27-11-30.57-2.55-7.85-4-16-6.37-23.85-1.89-6.27,1.43-11.17,3.39-16.48a6.41,6.41,0,0,1,2.18-.92c6.6-.17,13.2,0,19.79-1,7.68-1.23,14.65,2.24,21.59,4.54,11.54,3.83,22.72,8.73,34.06,13.15,4.59,1.78,9.15,3.65,13.83,5.16,2.69.87,2.29,3.4,3.44,5.06,0,.67,0,1.33,0,2,0,.34,0,.67,0,1l-34.86-7.45C352.28,34,341,31.46,329.66,29.13a12.82,12.82,0,0,0-7.63.3C324.15,32.21,327.79,31.41,329.53,33.94Z" fill="#e1c4af"/><path d="M317.53,85.78c1.83.74,3.7,1.39,5.47,2.24,6.65,3.21,11.11,2.09,15.38-4,2.94-4.18,5.63-8.5,7.11-13.43a2.16,2.16,0,0,1,2-1.79,59,59,0,0,1,4,16c.46,5.82-3.76,9.73-6.23,14.19-3.62,6.53-4.81,13.49-5.82,20.63a8.81,8.81,0,0,1-1,2.16c-4.64-4-7.11-9.44-10.25-14.45C324,100.46,319.59,93.7,317.53,85.78Z" fill="#dcbba1"/><path d="M72.52,372.18a7,7,0,0,1,7.17,6.73,7.25,7.25,0,0,1-7,7,6.83,6.83,0,0,1-7-6.83A6.6,6.6,0,0,1,72.52,372.18Z" fill="#d8d6e9"/><path d="M398.46,42.86c0-.66,0-1.32,0-2,.23-.23.69-.54.64-.7-1.48-4.87,1.11-6.73,5.39-7.38,11.88.23,21.88,5.36,31.34,11.93-2.83,1.06-3,4-4.39,6.12-3.26.89-5.05-2-7.51-3C415.79,44.23,407.4,42.17,398.46,42.86Z" fill="#dec1ad"/><path d="M329.53,33.94c-1.74-2.53-5.38-1.73-7.5-4.51a12.82,12.82,0,0,1,7.63-.3C341,31.46,352.28,34,363.59,36.41l34.86,7.45c.11,4.6-3.12,7.29-6.31,9.38-3,2-2.81,3.12-1.07,5.88,1.57,2.5,4.89,3.45,5.4,6.67-5.62-1.23-8.75,3-12.29,5.9-5.1,4.19-11.09,7.43-14.8,13.2-7.15-4.81-15-9.06-15.86-19.07,10.43,5,18.32-1.59,26.6-6,1.45-.78,3.76-2.21,3.19-4.22s-2.91-1.67-4.77-1.76c-10.06-.54-20.11-1.17-30.16-1.77-3.39-3.72-6.81-7.41-10.17-11.16A41.18,41.18,0,0,0,329.53,33.94Z" fill="#d6ad8e"/><path d="M465.38,482.72c1-7.53,5.17-14.06,13.17-13.6,8.32.48,14,6.08,13.79,14.29-.17,6.94-6.8,13-13.85,12.7C471.14,495.77,465.2,489.71,465.38,482.72Z" fill="#4e4e50"/><path d="M68.78,483.64c1.19,6.19-7.13,12.64-12.7,12.52-8.35-.18-14.26-5.91-14.26-14,0-7.62,5.7-13,13.76-13S68.79,474.72,68.78,483.64Z" fill="#4e4e50"/><path d="M162.31,283.56a6.57,6.57,0,0,1-6.82-6.94,6.72,6.72,0,0,1,6.92-6.92,7,7,0,0,1,6.94,7A7,7,0,0,1,162.31,283.56Z" fill="#d8d6e9"/><path d="M348.38,52c10.05.6,20.1,1.23,30.16,1.77,1.86.09,4.22-.17,4.77,1.76s-1.74,3.44-3.19,4.22c-8.28,4.44-16.17,11-26.6,6A37.9,37.9,0,0,1,348.38,52Z" fill="#e1c4af"/></g></g></svg>