<svg xmlns="http://www.w3.org/2000/svg" viewBox="0 0 379.98 669.61"><title>ex_d2_8_2</title><g id="Layer_2" data-name="Layer 2"><g id="Layer_1-2" data-name="Layer 1"><path d="M267.8,612.6c9.44,2.87,17.6,7.63,22.55,16.48,3.32,5.93-1.44,16-8.28,20.36-11.91,7.63-25.36,11.07-38.7,14.51-8.55,2.21-17.61,2.56-26.46,3.55-9.37,1-18.69,2.38-28.19,2.07-18.71-.63-37.36-2.29-55.56-6.41C119.58,660.09,106,656.05,95,646.61c-6-5.13-9.87-14.88-2.15-22.4,5.51-5.37,11.26-10.23,19.17-11.58a9.1,9.1,0,0,1-2.42,4.7c-4.27,5-7.79,10.39-6.58,17.51-.42,5.2,1.55,7.94,7.49,9.55s12.1,1.37,18.16.21c8.34-1.6,10.92-4.37,12.21-13a10.82,10.82,0,0,0,1.83-7.65c.83-7.77,1.71-15.52,5-22.75.36.34.74,1,1.07,1,8.91-.51,17.83-.93,26.72-1.71,19.4-1.7,38.63-1,57.69,3.19,1.21,1.43,1.27,3.29,1.86,5,1.3,3.59.66,7.67,2.79,11,.23,4-1.39,8.21,1.2,12,.65,5.2,2.48,9.79,7.85,11.64a38.22,38.22,0,0,0,23,1c4.55-1.26,8.25-3.77,7.77-9.43.16-4.89-.85-9.25-4.09-13.26C271.38,618.86,268.56,616.33,267.8,612.6Z" fill="#ebece6"/><path d="M239.75,276c6.11,14.45,13.08,28.6,15.24,44.4-3.48,6-6.84,12.17-8.5,19-6.83,28.15-6.64,57-8.17,85.63a15.35,15.35,0,0,1-5.78,1,136.51,136.51,0,0,1-24.59-.93,43.61,43.61,0,0,0-4.86-1.09c-4.09-.44-6.05-2.06-6.53-6.69-1.54-15.18-3.75-30.29-5.7-45.43-.14-1.07.14-2.64-1.85-1.65-1-3.54,1-6.78,1-10.3-.18-24.27-.1-48.54-.1-72.81,7-.79,14.09-.94,21-2.54,5.14-.59,10.29-1.09,15.07-3.28C231.09,280.93,235.19,277.86,239.75,276Z" fill="#3c3e3d"/><path d="M189.87,287.11c0,24.27-.08,48.54.1,72.81,0,3.52-1.95,6.76-1,10.3-1.62,13.67-3.13,27.34-4.89,41-1.46,11.32-1.59,11.3-12.22,14L154,427.11c-3.87-1.85-8.34-.2-12.21-2.07-.28-6.63-.44-13.27-.88-19.89-1.25-18.87-1.75-37.82-5.08-56.49-1.72-9.64-4.43-19-10.68-26.92,0-5.87,1.67-11.44,3.59-16.87,3.5-9.93,7-19.9,12-29.2a35.08,35.08,0,0,0,13.89,5.87,52,52,0,0,0,14.21,2.94C175.78,286.27,182.9,286.12,189.87,287.11Z" fill="#181819"/><path d="M218.09,73.45c3.37,1,4.22,3.52,3.53,6.59-1.13,5-1,10.46-7.3,13-2.56,1.05-2.14,5.28-2.3,8.16-.27,5-.13,9.93-.16,14.9-1,5.2,1.11,7.9,6.45,8.25a31.27,31.27,0,0,1,5.23,1.24l.25,2.08c-3.61,0-7.09-.77-6.81,5.32.52,11.34.11,11.36,6.83,11.6.05,1.6-.44,3.26.57,4.74l.09,6.74a1.57,1.57,0,0,0,.25,2.33c.29,5,3.9,2.59,6.31,2.86a6.51,6.51,0,0,1,.77,0c.9,3.64,1.92,7.26,2.69,10.93.54,2.6,2.27,3.22,4.35,2.69,2.58-.67,6.62,2.39,7.56-2.76a20.56,20.56,0,0,0,2.46-10.47c-.11-5.79,0-11.59.06-17.38l2.91.33c.31.46.62.49.95,0h2.05c2.44,3.26,3.69,7.09,5.16,10.82a11.89,11.89,0,0,0-2.42,5.7c-3.72,2.58-4.33,6.85-5.73,10.65-3.86,10.51-9.41,14.51-20.4,14.51-7.32,0-14.64,0-22,0-8.9,0-16.37-4.87-17-13.47-.75-10.78-3.29-22,2.35-32.48a1.83,1.83,0,0,0,.35-.14s.06-.16.08-.25l-.41.41c-2,.09-3.09,1.44-4,3-2.16-1.66.2-3.32,0-5,2.3-4.94,4.92-9.76,6.81-14.85s5.32-9.55,6.33-15q2-2.51,4-5c.17-.2.52-.52.48-.57-.37-.55-.64-.13-.9.15-2.4-.11-3.94,1.63-5.6,2.84a15.18,15.18,0,0,1-12.07,3l-.12-63.83a31.68,31.68,0,0,1,19,4.7c1.39.86,3.11,1.69,2.88,3.71-.89,7.82,4.24,14.51,3.73,22.25C217.24,75.62,217.46,74.32,218.09,73.45Z" fill="#dcbaa1"/><path d="M253.35,421.82c-.41,7.75.06,15.52.07,23.24a348.85,348.85,0,0,0,3.55,45.6c1.9,14.31-.58,28.5-.68,42.75,0,4.65-.47,9.29-.44,13.94.06,13.1-1.25,26.2-.16,39.3-2.84,1.43-5.82,1.11-8.81.75.32-12.24-.29-24.47.72-36.75a162.17,162.17,0,0,0-.88-35.7,101,101,0,0,0-4.31-19.23c-3.64-10.46-9.53-19.52-16.39-28-1.6-2-3.11-4.4-6-4.88-6.26-8.28-8.49-18-10-28a104.61,104.61,0,0,0,29.26-9Z" fill="#d6ad8f"/><path d="M154,427.11l17.87-1.89c-.67,3.54-1.32,7.09-2,10.63-1.86,9.54-3.92,19-10,27-3.16.44-4.67,3.08-6.43,5.16-8.8,10.38-14.34,22.5-17.87,35.51a108.5,108.5,0,0,0-3.42,38.9c1.38,14.29.34,28.55.66,42.82a6.74,6.74,0,0,1-.9,2.3c-2.44.25-4.88.45-7.14-.88-.33-20.58,0-41.21-1.2-61.73a257.24,257.24,0,0,1,3-60.41c1.26-7.22-1.37-14.83.23-22.27.52-2.42.77-4.91,1.14-7.36,9-.13,17.08-3.81,25.42-6.49C153.7,428.28,153.81,427.55,154,427.11Z" fill="#d6ad8f"/><path d="M168.91,284.48a52,52,0,0,1-14.21-2.94c0-3.17-2-5.66-3.73-7.81-3.1-3.94-2.84-9.94-7.91-12.54.45-4.6.68-9.25,1.41-13.81a32.81,32.81,0,0,0-.36-12.3c2.16-5.09,2.51-10.54,2.75-15.92.63-14.25,3.9-17.95,17-22.09,7.4-2.32,15.33-4,21.07-10.28,5.94-6.48,6.33-6.27,10.91,1.9a1.58,1.58,0,0,1,.09.49c-4.9-.77-6.94,1.18-6.12,6.17a29.28,29.28,0,0,1,0,4.87,12.22,12.22,0,0,1-6.76,4.76c-3.17.94-6.48,1.48-9.6,2.55-7,2.41-14,5.08-21.27.18,1.26,2.78,2.9,5,4.09,7.48,1.74,3.6,4.29,3.78,7.36,2.18A67.33,67.33,0,0,1,180,211.85c4.47-1,7.37,0,9.89,3.41,0,3.68-.33,7.39,1,11-10.86,3.52-21.1,10.17-33.37,6.64,3.28,9.11,4.88,9.44,13.51,6.49,6.27-2.14,12.91-5.67,19.78-1.25-1.79,5.23-.58,10.62-.85,15.93-2.75,1.31-5.11,4.21-8.3,3.67-4.24-.73-8.45-.21-12.65-.59-4.65-1.6-8-5-11.37-8.5,1.49,8.22,4.29,15.88,7.32,23.48Z" fill="#d6ad8f"/><path d="M196,189.18a1.58,1.58,0,0,0-.09-.49c-4.58-8.17-5-8.38-10.91-1.9-5.74,6.26-13.67,8-21.07,10.28-13.13,4.14-16.4,7.84-17,22.09-.24,5.38-.59,10.83-2.75,15.92-5.88-13.09-12.15-26-15.91-40,1.28-1.7.53-3.38.14-5.17-2.1-9.61-4.08-19.24-6.11-28.87,1.62.43,2.33,1.56,2.87,3.11a101.43,101.43,0,0,0,3.91,9.68c2.92,6.16,6.54,12,14.22,12.29,9.8.4,19.63.26,29.44.06,7.65-.16,15-7.05,15.1-14.6.08-10.09,1.11-20.24-.92-30.27,1.79-.22,1.42,3.89,4,2,.9-1.56,2-2.91,4-3l0,0c-5.64,10.45-3.1,21.7-2.35,32.48.6,8.6,8.07,13.45,17,13.47,7.32,0,14.64,0,22,0,11,0,16.54-4,20.4-14.51,1.4-3.8,2-8.07,5.73-10.65.32,4.91-1.95,9.29-2.79,14-1,5.66-3.87,11.15-2,17.16-4.38,14.81-10.45,29-17,42.91-2.6-5.48-1.23-11.67-3-17.25-1.45-4.62.2-10.38-4.83-13.74-.19-1.53.4-3.3-2-3.91A181.12,181.12,0,0,1,196,189.18Z" fill="#c69575"/><path d="M251.94,33.26c5.94-7.92,11.45-15.31,17-22.66,2.21-2.91,4.7-5.62,6.71-8.65,1.54-2.32,2.72-2.71,4.47-.42C288,11.8,295.79,22.06,304,32.75c-2.84,1.12-5.32.75-7.69.68-2.62-.08-3.43,1-3.4,3.52.12,12.14-.11,24.29.24,36.42.09,3.29-.78,4.12-3.73,4.08-7.49-.09-15-.17-22.47,0-3.12.08-4-1.06-4-4,.12-11.14,0-22.28,0-33.43,0-6.48,0-6.48-6.37-6.53C255.3,33.46,254,33.36,251.94,33.26Z" fill="#f8bf7a"/><path d="M75.65,33.18c6.25-8.23,12-15.85,17.8-23.43C95.56,7,97.87,4.36,99.89,1.54c1.58-2.2,2.64-1.89,4.13.08,7.79,10.3,15.65,20.54,23.65,31-2.09,1.45-4.33.92-6.32.77-3.49-.27-4.58.94-4.52,4.47.21,11.47-.06,22.95.15,34.43.07,3.75-.69,5.42-4.9,5.21-7-.35-14-.25-21-.07-3.27.09-4.29-1-4.24-4.27.19-11.14-.17-22.29.19-33.43.15-4.89-.93-7.27-6.23-6.32C79.47,33.67,78,33.31,75.65,33.18Z" fill="#f8bf7a"/><path d="M190.89,143.35c-2.62,1.89-2.25-2.22-4-2l0,0c-.65-1-1.32-1.1-2,0a34.23,34.23,0,0,0-22.17-5l.06-1.92c1.6-2,1.86-4-.13-6-1.92-1-4-.58-6.06-.8,1.08-2.41,3.39-3.24,5.58-3.38,5.63-.35,6.4-3.68,5.69-8.21-.27-7.91,1.14-16-2-23.63-2.33-5.24-1-10.93-2.06-16.33.31-5.81,3.46-11,3.94-16.71.7-8.52,1.58-9.88,9.76-12.55a31.88,31.88,0,0,1,12.25-1.71l.12,63.84c-7,2.09-11.4-3.24-16.78-5.8l-1.23-.75-.49-.39.44.43.72,1.28,15.34,31.59c.61,1.39,1,3.05,3,3.08C191.09,140,188.73,141.69,190.89,143.35Z" fill="#d6ad8f"/><path d="M253.35,421.82l-14.07,4-1-.84c1.53-28.66,1.34-57.48,8.17-85.63,1.66-6.84,5-13,8.5-19,2.59,10.71,2.59,21.7,3.54,32.57,1.74,20,3.08,40,4.78,60a4.27,4.27,0,0,1-2.59,4.73C258.25,419,255.8,420.44,253.35,421.82Z" fill="#34b0b8"/><path d="M125.18,321.74c6.25,7.9,9,17.28,10.68,26.92,3.33,18.67,3.83,37.62,5.08,56.49.44,6.62.6,13.26.88,19.88-5.28-.07-10-2.22-15-3.75l-.46-.18c-9.66-3.83-10.08-4.73-9.22-14.88,2-24,3.85-47.93,5.91-71.88C123.44,330.11,123.26,325.73,125.18,321.74Z" fill="#34b0b8"/><path d="M321,103.43c4.83.13,8.87-2.56,13.3-3.82a45.78,45.78,0,0,1,25.5,0c3,.85,6.19,1,9.26,1.72,10.86,2.34,14.55,13.89,7,22.17C371,129,365.4,134,357.91,136.2a17.08,17.08,0,0,0-3.4,1.9c-5.85-.91-11.52.64-17.26,1.19a26.16,26.16,0,0,1-.16-4.91c.74-5-1.06-7.39-6.32-6.5-.44-4.5,1.18-9.16-1.08-13.52a6.17,6.17,0,0,1-.84-.15c-.23-5.08-4.11-2-6.25-2.78Z" fill="#d6ad8f"/><path d="M25.94,138.42C18.4,135,11,131.52,5.3,125.16c-2.13-2.38-4-4.81-4.78-8-1.9-7.57,1.46-13.7,9-15.59,5.28-1.31,10.7-2,16-3.18,8.61-1.89,16.73.09,24.8,2.75,2.81.93,5.51,2.27,8.56,2.31-1.21,2.54-.82,5.36-1.36,8-2.37,0-4.91-1.22-7,1-3,4.87-1,10.26-1.61,15.38-2,.61-4.64-1.12-6.18,1.51-.22.94-.77,2-.62,2.83,1,5.69-1.9,6.46-6.75,6.35C32.29,138.5,29.1,135.76,25.94,138.42Z" fill="#d6ad8f"/><path d="M124.8,586.65c2.26,1.33,4.7,1.13,7.14.88,3.63.74,7.61-1.89,11,1.17-2.43,8.64-7.69,16.55-7.8,25.73-.1,8.45-.26,16.65-5.23,23.94a6.59,6.59,0,0,1-4-.07c-1-1-2.23-.75-3.43-.53a51.85,51.85,0,0,0-9.8.4c-3.75.58-7.19-.17-9.72-3.33-1.21-7.12,2.31-12.49,6.58-17.51a9.1,9.1,0,0,0,2.42-4.7c4.68-4,6.57-9.35,7-15.33.18-2.64-.07-5.25.54-7.91C120.26,586,122,585.47,124.8,586.65Z" fill="#dad8eb"/><path d="M246.88,587.4c3,.36,6,.68,8.81-.75,5-1.33,5,2.31,5.07,5.43.21,6.39,1.34,12.47,4.76,18a5.35,5.35,0,0,0,2.28,2.53c.76,3.73,3.58,6.26,5.78,9,3.24,4,4.25,8.37,4.09,13.26-2.3,1.6-4.54,3.93-7.48,3.42-6.5-1.12-12.91.2-19.36.14-1-3.76-5.35-5.65-5.13-10.38.65-13.81-2.61-26.86-8.86-39.17C239.73,585.17,243.5,587.65,246.88,587.4Z" fill="#dad8eb"/><path d="M227.93,204.16c5,3.36,3.38,9.12,4.83,13.74,1.76,5.58.39,11.77,3,17.25-1.48,8.41,1.29,16.62,1.13,25-3.59,4.14-5.45,9.29-8,14-1.2,2.2-3.59,4.14-2.93,7.17-4.78,2.19-9.93,2.69-15.07,3.27.59-4.37,2.82-8.21,4-12.39,1.9-5.51,4.07-10.95,5.58-16.57.66-2.42,3.79-4.59,1.37-7.59-.66-2.92-1.32-5.85-2-8.77-.76-3.1,3-4.29,3-7.08l0,0c.77-.35.64-.7,0-1.06.51-4.39,1.63-8.82-1-12.95,1-1.92,2.31-3.74,2.84-5.77s4.25-2.35,2.19-5.19C227.2,206.21,227.57,205.19,227.93,204.16Z" fill="#d6ad8f"/><path d="M268.71,116.48a120.53,120.53,0,0,0,18.11-1c5.81,2.21,10.4,5.65,12,12.06-3.33,1.1-3.86,4.31-5.21,6.91-.12.06-.33.12-.34.2a3.23,3.23,0,0,0,.07.69l-.06,1c-1.07,2.3-2.5,4.74-5,5.16-10.08,1.75-20.25,5-30.31-.2-1.8-4.25-1.54-8.54-.23-12.84C258.46,121.77,262.66,118.27,268.71,116.48Z" fill="#dcbaa1"/><path d="M93.88,115.52a109.33,109.33,0,0,0,17.16,1c6.42,1.16,9.61,5.53,11.33,11.37-.1,1.77-.87,3.53-.1,5.31,1.44,3.3.72,6.39-.86,9.4-12.14,2.31-24,2.64-35-4.28.9-4-1.4-6.9-3.4-9.9C83.17,120.06,84.47,118.53,93.88,115.52Z" fill="#dcbaa1"/><path d="M189.8,45.09a31.88,31.88,0,0,0-12.25,1.71c-8.18,2.67-9.06,4-9.76,12.55-.48,5.73-3.63,10.9-3.94,16.71l-2.16-2.6c0-3.65.35-7.33,0-10.95-1.81-20.46,18.75-32.89,36.85-27.62C210.85,38.47,218,47.72,218,60.5c0,4.31.06,8.63.1,12.94-.63.88-.85,2.18-2.65,2.31.51-7.74-4.62-14.43-3.73-22.25.23-2-1.49-2.85-2.88-3.71A31.68,31.68,0,0,0,189.8,45.09Z" fill="#343332"/><path d="M122.23,161.08c2,9.63,4,19.26,6.11,28.87.39,1.79,1.14,3.47-.14,5.17-3.45-7.89-6.53-15.93-11.42-23.15a21.17,21.17,0,0,0-15.51-9.69c-8.71-1.08-17.5-1.67-26.25-2.46-1.75-5.15-.76-10.39-.54-15.61l7.49.1a12.05,12.05,0,0,0,9.3,6.41c5.14.84,10.22.26,15.32.6,1.29.09,3.28-.54,3.71.64,1.87,5.18,5.19,5.52,9.52,3.44Z" fill="#b47f59"/><path d="M252.77,192.24c-1.86-6,1-11.5,2-17.16.84-4.67,3.11-9.05,2.79-14a11.89,11.89,0,0,1,2.42-5.7c1.59-.36,2.91.41,4.2,1.11,1.71.91,3.17.44,3.54-1.25.92-4.23,3.9-4.13,7.16-4,3,.12,6,.46,8.9-.09,5.24-1,11.58-.18,14-6.93l7.66.12c.12,5.15,1.28,10.35-.75,15.39-8.73.81-17.47,1.47-26.17,2.48-6.59.77-11.7,4.16-15.45,9.7C258.82,178.3,255.88,185.31,252.77,192.24Z" fill="#b47f59"/><path d="M321,103.43l1.65,8c0,.91,0,1.81,0,2.72-.12.11-.34.23-.34.33a5.43,5.43,0,0,0,.22.86,18.59,18.59,0,0,0-.34,6.93c-.64,13-.34,26.08-.14,39.12a21.57,21.57,0,0,1-1,7.24c-2.2,6.63-5.52,8-12.65,5a.93.93,0,0,0-.21-1.44l-.48-2.89c1-4.53-.42-9.21.84-13.72a24.51,24.51,0,0,1,4.44-.1c4.77.71,6.19-1.17,6-5.94-.37-11-.15-22.08-.17-33.11l.06-7.11c.93-3.14-.44-6.46.76-9.58Z" fill="#3c3e3d"/><path d="M57.56,111.49c.54-2.66.15-5.48,1.36-8,.39-1.28.79-2.55,1.19-3.82,1.87,5.48.14,11.16.91,16.7q0,14.24,0,28.46c0,10.32,0,10.32,10.23,10.79l.43,2.64a3.5,3.5,0,0,0,0,4.14l.51,7-.51,2.89a.94.94,0,0,0-.08,1.46l-1.22,1a4.39,4.39,0,0,0-3.65,0c-6.43.21-7.57-1-8.64-9.31-.24-1.95-.12-3.95-.17-5.93.25-12,.48-24-.1-36.06q-.06-3.94-.11-7.89l.11-1-.18-1Z" fill="#3c3e3d"/><path d="M246.4,172.11c-.94,5.15-5,2.09-7.56,2.76-2.08.53-3.81-.09-4.35-2.69-.77-3.67-1.79-7.29-2.69-10.93,1.81-12.63.82-25.31.58-38q.09-5.91.19-11.83l.1-5.09c.43-1.29.85-2.59,1.28-3.89l1.52.12.3,13.87q0,14.62-.07,29.25c0,10,0,10,10,9.73Z" fill="#343332"/><path d="M72.15,169.33l-.51-7a5.36,5.36,0,0,0,0-4.14c-.14-.88-.29-1.76-.43-2.64,1.27-9.19.43-18.42.56-27.62.15-11.1,0-11.1-10.77-11.63-.77-5.54,1-11.22-.91-16.7,2-4.51,6-1.33,8.94-2.13,2.18-.59,3.22,1.1,3.82,3q1.57,4.89,3.13,9.8c-2,.32-2,1.82-2,3.36q.14,7.38.28,14.77l.09,13.2-.18.22.18.22c0,.72.07,1.44.11,2.16-.22,5.21-1.21,10.45.54,15.6C74.41,163.09,76.52,167.19,72.15,169.33Z" fill="#e0dfdf"/><path d="M144.56,100.61c2.3,1.27,1.58,4,2.71,5.78l.12,16.88c-.52,13.91-.57,27.82.19,41.72-.78,2.51-1.63,5-2.31,7.53-1.06,4-4.25,2.13-6.54,2.31-1.95.15-5,1.33-5-2.6l.24-15.88c10.76-.7,10.76-.7,10.77-11.48,0-.67,0-1.33,0-2-.38-8.77.82-17.58-.67-26.32l.51-15.91Z" fill="#343332"/><path d="M319.61,99.76c-1.2,3.12.17,6.44-.76,9.58-2.15,2-.73,4.66-1.08,7-2.32.06-4.64.17-7,.17-1.68,0-2.91.28-2.86,2.4.29,12.23-.69,24.48.54,36.7-1.26,4.51.2,9.19-.84,13.72-3.47-2.42-2.62-6.15-2.91-9.54,2-5,.87-10.24.75-15.39a106.89,106.89,0,0,0-.05-16.69c.12-5.87,1.52-11.8-.76-17.56.43-2.26.68-4.57,1.31-6.78A9.11,9.11,0,0,1,319.06,98C319.45,98.22,319.44,99.16,319.61,99.76Z" fill="#e0dfdf"/><path d="M277.88,94.49c-3.65,0-7.32-.24-10.95.06-4.67.39-3.9-2.74-4-5.49s-.06-4.84,3.77-4.71q11.19.36,22.41,0c3.87-.12,4.34,2,4.37,5,0,3.19-.49,5.54-4.62,5.21-3.63-.29-7.3-.06-10.95-.06Z" fill="#f8bf7a"/><path d="M101.77,94.47c-3.83,0-7.67-.17-11.48,0S86.75,92.39,87,90s-1.31-5.69,3.34-5.61c7.82.13,15.65.1,23.47,0,4.28,0,3,3.06,3.11,5.3s.68,4.9-3.13,4.79C109.76,94.37,105.77,94.47,101.77,94.47Z" fill="#f8bf7a"/><path d="M49,127.88c.62-5.12-1.37-10.51,1.61-15.38.1,3.31.21,6.61.31,9.92.12.65.48,1,1.15.81l4.83.24-.29,26c-3.9-.93-6.46-.25-5.73,4.62a3.3,3.3,0,0,1-.78,3.19c-1.43-1.26-.81-3.07-1.25-4.59,0-2.76.11-5.51.16-8.27Q49,136.17,49,127.88Z" fill="#787878"/><path d="M126.85,421.28c4.92,1.53,9.69,3.68,15,3.75,3.87,1.88,8.34.23,12.21,2.08-.22.44-.33,1.17-.65,1.28C145,431.07,137,434.75,128,434.88A68.92,68.92,0,0,1,126.85,421.28Z" fill="#b47f59"/><path d="M246.4,172.11l-.72-16.68.12-38.92q.07-8.92.13-17.84c3.77,5.27,2.59,11.4,3,17.25l0,12.36v16c0,5.79-.17,11.59-.06,17.38A20.56,20.56,0,0,1,246.4,172.11Z" fill="#c2c1c1"/><path d="M134,156.35l-.24,15.88c-2.28-3-2.73-6.63-2.8-10.25-.12-5.89-.1-11.78-.14-17.67,0-5.52.46-11.05-.24-16.56l.3-11.81c.23-5.24-.35-10.58,2.08-15.53,2,5.3.34,10.84,1,16.22Z" fill="#c2c1c1"/><path d="M134,116.63c-.7-5.38,1-10.92-1-16.22,1.93-3.54,6.13-4.19,11.08-1.7.19.65.38,1.29.56,1.93l-.51,15.91Z" fill="#ebece6"/><path d="M155.94,115.32c0,.88,0,1.77,0,2.65q.14,4.95.25,9.92c-.09,5.59-.16,11.19-.24,16.79-.36,4.91,1.14,9.94-1.06,14.71a26.88,26.88,0,0,1-.06-4.39c.68-4.73-1.06-6.76-5.9-5.63l0-25.95c4.38.56,6.68-.93,5.8-5.74A1.85,1.85,0,0,1,155.94,115.32Z" fill="#787878"/><path d="M74.29,128.41Q74.14,121,74,113.65c0-1.54,0-3,2-3.36,6,1.7,11.55,4.76,17.88,5.23-9.41,3-10.71,4.54-10.92,12.85A19.82,19.82,0,0,0,74.29,128.41Z" fill="#d6ad8f"/><path d="M223.79,127.7l-.24-2.08.3-3q0-3.61,0-7.24a2.14,2.14,0,0,1,1,2.55c-.93,5,1.9,5.87,5.94,5.44l0,25.92-6.47.05c-1-1.48-.52-3.14-.57-4.74Q223.81,136.16,223.79,127.7Z" fill="#787878"/><path d="M245.93,98.67q-.06,8.92-.13,17.84l-10-.06-.3-13.87c.1-1.33.2-2.66.31-4A9.54,9.54,0,0,1,245.93,98.67Z" fill="#ebece6"/><path d="M304.68,110.14c2.28,5.76.88,11.69.76,17.56l-6.65-.21c-1.57-6.41-6.16-9.85-12-12.06Z" fill="#d6ad8f"/><path d="M49,144.45c0,2.76-.11,5.51-.16,8.27a69.89,69.89,0,0,1-22.9-14.3c3.16-2.66,6.35.08,9.5.15,4.85.11,7.74-.66,6.75-6.35-.15-.88.4-1.89.62-2.83.08,3,.59,6,.15,8.86C42.19,143.33,43.92,145.37,49,144.45Z" fill="#b47f59"/><path d="M337.25,139.29c5.74-.55,11.41-2.1,17.26-1.19a86,86,0,0,1-19,12.86c-1.45.7-2.78,1.84-4.59,1.42l-.38-.16,0-.41q.09-3.7.2-7.43C334.81,145,337.77,144.37,337.25,139.29Z" fill="#b47f59"/><path d="M248.92,128.28l0-12.36c6.63-.64,13.25-1.12,19.82.56-6,1.79-10.25,5.29-11,12A25.38,25.38,0,0,0,248.92,128.28Z" fill="#c69575"/><path d="M130.86,115.94l-.3,11.81-8.19.09c-1.72-5.84-4.91-10.21-11.33-11.37C117.61,114.79,124.23,115.28,130.86,115.94Z" fill="#c69575"/><path d="M225.93,281.29c-.66-3,1.73-5,2.93-7.17,2.57-4.71,4.43-9.86,8-14,1.61,5.16.9,10.74,2.87,15.83C235.19,277.86,231.09,280.93,225.93,281.29Z" fill="#c69575"/><path d="M143.06,261.19c5.07,2.6,4.81,8.6,7.91,12.54,1.69,2.15,3.72,4.64,3.73,7.81a35.08,35.08,0,0,1-13.89-5.87Z" fill="#c69575"/><path d="M155.94,115.32a1.85,1.85,0,0,0-1.14,2.36c.88,4.81-1.42,6.3-5.8,5.74l-1.61-.15-.12-16.88c.69,3.15,2.54,5,5.87,5C156.15,111.31,156,113.29,155.94,115.32Z" fill="#e0dfdf"/><path d="M230.8,123.39c-4,.43-6.87-.4-5.94-5.44a2.14,2.14,0,0,0-1-2.55c-.3-7,5.13-2.84,7.83-4a5.14,5.14,0,0,0,.88.07q-.1,5.91-.19,11.83Z" fill="#e0dfdf"/><path d="M161.69,73.46l2.16,2.6c1,5.4-.27,11.09,2.06,16.33-7-.83-6.4-6.86-7.65-11.44C157.4,77.79,157.8,74.7,161.69,73.46Z" fill="#dcbaa1"/><path d="M322,161.39c-.2-13-.5-26.08.14-39.12a1.68,1.68,0,0,1,1.64,1.06l-.11,25.88a53.45,53.45,0,0,0,.17,12.06Z" fill="#c2c1c1"/><path d="M323.8,161.27a53.45,53.45,0,0,1-.17-12.06c2.64,0,5.51-.57,7,2.6l0,.41.38.16a19.75,19.75,0,0,0-.75,3.81C330.2,160.67,328.1,162.31,323.8,161.27Z" fill="#343332"/><path d="M50.09,157.31a3.3,3.3,0,0,0,.78-3.19c-.73-4.87,1.83-5.55,5.73-4.62.13,3.27.25,6.53.37,9.8-.1.3-.19.6-.29.9l-.73,1a9.91,9.91,0,0,1-4.84-.05c0-.75,0-1.49-.77-1.93C50.26,158.58,50.18,157.94,50.09,157.31Z" fill="#343332"/><path d="M156.23,127.89q-.12-5-.25-9.92c0,3.9.89,5.68,4.77,2.51a66.38,66.38,0,0,1,7.11-4.46c.71,4.53-.06,7.86-5.69,8.21-2.19.14-4.5,1-5.58,3.38Z" fill="#b47f59"/><path d="M223.85,122.64l-.3,3a31.61,31.61,0,0,0-5.24-1.24c-5.34-.35-7.43-3-6.45-8.25C216.37,117.37,219,122,223.85,122.64Z" fill="#b47f59"/><path d="M57,159.3c-.12-3.27-.24-6.53-.37-9.8q.15-13,.29-26a1.27,1.27,0,0,1,.89-.17c.58,12,.35,24,.1,36.06A6.84,6.84,0,0,1,57,159.3Z" fill="#c2c1c1"/><path d="M235.78,98.59c-.11,1.33-.21,2.66-.31,4l-1.52-.12C234.44,101.11,232.78,98.75,235.78,98.59Z" fill="#787878"/><path d="M232.57,111.44a5.14,5.14,0,0,1-.88-.07c.29-1.68-.57-3.58,1-5C232.64,108.05,232.6,109.74,232.57,111.44Z" fill="#c2c1c1"/><path d="M66.69,174.6a4.39,4.39,0,0,1,3.65,0A3.79,3.79,0,0,1,66.69,174.6Z" fill="#787878"/><path d="M144.58,100.64c-.18-.64-.37-1.28-.56-1.93,1,.4.88,1.12.54,1.9Z" fill="#787878"/><path d="M50.34,159.21c.78.44.79,1.18.77,1.93C50.17,160.77,50.06,160.07,50.34,159.21Z" fill="#787878"/><path d="M56,161.19l.73-1C57,160.94,56.65,161.2,56,161.19Z" fill="#787878"/><path d="M71.56,173.68a.94.94,0,0,1,.08-1.46Z" fill="#787878"/><path d="M308.13,172.21a.93.93,0,0,1,.21,1.44Z" fill="#787878"/><path d="M231.73,592.39c.41-2.36-.87-5.24,2.12-6.79q1.5,1.62,3,3.25c6.25,12.31,9.51,25.36,8.86,39.17-.22,4.73,4.09,6.62,5.13,10.38-5.65.74-8.62-3.21-11.83-6.74-2.59-3.79-1-8-1.2-12,.2-1.8.51-3.6.58-5.4C238.7,606.21,237.69,598.54,231.73,592.39Z" fill="#c5c2db"/><path d="M146.05,585.55c3,1.67,1.93,4.83,2.64,7.33-2.27-.17-2.46,1.86-3.21,3.18-5,8.87-4,18.38-2.82,27.91a10.82,10.82,0,0,1-1.83,7.65c-2.8,3.61-5.58,7.26-10.93,6.75,5-7.29,5.13-15.49,5.23-23.94.11-9.18,5.37-17.09,7.8-25.73C144.94,588.61,145.22,586.8,146.05,585.55Z" fill="#c5c2db"/><path d="M239,631.66c3.21,3.53,6.18,7.48,11.83,6.74,6.45.06,12.86-1.26,19.36-.14,2.94.51,5.18-1.82,7.48-3.42.48,5.66-3.22,8.17-7.77,9.43a38.22,38.22,0,0,1-23-1C241.48,641.45,239.65,636.86,239,631.66Z" fill="#3c3e3d"/><path d="M129.9,638.37c5.35.51,8.13-3.14,10.93-6.75-1.29,8.61-3.87,11.38-12.21,13-6.06,1.16-12.17,1.42-18.16-.21s-7.91-4.35-7.49-9.55c2.53,3.16,6,3.91,9.72,3.33a51.85,51.85,0,0,1,9.8-.4,4.12,4.12,0,0,0,3.43.53A6.59,6.59,0,0,0,129.9,638.37Z" fill="#3c3e3d"/><path d="M142.66,624c-1.22-9.53-2.23-19,2.82-27.91.75-1.32.94-3.35,3.21-3.18.42,2.88-.58,5.58-1,8.34C144.37,608.45,143.49,616.2,142.66,624Z" fill="#3c3e3d"/><path d="M231.73,592.39c6,6.15,7,13.82,6.65,21.87-.07,1.8-.38,3.6-.58,5.4-2.13-3.38-1.49-7.46-2.79-11-.59-1.66-.65-3.52-1.86-5q-.81-3-1.61-6.09c-.08-1.29-.15-2.59-.22-3.88C231.45,593.26,231.59,592.82,231.73,592.39Z" fill="#3c3e3d"/><path d="M214.87,272.17c-1.19,4.18-3.42,8-4,12.39-6.9,1.61-14,1.76-21,2.55-7-1-14.09-.84-21-2.63l-4-12.4c1.78-4.88.19-10.66,4.05-15,4.2.38,8.41-.14,12.65.59,3.19.54,5.55-2.36,8.3-3.66a15.19,15.19,0,0,0,11.49,3.23c3.11-.28,6.26-.1,9.39-.13C214.74,261.45,212.9,267.32,214.87,272.17Z" fill="#c69575"/><path d="M210,434.82q-1-4.87-2.08-9.74a136.66,136.66,0,0,0,24.6.93,15.35,15.35,0,0,0,5.78-1l1,.84A104.61,104.61,0,0,1,210,434.82Z" fill="#b47f59"/><path d="M297.83,144.27c-2.46,6.75-8.8,5.93-14,6.93-2.87.55-5.93.21-8.9.09-3.26-.14-6.24-.24-7.16,4-.37,1.69-1.83,2.16-3.54,1.25-1.29-.7-2.61-1.47-4.2-1.11-1.47-3.73-2.72-7.56-5.16-10.82,2-.2,4.19-.23,3.14-3.32,10.06,5.23,20.23,1.95,30.31.2,2.47-.42,3.9-2.86,5-5.16A16.89,16.89,0,0,0,297.83,144.27Z" fill="#c69575"/><path d="M187.92,135.29,172.58,103.7l.56-.57c5.38,2.56,9.79,7.89,16.78,5.8A15.22,15.22,0,0,0,202,106c1.66-1.21,3.2-3,5.6-2.84.13.14.28.28.42.42l-4,5c-4.17,2.64-6.95,7.61-12.95,7.25-1.59-.1-1.18,2.08-1.2,3.31-.06,4.13,0,8.26,0,12.38C189.81,133,190.44,135,187.92,135.29Z" fill="#b47f59"/><path d="M187.92,135.29c2.52-.34,1.89-2.31,1.91-3.84.07-4.12,0-8.25,0-12.38,0-1.23-.39-3.41,1.2-3.31,6,.36,8.78-4.61,12.95-7.25-1,5.46-4.43,9.9-6.33,15s-4.51,9.91-6.81,14.85C188.87,138.34,188.53,136.68,187.92,135.29Z" fill="#c69575"/><path d="M258,141.28c1,3.09-1.13,3.12-3.14,3.32h-2.05l-.95,0-2.91-.33v-16a25.38,25.38,0,0,1,8.82.16C256.43,132.74,256.17,137,258,141.28Z" fill="#343332"/><path d="M223.79,127.7q0,8.46,0,16.92c-6.72-.24-6.31-.26-6.83-11.6C216.7,126.93,220.18,127.73,223.79,127.7Z" fill="#3c3e3d"/><path d="M230.8,123.39l1.58-.12c.24,12.67,1.23,25.35-.58,38a6.51,6.51,0,0,0-.77,0l-.18-12Z" fill="#c2c1c1"/><path d="M230.85,149.31l.18,12c-2.41-.27-6,2.1-6.31-2.86-.08-.78-.17-1.55-.25-2.33l-.09-6.74Z" fill="#343332"/><path d="M224.47,156.1c.08.78.17,1.55.25,2.33A1.57,1.57,0,0,1,224.47,156.1Z" fill="#787878"/><path d="M194.88,140.35l.41-.41c0,.09,0,.21-.08.25a1.83,1.83,0,0,1-.35.14Z" fill="#c69575"/><path d="M251.83,144.59l.95,0C252.45,145.08,252.14,145.05,251.83,144.59Z" fill="#c69575"/><path d="M207.59,103.11c.26-.28.53-.7.9-.15,0,.05-.31.37-.48.57C207.87,103.39,207.72,103.25,207.59,103.11Z" fill="#b47f59"/><path d="M236.84,588.85q-1.49-1.64-3-3.25c.19-11.82-2.62-23.33-3.5-35-.93-12.34-5.06-23.79-8.87-35.4-4.38-13.39-2.76-27.23-2.24-40.95.14-3.81.48-7.6.74-11.4,2.93.48,4.44,2.9,6,4.88,6.86,8.51,12.75,17.57,16.39,28A101,101,0,0,1,246.72,515a162.17,162.17,0,0,1,.88,35.7c-1,12.28-.4,24.51-.72,36.75C243.5,587.65,239.73,585.17,236.84,588.85Z" fill="#dcbaa1"/><path d="M146.05,585.55c-.83,1.25-1.11,3.06-3.12,3.15-3.38-3.06-7.36-.43-11-1.17a6.74,6.74,0,0,0,.9-2.3c-.32-14.27.72-28.53-.66-42.82a108.5,108.5,0,0,1,3.42-38.9c3.53-13,9.07-25.13,17.87-35.51,1.76-2.08,3.27-4.72,6.43-5.16,1.72,17.48,3.73,35-1,52.33-2.09,7.66-6.51,14.55-7.4,22.6C149.75,553.7,146.72,569.49,146.05,585.55Z" fill="#dcbaa1"/><path d="M221.81,218.19c2.64,4.13,1.52,8.56,1,12.95,0,.35,0,.71,0,1.06l0,0c-2.19.05-3.53,2.36-6,2-9.13-1.2-18.09-2.89-26-8-1.31-3.56-1-7.27-1-11,2.66-2,4.82-5.06,9-3.88,5.36,1.53,10.87,2.62,15.83,5.3A11.59,11.59,0,0,0,221.81,218.19Z" fill="#dcbaa1"/><path d="M210.82,257.13c-3.13,0-6.28-.15-9.39.13A15.19,15.19,0,0,1,189.94,254c.27-5.32-.94-10.71.85-15.94.46-2.38,2.34-1.89,3.94-1.94a31.38,31.38,0,0,1,13.93,3.26c4,1.81,7.48,2.07,11.19-.17.65,2.92,1.31,5.85,2,8.77A21.8,21.8,0,0,1,210.82,257.13Z" fill="#dcbaa1"/><path d="M221.81,218.19a11.59,11.59,0,0,1-7.1-1.51c-5-2.68-10.47-3.77-15.83-5.3-4.17-1.18-6.33,1.83-9,3.88-2.52-3.41-5.42-4.44-9.89-3.41a67.33,67.33,0,0,0-16.29,5.52c-3.07,1.6-5.62,1.42-7.36-2.18-1.19-2.46-2.83-4.7-4.09-7.48,7.3,4.9,14.24,2.23,21.27-.18,3.12-1.07,6.43-1.61,9.6-2.55a12.22,12.22,0,0,0,6.76-4.76,12.17,12.17,0,0,0,6.73,4.76c5.55,1.61,11.15,3,16.71,4.59,4.9,1.37,9.48,1.2,13.51-2.34,2.06,2.84-1.7,3.3-2.19,5.19S222.79,216.27,221.81,218.19Z" fill="#c69575"/><path d="M226.84,207.23c-4,3.54-8.61,3.71-13.51,2.34-5.56-1.57-11.16-3-16.71-4.59a12.17,12.17,0,0,1-6.73-4.76,29.28,29.28,0,0,0,0-4.87c-.82-5,1.22-6.94,6.12-6.17a181.12,181.12,0,0,0,30,11.07c2.37.61,1.78,2.38,2,3.91C227.57,205.19,227.2,206.21,226.84,207.23Z" fill="#dcbaa1"/><path d="M219.85,239.24c-3.71,2.24-7.19,2-11.19.17a31.38,31.38,0,0,0-13.93-3.26c-1.6,0-3.48-.44-3.94,1.94-6.87-4.42-13.51-.89-19.78,1.25-8.63,2.95-10.23,2.62-13.51-6.49,12.27,3.53,22.51-3.12,33.37-6.64,7.93,5.1,16.89,6.79,26,8,2.42.32,3.76-2,6-2C222.85,235,219.09,236.14,219.85,239.24Z" fill="#c69575"/><path d="M169,257.1c-3.86,4.32-2.27,10.1-4.05,15-3-7.6-5.83-15.26-7.32-23.48C161,252.11,164.34,255.5,169,257.1Z" fill="#b47f59"/><path d="M154.93,159.39c2.2-4.77.7-9.8,1.06-14.7,5.12.84,7.59-1,6.57-6.45a6.65,6.65,0,0,1,.16-1.92,34.23,34.23,0,0,1,22.17,5l2,0,0,0c2,10,1,20.18.92,30.27-.07,7.55-7.45,14.44-15.1,14.6-9.81.2-19.64.34-29.44-.06-7.68-.3-11.3-6.13-14.22-12.29a101.43,101.43,0,0,1-3.91-9.68c-.54-1.55-1.25-2.68-2.87-3.11l-2.41-5.68c2.24-4,1.7-10,8.14-10.79l2.84-.3c0,5.89,0,11.78.14,17.67.07,3.62.52,7.2,2.8,10.25,0,3.93,3,2.75,5,2.6,2.29-.18,5.48,1.66,6.54-2.31.68-2.54,1.53-5,2.31-7.53.62-1.18-.21-2.81,1.17-3.77C150.9,160.93,153.83,163.24,154.93,159.39Z" fill="#dcbaa1"/><path d="M162.72,136.32a6.65,6.65,0,0,0-.16,1.92c1,5.46-1.45,7.29-6.57,6.45.08-5.61.15-11.21.24-16.8l.36-.28c2,.22,4.14-.21,6.06.8,0,2,.09,4,.13,6Z" fill="#3c3e3d"/><path d="M162.78,134.4c0-2-.08-4-.13-6C164.64,130.36,164.38,132.37,162.78,134.4Z" fill="#dcbaa1"/><path d="M186.89,141.37l-2,0C185.57,140.27,186.24,140.33,186.89,141.37Z" fill="#c69575"/><path d="M171.91,102.38l1.23.75-.56.57-.72-1.28Z" fill="#b47f59"/><path d="M171.86,102.42l-.44-.43.49.39Z" fill="#b47f59"/><path d="M330.6,151.81c-1.46-3.17-4.33-2.59-7-2.6q.06-12.94.11-25.88l3.94-.12,1.23-.61,0-.13c1.41-2.6.42-5.41.73-8.11,2.26,4.36.64,9,1.08,13.52l0,16.5Q330.7,148.1,330.6,151.81Z" fill="#787878"/><path d="M330.8,144.38l0-16.5c5.26-.89,7.06,1.46,6.32,6.5a26.16,26.16,0,0,0,.16,4.91C337.77,144.37,334.81,145,330.8,144.38Z" fill="#343332"/><path d="M327.68,123.21l-3.94.12a1.68,1.68,0,0,0-1.64-1.06,18.8,18.8,0,0,1,.33-6.93c.05-.39.09-.79.13-1.19,0-.91,0-1.81,0-2.72,2.14.8,6-2.3,6.25,2.78,0,2.76.07,5.51.11,8.26l0,.13Z" fill="#ebece6"/><path d="M329,122.47c0-2.75-.07-5.5-.11-8.26a6.17,6.17,0,0,0,.84.15C329.38,117.06,330.37,119.87,329,122.47Z" fill="#c2c1c1"/><path d="M49,144.45c-5.08.92-6.81-1.12-6-6.2.44-2.88-.07-5.91-.15-8.86,1.54-2.63,4.15-.9,6.18-1.51Q49,136.18,49,144.45Z" fill="#343332"/><path d="M57.78,123.3a1.27,1.27,0,0,0-.89.17l-4.83-.24-1.15-.81c-.1-3.31-.21-6.61-.31-9.92,2-2.23,4.59-1,7-1,0,.61,0,1.22,0,1.83l-.58,1,.65,1.08Q57.72,119.36,57.78,123.3Z" fill="#ebece6"/><path d="M125.92,638.3a4.12,4.12,0,0,1-3.43-.53C123.69,637.55,124.91,637.29,125.92,638.3Z" fill="#c5c2db"/><path d="M210.82,257.13a21.8,21.8,0,0,0,11-9.12c2.42,3-.71,5.17-1.37,7.59-1.51,5.62-3.68,11.06-5.58,16.57C212.9,267.32,214.74,261.45,210.82,257.13Z" fill="#b47f59"/><path d="M222.81,232.2c0-.35,0-.71,0-1.06C223.45,231.5,223.58,231.85,222.81,232.2Z" fill="#c69575"/><path d="M297.83,144.27a16.89,16.89,0,0,1-4.58-8l.06-1a.78.78,0,0,0,.27-.9c1.35-2.6,1.88-5.81,5.21-6.91l6.65.21a106.89,106.89,0,0,1,.05,16.69Z" fill="#343332"/><path d="M293.58,134.4a.78.78,0,0,1-.27.9,3.39,3.39,0,0,1-.07-.7C293.25,134.52,293.46,134.46,293.58,134.4Z" fill="#c69575"/><path d="M128,144.61c-6.44.78-5.9,6.84-8.14,10.79-4.33,2.08-7.65,1.74-9.52-3.44-.43-1.18-2.42-.55-3.71-.64-5.1-.34-10.18.24-15.32-.6a12.05,12.05,0,0,1-9.3-6.41,20.46,20.46,0,0,0,4.39-6c11,6.92,22.91,6.59,35,4.28C122.58,146.44,126,143.23,128,144.61Z" fill="#c69575"/><path d="M86.36,138.27a20.46,20.46,0,0,1-4.39,6l-7.49-.1c0-.71-.07-1.43-.11-2.14l.28-.07-.28-.38-.09-13.2a19.71,19.71,0,0,1,8.68,0C85,131.37,87.26,134.27,86.36,138.27Z" fill="#343332"/><path d="M128,144.61c-2-1.38-5.38,1.83-6.56-2.06,1.59-3,2.31-6.1.87-9.4-.77-1.78,0-3.54.1-5.31l8.19-.09c.7,5.51.29,11,.24,16.56Z" fill="#343332"/><path d="M308.49,155.6c-1.23-12.22-.25-24.47-.54-36.7-.05-2.12,1.18-2.4,2.86-2.4,2.32,0,4.64-.11,7-.17l1,.12c0,11-.2,22.08.17,33.11.16,4.77-1.26,6.65-6,5.94A24.51,24.51,0,0,0,308.49,155.6Z" fill="#787878"/><path d="M318.79,116.45l-1-.12c.35-2.33-1.07-4.94,1.08-7Z" fill="#fff"/><path d="M322.56,114.15c0,.4-.08.8-.13,1.19a6.73,6.73,0,0,1-.21-.86C322.22,114.38,322.44,114.26,322.56,114.15Z" fill="#c2c1c1"/><path d="M61,116.35c10.81.53,10.92.53,10.77,11.63-.13,9.2.71,18.43-.56,27.62C61,155.13,61,155.13,61,144.81Q61,130.57,61,116.35Z" fill="#787878"/><path d="M71.66,158.24a5.36,5.36,0,0,1,0,4.14A3.5,3.5,0,0,1,71.66,158.24Z" fill="#787878"/><path d="M57.67,115.41,57,114.33c.25,0,.5,0,.76,0Z" fill="#c2c1c1"/><path d="M57.78,114.36c-.26,0-.51,0-.76,0l.58-1Z" fill="#d6ad8f"/><path d="M235.77,116.45l10,.06-.12,38.92c-10,.31-10,.31-10-9.73Q235.72,131.07,235.77,116.45Z" fill="#787878"/><path d="M74.37,141.62l.28.38-.28.07-.18-.23Z" fill="#b47f59"/><path d="M134,116.63l10.09-.08c1.49,8.74.29,17.55.67,26.32,0,.67,0,1.33,0,2,0,10.78,0,10.78-10.77,11.48Z" fill="#787878"/><path d="M148.75,161.22c-1.38,1-.55,2.59-1.17,3.77-.76-13.9-.71-27.81-.19-41.72l1.61.15,0,26Q148.85,155.29,148.75,161.22Z" fill="#c2c1c1"/><path d="M50.91,122.42l1.15.81C51.39,123.37,51,123.07,50.91,122.42Z" fill="#c2c1c1"/><path d="M148.75,161.22q.1-5.92.22-11.85c4.84-1.13,6.58.9,5.9,5.63a26.88,26.88,0,0,0,.06,4.39C153.83,163.24,150.9,160.93,148.75,161.22Z" fill="#343332"/><path d="M231.32,593.69c.07,1.29.14,2.59.22,3.88C230.35,596.34,230.52,595,231.32,593.69Z" fill="#c5c2db"/><path d="M327.68,123.21l1.23-.61Z" fill="#c2c1c1"/></g></g></svg>