<svg xmlns="http://www.w3.org/2000/svg" viewBox="0 0 527.55 398.6"><title>ex_d3_8_1</title><g id="Layer_2" data-name="Layer 2"><g id="Layer_1-2" data-name="Layer 1"><path d="M307.18,353.63c18.24-.26,36.27,2.35,54.4,3.68,17,1.24,33.64,4.79,50.41,7.41a30,30,0,0,1,15.6,6.86c3.2,2.83,2.45,5.08-.7,7.06-5.84,3.68-12.46,5.34-19.07,6.76-18.09,3.88-36.43,5.93-54.89,7.29-15.17,1.11-30.31,2.4-45.52,3.11-16.39.76-32.8,1.06-49.15,2-23.93,1.34-47.83.65-71.74.64-19.71,0-39.44-.83-59.12-2-12.39-.74-24.88-.46-37.15-2.05-15.37-2-30.85-2.74-46.18-5.41-11.87-2.07-23.8-3.61-35.33-7.24a9.86,9.86,0,0,1-3.22-1.27C3.23,378.63-.4,377,0,373.93c.49-3.42,4-4.87,7.49-5.34-.26,3.07.91,4.15,4.2,4.12,21.45-.16,42.91,0,64.36-.14,1.78,0,4.35,1.21,5.25-1.13s-.16-4.6-1.59-6.55c-2-2.8-4.91-3.65-8.28-3.73-5.63-.12-11.29.56-16.9-.36,0-2.16,1.52-2.05,3.09-2.23,12.28-1.41,24.54-3.1,36.94-2.95a10.18,10.18,0,0,0,8-3.19l7.48,8.44c2-2.78,1.56-6.13,3-8.81,1.18,2,3.15,1.53,4.93,1.55,9.45.09,18.8-1.41,28.2-1.89,15.75-.8,31.52-.1,47.31-.81a457,457,0,0,1,48.81.47c18.2,1.12,36.53-.16,54.77,1.21l.06,8.51c-4.15,0-8.31,0-12.46.16-4.53.19-7.4,2.65-8.5,7-.71,2.8-.49,4.52,3.43,4.45,14.29-.26,28.58-.07,42.87-.13,1.75,0,4.28.95,5.09-.71,1-2.08-.11-4.56-1.32-6.59a8.92,8.92,0,0,0-6-4c-.3-.52-.66-.63-1.12-.18l-11.88,0Z" fill="#f2f1f1"/><path d="M396.17,220.82c-9-9.31-16.43-19.63-20-32.33C374,180.61,369.58,174,364.28,168c-4.24-4.86-8.12-10.06-13.09-14.25l0,.1c-.27-1.25-1.24-.83-2-.86-1.7-5.14-5.14-9-9-12.62-6.65-6.22-11.68-13.71-16.12-21.61l-.39-2.06c.58-1.18,1.13-2.38,1.76-3.53,4.52-8.23,10.56-15.58,14-24.43,1.28-.06,2.94.8,3.71-.6,2.9-5.24,7.93-9.45,8-16.09l11.93-20.65C379.81,64,394.58,79,411.13,91.79c18.5,14.3,31.85,32.27,42.73,52.55,5.42,10.1,10.94,20.18,19,28.55,3.77,3.93,3.93,9.37,6,14-2.34,1.08-1.95,3.21-2,5.17q-.06,8.44-.08,16.89c-2.23-.6-2.77,1.26-3.72,2.53A27.54,27.54,0,0,1,463,220c.43-4.19.52-7.75-2.54-10.55-3.54-3.25-6.75-6.86-10.33-10.07-7.92-7.1-16.85-11.7-27.94-10.47-11.34,1.26-21.72,7.87-17.09,22.81,1.12,3.61,2.5,7.13,3.88,11A34.71,34.71,0,0,1,396.17,220.82Z" fill="#5f605f"/><path d="M363.07,51.38,351.14,72c-2,.18-3.44-1.08-5-1.91-14.45-7.5-29.11-9.32-43.81-1-8,4.56-14.57,11-20.14,18.34-4.16,5.49-7.44,11.45-8.54,18.35-.24,1.49-1.69,3.77.14,4.52,2.09.86,2-2,3-3.13a5.23,5.23,0,0,0,.48-.87c6.29-10.25,12.91-20.26,23.09-27.13,11-7.42,32.26-2.14,39.09,9.49-3.44,8.85-9.48,16.2-14,24.43-.63,1.15-1.18,2.35-1.76,3.53q-5.44-7.05-9.41,1.25a357.91,357.91,0,0,1-35.19,35.66c-9.35,8.11-18.51,16.51-29.67,22.2a469.07,469.07,0,0,0-33.22-46.95,227.44,227.44,0,0,1,34.39-49.32c6.45-7.07,11.08-14.59,13.12-24.06,5.47-25.4,29.27-37.29,54.85-29.8C335.45,30.62,349.73,40.19,363.07,51.38Z" fill="#30303f"/><path d="M396.17,220.82A34.71,34.71,0,0,0,409,222.7c-1.38-3.9-2.76-7.42-3.88-11-4.63-14.94,5.75-21.55,17.09-22.81,11.09-1.23,20,3.37,27.94,10.47,3.58,3.21,6.79,6.82,10.33,10.07,3.06,2.8,3,6.36,2.54,10.55a27.54,27.54,0,0,0,10.15-8.47c.95-1.27,1.49-3.13,3.72-2.53-.33,2.28-.28,4.7-1.06,6.82-1.83,4.94-.21,8.27,4.11,10.76a8,8,0,0,1,3.2,4.28c.9,2.16,1.12,4.29-.53,6s-3.63.62-5.42-.3c-2.52-1.3-5.26-1.92-7.17.66-1.72,2.33,1,3.76,1.95,5.52,3,5.53,7.94,10,6,17.73-1.56,6.27-2.38,8.94-8.93,11.28-3.71-2.17-7.35-4.45-11.14-6.46a6.53,6.53,0,0,1-4-6.23c-.11-3.62-3.13-5-5.83-2.64-6.59,5.78-14.79,6.13-22.75,7.3-15,2.18-30.38.89-45.19,5-5.43,1.51-9.92,5.14-15.63,6.23a26.25,26.25,0,0,1-10.7-.32c-12.58-2.76-25.29-5.42-36.26-12.78-7.73-5.18-8.53-9.87-1.76-15.95s11.91-14.24,20.7-18.29c6.2-2.85,12.44-4.58,19.1-2.69C369.69,228.88,382.87,224.47,396.17,220.82Z" fill="#dcbaa3"/><path d="M216.16,128.84a469.07,469.07,0,0,1,33.22,46.95c-.83,2.48-3.07,3-5.13,4.05-5.88,2.92-12.75,3.3-18.24,7.19-4,0-6.71,2.36-9.34,5-17.66,17.5-33.38,36.8-51,54.34-11.49,11.42-24.7,21.17-34.3,34.46-5.26,5.1-7.56,12.14-11.84,17.87-3.5.22-7.15-.82-10.57,1.83a52.35,52.35,0,0,0-4-12.47c-2.25-5.3-4.64-10.63-5.48-16.43,12.89-4.63,18.25-16.16,24-27,8.16-15.56,15.95-31.33,23.18-47.34C155,178.53,169,166.49,188.2,160.05a32.87,32.87,0,0,0,20.17-17.88C210.56,137.56,211.65,132.15,216.16,128.84Z" fill="#dcbaa3"/><path d="M226,187c5.49-3.89,12.36-4.27,18.24-7.19,2.06-1,4.3-1.57,5.13-4.05,11.16-5.69,20.32-14.09,29.67-22.2a357.91,357.91,0,0,0,35.19-35.66c3.55-3.13,6.8-2.74,9.8.81,4.44,7.9,9.47,15.39,16.12,21.61,3.89,3.64,7.33,7.48,9,12.62.52.66.77,1.94,2,.86l0-.1c3.63,11.17-3.36,15.45-12,19.22-4.65,2-8.88,3.76-13.52.53-1.84-1.28-3.18.08-4.53.85-4.75,2.74-9.43,5.59-14.14,8.39l-10.88,6.57L270.41,205a1.91,1.91,0,0,0-2.36,1.52L265.43,208a1.78,1.78,0,0,0-2.34,1.57l-.71.36c-6.16,2.58-12.17,2.87-17.86-1.25C237.47,202.21,232.36,194.09,226,187Z" fill="#838481"/><path d="M469,271.73c6.55-2.34,7.37-5,8.93-11.28,1.93-7.77-3-12.2-6-17.73-1-1.76-3.67-3.19-1.95-5.52,1.91-2.58,4.65-2,7.17-.66,1.79.92,3.68,2.15,5.42.3s1.43-3.87.53-6a8,8,0,0,0-3.2-4.28c-4.32-2.49-5.94-5.82-4.11-10.76.78-2.12.73-4.54,1.06-6.82q0-8.44.08-16.89c0-2-.38-4.09,2-5.17,1.16,2.25,3.28,3.09,5.5,3.93,9.35,3.5,18.46,7.51,26.69,13.26,19.32,13.49,22.07,38.47,6.08,55.95-5.2,5.69-11.13,11.21-18.26,13.57a51,51,0,0,1-22.37,2.51c-2.46-.32-4.94-.48-7.41-.73a.39.39,0,0,1-.22-.31,1.39,1.39,0,0,1,.23-.43c.91-.06,1.19-.8,1.56-1.44l-1.63-.42Z" fill="#403421"/><path d="M465.78,0c13.83-.62,23.88,6.53,31.92,16.85,2.85,3.66,5.21,4.87,9.49,3,5.14-2.21,10.48-4,15.74-5.91.85-.31,1.86-1.38,2.58-.3a3.93,3.93,0,0,1,.1,2.84c-2.33,8.43-4.74,16.83-7.13,25.24-1.89,6.67-3.85,13.32-5.62,20-.76,2.84-1.95,3.27-4.56,2-14-7.11-28.15-14.07-42.21-21.13-1.11-.56-2.81-.82-2.73-2.49s1.8-1.22,2.73-1.71Q472.57,35,479.24,32c4.18-1.92,5.32-4.92,4.11-9.28-1.91-6.9-6.65-11.31-12.6-14.57-3.59-2-7-4.43-11.24-5-1.06-.16-2.14-.64-2.08-1.75.11-1.73,1.68-1.2,2.73-1.25C462,0,463.81,0,465.78,0Z" fill="#f7be77"/><path d="M99.45,271.59c.84,5.8,3.23,11.13,5.48,16.43a52.35,52.35,0,0,1,4,12.47c3.42-2.65,7.07-1.61,10.57-1.83a2.18,2.18,0,0,0,1.16,2.18c-.08,5.29.06,10.6-.28,15.87-.57,8.64,1.57,16.31,7.07,23.08,1.41,1.73,3.11,3.52,2.77,6.13-8,4-14.51,1.12-20.08-4.71-6.73-7-12-15-14.46-24.59a11.11,11.11,0,0,0-6.28-7.79c-10-4.81-15.44-13.13-18-23.65,2.61-5.08,7.94-6.34,12.49-8.44A62.7,62.7,0,0,1,99.45,271.59Z" fill="#c9c7c8"/><path d="M296.16,189.29,307,182.72l.06,164.94c0,2,0,4,.08,6l.09,7.46H297.19l-.06-8.51q.06-79.8.11-159.62C297.24,191.65,297.3,190.29,296.16,189.29Z" fill="#c0bfbe"/><path d="M113.11,352.06c-1.46,2.68-1,6-3,8.81l-7.48-8.44c-7.12-8.84-14.1-17.79-22-25.94-1.67-2.57-3.26-5.21-6-6.84-6.46-9.65-14.62-17.93-21.84-27-1.22-1.53-2.5-3-3.86-4.63,11.37-3.25,15.16-2.43,19.88,4.08a30.37,30.37,0,0,1,3.15,4.91c3.07,5.24,6.89,9.94,12.6,12.65a20.62,20.62,0,0,0,8,9l0-.06c-.56,1.14-.33,1.9,1,2.08l-.08-.08.85.79c3.72,11,9.76,20.38,19.28,27.29Z" fill="#4e4e4e"/><path d="M54.57,360.8c5.61.92,11.27.24,16.9.36,3.37.08,6.25.93,8.28,3.73,1.43,1.95,2.45,4.32,1.59,6.55s-3.47,1.13-5.25,1.13c-21.45.09-42.91,0-64.36.14-3.29,0-4.46-1-4.2-4.12,1.23-2.48-1.69-6.07,2.1-7.87,6.69,1.08,13.42.39,20.13.52Z" fill="#4c4b4b"/><path d="M29.76,361.24c-6.71-.13-13.44.56-20.13-.52,3.84-4.49,9.27-6.78,14.05-9.89,15.5-10.09,31.23-19.83,46.85-29.74,1.27-.81,2.44-1.73,4.07-1.44,2.73,1.63,4.32,4.27,6,6.84-1.29,1-2.51,2.14-3.88,3-14.35,9.23-28.76,18.39-43.07,27.7C32.13,358.2,29.65,358.56,29.76,361.24Z" fill="#c0bfbe"/><path d="M113.62,348.69c-9.52-6.91-15.56-16.28-19.28-27.29l-.85-.79.08.08c-.12-.8.16-1.81-1-2.08l0,.06c-.37-5.07-3.77-7.42-8-9-5.71-2.71-9.53-7.41-12.6-12.65a30.37,30.37,0,0,0-3.15-4.91c.28-2.55-1.54-5.9,2.65-7,2.53,10.52,8,18.84,18,23.65a11.11,11.11,0,0,1,6.28,7.79c2.46,9.57,7.73,17.57,14.46,24.59,5.57,5.83,12.08,8.73,20.08,4.71-.86,5-4.59,5.63-8.58,5.09C118.92,350.64,116.29,349.49,113.62,348.69Z" fill="#393844"/><path d="M469.05,272.78l1.63.42c-.37.64-.65,1.38-1.56,1.44C469.1,274,469.07,273.4,469.05,272.78Z" fill="#dcbaa3"/><path d="M297.19,361.1h22l1.12.18a8.92,8.92,0,0,1,6,4c1.21,2,2.33,4.51,1.32,6.59-.81,1.66-3.34.7-5.09.71-14.29.06-28.58-.13-42.87.13-3.92.07-4.14-1.65-3.43-4.45,1.1-4.37,4-6.83,8.5-7C288.88,361.1,293,361.15,297.19,361.1Z" fill="#4c4b4b"/><path d="M320.27,361.26l-1.12-.18C319.61,360.63,320,360.74,320.27,361.26Z" fill="#c0bfbe"/><path d="M339.41,88.72c-6.83-11.63-28.11-16.91-39.09-9.49-10.18,6.87-16.8,16.88-23.09,27.13a5.23,5.23,0,0,1-.48.87c-1,1.11-.91,4-3,3.13-1.83-.75-.38-3-.14-4.52,1.1-6.9,4.38-12.86,8.54-18.35,5.57-7.35,12.11-13.78,20.14-18.34,14.7-8.35,29.36-6.53,43.81,1,1.6.83,3,2.09,5,1.91-.09,6.64-5.12,10.85-8,16.09C342.35,89.52,340.69,88.66,339.41,88.72Z" fill="#2dadb4"/><path d="M324,118.74c-3-3.55-6.25-3.94-9.8-.81q3.94-8.3,9.41-1.25Z" fill="#c0bfbe"/><path d="M351.21,153.83c-1.25,1.08-1.5-.2-2-.86C350,153,350.94,152.58,351.21,153.83Z" fill="#fff"/><path d="M131.34,280.79c6.43-.84,10.85-5.53,15.94-8.75,31.54-19.92,62.88-40.17,94.28-60.31,1.23-.79,2.81-1.22,3-3.06,5.69,4.12,11.7,3.83,17.86,1.25-3.55,4.54-8.81,6.83-13.45,9.82-28.45,18.34-57.08,36.43-85.64,54.62q-19.53,12.45-39,25a7.65,7.65,0,0,1-3.63,1.47,2.18,2.18,0,0,1-1.16-2.18C123.78,292.93,126.08,285.89,131.34,280.79Z" fill="#c0bfbe"/><path d="M265.43,208a1.71,1.71,0,0,1-2.34,1.57A1.78,1.78,0,0,1,265.43,208Z" fill="#c0bfbe"/><path d="M270.41,205c-.28,1.29-1,1.89-2.36,1.52A1.91,1.91,0,0,1,270.41,205Z" fill="#c0bfbe"/><path d="M84.53,309.7c4.28,1.55,7.68,3.9,8,9A20.62,20.62,0,0,1,84.53,309.7Z" fill="#c0bfbe"/><path d="M92.53,318.61c1.2.27.92,1.28,1,2.08C92.2,320.51,92,319.75,92.53,318.61Z" fill="#c0bfbe"/><path d="M93.49,320.61l.85.79Z" fill="#c0bfbe"/></g></g></svg>