<svg xmlns="http://www.w3.org/2000/svg" viewBox="0 0 419.98 644.64"><title>ex_d3_3_2</title><g id="Layer_2" data-name="Layer 2"><g id="Layer_1-2" data-name="Layer 1"><path d="M406.4,471.81q-.06,58.4-.13,116.8c0,2.49-.24,5-.37,7.46l-22.35-.22c-.08-2-.24-4-.24-6q0-46.89,0-93.8c0-6.45,0-6.45-6.48-6.45H125.21c-10.81,0-21.63.08-32.44.12L95.86,471l1.52.15a1.46,1.46,0,0,0,2-.05c1.67-.05,3.33-.14,5-.14q146.49,0,293,0c2.32,0,4.64-.18,7-.27l2.09.32A1.25,1.25,0,0,0,406.4,471.81Z" fill="#dadadb"/><path d="M406.37,603.48c9.46,0,11.46,1,13.2,6.49a8.85,8.85,0,0,1-7.13,11.43,35.34,35.34,0,0,1-4.49.06q-122.56,0-245.12,0c-4.52,0-7.52.3-10,5.51-3.12,6.54-10.45,9.2-17.28,11.48-20.88,7-42.49,6.53-64,5.92a107.93,107.93,0,0,1-40.84-9.55c-2.94-1.31-5.54-3.65-7.93-5.9-3.2-3-3.09-8.59.3-12.12a32.22,32.22,0,0,1,17.69-9.21c.05,2.49.11,5,.16,7.48-4.3,10.93,1.91,13.9,10.24,14.45a59.73,59.73,0,0,0,10.43-.4,39.18,39.18,0,0,1,15.77.95c15,4.51,29.87,2.94,44.69-.8a33.19,33.19,0,0,0,11.62-5.52c4-3,4.67-7,2-11.63-.61-2.58-2.74-3.14-4.87-3.52-2.75-.48-5.65-.39-8.28-1.2-4.68-1.44-10-1-13.9-4.81,3.21-.63,6.16,1,9.35,1q132.46-.12,264.93-.09a10.83,10.83,0,0,1,.16,2.46c-.69,4,1,5.11,4.84,4.85,4.95-.33,9.95-.17,14.91,0,2.46.07,3.79-.52,3.46-3.28A25.07,25.07,0,0,1,406.37,603.48Z" fill="#ebece6"/><path d="M292.37,194l2.8-2.88a28.57,28.57,0,0,1,4.38.7c5.13,1.66,8.29-.35,10.72-4.88,1.44-2.69,3.14-5.44,6-7,2.16,2.62-.55,5.7.93,8.53,2.85,5.5,1.31,11-.56,16.43a23.41,23.41,0,0,0-1.35,9.23c-4.21,1.64-3.51,6-4.88,9.16-3,6.85-5.39,14-8.16,21.37,2.72-.08,3.91-2.14,5.9-1.7.85,5-.72,9.89-.87,14.87-.25,8.86,3.06,16.5,6.79,24.14,8.12,16.61,11.86,34.41,14.14,52.59.23,1.83.28,3.75,1.48,5.2,9.21,11.08,12.62,24.65,16.6,38q6.54,21.93,14.64,43.35c1.29,3.38,3.09,5.36,6.92,4.88.64-.08,1.32.26,2,.2,14.25-1.46,26,5.15,37.69,11.79,1.95,3.06,5.61,3.57,8.26,5.57,2.84,1.22.93,2.8.33,4.28-3.35,1.62-6.6.46-9.65-.7a48.27,48.27,0,0,0-29-1.83c-12.12,2.75-25.14,5.21-34.63-7.05-.08-.1-.31-.09-.47-.13a1.42,1.42,0,0,0-.06-.58c-.18-2.65-1.93-4.51-3.28-6.56-12.55-19-24.47-38.38-33.51-59.32-4.85-11.23-9.6-22.58-12.25-34.63,1.78-.77,3.94.19,5.59-1.19,4.13-3.08,5.9-7,5.75-12.34-.33-11.93-.14-23.89-.07-35.84a15.79,15.79,0,0,0-1.77-6.51c-2.15-5-6.66-4.06-10.43-5.1-.18-2.75,1.65-4.65,3.18-6.49a11,11,0,0,0,2.82-6.69c.3-10.29,2.63-20.65-.93-30.83,1.08-6,2.69-11.88,1.95-18,.73-5.82-2.56-10.21-5.2-14.86C293.26,197.6,291.17,196.34,292.37,194Z" fill="#d6ad8e"/><path d="M61.53,394.11c2.9-22.38,5.77-44.77,8.74-67.15a47.78,47.78,0,0,0-.06-10.89c-1.73-17.85-2.39-35.56,8.85-51.22,6.5-9.05,14.81-15.57,25.45-19a2.09,2.09,0,0,0,2.57.93c12.75-3.08,23.57,1.32,33.08,9.27,3.49,2.91,7.21,6.59,5.46,12.25-4.74,1.61-9.73,1.93-14.62,2.71-15.31,2.43-24.82,11.72-26.84,27.13-4.65,35.59-9,71.21-13.56,106.82-7.67-.27-14.62-3.56-21.95-5.24C66.44,397.63,62.27,398.05,61.53,394.11Z" fill="#3c3e3d"/><path d="M150.55,183.11c-.09-7.86,4.35-13.15,12.84-14.82,4.68-.92,9.45-1.37,14.18-2,1,1.21,2.88,1.66,3,3.73.19,5.24,3.52,9,6.38,13a181.73,181.73,0,0,1,13.86,22.28c6.41,12.19,8.42,26.14,15.75,37.93,3.9,6.27,7.52,12.72,11.78,18.78,6.16,8.77,11.87,17.87,18.27,26.47,4.53,6.09,9,11.87,8,20.12-.22,1.71.6,3.55.94,5.33a40,40,0,0,0-5.8-.86c-9.8-.06-19.59,0-29.39.06-1.3-4.86-1-10.06-3.08-14.76.07-3.8.07-7.61.23-11.41a6.73,6.73,0,0,0-1.92-5.36c-4-4.16-8.08-8.3-11.67-12.81-5-6.31-11.57-11.37-15.5-18.59.17-1.4-.49-2-1.86-2.06v0a1.79,1.79,0,0,0-1.91-2.07,2.12,2.12,0,0,0-1.1-1.9c-2.45-5.61-6.22-10.37-9.73-15.31-6.26-8.83-13-17.1-13.66-29A22.26,22.26,0,0,0,150.55,183.11Z" fill="#e1c3af"/><path d="M211.18,45.33c-4.56,0-7.72.27-10.82-.07-4.16-.46-5,1.34-4.93,5.13.17,19.94,0,39.88.17,59.82.05,4.2-1.22,5.34-5.35,5.22q-15-.44-29.92,0c-4.51.14-5.62-1.49-5.58-5.76.19-20.27,0-40.55.15-60.82,0-2.76-.49-4.08-3.42-3.57a2.09,2.09,0,0,1-.5,0c-3.34-.43-8.38,1.66-9.6-1.06-1.09-2.44,3.31-5.57,5.37-8.31C155.1,24.82,163.65,13.83,172,2.72c2.15-2.84,3.42-4.23,6.35-.25C188.79,16.56,199.64,30.33,211.18,45.33Z" fill="#f9be7a"/><path d="M299.34,214c.74,6.17-.87,12.08-1.95,18C294,235,294,240,290.56,243a5.07,5.07,0,0,0-1.07,3.69c.62,9.8-1.34,19.48-1.08,29.25-3.84.94-8.3-1.74-11.67,2-3.92,1-6.23,4.55-6.26,9.63-.06,10.79-.06,10.79-10.6,11-.94-7.37-6.8-11.89-10.31-17.77a5.92,5.92,0,0,0,1.72-4.5c-.09-7.49,1.68-14.8,2.05-22.21.19-4,1.58-5.31,5.39-5.06a18,18,0,0,0,10.85-2.41c-8.51-.85-15.67-4.35-22.07-9.63-5-9-12-14.59-23-12.91-2.29-4-6.93-6-8.81-10.44-4.28-10.06-9.32-19.67-17.14-27.53A34.17,34.17,0,0,1,217,190.82a10.35,10.35,0,0,0,6.67,1.12c12.94-1.29,24.91-6.88,37.77-8.5,3.06-.6,6,.59,9,.78-4.41,2.85-9.81,3-14.29,6.28-9.08,6.58-11.33,14.43-5,23.73C257,223,266,227.45,276.21,227.81c8.66.3,17.45-1.24,20.7-11.6A2.72,2.72,0,0,1,299.34,214Z" fill="#dbbaa1"/><path d="M342.35,438.15c.16,0,.39,0,.47.13,9.49,12.26,22.51,9.8,34.63,7.05a48.27,48.27,0,0,1,29,1.83c3,1.16,6.3,2.32,9.65.7,0,5.08.18,10.16.1,15.24-.07,4-1.78,6.91-6,7.78l-3.8.12-2.09-.32c0-5-.21-10,.12-14.95.31-4.69-1.73-6.09-6.12-6.09q-146.42.12-292.81.11c.1-.32.2-.64.31-1s.45-.8.68-1.2c.81-2.7,3-4.83,3.13-7.82l.51-1.06,1.44-.65c6.51,1.42,13.11-.32,19.73,1.13,13,2.83,26.08,4.88,39.14,7.18,6.63,1.17,13.12.51,18.43-3.82,3.19-2.61,6.31-4.49,10.43-4.54H332.6a4.91,4.91,0,0,0,4.58,0h3.42C341.13,438.66,341.73,438.51,342.35,438.15Z" fill="#242222"/><path d="M316.3,180c-2.89,1.57-4.59,4.32-6,7-2.43,4.53-5.59,6.54-10.72,4.88a28.57,28.57,0,0,0-4.38-.7c3.05-16,8.5-31,20.14-42.94,10.27-10.49,25.29-11.85,41.11-4.53,7.53,3.48,13.41,9,19.27,14.69,3.63,3.53,5.91,8.83,11.92,9.62,1.26.17,1.3,2.2,1.51,3.45,1.25,7.2-5.13,14.43-12.67,14.44-1.28-7.67-6.27-12.88-11.64-17.93-2.33-2.19-3.43-1.42-4.71,1-1.62,3.07-3.79,5.88-5.22,9s-3.65,4.52-7,4.23c-4.34-.38-7.25,1.46-9,5.4a22.06,22.06,0,0,1-2.93,4.61c-.93,1.16-1.26,4-3.89,1.88-1.71-1.41-4.3-2.35-2.25-5.41,1-1.5,1.64-3.25,2.56-4.82,2.28-3.9.85-7.09-2.12-9.67-2.8-2.45-7.75-1.88-10.39,1A55.28,55.28,0,0,0,316.3,180Z" fill="#242222"/><path d="M316.3,180a55.28,55.28,0,0,1,3.53-4.76c2.64-2.89,7.59-3.46,10.39-1,3,2.58,4.4,5.77,2.12,9.67-.92,1.57-1.55,3.32-2.56,4.82-2,3.06.54,4,2.25,5.41,2.63,2.15,3-.72,3.89-1.88a22.06,22.06,0,0,0,2.93-4.61c1.8-3.94,4.71-5.78,9-5.4,3.33.29,5.53-1,7-4.23s3.6-6,5.22-9c1.28-2.41,2.38-3.18,4.71-1,5.37,5.05,10.36,10.26,11.64,17.93-.48,7.07-4.53,12.65-8,18.36-7.09,11.61-15.89,21.87-25.24,31.75-3.84,4.05-7.19,3.94-11.08,1.29a14.31,14.31,0,0,0-8.81-2.54c3.36-.81,4.14-1.64,1.67-5.13-3.49-4.92-8.11-9.28-9.66-15.46a23.41,23.41,0,0,1,1.35-9.23c1.87-5.48,3.41-10.93.56-16.43C315.75,185.65,318.46,182.57,316.3,180Z" fill="#e1c3af"/><path d="M261.4,183.44c-12.86,1.62-24.83,7.21-37.77,8.5a10.35,10.35,0,0,1-6.67-1.12,34.17,34.17,0,0,0-18.38-4.73c-3.05-1.59-5.44-4.58-10.21-4.79,10.17,7.59,15.86,17.12,19.7,28.13,1.49,4.27,2.59,8.87,5.5,12.59,5.2,12.43,12.3,23.82,19.69,35,2.07,3.14,2.5,7.82,7,9.14,1.67,5.77,6.31,9.67,9.27,14.63,3.51,5.88,9.37,10.4,10.31,17.77-1,5.15,1.82,10.1.75,15.25a.84.84,0,0,1-.87.16l-4.28-.09c-.34-1.78-1.16-3.62-.94-5.33,1.05-8.25-3.44-14-8-20.12-6.4-8.6-12.11-17.7-18.27-26.47-4.26-6.06-7.88-12.51-11.78-18.78-7.33-11.79-9.34-25.74-15.75-37.93A181.73,181.73,0,0,0,186.91,183c-2.86-3.93-6.19-7.73-6.38-13-.08-2.07-1.94-2.52-3-3.73,10.06-1.33,20.2-.77,30.29-1.27,17.4-.87,32.43,5.53,46.9,14.06C257,180.4,259.19,182,261.4,183.44Z" fill="#e4cab8"/><path d="M40.88,615c-.05-2.5-.11-5-.16-7.48,1.49-3.83,1.24-7.94,1.94-11.9.25-1.4-.33-3,1-4.13h5c-.17,5.12,2.2,8.33,7.38,8.55,6.9.3,14.05,1.54,18.55-6.36,1.09-1.92,2.94-4.86,6.12-5.23,1.81-.17,3,.82,4.4,1.88,7,5.54,14.28,10.79,23.49,12.2,3.85,3.81,9.22,3.36,13.9,4.8,2.63.81,5.53.72,8.28,1.2,2.13.38,4.26.94,4.87,3.52-3.91,3.52-6.6,8.61-11.91,10.28-13.34,4.2-27.06,6.13-40.58,1.71-8.82-2.89-17.42-4.72-26.71-3.93C50.72,620.63,45.16,619.46,40.88,615Z" fill="#d8d6e9"/><path d="M33.37,447.75c-1.87-2.54-2.17-.18-2.51.92-2.45,7.9-5.05,15.74-6.33,24-.42,2.69.3,6.84-4.4,7.24-4.35-3.12-8.51-6.52-10.08-11.85-4.36-14.79-5.5-29.67.15-44.4a37.44,37.44,0,0,0,2.54-16c-.47-7.62-.71-15.31,4.74-21.7,6.51.64,13,1.33,19.52,1.89,2.07.18,3.65.78,3.63,3.08a4,4,0,0,0,2,3.65c-3.1.47-6.67-.87-8.87,2.84-3.32,5.58-1,18.31,4.35,22,2.75,1.93,5.18,4.08,6.57,7.21a35,35,0,0,1-2.89,4.42c-2.12,2.42-4.6,4.55-5,8C33.66,441.18,33.62,444.5,33.37,447.75Z" fill="#d8d6e9"/><path d="M299.34,214a2.72,2.72,0,0,0-2.43,2.19c-3.25,10.36-12,11.9-20.7,11.6C266,227.45,257,223,251.05,214.23c-6.3-9.3-4.05-17.15,5-23.73,4.48-3.24,9.88-3.43,14.29-6.28,6.81.67,12.29,4.29,17.64,8.1,1.37,1,2.5,2.15,4.36,1.7-1.2,2.32.89,3.58,1.77,5.14C296.78,203.81,300.07,208.2,299.34,214Z" fill="#e4cab8"/><path d="M145.62,268.27c1.75-5.66-2-9.34-5.46-12.25-9.51-7.95-20.33-12.35-33.08-9.27a2.09,2.09,0,0,1-2.57-.93c11.47-4.7,23.62-4.44,35.67-4.79,2.8-.09,5.87-1.53,8.36,1.08,8.24,11,13.34,23.47,16.35,36.83,3.21,11.82,3.81,23.94,4,36.1-1.42,1.79-4.59,1.16-5.34,3.87-5.63-.22-10,3.5-15,5,.4-3.74.66-7.51,1.24-11.23a132.41,132.41,0,0,0,1.42-31.44l.55-1.31c1-1.07,1-2.06-.22-2.95-.42-1.75-.86-3.49-1.24-5.24C149.77,269.2,148.58,267.55,145.62,268.27Z" fill="#333"/><path d="M44.7,426.64c-1.39-3.13-3.82-5.28-6.57-7.21-5.3-3.73-7.67-16.46-4.35-22,2.2-3.71,5.77-2.37,8.87-2.84,4.7.37,9.41.72,14.11,1.1,1.82.15,3.61.3,4.77-1.54.74,3.94,4.91,3.52,7.12,5.58,3.1,4.79,1.52,10,.63,14.81s-.12,10-4.19,13.79Z" fill="#c69676"/><path d="M164.89,278.94c-3-13.36-8.11-25.79-16.35-36.83,4.5-.7,9-1.31,13.51-2.13,4.25-.77,8.95-.85,10.82-6,2,.07,1.35,2.46,2.72,3.06,2,6.16,5.86,11.44,8.08,17.44,2.7,7.26,7.83,13.5,8.92,21.41-3.3.59-6.8-.66-10,1l-1.2,0c-1.16-.65-2.3-1.25-3.68-.59C173.67,278.33,169.13,277.89,164.89,278.94Z" fill="#dbbaa1"/><path d="M17.48,385.93c-5.45,6.39-5.21,14.08-4.74,21.7a37.44,37.44,0,0,1-2.54,16c-5.65,14.73-4.51,29.61-.15,44.4,1.57,5.33,5.73,8.73,10.08,11.85-1.46,3.74-7.25,3.71-10.48-.2a29.79,29.79,0,0,1-5.79-11.47c-3.87-14.89-5.79-29.9-1.11-45,1.55-5,1.43-10.12,1.12-15.25-.2-3.31-.54-6.62-.52-9.93C3.43,387.12,6.88,384.22,17.48,385.93Z" fill="#4f4e50"/><path d="M175.15,139c-5.31,0-10.63-.12-15.94,0-3.13.11-4.51-.84-4.42-4.21.29-11.59-1.37-9.49,9.29-9.62,9.13-.12,18.26.07,27.39-.08,3,0,4,.83,4.11,3.92.26,9.95.38,9.95-9.48,9.94Z" fill="#f9be7a"/><path d="M48.63,591.53h-5q0-56,0-112c0-2.79-.46-5.58-.71-8.36l3.72,0C42.94,484,44.06,497.16,46,510c3.1,20.16,3.43,40.42,4.5,60.67C48.35,577.47,50.78,584.71,48.63,591.53Z" fill="#dadadb"/><path d="M406.37,603.48a25.07,25.07,0,0,0-.15,4c.33,2.76-1,3.35-3.46,3.28-5-.13-10-.29-14.91,0-3.86.26-5.53-.88-4.84-4.85a10.83,10.83,0,0,0-.16-2.46q.36-3.81.7-7.6l22.35.22C406.06,598.54,406.21,601,406.37,603.48Z" fill="#4f4e50"/><path d="M46.62,471.1l-3.72,0c-8-.6-9.32-2-9.29-10,0-2.47.1-4.94.16-7.41,6.09-5.34,13.27-4.35,20.43-3.52Q50.41,460.63,46.62,471.1Z" fill="#4f4e50"/><path d="M315.32,214.14c1.55,6.18,6.17,10.54,9.66,15.46,2.47,3.49,1.69,4.32-1.67,5.13A34.82,34.82,0,0,0,308.18,243c-2-.44-3.18,1.62-5.9,1.7,2.77-7.38,5.14-14.52,8.16-21.37C311.81,220.18,311.11,215.78,315.32,214.14Z" fill="#c69676"/><path d="M175.59,237.06c-1.37-.6-.74-3-2.72-3.06a83,83,0,0,1-21.7-45c-.3-2-.42-3.94-.62-5.91a22.26,22.26,0,0,1,9.53,16.68c.71,11.89,7.4,20.16,13.66,29,3.51,4.94,7.28,9.7,9.73,15.3C179.47,243.28,178.49,239.09,175.59,237.06Z" fill="#d6ad8e"/><path d="M54.2,450.17c-7.16-.83-14.34-1.82-20.43,3.52q-.2-3-.4-5.94c.25-3.25.29-6.57,3.42-8.68,7.84-2,15.8-.84,23.72-.84Z" fill="#242222"/><path d="M415.8,443.58c-2.65-2-6.31-2.51-8.26-5.57C411.17,438.57,415.13,438.65,415.8,443.58Z" fill="#4f4e50"/><path d="M406.41,471l3.8-.12c-1,1.29-2.58.47-3.81.93A1.25,1.25,0,0,1,406.41,471Z" fill="#dbbaa1"/><path d="M105.51,449.75q146.4,0,292.81-.11c4.39,0,6.43,1.4,6.12,6.09-.33,5-.11,10-.12,14.95-2.32.09-4.64.27-7,.27q-146.48,0-293,0c-1.66,0-3.32.09-5,.14l-2,.05L95.86,471c.24-2.44.49-4.87.73-7.3Q101,456.72,105.51,449.75Z" fill="#4f4e50"/><path d="M96.59,463.71c-.24,2.43-.49,4.86-.73,7.3l-3.09,18.73c-1.85,12.58-3.76,25.15-5.51,37.74-2.12,15.21-4.29,30.4-5.69,45.7a128.32,128.32,0,0,0-.89,15.3c-3.18.37-5,3.31-6.12,5.23-4.5,7.9-11.65,6.66-18.55,6.36-5.18-.22-7.55-3.43-7.38-8.55,2.15-6.81-.28-14,1.9-20.87,2.37-.33,1.83-2.2,2.19-3.79a140.42,140.42,0,0,0,2.52-18.6c.84-9.53,2.28-19,3.27-28.49,1.36-13,2.12-25.92,7-38.29,4.58-11.66,9.44-23,19.25-31.39,1.38-1.18,2.59-3,4.64-2.11,1.86.83,3.4,2.73,3.1,4.69-.6,3.89,2.8,6.71,2.26,10.52C94.56,464.45,95.86,463.85,96.59,463.71Z" fill="#dbbaa1"/><path d="M97.38,471.16l2-.05A1.47,1.47,0,0,1,97.38,471.16Z" fill="#dbbaa1"/><path d="M40.88,615c4.28,4.43,9.84,5.6,15.54,5.11,9.29-.79,17.89,1,26.71,3.93,13.52,4.42,27.24,2.49,40.58-1.71,5.31-1.67,8-6.76,11.91-10.28,2.68,4.64,2,8.68-2,11.63A33.19,33.19,0,0,1,122,629.23c-14.82,3.74-29.71,5.31-44.69.8a39.18,39.18,0,0,0-15.77-.95,59.73,59.73,0,0,1-10.43.4C42.79,628.93,36.58,626,40.88,615Z" fill="#4f4e50"/><path d="M276.74,277.93c3.37-3.73,7.83-1.05,11.67-2l3.91.14c3.77,1,8.28.14,10.43,5.1a15.79,15.79,0,0,1,1.77,6.51c-.07,11.95-.26,23.91.07,35.84.15,5.35-1.62,9.26-5.75,12.34l-.42-14c.1-7.12.25-14.24.29-21.36.05-9.67,0-9.67-9.45-9.67C276.24,290.87,276.24,290.87,276.74,277.93Z" fill="#ebece6"/><path d="M298.42,321.91l.42,14c-1.65,1.38-3.81.42-5.59,1.19-4.33-1.21-8.76-.26-13.13-.59-1.67-.12-3.71.7-4.66-1.59,1.74-1.64.92-3.76,1-5.65.16-8.27-.86-7.26,7.58-7.33C288.8,321.87,293.61,321.91,298.42,321.91Z" fill="#4f4e50"/><path d="M292.32,276.08l-3.91-.14c-.26-9.77,1.7-19.45,1.08-29.25a5.07,5.07,0,0,1,1.07-3.69c3.42-3,3.43-8,6.83-10.93,3.56,10.18,1.23,20.54.93,30.83a11,11,0,0,1-2.82,6.69C294,271.43,292.14,273.33,292.32,276.08Z" fill="#e1c3af"/><path d="M340.6,438l1.69-.43a1.42,1.42,0,0,1,.06.58C341.73,438.51,341.13,438.66,340.6,438Z" fill="#c69676"/><path d="M96.59,463.71c-.73.14-2,.74-1.85-.52.54-3.81-2.86-6.63-2.26-10.52.3-2-1.24-3.86-3.1-4.69-2-.91-3.26.93-4.64,2.11-9.81,8.39-14.67,19.73-19.25,31.39-4.86,12.37-5.62,25.32-7,38.29-1,9.5-2.43,19-3.27,28.49a140.42,140.42,0,0,1-2.52,18.6c-.36,1.59.18,3.46-2.19,3.79C49.46,550.4,49.13,530.14,46,510c-2-12.82-3.09-26,.59-38.88q3.78-10.47,7.58-20.93l6.31-11.94c1.45-3.35,5.29-5.6,4.58-9.94,4.07-3.75,3.33-9.15,4.19-13.79s2.47-10-.63-14.81c7.33,1.68,14.28,5,21.95,5.24,8.45,2.6,17.32,2.3,25.92,3.86a77.66,77.66,0,0,0-4.93,29.26l-1.45.65-.51,1.06c-.08,3-2.32,5.12-3.13,7.82-.23.4-.46.8-.68,1.2s-.21.65-.31,1Q101,456.73,96.59,463.71Z" fill="#d6ad8e"/><path d="M116.52,408.79c-8.6-1.56-17.47-1.26-25.92-3.86,4.51-35.61,8.91-71.23,13.56-106.82,2-15.41,11.53-24.7,26.84-27.13,4.89-.78,9.88-1.1,14.62-2.71,3-.72,4.15.93,4.71,3.48.38,1.75.82,3.49,1.24,5.24l.22,2.95c-.18.43-.36.87-.55,1.31-5.87,1.09-11.73,2.18-17.29,4.5-4.94,2.07-7.63,5.62-7.71,11.07-.1,7-.28,13.93-.42,20.9-.61,30.35-1,60.72-4.48,90.93Z" fill="#2eafb7"/><path d="M175.59,237.06c2.9,2,3.88,6.22,7.88,7a2.15,2.15,0,0,1,1.1,1.91,1.79,1.79,0,0,0,1.91,2.07v0a2,2,0,0,0,1.86,2.06c3.93,7.22,10.47,12.28,15.5,18.59,3.59,4.51,7.66,8.65,11.67,12.81a6.73,6.73,0,0,1,1.92,5.36c-.16,3.8-.16,7.61-.23,11.41l-6.17-.07c-.14-3.32-.36-6.63-.39-9.95-.08-8-4.23-12.2-12.08-12.23-2,0-4-.1-6-.15-1.09-7.91-6.22-14.15-8.92-21.41C181.45,248.5,177.55,243.22,175.59,237.06Z" fill="#c69676"/><path d="M259.76,314c-.45,4.71-3.18,7.11-7.76,7.47a161.47,161.47,0,0,1-23.38.08c-4.64-.32-7.49-3.18-8.19-7.92l-.23-.22.09-.3c9.8,0,19.59-.12,29.39-.06a40,40,0,0,1,5.8.86Z" fill="#d6ad8e"/><path d="M220.29,313.07l-.09.3.23.22-8.88.59c-1.86-5.26-.92-10.61-.51-15.94l6.17.07C219.31,303,219,308.21,220.29,313.07Z" fill="#3c3e3d"/><path d="M188.35,250.14a2,2,0,0,1-1.86-2.06C187.86,248.09,188.52,248.74,188.35,250.14Z" fill="#d6ad8e"/><path d="M186.48,248.06a1.79,1.79,0,0,1-1.91-2.07A1.79,1.79,0,0,1,186.48,248.06Z" fill="#d6ad8e"/><path d="M298.42,321.91c-4.81,0-9.62,0-14.43,0-8.44.07-7.42-.94-7.58,7.33,0,1.89.79,4-1,5.65-4.87-3.58-5.38-8.64-4.92-14.11a51.2,51.2,0,0,0-.17-5.93c.1-.7-.2-.92-.86-.71l-8.88-.33c1.07-5.15-1.78-10.1-.75-15.25,10.54-.2,10.54-.2,10.6-11,0-5.08,2.34-8.62,6.26-9.63-.5,12.94-.5,12.94,12.52,12.95,9.46,0,9.5,0,9.45,9.67C298.67,307.67,298.52,314.79,298.42,321.91Z" fill="#333"/><path d="M240.3,266.15c-4.54-1.32-5-6-7-9.14-7.39-11.17-14.49-22.56-19.69-35l11,2c11-1.68,17.95,3.92,23,12.91-2.29.16-2.39,2.19-2.67,3.63C243.22,249.09,241.79,257.63,240.3,266.15Z" fill="#d6ad8e"/><path d="M240.3,266.15c1.49-8.52,2.92-17.06,4.54-25.55.28-1.44.38-3.47,2.67-3.63,6.4,5.28,13.56,8.78,22.07,9.63A18,18,0,0,1,258.73,249c-3.81-.25-5.2,1.09-5.39,5.06-.37,7.41-2.14,14.72-2.05,22.21a5.92,5.92,0,0,1-1.72,4.5C246.61,275.82,242,271.92,240.3,266.15Z" fill="#c69676"/><path d="M224.53,224.06l-11-2c-2.91-3.72-4-8.32-5.5-12.59-3.84-11-9.53-20.54-19.7-28.13,4.77.21,7.16,3.2,10.21,4.79,7.82,7.86,12.86,17.47,17.14,27.53C217.6,218.05,222.24,220,224.53,224.06Z" fill="#c69676"/><path d="M116.52,408.79l4.82-.14c5,1.33,7.9-.32,8.41-5.64,0-.43.49-.82.75-1.23,8.37,9.58,16.52,19.38,27.19,26.63,5.34,3.63,10.61,7.35,16.85,9.28,8,2.44,15.28,1,21.93-3.94-2,3.39.11,4,2.85,4.25-4.13.05-7.25,1.93-10.44,4.54-5.31,4.33-11.8,5-18.43,3.82-13.06-2.3-26.18-4.35-39.14-7.18-6.62-1.45-13.22.29-19.73-1.13A77.87,77.87,0,0,1,116.52,408.79Z" fill="#c69676"/><path d="M332.6,438a6.45,6.45,0,0,1,4.58,0A4.91,4.91,0,0,1,332.6,438Z" fill="#c69676"/><path d="M109.63,439.76l.51-1.06Z" fill="#c69676"/><path d="M105.82,448.78c.22-.4.45-.8.68-1.2C106.27,448,106,448.38,105.82,448.78Z" fill="#4f4e50"/><path d="M163.58,318.91c8,16.23,14.31,33.16,21.45,49.75,1.55,3.59-2.72,3.67-2.68,6.06-14.51,10.86-31.16,15.49-48.94,16.8,1.84-10.94,5.58-21.42,7.86-32.24,2.49-11.78,6.71-23.2,7.31-35.36C153.63,322.41,158,318.69,163.58,318.91Z" fill="#242222"/><path d="M148.58,323.92c-.6,12.16-4.82,23.58-7.31,35.36-2.28,10.82-6,21.3-7.86,32.24-1.33,3.32-2.94,6.55-2.91,10.26-.26.41-.71.8-.75,1.23-.51,5.32-3.45,7-8.41,5.64,3.45-30.21,3.87-60.58,4.48-90.93.14-7,.32-13.93.42-20.9.08-5.45,2.77-9,7.71-11.07,5.56-2.32,11.42-3.41,17.29-4.5a132.41,132.41,0,0,1-1.42,31.44C149.24,316.41,149,320.18,148.58,323.92Z" fill="#3c3e3d"/><path d="M176.35,313l-7.43,2c-.22-12.16-.82-24.28-4-36.1,4.24-1.05,8.78-.61,12.84-2.55,1.38-.66,2.52-.06,3.68.59a18.48,18.48,0,0,0-5,14.78C176.89,298.81,176.4,305.93,176.35,313Z" fill="#d6ad8e"/><path d="M151.79,279.94l-.22-2.95C152.82,277.88,152.83,278.87,151.79,279.94Z" fill="#3c3e3d"/><path d="M176.35,313c.05-7.09.54-14.21,0-21.26a18.48,18.48,0,0,1,5-14.78l1.2,0c0,3.47.17,7-.06,10.43-.2,2.92,1,3.7,3.71,3.6,5-.17,9.94,0,14.91-.08,2.38-.07,3.65.36,3.58,3.19-.23,9.26-.23,18.53-.32,27.8-6,0-11.93.12-17.89,0-3-.08-4.06.89-4.1,4s1.15,6.26-.94,9.1c-4.58-3.44-5.43-8.16-5-13.52A71,71,0,0,0,176.35,313Z" fill="#333"/><path d="M204.43,321.9c.09-9.27.09-18.54.32-27.8.07-2.83-1.2-3.26-3.58-3.19-5,.12-9.94-.09-14.91.08-2.75.1-3.91-.68-3.71-3.6.23-3.47.06-7,.06-10.43,3.18-1.71,6.68-.46,10-1,2,0,4,.14,6,.15,7.85,0,12,4.27,12.08,12.23,0,3.32.25,6.63.39,9.95-.41,5.33-1.35,10.68.51,15.94a13.6,13.6,0,0,0-.86,9.22c1.76,5.94-1.3,9-5.76,11.55Q204.68,328.43,204.43,321.9Z" fill="#dadadb"/><path d="M130.5,401.78c0-3.71,1.58-6.94,2.91-10.26,17.78-1.31,34.43-5.94,48.94-16.8A233.18,233.18,0,0,1,198,414.89c1.75,6,1.91,12.82-1.55,18.86-6.65,5-14,6.38-21.93,3.94-6.24-1.93-11.51-5.65-16.85-9.28C147,421.16,138.87,411.36,130.5,401.78Z" fill="#d6ad8e"/><path d="M204.43,321.9q.25,6.53.5,13.05a2.21,2.21,0,0,1-2.3,1.48c-6.12,0-12.25,0-18.37,0-1.2,0-2.33-.18-2.76-1.56,2.09-2.84.91-6.08.94-9.1s1.12-4,4.1-4C192.5,322,198.46,321.9,204.43,321.9Z" fill="#4f4e50"/><path d="M269.51,314.13c.66-.21,1,0,.86.71Z" fill="#e4cab8"/></g></g></svg>