<svg xmlns="http://www.w3.org/2000/svg" viewBox="0 0 492.42 490.6"><title>ex_d2_5_2</title><g id="Layer_2" data-name="Layer 2"><g id="Layer_1-2" data-name="Layer 1"><path d="M479.31,449.52a35.16,35.16,0,0,1,5.45.29c5,1.05,8.06,4.95,7.62,9.53s-4.56,8.11-9.56,8.12H387.94q-72.92,0-145.82-.07c-3.83,0-5.86.44-7.52,4.79-2.43,6.34-9.15,8.73-15.18,10.78-18.9,6.43-38.51,8.54-58.3,7.28-15.18-1-30.23-3.61-44.41-9.7-6.9-3-10-7.05-9.95-12.63a6.32,6.32,0,0,1,2.36-5.22c5.18-4.23,10.7-7.74,17.62-8.25.46,2.48-.5,4.77-.9,7.14-1.38,10.39,1.44,13.58,12.21,13.66,1.65,0,3.3-.27,5-.37,6-.37,12-1.37,17.83.58,12.77,4.3,25.6,3.06,38.43.77,6.25-1.11,12.29-3.12,17.31-7.25,3.83-3.16,3.88-8.41.26-10.2-1-3.44-3.72-3.94-6.86-4.38-5.64-.79-11.59-.81-16.28-4.87l262.65,0a13.86,13.86,0,0,1,.09,2.94c-.75,4.11,1.19,5.08,4.91,4.76,3.26-.29,6.57-.07,9.86-.07C479,457.1,479,457.1,479.31,449.52Z" fill="#ecece6"/><path d="M384.24,101.92c1.14,6.64-1.49,13.16-.42,19.86,1.38,8.7,5.52,16.31,9.06,24.13,6.11,13.5,8.65,27.84,10.51,42.35a20.1,20.1,0,0,0,4.07,10.38c6,7.72,9.21,16.92,11.7,26.25,4.5,16.86,10.4,33.24,16.36,49.61,1.13,3.1,2.76,4.39,6.18,4.38,5.64,0,11.28.55,16.91.94a7.79,7.79,0,0,1,3.36.72c7.85,4.7,16.32,8.16,24.38,12.42,2.5,1.32,5.59,3.28,2,6.76-3.18,1.69-6.2.33-9.12-.68-8.54-3-17-5.23-26.09-2a32.47,32.47,0,0,1-7.83,1.4c-10,.93-20.17,2.36-26.81-8,0-.35,0-.69-.05-1-12.18-16.65-22.35-34.52-31.79-52.8-9-17.46-14.51-36.31-21.09-54.72q-5.51-15.43-11.08-30.85c0-1.71.83-3,1.72-4.42,2.17-3.47,5.89-5.73,7.37-9.69a44.71,44.71,0,0,0,14.16-33.08C380.35,104.74,382,102.49,384.24,101.92Z" fill="#d5ad8e"/><path d="M237.66,43.32c17.06-2.29,34-5.83,51.34-5.11,14.61.61,28.47,4.11,40.61,12.8-4,1.5-8,2.86-11.95,4.54-8.44,3.64-17,5.78-26.4,4.69-3.18-.38-6-1.93-9-2.1a70.17,70.17,0,0,0-44,12.14c-2.14,1.42-1.41,3.06-.55,4.76-10.93.13-21.69,2.33-32.69,2.21-16-.18-31.58-3.33-47.38-4.73-8.08-.71-16.19-1-24.29-1.43a4.46,4.46,0,0,0-2.85.64A110,110,0,0,1,115,82c-.37-1.14-1.1-1.32-2.28-1.21-3.13.32-6.28.41-9.42.59-2.77-.54-3.28-2.8-3-4.9,1.27-11.37.14-22.77.58-34.14l13.8-.36,1.3-.08c9.39,1.44,18.5,4.44,28.33,3s19.68-1.84,29.53-2.7c1.41,1.4,2.41,1.16,3-.76l3.07-.12a12,12,0,0,0,2.25.78C192,43.28,202,43.38,211.82,45.8A37.5,37.5,0,0,0,226,47C230.07,46.44,234.41,46.54,237.66,43.32Z" fill="#e1c4b0"/><path d="M145.93,249.7c.1-.69.19-1.38.29-2.07a2.39,2.39,0,0,0,.43-2.6q4.14-32.11,8.27-64.23c.91-7.17-1.26-14.16-1.3-21.32-.06-13.95,2.11-27.11,11.07-38.44,6.58-8.32,14.79-14.17,25.1-17,2.23,1.74,4.82.83,7.23.84,16,.07,26.76,8,33.71,21.91-5.87-.38-11.49,1.34-17.21,2.16-14.8,2.12-23.73,11-26,25.88-1.44,9.66-2.57,19.38-3.82,29.08q-4.78,37.26-9.56,74.53c-7-.92-13.65-3.18-20.39-5.09Z" fill="#3c3e3d"/><path d="M0,68.15C12.21,52.31,23.68,37.48,35.09,22.62c1.56-2,2.7-2.33,4.42-.08Q55.85,43.87,72.37,65.06c1.8,2.3,1.41,3.11-1.43,3.08-4,0-8,.08-12,0-2.29-.06-3.19.78-3.43,3.12-3.28,31.75,3.7,60.61,23.79,85.91,6.33,8,13.74,14.76,21.59,21.34a62.5,62.5,0,0,1-17.6-5.56C43.18,153.93,22,121.66,17,78.09c-1.13-9.92-1-9.93-11.15-9.94C4.2,68.14,2.59,68.15,0,68.15Z" fill="#f9be7a"/><path d="M237.68,75c-.86-1.7-1.59-3.34.55-4.76a70.17,70.17,0,0,1,44-12.14c3,.17,5.82,1.72,9,2.1,9.39,1.09,18-1.05,26.4-4.69,3.91-1.68,8-3,11.95-4.54l3,.45,1,.48.07-.06a5,5,0,0,1-3,4.3c-5.15,1.85-7.51,6.1-9.89,10.45-4.16,7.6-3,19.41,3.31,24.74,7.92,6.68,17.38,9.25,27.68,6.93,6.39-1.44,11.76-4.49,15.48-10.4,3.23-5.14,1.8-10.58,2.29-15.91,2,.1,2.51,1.47,3.18,3.09A26.16,26.16,0,0,1,374.55,87c-2.57,7-7.83,12.44-6.7,21.38,1.2,9.43-1.37,19.28-4.29,28.62-1.48,4-5.2,6.22-7.37,9.69-.89,1.44-1.74,2.71-1.71,4.42-1.15-.29-2.4-.51-3.33.28-3.64,3.09-8.26,2.67-12.5,3.61-4.38-2-7.79-4.76-8.06-10.15-.46-9.12.47-18.18,1.14-27.24.23-3.18,1.63-4.95,5.4-4.76A20.43,20.43,0,0,0,349.3,110c-.63-.5-.85-.83-1.11-.85a26.72,26.72,0,0,0-3-.13,45.81,45.81,0,0,1-26.29-7.76c-7-4.76-14.4-5.75-22.25-6.22a57.93,57.93,0,0,1-6.39-.59c-8.56-1.67-16.9-4.14-25.31-6.39Z" fill="#dcbaa1"/><path d="M153.8,253.4c6.74,1.91,13.4,4.17,20.39,5.09L198.73,262c-1.51,9.48-5.07,18.67-3.92,28.51-3.36,3-4.1,7.46-6.1,11.22q-4.35,7-8.72,14.07a2.14,2.14,0,0,1-2.19-2.69c.66-3.69-1.48-6.72-2.21-10.08s-2.76-4.4-5.7-1.89A53.76,53.76,0,0,0,157.16,316a111.17,111.17,0,0,0-13.36,46.67c-1.17,17.95-4.1,35.69-6.29,53.52-.3,2.38.38,5.42-2,7.41a56,56,0,0,1-.65-7.39c.7-18.46-.89-36.79-3.34-55-.61-4.49.32-9.26-1.92-13.52q-.24-8.83-.49-17.66c2.86-1.89,1-5.4,2.62-7.71q4.06-10.74,8.14-21.48c1.2-3.58,5.19-6.1,4-10.58,3.43-2.23,5.89-5,5.77-9.44,1-.2,1.85-.56,2-1.78C152.84,270.5,156.28,262.19,153.8,253.4Z" fill="#d5ad8e"/><path d="M479.44,322.65q0,56.76-.06,113.52c0,2.31-.26,4.62-.41,6.93l-22.45-.42c0-32.6-.11-65.21,0-97.81,0-4.13-1.11-5.39-5.29-5.32-12.31.23-24.62,0-36.94,0,.47-5.83-.49-11.71.57-17.52l62.51-.21,1.82.17A2.78,2.78,0,0,0,479.44,322.65Z" fill="#dbdadb"/><path d="M230.6,101.09c2.7-1.67,5.83-1.23,8.71-1.38,8.5-.43,15.1-5.22,22.22-8.88A2.47,2.47,0,0,0,263.24,93c11.82,4.17,23.69,8,36.44,7.91,6.75,1.71,12.11,6.8,19.07,7.92,4.87.79,5.33,3.73,4.74,7.82-.86,6-1.37,12.11-2,18.16a9.73,9.73,0,0,0-4.11,1.3c-11.09,6.9-22.17,8.26-33.49.06a23.57,23.57,0,0,0-15.78-4.35c-7.44.47-14.65,2-21.92,3.33C242.45,123.13,238,111.46,230.6,101.09Z" fill="#e1c4b0"/><path d="M479.22,322l-1.82-.17c0-4.49.06-9,0-13.47,0-5.85-.8-6.66-6.63-6.66l-282.1,0c2-3.76,2.74-8.2,6.09-11.22,5.76.94,11.56-.57,17.37.57,13.35,2.62,26.74,5,40.14,7.37,6.71,1.17,13.05-.1,18.14-4.77,2.57-2.36,5.16-3,8.48-3q59.57.14,119.13,0c6.81,0,13.62-.13,20.42-.2,6.64,10.35,16.83,8.92,26.81,8a32.47,32.47,0,0,0,7.83-1.4c9-3.26,17.55-1,26.09,2,2.92,1,5.94,2.37,9.12.68l.27,3.13a.39.39,0,0,0,0,.67c0,3.78-.05,7.57-.07,11.35,0,3.51-1.39,6-5,6.85A7.29,7.29,0,0,0,479.22,322Z" fill="#242323"/><path d="M371.76,52C375,36,380.2,20.88,392.48,9.35c9.85-9.25,25.27-10,39.68-2.79,8.55,4.28,14.81,11.17,21.35,17.79,2,2,3.28,5,7,4.9,1.58,0,1.75,2.13,2,3.59,1,7.13-4.32,13.4-12,14.17-.87-5.47-4-9.75-7.51-13.74-6-6.8-6.07-6.76-10.57.83a25.15,25.15,0,0,0-2,3.43c-1.66,4.14-4.5,6.25-9.08,5.86-3.16-.28-5.3,1.15-6.7,4a45.15,45.15,0,0,1-3.42,5.48c-.94,1.39-1.55,3.69-4,1.68-1.66-1.36-3.78-2.35-1.9-5.1a47.31,47.31,0,0,0,2.45-4.88c2.08-4,.69-7.31-2.66-9.43s-7-1.51-9.8,1.74c-1.06,1.25-1.94,2.66-2.91,4a7,7,0,0,0-3.74,3.74C385.25,52.37,379.53,54.45,371.76,52Z" fill="#242323"/><path d="M392.4,40.89c1-1.33,1.85-2.74,2.91-4,2.77-3.25,6.37-3.92,9.8-1.74s4.74,5.44,2.66,9.43a47.31,47.31,0,0,1-2.45,4.88c-1.88,2.75.24,3.74,1.9,5.1,2.46,2,3.07-.29,4-1.68a45.15,45.15,0,0,0,3.42-5.48c1.4-2.87,3.54-4.3,6.7-4,4.58.39,7.42-1.72,9.08-5.86a25.15,25.15,0,0,1,2-3.43c4.5-7.59,4.54-7.63,10.57-.83,3.54,4,6.64,8.27,7.51,13.74-1.25,8.11-6.05,14.59-10.29,21.17A140.69,140.69,0,0,1,418.52,94.6c-5.34,5.05-6.54,5.29-12.55.86-.92-.68-1.83-1.38-2.75-2.07.13-1.13-.83-1.68-1.29-2.5-3.25-5.75-8.73-10.12-10.5-16.79a19.41,19.41,0,0,1,1.39-9.22C396.6,56.72,392.22,48.88,392.4,40.89Z" fill="#e1c4b0"/><path d="M118.86,295.72a129.63,129.63,0,0,0-8.21,27.86c-.44,2.67.42,6.86-4.35,7.23-5.15-3.85-9.39-8.27-10.85-14.9-3-13.88-3.72-27.61,1.74-41.09a25.7,25.7,0,0,0,1.92-13.1c-1-7.71-.24-15.21,4.49-21.81,6.51.64,13,1.24,19.52,1.93,4.41.47,3.46,4,3.69,6.79-4.46-1.5-6.89.61-8.24,4.63-2.2,6.56.33,14.94,5.67,19.55,2.09,1.8,4.52,3.41,5.55,6.2.21,2.07-1.07,3.26-2.48,4.51-2.21,2-4.21,4.15-4.46,7.35-.92,1.35-2.86,1.91-3,3.86Z" fill="#d8d6e9"/><path d="M125.84,461.59c.4-2.37,1.36-4.66.9-7.14a72.72,72.72,0,0,1,2.12-15l4.94-1c-.29,3.53.22,6.39,4.33,7.67a19.44,19.44,0,0,0,21.79-7c1.4-1.91,3.32-3.18,5.06-4.67a27.22,27.22,0,0,1,5.14,3.76c6.77,6,14.4,10.26,23.58,11.24,4.69,4.06,10.64,4.08,16.28,4.87,3.14.44,5.83.94,6.86,4.38-3.22,4-6.34,8.22-11.58,9.79-14.51,4.37-29,5.4-43.46-.32A30,30,0,0,0,147.22,466C139.68,466.83,132.3,466.24,125.84,461.59Z" fill="#d8d6e9"/><path d="M369.59,72c-.49,5.33.94,10.77-2.29,15.91-3.72,5.91-9.09,9-15.48,10.4-10.3,2.32-19.76-.25-27.68-6.93-6.33-5.33-7.47-17.14-3.31-24.74,2.38-4.35,4.74-8.6,9.89-10.45a5,5,0,0,0,3-4.3c9.65-2.63,18,1.62,26.56,4.95.25,1.59,1.61,2.38,2.45,3.54C365.4,64,369.73,66.72,369.59,72Z" fill="#e1c4b0"/><path d="M230.6,101.09c7.36,10.37,11.85,22,15.56,34.06,2.28,12.1,4.17,24.24,3.58,36.62-1.48,1.37-3.93,1.15-5,3.11-5,.75-9.24,3.62-14,5-.06-5.92,1-11.73,1.69-17.57.92-7.77,2.68-15.56.31-23.39.85-4.26-.11-8.24-2-12.06C223.78,112.94,213,105,197,104.93c-2.41,0-5,.9-7.23-.84a50,50,0,0,1,15.58-3.3c7.07-.46,14.16-.63,21.24-1.05A4.8,4.8,0,0,1,230.6,101.09Z" fill="#343333"/><path d="M103.3,81.36c3.14-.18,6.29-.27,9.42-.59,1.18-.11,1.91.07,2.28,1.21,0,2.69,0,5.38,0,8.08-.2.62,0,.91.69.79a80.25,80.25,0,0,0,8.9.17c5.06-.44,8.42,1.89,11,5.89a89.16,89.16,0,0,1-9-.12c-3.7-.41-4.45,1.2-4.25,4.51.27,4.47,0,9,.12,13.44.1,2.52-.62,3.53-3.31,3.47-8.79-.2-17.59-.17-26.38-.24,0-5.44-.23-10.9,0-16.33.2-3.75-1.11-4.86-4.79-4.81-2.41,0-5.69,1.81-7.27-1.89,3.16-4.65,8-3.89,12.59-3.87,6.57,0,6.57,0,6.58-6.57,0-.84,0-1.67,0-2.5Z" fill="#343333"/><path d="M129.79,279c-1-2.79-3.46-4.4-5.55-6.2-5.34-4.61-7.87-13-5.67-19.55,1.35-4,3.78-6.13,8.24-4.63,6.37.27,12.78,0,19.12,1.07l7.87,3.7c2.48,8.79-1,17.1-2.09,25.6-.16,1.22-1,1.58-2,1.78Z" fill="#c69777"/><path d="M79.84,5.09C83,1.28,86.86-.17,92,0c10.75.39,21.53.35,32.29,0,5.24-.16,8.71,2,11.46,6A78.73,78.73,0,0,1,127.29,6c-3.59-.39-5.06.58-4.74,4.49.38,4.6,0,9.25.14,13.87.09,2.42-.78,3.15-3.12,3.11-8.92-.17-17.84-.19-26.76-.27,0-5.49-.21-11,.09-16.47C93.12,6.84,91.61,5.88,88,6,85.31,6.07,82.35,7.12,79.84,5.09Z" fill="#343333"/><path d="M369.59,72c.14-5.27-4.19-8-6.83-11.62-.84-1.16-2.2-1.95-2.45-3.54,5.15,1.58,8.18-1.89,11.45-4.81,7.77,2.43,13.49.35,16.9-7.39a7,7,0,0,1,3.74-3.74c-.18,8,4.2,15.83.42,24a19.41,19.41,0,0,0-1.39,9.22c-2,.06-2.28,1.67-2.79,3-2.05,5.41-3.81,10.93-6.16,16.2-1.34,3-1.08,7-4.79,8.75-.49-5.15.29-10.57-3.14-15.11a26.16,26.16,0,0,0-1.78-11.88C372.1,73.46,371.57,72.09,369.59,72Z" fill="#d5ad8e"/><path d="M103.6,239.91c-4.73,6.6-5.44,14.1-4.49,21.81a25.7,25.7,0,0,1-1.92,13.1C91.73,288.3,92.4,302,95.45,315.91c1.46,6.63,5.7,11,10.85,14.9-1.55,3.56-6.89,3.44-10.08-.31a30,30,0,0,1-6.15-12.94c-3.26-14-5-28.1-.36-42.24,1.86-5.65,1.21-11.5.71-17.3-.17-2-.53-4-.53-5.94C89.91,241.45,93.4,238.38,103.6,239.91Z" fill="#4e4e4f"/><path d="M92.81,27.19c8.92.08,17.84.1,26.76.27,2.34,0,3.21-.69,3.12-3.11-.17-4.62.24-9.27-.14-13.87-.32-3.91,1.15-4.88,4.74-4.49a78.73,78.73,0,0,0,8.42.09c2.26,7,1,14.06.66,21.07-.13,3-6.72,6.17-10.1,6-3.82-.19-7.65,0-11.48,0l-14.74,0c-3.61,0-7.25-.31-10.84,0-4.56.36-7.49-1.57-9.39-5.5l10-.54h1Z" fill="#dbdadb"/><path d="M92.84,118c8.79.07,17.59,0,26.38.24,2.69.06,3.41-.95,3.31-3.47-.16-4.48.15-9-.12-13.44-.2-3.31.55-4.92,4.25-4.51a89.16,89.16,0,0,0,9,.12c2.36,7.06,1.61,14.39.5,21.38-.46,2.92-4.53,5.61-8.52,5.63-13.43.08-26.86,0-40.28,0-4.24,0-6.21-3.06-8.49-5.79Z" fill="#ecece6"/><path d="M133.8,438.51l-4.94,1q0-43.8,0-87.59c0-1.45-.41-3,.8-4.25,2.24,4.26,1.31,9,1.92,13.52,2.45,18.24,4,36.57,3.34,55a54.39,54.39,0,0,0,.66,7.39C133.86,428.43,135.46,433.66,133.8,438.51Z" fill="#dbdadb"/><path d="M456.52,442.68l22.45.42c.11,2.14.23,4.28.34,6.42-.32,7.58-.32,7.58-8.1,7.59-3.29,0-6.6-.22-9.86.07-3.72.32-5.66-.65-4.91-4.76a13.86,13.86,0,0,0-.09-2.94C456.75,447.22,454,444.88,456.52,442.68Z" fill="#4e4e4f"/><path d="M139.9,300.8q-4.08,10.74-8.14,21.48l-2.85.12c-8.87-1.15-9.82-2.23-9.83-11.33,0-1.82.1-3.64.14-5.46,2.56-1.55,4.36-4.35,8-4A46.23,46.23,0,0,0,139.9,300.8Z" fill="#4e4e4f"/><path d="M92.84,118l-14,.21c-1.35-6.64-.29-13.35-.58-20-.07-1.67,1.07-2.66,2.58-3.21,1.58,3.7,4.86,1.93,7.27,1.89,3.68,0,5,1.06,4.79,4.81C92.61,107.07,92.83,112.53,92.84,118Z" fill="#4e4e4f"/><path d="M377.69,102.07c3.71-1.74,3.45-5.74,4.79-8.75,2.35-5.27,4.11-10.79,6.16-16.2.51-1.35.83-3,2.79-3,1.77,6.67,7.25,11,10.5,16.79.46.82,1.42,1.37,1.29,2.5-7.41.44-13.48,3.85-19,8.53-2.2.57-3.89,2.82-6.52,2Z" fill="#c69777"/><path d="M92.81,27.19l-2-.11c-.33-.54-.66-.54-1,0l-10,.54a1.81,1.81,0,0,1-1.27-1.88c.77-6.86-1.61-13.92,1.29-20.64,2.51,2,5.47,1,8.16.9,3.61-.11,5.12.85,4.9,4.73C92.6,16.2,92.82,21.7,92.81,27.19Z" fill="#4e4e4f"/><path d="M237.66,43.32c-3.25,3.22-7.59,3.12-11.64,3.69a37.5,37.5,0,0,1-14.2-1.21c-9.8-2.42-19.82-2.52-29.73-3.75a12,12,0,0,1-2.25-.78c7.86-2.89,16.19-3.18,24.28-2.82,10.52.48,21,2.44,31.46,3.75A2.52,2.52,0,0,1,237.66,43.32Z" fill="#e5cab8"/><path d="M103.3,81.36l-3.25.64c-5.22-2.15-7.54-5.91-7.23-11.67S93,58.74,92.82,53c-.1-4.29,1-7.81,5.15-9.77.78-.1,1.54-.22,1.59-1.25l.3-.13.21.25.44,0,.32.29c-.44,11.37.69,22.77-.58,34.14C100,78.56,100.53,80.82,103.3,81.36Z" fill="#d5ad8e"/><path d="M139.9,300.8a46.23,46.23,0,0,1-12.68.8c-3.64-.34-5.44,2.46-8,4l0-5.91c1.33-1.51.65-3.29.63-5,.17-2,2.11-2.51,3-3.86l2.09-.4c5.56.1,11.12.55,16.67-.24h2.32C145.09,294.7,141.1,297.22,139.9,300.8Z" fill="#242323"/><path d="M299.68,100.91c-12.75.11-24.62-3.74-36.44-7.91a2.47,2.47,0,0,1-1.71-2.17L265,88.06c8.41,2.25,16.75,4.72,25.31,6.39a57.93,57.93,0,0,0,6.39.59C296.48,97.6,299.75,98.4,299.68,100.91Z" fill="#d5ad8e"/><path d="M100.83,42.32l-.32-.29-.44,0q0-4.45,0-8.91l14.74,0c.1,1.65.19,3.31.28,5-.15,1.31-.29,2.61-.44,3.91Z" fill="#3c3e3d"/><path d="M128.91,322.4l2.85-.12c-1.65,2.31.24,5.82-2.62,7.71Q129,326.19,128.91,322.4Z" fill="#dbdadb"/><path d="M176.77,41.39c-.57,1.92-1.57,2.16-3,.76C174.54,40.93,175.64,41.1,176.77,41.39Z" fill="#e5cab8"/><path d="M119.82,294.73c0,1.68.7,3.46-.63,5l-.33-4Z" fill="#4e4e4f"/><path d="M479.22,322a7.29,7.29,0,0,1,4.26-.24c-1.13,1.25-2.75.37-4,.93A2.78,2.78,0,0,1,479.22,322Z" fill="#77777b"/><path d="M114.63,42c.15-1.3.29-2.6.44-3.91,1.14,1.09.61,2.55.86,3.83Z" fill="#dbdadb"/><path d="M146.65,245a2.39,2.39,0,0,1-.43,2.6A2.22,2.22,0,0,1,146.65,245Z" fill="#c69777"/><path d="M99.56,41.93c0,1-.81,1.15-1.59,1.25C98.17,42.34,98.86,42.13,99.56,41.93Z" fill="#dbdadb"/><path d="M333.68,51.94l-1-.48Z" fill="#e1c4b0"/><path d="M488.6,303.52a.39.39,0,0,1,0-.67l.29.51Z" fill="#d5ad8e"/><path d="M115.74,90.85c-.68.12-.89-.17-.69-.79Z" fill="#e1c4b0"/><path d="M125.84,461.59c6.46,4.65,13.84,5.24,21.38,4.45a30,30,0,0,1,14.58,2.21c14.42,5.72,28.95,4.69,43.46.32,5.24-1.57,8.36-5.76,11.58-9.79,3.62,1.79,3.57,7-.26,10.2-5,4.13-11.06,6.14-17.31,7.25-12.83,2.29-25.66,3.53-38.43-.77-5.8-1.95-11.86-.95-17.83-.58-1.66.1-3.31.38-5,.37C127.28,475.17,124.46,472,125.84,461.59Z" fill="#4e4e4f"/><path d="M274.81,288.88c1,1.34,2.4.89,3.66.89q68.25,0,136.5,0a33.73,33.73,0,0,0,3.46-.33c0,.35,0,.69.05,1-6.8.07-13.61.2-20.42.2q-59.56,0-119.13,0c-3.32,0-5.91.63-8.48,3-5.09,4.67-11.43,5.94-18.14,4.77-13.4-2.35-26.79-4.75-40.14-7.37-5.81-1.14-11.61.37-17.37-.57-1.14-9.84,2.42-19,3.93-28.51l5.18-.26c5.16,1.83,7.76-.12,8.32-5.43a15.48,15.48,0,0,1,1.36-3.68c.19,1.78.12,3.5,1.47,5.1,9.55,11.32,19.76,22,33.05,28.84,7.56,3.91,15.59,7.91,24.16,1.92A1.59,1.59,0,0,1,274.81,288.88Z" fill="#c69777"/><path d="M377.69,102.07l0,1.81A44.71,44.71,0,0,1,363.56,137c2.92-9.34,5.49-19.19,4.29-28.62C366.72,99.4,372,93.93,374.55,87,378,91.5,377.2,96.92,377.69,102.07Z" fill="#e1c4b0"/><path d="M203.91,261.69l-5.18.26-24.54-3.46Q179,221.21,183.75,184c1.25-9.7,2.38-19.42,3.82-29.08,2.22-14.88,11.15-23.76,26-25.88,5.72-.82,11.34-2.54,17.21-2.16,1.84,3.82,2.8,7.8,2,12.06-4.83,1.16-9.78,2-14.47,3.56-7.49,2.53-9.39,5.47-9.48,13.27-.28,25.59-1,51.17-2.28,76.73C206,242.21,205.75,252,203.91,261.69Z" fill="#2dafb7"/><path d="M333.35,155.17l-3.76-.38c-.27-.48-.6-.58-1-.12l-5,.28c-.66-6.72-2.55-13.3-2.14-20.14.66-6.05,1.17-12.13,2-18.16.59-4.09.13-7-4.74-7.82-7-1.12-12.32-6.21-19.07-7.92.07-2.51-3.2-3.31-3-5.87,7.85.47,15.22,1.46,22.25,6.22A45.81,45.81,0,0,0,345.22,109a26.72,26.72,0,0,1,3,.13c.26,0,.48.35,1.11.85a20.43,20.43,0,0,1-12.17,2.81c-3.77-.19-5.17,1.58-5.4,4.76-.67,9.06-1.6,18.12-1.14,27.24.27,5.39,3.68,8.11,8.06,10.15l-3.8.24Z" fill="#c69777"/><path d="M188.71,301.68l282.1,0c5.83,0,6.61.81,6.63,6.66,0,4.49,0,9,0,13.47l-62.51.21c-16.6-.09-33.21-.24-49.81-.24-23.58,0-47.16.11-70.74.18l-42.29.11-70.64.2c-3.48-1.51-.81-4.37-1.42-6.5Q184.36,308.72,188.71,301.68Z" fill="#4e4e4f"/><path d="M180,315.75c.61,2.13-2.06,5,1.43,6.5-1.23.8-2.49,1.41-2.69,3.25-.51,4.74-1.25,9.46-1.9,14.18-3.8,24.32-7.9,48.59-10.2,73.12-.68,7.23-1.11,14.48-1.65,21.72-1.74,1.5-3.66,2.77-5.06,4.68a19.44,19.44,0,0,1-21.79,7c-4.11-1.28-4.62-4.14-4.33-7.67,1.66-4.85.06-10.08,1.75-14.92,2.34-2,1.66-5,2-7.41,2.19-17.83,5.12-35.57,6.29-53.52A111.17,111.17,0,0,1,157.16,316a53.76,53.76,0,0,1,12.73-14.9c2.94-2.51,5-1.59,5.7,1.89s2.87,6.39,2.21,10.08A2.14,2.14,0,0,0,180,315.75Z" fill="#dcbaa1"/><path d="M143.93,290.22h-2.32c-5.56-.74-11.13-1.14-16.67.24l-2.09.4c.25-3.2,2.25-5.38,4.46-7.35,1.41-1.25,2.69-2.44,2.48-4.51l19.91,1.77C149.82,285.18,147.36,288,143.93,290.22Z" fill="#fff"/><path d="M294.34,321.94c23.58-.07,47.16-.18,70.74-.18,16.6,0,33.21.15,49.81.24-1.06,5.81-.1,11.69-.57,17.52l-134.64.1c3-5.46,8.31-8.74,12.2-13.35C293,325,295.22,324.33,294.34,321.94Z" fill="#77777b"/><path d="M321.46,134.81c-.41,6.84,1.48,13.42,2.14,20.14-8.89,5.7-18.8,6.44-29,6a39.27,39.27,0,0,0-15.78-17.83c-4.53-2.84-9.6-1.42-10.1,2.61-.44,3.6-.13,7.09,2.58,10.16a16.37,16.37,0,0,1,4.34,8.13l-3,0c-3.26-4.13-4.56-9.38-7.87-13.53-2.69-3.37-6.25-3.12-9.51-2.37-3.08.71-3.81,3.74-3.66,6.78.08,1.81.31,3.58.57,5.38.48,3.28,3,6,2.43,9.5a12,12,0,0,1-4.92,1.94c.59-12.38-1.3-24.52-3.58-36.62,7.27-1.34,14.48-2.86,21.92-3.33a23.57,23.57,0,0,1,15.78,4.35c11.32,8.2,22.4,6.84,33.49-.06A9.73,9.73,0,0,1,321.46,134.81Z" fill="#d5ad8e"/><path d="M203.91,261.69c1.84-9.66,2-19.48,2.54-29.23,1.3-25.56,2-51.14,2.28-76.73.09-7.8,2-10.74,9.48-13.27,4.69-1.58,9.64-2.4,14.47-3.56,2.37,7.83.61,15.62-.31,23.39-.69,5.84-1.75,11.65-1.69,17.57-2.44,14.3-5.85,28.39-9.21,42.5-1.83,7.68-5.17,15-5.64,23-1.55,2.16-1.83,4.71-2.24,7.22a15.48,15.48,0,0,0-1.36,3.68C211.67,261.57,209.07,263.52,203.91,261.69Z" fill="#3c3e3d"/><path d="M215.83,245.36c.47-8,3.81-15.32,5.64-23,3.36-14.11,6.77-28.2,9.21-42.5,4.78-1.36,9-4.23,14-5,7.54,15.76,13.9,32,20.64,48.13,1.53,3.67-2.1,4.38-2.8,6.68C248.49,239.44,232.76,244.19,215.83,245.36Z" fill="#242323"/><path d="M89.85,27.07c.33-.53.66-.53,1,0Z" fill="#343333"/><path d="M124.94,290.47c5.54-1.38,11.11-1,16.67-.24C136.06,291,130.5,290.57,124.94,290.47Z" fill="#d5ad8e"/><path d="M294.34,321.94c.88,2.39-1.39,3.07-2.46,4.33-3.89,4.61-9.23,7.89-12.2,13.35l-102.85.06c.65-4.72,1.39-9.44,1.9-14.18.2-1.84,1.46-2.45,2.69-3.25l70.63-.2Z" fill="#dbdadb"/><path d="M215.83,245.36c16.93-1.17,32.66-5.92,46.71-15.67,2.64,1,2.57,3.75,3.41,5.76,4.34,10.43,8.86,20.82,11.86,31.73,2.07,7.54,2.28,15.06-3,21.7a1.59,1.59,0,0,0-2.54-.44c-8.57,6-16.6,2-24.16-1.92-13.29-6.88-23.5-17.52-33.05-28.84-1.35-1.6-1.28-3.32-1.47-5.1C214,250.07,214.28,247.52,215.83,245.36Z" fill="#d5ad8e"/><path d="M275.68,164a16.37,16.37,0,0,0-4.34-8.13c-2.71-3.07-3-6.56-2.58-10.16.5-4,5.57-5.45,10.1-2.61A39.27,39.27,0,0,1,294.64,161,23.83,23.83,0,0,1,275.68,164Z" fill="#dcbaa1"/><path d="M254.66,169.83c.56-3.49-1.95-6.22-2.43-9.5-.26-1.8-.49-3.57-.57-5.38-.15-3,.58-6.07,3.66-6.78,3.26-.75,6.82-1,9.51,2.37,3.31,4.15,4.61,9.4,7.87,13.53C267.56,168.71,261,169.06,254.66,169.83Z" fill="#dcbaa1"/><path d="M328.59,154.67c.4-.46.73-.36,1,.12Z" fill="#d5ad8e"/><path d="M333.35,155.17l1.5,0A.92.92,0,0,1,333.35,155.17Z" fill="#dcbaa1"/></g></g></svg>