<svg xmlns="http://www.w3.org/2000/svg" viewBox="0 0 340.3 656.51"><title>ex_d2_7_2</title><g id="Layer_2" data-name="Layer 2"><g id="Layer_1-2" data-name="Layer 1"><path d="M250.79,598.38c8.36.61,21.14,10.54,23.59,18.32,2.3,7.31-3.33,16.71-12,21.35-9.53,5.12-19.68,8.65-29.92,11.62-8.49,2.47-17.45,3.55-26.28,4.53-15.65,1.73-31.41,3-47.13,1.92-12.81-.86-25.62-1.75-38.38-4.08a171.55,171.55,0,0,1-37.8-11.57,39.46,39.46,0,0,1-14.82-11.21c-4.09-4.92-4.46-10.66-1-15.69,5.27-7.69,12.85-12.64,21.9-15.17.43,2.74-1,4.54-2.84,6.36-4.46,4.45-7.08,9.66-5.89,16.21-.63,5.59,1.9,8.83,8.64,10.23a44,44,0,0,0,20.63-.69c5.75-1.54,9.06-5.14,9.49-11.19l-.08.11c.78-.34.76-1.06.84-1.74,1.33-2.76,1.59-5.76,1.89-8.74.56-7,1-14.08,4.23-20.55,5.94-1.53,12-1.8,18.1-2.27,10.19-.78,20.39-2,30.59-1.58,13.32.6,26.6,2,39.89,3,2.73,5.31,2.54,11.38,4.35,16.93.24,4.45-.9,9.15,2.27,13.1-.14,6.1,2.62,10.62,8.24,12.46a40.73,40.73,0,0,0,23,.88c4.64-1.17,8.68-3.58,8.42-9.45a20.4,20.4,0,0,0-3.2-12.49C255.35,605.42,251.5,602.84,250.79,598.38Z" fill="#ebece6"/><path d="M199.44,42.15c1.36,0,2.62-.06,3.26,1.57,1.46,3.68-.77,13.81-4.27,15.53C194,61.42,193.66,65.14,193,69a14.57,14.57,0,0,0-.11,2c-.39,13.27-.38,13.27,10.68,20.63a34,34,0,0,1,3.69,2.54c9.31,8.22,20.25,11.11,32.54,12.21,11.84,1.06,20,8.94,24.69,20-1.46,2.65-.48,5.5-.65,8.25a14.71,14.71,0,0,1-10.48,12.85c-6,1.86-10.89-1.73-16.33-2.5-.69-3-.72-6.21-2.84-9.72,1.35,11.12-4.62,17-12.36,21.87-11.39,1.84-22.92,1.52-34.25.46-10.35-1-15.67-8.43-15.7-19,0-5,.23-10-.07-15-.33-5.6.73-10.53,5.07-14.39a6.82,6.82,0,0,0,5.8-2.89c-2.92.08-4.67.85-5.85,2.83-2.38-.59-3.74,2-5.93,1.94v-2.87c2.66-5.67,5.61-11.24,7.89-17.07,1.84-4.73,5.43-8.67,6.14-13.88l2.17-3.8c.18-.26.56-.64.5-.74-.38-.56-.77-.33-1.1.12-3.39.43-5.33,3.66-8.55,4.42l-1.07.63-7-.1q0-30.35,0-60.7c0-1.94-.42-4.07,1.73-5.35a34.37,34.37,0,0,1,18,4.94c1.22.77,3.16,1.46,3,3-.7,7.68,3.63,14.37,4.06,21.77C196.91,45.59,198.55,41.86,199.44,42.15Z" fill="#dcbaa0"/><path d="M240.77,325.87c6,6.51,8.69,14.08,7,23-3.4,9.76-11.08,15.22-19.81,19.6-12,3.63-24.07,4.64-36.23.54-2.27-.76-4.05-.47-3.22,2.78a10.24,10.24,0,0,1-.11,3,7.12,7.12,0,0,1-5.17-1.33c-3.41-2.5-6.75-5.1-10.11-7.66a19.2,19.2,0,0,0-3-6.1c-1.42-3.24-.58-6.89-1.62-10.83-3.43,9.74-10.44,14.95-18.66,18.94-11.31,4.3-22.85,5.39-34.57,2-3.62-1.05-6.15-1.37-5.59,3.65.11,1-.88,1.27-1.67,1.55-4.62-1.7-8.35-4.7-11.85-8.05C86.5,355,87,336.86,97.52,326c1.77-1.81,2.24-2.66.11-4.49a21.67,21.67,0,0,1-7.91-18.95q0-4.35,0-8.72l-.33-1.69L93,284c2.7-3.11,4.92-6.73,8.94-8.44a21.13,21.13,0,0,1-4.14,8.87c-5.84,8.08-5,16.71,2,23.87,13.91,14.17,45,14.24,58.89.13,7.48-7.63,8-16.49,1.29-25a10,10,0,0,1-2.44-6.34c7.12,2,7.82,9.29,12.15,14.65a28.22,28.22,0,0,1,1-8.76c3.91-.77,5-5.88,9.33-6a10.67,10.67,0,0,1-2.68,7.15c-5.77,7.47-5,16.76,1.47,23.49,13.45,13.9,41.93,15.42,56.79,3,9.65-8.06,11-17.36,3.63-27.43-1.74-2.38-2.31-5.09-3.54-7.6,4.79,2.07,7.62,6.09,10.27,10.3l2.88,9c-2.13,2.41-.48,5.36-1.13,8-3.6,9.16-11.1,14.31-19.28,18.78-11.12,3.26-22.31,4.66-33.69,1.31-6-1.76-6-1.74-6.16,4.71-1.52.23-3.11.3-4.3-.73-4-3.41-5.89-.79-8.37,2.95H187.6c2.19,5.38,4.64,10.5,11.27,11.56l.93.38c2.79,5.23,6.16,7,11.49,5.81,4.16-.92,6.09-3.5,5.54-7.8l7-3.29c4,3.48,9.31,4.75,13.71,7.62,2.28,1.48,5,4.56,7.26,2.95,2.52-1.83.87-5.85.88-8.9,0-1.07-.84-2.12-1.19-3.22-1.38-4.3-5.2-6.75-7.67-10.23C238.89,322.28,239.48,325.36,240.77,325.87ZM138,341.76c6.62-1.8,9.84-6.49,11-12.91l0-.33,1.78-.15c3.48,3,7.6.77,11.37,1.43,5.16-.32,3.93,5.67,7.72,7.94,0-8.42,0-16.17,0-23.91,0-1.45.39-3.05-1.16-4.08.09-2.5.69-5-.22-8.2A27.78,27.78,0,0,1,158,315.9c-2.94,2.1-6.06,4-9.1,5.93-1.76.34-3.57.55-5.29,1.05a54.39,54.39,0,0,1-27,.58c-7-1.49-6.94-1.62-7.51,5-1.66-.68-3.34-1.31-5-2.06a4.21,4.21,0,0,0-4.22,0c-5.68,3.29-9.25,13.67-7.14,20.13.75,2.29,1.38,2.06,3,.92,5.53-3.87,11.19-7.55,17.53-10,2.36,1.45,4.54,3.27,7.47,3.53.67,4.8,3.87,6.72,8.28,6.79C133.32,347.82,137,346.73,138,341.76Z" fill="#333"/><path d="M10.76,339.4c3.45-2.81,5.82-5.18,8.6-6.9,2.94-1.82,2.67-3.36,1-6C11.6,313.05,4.91,298.65,2,282.73c-5.66-30.39,1.14-58,18.91-83a13.8,13.8,0,0,1,2.45-1.79,106,106,0,0,0-4.44,35.78c.93,20.65,7.72,39.24,19.41,56.17a144.55,144.55,0,0,0,11.13,14c2.17,2.45,4.16,2.82,6.75.47s5.25-4,7.86-6.1c1.91-1.51,2.94-1.38,2.93,1.31q-.06,25.71-.1,51.41c0,2.29-1,2.91-3.14,2.35C46.39,348.76,29.06,344.21,10.76,339.4Z" fill="#f8bf7a"/><path d="M328.44,339.34c-5.78,2.53-12,3.42-18,5-10.91,2.91-21.9,5.54-32.77,8.59-3.4,1-4,0-4-3.1.09-14.14,0-28.29.07-42.43,0-3.37-1.56-6.87.75-10.47,3.64,2.71,7.3,5.23,10.72,8.05,1.87,1.55,3.05,1.91,4.9-.12,19.81-21.85,31.65-47,31.52-76.93a96.73,96.73,0,0,0-2.86-23.18c-.5-2-1.38-4-.91-7.33,2.77,4.08,5.27,7.32,7.29,10.83,9.14,15.81,14.59,32.83,15.12,51.1.66,22.36-5.73,42.95-17.08,62.09-1.67,2.83-4.73,5.67-4.67,8.44s4.77,3.62,6.79,6C326.22,337.06,328,337.35,328.44,339.34Z" fill="#f8bf7a"/><path d="M246.06,285.86c-2.65-4.21-5.48-8.23-10.27-10.3-.2-2.29-2.92-3.2-3-5.53,2.48-7.71,5.21-15.35,7.39-23.14,2.41-8.63,6.76-16.1,12.1-23.17,1.85-2.45,4.79-4.19,5.32-7.57a6.35,6.35,0,0,0,3.07-1.51c3.68-2.55,4.36-4.53.42-8.06-9.57-8.57-15.54-19.79-20.46-31.43a27.5,27.5,0,0,1-.87-18.05c.88-3.29,2.52-3.64,5-2a53.78,53.78,0,0,0,18.05,8c4.53,10,8.74,20.13,13.73,29.88a43.45,43.45,0,0,0,9,12.28c1.1,1,2.5,3.1,3.31-.29,1.19,2.51,2.22,5.1,3.37,7.63,2.17,4.79,2.58,9.92-1,14.52-2.55-1.87-1.2-6.16-4.83-7.72a34.55,34.55,0,0,1-2,11.71c-4.93,15.35-14.1,28-24.86,39.75C254.89,275.73,251.73,281.91,246.06,285.86Z" fill="#dcbaa0"/><path d="M102,275.56c-4,1.71-6.24,5.33-8.94,8.44-1.91-.06-2.85-1.45-3.91-2.76-3.84-4.77-7.63-9.59-11.62-14.24-10.23-11.92-18.62-24.83-22.86-40.19-.67-2.42.16-5.22-1.74-7.76l-3.83,7.88c-3.81-4.94-2.4-10.16-.67-15.31A26.09,26.09,0,0,1,51.06,207c5.26-2.09,8.15-6.65,10.72-11.14C68,185.05,73.06,173.63,78,162.19c6.59-.21,11.84-3.88,17.26-6.91,3.43-1.92,5.06-.78,5.35,2.53.52,5.9,1.05,11.8-1.3,17.59A98,98,0,0,1,78.27,208c-2.79,2.82-1.88,4.4.62,6.22a7.31,7.31,0,0,0,4,1.74,4.57,4.57,0,0,0,1.67,3.93c13.68,13.41,16.7,31.7,22.38,48.78Q104.47,272.1,102,275.56Z" fill="#dcbaa0"/><path d="M235.46,400.85c-1,9.45.49,18.9.19,28.27-.43,13.92,2,27.45,3.53,41.11a122.87,122.87,0,0,1,.54,19.92c-1.31,27.07-2.33,54.15-2,81.26-1.63.34-3.15,1.29-4.92.93-.31-.52-.64-.54-1,0l-2.94-.18c-.79-14,.27-28.09.22-42.14,0-9.88,1-19.73-.15-29.68-2.15-18.92-8.57-35.95-20.66-50.74-2.15-2.63-3.52-6.14-7.37-7l0,0c-.06-.86-.31-1.59-1.25-1.85-5.25-7.92-7.38-16.87-8.64-26.11,7.31-.73,14.07-3.58,21-5.67,3.73-1.12,7.65-2,10.83-4.56Z" fill="#d6ad8f"/><path d="M102.67,566.54c.66-19.23-.37-38.43-1.49-57.61-1.23-20.89-1.1-41.68,3.28-62.25a18.51,18.51,0,0,0,.22-6.91c-1.38-8.48-.54-16.82,1.32-25.12,9.3-.22,17.68-4,26.33-6.76A2.09,2.09,0,0,0,134,406.2l4-.29c.37.45.68.35.94-.11l12-1c-1.69,13.64-3.75,27.17-11.94,38.82-10.36,6.79-15.7,17.57-20.62,28.11-5.69,12.19-7.58,25.55-7.4,39.11.14,11.13,0,22.27.06,33.41a132,132,0,0,0,.7,16.36c.5,3.74,2.08,8.3-1.71,11.69C105.37,573.11,102,572.33,102.67,566.54Z" fill="#d6ad8f"/><path d="M171.61,11.71c-2.15,1.28-1.73,3.41-1.73,5.35q0,30.35,0,60.71c-4.72,1-8.77-.38-12.53-3.26-1.52-1.16-3-2.7-5.23-2.6-.28-.28-.57-.68-.92-.13-.05.08.28.4.43.62l3.11,4a10.59,10.59,0,0,0,.47,2.42c3.85,8.45,7.67,16.91,11.7,25.28.79,1.66,1.54,3.78,4,4.06,0,1,0,1.92,0,2.87-2.68.59-4.55-1.85-7.06-1.9l0,0c-1-2.38-3.15-2-5.12-2-8.72-1.64-17.59-.34-26.31-1.13-9.85-.9-15,4.95-20,11.8-3.61,4.93-4.88,10.68-6.57,16.32l-1.9,3c-.5-.42-1.36-.77-1.44-1.26a160.71,160.71,0,0,1-2.46-22.94c-.07-2.59,1.75-4.19,4.33-4.69,1.94-.37,4-.44,4.56-3,6.13.58,11.28-1.52,15.79-5.61,1.17-1.07,2.34-2.39,4.18-2.45,6.15-.43,11.37-4,17.36-5.06,1.74-.31,1.42-2,1.5-3.27.13-1.92-.7-2.81-2.64-2.57a6.73,6.73,0,0,0,2-5.37c-.22-5.48-.24-11-.34-16.46-1.45-6.81-3.62-13.51-3-20.62-1.49-6.24,2.94-11.33,3.32-17.27.58-8.9,2.19-10.69,10.84-13.23A35.32,35.32,0,0,1,171.61,11.71Z" fill="#d6ad8f"/><path d="M232.8,572.34c1.77.36,3.29-.59,4.92-.93,2.76-1.6,4.44-.69,5,2.3.48,2.76,1.23,5.61,1,8.33-.54,6,3.38,10.23,5.16,15.29a1.92,1.92,0,0,0,2,1.06h0c.71,4.46,4.56,7,6.73,10.61a20.4,20.4,0,0,1,3.2,12.49c-2.52.69-4.16,3.41-7.14,3-7-.85-13.91,0-20.87.26-5.93-7-5.71-15.5-6.07-24a46,46,0,0,0-5-20c-1.18-2.21-3-4.39-2.83-7.24,2.91-3.79,6.77-.46,10.07-1.34l2.94.18Z" fill="#dad8eb"/><path d="M102.67,566.54c-.64,5.79,2.7,6.57,7.28,5.78,2.37-.29,4.74-.64,7.11-.84,2-.17,4-.08,4,2.75l-2.07,5c-3.46,8.4-6.09,17-6.07,26.2,0,6.38.92,13-4.79,17.8-.27.23-.12.95-.17,1.44-7.36-.07-14.7-.76-22.07-.28-2.41.15-4.28-1.47-5.69-3.42-1.19-6.55,1.43-11.76,5.89-16.21,1.83-1.82,3.27-3.62,2.84-6.36,5.93-4.31,7.14-10.84,7.91-17.42.5-4.27-1-9.15,4.67-11.32C102.22,569.4,102.31,567.62,102.67,566.54Z" fill="#dad8eb"/><path d="M82.92,216a7.31,7.31,0,0,1-4-1.74c-2.5-1.82-3.41-3.4-.62-6.22a98,98,0,0,0,21.06-32.6c2.35-5.79,1.82-11.69,1.3-17.59-.29-3.31-1.92-4.45-5.35-2.53-5.42,3-10.67,6.7-17.26,6.91-4.68.4-3-4.78-5.5-6.28l.33-2.68c-.09-.68-.19-1.37-.28-2.06-.73-7.53-.38-15,2.34-22.13,1.51,1.06.91,2.69,1.11,4.11,1.24,9,5.11,13.45,13.51,14.57,5.07.68,9.6-1.8,14.11-3.83A164.39,164.39,0,0,0,108.92,175c-1,.65-.82,1.73-1.1,2.66A79.31,79.31,0,0,1,82.92,216Z" fill="#c69575"/><path d="M262.8,163a53.78,53.78,0,0,1-18.05-8c-2.51-1.61-4.15-1.26-5,2a27.5,27.5,0,0,0,.87,18.05c4.92,11.64,10.89,22.86,20.46,31.43,3.94,3.53,3.26,5.51-.42,8.06a6.35,6.35,0,0,1-3.07,1.51c-11.82-10.32-20.47-22.72-24.87-37.91-.35-1.22-.45-2.65-1.9-3.25.69-2.68,1.5-5.34,2-8,1.46-7.33,2.81-14.68,4.21-22,5.44.77,10.35,4.36,16.33,2.5a14.71,14.71,0,0,0,10.48-12.85c.17-2.75-.81-5.6.65-8.25,3.59,7.92,3.65,16.29,3.14,24.73-.9.63-.95,1.29-.09,2,0,.68,0,1.36.05,2.05C264.79,157,267.08,162,262.8,163Z" fill="#c69575"/><path d="M103.63,143.89c-4.5,2-9,4.51-14.1,3.83-8.4-1.12-12.27-5.57-13.51-14.57-.2-1.42.4-3.05-1.11-4.11a1.81,1.81,0,0,1,.72-1.95c.52-.16,1.24-.23.38-.94A34.18,34.18,0,0,1,109,105.24c-.52,2.53-2.62,2.6-4.56,3-2.58.5-4.4,2.1-4.33,4.69a160.71,160.71,0,0,0,2.46,22.94c.08.49.94.84,1.44,1.26Z" fill="#dcbaa0"/><path d="M171.61,11.71a35.32,35.32,0,0,0-13.67,1.62c-8.65,2.54-10.26,4.33-10.84,13.23-.38,5.94-4.81,11-3.32,17.27-1.52-.21-2.06-1.53-2.87-2.54,0-4.15.24-8.32,0-12.46C139.68,7.47,160.75-3,176.69.73c14.7,3.41,22.74,13.52,22.71,28.46,0,4.32,0,8.64,0,13-.89-.29-2.53,3.44-2.78-.7-.43-7.4-4.76-14.09-4.06-21.77.14-1.57-1.8-2.26-3-3A34.37,34.37,0,0,0,171.61,11.71Z" fill="#333"/><path d="M235.46,400.85l-12.62,3.51-2.73.19q.4-13.37.82-26.74c2.7-.45,5.36-1,7.54-2.87,2.39,0,4.18-1.57,6.25-2.41,3.47-1.4,5.22-5.37,9.2-5.84.57,7.39.85,14.82,1.82,22.15.65,4.92-1.07,7.76-5.46,9.52C238.61,399,237.07,400,235.46,400.85Z" fill="#32b0b8"/><path d="M96.2,366.87c3.5,3.35,7.23,6.35,11.85,8.05l11,3.85,1.41,25.78c-5.42-.35-10.36-2.73-15.63-3.72-9.65-2.66-11.73-9.12-9.87-18.25C96,377.47,95.83,372.12,96.2,366.87Z" fill="#32b0b8"/><path d="M246.06,285.86c5.67-3.95,8.83-10.13,13.38-15.08,10.76-11.71,19.93-24.4,24.86-39.75a34.55,34.55,0,0,0,2-11.71c3.63,1.56,2.28,5.85,4.83,7.72-3.51,17.73-12.6,32.64-23.82,46.39-6,7.3-12.25,14.32-18.39,21.46Z" fill="#c69575"/><path d="M49.08,226.93l3.83-7.88c1.9,2.54,1.07,5.34,1.74,7.76,4.24,15.36,12.63,28.27,22.86,40.19,4,4.65,7.78,9.47,11.62,14.24,1.06,1.31,2,2.7,3.91,2.76l-3.61,8.19c-16.88-18-33-36.52-39.44-61.24l-.63-2C49.26,228.25,49.17,227.59,49.08,226.93Z" fill="#c69575"/><path d="M72.52,155.91c2.51,1.5.82,6.68,5.5,6.28-5,11.44-10,22.86-16.24,33.67-2.57,4.49-5.46,9-10.72,11.14C53,187.76,60.65,171,72.52,155.91Z" fill="#d6ad8f"/><path d="M262.8,163c4.28-1,2-6,4.8-7.9,11,14.93,19.28,31,21.21,49.77-.81,3.39-2.21,1.32-3.31.29a43.45,43.45,0,0,1-9-12.28C271.54,183.15,267.33,173,262.8,163Z" fill="#d6ad8f"/><path d="M104.85,400.83c5.27,1,10.21,3.37,15.63,3.73,4.36,1.61,9,.68,13.48,1.64a2.09,2.09,0,0,1-1.63,1.69c-8.65,2.73-17,6.54-26.33,6.76A66.73,66.73,0,0,1,104.85,400.83Z" fill="#b47e58"/><path d="M228.53,321.66c8.18-4.47,15.68-9.62,19.28-18.78,2.82,6.92-1.41,12-5,16.88a10.64,10.64,0,0,0-2,6.11c-1.29-.51-1.88-3.59-4-1.09l-8,4.16Z" fill="#e7e7e7"/><path d="M243.92,366.69c-4,.47-5.73,4.44-9.2,5.84-2.07.84-3.86,2.39-6.25,2.4-.05-2.17.48-4.39-.46-6.5,8.73-4.38,16.41-9.84,19.81-19.6C250,355.53,246.37,361,243.92,366.69Z" fill="#e7e7e7"/><path d="M140.91,41.29c.81,1,1.35,2.33,2.87,2.54-.65,7.11,1.52,13.81,3,20.62-.76-1-1.29-2.55-2.31-3-6.72-3.24-6.7-9.58-7.33-15.55C136.84,43.31,137.83,41.3,140.91,41.29Z" fill="#dcbaa0"/><path d="M145.14,86.28c1.94-.24,2.77.65,2.64,2.57-.08,1.3.24,3-1.5,3.27-6,1-11.21,4.63-17.36,5.06Z" fill="#b47e58"/><path d="M89.76,293.88q0,4.37,0,8.72A13.36,13.36,0,0,1,89.76,293.88Z" fill="#c69575"/><path d="M250.8,598.39a1.92,1.92,0,0,1-2-1.06A2.11,2.11,0,0,1,250.8,598.39Z" fill="#ebece6"/><path d="M72.57,151.17c.09.69.19,1.38.28,2.06A1.53,1.53,0,0,1,72.57,151.17Z" fill="#d6ad8f"/><path d="M267.55,153.07c-.86-.71-.81-1.37.09-2Z" fill="#d6ad8f"/><path d="M49.36,228.9l.63,2A1.58,1.58,0,0,1,49.36,228.9Z" fill="#dcbaa0"/><path d="M76,126.15c.86.71.14.78-.38.94C75.75,126.78,75.88,126.46,76,126.15Z" fill="#c69575"/><path d="M124.67,567.55c1.06,3,3,5.75,2.11,9.18-7.4,9.83-8.29,20.7-5.14,32.22-.3,3-.56,6-1.89,8.74a1.47,1.47,0,0,0-.84,1.74l.08-.11c-3.54,2.06-6,6.26-11,5.35.05-.49-.1-1.21.17-1.44,5.71-4.84,4.81-11.42,4.79-17.8,0-9.2,2.61-17.8,6.07-26.2l2.07-5C125.14,573.54,123.08,569.57,124.67,567.55Z" fill="#c5c2dc"/><path d="M212.91,577.52c.48-2.57-.14-5.57,2.76-7.22,1.4.71.82,3.38,3.14,3.18-.21,2.85,1.65,5,2.83,7.24a46,46,0,0,1,5,20c.36,8.55.14,17,6.07,24-5.54.3-9-2.88-11.64-7.19-3.17-4-2-8.65-2.27-13.1,2.56-5.93,1.69-11.94-.24-17.7C217.42,583.4,217,579.28,212.91,577.52Z" fill="#c5c2dc"/><path d="M221.07,617.59c2.69,4.31,6.1,7.49,11.64,7.19,7-.27,13.9-1.11,20.87-.26,3,.37,4.62-2.35,7.14-3,.26,5.87-3.78,8.28-8.42,9.45a40.73,40.73,0,0,1-23-.88C223.69,628.21,220.93,623.69,221.07,617.59Z" fill="#3d3f3e"/><path d="M108,624.67c5,.91,7.46-3.29,11-5.35-.43,6-3.74,9.65-9.49,11.19a44,44,0,0,1-20.63.69c-6.74-1.4-9.27-4.64-8.64-10.23,1.41,1.95,3.28,3.57,5.69,3.42C93.29,623.91,100.63,624.6,108,624.67Z" fill="#3d3f3e"/><path d="M121.64,609c-3.15-11.52-2.26-22.39,5.14-32.22l.69,1.74c0,1.29-.08,2.57-.11,3.86-.35,2.06-1.79,3.85-1.49,6.07C122.63,594.87,122.2,601.92,121.64,609Z" fill="#575656"/><path d="M212.91,577.52c4,1.76,4.51,5.88,5.65,9.27,1.93,5.76,2.8,11.77.24,17.7-1.81-5.55-1.62-11.62-4.35-16.93C213.38,584.3,212.51,581,212.91,577.52Z" fill="#3d3f3e"/><path d="M118.91,619.43a1.47,1.47,0,0,1,.84-1.74C119.67,618.37,119.69,619.09,118.91,619.43Z" fill="#3d3f3e"/><path d="M163.85,109.15c2.51,0,4.38,2.49,7.06,1.9,2.19,0,3.55-2.53,5.93-1.94l0,.06c-4.34,3.86-5.4,8.79-5.07,14.39.3,5,.06,10,.07,15,0,10.6,5.35,18.07,15.7,19,11.33,1.06,22.86,1.38,34.25-.46,6.59,4.53,4.56,11.42,5.09,17.73.34,4.12-2.48,8.06-.35,12.15q-4.86,11-9.73,22c-.32-.55-.9-1.09-.92-1.65A174.89,174.89,0,0,0,212.69,183c-.52-2.86-.58-6.28-3.74-8.06,0-1.64-.62-2.49-2.5-2.95a131.32,131.32,0,0,1-30.57-11.94c-1.3-1.91-2.73-3.74-3.87-5.74-1.33-2.34-2.22-2.21-3.88-.15-2.8,3.47-5.81,6.73-9.93,8.85-6.95,3.59-14.32,6-21.78,8.17-1.74.51-4.25.27-4.48,3.06-.19,2.36-.21,4.73,2,6.31a10.33,10.33,0,0,0,8.83,2c6.7-1.77,13.33-3.81,20-5.57a11.8,11.8,0,0,0,7.08-5,11.26,11.26,0,0,0,7,5c5.05,1.45,10.26,2.47,15.15,4.34,5.12,2,9.88,2.2,14.73-.41.74,4.17-3,6.54-4,10-1.8,0-3.61.37-5.28-.8-5-3.52-10.87-4.72-16.7-5.92-4-.82-7.91-.49-10.88,2.93-2.57-2.77-5.74-3.58-9.43-3.13-5.64.68-11.26,2.12-15.88,5.08-2.71,1.73-7.07.38-8.25,4.27a15.69,15.69,0,0,0,.55,10.22c.7,1.86,1.83,3.38,3.87,3.32,10.51-.28,20.54-2.26,29.11-8.94,5,6,12.87,5.17,19.28,7.83a15.91,15.91,0,0,0,14.66-.83c0,3-3.37,4.76-3,7.91a12.89,12.89,0,0,1-10.07,0,99.67,99.67,0,0,0-12.34-3.5c-2.6-.56-5.61-1.64-7.58,1.53-3.73-2.49-7.52-1.91-11.71-1.05-5,1-9.36,4.19-14.63,4.12-6.6-.1-6.53-.09-6.63,6.42a20.63,20.63,0,0,0,1.06,7.29q2.51,9.16,5,18.34c.27-5.52,1.24-10.54,4-15.14,7.38-.59,15.2,2.12,22-3,2.35,2.44,5.24,3.22,8.56,3.13,4.48-.11,9,0,13.45,0,1.81,3.33,3.43,6.66,3,10.69-.16,1.68-.73,3.63.83,5.12-1.47,4-3.07,7.87-3,12.2-7.49,2.25-15.34,1.57-22.94,2.88-4.32.41-8.52-.4-12.75-1.18-8.1-1.48-16.42-1.84-24.19-4.94-2.44-8-7.29-14.78-11.24-22,.28-2.31.5-4.62.84-6.92,1.35-9.14,1.67-18-3.14-26.57-2.89-5.16-5.73-10.49-7.35-16.29,2.51-1.31,1.78-3.45,1.6-5.61-.59-7.36-3.36-15.22,4.29-20.92.09-.07.06-.31.09-.47,11,2,22.16,1.27,33.18.76,10.59-.49,16.65-8,16.68-18.45,0-4.8-.21-9.62.06-14.41C168.26,119.14,167.72,113.75,163.85,109.15Z" fill="#c69575"/><path d="M170.9,108.18c-2.41-.28-3.16-2.4-4-4.06-4-8.37-7.85-16.83-11.7-25.28a10.59,10.59,0,0,1-.47-2.42,6.8,6.8,0,0,1,3.42,2.77c3.17,4,7.23,4.81,12.2,5.27,6.83.64,10.16-3.93,14.53-7.23-.71,5.21-4.3,9.15-6.14,13.88C176.51,96.94,173.56,102.51,170.9,108.18Z" fill="#c69575"/><path d="M226.58,187c-2.13-4.09.69-8,.35-12.15-.53-6.31,1.5-13.2-5.09-17.73,7.74-4.85,13.71-10.75,12.36-21.87,2.12,3.51,2.15,6.72,2.84,9.72-1.4,7.33-2.75,14.68-4.21,22-.54,2.7-1.35,5.36-2,8C229.79,179.12,228.85,183.28,226.58,187Z" fill="#b47e58"/><path d="M184.93,77.23c-4.37,3.3-7.7,7.87-14.53,7.23-5-.46-9-1.29-12.2-5.27a6.8,6.8,0,0,0-3.42-2.77l-3.11-4c.17-.16.33-.33.49-.49,2.22-.1,3.71,1.44,5.23,2.6,3.76,2.88,7.81,4.24,12.53,3.26l7,.1,1.07-.64c3.22-.76,5.16-4,8.55-4.42.19.21.39.42.6.62Z" fill="#b47e58"/><path d="M176.84,109.11c1.18-2,2.93-2.75,5.85-2.83a6.82,6.82,0,0,1-5.8,2.89Z" fill="#c69575"/><path d="M186.5,72.81c.33-.45.72-.68,1.1-.12.06.1-.32.48-.5.74C186.89,73.23,186.69,73,186.5,72.81Z" fill="#b47e58"/><path d="M178,77.23l-1.07.64Z" fill="#d6ad8f"/><path d="M232.75,270c.12,2.33,2.84,3.24,3,5.53,1.23,2.51,1.8,5.22,3.54,7.6,7.36,10.07,6,19.37-3.63,27.43-14.86,12.39-43.34,10.87-56.79-3-6.51-6.73-7.24-16-1.47-23.49a10.67,10.67,0,0,0,2.68-7.15c7.54-10.9,18-15.64,31.14-15,6.11.29,11.46,3,17.06,4.93C229.63,268.15,230.69,269.79,232.75,270Zm-23.94,16.83c3.54,0,6.42-1.22,8.2-4.41.33-.61,1-1.61-.24-2-.47-.15-1.16.39-1.76.62a22.07,22.07,0,0,0-.31-3.92,4.3,4.3,0,0,0-4.39-3.31c-2.46-.11-5-.46-6.76,2-1.45,2.07-.55,3.72,1,5.22-1.67.51-2.78-1.16-4.6-1.47C200.8,285.05,204.06,286.88,208.81,286.86Zm14.6,18.54c8-.49,15-9.49,13.78-19.09-2.1,8.18-8.39,11.3-13.91,15.17-5.38.78-10.69,2.38-16.19,1.92-11.39-.95-21.37-4.49-27-16.91-.52,5.9.85,9.82,4,13.07,9,9.22,20.31,10.43,32.25,8.82C218.85,308.05,221.87,308.24,223.41,305.4Z" fill="#777"/><path d="M102,275.56q2.49-3.45,5-6.89c2.49-.37,4.1-2.13,5.83-3.69a30.48,30.48,0,0,0,3.34-.73q25.61-8.51,41.47,12.8a10,10,0,0,0,2.44,6.34c6.7,8.55,6.19,17.41-1.29,25-13.84,14.11-45,14-58.89-.13-7-7.16-7.87-15.79-2-23.87A21.13,21.13,0,0,0,102,275.56Zm27.3,11.31c3.27-.07,6.23-.87,7.92-4a9.28,9.28,0,0,0,.52-2.8l-2.83.8c.94-5-.73-7.08-5.67-7.1-5.47,0-6.58,1.65-5.21,7.94-1,.47-1.84-1.55-3.18-.11C122.21,285.69,125.47,286.7,129.28,286.87Zm14.77,18.79c8.77-2,14.68-9.85,13.39-18.44-2.46,7-7.74,10.58-13.55,13.63-6.39,1.68-12.73,3.11-19.51,2.2-10.47-1.42-18.86-5.65-24.08-17-.21,5.66.93,9.31,3.26,12.55C110.86,308.78,133.54,312.7,144.05,305.66Z" fill="#777"/><path d="M189,404.69a4.9,4.9,0,0,0-.89-.44c-10.38-2.74-10.44-2.73-11.85-13.37-1.11-8.38-2.06-16.77-3.07-25.16,3.36,2.56,6.7,5.16,10.11,7.66a7.12,7.12,0,0,0,5.17,1.33c10.36,5.92,21.42,4.5,32.48,3.1q-.42,13.38-.82,26.74C209.74,406.84,199.36,405.59,189,404.69Z" fill="#3d3f3e"/><path d="M157.61,277.05q-15.81-21.3-41.47-12.8a30.48,30.48,0,0,1-3.34.73,93,93,0,0,1,3.64-9.47c1-1.95.31-5,3.44-5.72,3.53,3.77,8.17,5.14,13,6,7.77,3.1,16.09,3.46,24.19,4.94,4.23.78,8.43,1.59,12.75,1.18.59,7-1.06,14.1.93,21a28.22,28.22,0,0,0-1,8.76C165.43,286.34,164.73,279,157.61,277.05Z" fill="#181818"/><path d="M170.79,282.94c-2-6.94-.34-14-.93-21,7.6-1.31,15.45-.63,22.94-2.88a46.39,46.39,0,0,0,14-3.06,28.86,28.86,0,0,0,13.91-6c3.84,5.05,5.08,11.26,7.56,16.91-5.6-1.91-10.95-4.64-17.06-4.93-13.13-.64-23.6,4.1-31.14,15C175.81,277.06,174.7,282.17,170.79,282.94Z" fill="#3d3f3e"/><path d="M109.16,328.49c.57-6.65.54-6.52,7.51-5a54.39,54.39,0,0,0,27-.58c1.72-.5,3.53-.71,5.29-1.05a13,13,0,0,1,.07,6.69l0,.33L137.75,332c-9.53,1.58-18.76.11-27.87-2.72Z" fill="#777"/><path d="M228.53,321.66l.27,7.28a1.24,1.24,0,0,1,0,.89c-9.9,1.48-19.74,3.88-29.87,2.09l-10.2-3.3a2.77,2.77,0,0,0,0-.95c.18-6.44.19-6.46,6.16-4.7C206.22,326.32,217.41,324.92,228.53,321.66Z" fill="#777"/><path d="M220.93,377.81c-11.06,1.4-22.12,2.82-32.48-3.1a10.24,10.24,0,0,0,.11-3c-.83-3.25.95-3.54,3.22-2.78,12.16,4.1,24.21,3.09,36.23-.54.94,2.11.41,4.33.46,6.5C226.29,376.79,223.63,377.36,220.93,377.81Z" fill="#777"/><path d="M119.08,378.77l-11-3.85c.79-.28,1.78-.55,1.67-1.55-.56-5,2-4.7,5.59-3.65,11.72,3.4,23.26,2.31,34.57-2v7.18a22.11,22.11,0,0,1-2.1,1.1C138.49,379.8,128.74,378.85,119.08,378.77Z" fill="#777"/><path d="M228.8,329.83a1.24,1.24,0,0,0,0-.89l8-4.16c2.47,3.48,6.29,5.93,7.67,10.23.35,1.1,1.2,2.15,1.19,3.22,0,3,1.64,7.07-.88,8.9-2.23,1.61-5-1.47-7.26-2.95-4.4-2.87-9.67-4.14-13.71-7.62C225.86,334.62,228.24,332.91,228.8,329.83Z" fill="#575656"/><path d="M109.16,328.49l.72.79c-1,3.65,2.05,5.55,3.47,8.16-6.34,2.45-12,6.13-17.53,10-1.61,1.14-2.24,1.37-3-.92-2.11-6.46,1.46-16.84,7.14-20.13a4.21,4.21,0,0,1,4.22,0C105.82,327.18,107.5,327.81,109.16,328.49Z" fill="#575656"/><path d="M113.35,337.44c-1.42-2.61-4.5-4.51-3.47-8.16,9.11,2.83,18.34,4.3,27.88,2.72l.15,8.82c-5.69,1.43-11.39.6-17.09.15C117.89,340.71,115.71,338.89,113.35,337.44Z" fill="#dcbaa0"/><path d="M228.8,329.83c-.56,3.08-2.94,4.79-5,6.73l-7,3.29a50.53,50.53,0,0,1-17,2l-.93-.38.06-9.54C209.06,333.71,218.9,331.31,228.8,329.83Z" fill="#dcbaa0"/><path d="M149.88,374.91v-7.18c8.22-4,15.23-9.2,18.66-18.94,1,3.94.2,7.59,1.62,10.83-2.29-.2-1.74,2.18-2.8,3.09-2-.82-2,1.19-2.72,2C160.51,369.28,156,373.28,149.88,374.91Z" fill="#e7e7e7"/><path d="M149,328.52a13,13,0,0,0-.07-6.69c3-2,6.16-3.83,9.1-5.93a27.78,27.78,0,0,0,10.45-14.35c.91,3.18.31,5.7.22,8.2-1.94,6.22-6.24,10.68-11,14.79l-6.9,3.83Z" fill="#e7e7e7"/><path d="M157.68,324.54c4.78-4.11,9.08-8.57,11-14.79,1.55,1,1.15,2.63,1.16,4.08,0,7.74,0,15.49,0,23.91-3.79-2.27-2.56-8.26-7.73-7.94C161.78,327.09,159.12,326.34,157.68,324.54Z" fill="#181818"/><path d="M199.8,341.84a50.53,50.53,0,0,0,17-2c.55,4.3-1.38,6.88-5.54,7.8C206,348.82,202.59,347.07,199.8,341.84Z" fill="#777"/><path d="M198.93,331.92l-.06,9.54c-6.63-1.06-9.08-6.18-11.27-11.56l1.13-1.28Z" fill="#c69575"/><path d="M120.82,341c5.7.45,11.4,1.28,17.09-.15,0,.31,0,.63,0,.94-.93,5-4.63,6.06-8.85,6C124.69,347.69,121.49,345.77,120.82,341Z" fill="#777"/><path d="M138,341.76c0-.31,0-.63,0-.94l-.15-8.82L149,328.85C147.79,335.27,144.57,340,138,341.76Z" fill="#c69575"/><path d="M157.68,324.54c1.44,1.8,4.1,2.55,4.46,5.26-3.76-.66-7.88,1.53-11.36-1.43Z" fill="#575656"/><path d="M188.73,328.62l-1.13,1.28H176c2.48-3.74,4.37-6.36,8.37-2.95,1.19,1,2.78,1,4.3.73A2.7,2.7,0,0,1,188.73,328.62Z" fill="#575656"/><path d="M218.81,573.48c-2.32.2-1.74-2.47-3.14-3.18-.21-10.62-2.23-21.06-3.35-31.59-.71-6.74-2.09-13.41-2.89-20.15-.93-7.88-5.41-14.51-7.34-22.08-3.48-13.62-2.91-27.3-1.88-41,.33-4.3.34-8.61.71-12.9,3.85.86,5.22,4.37,7.37,7,12.09,14.79,18.51,31.82,20.66,50.74,1.12,9.95.11,19.8.15,29.68.05,14-1,28.1-.22,42.14C225.58,573,221.72,569.69,218.81,573.48Z" fill="#dcbaa0"/><path d="M189,404.69c10.38.9,20.76,2.15,31.13-.14l2.73-.19c-3.18,2.53-7.1,3.44-10.83,4.56-6.94,2.09-13.7,4.94-21,5.67Q190,409.64,189,404.69Z" fill="#b47e58"/><path d="M200.89,442.55a2.21,2.21,0,0,1-1.25-1.85C200.58,441,200.83,441.69,200.89,442.55Z" fill="#dcbaa0"/><path d="M232.8,572.34l-1,0C232.16,571.8,232.49,571.82,232.8,572.34Z" fill="#dcbaa0"/><path d="M124.67,567.55c-1.59,2,.47,6-3.58,6.68,0-2.83-2-2.92-4-2.75-2.37.2-4.74.55-7.11.84,3.79-3.4,2.21-8,1.71-11.7a132,132,0,0,1-.7-16.36c-.1-11.14.08-22.28-.06-33.41-.18-13.56,1.71-26.92,7.4-39.11,4.92-10.54,10.26-21.32,20.62-28.11,2.59,23.31,4.34,46.55-6.41,68.62-2.68,5.5-2.41,11.61-3.29,17.43C127.32,542.25,126.14,554.92,124.67,567.55Z" fill="#dcbaa0"/><path d="M149.88,374.91c6.14-1.63,10.63-5.63,14.76-10.2.73-.81.74-2.82,2.72-2-1.41,11.35-3.07,22.66-4.1,34-.37,4.06-1.56,6-5.69,6.32-2.27.17-4.48,1.13-6.71,1.74l-12,1-.94.11-4,.29c-4.44-1-9.12,0-13.48-1.64l-1.41-25.79c9.67.08,19.42,1,28.71-2.76A22.11,22.11,0,0,0,149.88,374.91Z" fill="#181818"/><path d="M137.92,405.91l.94-.11C138.6,406.26,138.29,406.36,137.92,405.91Z" fill="#b47e58"/><path d="M163.85,109.15c3.87,4.6,4.41,10,4.08,15.73-.27,4.79-.05,9.61-.06,14.41,0,10.48-6.09,18-16.68,18.45-11,.51-22.16,1.26-33.18-.76-8.55-5.23-13.37-12.43-12.15-22.85,1.69-5.64,3-11.39,6.57-16.32,5-6.85,10.17-12.7,20-11.8,8.72.79,17.59-.51,26.31,1.13a6.17,6.17,0,0,0,5.12,2Z" fill="#dcbaa0"/><path d="M105.86,134.13c-1.22,10.42,3.6,17.62,12.15,22.85,0,.16,0,.4-.09.47-7.65,5.7-4.88,13.56-4.29,20.92.18,2.16.91,4.3-1.6,5.61a20.25,20.25,0,0,1-2.27-7.68,1.09,1.09,0,0,0-.83-1.25h0a164.39,164.39,0,0,1-5.28-31.15c.1-2.26.21-4.53.32-6.79Z" fill="#b47e58"/><path d="M163.88,109.17a6.17,6.17,0,0,1-5.12-2C160.73,107.15,162.85,106.79,163.88,109.17Z" fill="#c69575"/><path d="M151.67,72.4c-.15-.22-.48-.54-.43-.62.35-.55.64-.15.92.13C152,72.07,151.84,72.24,151.67,72.4Z" fill="#b47e58"/><path d="M127.36,582.33c0-1.29.07-2.57.11-3.86A3.18,3.18,0,0,1,127.36,582.33Z" fill="#c5c2dc"/><path d="M216.85,209c-.77,8.74,1.19,17.29,1.82,25.93-3-1.09-2.16,1.92-2.63,2.88-3,6.09-7.12,11.6-9.19,18.14a46.39,46.39,0,0,1-14,3.06c-.09-4.33,1.51-8.25,3-12.2q3-9.85,6-19.73c-.08-4.76.63-9.57-1-14.22-.36-3.15,3.06-4.87,3-7.91l0,0c.76-.35.64-.71,0-1.06.49-4.41,1.65-8.86-1-13,1-3.45,4.76-5.82,4-10l2.15-6c3.16,1.78,3.22,5.2,3.74,8.06a174.89,174.89,0,0,1,3.24,24.36C216,207.92,216.53,208.46,216.85,209Z" fill="#d6ad8f"/><path d="M202.78,190.93c2.68,4.15,1.52,8.6,1,13V205l0,0a15.91,15.91,0,0,1-14.66.83c-6.41-2.66-14.24-1.84-19.28-7.83l0-10.82c3-3.42,6.85-3.75,10.88-2.93,5.83,1.2,11.69,2.4,16.7,5.92C199.17,191.3,201,190.92,202.78,190.93Z" fill="#dcbaa0"/><path d="M169.9,227.9c-6.75,5.13-14.57,2.42-22,3l-2-.12-1.14-.74-5.91-2.34a20.63,20.63,0,0,1-1.06-7.29c.1-6.51,0-6.52,6.63-6.42,5.27.07,9.62-3.09,14.63-4.12,4.19-.86,8-1.44,11.71,1.05C170.23,216.57,169.54,222.21,169.9,227.9Z" fill="#d6ad8f"/><path d="M169.92,187.14l0,10.82c-8.57,6.68-18.6,8.66-29.11,8.94-2,.06-3.17-1.46-3.87-3.32a15.69,15.69,0,0,1-.55-10.22c1.18-3.89,5.54-2.54,8.25-4.27,4.62-3,10.24-4.4,15.88-5.08C164.18,183.56,167.35,184.37,169.92,187.14Z" fill="#d6ad8f"/><path d="M169.9,227.9c-.36-5.69.33-11.33.93-17,2-3.17,5-2.09,7.58-1.53a99.67,99.67,0,0,1,12.34,3.5,12.89,12.89,0,0,0,10.07,0c1.61,4.65.9,9.46,1,14.22-3.37,1.11-6.22,3.54-9.89,3.92-4.48,0-9-.09-13.45,0C175.14,231.12,172.25,230.34,169.9,227.9Z" fill="#dcbaa0"/><path d="M169.9,172a11.8,11.8,0,0,1-7.08,5c-6.71,1.76-13.34,3.8-20,5.57a10.33,10.33,0,0,1-8.83-2c-2.22-1.58-2.2-4-2-6.31.23-2.79,2.74-2.55,4.48-3.06,7.46-2.19,14.83-4.58,21.78-8.17,4.12-2.12,7.13-5.38,9.93-8.85,1.66-2.06,2.55-2.19,3.88.15,1.14,2,2.57,3.83,3.87,5.74-4.79-.72-6.59,1.42-6,6.08A52.18,52.18,0,0,1,169.9,172Z" fill="#d6ad8f"/><path d="M169.9,172a52.18,52.18,0,0,0-.06-5.87c-.55-4.66,1.25-6.8,6-6.08A131.32,131.32,0,0,0,206.45,172c1.88.46,2.45,1.31,2.5,2.95l-2.15,6c-4.85,2.61-9.61,2.36-14.73.41-4.89-1.87-10.1-2.89-15.15-4.34A11.26,11.26,0,0,1,169.9,172Z" fill="#dcbaa0"/><path d="M119.88,249.79l1.8-16c3.95,7.24,8.8,14,11.24,22C128.05,254.93,123.41,253.56,119.88,249.79Z" fill="#b47e58"/><path d="M191.91,231c3.67-.38,6.52-2.81,9.89-3.92q-3,9.87-6,19.73c-1.56-1.49-1-3.44-.83-5.12C195.34,237.67,193.72,234.34,191.91,231Z" fill="#b47e58"/><path d="M138.92,227.71l5.91,2.34,1.14.74,2,.12c-2.79,4.6-3.76,9.62-4,15.14Q141.42,236.87,138.92,227.71Z" fill="#b47e58"/><path d="M223.41,305.4c-1.54,2.84-4.56,2.65-7,3-11.94,1.61-23.24.4-32.25-8.82-3.18-3.25-4.55-7.17-4-13.07,5.62,12.42,15.6,16,27,16.91,5.5.46,10.81-1.14,16.19-1.92C223.32,302.79,223.37,304.09,223.41,305.4Z" fill="#333"/><path d="M223.41,305.4c0-1.31-.09-2.61-.13-3.92,5.52-3.87,11.81-7,13.91-15.17C238.38,295.91,231.44,304.91,223.41,305.4Z" fill="#e7e7e7"/><path d="M204.56,281.06c-1.56-1.51-2.46-3.16-1-5.23,1.72-2.44,4.3-2.09,6.76-2a4.3,4.3,0,0,1,4.39,3.31,22.07,22.07,0,0,1,.31,3.92,6.85,6.85,0,0,1-6.12,1.94,1.94,1.94,0,0,0-2-1.17l-2.08-.51Z" fill="#333"/><path d="M206.9,281.85a1.94,1.94,0,0,1,2,1.17c0,1.28,0,2.56-.08,3.84-4.75,0-8-1.81-8.87-7.28,1.82.31,2.93,2,4.61,1.47l.27.29C205.16,283,205.8,283.34,206.9,281.85Z" fill="#3d3f3e"/><path d="M208.81,286.86c0-1.28.05-2.56.08-3.84a6.85,6.85,0,0,0,6.12-1.94c.6-.23,1.29-.77,1.76-.62,1.2.38.57,1.38.24,2C215.23,285.64,212.35,286.89,208.81,286.86Z" fill="#e7e7e7"/><path d="M144.05,305.66c-10.51,7-33.19,3.12-40.49-7.06-2.33-3.24-3.47-6.89-3.26-12.55,5.22,11.35,13.61,15.58,24.08,17,6.78.91,13.12-.52,19.51-2.2C143.94,302.46,144,304.06,144.05,305.66Z" fill="#333"/><path d="M144.05,305.66c-.05-1.6-.11-3.2-.16-4.81,5.81-3.05,11.09-6.66,13.55-13.63C158.73,295.81,152.82,303.67,144.05,305.66Z" fill="#e7e7e7"/><path d="M124,281.73c-1.37-6.29-.26-8,5.21-7.94,4.94,0,6.61,2.12,5.67,7.1l0,0a.92.92,0,0,0-1,1l0,0c-1.71-.05-3.5-.31-4.4,1.71C127.7,282.93,125.54,283.27,124,281.73Z" fill="#333"/><path d="M134.89,280.89l2.83-.8a9.28,9.28,0,0,1-.52,2.8c-1.69,3.11-4.65,3.91-7.92,4,.06-1.12.13-2.24.19-3.36,1.8.27,3.38,0,4.46-1.65l0,0c.68,0,1.05-.33,1-1Z" fill="#333"/><path d="M129.47,283.51c-.06,1.12-.13,2.24-.19,3.36-3.81-.17-7.07-1.18-8.45-5.25,1.34-1.44,2.15.58,3.18.11,1.53,1.54,3.69,1.2,5.52,1.85Z" fill="#e7e7e7"/><path d="M206.85,256c2.07-6.54,6.22-12.05,9.19-18.14.47-1-.37-4,2.63-2.88q1.05,7.5,2.09,15A28.86,28.86,0,0,1,206.85,256Z" fill="#c69575"/><path d="M108.93,175.05a1.09,1.09,0,0,1,.83,1.25C109.48,175.89,109.2,175.47,108.93,175.05Z" fill="#c69575"/><path d="M203.81,205v-1.06C204.45,204.29,204.57,204.65,203.81,205Z" fill="#c69575"/><path d="M146,230.79l-1.14-.74Z" fill="#c69575"/><path d="M206.9,281.85c-1.1,1.49-1.74,1.12-2.08-.51Z" fill="#777"/><path d="M129.47,283.51l.06.07c.9-2,2.69-1.77,4.4-1.72C132.85,283.5,131.27,283.78,129.47,283.51Z" fill="#777"/><path d="M134.92,280.86c0,.7-.35,1-1,1A.92.92,0,0,1,134.92,280.86Z" fill="#777"/></g></g></svg>