<svg width="34" height="24" viewBox="0 0 34 24" fill="none" xmlns="http://www.w3.org/2000/svg">
<path d="M0 16.4486C0.280553 15.4241 0.907924 14.7376 1.9544 14.4752C2.26978 14.4091 2.59184 14.3802 2.91396 14.3892C3.08608 14.3892 3.21001 14.3453 3.2014 14.138C3.17042 13.4301 3.25046 12.747 3.64375 12.1303C3.72981 11.9909 3.62567 11.8593 3.57834 11.7346C3.13073 10.5928 2.91936 9.37224 2.95699 8.14655C3.04305 5.7835 3.81759 3.68454 5.53877 2.02086C7.75738 -0.117663 10.3486 -0.48326 13.1877 0.567939C14.2954 0.984384 15.3165 1.60178 16.1998 2.38904C16.4244 2.58603 16.5535 2.60238 16.8022 2.3942C18.1791 1.25698 19.7076 0.419979 21.4933 0.115459C23.6276 -0.247557 25.5054 0.30901 27.1129 1.72064C28.884 3.26905 29.7765 5.26908 29.9847 7.60546C30.1046 9.03051 29.8968 10.4641 29.3772 11.7965C29.3419 11.8731 29.3267 11.9574 29.3328 12.0415C29.339 12.1256 29.3664 12.2067 29.4125 12.2774C29.7051 12.7711 29.7937 13.3157 29.7825 13.8851C29.7722 14.3789 29.7825 14.3875 30.2619 14.3927C31.1698 14.4013 31.9555 14.6817 32.5054 15.4361C33.1078 16.2611 33.1939 17.1626 32.7559 18.0805C32.2963 19.0422 31.4813 19.4938 30.4323 19.5428C29.7834 19.5755 29.7885 19.5687 29.7765 20.231C29.7575 21.3244 29.3057 22.1889 28.347 22.7309C27.3883 23.2728 26.3944 23.2401 25.452 22.6448C25.2412 22.5115 25.1723 22.5881 25.0587 22.7558C24.7368 23.2392 24.272 23.6101 23.729 23.8167C23.1861 24.0233 22.5921 24.0553 22.0301 23.9082C21.4681 23.761 20.9661 23.4422 20.5942 22.9961C20.2222 22.55 19.9989 21.9989 19.9554 21.4199C19.9305 21.0904 19.8057 21.228 19.6688 21.3227C18.8143 21.9179 17.9623 22.5158 17.106 23.1068C16.5982 23.4577 16.4123 23.4577 15.9123 23.1137C15.0518 22.5227 14.2032 21.9257 13.3478 21.333C13.2617 21.2736 13.192 21.1842 13.0492 21.179C13.0182 21.3872 13.0294 21.6005 12.9751 21.8061C12.6714 22.9476 11.9596 23.6874 10.8013 23.9309C9.60593 24.1821 8.64981 23.7382 7.94068 22.7713C7.77889 22.5511 7.69025 22.5433 7.46994 22.681C5.65323 23.8182 3.27025 22.5321 3.20484 20.3876C3.19618 20.2157 3.19618 20.0434 3.20484 19.8715C3.22034 19.6426 3.14288 19.536 2.89675 19.5446C1.43375 19.5945 0.460417 18.9424 0 17.5411L0 16.4486ZM16.4924 14.3935C17.5122 14.3935 18.532 14.3841 19.5518 14.3987C19.8607 14.4038 19.9632 14.3041 19.9545 13.9935C19.9391 13.4266 19.9038 12.8494 19.9838 12.2911C20.0704 11.7334 20.3248 11.2153 20.713 10.8055C21.1013 10.3957 21.605 10.1137 22.1574 9.99695C22.7098 9.88017 23.2847 9.93414 23.8057 10.1517C24.3267 10.3693 24.7691 10.7401 25.0742 11.215C25.2076 11.4189 25.2894 11.3965 25.4649 11.2847C26.2042 10.815 27.0037 10.6825 27.8341 10.9819C28.1293 11.0868 28.2257 11.0128 28.3014 10.7393C29.0019 8.22311 28.6853 5.87382 27.1302 3.74218C25.6069 1.65441 23.1861 0.892244 20.7351 1.7129C19.3582 2.17312 18.1731 2.95163 17.1206 3.94089C16.6344 4.39681 16.3237 4.39165 15.8538 3.92627C14.94 3.01313 13.8471 2.2988 12.6438 1.82817C10.3538 0.929234 7.96048 1.39806 6.37527 3.13572C4.34943 5.35683 3.89762 7.953 4.70486 10.8021C4.7694 11.0292 4.85718 11.0842 5.0904 10.9991C5.94325 10.6877 6.76339 10.7986 7.51813 11.289C7.73758 11.4309 7.79782 11.3664 7.92691 11.1849C8.63604 10.1922 9.60765 9.75689 10.8082 10.0055C11.9639 10.2446 12.6912 10.9896 12.97 12.1371C13.1206 12.7582 13.0225 13.3982 13.0285 14.0296C13.0285 14.3135 13.1257 14.4013 13.4029 14.3978C14.4321 14.3858 15.4623 14.3935 16.4924 14.3935ZM8.83312 16.9673C8.83312 18.4039 8.82365 19.8405 8.83312 21.2762C8.83871 21.5789 8.94403 21.8714 9.13275 22.1083C9.32148 22.3451 9.58307 22.5131 9.87701 22.5863C10.1767 22.6639 10.4934 22.6424 10.7799 22.5252C11.0664 22.408 11.3072 22.2013 11.4665 21.936C11.6464 21.6461 11.661 21.3338 11.661 21.007C11.661 18.7772 11.661 16.5475 11.661 14.3178C11.661 13.7389 11.661 13.16 11.6473 12.5819C11.6405 12.3874 11.5875 12.1973 11.4926 12.0273C11.3977 11.8574 11.2637 11.7125 11.1016 11.6047C10.6507 11.2735 10.155 11.2055 9.64637 11.4472C9.13776 11.689 8.83312 12.1045 8.83053 12.6903C8.82881 14.1157 8.8314 15.5419 8.8314 16.9673H8.83312ZM24.1517 16.9974C24.1517 15.5497 24.1714 14.1028 24.1448 12.6559C24.1241 11.5814 22.9331 10.9612 22.0114 11.5161C21.5243 11.8085 21.3229 12.249 21.3229 12.8064C21.3281 15.5826 21.3281 18.3589 21.3229 21.1351C21.3227 21.2317 21.3282 21.3282 21.3392 21.4242C21.3833 21.7338 21.5308 22.0194 21.7578 22.2347C21.9848 22.4499 22.278 22.582 22.5897 22.6096C23.5062 22.6612 24.1387 22.0934 24.1491 21.1738C24.162 19.7854 24.1525 18.391 24.1525 16.9974H24.1517ZM4.58782 16.9596C4.58782 18.0538 4.58782 19.148 4.58782 20.2422C4.58782 21.0956 5.15925 21.7046 5.9553 21.7184C6.78749 21.733 7.43896 21.1248 7.44326 20.2792C7.45531 18.0793 7.45531 15.8797 7.44326 13.6804C7.4381 12.8202 6.80728 12.2094 5.98025 12.218C5.17904 12.2249 4.59384 12.8486 4.5904 13.7114C4.58609 14.7961 4.58868 15.8757 4.58868 16.9596H4.58782ZM28.3927 16.9905C28.3927 15.8963 28.3927 14.8021 28.3927 13.7079C28.3927 12.8477 27.8031 12.2214 27.0011 12.2154C26.1603 12.2094 25.5381 12.8365 25.5338 13.7131C25.528 15.8923 25.528 18.0716 25.5338 20.2508C25.5338 21.1059 26.1663 21.727 26.9907 21.7218C27.8152 21.7166 28.3875 21.1119 28.3909 20.2448C28.3995 19.1575 28.3935 18.0744 28.3935 16.9905H28.3927ZM16.4941 18.1665C17.5337 18.1665 18.5742 18.1605 19.6138 18.1665C19.8573 18.1665 19.958 18.1045 19.9528 17.8413C19.9365 17.2521 19.9399 16.6619 19.9528 16.0727C19.9528 15.8387 19.8831 15.7535 19.6413 15.7544C17.5397 15.7613 15.4384 15.7613 13.3375 15.7544C13.0879 15.7544 13.0276 15.8525 13.0319 16.0796C13.0431 16.6576 13.0457 17.2374 13.0319 17.8155C13.0251 18.0736 13.1051 18.1716 13.3762 18.1682C14.4141 18.1587 15.4545 18.1665 16.4941 18.1665ZM13.3288 19.5704L13.3022 19.6297C14.3217 20.3403 15.3406 21.0508 16.359 21.7614C16.5113 21.868 16.6172 21.7829 16.7342 21.7029C17.3504 21.2728 17.9674 20.8469 18.5819 20.4168C18.9554 20.1588 19.3246 19.8878 19.7687 19.5704H13.3288ZM3.20226 16.9639V16.4477C3.20226 15.7114 3.1076 15.6357 2.36921 15.7845C2.31671 15.7948 2.26508 15.8086 2.21344 15.8224C1.91981 15.897 1.66691 16.0832 1.50859 16.3414C1.35026 16.5996 1.29901 16.9093 1.36576 17.2047C1.51292 17.923 2.3847 18.4091 3.07576 18.1562C3.21259 18.1063 3.19968 17.9979 3.20054 17.8929C3.20312 17.5841 3.2014 17.2736 3.20226 16.9639ZM29.7765 16.9527V17.4688C29.7765 18.243 29.7851 18.2499 30.5665 18.1639C30.7724 18.1432 30.9694 18.0694 31.1382 17.9498C31.3071 17.8301 31.4419 17.6687 31.5296 17.4814C31.6173 17.294 31.6548 17.0871 31.6385 16.8809C31.6222 16.6747 31.5526 16.4762 31.4366 16.3049C31.1629 15.892 30.3909 15.6254 29.915 15.7707C29.773 15.8138 29.7791 15.9178 29.7782 16.0245C29.7765 16.3325 29.7808 16.6422 29.7765 16.9527Z" fill="black" fill-opacity="0.3"/>
</svg>
