<svg xmlns="http://www.w3.org/2000/svg" viewBox="0 0 33.03 24"><title>ic_heard1</title><g id="Layer_2" data-name="Layer 2"><g id="Layer_1-2" data-name="Layer 1"><path d="M0,16.45a2.57,2.57,0,0,1,2-2,3.91,3.91,0,0,1,1-.09c.18,0,.3,0,.29-.25a3.37,3.37,0,0,1,.44-2c.09-.14,0-.27-.06-.4A9,9,0,0,1,3,8.15,8.59,8.59,0,0,1,5.54,2,6.83,6.83,0,0,1,13.19.57a9.37,9.37,0,0,1,3,1.82c.22.2.35.21.6,0A10,10,0,0,1,21.49.12a6.47,6.47,0,0,1,5.62,1.6A8.47,8.47,0,0,1,30,7.61a9.38,9.38,0,0,1-.6,4.19.49.49,0,0,0-.05.24.62.62,0,0,0,.08.24,2.9,2.9,0,0,1,.37,1.61c0,.49,0,.5.48.5a2.63,2.63,0,0,1,2.25,1,2.46,2.46,0,0,1,.25,2.64,2.53,2.53,0,0,1-2.33,1.46c-.65,0-.64,0-.65.69a2.74,2.74,0,0,1-1.43,2.5,2.68,2.68,0,0,1-2.9-.09c-.21-.13-.28-.05-.39.12a2.79,2.79,0,0,1-3,1.15A2.9,2.9,0,0,1,20.59,23,2.79,2.79,0,0,1,20,21.42c0-.33-.15-.19-.29-.1l-2.56,1.79a.82.82,0,0,1-1.2,0l-2.56-1.78c-.09-.06-.16-.15-.3-.15,0,.21,0,.42-.07.63a2.72,2.72,0,0,1-2.18,2.12,2.67,2.67,0,0,1-2.86-1.16c-.16-.22-.25-.23-.47-.09A2.8,2.8,0,0,1,3.2,20.39v-.52c0-.23-.06-.33-.3-.33a2.67,2.67,0,0,1-2.9-2Zm16.49-2.06c1,0,2,0,3.06,0,.31,0,.41-.1.4-.41a10.73,10.73,0,0,1,0-1.7,2.77,2.77,0,0,1,.73-1.48,2.77,2.77,0,0,1,4.36.41c.14.2.22.18.39.06a2.6,2.6,0,0,1,2.37-.3c.3.11.4,0,.47-.24a7.75,7.75,0,0,0-1.17-7,5.48,5.48,0,0,0-6.39-2,9.77,9.77,0,0,0-3.62,2.23c-.49.46-.8.45-1.27,0a9.17,9.17,0,0,0-3.21-2.1A5.51,5.51,0,0,0,6.38,3.14,7.61,7.61,0,0,0,4.7,10.8c.07.23.16.28.39.2a2.63,2.63,0,0,1,2.43.29c.22.14.28.08.41-.11A2.67,2.67,0,0,1,10.81,10,2.66,2.66,0,0,1,13,12.14,8.52,8.52,0,0,1,13,14c0,.28.1.37.37.37ZM8.83,17c0,1.43,0,2.87,0,4.31a1.38,1.38,0,0,0,1.05,1.31,1.54,1.54,0,0,0,.9-.06,1.47,1.47,0,0,0,.69-.59,1.68,1.68,0,0,0,.19-.93V14.32c0-.58,0-1.16,0-1.74a1.21,1.21,0,0,0-.16-.55,1.24,1.24,0,0,0-.39-.43,1.35,1.35,0,0,0-1.45-.15,1.31,1.31,0,0,0-.82,1.24V17Zm15.32,0c0-1.45,0-2.9,0-4.34a1.41,1.41,0,1,0-2.82.15q0,4.15,0,8.33a2.64,2.64,0,0,0,0,.28,1.33,1.33,0,0,0,.42.81,1.36,1.36,0,0,0,.83.38,1.38,1.38,0,0,0,1.56-1.44c0-1.38,0-2.78,0-4.17ZM4.59,17v3.28A1.39,1.39,0,0,0,6,21.72a1.42,1.42,0,0,0,1.48-1.44q0-3.3,0-6.6a1.43,1.43,0,1,0-2.85,0V17Zm23.8,0V13.71A1.4,1.4,0,0,0,27,12.22a1.43,1.43,0,0,0-1.47,1.49v6.54A1.42,1.42,0,0,0,27,21.72a1.38,1.38,0,0,0,1.4-1.48c0-1.08,0-2.17,0-3.25Zm-11.9,1.18c1,0,2.08,0,3.12,0,.25,0,.35-.07.34-.33q0-.89,0-1.77c0-.23-.07-.32-.31-.32h-6.3c-.25,0-.31.1-.31.33,0,.58,0,1.16,0,1.74,0,.25.08.35.35.35C14.41,18.16,15.45,18.17,16.49,18.17Zm-3.16,1.4,0,.06,3.06,2.13c.15.11.26,0,.37-.06l1.85-1.28c.38-.26.74-.53,1.19-.85ZM3.2,17v-.51c0-.74-.09-.81-.83-.67l-.16,0a1.18,1.18,0,0,0-.7.52,1.14,1.14,0,0,0-.14.86,1.35,1.35,0,0,0,1.71,1c.13-.05.12-.16.12-.27Zm26.58,0v.52c0,.77,0,.78.79.69a1.17,1.17,0,0,0,1-.68,1.24,1.24,0,0,0,.11-.6,1.34,1.34,0,0,0-.2-.58,1.59,1.59,0,0,0-1.52-.53c-.15,0-.14.15-.14.25Z" fill="#8352fd"/><path d="M0,16.45a2.57,2.57,0,0,1,2-2,3.91,3.91,0,0,1,1-.09c.18,0,.3,0,.29-.25a3.37,3.37,0,0,1,.44-2c.09-.14,0-.27-.06-.4A9,9,0,0,1,3,8.15,8.59,8.59,0,0,1,5.54,2,6.83,6.83,0,0,1,13.19.57a9.37,9.37,0,0,1,3,1.82c.22.2.35.21.6,0A10,10,0,0,1,21.49.12a6.47,6.47,0,0,1,5.62,1.6A8.47,8.47,0,0,1,30,7.61a9.38,9.38,0,0,1-.6,4.19.49.49,0,0,0-.05.24.62.62,0,0,0,.08.24,2.9,2.9,0,0,1,.37,1.61c0,.49,0,.5.48.5a2.63,2.63,0,0,1,2.25,1,2.46,2.46,0,0,1,.25,2.64,2.53,2.53,0,0,1-2.33,1.46c-.65,0-.64,0-.65.69a2.74,2.74,0,0,1-1.43,2.5,2.68,2.68,0,0,1-2.9-.09c-.21-.13-.28-.05-.39.12a2.79,2.79,0,0,1-3,1.15A2.9,2.9,0,0,1,20.59,23,2.79,2.79,0,0,1,20,21.42c0-.33-.15-.19-.29-.1l-2.56,1.79a.82.82,0,0,1-1.2,0l-2.56-1.78c-.09-.06-.16-.15-.3-.15,0,.21,0,.42-.07.63a2.72,2.72,0,0,1-2.18,2.12,2.67,2.67,0,0,1-2.86-1.16c-.16-.22-.25-.23-.47-.09A2.8,2.8,0,0,1,3.2,20.39v-.52c0-.23-.06-.33-.3-.33a2.67,2.67,0,0,1-2.9-2Zm16.49-2.06c1,0,2,0,3.06,0,.31,0,.41-.1.4-.41a10.73,10.73,0,0,1,0-1.7,2.77,2.77,0,0,1,.73-1.48,2.77,2.77,0,0,1,4.36.41c.14.2.22.18.39.06a2.6,2.6,0,0,1,2.37-.3c.3.11.4,0,.47-.24a7.75,7.75,0,0,0-1.17-7,5.48,5.48,0,0,0-6.39-2,9.77,9.77,0,0,0-3.62,2.23c-.49.46-.8.45-1.27,0a9.17,9.17,0,0,0-3.21-2.1A5.51,5.51,0,0,0,6.38,3.14,7.61,7.61,0,0,0,4.7,10.8c.07.23.16.28.39.2a2.63,2.63,0,0,1,2.43.29c.22.14.28.08.41-.11A2.67,2.67,0,0,1,10.81,10,2.66,2.66,0,0,1,13,12.14,8.52,8.52,0,0,1,13,14c0,.28.1.37.37.37ZM8.83,17c0,1.43,0,2.87,0,4.31a1.38,1.38,0,0,0,1.05,1.31,1.54,1.54,0,0,0,.9-.06,1.47,1.47,0,0,0,.69-.59,1.68,1.68,0,0,0,.19-.93V14.32c0-.58,0-1.16,0-1.74a1.21,1.21,0,0,0-.16-.55,1.24,1.24,0,0,0-.39-.43,1.35,1.35,0,0,0-1.45-.15,1.31,1.31,0,0,0-.82,1.24V17Zm15.32,0c0-1.45,0-2.9,0-4.34a1.41,1.41,0,1,0-2.82.15q0,4.15,0,8.33a2.64,2.64,0,0,0,0,.28,1.33,1.33,0,0,0,.42.81,1.36,1.36,0,0,0,.83.38,1.38,1.38,0,0,0,1.56-1.44c0-1.38,0-2.78,0-4.17ZM4.59,17v3.28A1.39,1.39,0,0,0,6,21.72a1.42,1.42,0,0,0,1.48-1.44q0-3.3,0-6.6a1.43,1.43,0,1,0-2.85,0V17Zm23.8,0V13.71A1.4,1.4,0,0,0,27,12.22a1.43,1.43,0,0,0-1.47,1.49v6.54A1.42,1.42,0,0,0,27,21.72a1.38,1.38,0,0,0,1.4-1.48c0-1.08,0-2.17,0-3.25Zm-11.9,1.18c1,0,2.08,0,3.12,0,.25,0,.35-.07.34-.33q0-.89,0-1.77c0-.23-.07-.32-.31-.32h-6.3c-.25,0-.31.1-.31.33,0,.58,0,1.16,0,1.74,0,.25.08.35.35.35C14.41,18.16,15.45,18.17,16.49,18.17Zm-3.16,1.4,0,.06,3.06,2.13c.15.11.26,0,.37-.06l1.85-1.28c.38-.26.74-.53,1.19-.85ZM3.2,17v-.51c0-.74-.09-.81-.83-.67l-.16,0a1.18,1.18,0,0,0-.7.52,1.14,1.14,0,0,0-.14.86,1.35,1.35,0,0,0,1.71,1c.13-.05.12-.16.12-.27Zm26.58,0v.52c0,.77,0,.78.79.69a1.17,1.17,0,0,0,1-.68,1.24,1.24,0,0,0,.11-.6,1.34,1.34,0,0,0-.2-.58,1.59,1.59,0,0,0-1.52-.53c-.15,0-.14.15-.14.25Z" fill-opacity="0.2"/></g></g></svg>