<svg xmlns="http://www.w3.org/2000/svg" viewBox="0 0 23.91 23.91"><title>ic_like</title><g id="Layer_2" data-name="Layer 2"><g id="Layer_1-2" data-name="Layer 1"><path d="M12,23.91A11.52,11.52,0,0,0,16.56,23,12.27,12.27,0,0,0,23,16.57a11.77,11.77,0,0,0,0-9.22A12.25,12.25,0,0,0,16.56.94,11.46,11.46,0,0,0,11.94,0,11.46,11.46,0,0,0,7.32.94a12.21,12.21,0,0,0-3.8,2.59A12,12,0,0,0,.94,7.35,11.34,11.34,0,0,0,0,12a11.43,11.43,0,0,0,.94,4.62,12.14,12.14,0,0,0,2.59,3.81A12.31,12.31,0,0,0,7.34,23,11.55,11.55,0,0,0,12,23.91Zm0-2a9.7,9.7,0,0,1-3.88-.77A10.28,10.28,0,0,1,4.9,19a10,10,0,0,1-2.13-3.18A9.81,9.81,0,0,1,2,12a9.89,9.89,0,0,1,2.9-7A9.48,9.48,0,0,1,8.06,2.77,9.71,9.71,0,0,1,11.94,2a9.68,9.68,0,0,1,3.88.78A9.77,9.77,0,0,1,19,4.9a10,10,0,0,1,2.14,3.17A9.7,9.7,0,0,1,21.91,12a9.63,9.63,0,0,1-.77,3.88A10,10,0,0,1,19,19a10.21,10.21,0,0,1-3.18,2.13A9.63,9.63,0,0,1,12,21.91ZM5.24,13.84a4.24,4.24,0,0,0,.35,1.73,3.17,3.17,0,0,0,1,1.27A2.28,2.28,0,0,0,8,17.31H9.11a3.72,3.72,0,0,1-1.26-1.54,4.83,4.83,0,0,1-.37-2,5,5,0,0,1,.38-2,7.3,7.3,0,0,1,.8-1.37H7.73a2,2,0,0,0-1.27.47,3.05,3.05,0,0,0-.89,1.24A4.52,4.52,0,0,0,5.24,13.84Zm3.08-.05a3.65,3.65,0,0,0,.56,2.09,4.1,4.1,0,0,0,1.67,1.45,5.77,5.77,0,0,0,2.55.55H14q.62,0,1,0a6,6,0,0,0,.71-.11,1.93,1.93,0,0,0,.68-.32.84.84,0,0,0,.31-.7,1,1,0,0,0,0-.31c0-.1-.07-.19-.1-.25s0-.14,0-.17a1.39,1.39,0,0,0,.5-.39,1,1,0,0,0,.22-.63,1.07,1.07,0,0,0-.07-.41.82.82,0,0,0-.17-.32c-.08-.1-.06-.18.06-.25a1,1,0,0,0,.49-.93,1.31,1.31,0,0,0-.07-.44.84.84,0,0,0-.19-.34c-.09-.07-.08-.14,0-.22a1.09,1.09,0,0,0,.31-.82,1.13,1.13,0,0,0-.32-.8,1,1,0,0,0-.77-.33H14.4a1.14,1.14,0,0,1-.7-.19.75.75,0,0,1-.25-.58,2.81,2.81,0,0,1,.26-1c.18-.41.36-.83.53-1.27a3.16,3.16,0,0,0,.27-1.2.9.9,0,0,0-.26-.69.84.84,0,0,0-.62-.25.7.7,0,0,0-.54.21,2.07,2.07,0,0,0-.36.58,18.14,18.14,0,0,1-1.6,2.5C10.55,9,10,9.66,9.55,10.31a7,7,0,0,0-.91,1.58A5.27,5.27,0,0,0,8.32,13.79Z" fill="#3913b8"/></g></g></svg>