<svg xmlns="http://www.w3.org/2000/svg" viewBox="0 0 23.91 23.91"><title>ic_start</title><g id="Layer_2" data-name="Layer 2"><g id="Layer_1-2" data-name="Layer 1"><path d="M12,23.91A11.52,11.52,0,0,0,16.56,23,12.27,12.27,0,0,0,23,16.57a11.77,11.77,0,0,0,0-9.22A12.25,12.25,0,0,0,16.56.94,11.46,11.46,0,0,0,11.94,0,11.46,11.46,0,0,0,7.32.94a12.21,12.21,0,0,0-3.8,2.59A12,12,0,0,0,.94,7.35,11.34,11.34,0,0,0,0,12a11.43,11.43,0,0,0,.94,4.62,12.14,12.14,0,0,0,2.59,3.81A12.31,12.31,0,0,0,7.34,23,11.55,11.55,0,0,0,12,23.91Zm0-2a9.7,9.7,0,0,1-3.88-.77A10.28,10.28,0,0,1,4.9,19a10,10,0,0,1-2.13-3.18A9.81,9.81,0,0,1,2,12a9.89,9.89,0,0,1,2.9-7A9.48,9.48,0,0,1,8.06,2.77,9.71,9.71,0,0,1,11.94,2a9.68,9.68,0,0,1,3.88.78A9.77,9.77,0,0,1,19,4.9a10,10,0,0,1,2.14,3.17A9.7,9.7,0,0,1,21.91,12a9.63,9.63,0,0,1-.77,3.88A10,10,0,0,1,19,19a10.21,10.21,0,0,1-3.18,2.13A9.63,9.63,0,0,1,12,21.91ZM9.76,16.54l6.68-3.94a.68.68,0,0,0,.35-.64.67.67,0,0,0-.35-.62l-6.68-4A.84.84,0,0,0,9,7.31a.57.57,0,0,0-.4.58V16a.6.6,0,0,0,.37.6A.89.89,0,0,0,9.76,16.54Z" fill="#3913b8"/></g></g></svg>